<svg id="Layer_1" data-name="Layer 1" xmlns="http://www.w3.org/2000/svg" viewBox="0 0 64 64"><defs><style>.cls-1{fill:#fff;}</style></defs><title>1_</title><path class="cls-1" d="M61.5,7.75A5.09,5.09,0,0,0,56.61,2.5H7.39A5.09,5.09,0,0,0,2.5,7.75v4.5c0,.15,0,.28,0,.42a3,3,0,0,0,0,.4V21.9a7.51,7.51,0,0,0,3.79,6.64V56.22a5.11,5.11,0,0,0,4.89,5.28H52.82a5.11,5.11,0,0,0,4.89-5.28V28.55A7.51,7.51,0,0,0,61.5,21.9V13.07a3,3,0,0,0,0-.4c0-.14,0-.28,0-.42Zm-21.14,16a.72.72,0,0,1-.71.71H39.5a.72.72,0,0,1-.71-.71V17.5h1.57Zm-7.57,0a.72.72,0,0,1-.71.71h-.14a.72.72,0,0,1-.71-.71V17.5h1.57Zm-7.57,0a.72.72,0,0,1-.71.71h-.14a.72.72,0,0,1-.71-.71V17.5h1.57Zm-7.57,0a.72.72,0,0,1-.71.71h-.14a.72.72,0,0,1-.71-.71V17.5h1.57ZM8.5,21.9V17.5h1.57v4.4c0,.86-.52,1.42-.79,1.42S8.5,22.77,8.5,21.9Zm37.86-4.4h1.57v6.29a.72.72,0,0,1-.71.71h-.14a.72.72,0,0,1-.71-.71Zm7.57,4.4V17.5H55.5v4.4c0,.86-.52,1.42-.79,1.42S53.93,22.77,53.93,21.9ZM8.5,8.5h47v3H8.5Zm32,47v-17h5v17Zm11,0v-18a5,5,0,0,0-5-5h-7a5,5,0,0,0-5,5v18H12.29V28.75a6.68,6.68,0,0,0,4.5,1.75h.14a6.67,6.67,0,0,0,3.71-1.13,6.67,6.67,0,0,0,3.71,1.13h.14a6.67,6.67,0,0,0,3.71-1.13,6.67,6.67,0,0,0,3.71,1.13h.14a6.67,6.67,0,0,0,3.71-1.13A6.67,6.67,0,0,0,39.5,30.5h.14a6.67,6.67,0,0,0,3.71-1.13,6.67,6.67,0,0,0,3.71,1.13h.14a6.68,6.68,0,0,0,4.5-1.75V55.5Z"/><path class="cls-1" d="M28.5,32.5h-9a5,5,0,0,0-5,5v9a5,5,0,0,0,5,5h9a5,5,0,0,0,5-5v-9A5,5,0,0,0,28.5,32.5Zm-1,13h-7v-7h7Z"/></svg>