<svg id="Layer_1" data-name="Layer 1" xmlns="http://www.w3.org/2000/svg" viewBox="0 0 64 64"><defs><style>.cls-1{fill:#cfd9f8;}</style></defs><title>1_</title><polygon class="cls-1" points="58.5 16 50.93 16 41.46 32 58.5 32 58.5 16"/><polygon class="cls-1" points="58.5 32 37.68 32 37.68 38 32 38 20.64 57 58.5 57 58.5 32"/><path d="M56.5,59.5H7.5A3.5,3.5,0,0,1,4,56V30.5H60V56A3.5,3.5,0,0,1,56.5,59.5ZM7,33.5V56a.5.5,0,0,0,.5.5h49A.5.5,0,0,0,57,56V33.5Z"/><path d="M60,33.5H4V16a3.5,3.5,0,0,1,3.5-3.5h49A3.5,3.5,0,0,1,60,16Zm-53-3H57V16a.5.5,0,0,0-.5-.5H7.5A.5.5,0,0,0,7,16Z"/><path d="M35.68,39.5H28.32a3.5,3.5,0,0,1-3.5-3.5V30.5H39.18V36A3.5,3.5,0,0,1,35.68,39.5Zm-7.86-6V36a.5.5,0,0,0,.5.5h7.36a.5.5,0,0,0,.5-.5V33.5Z"/><path d="M41,15.5H23V8a3.5,3.5,0,0,1,3.5-3.5h11A3.5,3.5,0,0,1,41,8Zm-15-3H38V8a.5.5,0,0,0-.5-.5h-11A.5.5,0,0,0,26,8Z"/></svg>