<svg id="Layer_1" data-name="Layer 1" xmlns="http://www.w3.org/2000/svg" viewBox="0 0 64 64"><defs><style>.cls-1{fill:#cfd9f8;}</style></defs><title>1_</title><path d="M26,32.13C13.66,32.13,4,26,4,18.07S13.66,4,26,4s22,6.18,22,14.07S38.34,32.13,26,32.13ZM26,7C15.7,7,7,12.07,7,18.07s8.7,11.07,19,11.07,19-5.07,19-11.07S36.3,7,26,7Z"/><path d="M26,41.56c-12.34,0-22-6.18-22-14.07V18.07H7v9.42c0,6,8.7,11.07,19,11.07s19-5.07,19-11.07V18.07h3v9.42C48,35.38,38.34,41.56,26,41.56Z"/><path d="M26,51C13.66,51,4,44.8,4,36.92V27.49H7v9.42C7,42.91,15.7,48,26,48s19-5.07,19-11.07V27.49h3v9.42C48,44.8,38.34,51,26,51Z"/><path d="M26,60C13.66,60,4,54.17,4,46.73V36.92H7v9.81C7,52.29,15.7,57,26,57s19-4.71,19-10.27V36.92h3v9.81C48,54.17,38.34,60,26,60Z"/><circle cx="41.84" cy="37.73" r="17.4"/><circle class="cls-1" cx="42" cy="38" r="17.5"/><path d="M42,57A19,19,0,1,1,61,38,19,19,0,0,1,42,57Zm0-35A16,16,0,1,0,58,38,16,16,0,0,0,42,22Z"/><path d="M49.5,47.36a10.87,10.87,0,0,1-2.59,1.05,11.57,11.57,0,0,1-9.53-1.64A11.2,11.2,0,0,1,35,44.53a10.26,10.26,0,0,1-1.6-2.83H30.5L32,39.07h.77c0-.17,0-.34,0-.51s0-.33,0-.48v-.47a4.2,4.2,0,0,1,0-.47H30.5L32,34.52h1.29a10.58,10.58,0,0,1,1.55-3,10.29,10.29,0,0,1,2.38-2.31,11.19,11.19,0,0,1,3.08-1.5,12,12,0,0,1,3.61-.53,10.69,10.69,0,0,1,2.93.39,12.62,12.62,0,0,1,2.62,1.07L47.57,32a7.4,7.4,0,0,0-1.72-.73A7,7,0,0,0,43.93,31a7.37,7.37,0,0,0-3.73.94,6.59,6.59,0,0,0-2.54,2.55H46.3l-1.52,2.63h-8a3.33,3.33,0,0,0,0,.42V38a7.05,7.05,0,0,0,.08,1.07l6.93,0-1.5,2.63H37.82a6.53,6.53,0,0,0,2.49,2.35,7.4,7.4,0,0,0,3.62.87,8.28,8.28,0,0,0,1.93-.23A5.39,5.39,0,0,0,47.59,44Z"/></svg>