<svg id="Layer_1" data-name="Layer 1" xmlns="http://www.w3.org/2000/svg" viewBox="0 0 64 64"><defs><style>.cls-1{fill:#cfd9f8;}</style></defs><title>1_</title><path d="M26,32.13C13.66,32.13,4,26,4,18.07S13.66,4,26,4s22,6.18,22,14.07S38.34,32.13,26,32.13ZM26,7C15.7,7,7,12.07,7,18.07s8.7,11.07,19,11.07,19-5.07,19-11.07S36.3,7,26,7Z"/><path d="M26,41.56c-12.34,0-22-6.18-22-14.07V18.07H7v9.42c0,6,8.7,11.07,19,11.07s19-5.07,19-11.07V18.07h3v9.42C48,35.38,38.34,41.56,26,41.56Z"/><path d="M26,51C13.66,51,4,44.8,4,36.92V27.49H7v9.42C7,42.91,15.7,48,26,48s19-5.07,19-11.07V27.49h3v9.42C48,44.8,38.34,51,26,51Z"/><path d="M26,60C13.66,60,4,54.17,4,46.73V36.92H7v9.81C7,52.29,15.7,57,26,57s19-4.71,19-10.27V36.92h3v9.81C48,54.17,38.34,60,26,60Z"/><circle cx="41.84" cy="37.73" r="17.4"/><circle class="cls-1" cx="41" cy="38" r="17.5"/><path d="M41,57A19,19,0,1,1,60,38,19,19,0,0,1,41,57Zm0-35A16,16,0,1,0,57,38,16,16,0,0,0,41,22Z"/><path d="M51.56,45.07a12.89,12.89,0,0,1-3.87,2.39,11.91,11.91,0,0,1-4.47.89,12.42,12.42,0,0,1-4.76-.9,10.75,10.75,0,0,1-3.73-2.51,8.84,8.84,0,0,1-2.15-3.68h-3V39.56h2.69c0-.4-.06-.72-.06-1a4.21,4.21,0,0,1,0-.6H29.56V36.31h2.93a8.86,8.86,0,0,1,2.13-3.79,10.87,10.87,0,0,1,3.82-2.61A12.73,12.73,0,0,1,43.37,29a12.52,12.52,0,0,1,4.44.82A11.27,11.27,0,0,1,51.53,32L49.17,34.7a8.68,8.68,0,0,0-2.67-1.81,7.74,7.74,0,0,0-7.18.46,6.1,6.1,0,0,0-2.54,3h7.71V38H36.36a3.69,3.69,0,0,0,0,.55,5.54,5.54,0,0,0,.09,1h8.07v1.69H37a6.34,6.34,0,0,0,2.58,2.66,7.66,7.66,0,0,0,3.88,1,8.31,8.31,0,0,0,3-.59,9,9,0,0,0,2.72-1.65Z"/></svg>