<svg id="Layer_1" data-name="Layer 1" xmlns="http://www.w3.org/2000/svg" viewBox="0 0 64 64"><defs><style>.cls-1{fill:#cfd9f8;}</style></defs><title>1_</title><polygon class="cls-1" points="47 18.5 43 15.5 26 58.5 47 58.5 47 18.5"/><path d="M46,60H18a3.46,3.46,0,0,1-3.5-3.42V20.87a3.41,3.41,0,0,1,1-2.44L29.55,5a3.58,3.58,0,0,1,4.91,0l14,13.45a3.41,3.41,0,0,1,1,2.44V56.58A3.46,3.46,0,0,1,46,60ZM32,7a.54.54,0,0,0-.37.14l-14,13.45a.39.39,0,0,0-.12.28V56.58A.47.47,0,0,0,18,57H46a.47.47,0,0,0,.5-.42V20.87a.39.39,0,0,0-.12-.28l-14-13.45A.54.54,0,0,0,32,7Z"/><circle cx="32" cy="15" r="2"/><path d="M42.56,45.07a12.89,12.89,0,0,1-3.87,2.39,11.91,11.91,0,0,1-4.47.89,12.42,12.42,0,0,1-4.76-.9,10.75,10.75,0,0,1-3.73-2.51,8.84,8.84,0,0,1-2.15-3.68h-3V39.56h2.69c0-.4-.06-.72-.06-1a4.21,4.21,0,0,1,0-.6H20.56V36.31h2.93a8.86,8.86,0,0,1,2.13-3.79,10.87,10.87,0,0,1,3.82-2.61A12.73,12.73,0,0,1,34.37,29a12.52,12.52,0,0,1,4.44.82A11.27,11.27,0,0,1,42.53,32L40.17,34.7a8.68,8.68,0,0,0-2.67-1.81,7.74,7.74,0,0,0-7.18.46,6.1,6.1,0,0,0-2.54,3h7.71V38H27.36a3.69,3.69,0,0,0,0,.55,5.54,5.54,0,0,0,.09,1h8.07v1.69H28a6.34,6.34,0,0,0,2.58,2.66,7.66,7.66,0,0,0,3.88,1,8.31,8.31,0,0,0,3-.59,9,9,0,0,0,2.72-1.65Z"/></svg>