<svg id="Layer_1" data-name="Layer 1" xmlns="http://www.w3.org/2000/svg" viewBox="0 0 64 64"><defs><style>.cls-1{fill:#cfd9f8;}</style></defs><title>1_</title><polygon class="cls-1" points="52 5.5 48 5.5 27 58.5 52 58.5 52 5.5"/><path d="M46,43.5H18a1.5,1.5,0,0,1,0-3H46a1.5,1.5,0,0,1,0,3Z"/><path d="M46,51.5H18a1.5,1.5,0,0,1,0-3H46a1.5,1.5,0,0,1,0,3Z"/><path d="M50,60H14a3.5,3.5,0,0,1-3.5-3.5V7.5A3.5,3.5,0,0,1,14,4H50a3.5,3.5,0,0,1,3.5,3.5v49A3.5,3.5,0,0,1,50,60ZM14,7a.51.51,0,0,0-.5.5v49a.51.51,0,0,0,.5.5H50a.51.51,0,0,0,.5-.5V7.5A.51.51,0,0,0,50,7Z"/><path d="M42.56,30.07a12.89,12.89,0,0,1-3.87,2.39,11.91,11.91,0,0,1-4.47.89,12.42,12.42,0,0,1-4.76-.9,10.75,10.75,0,0,1-3.73-2.51,8.84,8.84,0,0,1-2.15-3.68h-3V24.56h2.69c0-.4-.06-.72-.06-1a4.21,4.21,0,0,1,0-.6H20.56V21.31h2.93a8.86,8.86,0,0,1,2.13-3.79,10.87,10.87,0,0,1,3.82-2.61A12.73,12.73,0,0,1,34.37,14a12.52,12.52,0,0,1,4.44.82A11.27,11.27,0,0,1,42.53,17L40.17,19.7a8.68,8.68,0,0,0-2.67-1.81,7.74,7.74,0,0,0-7.18.46,6.1,6.1,0,0,0-2.54,3h7.71V23H27.36a3.69,3.69,0,0,0,0,.55,5.54,5.54,0,0,0,.09,1h8.07v1.69H28a6.34,6.34,0,0,0,2.58,2.66,7.66,7.66,0,0,0,3.88,1,8.31,8.31,0,0,0,3-.59,9,9,0,0,0,2.72-1.65Z"/></svg>