<svg id="Layer_1" data-name="Layer 1" xmlns="http://www.w3.org/2000/svg" viewBox="0 0 64 64"><defs><style>.cls-1{fill:#cfd9f8;}</style></defs><title>1_</title><ellipse class="cls-1" cx="49.32" cy="11.89" rx="2.89" ry="5.15"/><path class="cls-1" d="M60.35,35.29a.82.82,0,0,0,.72-.94C60.67,28.56,56.64,24,51.72,24s-8.95,4.56-9.34,10.36a.82.82,0,0,0,.72.94Z"/><ellipse class="cls-1" cx="29.73" cy="25.12" rx="4.91" ry="8.07"/><path class="cls-1" d="M45.41,58a1.14,1.14,0,0,0,1-1.29c-.56-8-6.26-14.3-13.21-14.3S20.56,48.7,20,56.71A1.14,1.14,0,0,0,21,58Z"/><path d="M44.79,59.5H5.67a3.14,3.14,0,0,1-3.13-3.38,22.77,22.77,0,0,1,45.39,0,3.14,3.14,0,0,1-3.13,3.38ZM25.23,38.23A19.87,19.87,0,0,0,5.53,56.36c.05.11.09.14.14.14H44.79a.14.14,0,0,0,.11,0A19.82,19.82,0,0,0,25.23,38.23Z"/><path d="M24.82,36.18A11.32,11.32,0,1,1,36.14,24.87,11.33,11.33,0,0,1,24.82,36.18Zm0-19.63a8.32,8.32,0,1,0,8.32,8.32A8.33,8.33,0,0,0,24.82,16.55Z"/><path d="M12.14,58.27a1.5,1.5,0,0,1-1.5-1.5V49.41a1.5,1.5,0,0,1,3,0v7.36A1.5,1.5,0,0,1,12.14,58.27Z"/><path d="M38.32,58.27a1.5,1.5,0,0,1-1.5-1.5V49.41a1.5,1.5,0,0,1,3,0v7.36A1.5,1.5,0,0,1,38.32,58.27Z"/><path d="M58.92,35.5H28.42a1.5,1.5,0,1,1,0-3h30A12.61,12.61,0,0,0,46,21.46c-3.5,0-7.83,2.48-10.12,4.81a1.5,1.5,0,0,1-2.14-2.1c2.79-2.83,7.9-5.71,12.26-5.71A15.62,15.62,0,0,1,61.49,32.71a2.58,2.58,0,0,1-2.58,2.79Z"/><path d="M45.74,20.11a8,8,0,1,1,8-8A8,8,0,0,1,45.74,20.11Zm0-13a5,5,0,1,0,5,5A5,5,0,0,0,45.74,7.15Z"/><path d="M37.37,33.88a1.5,1.5,0,0,1-1.5-1.5v-4a1.5,1.5,0,0,1,3,0v4A1.5,1.5,0,0,1,37.37,33.88Z"/><path d="M54.64,34.69a1.5,1.5,0,0,1-1.5-1.5V28.33a1.5,1.5,0,0,1,3,0v4.86A1.5,1.5,0,0,1,54.64,34.69Z"/></svg>