<svg id="Layer_1" data-name="Layer 1" xmlns="http://www.w3.org/2000/svg" viewBox="0 0 64 64"><defs><style>.cls-1{fill:#cfd9f8;}</style></defs><title>1_</title><rect class="cls-1" x="4.84" y="8.16" width="15.88" height="9.25" transform="translate(-5.29 12.78) rotate(-45)"/><polygon class="cls-1" points="58.98 16.75 46.87 4.64 34.12 17.39 16.23 58.5 58.98 16.75"/><path d="M16.56,60.38A3.67,3.67,0,0,1,14,59.3L4.7,50a3.69,3.69,0,0,1,0-5.21L44.83,4.7A3.69,3.69,0,0,1,50,4.7L59.3,14a3.69,3.69,0,0,1,0,5.21L19.17,59.3A3.67,3.67,0,0,1,16.56,60.38ZM47.44,6.62a.68.68,0,0,0-.48.2L6.82,47a.69.69,0,0,0,0,1l9.26,9.26a.69.69,0,0,0,1,0L57.18,17a.69.69,0,0,0,0-1L47.92,6.82A.68.68,0,0,0,47.44,6.62Z"/><path d="M24.28,53.57a1.5,1.5,0,0,1-1.06-.44L18.59,48.5a1.5,1.5,0,0,1,2.12-2.12L25.34,51a1.5,1.5,0,0,1-1.06,2.56Z"/><path d="M28.91,48.94a1.5,1.5,0,0,1-1.06-.44l-7.72-7.72a1.5,1.5,0,0,1,2.12-2.12L30,46.38a1.5,1.5,0,0,1-1.06,2.56Z"/><path d="M38.17,39.67a1.5,1.5,0,0,1-1.06-.44L29.4,31.52a1.5,1.5,0,0,1,2.12-2.12l7.72,7.72a1.5,1.5,0,0,1-1.06,2.56Z"/><path d="M33.54,44.31a1.5,1.5,0,0,1-1.06-.44l-4.63-4.63A1.5,1.5,0,0,1,30,37.11l4.63,4.63a1.5,1.5,0,0,1-1.06,2.56Z"/><path d="M42.81,35a1.5,1.5,0,0,1-1.06-.44L37.11,30a1.5,1.5,0,0,1,2.12-2.12l4.63,4.63A1.5,1.5,0,0,1,42.81,35Z"/><path d="M47.44,30.41A1.5,1.5,0,0,1,46.38,30l-7.72-7.72a1.5,1.5,0,0,1,2.12-2.12l7.72,7.72a1.5,1.5,0,0,1-1.06,2.56Z"/><path d="M52.07,25.78A1.5,1.5,0,0,1,51,25.34l-4.63-4.63a1.5,1.5,0,0,1,2.12-2.12l4.63,4.63a1.5,1.5,0,0,1-1.06,2.56Z"/><path class="cls-1" d="M57.69,47.15l1.18,10.2a1.44,1.44,0,0,1-1.53,1.53l-10.2-1.18c-.92-.11-1.17-1.23-.44-2l9-9C56.46,46,57.58,46.23,57.69,47.15Z"/><path d="M57.49,60.38l-.31,0L47,59.18a2.45,2.45,0,0,1-2-1.63,2.78,2.78,0,0,1,.72-2.89l9-9a2.78,2.78,0,0,1,2.89-.72,2.45,2.45,0,0,1,1.63,2l1.18,10.2a2.84,2.84,0,0,1-.85,2.34A2.87,2.87,0,0,1,57.49,60.38Zm-.1-2.86h0Zm-9.13-1.21,9.11,1.06-1.06-9.11Zm7.95-9Z"/><path d="M20.4,32.75a1.5,1.5,0,0,1-1.06-.44L4.72,17.69a3.76,3.76,0,0,1,0-5.31l7.67-7.67a3.76,3.76,0,0,1,5.31,0L32.31,19.34a1.5,1.5,0,0,1-2.12,2.12L15.57,6.84a.75.75,0,0,0-1.06,0L6.84,14.51a.75.75,0,0,0,0,1.06L21.46,30.19a1.5,1.5,0,0,1-1.06,2.56Z"/><path d="M45.79,57.21a3.74,3.74,0,0,1-2.65-1.1l-12.2-12.2,2.12-2.12L45.26,54a.75.75,0,0,0,1.06,0L54,46.32a.75.75,0,0,0,0-1.06L42.5,33.86l2.11-2.13,11.5,11.4a3.75,3.75,0,0,1,0,5.31l-7.67,7.67A3.74,3.74,0,0,1,45.79,57.21Z"/><path d="M11.42,23.78a1.5,1.5,0,0,1-1.06-2.56L21.21,10.36a1.5,1.5,0,0,1,2.12,2.12L12.48,23.34A1.5,1.5,0,0,1,11.42,23.78Z"/><path d="M51.22,52.72a1.5,1.5,0,0,1-1.06-.44L37.39,39.51a1.5,1.5,0,0,1,2.12-2.12L52.28,50.16a1.5,1.5,0,0,1-1.06,2.56Z"/><path d="M25.55,27a1.5,1.5,0,0,1-1.06-.44l-8.7-8.7a1.5,1.5,0,1,1,2.12-2.12l8.7,8.7A1.5,1.5,0,0,1,25.55,27Z"/></svg>