<svg id="Layer_1" data-name="Layer 1" xmlns="http://www.w3.org/2000/svg" viewBox="0 0 64 64"><defs><style>.cls-1{fill:#cfd9f8;}</style></defs><title>1_</title><path d="M53,60H11a3.5,3.5,0,0,1-3.5-3.5V7.5A3.5,3.5,0,0,1,11,4H53a3.5,3.5,0,0,1,3.5,3.5v49A3.5,3.5,0,0,1,53,60ZM11,7a.51.51,0,0,0-.5.5v49a.51.51,0,0,0,.5.5H53a.51.51,0,0,0,.5-.5V7.5A.51.51,0,0,0,53,7Z"/><rect class="cls-1" x="15.5" y="12" width="33" height="10" rx="2" ry="2"/><path d="M46.5,23.5h-29A3.5,3.5,0,0,1,14,20V14a3.5,3.5,0,0,1,3.5-3.5h29A3.5,3.5,0,0,1,50,14v6A3.5,3.5,0,0,1,46.5,23.5Zm-29-10a.51.51,0,0,0-.5.5v6a.51.51,0,0,0,.5.5h29A.51.51,0,0,0,47,20V14a.51.51,0,0,0-.5-.5Z"/><rect class="cls-1" x="15.5" y="30" width="7" height="8" rx="2" ry="2"/><path d="M20.5,39.5h-3A3.5,3.5,0,0,1,14,36V32a3.5,3.5,0,0,1,3.5-3.5h3A3.5,3.5,0,0,1,24,32v4A3.5,3.5,0,0,1,20.5,39.5Zm-3-8a.51.51,0,0,0-.5.5v4a.51.51,0,0,0,.5.5h3A.51.51,0,0,0,21,36V32a.51.51,0,0,0-.5-.5Z"/><rect class="cls-1" x="15.5" y="44" width="7" height="8" rx="2" ry="2"/><path d="M20.5,53.5h-3A3.5,3.5,0,0,1,14,50V46a3.5,3.5,0,0,1,3.5-3.5h3A3.5,3.5,0,0,1,24,46v4A3.5,3.5,0,0,1,20.5,53.5Zm-3-8a.51.51,0,0,0-.5.5v4a.51.51,0,0,0,.5.5h3A.51.51,0,0,0,21,50V46a.51.51,0,0,0-.5-.5Z"/><rect class="cls-1" x="41.5" y="30" width="7" height="8" rx="2" ry="2"/><path d="M46.5,39.5h-3A3.5,3.5,0,0,1,40,36V32a3.5,3.5,0,0,1,3.5-3.5h3A3.5,3.5,0,0,1,50,32v4A3.5,3.5,0,0,1,46.5,39.5Zm-3-8a.51.51,0,0,0-.5.5v4a.51.51,0,0,0,.5.5h3A.51.51,0,0,0,47,36V32a.51.51,0,0,0-.5-.5Z"/><rect class="cls-1" x="29.5" y="44" width="19" height="8" rx="2" ry="2"/><path d="M46.5,53.5h-15A3.5,3.5,0,0,1,28,50V46a3.5,3.5,0,0,1,3.5-3.5h15A3.5,3.5,0,0,1,50,46v4A3.5,3.5,0,0,1,46.5,53.5Zm-15-8a.51.51,0,0,0-.5.5v4a.51.51,0,0,0,.5.5h15A.51.51,0,0,0,47,50V46a.51.51,0,0,0-.5-.5Z"/><rect class="cls-1" x="28.5" y="30" width="7" height="8" rx="2" ry="2"/><path d="M33.5,39.5h-3A3.5,3.5,0,0,1,27,36V32a3.5,3.5,0,0,1,3.5-3.5h3A3.5,3.5,0,0,1,37,32v4A3.5,3.5,0,0,1,33.5,39.5Zm-3-8a.51.51,0,0,0-.5.5v4a.51.51,0,0,0,.5.5h3A.51.51,0,0,0,34,36V32a.51.51,0,0,0-.5-.5Z"/></svg>