<?xml version="1.0" encoding="utf-8"?>
<!-- Generator: Adobe Illustrator 21.0.2, SVG Export Plug-In . SVG Version: 6.00 Build 0)  -->
<svg version="1.1" id="Layer_1" xmlns="http://www.w3.org/2000/svg" xmlns:xlink="http://www.w3.org/1999/xlink" x="0px" y="0px"
	 viewBox="0 0 900 900" style="enable-background:new 0 0 900 900;" xml:space="preserve">
<g>
	<g>
		<path d="M454.6,115.7c84.6,0,169.3-0.1,253.9,0c71.9,0.1,119.9,47.9,119.9,119.9c0.1,145.2,0.1,290.3,0,435.5
			c0,71.7-48.2,119.6-120.2,119.6c-169.8,0.1-339.6,0.1-509.4,0C125.7,790.7,78.1,743.1,78,670C78,525.4,78,380.7,78,236.1
			c0-72.8,47.9-120.3,121-120.4C284.2,115.7,369.4,115.7,454.6,115.7z M451.6,716c84.6,0,169.2,0,253.8,0c34.6,0,47.6-13,47.6-47.5
			c0.1-143.5,0.1-287,0-430.5c0-34.5-13-47.5-47.6-47.5c-168.1,0-336.3,0-504.4,0c-34.6,0-47.6,13-47.6,47.5
			c-0.1,143.5-0.1,287,0,430.5c0,34.5,13,47.5,47.6,47.5C284.5,716,368.1,716,451.6,716z"/>
		<path d="M229,488.5c0-23.2,0-47,0-73.1c5.3,0,10.5,0,15.6,0c76.4,0,152.9,0.3,229.3-0.3c13.1-0.1,18.2,3.2,17.2,16.9
			c-1.1,16,0.3,32.1-0.7,48.1c-0.3,3.8-6,10.4-9.3,10.5c-83.3,0.3-166.7,0-250-0.3C230.7,490.2,230.3,489.5,229,488.5z"/>
		<path d="M490.1,267.3c0,24.5,0,47.8,0,72.3c-86.9,0-173.3,0-260.8,0c0-23.5,0-47.2,0-72.3C315.5,267.3,401.9,267.3,490.1,267.3z"
			/>
		<path d="M677.7,566.5c0,24.7,0,48.1,0,72.7c-61.6,0-122.8,0-185.4,0c0-23.6,0-47.7,0-72.7C553.8,566.5,615,566.5,677.7,566.5z"/>
		<path d="M677.4,416.6c0,24.9,0,48.7,0,73.4c-24.5,0-48.3,0-73.1,0c0-24.6,0-48.4,0-73.4C628.3,416.6,652.1,416.6,677.4,416.6z"/>
		<path d="M604.6,266.8c24.5,0,48.2,0,72.7,0c0,24.5,0,48.2,0,72.9c-24,0-47.8,0-72.7,0C604.6,316.1,604.6,292.4,604.6,266.8z"/>
	</g>
</g>
</svg>
