<svg id="Layer_1" data-name="Layer 1" xmlns="http://www.w3.org/2000/svg" viewBox="0 0 550 650"><defs><style>.cls-1{fill:#f7f8f9;}.cls-2{fill:#edf1f4;}.cls-3{fill:#e4e9ef;}.cls-4{fill:#ccd6e5;}.cls-5{fill:#e9e9e9;}.cls-6{fill:#6a7ca5;}.cls-7{fill:#f5f5f5;}.cls-8{fill:#8a8e91;}.cls-9{fill:#d0dbf7;}.cls-10{fill:#93a6c9;}</style></defs><title>1_</title><circle class="cls-1" cx="275.53" cy="325.13" r="273.23"/><circle class="cls-2" cx="275.53" cy="325.13" r="246.63"/><circle class="cls-3" cx="275.53" cy="325.13" r="191.04"/><circle class="cls-4" cx="275.53" cy="325.13" r="134.13"/><circle class="cls-5" cx="307.58" cy="281.5" r="2.5"/><circle class="cls-5" cx="452.76" cy="273.94" r="2.5" transform="translate(-48.88 105.45) rotate(-12.61)"/><circle class="cls-5" cx="182.35" cy="252.95" r="0.81" transform="translate(-116.16 162.8) rotate(-37.41)"/><circle class="cls-5" cx="149.08" cy="268.38" r="0.81" transform="translate(-132.38 145.76) rotate(-37.41)"/><circle class="cls-5" cx="416.83" cy="277.25" r="0.81"/><circle class="cls-5" cx="394" cy="252.14" r="0.81"/><circle class="cls-5" cx="365.17" cy="269.68" r="0.81"/><circle class="cls-5" cx="328.81" cy="245.85" r="0.81"/><circle class="cls-5" cx="245" cy="264.18" r="0.81"/><circle class="cls-5" cx="277.17" cy="249.35" r="0.81"/><path class="cls-5" d="M82.62,274.47h-1v-1a1,1,0,0,0-2,0v1h-1a1,1,0,0,0,0,2h1v1a1,1,0,0,0,2,0v-1h1a1,1,0,1,0,0-2Z"/><path class="cls-5" d="M311.06,255.79h-1v-1a1,1,0,0,0-2,0v1h-1a1,1,0,0,0,0,2h1v1a1,1,0,0,0,2,0v-1h1a1,1,0,0,0,0-2Z"/><path class="cls-6" d="M124.83,337.94V308.56h25.71v29.38h19.28V362.5H150.54v40.4H124.83V362.5H56V338.63l59-96.18h29.61L86.5,337.94Z"/><path class="cls-6" d="M444.8,337.94V308.56H470.5v29.38h19.28V362.5H470.5v40.4H444.8V362.5H375.94V338.63l59-96.18h29.61l-58.07,95.49Z"/><circle class="cls-5" cx="181.62" cy="90.29" r="2.5"/><circle class="cls-5" cx="38.9" cy="104.22" r="0.81"/><circle class="cls-5" cx="30.95" cy="140.03" r="0.81"/><circle class="cls-5" cx="177.16" cy="59.9" r="0.81" transform="translate(0.05 119.94) rotate(-37.41)"/><circle class="cls-5" cx="143.88" cy="75.34" r="0.81" transform="translate(-16.17 102.9) rotate(-37.41)"/><circle class="cls-5" cx="104.81" cy="96.88" r="0.81" transform="translate(-37.3 83.59) rotate(-37.41)"/><path class="cls-5" d="M77.42,81.43h-1v-1a1,1,0,0,0-2,0v1h-1a1,1,0,0,0,0,2h1v1a1,1,0,0,0,2,0v-1h1a1,1,0,0,0,0-2Z"/><circle class="cls-5" cx="525.91" cy="127.97" r="2.5" transform="translate(186.31 549.44) rotate(-64.82)"/><circle class="cls-5" cx="390.83" cy="79.85" r="0.81" transform="translate(152.26 399.55) rotate(-64.82)"/><circle class="cls-5" cx="368.39" cy="108.87" r="0.81" transform="translate(113.1 395.92) rotate(-64.82)"/><circle class="cls-5" cx="534.8" cy="98.58" r="0.81" transform="translate(-8.75 115.47) rotate(-12.22)"/><circle class="cls-5" cx="498.12" cy="98.38" r="0.81" transform="translate(-9.54 107.7) rotate(-12.22)"/><circle class="cls-5" cx="453.59" cy="101.25" r="0.81" transform="translate(-11.15 98.33) rotate(-12.22)"/><path class="cls-5" d="M435.39,75.61l-.94-.44.44-.94a1,1,0,0,0-1.81-.85l-.44.94-.94-.44a1,1,0,1,0-.85,1.81l.94.44-.44.94a1,1,0,0,0,1.81.85l.44-.94.94.44a1,1,0,0,0,.85-1.81Z"/><circle class="cls-5" cx="123.49" cy="218.54" r="2.5"/><circle class="cls-5" cx="119.03" cy="188.15" r="0.81" transform="translate(-89.82 111) rotate(-37.41)"/><circle class="cls-5" cx="85.75" cy="203.59" r="0.81" transform="translate(-106.04 93.96) rotate(-37.41)"/><circle class="cls-5" cx="46.67" cy="225.13" r="0.81" transform="translate(-127.16 74.65) rotate(-37.41)"/><path class="cls-5" d="M19.29,209.68h-1v-1a1,1,0,0,0-2,0v1h-1a1,1,0,0,0,0,2h1v1a1,1,0,0,0,2,0v-1h1a1,1,0,0,0,0-2Z"/><circle class="cls-5" cx="518.92" cy="189.36" r="2.5"/><circle class="cls-5" cx="514.46" cy="158.98" r="0.81" transform="translate(9.23 345.23) rotate(-37.41)"/><circle class="cls-5" cx="481.19" cy="174.41" r="0.81" transform="translate(-6.99 328.19) rotate(-37.41)"/><circle class="cls-5" cx="442.11" cy="195.95" r="0.81" transform="translate(-28.11 308.88) rotate(-37.41)"/><path class="cls-5" d="M414.73,180.5h-1v-1a1,1,0,0,0-2,0v1h-1a1,1,0,0,0,0,2h1v1a1,1,0,1,0,2,0v-1h1a1,1,0,0,0,0-2Z"/><circle class="cls-5" cx="156.36" cy="152.85" r="0.81"/><circle class="cls-5" cx="222.27" cy="145.51" r="0.81" transform="translate(-42.68 164.95) rotate(-37.41)"/><path class="cls-5" d="M194.89,130.06h-1v-1a1,1,0,0,0-2,0v1h-1a1,1,0,0,0,0,2h1v1a1,1,0,0,0,2,0v-1h1a1,1,0,0,0,0-2Z"/><circle class="cls-5" cx="277.17" cy="131.54" r="2.5" transform="translate(-22.03 63.68) rotate(-12.61)"/><circle class="cls-5" cx="300.74" cy="97.69" r="0.81"/><path class="cls-5" d="M324.2,121.46h-1v-1a1,1,0,1,0-2,0v1h-1a1,1,0,0,0,0,2h1v1a1,1,0,0,0,2,0v-1h1a1,1,0,0,0,0-2Z"/><circle class="cls-5" cx="306.55" cy="82.96" r="2.5"/><circle class="cls-5" cx="302.09" cy="52.57" r="0.81" transform="translate(30.19 194.33) rotate(-37.41)"/><circle class="cls-7" cx="272.7" cy="327.56" r="89.03" transform="translate(-83.48 93.48) rotate(-16.91)"/><path class="cls-8" d="M272.75,417.61a90.09,90.09,0,1,1,26.14-3.9A90.19,90.19,0,0,1,272.75,417.61Zm.06-178.12a88.34,88.34,0,0,0-25.72,3.85,87.5,87.5,0,1,0,25.72-3.85Z"/><circle class="cls-5" cx="268.81" cy="68.01" r="0.81" transform="translate(13.97 177.29) rotate(-37.41)"/><circle class="cls-9" cx="272.37" cy="327.66" r="73.29" transform="translate(-83.53 93.38) rotate(-16.91)"/><path class="cls-8" d="M272.41,402a74.3,74.3,0,1,1,71-95.91h0a74.32,74.32,0,0,1-71,95.91Zm-.08-146.6a72.3,72.3,0,1,0,69.21,51.27h0A72.43,72.43,0,0,0,272.33,255.36Z"/><rect class="cls-7" x="295.48" y="411.43" width="18.49" height="43.01" transform="translate(-112.74 107.35) rotate(-16.91)"/><path class="cls-8" d="M301.47,457.44l-13.09-43.06,19.61-6,13.09,43.06Zm-10.59-41.73,11.93,39.23,15.78-4.8-11.93-39.23Z"/><rect class="cls-7" x="307.03" y="451.29" width="38.32" height="106.81" rx="12" ry="12" transform="translate(-132.69 116.69) rotate(-16.91)"/><path class="cls-8" d="M331.39,559.4a13,13,0,0,1-12.45-9.22l-24.09-79.23a13,13,0,0,1,8.66-16.22l13.7-4.17a13,13,0,0,1,16.22,8.66l24.09,79.23a13,13,0,0,1-8.66,16.22l-13.7,4.17A13,13,0,0,1,331.39,559.4ZM321,452a11,11,0,0,0-3.19.48l-13.7,4.17a11,11,0,0,0-7.33,13.72l24.09,79.23a11,11,0,0,0,13.72,7.33l13.7-4.17A11,11,0,0,0,355.6,539L331.52,459.8A11,11,0,0,0,321,452Z"/><path class="cls-9" d="M318.08,525.67H356.4a0,0,0,0,1,0,0v18.79a12,12,0,0,1-12,12H330.08a12,12,0,0,1-12-12V525.67A0,0,0,0,1,318.08,525.67Z" transform="translate(-142.79 121.48) rotate(-16.91)"/><path class="cls-8" d="M331.39,559.4a13,13,0,0,1-12.45-9.22l-5.76-18.94,38.58-11.73,5.76,18.94a13,13,0,0,1-8.66,16.22l-13.7,4.17A13,13,0,0,1,331.39,559.4Zm-15.71-26.83,5.17,17a11,11,0,0,0,13.72,7.33l13.7-4.17A11,11,0,0,0,355.6,539l-5.18-17Z"/><path class="cls-8" d="M314.91,499.23a1,1,0,0,1-1-.71l-8.46-27.81a1,1,0,0,1,1.91-.58l8.46,27.81a1,1,0,0,1-1,1.29Z"/><path class="cls-8" d="M321.89,522.2a1,1,0,0,1-1-.71l-3.33-11a1,1,0,0,1,1.91-.58l3.33,11a1,1,0,0,1-1,1.29Z"/><path class="cls-7" d="M323.74,351.78a2.51,2.51,0,0,1-3.08,3.17h0l-12-3.37a4,4,0,0,0-4.41,1.68l-5.45,8.52a4,4,0,0,1-4.77,1.56L284,359.45a4,4,0,0,0-4.69,1.45l-6.15,8.92a4,4,0,0,1-4.56,1.5l-11.34-3.91a4,4,0,0,0-4.55,1.49l-3.33,4.81a4,4,0,0,1-7-1.11L229,328.84a42,42,0,0,1,27.86-52.19h0a42,42,0,0,1,52.19,27.86Z"/><path class="cls-8" d="M246.11,376.4a5,5,0,0,1-.79-.06,4.93,4.93,0,0,1-4-3.46L228,329.13a42.83,42.83,0,0,1,82-24.92l14.68,47.26a3.51,3.51,0,0,1-4.31,4.42l-12-3.37a2.94,2.94,0,0,0-3.3,1.26l-5.45,8.52a5,5,0,0,1-6,2l-10.06-3.89a3,3,0,0,0-3.51,1.08L274,370.38a5,5,0,0,1-5.71,1.88l-11.34-3.91a3,3,0,0,0-3.4,1.11l-3.33,4.81A4.92,4.92,0,0,1,246.11,376.4ZM269,275.84a40.84,40.84,0,0,0-39,52.71l13.3,43.75a3,3,0,0,0,5.27.83l3.33-4.81a5,5,0,0,1,5.7-1.86l11.34,3.91a3,3,0,0,0,3.41-1.12l6.15-8.92a5,5,0,0,1,5.88-1.81l10.06,3.89a3,3,0,0,0,3.57-1.17l5.45-8.52a4.94,4.94,0,0,1,5.52-2.1l12,3.37a1.51,1.51,0,0,0,1.85-1.91L308.1,304.81a41.06,41.06,0,0,0-39.11-29Z"/><circle class="cls-7" cx="248.39" cy="314.67" r="11.95" transform="matrix(0.96, -0.29, 0.29, 0.96, -80.78, 85.85)"/><path class="cls-8" d="M248.38,327.63a13,13,0,1,1,12.41-16.73h0a13,13,0,0,1-12.41,16.73Zm0-23.92a11,11,0,0,0-10.49,14.14,11,11,0,1,0,21-6.37h0a11,11,0,0,0-10.47-7.77Z"/><circle class="cls-8" cx="250.44" cy="313.77" r="4.73" transform="translate(-80.43 86.41) rotate(-16.91)"/><circle class="cls-7" cx="283.27" cy="303.79" r="11.95" transform="matrix(0.96, -0.29, 0.29, 0.96, -76.11, 95.52)"/><path class="cls-8" d="M283.25,316.75a13,13,0,1,1,3.78-.57A12.89,12.89,0,0,1,283.25,316.75Zm0-23.92a11,11,0,0,0-3.2.48,11,11,0,1,0,13.67,7.29h0a11,11,0,0,0-10.47-7.77Z"/><circle class="cls-8" cx="285.32" cy="302.89" r="4.73" transform="translate(-75.76 96.08) rotate(-16.91)"/><path class="cls-8" d="M365.92,239.61H273.16a1,1,0,0,1,0-2h92.76a1,1,0,0,1,0,2Z"/><path class="cls-8" d="M350.25,247.43H323.83a1,1,0,0,1,0-2h26.42a1,1,0,0,1,0,2Z"/><path class="cls-8" d="M393.07,245.1H378.25a1,1,0,1,1,0-2h14.82a1,1,0,0,1,0,2Z"/><path class="cls-8" d="M400.27,556.4H343.49a1,1,0,0,1,0-2h56.77a1,1,0,1,1,0,2Z"/><path class="cls-8" d="M391.92,542.07h-20a1,1,0,0,1,0-2h20a1,1,0,1,1,0,2Z"/><path class="cls-8" d="M438.68,549.4H398.61a1,1,0,0,1,0-2h40.06a1,1,0,0,1,0,2Z"/><path class="cls-8" d="M382.88,405.94H323.64a1,1,0,0,1,0-2h59.24a1,1,0,0,1,0,2Z"/><path class="cls-8" d="M327.58,413.51H308.48a1,1,0,0,1,0-2h19.09a1,1,0,0,1,0,2Z"/><path class="cls-8" d="M358.84,419.91H333.11a1,1,0,0,1,0-2h25.73a1,1,0,1,1,0,2Z"/><path class="cls-8" d="M305.38,275.39a1,1,0,0,1-.53-.15,62.29,62.29,0,0,0-24.41-8.73,1,1,0,0,1,.26-2,64.3,64.3,0,0,1,25.2,9,1,1,0,0,1-.53,1.85Z"/><path class="cls-8" d="M335.48,336.23l-2-.27a61.16,61.16,0,0,0-2.12-26.23,62.23,62.23,0,0,0-3.47-8.9l1.8-.87a64.45,64.45,0,0,1,3.58,9.18A63.17,63.17,0,0,1,335.48,336.23Z"/><path class="cls-8" d="M291.27,421.46a1,1,0,0,1-.3-2l17.64-5.56a1,1,0,1,1,.6,1.91l-17.64,5.56A1,1,0,0,1,291.27,421.46Z"/><path class="cls-8" d="M300.52,451.88a1,1,0,0,1-.3-2l17.64-5.56a1,1,0,1,1,.6,1.91l-17.64,5.56A1,1,0,0,1,300.52,451.88Z"/><circle class="cls-5" cx="175.75" cy="556.29" r="2.5"/><circle class="cls-5" cx="33.02" cy="570.23" r="0.81"/><circle class="cls-5" cx="25.07" cy="606.04" r="0.81"/><circle class="cls-5" cx="171.28" cy="525.9" r="0.81" transform="translate(-284.25 212.22) rotate(-37.41)"/><circle class="cls-5" cx="138.01" cy="541.34" r="0.81" transform="translate(-300.47 195.18) rotate(-37.41)"/><circle class="cls-5" cx="98.93" cy="562.88" r="0.81" transform="translate(-321.6 175.87) rotate(-37.41)"/><path class="cls-5" d="M71.55,547.43h-1v-1a1,1,0,0,0-2,0v1h-1a1,1,0,0,0,0,2h1v1a1,1,0,0,0,2,0v-1h1a1,1,0,0,0,0-2Z"/><circle class="cls-5" cx="520.04" cy="593.98" r="2.5" transform="translate(-238.77 811.82) rotate(-64.82)"/><circle class="cls-5" cx="384.95" cy="545.85" r="0.81" transform="translate(-272.83 661.93) rotate(-64.82)"/><circle class="cls-5" cx="362.52" cy="574.88" r="0.81" transform="translate(-311.98 658.3) rotate(-64.82)"/><circle class="cls-5" cx="528.93" cy="564.58" r="0.81" transform="translate(-107.55 124.79) rotate(-12.22)"/><circle class="cls-5" cx="492.25" cy="564.39" r="0.81" transform="translate(-108.34 117.02) rotate(-12.22)"/><circle class="cls-5" cx="447.72" cy="567.25" r="0.81" transform="translate(-109.95 107.65) rotate(-12.22)"/><path class="cls-5" d="M429.51,541.62l-.94-.44.44-.94a1,1,0,1,0-1.81-.85l-.44.94-.94-.44a1,1,0,0,0-.85,1.81l.94.44-.44.94a1,1,0,0,0,1.81.85l.44-.94.94.44a1,1,0,0,0,.85-1.81Z"/><circle class="cls-5" cx="508.59" cy="624.98" r="0.81" transform="translate(-275.07 437.5) rotate(-37.41)"/><circle class="cls-5" cx="150.49" cy="618.86" r="0.81"/><circle class="cls-5" cx="216.39" cy="611.51" r="0.81" transform="translate(-326.98 257.23) rotate(-37.41)"/><path class="cls-5" d="M189,596.06h-1v-1a1,1,0,0,0-2,0v1h-1a1,1,0,0,0,0,2h1v1a1,1,0,0,0,2,0v-1h1a1,1,0,1,0,0-2Z"/><circle class="cls-5" cx="271.29" cy="597.55" r="2.5" transform="translate(-123.91 73.64) rotate(-12.61)"/><circle class="cls-5" cx="294.86" cy="563.69" r="0.81"/><path class="cls-5" d="M318.32,587.47h-1v-1a1,1,0,0,0-2,0v1h-1a1,1,0,0,0,0,2h1v1a1,1,0,0,0,2,0v-1h1a1,1,0,0,0,0-2Z"/><circle class="cls-5" cx="300.67" cy="548.96" r="2.5"/><circle class="cls-5" cx="296.21" cy="518.57" r="0.81" transform="translate(-254.11 286.6) rotate(-37.41)"/><circle class="cls-5" cx="262.93" cy="534.01" r="0.81" transform="translate(-270.33 269.56) rotate(-37.41)"/><circle class="cls-5" cx="266.09" cy="633.32" r="0.81" transform="translate(-330.01 291.9) rotate(-37.41)"/><circle class="cls-5" cx="181" cy="416.84" r="2.5"/><circle class="cls-5" cx="38.28" cy="430.78" r="0.81"/><circle class="cls-5" cx="30.33" cy="466.59" r="0.81"/><circle class="cls-5" cx="176.54" cy="386.45" r="0.81" transform="translate(-198.46 186.73) rotate(-37.41)"/><circle class="cls-5" cx="122.26" cy="452.89" r="0.81" transform="translate(-249.98 167.42) rotate(-37.41)"/><circle class="cls-5" cx="104.18" cy="423.43" r="0.81" transform="translate(-235.8 150.38) rotate(-37.41)"/><path class="cls-5" d="M76.8,408h-1v-1a1,1,0,0,0-2,0v1h-1a1,1,0,1,0,0,2h1v1a1,1,0,0,0,2,0v-1h1a1,1,0,0,0,0-2Z"/><circle class="cls-5" cx="155.74" cy="479.41" r="0.81"/><circle class="cls-5" cx="221.65" cy="472.06" r="0.81" transform="translate(-241.18 231.74) rotate(-37.41)"/><path class="cls-5" d="M194.27,456.61h-1v-1a1,1,0,0,0-2,0v1h-1a1,1,0,0,0,0,2h1v1a1,1,0,0,0,2,0v-1h1a1,1,0,0,0,0-2Z"/><circle class="cls-5" cx="509.87" cy="492.66" r="2.5" transform="translate(-152.93 744.42) rotate(-64.82)"/><circle class="cls-5" cx="374.78" cy="444.54" r="0.81" transform="translate(-186.98 594.53) rotate(-64.82)"/><circle class="cls-5" cx="352.35" cy="473.56" r="0.81" transform="translate(-226.14 590.9) rotate(-64.82)"/><circle class="cls-5" cx="518.76" cy="463.26" r="0.81" transform="translate(-86.32 120.34) rotate(-12.22)"/><circle class="cls-5" cx="482.08" cy="463.07" r="0.81" transform="translate(-87.12 112.57) rotate(-12.22)"/><circle class="cls-5" cx="437.55" cy="465.94" r="0.81" transform="translate(-88.73 103.2) rotate(-12.22)"/><path class="cls-5" d="M419.34,440.3l-.94-.44.44-.94a1,1,0,0,0-1.81-.85l-.44.94-.94-.44a1,1,0,0,0-.85,1.81l.94.44-.44.94a1,1,0,0,0,1.81.85l.44-.94.94.44a1,1,0,1,0,.85-1.81Z"/><circle class="cls-5" cx="261.12" cy="496.23" r="2.5" transform="translate(-102.03 68.97) rotate(-12.61)"/><circle class="cls-5" cx="284.69" cy="462.38" r="0.81"/><path class="cls-5" d="M393.7,492.73h-1v-1a1,1,0,0,0-2,0v1h-1a1,1,0,0,0,0,2h1v1a1,1,0,0,0,2,0v-1h1a1,1,0,0,0,0-2Z"/><circle class="cls-5" cx="290.5" cy="447.65" r="2.5"/><circle class="cls-5" cx="286.04" cy="417.26" r="0.81" transform="translate(-194.65 259.58) rotate(-37.41)"/><circle class="cls-5" cx="252.76" cy="432.7" r="0.81" transform="translate(-210.87 242.54) rotate(-37.41)"/><path class="cls-6" d="M251.84,130.5a9.9,9.9,0,0,1-13.57,0,9.51,9.51,0,0,1,0-13.39,9.9,9.9,0,0,1,13.57,0,9.51,9.51,0,0,1,0,13.39Zm-1.38-6.68a6,6,0,0,0-1.56-4.15,5.14,5.14,0,0,0-7.67,0,6.28,6.28,0,0,0,0,8.28,5.17,5.17,0,0,0,7.67,0A5.9,5.9,0,0,0,250.46,123.82Z"/><path class="cls-6" d="M273.31,130.5a9.9,9.9,0,0,1-13.57,0,9.51,9.51,0,0,1,0-13.39,9.9,9.9,0,0,1,13.57,0,9.51,9.51,0,0,1,0,13.39Zm-1.38-6.68a6,6,0,0,0-1.56-4.15,5.14,5.14,0,0,0-7.67,0,6.28,6.28,0,0,0,0,8.28,5.17,5.17,0,0,0,7.67,0A5.9,5.9,0,0,0,271.93,123.82Z"/><path class="cls-6" d="M292,116.46a6.19,6.19,0,0,1,1.91,5,5.91,5.91,0,0,1-2,4.93q-2,1.56-6,1.56h-2.42V133H279.5V114.83h6.42Q290.11,114.83,292,116.46Zm-3,7.15a3.5,3.5,0,0,0,.73-2.39,2.53,2.53,0,0,0-.95-2.24,5.21,5.21,0,0,0-3-.66h-2.31v6.11h2.73A3.62,3.62,0,0,0,289,123.61Z"/><path class="cls-6" d="M301.35,118.46a1.57,1.57,0,0,0-.58,1.27,1.44,1.44,0,0,0,.71,1.26,13.05,13.05,0,0,0,3.3,1.1,9.3,9.3,0,0,1,4,1.91,4.72,4.72,0,0,1,1.43,3.72,4.91,4.91,0,0,1-1.83,4,7.31,7.31,0,0,1-4.82,1.52,11.16,11.16,0,0,1-7.77-3.2l2.42-3q2.94,2.57,5.43,2.57a2.85,2.85,0,0,0,1.75-.48,1.54,1.54,0,0,0,.64-1.3,1.52,1.52,0,0,0-.68-1.3,8.83,8.83,0,0,0-2.68-1,11.64,11.64,0,0,1-4.64-2,4.63,4.63,0,0,1-1.47-3.8,4.71,4.71,0,0,1,1.86-4,7.48,7.48,0,0,1,4.64-1.4,11.17,11.17,0,0,1,3.64.62,9.76,9.76,0,0,1,3.17,1.77l-2.05,3A8,8,0,0,0,303,118,2.44,2.44,0,0,0,301.35,118.46Z"/><path class="cls-6" d="M313.25,114.83h4.6v3.22l-.78,9.36H314l-.75-9.36Zm.66,17.72a2.32,2.32,0,1,1,1.63.66A2.21,2.21,0,0,1,313.91,132.55Z"/><path class="cls-10" d="M149.28,152.86v6.77H147.4v-6.77H145v-1.62h6.62v1.62Z"/><path class="cls-10" d="M154.58,156.15v3.48h-1.8v-8.9h1.8v3.17a2.51,2.51,0,0,1,1.83-.83,2.29,2.29,0,0,1,1.71.72,2.65,2.65,0,0,1,.7,1.92v3.92H157V156.1q0-1.49-1.09-1.49a1.31,1.31,0,0,0-.94.39A1.53,1.53,0,0,0,154.58,156.15Z"/><path class="cls-10" d="M166,158.69a3.61,3.61,0,0,1-2.56,1,3.4,3.4,0,0,1-2.43-.91,3.18,3.18,0,0,1-1-2.43,3.14,3.14,0,0,1,1-2.42,3.3,3.3,0,0,1,2.31-.9,3.34,3.34,0,0,1,2.26.8,2.76,2.76,0,0,1,.93,2.21v1h-4.7a1.28,1.28,0,0,0,.55.86,1.76,1.76,0,0,0,1.06.34,2.07,2.07,0,0,0,1.56-.64Zm-1.73-3.83a1.36,1.36,0,0,0-.91-.31,1.62,1.62,0,0,0-1,.32,1.24,1.24,0,0,0-.52.88h2.83A1.28,1.28,0,0,0,164.31,154.87Z"/><path class="cls-10" d="M174.79,153.07a2.69,2.69,0,0,1,2,.94,3.33,3.33,0,0,1,.88,2.37,3.4,3.4,0,0,1-.88,2.39,2.72,2.72,0,0,1-2.06,1,2.27,2.27,0,0,1-1.9-.95V162H171v-8.78h1.8v.72A2.67,2.67,0,0,1,174.79,153.07Zm-2,3.34a1.87,1.87,0,0,0,.44,1.28,1.36,1.36,0,0,0,1.06.5,1.45,1.45,0,0,0,1.09-.5,1.79,1.79,0,0,0,.47-1.28,1.93,1.93,0,0,0-.46-1.31,1.4,1.4,0,0,0-1.09-.53,1.35,1.35,0,0,0-1.07.52A2,2,0,0,0,172.81,156.41Z"/><path class="cls-10" d="M184.51,159.63h-1.69v-.78a2.12,2.12,0,0,1-1.72.88,2.56,2.56,0,0,1-1.72-.59,2,2,0,0,1-.7-1.58,1.68,1.68,0,0,1,.72-1.48,3.45,3.45,0,0,1,2-.49h1.34v0q0-1-1.09-1a3,3,0,0,0-1,.19,3.2,3.2,0,0,0-.88.46l-.8-1.16a4.82,4.82,0,0,1,2.9-.92,3,3,0,0,1,1.92.59,2.23,2.23,0,0,1,.74,1.86Zm-1.81-2.46v-.31h-1.13q-1.08,0-1.08.67a.62.62,0,0,0,.26.53,1.25,1.25,0,0,0,.74.19,1.31,1.31,0,0,0,.85-.29A1,1,0,0,0,182.7,157.17Z"/><path class="cls-10" d="M190.93,158.54a2.73,2.73,0,0,1-2.12.95,2.93,2.93,0,0,1-2.14-.86,3.07,3.07,0,0,1-.87-2.29,3.23,3.23,0,0,1,.89-2.35,2.78,2.78,0,0,1,2-.92,2.34,2.34,0,0,1,1.91.95v-.85h1.8v5.63a3.73,3.73,0,0,1-.3,1.54,2.64,2.64,0,0,1-.8,1.06,3.67,3.67,0,0,1-2.35.79,4.93,4.93,0,0,1-1.47-.23,4.19,4.19,0,0,1-1.31-.67l.7-1.36a3.06,3.06,0,0,0,1.88.67,2.33,2.33,0,0,0,1.57-.49A1.94,1.94,0,0,0,190.93,158.54Zm-.25-2.27a1.67,1.67,0,0,0-.43-1.22,1.43,1.43,0,0,0-1.07-.44,1.53,1.53,0,0,0-1.1.44,1.6,1.6,0,0,0-.46,1.21,1.73,1.73,0,0,0,.45,1.24,1.46,1.46,0,0,0,1.1.47,1.41,1.41,0,0,0,1.08-.47A1.76,1.76,0,0,0,190.68,156.26Z"/><path class="cls-10" d="M199.75,158.69a3.61,3.61,0,0,1-2.56,1,3.4,3.4,0,0,1-2.43-.91,3.18,3.18,0,0,1-1-2.43,3.14,3.14,0,0,1,1-2.42,3.3,3.3,0,0,1,2.31-.9,3.34,3.34,0,0,1,2.26.8,2.76,2.76,0,0,1,.93,2.21v1h-4.7a1.28,1.28,0,0,0,.55.86,1.76,1.76,0,0,0,1.06.34,2.07,2.07,0,0,0,1.56-.64ZM198,154.87a1.36,1.36,0,0,0-.91-.31,1.62,1.62,0,0,0-1,.32,1.24,1.24,0,0,0-.52.88h2.83A1.28,1.28,0,0,0,198,154.87Z"/><path class="cls-10" d="M205.86,162.17a2.62,2.62,0,0,1-1.79-.77l.82-1.33a1.35,1.35,0,0,0,.94.44.53.53,0,0,0,.43-.25.87.87,0,0,0,.18-.52q0-.28-2.5-6.58h1.92l1.57,4,1.57-4h1.92l-3,7.61a2.15,2.15,0,0,1-.82,1A2.22,2.22,0,0,1,205.86,162.17Z"/><path class="cls-10" d="M218.12,156.4a3.19,3.19,0,0,1-1,2.36,3.59,3.59,0,0,1-4.88,0,3.37,3.37,0,0,1,0-4.73,3.57,3.57,0,0,1,4.88,0A3.21,3.21,0,0,1,218.12,156.4Zm-5,0a1.85,1.85,0,0,0,.45,1.29,1.58,1.58,0,0,0,2.3,0,1.85,1.85,0,0,0,.45-1.29,1.87,1.87,0,0,0-.45-1.3,1.57,1.57,0,0,0-2.3,0A1.87,1.87,0,0,0,213.1,156.4Z"/><path class="cls-10" d="M223.62,156.65v-3.48h1.81v6.46h-1.81v-.85a2,2,0,0,1-1.73.95,2.53,2.53,0,0,1-1.78-.67,2.56,2.56,0,0,1-.72-2v-3.91h1.81v3.52q0,1.49,1.09,1.49a1.29,1.29,0,0,0,.94-.39A1.52,1.52,0,0,0,223.62,156.65Z"/><path class="cls-10" d="M235.78,159.63h-1.69v-.78a2.12,2.12,0,0,1-1.72.88,2.56,2.56,0,0,1-1.72-.59,2,2,0,0,1-.7-1.58,1.68,1.68,0,0,1,.72-1.48,3.45,3.45,0,0,1,2-.49H234v0q0-1-1.09-1a3,3,0,0,0-1,.19,3.2,3.2,0,0,0-.88.46l-.8-1.16a4.82,4.82,0,0,1,2.9-.92,3,3,0,0,1,1.92.59,2.23,2.23,0,0,1,.74,1.86ZM234,157.17v-.31h-1.13q-1.08,0-1.08.67a.62.62,0,0,0,.26.53,1.25,1.25,0,0,0,.74.19,1.31,1.31,0,0,0,.85-.29A1,1,0,0,0,234,157.17Z"/><path class="cls-10" d="M240.82,154.76a1.36,1.36,0,0,0-1.2.57,2.59,2.59,0,0,0-.4,1.51v2.8h-1.8v-6.46h1.8V154a3,3,0,0,1,.87-.67,2.36,2.36,0,0,1,1.06-.29v1.69Z"/><path class="cls-10" d="M248,158.69a3.61,3.61,0,0,1-2.56,1,3.4,3.4,0,0,1-2.43-.91,3.18,3.18,0,0,1-1-2.43,3.14,3.14,0,0,1,1-2.42,3.3,3.3,0,0,1,2.31-.9,3.34,3.34,0,0,1,2.26.8,2.76,2.76,0,0,1,.93,2.21v1h-4.7a1.28,1.28,0,0,0,.55.86,1.76,1.76,0,0,0,1.06.34,2.07,2.07,0,0,0,1.56-.64Zm-1.73-3.83a1.36,1.36,0,0,0-.91-.31,1.62,1.62,0,0,0-1,.32,1.24,1.24,0,0,0-.52.88h2.83A1.28,1.28,0,0,0,246.22,154.87Z"/><path class="cls-10" d="M254.74,159.63h-1.8v-8.9h1.8Z"/><path class="cls-10" d="M262.9,156.4a3.19,3.19,0,0,1-1,2.36,3.59,3.59,0,0,1-4.88,0,3.37,3.37,0,0,1,0-4.73,3.57,3.57,0,0,1,4.88,0A3.21,3.21,0,0,1,262.9,156.4Zm-5,0a1.85,1.85,0,0,0,.45,1.29,1.58,1.58,0,0,0,2.3,0,1.85,1.85,0,0,0,.45-1.29,1.87,1.87,0,0,0-.45-1.3,1.57,1.57,0,0,0-2.3,0A1.87,1.87,0,0,0,257.89,156.4Z"/><path class="cls-10" d="M270.69,156.4a3.19,3.19,0,0,1-1,2.36,3.59,3.59,0,0,1-4.88,0,3.37,3.37,0,0,1,0-4.73,3.57,3.57,0,0,1,4.88,0A3.21,3.21,0,0,1,270.69,156.4Zm-5,0a1.85,1.85,0,0,0,.45,1.29,1.58,1.58,0,0,0,2.3,0,1.85,1.85,0,0,0,.45-1.29,1.87,1.87,0,0,0-.45-1.3,1.57,1.57,0,0,0-2.3,0A1.87,1.87,0,0,0,265.68,156.4Z"/><path class="cls-10" d="M273.82,159.63H272v-8.9h1.8v4.57l2-2.14h2.27l-2.46,2.62,2.56,3.85h-2.14l-1.64-2.47-.59.61Z"/><path class="cls-10" d="M279.31,152.35a1.07,1.07,0,1,1,.75.31A1,1,0,0,1,279.31,152.35Zm1.65,7.28h-1.8v-6.46H281Z"/><path class="cls-10" d="M284.47,156v3.6h-1.8v-6.46h1.8v.72a2.52,2.52,0,0,1,1.84-.83,2.27,2.27,0,0,1,1.71.72,2.66,2.66,0,0,1,.69,1.92v3.92h-1.8V156q0-1.49-1.09-1.49a1.31,1.31,0,0,0-.94.39A1.53,1.53,0,0,0,284.47,156Z"/><path class="cls-10" d="M295.11,158.54a2.73,2.73,0,0,1-2.12.95,2.93,2.93,0,0,1-2.14-.86,3.07,3.07,0,0,1-.87-2.29,3.23,3.23,0,0,1,.89-2.35,2.78,2.78,0,0,1,2-.92,2.34,2.34,0,0,1,1.91.95v-.85h1.8v5.63a3.73,3.73,0,0,1-.3,1.54,2.64,2.64,0,0,1-.8,1.06,3.67,3.67,0,0,1-2.35.79,4.93,4.93,0,0,1-1.47-.23,4.19,4.19,0,0,1-1.31-.67l.7-1.36a3.06,3.06,0,0,0,1.88.67,2.33,2.33,0,0,0,1.57-.49A1.94,1.94,0,0,0,295.11,158.54Zm-.25-2.27a1.67,1.67,0,0,0-.43-1.22,1.43,1.43,0,0,0-1.07-.44,1.53,1.53,0,0,0-1.1.44,1.6,1.6,0,0,0-.46,1.21,1.73,1.73,0,0,0,.45,1.24,1.46,1.46,0,0,0,1.1.47,1.41,1.41,0,0,0,1.08-.47A1.76,1.76,0,0,0,294.86,156.26Z"/><path class="cls-10" d="M303.65,152.8v.43h1.56v1.3h-1.56v5.1h-1.81v-5.1h-.76v-1.3h.76v-.4a2.16,2.16,0,0,1,2.24-2.29,2.5,2.5,0,0,1,1.73.72l-.65,1.21a1.15,1.15,0,0,0-.88-.46.59.59,0,0,0-.46.2A.84.84,0,0,0,303.65,152.8Z"/><path class="cls-10" d="M312.63,156.4a3.19,3.19,0,0,1-1,2.36,3.59,3.59,0,0,1-4.88,0,3.37,3.37,0,0,1,0-4.73,3.57,3.57,0,0,1,4.88,0A3.21,3.21,0,0,1,312.63,156.4Zm-5,0a1.85,1.85,0,0,0,.45,1.29,1.58,1.58,0,0,0,2.3,0,1.85,1.85,0,0,0,.45-1.29,1.87,1.87,0,0,0-.45-1.3,1.57,1.57,0,0,0-2.3,0A1.87,1.87,0,0,0,307.61,156.4Z"/><path class="cls-10" d="M317.36,154.76a1.36,1.36,0,0,0-1.2.57,2.59,2.59,0,0,0-.4,1.51v2.8H314v-6.46h1.8V154a3,3,0,0,1,.87-.67,2.36,2.36,0,0,1,1.06-.29v1.69Z"/><path class="cls-10" d="M325.42,159.63h-1.86l-2.2-6.46h1.86l1.26,3.9,1.26-3.9h1.74l1.26,3.9,1.26-3.9h1.87l-2.2,6.46h-1.87l-1.19-3.52Z"/><path class="cls-10" d="M338.3,159.63h-1.69v-.78a2.12,2.12,0,0,1-1.72.88,2.56,2.56,0,0,1-1.72-.59,2,2,0,0,1-.7-1.58,1.68,1.68,0,0,1,.72-1.48,3.45,3.45,0,0,1,2-.49h1.34v0q0-1-1.09-1a3,3,0,0,0-1,.19,3.2,3.2,0,0,0-.88.46l-.8-1.16a4.82,4.82,0,0,1,2.9-.92,3,3,0,0,1,1.92.59,2.23,2.23,0,0,1,.74,1.86Zm-1.81-2.46v-.31h-1.13q-1.08,0-1.08.67a.62.62,0,0,0,.26.53,1.25,1.25,0,0,0,.74.19,1.31,1.31,0,0,0,.85-.29A1,1,0,0,0,336.49,157.17Z"/><path class="cls-10" d="M344.8,157.62a1.88,1.88,0,0,1-.7,1.53,2.72,2.72,0,0,1-1.78.58,4.78,4.78,0,0,1-1.5-.26,4.43,4.43,0,0,1-1.4-.76l.79-1.13a3.45,3.45,0,0,0,2.15.78,1,1,0,0,0,.55-.14.42.42,0,0,0,.2-.37.53.53,0,0,0-.28-.42,3.2,3.2,0,0,0-.82-.36c-.36-.11-.63-.21-.82-.29a4.55,4.55,0,0,1-.64-.35,1.49,1.49,0,0,1-.73-1.35,1.77,1.77,0,0,1,.72-1.46,2.93,2.93,0,0,1,1.86-.56,4.05,4.05,0,0,1,2.28.77L344,155a3,3,0,0,0-1.67-.58q-.83,0-.83.46a.44.44,0,0,0,.26.4,5.35,5.35,0,0,0,.88.34l.87.29a4.37,4.37,0,0,1,.62.32A1.47,1.47,0,0,1,344.8,157.62Z"/><path class="cls-10" d="M351.15,156v3.6h-1.8v-6.46h1.8v.72a2.52,2.52,0,0,1,1.84-.83,2.27,2.27,0,0,1,1.71.72,2.66,2.66,0,0,1,.69,1.92v3.92h-1.8V156q0-1.49-1.09-1.49a1.31,1.31,0,0,0-.94.39A1.53,1.53,0,0,0,351.15,156Z"/><path class="cls-10" d="M363.47,156.4a3.19,3.19,0,0,1-1,2.36,3.59,3.59,0,0,1-4.88,0,3.37,3.37,0,0,1,0-4.73,3.57,3.57,0,0,1,4.88,0A3.21,3.21,0,0,1,363.47,156.4Zm-5,0a1.85,1.85,0,0,0,.45,1.29,1.58,1.58,0,0,0,2.3,0,1.85,1.85,0,0,0,.45-1.29,1.87,1.87,0,0,0-.45-1.3,1.57,1.57,0,0,0-2.3,0A1.87,1.87,0,0,0,358.46,156.4Z"/><path class="cls-10" d="M366.83,154.47v2.89a.83.83,0,0,0,.19.58.6.6,0,0,0,.46.21,1,1,0,0,0,.85-.46L369,159a2.6,2.6,0,0,1-1.77.77,2.15,2.15,0,0,1-2.21-2.28v-3h-.76v-1.3H365v-1.93h1.81v1.93h1.56v1.3Z"/><path class="cls-10" d="M375.28,152.8v.43h1.56v1.3h-1.56v5.1h-1.81v-5.1h-.76v-1.3h.76v-.4a2.16,2.16,0,0,1,2.24-2.29,2.5,2.5,0,0,1,1.73.72l-.65,1.21a1.15,1.15,0,0,0-.88-.46.59.59,0,0,0-.46.2A.84.84,0,0,0,375.28,152.8Z"/><path class="cls-10" d="M384.26,156.4a3.19,3.19,0,0,1-1,2.36,3.59,3.59,0,0,1-4.88,0,3.37,3.37,0,0,1,0-4.73,3.57,3.57,0,0,1,4.88,0A3.21,3.21,0,0,1,384.26,156.4Zm-5,0a1.85,1.85,0,0,0,.45,1.29,1.58,1.58,0,0,0,2.3,0,1.85,1.85,0,0,0,.45-1.29,1.87,1.87,0,0,0-.45-1.3,1.57,1.57,0,0,0-2.3,0A1.87,1.87,0,0,0,379.24,156.4Z"/><path class="cls-10" d="M389.75,156.65v-3.48h1.81v6.46h-1.81v-.85a2,2,0,0,1-1.73.95,2.53,2.53,0,0,1-1.78-.67,2.56,2.56,0,0,1-.72-2v-3.91h1.81v3.52q0,1.49,1.09,1.49a1.29,1.29,0,0,0,.94-.39A1.52,1.52,0,0,0,389.75,156.65Z"/><path class="cls-10" d="M395.07,156v3.6h-1.8v-6.46h1.8v.72a2.52,2.52,0,0,1,1.84-.83,2.27,2.27,0,0,1,1.71.72,2.66,2.66,0,0,1,.69,1.92v3.92h-1.8V156q0-1.49-1.09-1.49a1.31,1.31,0,0,0-.94.39A1.53,1.53,0,0,0,395.07,156Z"/><path class="cls-10" d="M403.52,159.73a2.73,2.73,0,0,1-2-1,3.42,3.42,0,0,1-.9-2.41,3.28,3.28,0,0,1,.88-2.36,2.75,2.75,0,0,1,2.05-.92,2.46,2.46,0,0,1,1.92.83v-3.17h1.8v8.9h-1.8v-.85A2.33,2.33,0,0,1,403.52,159.73Zm-1.13-3.31a1.79,1.79,0,0,0,.47,1.28,1.45,1.45,0,0,0,1.09.5,1.36,1.36,0,0,0,1.06-.5,1.87,1.87,0,0,0,.44-1.28,2,2,0,0,0-.44-1.31,1.35,1.35,0,0,0-1.07-.52,1.4,1.4,0,0,0-1.09.53A1.93,1.93,0,0,0,402.39,156.41Z"/><circle class="cls-5" cx="83.84" cy="28.78" r="0.81" transform="translate(-0.24 56.85) rotate(-37.41)"/><circle class="cls-5" cx="50.57" cy="44.22" r="0.81" transform="translate(-16.46 39.81) rotate(-37.41)"/><circle class="cls-5" cx="483.74" cy="29.99" r="2.5"/><circle class="cls-5" cx="446" cy="15.04" r="0.81" transform="translate(82.59 274.04) rotate(-37.41)"/><circle class="cls-5" cx="406.93" cy="36.58" r="0.81" transform="translate(61.47 254.73) rotate(-37.41)"/><path class="cls-5" d="M379.54,21.13h-1v-1a1,1,0,0,0-2,0v1h-1a1,1,0,0,0,0,2h1v1a1,1,0,0,0,2,0v-1h1a1,1,0,0,0,0-2Z"/><circle class="cls-5" cx="274.52" cy="22.89" r="2.5"/><circle class="cls-5" cx="197.71" cy="29.48" r="0.81" transform="translate(22.75 126.17) rotate(-37.41)"/><path class="cls-5" d="M170.32,14h-1V13a1,1,0,1,0-2,0v1h-1a1,1,0,0,0,0,2h1v1a1,1,0,0,0,2,0V16h1a1,1,0,0,0,0-2Z"/><circle class="cls-5" cx="280.11" cy="221.59" r="2.5" transform="translate(-39.62 380.78) rotate(-64.82)"/><circle class="cls-5" cx="289" cy="192.2" r="0.81" transform="translate(-34.14 65.55) rotate(-12.22)"/><circle class="cls-5" cx="252.32" cy="192" r="0.81" transform="translate(-34.93 57.78) rotate(-12.22)"/><circle class="cls-5" cx="207.79" cy="194.87" r="0.81" transform="translate(-36.55 48.41) rotate(-12.22)"/></svg>