<svg id="Layer_1" data-name="Layer 1" xmlns="http://www.w3.org/2000/svg" viewBox="0 0 550 650"><defs><style>.cls-1{fill:#f7f8f9;}.cls-2{fill:#edf1f4;}.cls-3{fill:#e4e9ef;}.cls-4{fill:#ccd6e5;}.cls-5{fill:#e9e9e9;}.cls-6{fill:#6a7ca5;}.cls-7{fill:#f5f5f5;}.cls-8{fill:#8a8e91;}.cls-9{fill:#d0dbf7;}</style></defs><title>1_</title><circle class="cls-1" cx="275.53" cy="325.13" r="273.23"/><circle class="cls-2" cx="275.53" cy="325.13" r="246.63"/><circle class="cls-3" cx="275.53" cy="325.13" r="191.04"/><circle class="cls-4" cx="275.53" cy="325.13" r="134.13"/><circle class="cls-5" cx="307.58" cy="281.5" r="2.5"/><circle class="cls-5" cx="452.76" cy="273.94" r="2.5" transform="translate(-48.88 105.45) rotate(-12.61)"/><circle class="cls-5" cx="182.35" cy="252.95" r="0.81" transform="translate(-116.16 162.8) rotate(-37.41)"/><circle class="cls-5" cx="149.08" cy="268.38" r="0.81" transform="translate(-132.38 145.76) rotate(-37.41)"/><circle class="cls-5" cx="416.83" cy="277.25" r="0.81"/><circle class="cls-5" cx="394" cy="252.14" r="0.81"/><circle class="cls-5" cx="365.17" cy="269.68" r="0.81"/><circle class="cls-5" cx="328.81" cy="245.85" r="0.81"/><circle class="cls-5" cx="245" cy="264.18" r="0.81"/><circle class="cls-5" cx="277.17" cy="249.35" r="0.81"/><path class="cls-5" d="M82.62,274.47h-1v-1a1,1,0,0,0-2,0v1h-1a1,1,0,0,0,0,2h1v1a1,1,0,0,0,2,0v-1h1a1,1,0,1,0,0-2Z"/><path class="cls-5" d="M311.06,255.79h-1v-1a1,1,0,0,0-2,0v1h-1a1,1,0,0,0,0,2h1v1a1,1,0,0,0,2,0v-1h1a1,1,0,0,0,0-2Z"/><path class="cls-6" d="M124.83,337.94V308.56h25.71v29.38h19.28V362.5H150.54v40.4H124.83V362.5H56V338.63l59-96.18h29.61L86.5,337.94Z"/><path class="cls-6" d="M444.8,337.94V308.56H470.5v29.38h19.28V362.5H470.5v40.4H444.8V362.5H375.94V338.63l59-96.18h29.61l-58.07,95.49Z"/><circle class="cls-5" cx="181.62" cy="90.29" r="2.5"/><circle class="cls-5" cx="38.9" cy="104.22" r="0.81"/><circle class="cls-5" cx="30.95" cy="140.03" r="0.81"/><circle class="cls-5" cx="177.16" cy="59.9" r="0.81" transform="translate(0.05 119.94) rotate(-37.41)"/><circle class="cls-5" cx="143.88" cy="75.34" r="0.81" transform="translate(-16.17 102.9) rotate(-37.41)"/><circle class="cls-5" cx="104.81" cy="96.88" r="0.81" transform="translate(-37.3 83.59) rotate(-37.41)"/><path class="cls-5" d="M77.42,81.43h-1v-1a1,1,0,0,0-2,0v1h-1a1,1,0,0,0,0,2h1v1a1,1,0,0,0,2,0v-1h1a1,1,0,0,0,0-2Z"/><circle class="cls-5" cx="525.91" cy="127.97" r="2.5" transform="translate(186.31 549.44) rotate(-64.82)"/><circle class="cls-5" cx="390.83" cy="79.85" r="0.81" transform="translate(152.26 399.55) rotate(-64.82)"/><circle class="cls-5" cx="368.39" cy="108.87" r="0.81" transform="translate(113.1 395.92) rotate(-64.82)"/><circle class="cls-5" cx="534.8" cy="98.58" r="0.81" transform="translate(-8.75 115.47) rotate(-12.22)"/><circle class="cls-5" cx="498.12" cy="98.38" r="0.81" transform="translate(-9.54 107.7) rotate(-12.22)"/><circle class="cls-5" cx="453.59" cy="101.25" r="0.81" transform="translate(-11.15 98.33) rotate(-12.22)"/><path class="cls-5" d="M435.39,75.61l-.94-.44.44-.94a1,1,0,0,0-1.81-.85l-.44.94-.94-.44a1,1,0,1,0-.85,1.81l.94.44-.44.94a1,1,0,0,0,1.81.85l.44-.94.94.44a1,1,0,0,0,.85-1.81Z"/><circle class="cls-5" cx="123.49" cy="218.54" r="2.5"/><circle class="cls-5" cx="119.03" cy="188.15" r="0.81" transform="translate(-89.82 111) rotate(-37.41)"/><circle class="cls-5" cx="85.75" cy="203.59" r="0.81" transform="translate(-106.04 93.96) rotate(-37.41)"/><circle class="cls-5" cx="46.67" cy="225.13" r="0.81" transform="translate(-127.16 74.65) rotate(-37.41)"/><path class="cls-5" d="M19.29,209.68h-1v-1a1,1,0,0,0-2,0v1h-1a1,1,0,0,0,0,2h1v1a1,1,0,0,0,2,0v-1h1a1,1,0,0,0,0-2Z"/><circle class="cls-5" cx="518.92" cy="189.36" r="2.5"/><circle class="cls-5" cx="514.46" cy="158.98" r="0.81" transform="translate(9.23 345.23) rotate(-37.41)"/><circle class="cls-5" cx="481.19" cy="174.41" r="0.81" transform="translate(-6.99 328.19) rotate(-37.41)"/><circle class="cls-5" cx="442.11" cy="195.95" r="0.81" transform="translate(-28.11 308.88) rotate(-37.41)"/><path class="cls-5" d="M414.73,180.5h-1v-1a1,1,0,0,0-2,0v1h-1a1,1,0,0,0,0,2h1v1a1,1,0,1,0,2,0v-1h1a1,1,0,0,0,0-2Z"/><circle class="cls-5" cx="156.36" cy="152.85" r="0.81"/><circle class="cls-5" cx="222.27" cy="145.51" r="0.81" transform="translate(-42.68 164.95) rotate(-37.41)"/><path class="cls-5" d="M194.89,130.06h-1v-1a1,1,0,0,0-2,0v1h-1a1,1,0,0,0,0,2h1v1a1,1,0,0,0,2,0v-1h1a1,1,0,0,0,0-2Z"/><circle class="cls-5" cx="277.17" cy="131.54" r="2.5" transform="translate(-22.03 63.68) rotate(-12.61)"/><circle class="cls-5" cx="300.74" cy="97.69" r="0.81"/><path class="cls-5" d="M324.2,121.46h-1v-1a1,1,0,1,0-2,0v1h-1a1,1,0,0,0,0,2h1v1a1,1,0,0,0,2,0v-1h1a1,1,0,0,0,0-2Z"/><circle class="cls-5" cx="306.55" cy="82.96" r="2.5"/><circle class="cls-5" cx="302.09" cy="52.57" r="0.81" transform="translate(30.19 194.33) rotate(-37.41)"/><circle class="cls-7" cx="272.7" cy="327.56" r="89.03" transform="translate(-83.48 93.48) rotate(-16.91)"/><path class="cls-8" d="M272.75,417.61a90.09,90.09,0,1,1,26.14-3.9A90.19,90.19,0,0,1,272.75,417.61Zm.06-178.12a88.34,88.34,0,0,0-25.72,3.85,87.5,87.5,0,1,0,25.72-3.85Z"/><circle class="cls-5" cx="268.81" cy="68.01" r="0.81" transform="translate(13.97 177.29) rotate(-37.41)"/><circle class="cls-9" cx="272.37" cy="327.66" r="73.29" transform="translate(-83.53 93.38) rotate(-16.91)"/><path class="cls-8" d="M272.41,402a74.3,74.3,0,1,1,71-95.91h0a74.32,74.32,0,0,1-71,95.91Zm-.08-146.6a72.3,72.3,0,1,0,69.21,51.27h0A72.43,72.43,0,0,0,272.33,255.36Z"/><rect class="cls-7" x="295.48" y="411.43" width="18.49" height="43.01" transform="translate(-112.74 107.35) rotate(-16.91)"/><path class="cls-8" d="M301.47,457.44l-13.09-43.06,19.61-6,13.09,43.06Zm-10.59-41.73,11.93,39.23,15.78-4.8-11.93-39.23Z"/><rect class="cls-7" x="307.03" y="451.29" width="38.32" height="106.81" rx="12" ry="12" transform="translate(-132.69 116.69) rotate(-16.91)"/><path class="cls-8" d="M331.39,559.4a13,13,0,0,1-12.45-9.22l-24.09-79.23a13,13,0,0,1,8.66-16.22l13.7-4.17a13,13,0,0,1,16.22,8.66l24.09,79.23a13,13,0,0,1-8.66,16.22l-13.7,4.17A13,13,0,0,1,331.39,559.4ZM321,452a11,11,0,0,0-3.19.48l-13.7,4.17a11,11,0,0,0-7.33,13.72l24.09,79.23a11,11,0,0,0,13.72,7.33l13.7-4.17A11,11,0,0,0,355.6,539L331.52,459.8A11,11,0,0,0,321,452Z"/><path class="cls-9" d="M318.08,525.67H356.4a0,0,0,0,1,0,0v18.79a12,12,0,0,1-12,12H330.08a12,12,0,0,1-12-12V525.67A0,0,0,0,1,318.08,525.67Z" transform="translate(-142.79 121.48) rotate(-16.91)"/><path class="cls-8" d="M331.39,559.4a13,13,0,0,1-12.45-9.22l-5.76-18.94,38.58-11.73,5.76,18.94a13,13,0,0,1-8.66,16.22l-13.7,4.17A13,13,0,0,1,331.39,559.4Zm-15.71-26.83,5.17,17a11,11,0,0,0,13.72,7.33l13.7-4.17A11,11,0,0,0,355.6,539l-5.18-17Z"/><path class="cls-8" d="M314.91,499.23a1,1,0,0,1-1-.71l-8.46-27.81a1,1,0,0,1,1.91-.58l8.46,27.81a1,1,0,0,1-1,1.29Z"/><path class="cls-8" d="M321.89,522.2a1,1,0,0,1-1-.71l-3.33-11a1,1,0,0,1,1.91-.58l3.33,11a1,1,0,0,1-1,1.29Z"/><path class="cls-7" d="M323.74,351.78a2.51,2.51,0,0,1-3.08,3.17h0l-12-3.37a4,4,0,0,0-4.41,1.68l-5.45,8.52a4,4,0,0,1-4.77,1.56L284,359.45a4,4,0,0,0-4.69,1.45l-6.15,8.92a4,4,0,0,1-4.56,1.5l-11.34-3.91a4,4,0,0,0-4.55,1.49l-3.33,4.81a4,4,0,0,1-7-1.11L229,328.84a42,42,0,0,1,27.86-52.19h0a42,42,0,0,1,52.19,27.86Z"/><path class="cls-8" d="M246.11,376.4a5,5,0,0,1-.79-.06,4.93,4.93,0,0,1-4-3.46L228,329.13a42.83,42.83,0,0,1,82-24.92l14.68,47.26a3.51,3.51,0,0,1-4.31,4.42l-12-3.37a2.94,2.94,0,0,0-3.3,1.26l-5.45,8.52a5,5,0,0,1-6,2l-10.06-3.89a3,3,0,0,0-3.51,1.08L274,370.38a5,5,0,0,1-5.71,1.88l-11.34-3.91a3,3,0,0,0-3.4,1.11l-3.33,4.81A4.92,4.92,0,0,1,246.11,376.4ZM269,275.84a40.84,40.84,0,0,0-39,52.71l13.3,43.75a3,3,0,0,0,5.27.83l3.33-4.81a5,5,0,0,1,5.7-1.86l11.34,3.91a3,3,0,0,0,3.41-1.12l6.15-8.92a5,5,0,0,1,5.88-1.81l10.06,3.89a3,3,0,0,0,3.57-1.17l5.45-8.52a4.94,4.94,0,0,1,5.52-2.1l12,3.37a1.51,1.51,0,0,0,1.85-1.91L308.1,304.81a41.06,41.06,0,0,0-39.11-29Z"/><circle class="cls-7" cx="248.39" cy="314.67" r="11.95" transform="matrix(0.96, -0.29, 0.29, 0.96, -80.78, 85.85)"/><path class="cls-8" d="M248.38,327.63a13,13,0,1,1,12.41-16.73h0a13,13,0,0,1-12.41,16.73Zm0-23.92a11,11,0,0,0-10.49,14.14,11,11,0,1,0,21-6.37h0a11,11,0,0,0-10.47-7.77Z"/><circle class="cls-8" cx="250.44" cy="313.77" r="4.73" transform="translate(-80.43 86.41) rotate(-16.91)"/><circle class="cls-7" cx="283.27" cy="303.79" r="11.95" transform="matrix(0.96, -0.29, 0.29, 0.96, -76.11, 95.52)"/><path class="cls-8" d="M283.25,316.75a13,13,0,1,1,3.78-.57A12.89,12.89,0,0,1,283.25,316.75Zm0-23.92a11,11,0,0,0-3.2.48,11,11,0,1,0,13.67,7.29h0a11,11,0,0,0-10.47-7.77Z"/><circle class="cls-8" cx="285.32" cy="302.89" r="4.73" transform="translate(-75.76 96.08) rotate(-16.91)"/><path class="cls-8" d="M365.92,239.61H273.16a1,1,0,0,1,0-2h92.76a1,1,0,0,1,0,2Z"/><path class="cls-8" d="M350.25,247.43H323.83a1,1,0,0,1,0-2h26.42a1,1,0,0,1,0,2Z"/><path class="cls-8" d="M393.07,245.1H378.25a1,1,0,1,1,0-2h14.82a1,1,0,0,1,0,2Z"/><path class="cls-8" d="M400.27,556.4H343.49a1,1,0,0,1,0-2h56.77a1,1,0,1,1,0,2Z"/><path class="cls-8" d="M391.92,542.07h-20a1,1,0,0,1,0-2h20a1,1,0,1,1,0,2Z"/><path class="cls-8" d="M438.68,549.4H398.61a1,1,0,0,1,0-2h40.06a1,1,0,0,1,0,2Z"/><path class="cls-8" d="M382.88,405.94H323.64a1,1,0,0,1,0-2h59.24a1,1,0,0,1,0,2Z"/><path class="cls-8" d="M327.58,413.51H308.48a1,1,0,0,1,0-2h19.09a1,1,0,0,1,0,2Z"/><path class="cls-8" d="M358.84,419.91H333.11a1,1,0,0,1,0-2h25.73a1,1,0,1,1,0,2Z"/><path class="cls-8" d="M305.38,275.39a1,1,0,0,1-.53-.15,62.29,62.29,0,0,0-24.41-8.73,1,1,0,0,1,.26-2,64.3,64.3,0,0,1,25.2,9,1,1,0,0,1-.53,1.85Z"/><path class="cls-8" d="M335.48,336.23l-2-.27a61.16,61.16,0,0,0-2.12-26.23,62.23,62.23,0,0,0-3.47-8.9l1.8-.87a64.45,64.45,0,0,1,3.58,9.18A63.17,63.17,0,0,1,335.48,336.23Z"/><path class="cls-8" d="M291.27,421.46a1,1,0,0,1-.3-2l17.64-5.56a1,1,0,1,1,.6,1.91l-17.64,5.56A1,1,0,0,1,291.27,421.46Z"/><path class="cls-8" d="M300.52,451.88a1,1,0,0,1-.3-2l17.64-5.56a1,1,0,1,1,.6,1.91l-17.64,5.56A1,1,0,0,1,300.52,451.88Z"/><circle class="cls-5" cx="175.75" cy="556.29" r="2.5"/><circle class="cls-5" cx="33.02" cy="570.23" r="0.81"/><circle class="cls-5" cx="25.07" cy="606.04" r="0.81"/><circle class="cls-5" cx="171.28" cy="525.9" r="0.81" transform="translate(-284.25 212.22) rotate(-37.41)"/><circle class="cls-5" cx="138.01" cy="541.34" r="0.81" transform="translate(-300.47 195.18) rotate(-37.41)"/><circle class="cls-5" cx="98.93" cy="562.88" r="0.81" transform="translate(-321.6 175.87) rotate(-37.41)"/><path class="cls-5" d="M71.55,547.43h-1v-1a1,1,0,0,0-2,0v1h-1a1,1,0,0,0,0,2h1v1a1,1,0,0,0,2,0v-1h1a1,1,0,0,0,0-2Z"/><circle class="cls-5" cx="520.04" cy="593.98" r="2.5" transform="translate(-238.77 811.82) rotate(-64.82)"/><circle class="cls-5" cx="384.95" cy="545.85" r="0.81" transform="translate(-272.83 661.93) rotate(-64.82)"/><circle class="cls-5" cx="362.52" cy="574.88" r="0.81" transform="translate(-311.98 658.3) rotate(-64.82)"/><circle class="cls-5" cx="528.93" cy="564.58" r="0.81" transform="translate(-107.55 124.79) rotate(-12.22)"/><circle class="cls-5" cx="492.25" cy="564.39" r="0.81" transform="translate(-108.34 117.02) rotate(-12.22)"/><circle class="cls-5" cx="447.72" cy="567.25" r="0.81" transform="translate(-109.95 107.65) rotate(-12.22)"/><path class="cls-5" d="M429.51,541.62l-.94-.44.44-.94a1,1,0,1,0-1.81-.85l-.44.94-.94-.44a1,1,0,0,0-.85,1.81l.94.44-.44.94a1,1,0,0,0,1.81.85l.44-.94.94.44a1,1,0,0,0,.85-1.81Z"/><circle class="cls-5" cx="508.59" cy="624.98" r="0.81" transform="translate(-275.07 437.5) rotate(-37.41)"/><circle class="cls-5" cx="150.49" cy="618.86" r="0.81"/><circle class="cls-5" cx="216.39" cy="611.51" r="0.81" transform="translate(-326.98 257.23) rotate(-37.41)"/><path class="cls-5" d="M189,596.06h-1v-1a1,1,0,0,0-2,0v1h-1a1,1,0,0,0,0,2h1v1a1,1,0,0,0,2,0v-1h1a1,1,0,1,0,0-2Z"/><circle class="cls-5" cx="271.29" cy="597.55" r="2.5" transform="translate(-123.91 73.64) rotate(-12.61)"/><circle class="cls-5" cx="294.86" cy="563.69" r="0.81"/><path class="cls-5" d="M318.32,587.47h-1v-1a1,1,0,0,0-2,0v1h-1a1,1,0,0,0,0,2h1v1a1,1,0,0,0,2,0v-1h1a1,1,0,0,0,0-2Z"/><circle class="cls-5" cx="300.67" cy="548.96" r="2.5"/><circle class="cls-5" cx="296.21" cy="518.57" r="0.81" transform="translate(-254.11 286.6) rotate(-37.41)"/><circle class="cls-5" cx="262.93" cy="534.01" r="0.81" transform="translate(-270.33 269.56) rotate(-37.41)"/><circle class="cls-5" cx="266.09" cy="633.32" r="0.81" transform="translate(-330.01 291.9) rotate(-37.41)"/><circle class="cls-5" cx="181" cy="416.84" r="2.5"/><circle class="cls-5" cx="38.28" cy="430.78" r="0.81"/><circle class="cls-5" cx="30.33" cy="466.59" r="0.81"/><circle class="cls-5" cx="176.54" cy="386.45" r="0.81" transform="translate(-198.46 186.73) rotate(-37.41)"/><circle class="cls-5" cx="122.26" cy="452.89" r="0.81" transform="translate(-249.98 167.42) rotate(-37.41)"/><circle class="cls-5" cx="104.18" cy="423.43" r="0.81" transform="translate(-235.8 150.38) rotate(-37.41)"/><path class="cls-5" d="M76.8,408h-1v-1a1,1,0,0,0-2,0v1h-1a1,1,0,1,0,0,2h1v1a1,1,0,0,0,2,0v-1h1a1,1,0,0,0,0-2Z"/><circle class="cls-5" cx="155.74" cy="479.41" r="0.81"/><circle class="cls-5" cx="221.65" cy="472.06" r="0.81" transform="translate(-241.18 231.74) rotate(-37.41)"/><path class="cls-5" d="M194.27,456.61h-1v-1a1,1,0,0,0-2,0v1h-1a1,1,0,0,0,0,2h1v1a1,1,0,0,0,2,0v-1h1a1,1,0,0,0,0-2Z"/><circle class="cls-5" cx="509.87" cy="492.66" r="2.5" transform="translate(-152.93 744.42) rotate(-64.82)"/><circle class="cls-5" cx="374.78" cy="444.54" r="0.81" transform="translate(-186.98 594.53) rotate(-64.82)"/><circle class="cls-5" cx="352.35" cy="473.56" r="0.81" transform="translate(-226.14 590.9) rotate(-64.82)"/><circle class="cls-5" cx="518.76" cy="463.26" r="0.81" transform="translate(-86.32 120.34) rotate(-12.22)"/><circle class="cls-5" cx="482.08" cy="463.07" r="0.81" transform="translate(-87.12 112.57) rotate(-12.22)"/><circle class="cls-5" cx="437.55" cy="465.94" r="0.81" transform="translate(-88.73 103.2) rotate(-12.22)"/><path class="cls-5" d="M419.34,440.3l-.94-.44.44-.94a1,1,0,0,0-1.81-.85l-.44.94-.94-.44a1,1,0,0,0-.85,1.81l.94.44-.44.94a1,1,0,0,0,1.81.85l.44-.94.94.44a1,1,0,1,0,.85-1.81Z"/><circle class="cls-5" cx="261.12" cy="496.23" r="2.5" transform="translate(-102.03 68.97) rotate(-12.61)"/><circle class="cls-5" cx="284.69" cy="462.38" r="0.81"/><path class="cls-5" d="M393.7,492.73h-1v-1a1,1,0,0,0-2,0v1h-1a1,1,0,0,0,0,2h1v1a1,1,0,0,0,2,0v-1h1a1,1,0,0,0,0-2Z"/><circle class="cls-5" cx="290.5" cy="447.65" r="2.5"/><circle class="cls-5" cx="286.04" cy="417.26" r="0.81" transform="translate(-194.65 259.58) rotate(-37.41)"/><circle class="cls-5" cx="252.76" cy="432.7" r="0.81" transform="translate(-210.87 242.54) rotate(-37.41)"/><circle class="cls-5" cx="83.84" cy="28.78" r="0.81" transform="translate(-0.24 56.85) rotate(-37.41)"/><circle class="cls-5" cx="50.57" cy="44.22" r="0.81" transform="translate(-16.46 39.81) rotate(-37.41)"/><circle class="cls-5" cx="483.74" cy="29.99" r="2.5"/><circle class="cls-5" cx="446" cy="15.04" r="0.81" transform="translate(82.59 274.04) rotate(-37.41)"/><circle class="cls-5" cx="406.93" cy="36.58" r="0.81" transform="translate(61.47 254.73) rotate(-37.41)"/><path class="cls-5" d="M379.54,21.13h-1v-1a1,1,0,0,0-2,0v1h-1a1,1,0,0,0,0,2h1v1a1,1,0,0,0,2,0v-1h1a1,1,0,0,0,0-2Z"/><circle class="cls-5" cx="274.52" cy="22.89" r="2.5"/><circle class="cls-5" cx="197.71" cy="29.48" r="0.81" transform="translate(22.75 126.17) rotate(-37.41)"/><path class="cls-5" d="M170.32,14h-1V13a1,1,0,1,0-2,0v1h-1a1,1,0,0,0,0,2h1v1a1,1,0,0,0,2,0V16h1a1,1,0,0,0,0-2Z"/><circle class="cls-5" cx="280.11" cy="221.59" r="2.5" transform="translate(-39.62 380.78) rotate(-64.82)"/><circle class="cls-5" cx="289" cy="192.2" r="0.81" transform="translate(-34.14 65.55) rotate(-12.22)"/><circle class="cls-5" cx="252.32" cy="192" r="0.81" transform="translate(-34.93 57.78) rotate(-12.22)"/><circle class="cls-5" cx="207.79" cy="194.87" r="0.81" transform="translate(-36.55 48.41) rotate(-12.22)"/></svg>