<svg id="Layer_1" data-name="Layer 1" xmlns="http://www.w3.org/2000/svg" viewBox="0 0 550 450"><defs><style>.cls-1{fill:#e9e9e9;}.cls-2{fill:#d0dbf7;}.cls-3{fill:#8a8e91;}.cls-4{fill:#f5f5f5;}</style></defs><title>1_</title><circle class="cls-1" cx="495.33" cy="317.93" r="2.5"/><circle class="cls-1" cx="536.06" cy="382.99" r="2.5"/><circle class="cls-1" cx="371.15" cy="438.8" r="0.81"/><circle class="cls-1" cx="490.87" cy="287.54" r="0.81" transform="translate(-73.72 357.34) rotate(-37.41)"/><circle class="cls-1" cx="467.78" cy="264.55" r="0.81" transform="translate(-64.51 338.58) rotate(-37.41)"/><circle class="cls-1" cx="465.24" cy="226.4" r="0.81" transform="translate(-41.84 329.19) rotate(-37.41)"/><circle class="cls-1" cx="512.82" cy="253.51" r="0.81" transform="translate(-48.53 363.67) rotate(-37.41)"/><circle class="cls-1" cx="457.6" cy="302.98" r="0.81" transform="translate(-89.94 340.3) rotate(-37.41)"/><path class="cls-1" d="M507.48,432.5h-1v-1a1,1,0,0,0-2,0v1h-1a1,1,0,1,0,0,2h1v1a1,1,0,0,0,2,0v-1h1a1,1,0,0,0,0-2Z"/><circle class="cls-1" cx="41.95" cy="268.82" r="2.5" transform="translate(-5.82 0.97) rotate(-1.24)"/><circle class="cls-1" cx="58.98" cy="411.2" r="0.81" transform="translate(-8.9 1.38) rotate(-1.24)"/><circle class="cls-1" cx="94.95" cy="418.38" r="0.81" transform="translate(-9.05 2.16) rotate(-1.24)"/><circle class="cls-1" cx="139.21" cy="424.05" r="0.81" transform="translate(-9.16 3.12) rotate(-1.24)"/><circle class="cls-1" cx="11.66" cy="273.94" r="0.81" transform="translate(-168.54 67.29) rotate(-38.65)"/><circle class="cls-1" cx="27.82" cy="306.87" r="0.81" transform="translate(-185.57 84.59) rotate(-38.65)"/><circle class="cls-1" cx="50.2" cy="345.47" r="0.81" transform="translate(-204.78 107.02) rotate(-38.65)"/><path class="cls-1" d="M35.35,373.18l0,1-1,0a1,1,0,1,0,0,2l1,0,0,1a1,1,0,0,0,2,0l0-1,1,0a1,1,0,0,0,0-2l-1,0,0-1a1,1,0,0,0-2,0Z"/><circle class="cls-1" cx="189.4" cy="104.28" r="2.5" transform="translate(-2.22 4.13) rotate(-1.24)"/><circle class="cls-1" cx="253.57" cy="62.15" r="2.5" transform="translate(-1.29 5.51) rotate(-1.24)"/><circle class="cls-1" cx="159.12" cy="109.4" r="0.81" transform="translate(-33.48 123.34) rotate(-38.65)"/><circle class="cls-1" cx="175.27" cy="142.34" r="0.81" transform="translate(-50.51 140.65) rotate(-38.65)"/><circle class="cls-1" cx="264.18" cy="432.95" r="0.81" transform="translate(-9.33 5.83) rotate(-1.24)"/><circle class="cls-1" cx="300.15" cy="440.12" r="0.81" transform="translate(-9.47 6.61) rotate(-1.24)"/><circle class="cls-1" cx="334.1" cy="440.52" r="0.81" transform="translate(-9.47 7.35) rotate(-1.24)"/><path class="cls-1" d="M470.17,373.18l0,1-1,0a1,1,0,1,0,0,2l1,0,0,1a1,1,0,1,0,2,0l0-1,1,0a1,1,0,0,0,0-2l-1,0,0-1a1,1,0,0,0-2,0Z"/><circle class="cls-1" cx="89.39" cy="85.06" r="2.5"/><circle class="cls-1" cx="192.21" cy="42.72" r="2.5"/><circle class="cls-1" cx="35.07" cy="195.79" r="2.5"/><circle class="cls-1" cx="232.94" cy="107.78" r="2.5"/><circle class="cls-1" cx="312.97" cy="40.88" r="2.5"/><circle class="cls-1" cx="458.15" cy="33.32" r="2.5" transform="translate(3.78 100.82) rotate(-12.61)"/><circle class="cls-1" cx="435.39" cy="114.36" r="2.5" transform="translate(-14.46 97.81) rotate(-12.61)"/><circle class="cls-1" cx="49.49" cy="56.65" r="0.81"/><circle class="cls-1" cx="103.58" cy="111.94" r="0.81"/><circle class="cls-1" cx="30.58" cy="105.09" r="0.81"/><circle class="cls-1" cx="80.58" cy="112.94" r="0.81"/><circle class="cls-1" cx="20.49" cy="173.2" r="0.81"/><circle class="cls-1" cx="72.75" cy="196.46" r="0.81"/><circle class="cls-1" cx="187.75" cy="12.33" r="0.81" transform="translate(31.12 116.59) rotate(-37.41)"/><circle class="cls-1" cx="154.47" cy="27.76" r="0.81" transform="matrix(0.79, -0.61, 0.61, 0.79, 14.9, 99.55)"/><circle class="cls-1" cx="115.39" cy="49.31" r="0.81" transform="translate(-6.22 80.24) rotate(-37.41)"/><circle class="cls-1" cx="527.64" cy="55.86" r="0.81"/><circle class="cls-1" cx="504.64" cy="56.86" r="0.81"/><circle class="cls-1" cx="524.39" cy="95.73" r="0.81"/><circle class="cls-1" cx="458.96" cy="80.5" r="0.81"/><circle class="cls-1" cx="422.22" cy="36.63" r="0.81"/><circle class="cls-1" cx="399.39" cy="11.52" r="0.81"/><circle class="cls-1" cx="370.56" cy="29.06" r="0.81"/><circle class="cls-1" cx="250.39" cy="23.56" r="0.81"/><circle class="cls-1" cx="282.56" cy="8.73" r="0.81"/><circle class="cls-1" cx="508.39" cy="130.4" r="0.81"/><path class="cls-1" d="M88,33.85H87v-1a1,1,0,1,0-2,0v1h-1a1,1,0,0,0,0,2h1v1a1,1,0,1,0,2,0v-1h1a1,1,0,0,0,0-2Z"/><path class="cls-1" d="M482.42,104.28h-1v-1a1,1,0,0,0-2,0v1h-1a1,1,0,0,0,0,2h1v1a1,1,0,1,0,2,0v-1h1a1,1,0,0,0,0-2Z"/><path class="cls-1" d="M316.45,15.17h-1v-1a1,1,0,0,0-2,0v1h-1a1,1,0,0,0,0,2h1v1a1,1,0,1,0,2,0v-1h1a1,1,0,0,0,0-2Z"/><path class="cls-1" d="M66.58,153.06h-1v-1a1,1,0,0,0-2,0v1h-1a1,1,0,0,0,0,2h1v1a1,1,0,1,0,2,0v-1h1a1,1,0,1,0,0-2Z"/><circle class="cls-1" cx="213.74" cy="438.39" r="2.5"/><circle class="cls-1" cx="209.24" cy="347.69" r="0.81"/><circle class="cls-1" cx="259.24" cy="355.54" r="0.81"/><circle class="cls-1" cx="199.15" cy="415.8" r="0.81"/><circle class="cls-1" cx="251.41" cy="439.06" r="0.81"/><path class="cls-1" d="M245.24,395.66h-1v-1a1,1,0,0,0-2,0v1h-1a1,1,0,0,0,0,2h1v1a1,1,0,1,0,2,0v-1h1a1,1,0,1,0,0-2Z"/><circle class="cls-1" cx="384.71" cy="113.53" r="2.5" transform="translate(-15.5 86.72) rotate(-12.61)"/><circle class="cls-1" cx="348.78" cy="116.84" r="0.81"/><circle class="cls-1" cx="325.95" cy="91.73" r="0.81"/><circle class="cls-1" cx="297.11" cy="109.27" r="0.81"/><circle class="cls-1" cx="499.82" cy="174.31" r="2.5" transform="translate(-26 113.32) rotate(-12.61)"/><path class="cls-1" d="M507.39,216.19h-1v-1a1,1,0,1,0-2,0v1h-1a1,1,0,0,0,0,2h1v1a1,1,0,1,0,2,0v-1h1a1,1,0,0,0,0-2Z"/><circle class="cls-1" cx="342.5" cy="407.79" r="0.81" transform="translate(-177.28 291.93) rotate(-37.41)"/><circle class="cls-1" cx="339.97" cy="369.63" r="0.81" transform="translate(-154.62 282.55) rotate(-37.41)"/><circle class="cls-1" cx="387.54" cy="396.74" r="0.81" transform="translate(-161.31 317.02) rotate(-37.41)"/><path class="cls-1" d="M382.11,359.43h-1v-1a1,1,0,1,0-2,0v1h-1a1,1,0,0,0,0,2h1v1a1,1,0,1,0,2,0v-1h1a1,1,0,1,0,0-2Z"/><circle class="cls-1" cx="488.09" cy="410.13" r="0.81"/><circle class="cls-1" cx="451.04" cy="411.86" r="0.81" transform="translate(-8.83 9.88) rotate(-1.24)"/><circle class="cls-1" cx="83.76" cy="290.08" r="0.81" transform="translate(-162.83 115.85) rotate(-38.65)"/><circle class="cls-1" cx="69.8" cy="314.18" r="0.81" transform="translate(-88.29 33.84) rotate(-16.89)"/><circle class="cls-1" cx="116.43" cy="355.02" r="2.5" transform="translate(-7.67 2.61) rotate(-1.24)"/><circle class="cls-1" cx="86.15" cy="360.14" r="0.81" transform="translate(-206.07 132.69) rotate(-38.65)"/><circle class="cls-1" cx="102.3" cy="393.08" r="0.81" transform="translate(-223.1 149.99) rotate(-38.65)"/><circle class="cls-1" cx="158.24" cy="376.29" r="0.81" transform="translate(-200.36 181.25) rotate(-38.65)"/><circle class="cls-1" cx="144.28" cy="400.39" r="0.81" transform="translate(-110.13 59.21) rotate(-16.89)"/><circle class="cls-1" cx="404.47" cy="298.21" r="2.5"/><circle class="cls-1" cx="364.56" cy="269.8" r="0.81"/><circle class="cls-1" cx="418.66" cy="325.09" r="0.81"/><circle class="cls-1" cx="356.61" cy="305.61" r="0.81"/><circle class="cls-1" cx="428.77" cy="353.08" r="0.81"/><circle class="cls-1" cx="430.47" cy="262.45" r="0.81" transform="translate(-70.9 315.48) rotate(-37.41)"/><path class="cls-1" d="M403.09,247h-1v-1a1,1,0,0,0-2,0v1h-1a1,1,0,0,0,0,2h1v1a1,1,0,0,0,2,0v-1h1a1,1,0,0,0,0-2Z"/><circle class="cls-1" cx="98.46" cy="308.62" r="2.5" transform="translate(-6.67 2.21) rotate(-1.24)"/><circle class="cls-1" cx="118.06" cy="164.62" r="2.5" transform="translate(-3.54 2.6) rotate(-1.24)"/><circle class="cls-1" cx="125.03" cy="293.85" r="0.81" transform="translate(-6.34 2.78) rotate(-1.24)"/><circle class="cls-1" cx="121.39" cy="265.02" r="0.81" transform="translate(-5.72 2.69) rotate(-1.24)"/><circle class="cls-1" cx="113.09" cy="329.67" r="0.81" transform="translate(-7.12 2.53) rotate(-1.24)"/><circle class="cls-1" cx="174.71" cy="292.23" r="0.81" transform="translate(-6.3 3.86) rotate(-1.24)"/><circle class="cls-1" cx="190.8" cy="306.93" r="0.81" transform="translate(-6.61 4.21) rotate(-1.24)"/><circle class="cls-1" cx="167.45" cy="261.76" r="0.81" transform="translate(-5.64 3.69) rotate(-1.24)"/><path class="cls-1" d="M154.08,319.28l0,1-1,0a1,1,0,1,0,0,2l1,0,0,1a1,1,0,0,0,2,0l0-1,1,0a1,1,0,1,0,0-2l-1,0,0-1a1,1,0,0,0-2,0Z"/><circle class="cls-1" cx="245.92" cy="144.09" r="2.5" transform="translate(-3.07 5.37) rotate(-1.24)"/><circle class="cls-1" cx="272.49" cy="129.32" r="0.81" transform="translate(-2.74 5.94) rotate(-1.24)"/><circle class="cls-1" cx="254.36" cy="191.77" r="0.81" transform="translate(-4.1 5.56) rotate(-1.24)"/><circle class="cls-1" cx="273.98" cy="152.29" r="0.81" transform="translate(-3.24 5.98) rotate(-1.24)"/><circle class="cls-1" cx="298.62" cy="197.44" r="0.81" transform="translate(-4.21 6.52) rotate(-1.24)"/><circle class="cls-1" cx="209.61" cy="118.87" r="0.81" transform="translate(-28.33 156.95) rotate(-38.65)"/><path class="cls-1" d="M194.75,146.58l0,1-1,0a1,1,0,0,0,0,2l1,0,0,1a1,1,0,0,0,2,0l0-1,1,0a1,1,0,1,0,0-2l-1,0,0-1a1,1,0,1,0-2,0Z"/><path class="cls-1" d="M301.53,154.75l0,1-1,0a1,1,0,0,0,0,2l1,0,0,1a1,1,0,1,0,2,0l0-1,1,0a1,1,0,0,0,0-2l-1,0,0-1a1,1,0,0,0-2,0Z"/><circle class="cls-1" cx="284.87" cy="343.26" r="2.5" transform="translate(-7.38 6.26) rotate(-1.24)"/><circle class="cls-1" cx="240.3" cy="241.38" r="2.5" transform="translate(-5.18 5.27) rotate(-1.24)"/><circle class="cls-1" cx="304.47" cy="199.25" r="2.5" transform="translate(-4.25 6.65) rotate(-1.24)"/><circle class="cls-1" cx="311.43" cy="328.49" r="0.81" transform="translate(-7.05 6.83) rotate(-1.24)"/><circle class="cls-1" cx="210.02" cy="246.5" r="0.81" transform="translate(-107.96 185.16) rotate(-38.65)"/><circle class="cls-1" cx="226.17" cy="279.44" r="0.81" transform="translate(-124.99 202.47) rotate(-38.65)"/><circle class="cls-1" cx="248.56" cy="318.04" r="0.81" transform="translate(-144.2 224.9) rotate(-38.65)"/><path class="cls-1" d="M233.7,345.75l0,1-1,0a1,1,0,1,0,0,2l1,0,0,1a1,1,0,0,0,2,0l0-1,1,0a1,1,0,0,0,0-2l-1,0,0-1a1,1,0,0,0-2,0Z"/><rect class="cls-2" x="240.38" y="144.89" width="80.14" height="41.9"/><path class="cls-3" d="M321.53,187.79H239.38v-43.9h82.14Zm-80.14-2h78.14v-39.9H241.38Z"/><rect class="cls-4" x="232.65" y="215.33" width="95.61" height="12.33" rx="6.17" ry="6.17"/><path class="cls-3" d="M322.09,228.66H238.82a7.17,7.17,0,1,1,0-14.33h83.28a7.17,7.17,0,1,1,0,14.33Zm-83.28-12.33a5.17,5.17,0,1,0,0,10.33h83.28a5.17,5.17,0,1,0,0-10.33Z"/><rect class="cls-2" x="240.38" y="186.74" width="80.14" height="28.46"/><path class="cls-3" d="M321.53,216.2H239.38V185.74h82.14Zm-80.14-2h78.14V187.74H241.38Z"/><circle class="cls-1" cx="103.42" cy="97.92" r="0.81"/><circle class="cls-1" cx="150.8" cy="112.15" r="0.81"/><path class="cls-4" d="M191.12,205.13h2.52a2,2,0,0,1,2,2V323.3a0,0,0,0,1,0,0h-6.52a0,0,0,0,1,0,0V207.13A2,2,0,0,1,191.12,205.13Z" transform="translate(468.99 438.3) rotate(158.24)"/><path class="cls-3" d="M212.37,320.7a3,3,0,0,1-2.79-1.89L166.15,210l7.91-3.16L217.5,315.65a3,3,0,0,1-1.67,3.9l-2.34.93A3,3,0,0,1,212.37,320.7ZM168.75,211.1l42.69,107a1,1,0,0,0,1.3.56h0l2.34-.93a1,1,0,0,0,.56-1.3L173,209.43Z"/><path class="cls-4" d="M108,197.38H453a0,0,0,0,1,0,0V202a2,2,0,0,1-2,2H110a2,2,0,0,1-2-2v-4.61a0,0,0,0,1,0,0Z"/><path class="cls-3" d="M451,205H110a3,3,0,0,1-3-3v-5.61H454V202A3,3,0,0,1,451,205Zm-342-6.61V202a1,1,0,0,0,1,1H451a1,1,0,0,0,1-1v-3.61Z"/><path class="cls-4" d="M111.34,186.79H449.73A3.31,3.31,0,0,1,453,190.1V197a0,0,0,0,1,0,0H108a0,0,0,0,1,0,0V190.1A3.31,3.31,0,0,1,111.34,186.79Z"/><path class="cls-3" d="M454,198H107V190.1a4.31,4.31,0,0,1,4.31-4.31H449.73A4.31,4.31,0,0,1,454,190.1Zm-345-2H452V190.1a2.31,2.31,0,0,0-2.31-2.31H111.34A2.31,2.31,0,0,0,109,190.1Z"/><path class="cls-4" d="M149.52,205.13H156a0,0,0,0,1,0,0V321.3a2,2,0,0,1-2,2h-2.52a2,2,0,0,1-2-2V205.13A0,0,0,0,1,149.52,205.13Z" transform="translate(108.81 -37.81) rotate(21.76)"/><path class="cls-3" d="M132.79,320.7a3,3,0,0,1-1.11-.21l-2.34-.93a3,3,0,0,1-1.67-3.9L171.1,206.83,179,210l-.37.93L135.58,318.81A3,3,0,0,1,132.79,320.7Zm-.37-2.07a1,1,0,0,0,1.3-.56l42.69-107-4.2-1.67-42.69,107a1,1,0,0,0,.56,1.3Z"/><path class="cls-4" d="M406,204.25h2.52a2,2,0,0,1,2,2V322.42a0,0,0,0,1,0,0H404a0,0,0,0,1,0,0V206.25A2,2,0,0,1,406,204.25Z" transform="translate(883.02 356.97) rotate(158.24)"/><path class="cls-3" d="M427.2,319.82a3,3,0,0,1-2.79-1.89L381,209.11l7.91-3.16,43.43,108.82a3,3,0,0,1-1.67,3.9l-2.34.93A3,3,0,0,1,427.2,319.82Zm.74-1.14h0ZM383.58,210.22l42.69,107a1,1,0,0,0,1.3.56l2.34-.93a1,1,0,0,0,.56-1.3l-42.69-107Z"/><path class="cls-4" d="M364.35,204.25h6.52a0,0,0,0,1,0,0V320.42a2,2,0,0,1-2,2h-2.52a2,2,0,0,1-2-2V204.25A0,0,0,0,1,364.35,204.25Z" transform="translate(123.79 -117.5) rotate(21.76)"/><path class="cls-3" d="M347.62,319.82a3,3,0,0,1-1.11-.21l-2.34-.93a3,3,0,0,1-1.67-3.9l43.43-108.82,7.91,3.16-.37.93L350.41,317.93A3,3,0,0,1,347.62,319.82Zm-.37-2.07a1,1,0,0,0,1.3-.56l42.69-107-4.2-1.67-42.69,107a1,1,0,0,0,.56,1.3Z"/><path class="cls-4" d="M155.29,204H190a0,0,0,0,1,0,0v3.63a3.62,3.62,0,0,1-3.62,3.62h-27.5a3.62,3.62,0,0,1-3.62-3.62V204A0,0,0,0,1,155.29,204Z"/><path class="cls-3" d="M186.41,212.24h-27.5a4.63,4.63,0,0,1-4.62-4.62V203H191v4.63A4.63,4.63,0,0,1,186.41,212.24ZM156.29,205v2.63a2.63,2.63,0,0,0,2.63,2.63h27.5a2.63,2.63,0,0,0,2.63-2.62V205Z"/><path class="cls-2" d="M163.1,211.24h19.12a0,0,0,0,1,0,0v2.55a3.62,3.62,0,0,1-3.62,3.62H166.73a3.62,3.62,0,0,1-3.62-3.62v-2.55A0,0,0,0,1,163.1,211.24Z"/><path class="cls-3" d="M178.59,218.42H166.73a4.63,4.63,0,0,1-4.62-4.62v-3.55h21.12v3.55A4.63,4.63,0,0,1,178.59,218.42Zm-14.49-6.17v1.55a2.63,2.63,0,0,0,2.63,2.63h11.87a2.63,2.63,0,0,0,2.63-2.62v-1.55Z"/><path class="cls-4" d="M370,204h34.75a0,0,0,0,1,0,0v3.63a3.62,3.62,0,0,1-3.62,3.62h-27.5a3.62,3.62,0,0,1-3.62-3.62V204A0,0,0,0,1,370,204Z"/><path class="cls-3" d="M401.16,212.24h-27.5a4.63,4.63,0,0,1-4.62-4.62V203h36.75v4.63A4.63,4.63,0,0,1,401.16,212.24ZM371,205v2.63a2.63,2.63,0,0,0,2.63,2.63h27.5a2.63,2.63,0,0,0,2.63-2.62V205Z"/><path class="cls-2" d="M377.85,211.24H397a0,0,0,0,1,0,0v2.55a3.62,3.62,0,0,1-3.62,3.62H381.48a3.62,3.62,0,0,1-3.62-3.62v-2.55A0,0,0,0,1,377.85,211.24Z"/><path class="cls-3" d="M393.34,218.42H381.48a4.63,4.63,0,0,1-4.62-4.62v-3.55H398v3.55A4.63,4.63,0,0,1,393.34,218.42Zm-14.49-6.17v1.55a2.63,2.63,0,0,0,2.63,2.63h11.87a2.63,2.63,0,0,0,2.63-2.62v-1.55Z"/><path class="cls-4" d="M246,97.11h69a12,12,0,0,1,12,12V151a0,0,0,0,1,0,0H234a0,0,0,0,1,0,0V109.11A12,12,0,0,1,246,97.11Z"/><path class="cls-3" d="M328,152H233V109.11a13,13,0,0,1,13-13h69a13,13,0,0,1,13,13Zm-93-2h91V109.11a11,11,0,0,0-11-11H246a11,11,0,0,0-11,11Z"/><circle class="cls-2" cx="280.54" cy="120.03" r="3.65"/><path class="cls-3" d="M280.54,124.69a4.65,4.65,0,1,1,4.65-4.65A4.66,4.66,0,0,1,280.54,124.69Zm0-7.31a2.65,2.65,0,1,0,2.65,2.65A2.66,2.66,0,0,0,280.54,117.38Z"/><path class="cls-2" d="M189.64,174H154.92a6.42,6.42,0,0,0-6.4,6.4h0a6.42,6.42,0,0,0,6.4,6.4h34.71"/><path class="cls-3" d="M189.64,187.79H154.92a7.4,7.4,0,1,1,0-14.8h34.71v2H154.92a5.4,5.4,0,1,0,0,10.8h34.71Z"/><path class="cls-4" d="M162.54,153.32h10.68a3,3,0,0,1,3,3V174a0,0,0,0,1,0,0H159.54a0,0,0,0,1,0,0V156.32A3,3,0,0,1,162.54,153.32Z"/><path class="cls-3" d="M177.22,175H158.54V156.32a4,4,0,0,1,4-4h10.68a4,4,0,0,1,4,4Zm-16.68-2h14.68V156.32a2,2,0,0,0-2-2H162.54a2,2,0,0,0-2,2Z"/><path class="cls-3" d="M176.22,171.49a1,1,0,0,1,0-2,5.17,5.17,0,1,0,0-10.33,1,1,0,0,1,0-2,7.17,7.17,0,1,1,0,14.33Z"/><path class="cls-3" d="M164.54,148.83h-8a1,1,0,0,1,0-2h8a1,1,0,0,1,0,2Z"/><path class="cls-3" d="M175.88,144.5h-8a1,1,0,0,1,0-2h8a1,1,0,0,1,0,2Z"/><path class="cls-3" d="M170.69,138h-8a1,1,0,0,1,0-2h8a1,1,0,1,1,0,2Z"/><path class="cls-3" d="M422.54,187.79h-8.25V157.16h8.25Zm-6.25-2h4.25V159.16h-4.25Z"/><path class="cls-3" d="M432.68,159.16H403.93a5,5,0,0,1-5-5V154l4-35.36a5,5,0,0,1,5-4.94h20.75a5,5,0,0,1,5,4.94l4,35.48A5,5,0,0,1,432.68,159.16Zm-31.75-4.95a3,3,0,0,0,3,2.95h28.75a3,3,0,0,0,3-2.95l-4-35.47a3,3,0,0,0-3-3H407.93a3,3,0,0,0-3,3v.11Zm32.75-35.47h0Z"/><path class="cls-3" d="M429,171.49a1,1,0,0,1-1-1V158.16a1,1,0,0,1,2,0v12.33A1,1,0,0,1,429,171.49Z"/><rect class="cls-4" x="406.79" y="182.33" width="23.08" height="4.47"/><path class="cls-3" d="M430.87,187.79H405.79v-6.47h25.08Zm-23.08-2h21.08v-2.47H407.79Z"/><circle class="cls-4" cx="429.04" cy="170.49" r="2.54"/><path class="cls-3" d="M429,174a3.54,3.54,0,1,1,3.54-3.54A3.55,3.55,0,0,1,429,174Zm0-5.08a1.54,1.54,0,1,0,1.54,1.54A1.54,1.54,0,0,0,429,169Z"/><path class="cls-4" d="M234,151h93a0,0,0,0,1,0,0v1.31a12,12,0,0,1-12,12H246a12,12,0,0,1-12-12V151a0,0,0,0,1,0,0Z"/><path class="cls-3" d="M315,165.33H246a13,13,0,0,1-13-13V150h95v2.31A13,13,0,0,1,315,165.33ZM235,152v.31a11,11,0,0,0,11,11h69a11,11,0,0,0,11-11V152Z"/><path class="cls-4" d="M283.34,181.54h-6.81a2,2,0,0,1-2-2l2-15.21h6.81l2,15.21A2,2,0,0,1,283.34,181.54Z"/><path class="cls-3" d="M283.34,182.54h-6.81a3,3,0,0,1-3-3v-.13l2.11-16.08h8.56l2.12,16.21A3,3,0,0,1,283.34,182.54Zm-7.8-2.95a1,1,0,0,0,1,.95h6.81a1,1,0,0,0,1-.95l-1.88-14.26h-5.05Z"/><path class="cls-4" d="M259.79,181.54h40.5a2,2,0,0,1,2,2v3.21a0,0,0,0,1,0,0h-44.5a0,0,0,0,1,0,0v-3.21A2,2,0,0,1,259.79,181.54Z"/><path class="cls-3" d="M303.29,187.74h-46.5v-4.21a3,3,0,0,1,3-3h40.5a3,3,0,0,1,3,3Zm-44.5-2h42.5v-2.21a1,1,0,0,0-1-1h-40.5a1,1,0,0,0-1,1Z"/><path class="cls-4" d="M248.67,226.62h9.43a0,0,0,0,1,0,0v87.68a2,2,0,0,1-2,2h-5.43a2,2,0,0,1-2-2V226.62a0,0,0,0,1,0,0Z" transform="translate(118.67 -74.58) rotate(21.76)"/><path class="cls-3" d="M240,315.25a3,3,0,0,1-1.11-.21l-5-2a3,3,0,0,1-1.67-3.9l32.87-82.36L275.69,231l-32.87,82.36A3,3,0,0,1,240,315.25Zm-.37-2.07a1,1,0,0,0,1.3-.56l32.13-80.5-6.9-2.75-32.13,80.5a1,1,0,0,0,.56,1.3Z"/><path class="cls-4" d="M304.47,226.62h5.43a2,2,0,0,1,2,2v87.68a0,0,0,0,1,0,0h-9.43a0,0,0,0,1,0,0V228.62A2,2,0,0,1,304.47,226.62Z" transform="translate(693.11 409.71) rotate(158.24)"/><path class="cls-3" d="M320.55,315.25a3,3,0,0,1-2.79-1.89L284.89,231l10.62-4.24,32.87,82.36a3,3,0,0,1-1.67,3.9l-5,2A3,3,0,0,1,320.55,315.25Zm.74-1.14h0Zm-33.8-82,32.13,80.5a1,1,0,0,0,1.3.56l5-2a1,1,0,0,0,.56-1.3l-32.13-80.5Z"/><path class="cls-4" d="M223.91,182.33H229a4,4,0,0,1,4,4v.42a0,0,0,0,1,0,0H219.91a0,0,0,0,1,0,0v-.42A4,4,0,0,1,223.91,182.33Z"/><path class="cls-3" d="M234,187.74H218.91v-1.42a5,5,0,0,1,5-5H229a5,5,0,0,1,5,5Zm-13.07-2h11a3,3,0,0,0-2.94-2.42h-5.12A3,3,0,0,0,221,185.74Z"/><polygon class="cls-2" points="298.27 236.38 262.31 236.38 265.83 227.66 294.95 227.66 298.27 236.38"/><path class="cls-3" d="M299.72,237.38H260.83l4.33-10.72h30.49Zm-35.93-2h33l-2.56-6.72H266.5Z"/><rect class="cls-3" x="402.38" y="131.48" width="31.84" height="2"/><circle class="cls-1" cx="440.19" cy="116.76" r="0.81"/><circle class="cls-1" cx="374.76" cy="101.53" r="0.81"/><circle class="cls-1" cx="349.41" cy="131.67" r="0.81"/><circle class="cls-1" cx="381.62" cy="128.44" r="0.81"/><circle class="cls-1" cx="353.09" cy="160.6" r="0.81"/><circle class="cls-1" cx="383.8" cy="173.03" r="0.81"/><circle class="cls-1" cx="135.39" cy="237.02" r="0.81" transform="translate(-5.11 2.99) rotate(-1.24)"/></svg>