<svg id="Layer_1" data-name="Layer 1" xmlns="http://www.w3.org/2000/svg" viewBox="0 0 550 450"><defs><style>.cls-1{opacity:0.18;}.cls-2{fill:#e5e5e5;}.cls-3{opacity:0.42;}.cls-4{opacity:0.5;}.cls-5{fill:#e9e9e9;}.cls-6{fill:#f5f5f5;}.cls-7{fill:#8a8e91;}.cls-8{fill:#dae2f7;}.cls-9{fill:#d0dbf7;}</style></defs><title>1_</title><g class="cls-1"><circle class="cls-2" cx="275.13" cy="218.79" r="186.5"/></g><g class="cls-3"><circle class="cls-2" cx="274.91" cy="218.57" r="161.19"/></g><g class="cls-4"><circle class="cls-2" cx="274.91" cy="218.57" r="141.51"/></g><circle class="cls-5" cx="91" cy="94" r="2.5"/><circle class="cls-5" cx="193.82" cy="51.65" r="2.5"/><circle class="cls-5" cx="51.1" cy="168.12" r="2.5"/><circle class="cls-5" cx="234.54" cy="116.72" r="2.5"/><circle class="cls-5" cx="314.58" cy="49.82" r="2.5"/><circle class="cls-5" cx="85.3" cy="304.5" r="2.5" transform="translate(-172.97 122.03) rotate(-39.11)"/><circle class="cls-5" cx="68.24" cy="380.87" r="2.5" transform="translate(-224.97 128.38) rotate(-39.11)"/><circle class="cls-5" cx="459.76" cy="42.26" r="2.5" transform="translate(1.86 101.39) rotate(-12.61)"/><circle class="cls-5" cx="437" cy="123.3" r="2.5" transform="translate(-16.38 98.37) rotate(-12.61)"/><circle class="cls-5" cx="509.72" cy="224.5" r="2.5" transform="translate(-36.72 116.69) rotate(-12.61)"/><circle class="cls-5" cx="508.4" cy="347.14" r="2.5" transform="translate(-63.52 119.36) rotate(-12.61)"/><circle class="cls-5" cx="51.1" cy="65.59" r="0.81"/><circle class="cls-5" cx="105.19" cy="120.88" r="0.81"/><circle class="cls-5" cx="43.14" cy="101.4" r="0.81"/><circle class="cls-5" cx="82.19" cy="121.88" r="0.81"/><circle class="cls-5" cx="36.51" cy="145.53" r="0.81"/><circle class="cls-5" cx="93.08" cy="168.93" r="0.81"/><circle class="cls-5" cx="26.03" cy="190.42" r="0.81"/><circle class="cls-5" cx="67.01" cy="201.62" r="0.81"/><circle class="cls-5" cx="37.87" cy="220.79" r="0.81"/><circle class="cls-5" cx="80.4" cy="241.08" r="0.81"/><circle class="cls-5" cx="27.63" cy="273.35" r="0.81"/><circle class="cls-5" cx="59.79" cy="305.08" r="0.81"/><circle class="cls-5" cx="32.48" cy="320.22" r="0.81"/><circle class="cls-5" cx="77.91" cy="350.75" r="0.81"/><circle class="cls-5" cx="26.86" cy="384.63" r="0.81"/><circle class="cls-5" cx="189.35" cy="21.27" r="0.81" transform="translate(26.03 119.4) rotate(-37.41)"/><circle class="cls-5" cx="156.08" cy="36.7" r="0.81" transform="translate(9.8 102.36) rotate(-37.41)"/><circle class="cls-5" cx="117" cy="58.24" r="0.81" transform="translate(-11.32 83.06) rotate(-37.41)"/><circle class="cls-5" cx="529.25" cy="64.79" r="0.81"/><circle class="cls-5" cx="506.25" cy="65.79" r="0.81"/><circle class="cls-5" cx="526" cy="104.67" r="0.81"/><circle class="cls-5" cx="460.57" cy="89.44" r="0.81"/><circle class="cls-5" cx="423.83" cy="45.57" r="0.81"/><circle class="cls-5" cx="401" cy="20.46" r="0.81"/><circle class="cls-5" cx="372.17" cy="38" r="0.81"/><circle class="cls-5" cx="335.81" cy="14.17" r="0.81"/><circle class="cls-5" cx="252" cy="32.5" r="0.81"/><circle class="cls-5" cx="284.17" cy="17.67" r="0.81"/><circle class="cls-5" cx="510" cy="139.33" r="0.81"/><circle class="cls-5" cx="490.17" cy="182" r="0.81"/><circle class="cls-5" cx="537.87" cy="214.13" r="0.81"/><circle class="cls-5" cx="515.5" cy="250.75" r="0.81"/><circle class="cls-5" cx="535.56" cy="271.75" r="0.81"/><circle class="cls-5" cx="526.55" cy="302.78" r="0.81" transform="translate(135.78 767.78) rotate(-79.86)"/><circle class="cls-5" cx="532.86" cy="334.76" r="0.81" transform="translate(109.49 800.34) rotate(-79.86)"/><circle class="cls-5" cx="513.52" cy="384.69" r="0.81" transform="translate(44.41 822.44) rotate(-79.86)"/><path class="cls-5" d="M89.62,42.79h-1v-1a1,1,0,0,0-2,0v1h-1a1,1,0,0,0,0,2h1v1a1,1,0,0,0,2,0v-1h1a1,1,0,0,0,0-2Z"/><path class="cls-5" d="M484,113.22h-1v-1a1,1,0,1,0-2,0v1h-1a1,1,0,0,0,0,2h1v1a1,1,0,0,0,2,0v-1h1a1,1,0,0,0,0-2Z"/><path class="cls-5" d="M55.63,250.56h-1v-1a1,1,0,1,0-2,0v1h-1a1,1,0,0,0,0,2h1v1a1,1,0,0,0,2,0v-1h1a1,1,0,0,0,0-2Z"/><path class="cls-5" d="M318.06,24.11h-1v-1a1,1,0,0,0-2,0v1h-1a1,1,0,0,0,0,2h1v1a1,1,0,1,0,2,0v-1h1a1,1,0,0,0,0-2Z"/><path class="cls-5" d="M524.44,180.19h-1v-1a1,1,0,0,0-2,0v1h-1a1,1,0,0,0,0,2h1v1a1,1,0,1,0,2,0v-1h1a1,1,0,0,0,0-2Z"/><path class="cls-5" d="M495,321.45h-1v-1a1,1,0,0,0-2,0v1h-1a1,1,0,0,0,0,2h1v1a1,1,0,0,0,2,0v-1h1a1,1,0,0,0,0-2Z"/><path class="cls-5" d="M79.14,149.37h-1v-1a1,1,0,0,0-2,0v1h-1a1,1,0,1,0,0,2h1v1a1,1,0,0,0,2,0v-1h1a1,1,0,1,0,0-2Z"/><path class="cls-5" d="M30.47,357.5h-1v-1a1,1,0,0,0-2,0v1h-1a1,1,0,1,0,0,2h1v1a1,1,0,0,0,2,0v-1h1a1,1,0,1,0,0-2Z"/><path class="cls-6" d="M164.85,311.73H208a0,0,0,0,1,0,0V349a15.46,15.46,0,0,1-15.46,15.46H180.31A15.46,15.46,0,0,1,164.85,349V311.73A0,0,0,0,1,164.85,311.73Z"/><path class="cls-7" d="M192.51,365.43H180.31A16.48,16.48,0,0,1,163.85,349V310.73H209V349A16.48,16.48,0,0,1,192.51,365.43Zm-26.66-52.7V349a14.48,14.48,0,0,0,14.46,14.46h12.19A14.48,14.48,0,0,0,207,349V312.73Z"/><path class="cls-6" d="M145.57,170.37h81.34a24.5,24.5,0,0,1,24.5,24.5v74.81a47.5,47.5,0,0,1-47.5,47.5H168.57a47.5,47.5,0,0,1-47.5-47.5V194.87A24.5,24.5,0,0,1,145.57,170.37Z"/><path class="cls-7" d="M203.91,318.18H168.57a48.55,48.55,0,0,1-48.5-48.5V194.87a25.53,25.53,0,0,1,25.5-25.5h81.34a25.53,25.53,0,0,1,25.5,25.5v74.81A48.55,48.55,0,0,1,203.91,318.18ZM145.57,171.37a23.53,23.53,0,0,0-23.5,23.5v74.81a46.55,46.55,0,0,0,46.5,46.5h35.34a46.55,46.55,0,0,0,46.5-46.5V194.87a23.53,23.53,0,0,0-23.5-23.5Z"/><path class="cls-6" d="M266.16,401.78v-9.09c0-28.39-35.89-51.62-79.75-51.62h0c-43.86,0-79.75,23.23-79.75,51.62v9.09Z"/><path class="cls-7" d="M267.16,402.78H105.66V392.69c0-29,36.22-52.62,80.75-52.62s80.75,23.61,80.75,52.62Zm-159.5-2h157.5v-8.09c0-27.91-35.33-50.62-78.75-50.62s-78.75,22.71-78.75,50.62Z"/><path class="cls-8" d="M217.11,348.69l-1.45,34.93c0,.93-1.39,1.35-2.2.71-3-2.37-10.18-5.3-27.76-4.9-1.15,0-1.89-1-1.33-1.81l21.76-32.43C214.89,345.38,217.1,347.24,217.11,348.69Z"/><path class="cls-8" d="M155.37,348.69l1.45,34.93c0,.93,1.39,1.35,2.2.71,3-2.37,10.18-5.3,27.76-4.9,1.15,0,1.89-1,1.33-1.81l-21.76-32.43C157.59,345.38,155.38,347.24,155.37,348.69Z"/><path class="cls-6" d="M190,370l15.25-16.62a6.49,6.49,0,0,0-4.79-10.88s-11.54-1.37-15.44-1.37c-3.72,0-15.05,1.37-15.05,1.37a6.49,6.49,0,0,0-4.79,10.88L180.45,370A6.49,6.49,0,0,0,190,370Z"/><path class="cls-7" d="M185.24,373.06a7.51,7.51,0,0,1-5.52-2.43L164.46,354a7.49,7.49,0,0,1,5.46-12.56c1-.12,11.48-1.37,15.12-1.37,3.82,0,14.52,1.26,15.51,1.37A7.49,7.49,0,0,1,206,354l-15.25,16.62A7.51,7.51,0,0,1,185.24,373.06ZM170,343.44a5.49,5.49,0,0,0-4,9.21l15.25,16.62a5.49,5.49,0,0,0,8.1,0l15.25-16.62a5.49,5.49,0,0,0-4-9.21h-.12c-.11,0-11.53-1.37-15.33-1.37-3.62,0-14.82,1.35-14.93,1.37Z"/><path class="cls-7" d="M186.61,390.69a1,1,0,0,1-1-1V372.05a1,1,0,0,1,2,0v17.64A1,1,0,0,1,186.61,390.69Z"/><path class="cls-6" d="M162.63,345.54l1,30.06a.91.91,0,0,0,1.55.61c2.09-2,7.18-4.56,19.57-4.22a1.05,1.05,0,0,0,.94-1.56l-15.34-27.91C164.19,342.69,162.63,344.29,162.63,345.54Z"/><path class="cls-7" d="M164.56,377.47a1.92,1.92,0,0,1-.72-.14,1.88,1.88,0,0,1-1.19-1.7l-1-30.1c0-1.41,1.15-3.81,8.72-4l.61,0,15.64,28.44a2,2,0,0,1,0,2.06,2.1,2.1,0,0,1-1.8,1c-12.56-.34-17.2,2.32-18.85,3.93A1.9,1.9,0,0,1,164.56,377.47Zm-.93-31.95,1,29.89c2.24-2.22,7.64-4.77,20.16-4.43l-15-27.45C165,343.76,163.65,344.91,163.63,345.53Z"/><path class="cls-6" d="M210.54,345.54l-1,30.06a.91.91,0,0,1-1.55.61c-2.09-2-7.18-4.56-19.57-4.22a1.05,1.05,0,0,1-.94-1.56l15.34-27.91C209,342.69,210.53,344.29,210.54,345.54Z"/><path class="cls-7" d="M208.61,377.47a1.91,1.91,0,0,1-1.34-.56c-1.65-1.62-6.29-4.27-18.85-3.93a2.07,2.07,0,0,1-1.8-1,2,2,0,0,1,0-2.06l15.64-28.44.61,0c7.57.2,8.71,2.6,8.72,4v0l-1,30.06a1.88,1.88,0,0,1-1.19,1.7A1.92,1.92,0,0,1,208.61,377.47Zm-18.49-6.58c11.15,0,16.16,2.36,18.41,4.46l1-29.83c0-.62-1.35-1.77-6.16-2l-15,27.37Z"/><rect class="cls-8" x="136.5" y="219.94" width="37.73" height="23.78" rx="3.47" ry="3.47"/><rect class="cls-8" x="195.96" y="219.94" width="37.73" height="23.78" rx="3.47" ry="3.47"/><path class="cls-7" d="M185.93,293.83c-16.48,0-29.9-7.86-29.9-17.51a1,1,0,0,1,2,0c0,8.55,12.51,15.51,27.9,15.51s27.9-7,27.9-15.51a1,1,0,0,1,2,0C215.82,286,202.41,293.83,185.93,293.83Z"/><path class="cls-7" d="M185.84,258.43a10.07,10.07,0,0,1-10.06-10.06,1,1,0,0,1,2,0,8.06,8.06,0,1,0,16.12,0,1,1,0,0,1,2,0A10.07,10.07,0,0,1,185.84,258.43Z"/><path class="cls-7" d="M185.84,335.27a7.58,7.58,0,0,1-7.57-7.57,1,1,0,0,1,2,0,5.57,5.57,0,0,0,11.14,0,1,1,0,0,1,2,0A7.58,7.58,0,0,1,185.84,335.27Z"/><rect class="cls-6" x="136.5" y="214.45" width="37.73" height="23.78" rx="3.47" ry="3.47"/><path class="cls-7" d="M170.77,239.23H140a4.47,4.47,0,0,1-4.47-4.47V217.91a4.47,4.47,0,0,1,4.47-4.47h30.8a4.47,4.47,0,0,1,4.47,4.47v16.85A4.47,4.47,0,0,1,170.77,239.23ZM140,215.45a2.47,2.47,0,0,0-2.47,2.47v16.85a2.47,2.47,0,0,0,2.47,2.47h30.8a2.47,2.47,0,0,0,2.47-2.47V217.91a2.47,2.47,0,0,0-2.47-2.47Z"/><rect class="cls-6" x="195.96" y="214.45" width="37.73" height="23.78" rx="3.47" ry="3.47"/><path class="cls-7" d="M230.22,239.23h-30.8a4.47,4.47,0,0,1-4.47-4.47V217.91a4.47,4.47,0,0,1,4.47-4.47h30.8a4.47,4.47,0,0,1,4.47,4.47v16.85A4.47,4.47,0,0,1,230.22,239.23Zm-30.8-23.78a2.47,2.47,0,0,0-2.47,2.47v16.85a2.47,2.47,0,0,0,2.47,2.47h30.8a2.47,2.47,0,0,0,2.47-2.47V217.91a2.47,2.47,0,0,0-2.47-2.47Z"/><path class="cls-6" d="M121.07,244.69a15.26,15.26,0,1,1,0-30.53Z"/><path class="cls-7" d="M122.07,245.69h-1a16.26,16.26,0,0,1,0-32.53h1Zm-2-30.49a14.26,14.26,0,0,0,0,28.46Z"/><path class="cls-7" d="M116.44,236.77c-3.2,0-5.8-3.29-5.8-7.35s2.6-7.35,5.8-7.35a1,1,0,1,1,0,2c-2.1,0-3.8,2.4-3.8,5.35s1.71,5.35,3.8,5.35a1,1,0,0,1,0,2Z"/><path class="cls-6" d="M251.41,244.69a15.26,15.26,0,1,0,0-30.53Z"/><path class="cls-7" d="M251.41,245.69h-1V213.16h1a16.26,16.26,0,0,1,0,32.53Zm1-30.49v28.46a14.26,14.26,0,0,0,0-28.46Z"/><path class="cls-7" d="M255.87,236.77a1,1,0,0,1,0-2c2.19,0,4-2.4,4-5.35s-1.78-5.35-4-5.35a1,1,0,0,1,0-2c3.29,0,6,3.29,6,7.35S259.17,236.77,255.87,236.77Z"/><path class="cls-7" d="M148.51,215.45H121.07a1,1,0,0,1,0-2h27.44a1,1,0,0,1,0,2Z"/><path class="cls-7" d="M253.3,215.45H225.86a1,1,0,0,1,0-2H253.3a1,1,0,0,1,0,2Z"/><path class="cls-7" d="M192.53,223.22H177.67a4.43,4.43,0,0,1-4.43-4.43,1,1,0,0,1,2,0,2.43,2.43,0,0,0,2.43,2.43h14.86a2.43,2.43,0,0,0,2.43-2.43,1,1,0,0,1,2,0A4.43,4.43,0,0,1,192.53,223.22Z"/><path class="cls-7" d="M161.54,230.42a1,1,0,0,1-1-1,6.72,6.72,0,1,0-13.43,0,1,1,0,0,1-2,0,8.72,8.72,0,1,1,17.43,0A1,1,0,0,1,161.54,230.42Z"/><rect class="cls-8" x="133.88" y="154.82" width="114.48" height="41.85" rx="12" ry="12"/><path class="cls-7" d="M222.54,230.42a1,1,0,0,1-1-1,6.72,6.72,0,1,0-13.44,0,1,1,0,0,1-2,0,8.72,8.72,0,1,1,17.44,0A1,1,0,0,1,222.54,230.42Z"/><rect class="cls-6" x="133.88" y="145.22" width="132.29" height="41.85" rx="12" ry="12"/><path class="cls-7" d="M254.16,188.06H145.88a13,13,0,0,1-13-13V157.22a13,13,0,0,1,13-13H254.16a13,13,0,0,1,13,13v17.85A13,13,0,0,1,254.16,188.06ZM145.88,146.22a11,11,0,0,0-11,11v17.85a11,11,0,0,0,11,11H254.16a11,11,0,0,0,11-11V157.22a11,11,0,0,0-11-11Z"/><path class="cls-6" d="M307,330.13H433a26.73,26.73,0,0,1,26.73,26.73v45.69a0,0,0,0,1,0,0H280.28a0,0,0,0,1,0,0V356.86A26.73,26.73,0,0,1,307,330.13Z"/><path class="cls-7" d="M460.69,403.55H279.28V356.86A27.76,27.76,0,0,1,307,329.13H433a27.76,27.76,0,0,1,27.73,27.73Zm-179.41-2H458.69V356.86A25.76,25.76,0,0,0,433,331.13H307a25.76,25.76,0,0,0-25.73,25.73Z"/><ellipse class="cls-6" cx="367.18" cy="355.31" rx="39.82" ry="31.18"/><path class="cls-7" d="M367.17,387.49c-22.51,0-40.82-14.43-40.82-32.18s18.31-32.18,40.82-32.18S408,337.57,408,355.31,389.68,387.49,367.17,387.49Zm0-62.35c-21.4,0-38.82,13.54-38.82,30.18s17.41,30.18,38.82,30.18S406,372,406,355.31,388.58,325.14,367.17,325.14Z"/><rect class="cls-9" x="113.44" y="145.22" width="20.44" height="61.49" rx="7.45" ry="7.45"/><path class="cls-7" d="M126.43,207.7h-5.54a8.46,8.46,0,0,1-8.45-8.45V152.66a8.46,8.46,0,0,1,8.45-8.45h5.54a8.46,8.46,0,0,1,8.45,8.45v46.59A8.46,8.46,0,0,1,126.43,207.7Zm-5.54-61.49a6.46,6.46,0,0,0-6.45,6.45v46.59a6.46,6.46,0,0,0,6.45,6.45h5.54a6.46,6.46,0,0,0,6.45-6.45V152.66a6.46,6.46,0,0,0-6.45-6.45Z"/><path class="cls-7" d="M187.84,178H152.4a1,1,0,0,1,0-2h35.44a1,1,0,0,1,0,2Z"/><path class="cls-6" d="M313.82,139.33H419.21a15.13,15.13,0,0,1,15.13,15.13V316.4a38.13,38.13,0,0,1-38.13,38.13H336.82A38.13,38.13,0,0,1,298.7,316.4V154.46a15.13,15.13,0,0,1,15.13-15.13Z"/><path class="cls-7" d="M396.21,355.53H336.82A39.17,39.17,0,0,1,297.7,316.4V154.46a16.14,16.14,0,0,1,16.13-16.13H419.21a16.14,16.14,0,0,1,16.13,16.13V316.4A39.17,39.17,0,0,1,396.21,355.53ZM313.82,140.33a14.14,14.14,0,0,0-14.13,14.13V316.4a37.17,37.17,0,0,0,37.13,37.13h59.38a37.17,37.17,0,0,0,37.13-37.12V154.46a14.14,14.14,0,0,0-14.13-14.13Z"/><path class="cls-7" d="M214.82,178H198.25a1,1,0,0,1,0-2h16.58a1,1,0,0,1,0,2Z"/><path class="cls-8" d="M322,163.45h89.68a15.13,15.13,0,0,1,15.13,15.13V295.11a38.13,38.13,0,0,1-38.13,38.13H345a38.13,38.13,0,0,1-38.13-38.13V178.57A15.13,15.13,0,0,1,322,163.45Z"/><path class="cls-6" d="M345.55,315.66h42.57a0,0,0,0,1,0,0v36.57a15.46,15.46,0,0,1-15.46,15.46H361a15.46,15.46,0,0,1-15.46-15.46V315.66A0,0,0,0,1,345.55,315.66Z"/><path class="cls-7" d="M372.66,368.7H361a16.48,16.48,0,0,1-16.46-16.46V314.66h44.57v37.57A16.48,16.48,0,0,1,372.66,368.7Zm-26.11-52v35.57A14.48,14.48,0,0,0,361,366.7h11.65a14.48,14.48,0,0,0,14.46-14.46V316.66Z"/><path class="cls-6" d="M322,151.26h89.68a15.13,15.13,0,0,1,15.13,15.13V282.92A38.13,38.13,0,0,1,388.67,321H345a38.13,38.13,0,0,1-38.13-38.13V166.38A15.13,15.13,0,0,1,322,151.26Z"/><path class="cls-7" d="M388.67,322H345a39.17,39.17,0,0,1-39.12-39.12V166.38A16.14,16.14,0,0,1,322,150.26h89.68a16.14,16.14,0,0,1,16.13,16.13V282.92A39.17,39.17,0,0,1,388.67,322ZM322,152.26a14.14,14.14,0,0,0-14.13,14.13V282.92A37.17,37.17,0,0,0,345,320h43.68a37.17,37.17,0,0,0,37.13-37.12V166.38a14.14,14.14,0,0,0-14.13-14.13Z"/><path class="cls-6" d="M306.23,249.47a15.07,15.07,0,1,1,0-30.14Z"/><path class="cls-7" d="M307.23,250.47h-1a16.07,16.07,0,0,1,0-32.14h1Zm-2-30.11a14.07,14.07,0,0,0,0,28.07Z"/><rect class="cls-8" x="308.22" y="153.97" width="115.99" height="30.35" rx="11.2" ry="11.2"/><path class="cls-6" d="M426.8,249.47a15.07,15.07,0,0,0,0-30.14Z"/><path class="cls-7" d="M426.8,250.47h-1V218.33h1a16.07,16.07,0,0,1,0,32.14Zm1-30.11v28.07a14.07,14.07,0,0,0,0-28.07Z"/><rect class="cls-9" x="308.22" y="145.84" width="115.99" height="30.35" rx="11.2" ry="11.2"/><path class="cls-7" d="M413,177.19H319.43a12.22,12.22,0,0,1-12.2-12.2V157a12.22,12.22,0,0,1,12.2-12.2H413a12.22,12.22,0,0,1,12.2,12.2V165A12.22,12.22,0,0,1,413,177.19Zm-93.58-30.35a10.22,10.22,0,0,0-10.2,10.2V165a10.21,10.21,0,0,0,10.2,10.2H413a10.21,10.21,0,0,0,10.2-10.2V157a10.21,10.21,0,0,0-10.2-10.2Z"/><path class="cls-7" d="M338.59,213a8.63,8.63,0,0,1-8.62-8.62,1,1,0,1,1,2,0,6.62,6.62,0,0,0,13.24,0,1,1,0,0,1,2,0A8.63,8.63,0,0,1,338.59,213Z"/><path class="cls-7" d="M398.82,213a8.63,8.63,0,0,1-8.62-8.62,1,1,0,1,1,2,0,6.62,6.62,0,0,0,13.24,0,1,1,0,0,1,2,0A8.63,8.63,0,0,1,398.82,213Z"/><path class="cls-7" d="M366.83,258.57c-5.48,0-9.94-4.08-9.94-9.1a1,1,0,1,1,2,0c0,3.92,3.56,7.1,7.94,7.1s7.94-3.19,7.94-7.1a1,1,0,0,1,2,0C376.78,254.49,372.32,258.57,366.83,258.57Z"/><path class="cls-7" d="M366.83,298c-16.28,0-29.53-7.76-29.53-17.3a1,1,0,0,1,2,0c0,8.44,12.35,15.3,27.53,15.3s27.53-6.86,27.53-15.3a1,1,0,0,1,2,0C396.36,290.24,383.12,298,366.83,298Z"/><g class="cls-3"><circle class="cls-2" cx="328.71" cy="248.57" r="12.08"/></g><g class="cls-3"><circle class="cls-2" cx="404.79" cy="248.57" r="12.08"/></g><path class="cls-7" d="M328.59,170.21a1,1,0,0,1-1-1V153.29a1,1,0,0,1,2,0v15.92A1,1,0,0,1,328.59,170.21Z"/><path class="cls-7" d="M366.22,170.21a1,1,0,0,1-1-1V153.29a1,1,0,1,1,2,0v15.92A1,1,0,0,1,366.22,170.21Z"/><path class="cls-7" d="M404.11,170.21a1,1,0,0,1-1-1V153.29a1,1,0,1,1,2,0v15.92A1,1,0,0,1,404.11,170.21Z"/><path class="cls-7" d="M301.87,241.66c-3.17,0-5.74-3.26-5.74-7.26s2.58-7.27,5.74-7.27a1,1,0,0,1,0,2c-2.06,0-3.74,2.36-3.74,5.27s1.68,5.26,3.74,5.26a1,1,0,0,1,0,2Z"/><path class="cls-7" d="M430.61,241.66a1,1,0,0,1,0-2c2.06,0,3.74-2.36,3.74-5.26s-1.68-5.27-3.74-5.27a1,1,0,0,1,0-2c3.17,0,5.74,3.26,5.74,7.27S433.77,241.66,430.61,241.66Z"/></svg>