<svg id="Layer_1" data-name="Layer 1" xmlns="http://www.w3.org/2000/svg" viewBox="0 0 550 450"><defs><style>.cls-1{fill:#e9e9e9;}.cls-2{opacity:0.18;}.cls-3{fill:#e5e5e5;}.cls-4{opacity:0.42;}.cls-5{opacity:0.5;}.cls-6{fill:#f5f5f5;}.cls-7{fill:#8a8e91;}.cls-8{fill:#dae2f7;}.cls-9{fill:#d0dbf7;}</style></defs><title>1_</title><circle class="cls-1" cx="91" cy="94" r="2.5"/><circle class="cls-1" cx="193.82" cy="51.65" r="2.5"/><circle class="cls-1" cx="51.1" cy="168.12" r="2.5"/><circle class="cls-1" cx="314.58" cy="49.82" r="2.5"/><circle class="cls-1" cx="85.3" cy="304.5" r="2.5" transform="translate(-172.97 122.03) rotate(-39.11)"/><circle class="cls-1" cx="68.24" cy="380.87" r="2.5" transform="translate(-224.97 128.38) rotate(-39.11)"/><circle class="cls-1" cx="459.76" cy="42.26" r="2.5" transform="translate(1.86 101.39) rotate(-12.61)"/><circle class="cls-1" cx="509.72" cy="224.5" r="2.5" transform="translate(-36.72 116.69) rotate(-12.61)"/><circle class="cls-1" cx="508.4" cy="347.14" r="2.5" transform="translate(-63.52 119.36) rotate(-12.61)"/><circle class="cls-1" cx="51.1" cy="65.59" r="0.81"/><circle class="cls-1" cx="105.19" cy="120.88" r="0.81"/><circle class="cls-1" cx="43.14" cy="101.4" r="0.81"/><circle class="cls-1" cx="82.19" cy="121.88" r="0.81"/><circle class="cls-1" cx="36.51" cy="145.53" r="0.81"/><circle class="cls-1" cx="93.08" cy="168.93" r="0.81"/><circle class="cls-1" cx="26.03" cy="190.42" r="0.81"/><circle class="cls-1" cx="67.01" cy="201.62" r="0.81"/><circle class="cls-1" cx="37.87" cy="220.79" r="0.81"/><circle class="cls-1" cx="80.4" cy="241.08" r="0.81"/><circle class="cls-1" cx="27.63" cy="273.35" r="0.81"/><circle class="cls-1" cx="59.79" cy="305.08" r="0.81"/><circle class="cls-1" cx="32.48" cy="320.22" r="0.81"/><circle class="cls-1" cx="77.91" cy="350.75" r="0.81"/><circle class="cls-1" cx="26.86" cy="384.63" r="0.81"/><circle class="cls-1" cx="189.35" cy="21.27" r="0.81" transform="translate(26.03 119.4) rotate(-37.41)"/><circle class="cls-1" cx="156.08" cy="36.7" r="0.81" transform="translate(9.8 102.36) rotate(-37.41)"/><circle class="cls-1" cx="117" cy="58.24" r="0.81" transform="translate(-11.32 83.06) rotate(-37.41)"/><circle class="cls-1" cx="529.25" cy="64.79" r="0.81"/><circle class="cls-1" cx="506.25" cy="65.79" r="0.81"/><circle class="cls-1" cx="526" cy="104.67" r="0.81"/><circle class="cls-1" cx="460.57" cy="89.44" r="0.81"/><circle class="cls-1" cx="423.83" cy="45.57" r="0.81"/><circle class="cls-1" cx="401" cy="20.46" r="0.81"/><circle class="cls-1" cx="372.17" cy="38" r="0.81"/><circle class="cls-1" cx="335.81" cy="14.17" r="0.81"/><circle class="cls-1" cx="252" cy="32.5" r="0.81"/><circle class="cls-1" cx="284.17" cy="17.67" r="0.81"/><circle class="cls-1" cx="510" cy="139.33" r="0.81"/><circle class="cls-1" cx="490.17" cy="182" r="0.81"/><circle class="cls-1" cx="537.88" cy="214.13" r="0.81"/><circle class="cls-1" cx="515.5" cy="250.75" r="0.81"/><circle class="cls-1" cx="535.56" cy="271.75" r="0.81"/><circle class="cls-1" cx="526.55" cy="302.78" r="0.81" transform="translate(135.78 767.78) rotate(-79.86)"/><circle class="cls-1" cx="532.86" cy="334.76" r="0.81" transform="translate(109.49 800.34) rotate(-79.86)"/><circle class="cls-1" cx="513.52" cy="384.69" r="0.81" transform="translate(44.41 822.44) rotate(-79.86)"/><path class="cls-1" d="M89.62,42.79h-1v-1a1,1,0,0,0-2,0v1h-1a1,1,0,0,0,0,2h1v1a1,1,0,0,0,2,0v-1h1a1,1,0,0,0,0-2Z"/><path class="cls-1" d="M484,113.22h-1v-1a1,1,0,1,0-2,0v1h-1a1,1,0,0,0,0,2h1v1a1,1,0,0,0,2,0v-1h1a1,1,0,0,0,0-2Z"/><path class="cls-1" d="M55.63,250.56h-1v-1a1,1,0,1,0-2,0v1h-1a1,1,0,0,0,0,2h1v1a1,1,0,0,0,2,0v-1h1a1,1,0,0,0,0-2Z"/><path class="cls-1" d="M318.06,24.11h-1v-1a1,1,0,0,0-2,0v1h-1a1,1,0,0,0,0,2h1v1a1,1,0,1,0,2,0v-1h1a1,1,0,0,0,0-2Z"/><path class="cls-1" d="M524.44,180.19h-1v-1a1,1,0,0,0-2,0v1h-1a1,1,0,0,0,0,2h1v1a1,1,0,1,0,2,0v-1h1a1,1,0,0,0,0-2Z"/><path class="cls-1" d="M495,321.45h-1v-1a1,1,0,0,0-2,0v1h-1a1,1,0,0,0,0,2h1v1a1,1,0,0,0,2,0v-1h1a1,1,0,0,0,0-2Z"/><path class="cls-1" d="M79.14,149.37h-1v-1a1,1,0,0,0-2,0v1h-1a1,1,0,1,0,0,2h1v1a1,1,0,0,0,2,0v-1h1a1,1,0,1,0,0-2Z"/><path class="cls-1" d="M30.47,357.5h-1v-1a1,1,0,0,0-2,0v1h-1a1,1,0,1,0,0,2h1v1a1,1,0,0,0,2,0v-1h1a1,1,0,1,0,0-2Z"/><g class="cls-2"><circle class="cls-3" cx="275" cy="225" r="186.5"/></g><g class="cls-4"><circle class="cls-3" cx="274.78" cy="224.78" r="161.19"/></g><g class="cls-5"><circle class="cls-3" cx="274.78" cy="224.78" r="141.51"/></g><path class="cls-6" d="M157.1,265.79h43.12a0,0,0,0,1,0,0V303a15.46,15.46,0,0,1-15.46,15.46H172.56A15.46,15.46,0,0,1,157.1,303V265.79A0,0,0,0,1,157.1,265.79Z"/><path class="cls-7" d="M184.76,319.49H172.56A16.48,16.48,0,0,1,156.1,303V264.79h45.12V303A16.48,16.48,0,0,1,184.76,319.49Zm-26.66-52.7V303a14.48,14.48,0,0,0,14.46,14.46h12.19A14.48,14.48,0,0,0,199.22,303V266.79Z"/><path class="cls-6" d="M137.82,124.43h81.34a24.5,24.5,0,0,1,24.5,24.5v74.81a47.5,47.5,0,0,1-47.5,47.5H160.82a47.5,47.5,0,0,1-47.5-47.5V148.93a24.5,24.5,0,0,1,24.5-24.5Z"/><path class="cls-7" d="M196.16,272.24H160.82a48.55,48.55,0,0,1-48.5-48.5V148.93a25.53,25.53,0,0,1,25.5-25.5h81.34a25.53,25.53,0,0,1,25.5,25.5v74.81A48.55,48.55,0,0,1,196.16,272.24ZM137.82,125.43a23.53,23.53,0,0,0-23.5,23.5v74.81a46.55,46.55,0,0,0,46.5,46.5h35.34a46.55,46.55,0,0,0,46.5-46.5V148.93a23.53,23.53,0,0,0-23.5-23.5Z"/><path class="cls-6" d="M258.41,355.84v-9.09c0-28.39-35.89-51.62-79.75-51.62h0c-43.86,0-79.75,23.23-79.75,51.62v9.09Z"/><path class="cls-7" d="M259.41,356.84H97.91V346.75c0-29,36.22-52.62,80.75-52.62s80.75,23.61,80.75,52.62Zm-159.5-2h157.5v-8.09c0-27.91-35.33-50.62-78.75-50.62s-78.75,22.71-78.75,50.62Z"/><path class="cls-8" d="M209.36,302.75l-1.45,34.93c0,.93-1.39,1.35-2.2.71-3-2.37-10.18-5.3-27.76-4.9-1.15,0-1.89-1-1.33-1.81l21.76-32.43C207.14,299.44,209.35,301.3,209.36,302.75Z"/><path class="cls-8" d="M147.62,302.75l1.45,34.93c0,.93,1.39,1.35,2.2.71,3-2.37,10.18-5.3,27.76-4.9,1.15,0,1.89-1,1.33-1.81L158.6,299.24C149.84,299.44,147.63,301.3,147.62,302.75Z"/><path class="cls-6" d="M182.27,324l15.25-16.62a6.49,6.49,0,0,0-4.79-10.88s-11.54-1.37-15.44-1.37c-3.72,0-15.05,1.37-15.05,1.37a6.49,6.49,0,0,0-4.79,10.88L172.7,324A6.49,6.49,0,0,0,182.27,324Z"/><path class="cls-7" d="M177.49,327.12a7.51,7.51,0,0,1-5.52-2.43l-15.25-16.62a7.49,7.49,0,0,1,5.46-12.56c1-.12,11.48-1.37,15.12-1.37,3.82,0,14.52,1.26,15.51,1.37a7.49,7.49,0,0,1,5.46,12.56L183,324.69A7.51,7.51,0,0,1,177.49,327.12ZM162.24,297.5a5.49,5.49,0,0,0-4,9.21l15.25,16.62a5.49,5.49,0,0,0,8.1,0l15.25-16.62a5.49,5.49,0,0,0-4-9.21h-.12c-.11,0-11.53-1.37-15.33-1.37-3.62,0-14.82,1.35-14.93,1.37Z"/><path class="cls-7" d="M178.86,344.75a1,1,0,0,1-1-1V326.11a1,1,0,0,1,2,0v17.64A1,1,0,0,1,178.86,344.75Z"/><path class="cls-6" d="M154.88,299.6l1,30.06a.91.91,0,0,0,1.55.61c2.09-2,7.18-4.56,19.57-4.22a1.05,1.05,0,0,0,.94-1.56l-15.34-27.91C156.44,296.75,154.88,298.35,154.88,299.6Z"/><path class="cls-7" d="M156.81,331.53a1.92,1.92,0,0,1-.72-.14,1.88,1.88,0,0,1-1.19-1.7l-1-30.1c0-1.41,1.15-3.81,8.72-4l.61,0L178.84,324a2,2,0,0,1,0,2.06,2.1,2.1,0,0,1-1.8,1c-12.56-.34-17.2,2.32-18.85,3.93A1.9,1.9,0,0,1,156.81,331.53Zm-.93-31.95,1,29.89c2.24-2.22,7.64-4.77,20.16-4.43L162,297.6C157.23,297.82,155.9,299,155.88,299.59Z"/><path class="cls-6" d="M202.79,299.6l-1,30.06a.91.91,0,0,1-1.55.61c-2.09-2-7.18-4.56-19.57-4.22a1.05,1.05,0,0,1-.94-1.56L195,296.58C201.22,296.75,202.78,298.35,202.79,299.6Z"/><path class="cls-7" d="M200.86,331.53a1.91,1.91,0,0,1-1.34-.56c-1.65-1.62-6.29-4.27-18.85-3.93a2.07,2.07,0,0,1-1.8-1,2,2,0,0,1,0-2.06l15.64-28.44.61,0c7.57.2,8.71,2.6,8.72,4v0l-1,30.06a1.88,1.88,0,0,1-1.19,1.7A1.92,1.92,0,0,1,200.86,331.53ZM182.36,325c11.15,0,16.16,2.36,18.41,4.46l1-29.83c0-.62-1.35-1.77-6.16-2l-15,27.37Z"/><rect class="cls-8" x="128.75" y="174" width="37.73" height="23.78" rx="3.47" ry="3.47"/><rect class="cls-8" x="188.21" y="174" width="37.73" height="23.78" rx="3.47" ry="3.47"/><path class="cls-7" d="M178.18,247.89c-16.48,0-29.9-7.86-29.9-17.51a1,1,0,0,1,2,0c0,8.55,12.51,15.51,27.9,15.51s27.9-7,27.9-15.51a1,1,0,0,1,2,0C208.07,240,194.66,247.89,178.18,247.89Z"/><path class="cls-7" d="M178.09,212.49A10.07,10.07,0,0,1,168,202.43a1,1,0,0,1,2,0,8.06,8.06,0,1,0,16.12,0,1,1,0,0,1,2,0A10.07,10.07,0,0,1,178.09,212.49Z"/><path class="cls-7" d="M178.09,289.33a7.58,7.58,0,0,1-7.57-7.57,1,1,0,0,1,2,0,5.57,5.57,0,0,0,11.14,0,1,1,0,0,1,2,0A7.58,7.58,0,0,1,178.09,289.33Z"/><rect class="cls-6" x="128.75" y="168.51" width="37.73" height="23.78" rx="3.47" ry="3.47"/><path class="cls-7" d="M163,193.29h-30.8a4.47,4.47,0,0,1-4.47-4.47V172a4.47,4.47,0,0,1,4.47-4.47H163a4.47,4.47,0,0,1,4.47,4.47v16.85A4.47,4.47,0,0,1,163,193.29Zm-30.8-23.78a2.47,2.47,0,0,0-2.47,2.47v16.85a2.47,2.47,0,0,0,2.47,2.47H163a2.47,2.47,0,0,0,2.47-2.47V172a2.47,2.47,0,0,0-2.47-2.47Z"/><rect class="cls-6" x="188.21" y="168.51" width="37.73" height="23.78" rx="3.47" ry="3.47"/><path class="cls-7" d="M222.47,193.29h-30.8a4.47,4.47,0,0,1-4.47-4.47V172a4.47,4.47,0,0,1,4.47-4.47h30.8a4.47,4.47,0,0,1,4.47,4.47v16.85A4.47,4.47,0,0,1,222.47,193.29Zm-30.8-23.78a2.47,2.47,0,0,0-2.47,2.47v16.85a2.47,2.47,0,0,0,2.47,2.47h30.8a2.47,2.47,0,0,0,2.47-2.47V172a2.47,2.47,0,0,0-2.47-2.47Z"/><path class="cls-6" d="M113.32,198.75a15.26,15.26,0,1,1,0-30.53Z"/><path class="cls-7" d="M114.32,199.75h-1a16.26,16.26,0,0,1,0-32.53h1Zm-2-30.49a14.26,14.26,0,0,0,0,28.46Z"/><path class="cls-7" d="M108.69,190.83c-3.2,0-5.8-3.29-5.8-7.35s2.6-7.35,5.8-7.35a1,1,0,0,1,0,2c-2.1,0-3.8,2.4-3.8,5.35s1.71,5.35,3.8,5.35a1,1,0,0,1,0,2Z"/><path class="cls-6" d="M243.66,198.75a15.26,15.26,0,0,0,0-30.53Z"/><path class="cls-7" d="M243.66,199.75h-1V167.22h1a16.26,16.26,0,0,1,0,32.53Zm1-30.49v28.46a14.26,14.26,0,0,0,0-28.46Z"/><path class="cls-7" d="M248.12,190.83a1,1,0,0,1,0-2c2.19,0,4-2.4,4-5.35s-1.78-5.35-4-5.35a1,1,0,1,1,0-2c3.29,0,6,3.29,6,7.35S251.42,190.83,248.12,190.83Z"/><path class="cls-7" d="M140.76,169.51H113.32a1,1,0,0,1,0-2h27.44a1,1,0,0,1,0,2Z"/><path class="cls-7" d="M245.55,169.51H218.11a1,1,0,0,1,0-2h27.44a1,1,0,0,1,0,2Z"/><path class="cls-7" d="M184.78,177.28H169.92a4.43,4.43,0,0,1-4.43-4.43,1,1,0,0,1,2,0,2.43,2.43,0,0,0,2.43,2.43h14.86a2.43,2.43,0,0,0,2.43-2.43,1,1,0,0,1,2,0A4.43,4.43,0,0,1,184.78,177.28Z"/><path class="cls-7" d="M153.79,184.48a1,1,0,0,1-1-1,6.72,6.72,0,1,0-13.43,0,1,1,0,0,1-2,0,8.72,8.72,0,1,1,17.43,0A1,1,0,0,1,153.79,184.48Z"/><rect class="cls-8" x="126.13" y="108.88" width="114.48" height="41.85" rx="12" ry="12"/><path class="cls-7" d="M214.79,184.48a1,1,0,0,1-1-1,6.72,6.72,0,0,0-13.44,0,1,1,0,0,1-2,0,8.72,8.72,0,0,1,17.44,0A1,1,0,0,1,214.79,184.48Z"/><rect class="cls-6" x="126.13" y="99.28" width="132.29" height="41.85" rx="12" ry="12"/><path class="cls-7" d="M246.41,142.12H138.13a13,13,0,0,1-13-13V111.28a13,13,0,0,1,13-13H246.41a13,13,0,0,1,13,13v17.85A13,13,0,0,1,246.41,142.12ZM138.13,100.28a11,11,0,0,0-11,11v17.85a11,11,0,0,0,11,11H246.41a11,11,0,0,0,11-11V111.28a11,11,0,0,0-11-11Z"/><path class="cls-6" d="M299.26,284.19h126a26.73,26.73,0,0,1,26.73,26.73v45.69a0,0,0,0,1,0,0H272.53a0,0,0,0,1,0,0V310.92a26.73,26.73,0,0,1,26.73-26.73Z"/><path class="cls-7" d="M452.94,357.61H271.53V310.92a27.76,27.76,0,0,1,27.73-27.73h126a27.76,27.76,0,0,1,27.73,27.73Zm-179.41-2H450.94V310.92a25.76,25.76,0,0,0-25.73-25.73h-126a25.76,25.76,0,0,0-25.73,25.73Z"/><ellipse class="cls-6" cx="359.43" cy="309.37" rx="39.82" ry="31.18"/><path class="cls-7" d="M359.42,341.55c-22.51,0-40.82-14.43-40.82-32.18s18.31-32.18,40.82-32.18,40.82,14.43,40.82,32.18S381.93,341.55,359.42,341.55Zm0-62.35c-21.4,0-38.82,13.54-38.82,30.18s17.41,30.18,38.82,30.18,38.82-13.54,38.82-30.18S380.83,279.2,359.42,279.2Z"/><rect class="cls-9" x="105.69" y="99.28" width="20.44" height="61.49" rx="7.45" ry="7.45"/><path class="cls-7" d="M118.68,161.76h-5.54a8.46,8.46,0,0,1-8.45-8.45V106.72a8.46,8.46,0,0,1,8.45-8.45h5.54a8.46,8.46,0,0,1,8.45,8.45v46.59A8.46,8.46,0,0,1,118.68,161.76Zm-5.54-61.49a6.46,6.46,0,0,0-6.45,6.45v46.59a6.46,6.46,0,0,0,6.45,6.45h5.54a6.46,6.46,0,0,0,6.45-6.45V106.72a6.46,6.46,0,0,0-6.45-6.45Z"/><path class="cls-7" d="M180.09,132.06H144.65a1,1,0,0,1,0-2h35.44a1,1,0,0,1,0,2Z"/><path class="cls-6" d="M306.07,93.39H411.46a15.13,15.13,0,0,1,15.13,15.13V270.46a38.13,38.13,0,0,1-38.13,38.13H329.07a38.13,38.13,0,0,1-38.13-38.13V108.52a15.13,15.13,0,0,1,15.13-15.13Z"/><path class="cls-7" d="M388.46,309.59H329.07a39.17,39.17,0,0,1-39.12-39.12V108.52a16.14,16.14,0,0,1,16.13-16.13H411.46a16.14,16.14,0,0,1,16.13,16.13V270.46A39.17,39.17,0,0,1,388.46,309.59ZM306.07,94.39a14.14,14.14,0,0,0-14.13,14.13V270.46a37.17,37.17,0,0,0,37.13,37.13h59.38a37.17,37.17,0,0,0,37.13-37.12V108.52a14.14,14.14,0,0,0-14.13-14.13Z"/><path class="cls-7" d="M207.07,132.06H190.5a1,1,0,0,1,0-2h16.58a1,1,0,1,1,0,2Z"/><path class="cls-8" d="M314.25,117.51h89.68A15.13,15.13,0,0,1,419,132.63V249.17a38.13,38.13,0,0,1-38.13,38.13H337.25a38.13,38.13,0,0,1-38.13-38.13V132.63A15.13,15.13,0,0,1,314.25,117.51Z"/><path class="cls-6" d="M337.8,269.72h42.57a0,0,0,0,1,0,0V306.3a15.46,15.46,0,0,1-15.46,15.46H353.26A15.46,15.46,0,0,1,337.8,306.3V269.72A0,0,0,0,1,337.8,269.72Z"/><path class="cls-7" d="M364.91,322.76H353.26A16.48,16.48,0,0,1,336.8,306.3V268.72h44.57V306.3A16.48,16.48,0,0,1,364.91,322.76Zm-26.11-52V306.3a14.48,14.48,0,0,0,14.46,14.46h11.65a14.48,14.48,0,0,0,14.46-14.46V270.72Z"/><path class="cls-6" d="M314.25,105.32h89.68A15.13,15.13,0,0,1,419,120.44V237a38.13,38.13,0,0,1-38.13,38.13H337.25A38.13,38.13,0,0,1,299.12,237V120.44A15.13,15.13,0,0,1,314.25,105.32Z"/><path class="cls-7" d="M380.92,276.1H337.25A39.17,39.17,0,0,1,298.12,237V120.44a16.14,16.14,0,0,1,16.13-16.13h89.68A16.14,16.14,0,0,1,420,120.44V237A39.17,39.17,0,0,1,380.92,276.1ZM314.25,106.32a14.14,14.14,0,0,0-14.13,14.13V237a37.17,37.17,0,0,0,37.13,37.13h43.68A37.17,37.17,0,0,0,418,237V120.44a14.14,14.14,0,0,0-14.13-14.13Z"/><path class="cls-6" d="M298.48,203.53a15.07,15.07,0,0,1,0-30.14Z"/><path class="cls-7" d="M299.48,204.53h-1a16.07,16.07,0,0,1,0-32.14h1Zm-2-30.11a14.07,14.07,0,0,0,0,28.07Z"/><rect class="cls-8" x="300.47" y="108.03" width="115.99" height="30.35" rx="11.2" ry="11.2"/><path class="cls-6" d="M419,203.53a15.07,15.07,0,0,0,0-30.14Z"/><path class="cls-7" d="M419,204.53h-1V172.39h1a16.07,16.07,0,0,1,0,32.14Zm1-30.11v28.07a14.07,14.07,0,0,0,0-28.07Z"/><rect class="cls-9" x="300.47" y="99.9" width="115.99" height="30.35" rx="11.2" ry="11.2"/><path class="cls-7" d="M405.26,131.25H311.68a12.22,12.22,0,0,1-12.2-12.2V111.1a12.22,12.22,0,0,1,12.2-12.2h93.58a12.22,12.22,0,0,1,12.2,12.2V119A12.22,12.22,0,0,1,405.26,131.25ZM311.68,100.9a10.22,10.22,0,0,0-10.2,10.2V119a10.21,10.21,0,0,0,10.2,10.2h93.58a10.21,10.21,0,0,0,10.2-10.2V111.1a10.21,10.21,0,0,0-10.2-10.2Z"/><path class="cls-7" d="M330.84,167a8.63,8.63,0,0,1-8.62-8.62,1,1,0,1,1,2,0,6.62,6.62,0,0,0,13.24,0,1,1,0,0,1,2,0A8.63,8.63,0,0,1,330.84,167Z"/><path class="cls-7" d="M391.07,167a8.63,8.63,0,0,1-8.62-8.62,1,1,0,1,1,2,0,6.62,6.62,0,0,0,13.24,0,1,1,0,0,1,2,0A8.63,8.63,0,0,1,391.07,167Z"/><path class="cls-7" d="M359.08,212.63c-5.48,0-9.94-4.08-9.94-9.1a1,1,0,0,1,2,0c0,3.92,3.56,7.1,7.94,7.1s7.94-3.19,7.94-7.1a1,1,0,0,1,2,0C369,208.55,364.57,212.63,359.08,212.63Z"/><path class="cls-7" d="M359.08,252.07c-16.28,0-29.53-7.76-29.53-17.3a1,1,0,0,1,2,0c0,8.44,12.35,15.3,27.53,15.3s27.53-6.86,27.53-15.3a1,1,0,0,1,2,0C388.61,244.3,375.37,252.07,359.08,252.07Z"/><g class="cls-4"><circle class="cls-3" cx="320.96" cy="202.63" r="12.08"/></g><g class="cls-4"><circle class="cls-3" cx="397.04" cy="202.63" r="12.08"/></g><path class="cls-7" d="M320.84,124.27a1,1,0,0,1-1-1V107.35a1,1,0,1,1,2,0v15.92A1,1,0,0,1,320.84,124.27Z"/><path class="cls-7" d="M358.47,124.27a1,1,0,0,1-1-1V107.35a1,1,0,1,1,2,0v15.92A1,1,0,0,1,358.47,124.27Z"/><path class="cls-7" d="M396.36,124.27a1,1,0,0,1-1-1V107.35a1,1,0,1,1,2,0v15.92A1,1,0,0,1,396.36,124.27Z"/><path class="cls-7" d="M294.12,195.72c-3.17,0-5.74-3.26-5.74-7.26s2.58-7.27,5.74-7.27a1,1,0,0,1,0,2c-2.06,0-3.74,2.36-3.74,5.27s1.68,5.26,3.74,5.26a1,1,0,0,1,0,2Z"/><path class="cls-7" d="M422.86,195.72a1,1,0,0,1,0-2c2.06,0,3.74-2.36,3.74-5.26s-1.68-5.27-3.74-5.27a1,1,0,0,1,0-2c3.17,0,5.74,3.26,5.74,7.27S426,195.72,422.86,195.72Z"/></svg>