<svg id="Layer_1" data-name="Layer 1" xmlns="http://www.w3.org/2000/svg" viewBox="0 0 550 450"><defs><style>.cls-1{opacity:0.18;}.cls-2{fill:#e5e5e5;}.cls-3{opacity:0.42;}.cls-4{opacity:0.5;}.cls-5{fill:#e9e9e9;}.cls-6{fill:#8a8e91;}.cls-7{fill:#f5f5f5;}.cls-8{fill:#d0dbf7;}.cls-9{fill:#dae2f7;}</style></defs><title>1_</title><g class="cls-1"><circle class="cls-2" cx="288" cy="224.5" r="186.5"/></g><g class="cls-3"><circle class="cls-2" cx="287.78" cy="224.28" r="161.19"/></g><g class="cls-4"><circle class="cls-2" cx="287.78" cy="224.28" r="141.51"/></g><circle class="cls-5" cx="91" cy="94" r="2.5"/><circle class="cls-5" cx="193.82" cy="51.65" r="2.5"/><circle class="cls-5" cx="51.1" cy="168.12" r="2.5"/><circle class="cls-5" cx="234.54" cy="116.72" r="2.5"/><circle class="cls-5" cx="314.58" cy="49.82" r="2.5"/><circle class="cls-5" cx="85.3" cy="304.5" r="2.5" transform="translate(-172.97 122.03) rotate(-39.11)"/><circle class="cls-5" cx="68.24" cy="380.87" r="2.5" transform="translate(-224.97 128.38) rotate(-39.11)"/><circle class="cls-5" cx="459.76" cy="42.26" r="2.5" transform="translate(1.86 101.39) rotate(-12.61)"/><circle class="cls-5" cx="437" cy="123.3" r="2.5" transform="translate(-16.38 98.37) rotate(-12.61)"/><circle class="cls-5" cx="509.72" cy="224.5" r="2.5" transform="translate(-36.72 116.69) rotate(-12.61)"/><circle class="cls-5" cx="508.4" cy="347.14" r="2.5" transform="translate(-63.52 119.36) rotate(-12.61)"/><circle class="cls-5" cx="51.1" cy="65.59" r="0.81"/><circle class="cls-5" cx="105.19" cy="120.88" r="0.81"/><circle class="cls-5" cx="43.14" cy="101.4" r="0.81"/><circle class="cls-5" cx="82.19" cy="121.88" r="0.81"/><circle class="cls-5" cx="36.51" cy="145.53" r="0.81"/><circle class="cls-5" cx="93.08" cy="168.93" r="0.81"/><circle class="cls-5" cx="26.03" cy="190.42" r="0.81"/><circle class="cls-5" cx="67.01" cy="201.62" r="0.81"/><circle class="cls-5" cx="37.87" cy="220.79" r="0.81"/><circle class="cls-5" cx="80.4" cy="241.08" r="0.81"/><circle class="cls-5" cx="27.63" cy="273.35" r="0.81"/><circle class="cls-5" cx="59.79" cy="305.08" r="0.81"/><circle class="cls-5" cx="32.48" cy="320.22" r="0.81"/><circle class="cls-5" cx="77.91" cy="350.75" r="0.81"/><circle class="cls-5" cx="26.86" cy="384.63" r="0.81"/><circle class="cls-5" cx="189.35" cy="21.27" r="0.81" transform="translate(26.03 119.4) rotate(-37.41)"/><circle class="cls-5" cx="156.08" cy="36.7" r="0.81" transform="translate(9.8 102.36) rotate(-37.41)"/><circle class="cls-5" cx="117" cy="58.24" r="0.81" transform="translate(-11.32 83.06) rotate(-37.41)"/><circle class="cls-5" cx="529.25" cy="64.79" r="0.81"/><circle class="cls-5" cx="506.25" cy="65.79" r="0.81"/><circle class="cls-5" cx="526" cy="104.67" r="0.81"/><circle class="cls-5" cx="460.57" cy="89.44" r="0.81"/><circle class="cls-5" cx="423.83" cy="45.57" r="0.81"/><circle class="cls-5" cx="401" cy="20.46" r="0.81"/><circle class="cls-5" cx="372.17" cy="38" r="0.81"/><circle class="cls-5" cx="335.81" cy="14.17" r="0.81"/><circle class="cls-5" cx="252" cy="32.5" r="0.81"/><circle class="cls-5" cx="284.17" cy="17.67" r="0.81"/><circle class="cls-5" cx="510" cy="139.33" r="0.81"/><circle class="cls-5" cx="490.17" cy="182" r="0.81"/><circle class="cls-5" cx="537.88" cy="214.12" r="0.81"/><circle class="cls-5" cx="515.5" cy="250.75" r="0.81"/><circle class="cls-5" cx="535.56" cy="271.75" r="0.81"/><circle class="cls-5" cx="526.55" cy="302.78" r="0.81" transform="translate(135.78 767.78) rotate(-79.86)"/><circle class="cls-5" cx="532.86" cy="334.76" r="0.81" transform="translate(109.49 800.34) rotate(-79.86)"/><circle class="cls-5" cx="513.52" cy="384.69" r="0.81" transform="translate(44.41 822.44) rotate(-79.86)"/><path class="cls-5" d="M89.62,42.79h-1v-1a1,1,0,0,0-2,0v1h-1a1,1,0,0,0,0,2h1v1a1,1,0,0,0,2,0v-1h1a1,1,0,0,0,0-2Z"/><path class="cls-5" d="M484,113.22h-1v-1a1,1,0,1,0-2,0v1h-1a1,1,0,0,0,0,2h1v1a1,1,0,0,0,2,0v-1h1a1,1,0,0,0,0-2Z"/><path class="cls-5" d="M55.63,250.56h-1v-1a1,1,0,1,0-2,0v1h-1a1,1,0,0,0,0,2h1v1a1,1,0,0,0,2,0v-1h1a1,1,0,0,0,0-2Z"/><path class="cls-5" d="M318.06,24.11h-1v-1a1,1,0,0,0-2,0v1h-1a1,1,0,0,0,0,2h1v1a1,1,0,1,0,2,0v-1h1a1,1,0,0,0,0-2Z"/><path class="cls-5" d="M524.44,180.19h-1v-1a1,1,0,0,0-2,0v1h-1a1,1,0,0,0,0,2h1v1a1,1,0,1,0,2,0v-1h1a1,1,0,0,0,0-2Z"/><path class="cls-5" d="M495,321.45h-1v-1a1,1,0,0,0-2,0v1h-1a1,1,0,0,0,0,2h1v1a1,1,0,0,0,2,0v-1h1a1,1,0,0,0,0-2Z"/><path class="cls-5" d="M79.14,149.37h-1v-1a1,1,0,0,0-2,0v1h-1a1,1,0,1,0,0,2h1v1a1,1,0,0,0,2,0v-1h1a1,1,0,1,0,0-2Z"/><path class="cls-5" d="M30.47,357.5h-1v-1a1,1,0,0,0-2,0v1h-1a1,1,0,1,0,0,2h1v1a1,1,0,0,0,2,0v-1h1a1,1,0,1,0,0-2Z"/><path class="cls-6" d="M276.22,146.25a1,1,0,0,1-.45-1.89l5-2.5a1,1,0,1,1,.89,1.79l-5,2.5A1,1,0,0,1,276.22,146.25Z"/><path class="cls-7" d="M424.38,355.15l-298.51.34a15.73,15.73,0,0,1-15.71-15.65L110,227.63a15.73,15.73,0,0,1,15.65-15.71l298.51-.34a15.73,15.73,0,0,1,15.71,15.65l.19,112.2A15.73,15.73,0,0,1,424.38,355.15Z"/><path class="cls-6" d="M125.85,356.48a16.7,16.7,0,0,1-16.68-16.65L109,227.63a16.7,16.7,0,0,1,16.65-16.71l298.51-.34h0a16.7,16.7,0,0,1,16.68,16.65l.19,112.2a16.7,16.7,0,0,1-16.65,16.71h0l-298.51.34Zm298.53-1.34h0Zm-.22-142.56h0l-298.51.34A14.7,14.7,0,0,0,111,227.63l.19,112.2a14.7,14.7,0,0,0,14.68,14.66h0l298.51-.34h0A14.7,14.7,0,0,0,439,339.44l-.19-112.2A14.7,14.7,0,0,0,424.17,212.58Z"/><path class="cls-8" d="M156.39,340.82a5.23,5.23,0,0,0,5.23,5.22l252.89-.27c7.2,0,13.08-6.15,13.06-13.65l-.17-97.51c0-7.5-5.91-13.62-13.11-13.61l-252.88,0a5.23,5.23,0,0,0-5.23,5.24Z"/><path class="cls-6" d="M161.62,347a6.23,6.23,0,0,1-6.23-6.22l-.19-114.55a6.23,6.23,0,0,1,6.23-6.24l252.88,0h0c7.76,0,14.07,6.55,14.09,14.6l.17,97.51c0,8.07-6.29,14.64-14.06,14.65L161.63,347Zm252.7-125h0l-252.88,0a4.23,4.23,0,0,0-4.23,4.23l.19,114.55a4.23,4.23,0,0,0,4.23,4.22h0l252.89-.27a12.38,12.38,0,0,0,12.06-12.65l-.17-97.51A12.38,12.38,0,0,0,414.32,222Z"/><path class="cls-7" d="M147.25,340.82a5.23,5.23,0,0,0,5.23,5.22l252.89-.27c7.2,0,13.08-6.15,13.06-13.65l-.17-97.51c0-7.5-5.91-13.62-13.11-13.61l-252.88,0a5.23,5.23,0,0,0-5.23,5.24Z"/><path class="cls-6" d="M152.47,347a6.23,6.23,0,0,1-6.23-6.22l-.19-114.55a6.23,6.23,0,0,1,6.23-6.24l252.88,0h0c7.76,0,14.07,6.55,14.09,14.6l.17,97.51c0,8.07-6.29,14.64-14.06,14.65L152.48,347Zm252.7-125h0l-252.88,0a4.23,4.23,0,0,0-4.23,4.23l.19,114.55a4.23,4.23,0,0,0,4.23,4.22h0l252.89-.27a12.38,12.38,0,0,0,12.06-12.65l-.17-97.51A12.38,12.38,0,0,0,405.18,222Z"/><path class="cls-6" d="M123.45,356.3c-5.63,0-14.27-7.34-14.28-13.71v-3.66c0-5.68,5.28-10.3,11.79-10.32h4.28c6.5,0,11.79,4.6,11.8,10.27v3.66a1,1,0,0,1-1,1h0a1,1,0,0,1-1-1v-3.66c0-4.57-4.4-8.28-9.8-8.28H121c-5.41,0-9.8,3.74-9.79,8.31v3.66c0,4.46,6.86,11.71,12.27,11.71h0a1,1,0,0,1,0,2Z"/><path class="cls-6" d="M136.05,345.66a1,1,0,0,1-1-1L134.86,234a1,1,0,0,1,1-1h0a1,1,0,0,1,1,1l.19,110.67a1,1,0,0,1-1,1Z"/><path class="cls-6" d="M178.12,270.35v-1.74a1.32,1.32,0,0,0-1.19-1.31,13.11,13.11,0,0,1-4.29-1.19,1.32,1.32,0,0,1-.66-1.63l.13-.36a1.31,1.31,0,0,1,1.8-.74,11.41,11.41,0,0,0,4.84,1.11c3,0,5.06-1.74,5.06-4.17s-1.66-3.78-4.8-5.06c-4.33-1.7-7-3.66-7-7.35,0-3.22,2.09-5.74,5.43-6.63a1.32,1.32,0,0,0,1-1.27v-1.92a1.32,1.32,0,0,1,1.32-1.32h0a1.32,1.32,0,0,1,1.32,1.32v1.58a1.32,1.32,0,0,0,1.18,1.31,11.36,11.36,0,0,1,3.23.84,1.31,1.31,0,0,1,.7,1.67l-.13.33a1.31,1.31,0,0,1-1.74.75,10.3,10.3,0,0,0-4.13-.83c-3.27,0-4.51,2-4.51,3.66,0,2.21,1.57,3.32,5.27,4.85,4.38,1.79,6.59,4,6.59,7.78a7.25,7.25,0,0,1-5.74,7,1.31,1.31,0,0,0-1,1.27v2a1.32,1.32,0,0,1-1.32,1.32h0A1.32,1.32,0,0,1,178.12,270.35Z"/><path class="cls-7" d="M110,231.72l0-13.47a10.84,10.84,0,0,1,10.79-10.83H125a10.84,10.84,0,0,1,10.83,10.79v4.26"/><path class="cls-6" d="M110,232.72a1,1,0,0,1-1-1l0-13.47a11.84,11.84,0,0,1,11.79-11.83H125a11.82,11.82,0,0,1,11.81,11.79v4.26a1,1,0,0,1-1,1h0a1,1,0,0,1-1-1v-4.26a9.82,9.82,0,0,0-9.81-9.79h-4.27a9.84,9.84,0,0,0-9.79,9.82l0,13.47a1,1,0,0,1-1,1Z"/><path class="cls-6" d="M135.86,236.17a1,1,0,0,1-1-1l0-14.11a1,1,0,0,1,1-1h0a1,1,0,0,1,1,1l0,14.11a1,1,0,0,1-1,1Z"/><rect class="cls-8" x="211.22" y="243.28" width="95.72" height="25.23" rx="2.44" ry="2.44"/><path class="cls-6" d="M304.5,269.52H213.66a3.44,3.44,0,0,1-3.44-3.44V245.72a3.44,3.44,0,0,1,3.44-3.44H304.5a3.44,3.44,0,0,1,3.44,3.44v20.36A3.44,3.44,0,0,1,304.5,269.52Zm-90.84-25.23a1.44,1.44,0,0,0-1.44,1.44v20.36a1.44,1.44,0,0,0,1.44,1.44H304.5a1.44,1.44,0,0,0,1.44-1.44V245.72a1.44,1.44,0,0,0-1.44-1.44Z"/><path class="cls-6" d="M383.7,284.53H171.91a1,1,0,0,1,0-2H383.7a1,1,0,1,1,0,2Z"/><path class="cls-6" d="M281,303.12H172.38a1,1,0,1,1,0-2H281a1,1,0,0,1,0,2Z"/><path class="cls-6" d="M233.34,324.47h-62a1,1,0,1,1,0-2h62a1,1,0,1,1,0,2Z"/><path class="cls-6" d="M383.7,324.47h-62a1,1,0,0,1,0-2h62a1,1,0,0,1,0,2Z"/><path class="cls-9" d="M320,212.74l15.27,27,3.55,18,11.29,13-4.73,3.41a4.29,4.29,0,0,1-5.72-.62l-11.36-12.72a4.29,4.29,0,0,1-1.09-2.91l.17-13.19a4.29,4.29,0,0,0-.37-1.81L321,229.38h0a4.08,4.08,0,0,1-5.31-2.2l-6.13-14.45"/><path class="cls-7" d="M321.93,192h9.91a0,0,0,0,1,0,0v50.24a.13.13,0,0,1-.13.13h-9.79a.13.13,0,0,1-.13-.13V192.17a.13.13,0,0,1,.13-.13Z" transform="translate(-58.1 140.82) rotate(-22.38)"/><path class="cls-6" d="M331.84,243.39a1.13,1.13,0,0,1-1-.69L311.56,196l.32-.86.45-.23,10.09-4.16,19.51,47.38a1.13,1.13,0,0,1-.61,1.47h0l-9.05,3.73A1.13,1.13,0,0,1,331.84,243.39Zm-17.95-47,18.42,44.72,7.44-3.06-18.42-44.72Zm27,42.25h0Zm-27.85-41.92h0Z"/><path class="cls-8" d="M310.75,172.89H327a0,0,0,0,1,0,0v50.24a.13.13,0,0,1-.13.13H310.75a.13.13,0,0,1-.13-.13V173A.13.13,0,0,1,310.75,172.89Z" transform="translate(-51.41 136.33) rotate(-22.38)"/><path class="cls-6" d="M320.95,225.52l-.48-.16a1.12,1.12,0,0,1-.61-.61L300.62,178l.32-.86.45-.23,16-6.58,19.51,47.38a1.13,1.13,0,0,1-.61,1.47h0Zm-.38-2h0ZM303,178.46l18.42,44.72,13.33-5.49L316.28,173Zm32.08,40h0Z"/><path class="cls-7" d="M313.16,183.46h0c-5.83,2.4-12.24.41-14.23-4.43l-26.4-71.61c-2-4.84-1.5-9.67,4.34-12.08h0c5.83-2.4,9.59.68,11.58,5.52l31.69,69.43C322.14,175.14,319,181.06,313.16,183.46Z"/><path class="cls-6" d="M308.1,185.49c-4.49,0-8.51-2.23-10.09-6.07L271.6,107.76a11.53,11.53,0,0,1-.79-7.57c.74-2.58,2.65-4.53,5.68-5.77,5.65-2.32,10.34-.12,12.89,6.06l31.68,69.4a9.71,9.71,0,0,1-.58,8.38,13.67,13.67,0,0,1-6.93,6.13A14.33,14.33,0,0,1,308.1,185.49Zm-27.43-90a9,9,0,0,0-3.42.75c-2.44,1-4,2.51-4.52,4.47a9.78,9.78,0,0,0,.73,6.3l26.41,71.65c1.78,4.31,7.57,6,12.91,3.85a11.67,11.67,0,0,0,5.92-5.21,7.74,7.74,0,0,0,.51-6.65l-31.68-69.4C286.38,98.44,284.3,95.52,280.67,95.52Z"/><path class="cls-7" d="M331.94,242.36l.14,11.72a4.29,4.29,0,0,0,1.23,3l13.23,13.47a1.67,1.67,0,0,0,2.86-1.18l-.09-19.06a4.29,4.29,0,0,0-1-2.74l-7.42-8.86Z"/><path class="cls-6" d="M347.73,272a2.66,2.66,0,0,1-1.9-.8l-13.23-13.47a5.26,5.26,0,0,1-1.52-3.64l-.15-12.4,10.25-4.22,7.89,9.42a5.31,5.31,0,0,1,1.24,3.38l.09,19.06a2.66,2.66,0,0,1-1.65,2.48A2.69,2.69,0,0,1,347.73,272Zm-14.78-29,.13,11a3.28,3.28,0,0,0,.94,2.27l13.23,13.47a.67.67,0,0,0,1.15-.47l-.09-19.06a3.3,3.3,0,0,0-.77-2.1l-6.95-8.29Z"/><path class="cls-6" d="M343.59,260.19a1,1,0,0,1-.92-.62l-4.91-11.91a1,1,0,1,1,1.85-.76l4.91,11.91a1,1,0,0,1-.92,1.38Z"/><path class="cls-6" d="M300,152.3a1,1,0,0,1-.92-.62l-17.24-41.86a1,1,0,0,1,1.85-.76l17.24,41.86a1,1,0,0,1-.92,1.38Z"/><path class="cls-6" d="M274,129.61a1,1,0,0,1-.44-1.9l5.4-2.65a1,1,0,1,1,.88,1.79l-5.4,2.65A1,1,0,0,1,274,129.61Z"/><rect class="cls-8" x="269.74" y="105.45" width="5.15" height="59.96" rx="2.57" ry="2.57" transform="translate(-30.41 106.22) rotate(-20.93)"/><path class="cls-6" d="M282.11,164.6a3.59,3.59,0,0,1-3.34-2.3l-19.58-51.19a3.57,3.57,0,1,1,6.68-2.55l19.58,51.19a3.58,3.58,0,0,1-3.33,4.85Zm-19.59-56.34a1.57,1.57,0,0,0-1.47,2.14l19.58,51.19a1.58,1.58,0,0,0,2,.91h0a1.58,1.58,0,0,0,.91-2L264,109.27A1.58,1.58,0,0,0,262.52,108.26Z"/></svg>