<svg id="Layer_1" data-name="Layer 1" xmlns="http://www.w3.org/2000/svg" viewBox="0 0 550 450"><defs><style>.cls-1{fill:#e9e9e9;}.cls-2{opacity:0.18;}.cls-3{fill:#e5e5e5;}.cls-4{opacity:0.42;}.cls-5{opacity:0.5;}.cls-6{fill:#f5f5f5;}.cls-7{fill:#8a8e91;}.cls-8{fill:#d0dbf7;}.cls-9{fill:#dae2f7;}</style></defs><title>1_</title><circle class="cls-1" cx="91" cy="94" r="2.5"/><circle class="cls-1" cx="193.82" cy="51.65" r="2.5"/><circle class="cls-1" cx="51.1" cy="168.12" r="2.5"/><circle class="cls-1" cx="314.58" cy="49.82" r="2.5"/><circle class="cls-1" cx="85.3" cy="304.5" r="2.5" transform="translate(-172.97 122.03) rotate(-39.11)"/><circle class="cls-1" cx="68.24" cy="380.87" r="2.5" transform="translate(-224.97 128.38) rotate(-39.11)"/><circle class="cls-1" cx="459.76" cy="42.26" r="2.5" transform="translate(1.86 101.39) rotate(-12.61)"/><circle class="cls-1" cx="509.72" cy="224.5" r="2.5" transform="translate(-36.72 116.69) rotate(-12.61)"/><circle class="cls-1" cx="508.4" cy="347.14" r="2.5" transform="translate(-63.52 119.36) rotate(-12.61)"/><circle class="cls-1" cx="51.1" cy="65.59" r="0.81"/><circle class="cls-1" cx="105.19" cy="120.88" r="0.81"/><circle class="cls-1" cx="43.14" cy="101.4" r="0.81"/><circle class="cls-1" cx="82.19" cy="121.88" r="0.81"/><circle class="cls-1" cx="36.51" cy="145.53" r="0.81"/><circle class="cls-1" cx="93.08" cy="168.93" r="0.81"/><circle class="cls-1" cx="26.03" cy="190.42" r="0.81"/><circle class="cls-1" cx="67.01" cy="201.62" r="0.81"/><circle class="cls-1" cx="37.87" cy="220.79" r="0.81"/><circle class="cls-1" cx="80.4" cy="241.08" r="0.81"/><circle class="cls-1" cx="27.63" cy="273.35" r="0.81"/><circle class="cls-1" cx="59.79" cy="305.08" r="0.81"/><circle class="cls-1" cx="32.48" cy="320.22" r="0.81"/><circle class="cls-1" cx="77.91" cy="350.75" r="0.81"/><circle class="cls-1" cx="26.86" cy="384.63" r="0.81"/><circle class="cls-1" cx="189.35" cy="21.27" r="0.81" transform="translate(26.03 119.4) rotate(-37.41)"/><circle class="cls-1" cx="156.08" cy="36.7" r="0.81" transform="translate(9.8 102.36) rotate(-37.41)"/><circle class="cls-1" cx="117" cy="58.24" r="0.81" transform="translate(-11.32 83.06) rotate(-37.41)"/><circle class="cls-1" cx="529.25" cy="64.79" r="0.81"/><circle class="cls-1" cx="506.25" cy="65.79" r="0.81"/><circle class="cls-1" cx="526" cy="104.67" r="0.81"/><circle class="cls-1" cx="460.57" cy="89.44" r="0.81"/><circle class="cls-1" cx="423.83" cy="45.57" r="0.81"/><circle class="cls-1" cx="401" cy="20.46" r="0.81"/><circle class="cls-1" cx="372.17" cy="38" r="0.81"/><circle class="cls-1" cx="335.81" cy="14.17" r="0.81"/><circle class="cls-1" cx="252" cy="32.5" r="0.81"/><circle class="cls-1" cx="284.17" cy="17.67" r="0.81"/><circle class="cls-1" cx="510" cy="139.33" r="0.81"/><circle class="cls-1" cx="490.17" cy="182" r="0.81"/><circle class="cls-1" cx="537.88" cy="214.12" r="0.81"/><circle class="cls-1" cx="515.5" cy="250.75" r="0.81"/><circle class="cls-1" cx="535.56" cy="271.75" r="0.81"/><circle class="cls-1" cx="526.55" cy="302.78" r="0.81" transform="translate(135.78 767.78) rotate(-79.86)"/><circle class="cls-1" cx="532.86" cy="334.76" r="0.81" transform="translate(109.49 800.34) rotate(-79.86)"/><circle class="cls-1" cx="513.52" cy="384.69" r="0.81" transform="translate(44.41 822.44) rotate(-79.86)"/><path class="cls-1" d="M89.62,42.79h-1v-1a1,1,0,0,0-2,0v1h-1a1,1,0,0,0,0,2h1v1a1,1,0,0,0,2,0v-1h1a1,1,0,0,0,0-2Z"/><path class="cls-1" d="M484,113.22h-1v-1a1,1,0,1,0-2,0v1h-1a1,1,0,0,0,0,2h1v1a1,1,0,0,0,2,0v-1h1a1,1,0,0,0,0-2Z"/><path class="cls-1" d="M55.63,250.56h-1v-1a1,1,0,1,0-2,0v1h-1a1,1,0,0,0,0,2h1v1a1,1,0,0,0,2,0v-1h1a1,1,0,0,0,0-2Z"/><path class="cls-1" d="M318.06,24.11h-1v-1a1,1,0,0,0-2,0v1h-1a1,1,0,0,0,0,2h1v1a1,1,0,1,0,2,0v-1h1a1,1,0,0,0,0-2Z"/><path class="cls-1" d="M524.44,180.19h-1v-1a1,1,0,0,0-2,0v1h-1a1,1,0,0,0,0,2h1v1a1,1,0,1,0,2,0v-1h1a1,1,0,0,0,0-2Z"/><path class="cls-1" d="M495,321.45h-1v-1a1,1,0,0,0-2,0v1h-1a1,1,0,0,0,0,2h1v1a1,1,0,0,0,2,0v-1h1a1,1,0,0,0,0-2Z"/><path class="cls-1" d="M79.14,149.37h-1v-1a1,1,0,0,0-2,0v1h-1a1,1,0,1,0,0,2h1v1a1,1,0,0,0,2,0v-1h1a1,1,0,1,0,0-2Z"/><path class="cls-1" d="M30.47,357.5h-1v-1a1,1,0,0,0-2,0v1h-1a1,1,0,1,0,0,2h1v1a1,1,0,0,0,2,0v-1h1a1,1,0,1,0,0-2Z"/><g class="cls-2"><circle class="cls-3" cx="275" cy="225" r="186.5"/></g><g class="cls-4"><circle class="cls-3" cx="274.78" cy="224.78" r="161.19"/></g><g class="cls-5"><circle class="cls-3" cx="274.78" cy="224.78" r="141.51"/></g><circle class="cls-1" cx="218.19" cy="100.33" r="2.5"/><rect class="cls-6" x="279.16" y="107.82" width="141.75" height="73.08" rx="12" ry="12" transform="translate(0.45 289.79) rotate(-45)"/><path class="cls-7" d="M325.75,216.34a13,13,0,0,1-9.19-3.8l-34.71-34.71a13,13,0,0,1,0-18.38l83.26-83.26a13,13,0,0,1,18.38,0l34.71,34.71a13,13,0,0,1,0,18.38l-83.26,83.26A13,13,0,0,1,325.75,216.34ZM374.31,74.39a10.92,10.92,0,0,0-7.78,3.21l-83.26,83.26a11,11,0,0,0,0,15.56L318,211.12a11,11,0,0,0,15.56,0l83.26-83.26a11,11,0,0,0,0-15.56L382.09,77.6A10.92,10.92,0,0,0,374.31,74.39Z"/><rect class="cls-6" x="273.16" y="108.82" width="141.75" height="73.08" rx="12" ry="12" transform="translate(-2.02 285.84) rotate(-45)"/><path class="cls-7" d="M319.75,217.34a13,13,0,0,1-9.19-3.8l-34.71-34.71a13,13,0,0,1,0-18.38l83.26-83.26a13,13,0,0,1,18.38,0l34.71,34.71a13,13,0,0,1,0,18.38l-83.26,83.26A13,13,0,0,1,319.75,217.34ZM368.31,75.39a10.92,10.92,0,0,0-7.78,3.21l-83.26,83.26a11,11,0,0,0,0,15.56L312,212.12a11,11,0,0,0,15.56,0l83.26-83.26a11,11,0,0,0,0-15.56L376.09,78.6A10.92,10.92,0,0,0,368.31,75.39Z"/><rect class="cls-6" x="267.16" y="109.82" width="141.75" height="73.08" rx="12" ry="12" transform="translate(-4.48 281.89) rotate(-45)"/><path class="cls-7" d="M313.75,218.34a13,13,0,0,1-9.19-3.8l-34.71-34.71a13,13,0,0,1,0-18.38l83.26-83.26a13,13,0,0,1,18.38,0l34.71,34.71a13,13,0,0,1,0,18.38l-83.26,83.26A13,13,0,0,1,313.75,218.34ZM362.31,76.39a10.92,10.92,0,0,0-7.78,3.21l-83.26,83.26a11,11,0,0,0,0,15.56L306,213.12a11,11,0,0,0,15.56,0l83.26-83.26a11,11,0,0,0,0-15.56L370.09,79.6A10.92,10.92,0,0,0,362.31,76.39Z"/><rect class="cls-6" x="278.92" y="114.46" width="121.86" height="60.18" rx="12" ry="12" transform="translate(-2.67 282.64) rotate(-45)"/><path class="cls-7" d="M318,204.92a12.91,12.91,0,0,1-9.19-3.79l-25.58-25.58a13,13,0,0,1,0-18.38L352.46,88a13,13,0,0,1,18.38,0l25.58,25.59a13,13,0,0,1,0,18.38l-69.2,69.2A12.91,12.91,0,0,1,318,204.92ZM361.65,86.16a11,11,0,0,0-7.78,3.22l-69.2,69.2a11,11,0,0,0,0,15.56l25.58,25.58a11,11,0,0,0,15.56,0l69.2-69.2A11,11,0,0,0,395,115L369.43,89.38A11,11,0,0,0,361.65,86.16Z"/><path class="cls-6" d="M169.21,99.44H306.64a12,12,0,0,1,12,12v48.91a0,0,0,0,1,0,0H157.21a0,0,0,0,1,0,0V111.44A12,12,0,0,1,169.21,99.44Z"/><path class="cls-7" d="M319.64,161.35H156.21V111.44a13,13,0,0,1,13-13H306.64a13,13,0,0,1,13,13Zm-161.44-2H317.64V111.44a11,11,0,0,0-11-11H169.21a11,11,0,0,0-11,11Z"/><circle class="cls-8" cx="344.52" cy="155.77" r="19.5"/><path class="cls-7" d="M344.52,176.27a20.5,20.5,0,1,1,20.5-20.5A20.52,20.52,0,0,1,344.52,176.27Zm0-39a18.5,18.5,0,1,0,18.5,18.5A18.52,18.52,0,0,0,344.52,137.27Z"/><rect class="cls-8" x="134.82" y="152.77" width="283.33" height="223.84" rx="12" ry="12"/><path class="cls-7" d="M406.14,377.61H146.82a13,13,0,0,1-13-13V164.77a13,13,0,0,1,13-13H406.14a13,13,0,0,1,13,13V364.61A13,13,0,0,1,406.14,377.61ZM146.82,153.77a11,11,0,0,0-11,11V364.61a11,11,0,0,0,11,11H406.14a11,11,0,0,0,11-11V164.77a11,11,0,0,0-11-11Z"/><rect class="cls-6" x="122.03" y="152.77" width="283.33" height="223.84" rx="12" ry="12"/><path class="cls-7" d="M393.36,377.61H134a13,13,0,0,1-13-13V164.77a13,13,0,0,1,13-13H393.36a13,13,0,0,1,13,13V364.61A13,13,0,0,1,393.36,377.61ZM134,153.77a11,11,0,0,0-11,11V364.61a11,11,0,0,0,11,11H393.36a11,11,0,0,0,11-11V164.77a11,11,0,0,0-11-11Z"/><path class="cls-1" d="M337.56,254.29H392.2a12,12,0,0,1,12,12v26a0,0,0,0,1,0,0H337.56a12,12,0,0,1-12-12v-14A12,12,0,0,1,337.56,254.29Z"/><path class="cls-9" d="M123.14,349.32H404.2a0,0,0,0,1,0,0v14.33a12,12,0,0,1-12,12H135.14a12,12,0,0,1-12-12V349.32a0,0,0,0,1,0,0Z"/><path class="cls-7" d="M157.21,290.5a1,1,0,0,1-1-1V184.42a1,1,0,0,1,2,0V289.5A1,1,0,0,1,157.21,290.5Z"/><path class="cls-9" d="M123.14,349.32h39a0,0,0,0,1,0,0v26.33a0,0,0,0,1,0,0h-27a12,12,0,0,1-12-12V349.32A0,0,0,0,1,123.14,349.32Z"/><path class="cls-7" d="M376.69,364.41h-8a1,1,0,1,1,0-2h7.95a1,1,0,0,1,1,1A1,1,0,0,1,376.69,364.41Zm-15.94,0h-7.95a1,1,0,0,1,0-2h7.95a1,1,0,1,1,0,2Zm-15.89,0h-7.95a1,1,0,0,1,0-2h7.95a1,1,0,0,1,0,2Zm-15.89,0H321a1,1,0,0,1,0-2H329a1,1,0,0,1,0,2Zm-15.89,0h-7.95a1,1,0,0,1,0-2h7.95a1,1,0,1,1,0,2Zm-15.89,0h-7.95a1,1,0,0,1,0-2h7.95a1,1,0,1,1,0,2Zm-15.89,0h-7.95a1,1,0,0,1,0-2h7.95a1,1,0,1,1,0,2Zm-15.89,0h-7.95a1,1,0,0,1,0-2h7.95a1,1,0,1,1,0,2Zm-15.89,0h-7.95a1,1,0,0,1,0-2h7.95a1,1,0,0,1,0,2Zm-15.89,0h-7.95a1,1,0,1,1,0-2h7.95a1,1,0,0,1,0,2Zm-15.89,0h-7.95a1,1,0,1,1,0-2h7.95a1,1,0,0,1,0,2Zm-15.89,0H193.9a1,1,0,1,1,0-2h7.95a1,1,0,0,1,0,2Zm-15.89,0H178a1,1,0,1,1,0-2H186a1,1,0,0,1,0,2Zm-15.89,0h-7.95a1,1,0,1,1,0-2h7.95a1,1,0,0,1,0,2Zm-15.89,0h-3.43a12.86,12.86,0,0,1-4.78-.92,1,1,0,0,1,.74-1.86,10.88,10.88,0,0,0,4,.77h3.43a1,1,0,1,1,0,2Zm229.88-2.58a1,1,0,0,1-.62-1.79,11.1,11.1,0,0,0,3.89-6,1,1,0,1,1,1.94.48,13.11,13.11,0,0,1-4.59,7.09A1,1,0,0,1,384.05,361.83Zm-243.65-3.34a1,1,0,0,1-.86-.49,13,13,0,0,1-1.8-6.59v-1.57a1,1,0,0,1,2,0v1.57a10.94,10.94,0,0,0,1.52,5.57,1,1,0,0,1-.86,1.51Zm248.24-11.12a1,1,0,0,1-1-1v-7.95a1,1,0,0,1,2,0v7.95A1,1,0,0,1,388.64,347.37Zm-249.9-4.47a1,1,0,0,1-1-1V334a1,1,0,0,1,2,0v7.95A1,1,0,0,1,138.74,342.9Zm249.9-11.42a1,1,0,0,1-1-1v-7.95a1,1,0,0,1,2,0v7.95A1,1,0,0,1,388.64,331.48ZM138.74,327a1,1,0,0,1-1-1v-7.95a1,1,0,0,1,2,0V326A1,1,0,0,1,138.74,327Zm249.9-11.42a1,1,0,0,1-1-1v-7.95a1,1,0,0,1,2,0v7.95A1,1,0,0,1,388.64,315.58Zm-249.9-4.47a1,1,0,0,1-1-1v-7.95a1,1,0,0,1,2,0v7.95A1,1,0,0,1,138.74,311.11Zm249.9-11.42a1,1,0,0,1-1-1v-7.95a1,1,0,0,1,2,0v7.95A1,1,0,0,1,388.64,299.69Zm-249.9-4.47a1,1,0,0,1-1-1v-7.95a1,1,0,0,1,2,0v7.95A1,1,0,0,1,138.74,295.22Zm249.9-11.42a1,1,0,0,1-1-1v-7.95a1,1,0,0,1,2,0v7.95A1,1,0,0,1,388.64,283.8Zm-249.9-4.47a1,1,0,0,1-1-1v-7.95a1,1,0,0,1,2,0v7.95A1,1,0,0,1,138.74,279.33Zm249.9-11.42a1,1,0,0,1-1-1V259a1,1,0,0,1,2,0v7.95A1,1,0,0,1,388.64,267.91Zm-249.9-4.47a1,1,0,0,1-1-1v-7.95a1,1,0,0,1,2,0v7.95A1,1,0,0,1,138.74,263.44ZM388.64,252a1,1,0,0,1-1-1v-7.95a1,1,0,0,1,2,0V251A1,1,0,0,1,388.64,252Zm-249.9-4.47a1,1,0,0,1-1-1V238.6a1,1,0,0,1,2,0v7.95A1,1,0,0,1,138.74,247.55Zm249.9-11.42a1,1,0,0,1-1-1v-7.95a1,1,0,0,1,2,0v7.95A1,1,0,0,1,388.64,236.13Zm-249.9-4.47a1,1,0,0,1-1-1v-7.95a1,1,0,0,1,2,0v7.95A1,1,0,0,1,138.74,231.66Zm249.9-11.42a1,1,0,0,1-1-1v-7.95a1,1,0,0,1,2,0v7.95A1,1,0,0,1,388.64,220.24Zm-249.9-4.47a1,1,0,0,1-1-1v-7.95a1,1,0,0,1,2,0v7.95A1,1,0,0,1,138.74,215.77Zm249.9-11.42a1,1,0,0,1-1-1V195.4a1,1,0,0,1,2,0v7.95A1,1,0,0,1,388.64,204.35Zm-249.9-4.47a1,1,0,0,1-1-1v-7.95a1,1,0,0,1,2,0v7.95A1,1,0,0,1,138.74,199.88Zm249.9-11.42a1,1,0,0,1-1-1v-7.95a1,1,0,0,1,2,0v7.95A1,1,0,0,1,388.64,188.46ZM138.74,184a1,1,0,0,1-1-1v-5a12.94,12.94,0,0,1,.39-3.14,1,1,0,0,1,1.94.49,11,11,0,0,0-.33,2.66v5A1,1,0,0,1,138.74,184ZM387,172.87a1,1,0,0,1-.86-.49,11.15,11.15,0,0,0-5.44-4.65,1,1,0,1,1,.74-1.86,13.16,13.16,0,0,1,6.43,5.48,1,1,0,0,1-.86,1.51Zm-243.62-3.34a1,1,0,0,1-.62-1.79,12.84,12.84,0,0,1,8-2.78h0a1,1,0,0,1,0,2,10.85,10.85,0,0,0-6.75,2.35A1,1,0,0,1,143.35,169.53ZM373.19,167h-7.95a1,1,0,1,1,0-2h7.95a1,1,0,0,1,0,2Zm-15.89,0h-7.95a1,1,0,0,1,0-2h7.95a1,1,0,0,1,0,2Zm-15.89,0h-7.95a1,1,0,0,1,0-2h7.95a1,1,0,0,1,0,2Zm-15.89,0h-7.95a1,1,0,0,1,0-2h7.95a1,1,0,0,1,0,2Zm-15.89,0h-7.95a1,1,0,0,1,0-2h7.95a1,1,0,0,1,0,2Zm-15.89,0h-7.95a1,1,0,0,1,0-2h7.95a1,1,0,0,1,0,2Zm-15.89,0H269.9a1,1,0,0,1,0-2h7.95a1,1,0,0,1,0,2ZM262,167H254a1,1,0,0,1,0-2H262a1,1,0,0,1,0,2Zm-15.89,0h-7.95a1,1,0,0,1,0-2h7.95a1,1,0,1,1,0,2Zm-15.89,0h-7.95a1,1,0,0,1,0-2h7.95a1,1,0,1,1,0,2Zm-15.89,0h-7.95a1,1,0,0,1,0-2h7.95a1,1,0,0,1,0,2Zm-15.89,0h-7.95a1,1,0,0,1,0-2h7.95a1,1,0,0,1,0,2Zm-15.89,0h-7.95a1,1,0,0,1,0-2h7.95a1,1,0,0,1,0,2Zm-15.89,0h-7.95a1,1,0,0,1,0-2h7.95a1,1,0,0,1,0,2Z"/><rect class="cls-6" x="325.56" y="247.96" width="102.41" height="37.99" rx="12" ry="12"/><path class="cls-7" d="M416,286.94H337.56a13,13,0,0,1-13-13V260a13,13,0,0,1,13-13H416a13,13,0,0,1,13,13v14A13,13,0,0,1,416,286.94Zm-78.41-38a11,11,0,0,0-11,11v14a11,11,0,0,0,11,11H416a11,11,0,0,0,11-11V260a11,11,0,0,0-11-11Z"/><circle class="cls-6" cx="343.14" cy="266.95" r="9.41"/><path class="cls-7" d="M343.14,277.36a10.41,10.41,0,1,1,10.41-10.41A10.42,10.42,0,0,1,343.14,277.36Zm0-18.82a8.41,8.41,0,1,0,8.41,8.41A8.42,8.42,0,0,0,343.14,258.54Z"/><circle class="cls-6" cx="343.14" cy="266.95" r="3.38"/><path class="cls-7" d="M343.14,271.33a4.38,4.38,0,1,1,4.38-4.38A4.38,4.38,0,0,1,343.14,271.33Zm0-6.76a2.38,2.38,0,1,0,2.38,2.38A2.38,2.38,0,0,0,343.14,264.57Z"/><path class="cls-7" d="M157.21,327.5a1,1,0,0,1-1-1V303.83a1,1,0,0,1,2,0V326.5A1,1,0,0,1,157.21,327.5Z"/><rect class="cls-8" x="167.33" y="126.94" width="12.62" height="10.23" rx="4.16" ry="4.16"/><path class="cls-7" d="M175.8,138.17h-4.31a5.16,5.16,0,0,1-5.16-5.16V131.1a5.16,5.16,0,0,1,5.16-5.16h4.31A5.16,5.16,0,0,1,181,131.1V133A5.16,5.16,0,0,1,175.8,138.17Zm-4.31-10.23a3.16,3.16,0,0,0-3.16,3.16V133a3.16,3.16,0,0,0,3.16,3.16h4.31A3.16,3.16,0,0,0,179,133V131.1a3.16,3.16,0,0,0-3.16-3.16Z"/><path class="cls-7" d="M187.89,147.36h-20.5a1,1,0,1,1,0-2h20.5a1,1,0,0,1,0,2Z"/><path class="cls-7" d="M220.69,147.36h-20.5a1,1,0,0,1,0-2h20.5a1,1,0,1,1,0,2Z"/><path class="cls-7" d="M254.89,147.36h-20.5a1,1,0,1,1,0-2h20.5a1,1,0,0,1,0,2Z"/><rect class="cls-8" x="157.21" y="111.44" width="161.44" height="9.5"/><path class="cls-7" d="M319.64,121.95H156.21v-11.5H319.64Zm-161.44-2H317.64v-7.5H158.21Z"/><ellipse class="cls-8" cx="361.88" cy="92.85" rx="7.92" ry="7.55"/><path class="cls-7" d="M361.88,101.41a8.56,8.56,0,1,1,8.92-8.55A8.75,8.75,0,0,1,361.88,101.41Zm0-15.1a6.56,6.56,0,1,0,6.92,6.55A6.75,6.75,0,0,0,361.88,86.3Z"/><ellipse class="cls-8" cx="391.38" cy="122.35" rx="7.92" ry="7.55"/><path class="cls-7" d="M391.38,130.9a8.56,8.56,0,1,1,8.92-8.55A8.75,8.75,0,0,1,391.38,130.9Zm0-15.1a6.56,6.56,0,1,0,6.92,6.55A6.75,6.75,0,0,0,391.38,115.79Z"/></svg>