<svg id="Layer_1" data-name="Layer 1" xmlns="http://www.w3.org/2000/svg" viewBox="0 0 550 450"><defs><style>.cls-1{opacity:0.18;}.cls-2{fill:#e5e5e5;}.cls-3{opacity:0.42;}.cls-4{opacity:0.5;}.cls-5{fill:#e9e9e9;}.cls-6{fill:#f5f5f5;}.cls-7{fill:#8a8e91;}.cls-8{fill:#d0dbf7;}.cls-9{fill:#dae2f7;}</style></defs><title>1_</title><g class="cls-1"><circle class="cls-2" cx="288" cy="224.5" r="186.5"/></g><g class="cls-3"><circle class="cls-2" cx="287.78" cy="224.28" r="161.19"/></g><g class="cls-4"><circle class="cls-2" cx="287.78" cy="224.28" r="141.51"/></g><circle class="cls-5" cx="91" cy="94" r="2.5"/><circle class="cls-5" cx="193.82" cy="51.65" r="2.5"/><circle class="cls-5" cx="51.1" cy="168.12" r="2.5"/><circle class="cls-5" cx="234.54" cy="116.72" r="2.5"/><circle class="cls-5" cx="314.58" cy="49.82" r="2.5"/><circle class="cls-5" cx="85.3" cy="304.5" r="2.5" transform="translate(-172.97 122.03) rotate(-39.11)"/><circle class="cls-5" cx="68.24" cy="380.87" r="2.5" transform="translate(-224.97 128.38) rotate(-39.11)"/><circle class="cls-5" cx="459.76" cy="42.26" r="2.5" transform="translate(1.86 101.39) rotate(-12.61)"/><circle class="cls-5" cx="437" cy="123.3" r="2.5" transform="translate(-16.38 98.37) rotate(-12.61)"/><circle class="cls-5" cx="509.72" cy="224.5" r="2.5" transform="translate(-36.72 116.69) rotate(-12.61)"/><circle class="cls-5" cx="508.4" cy="347.14" r="2.5" transform="translate(-63.52 119.36) rotate(-12.61)"/><circle class="cls-5" cx="51.1" cy="65.59" r="0.81"/><circle class="cls-5" cx="105.19" cy="120.88" r="0.81"/><circle class="cls-5" cx="43.14" cy="101.4" r="0.81"/><circle class="cls-5" cx="82.19" cy="121.88" r="0.81"/><circle class="cls-5" cx="36.51" cy="145.53" r="0.81"/><circle class="cls-5" cx="93.08" cy="168.93" r="0.81"/><circle class="cls-5" cx="26.03" cy="190.42" r="0.81"/><circle class="cls-5" cx="67.01" cy="201.62" r="0.81"/><circle class="cls-5" cx="37.87" cy="220.79" r="0.81"/><circle class="cls-5" cx="80.4" cy="241.08" r="0.81"/><circle class="cls-5" cx="27.63" cy="273.35" r="0.81"/><circle class="cls-5" cx="59.79" cy="305.08" r="0.81"/><circle class="cls-5" cx="32.48" cy="320.22" r="0.81"/><circle class="cls-5" cx="77.91" cy="350.75" r="0.81"/><circle class="cls-5" cx="26.86" cy="384.63" r="0.81"/><circle class="cls-5" cx="189.35" cy="21.27" r="0.81" transform="translate(26.03 119.4) rotate(-37.41)"/><circle class="cls-5" cx="156.08" cy="36.7" r="0.81" transform="translate(9.8 102.36) rotate(-37.41)"/><circle class="cls-5" cx="117" cy="58.24" r="0.81" transform="translate(-11.32 83.06) rotate(-37.41)"/><circle class="cls-5" cx="529.25" cy="64.79" r="0.81"/><circle class="cls-5" cx="506.25" cy="65.79" r="0.81"/><circle class="cls-5" cx="526" cy="104.67" r="0.81"/><circle class="cls-5" cx="460.57" cy="89.44" r="0.81"/><circle class="cls-5" cx="423.83" cy="45.57" r="0.81"/><circle class="cls-5" cx="401" cy="20.46" r="0.81"/><circle class="cls-5" cx="372.17" cy="38" r="0.81"/><circle class="cls-5" cx="335.81" cy="14.17" r="0.81"/><circle class="cls-5" cx="252" cy="32.5" r="0.81"/><circle class="cls-5" cx="284.17" cy="17.67" r="0.81"/><circle class="cls-5" cx="510" cy="139.33" r="0.81"/><circle class="cls-5" cx="490.17" cy="182" r="0.81"/><circle class="cls-5" cx="537.88" cy="214.12" r="0.81"/><circle class="cls-5" cx="515.5" cy="250.75" r="0.81"/><circle class="cls-5" cx="535.56" cy="271.75" r="0.81"/><circle class="cls-5" cx="526.55" cy="302.78" r="0.81" transform="translate(135.78 767.78) rotate(-79.86)"/><circle class="cls-5" cx="532.86" cy="334.76" r="0.81" transform="translate(109.49 800.34) rotate(-79.86)"/><circle class="cls-5" cx="513.52" cy="384.69" r="0.81" transform="translate(44.41 822.44) rotate(-79.86)"/><path class="cls-5" d="M89.62,42.79h-1v-1a1,1,0,0,0-2,0v1h-1a1,1,0,0,0,0,2h1v1a1,1,0,0,0,2,0v-1h1a1,1,0,0,0,0-2Z"/><path class="cls-5" d="M484,113.22h-1v-1a1,1,0,1,0-2,0v1h-1a1,1,0,0,0,0,2h1v1a1,1,0,0,0,2,0v-1h1a1,1,0,0,0,0-2Z"/><path class="cls-5" d="M55.63,250.56h-1v-1a1,1,0,1,0-2,0v1h-1a1,1,0,0,0,0,2h1v1a1,1,0,0,0,2,0v-1h1a1,1,0,0,0,0-2Z"/><path class="cls-5" d="M318.06,24.11h-1v-1a1,1,0,0,0-2,0v1h-1a1,1,0,0,0,0,2h1v1a1,1,0,1,0,2,0v-1h1a1,1,0,0,0,0-2Z"/><path class="cls-5" d="M524.44,180.19h-1v-1a1,1,0,0,0-2,0v1h-1a1,1,0,0,0,0,2h1v1a1,1,0,1,0,2,0v-1h1a1,1,0,0,0,0-2Z"/><path class="cls-5" d="M495,321.45h-1v-1a1,1,0,0,0-2,0v1h-1a1,1,0,0,0,0,2h1v1a1,1,0,0,0,2,0v-1h1a1,1,0,0,0,0-2Z"/><path class="cls-5" d="M79.14,149.37h-1v-1a1,1,0,0,0-2,0v1h-1a1,1,0,1,0,0,2h1v1a1,1,0,0,0,2,0v-1h1a1,1,0,1,0,0-2Z"/><path class="cls-5" d="M30.47,357.5h-1v-1a1,1,0,0,0-2,0v1h-1a1,1,0,1,0,0,2h1v1a1,1,0,0,0,2,0v-1h1a1,1,0,1,0,0-2Z"/><rect class="cls-6" x="295.51" y="133.21" width="141.75" height="73.08" rx="12" ry="12" transform="translate(-12.72 308.79) rotate(-45)"/><path class="cls-7" d="M342.11,241.73a13,13,0,0,1-9.19-3.8l-34.71-34.71a13,13,0,0,1,0-18.38l83.26-83.26a13,13,0,0,1,18.38,0l34.71,34.71a13,13,0,0,1,0,18.38L351.3,237.93A13,13,0,0,1,342.11,241.73ZM390.67,99.78a10.92,10.92,0,0,0-7.78,3.21l-83.26,83.26a11,11,0,0,0,0,15.56l34.71,34.71a11,11,0,0,0,15.56,0l83.26-83.26a11,11,0,0,0,0-15.56L398.45,103A10.92,10.92,0,0,0,390.67,99.78Z"/><rect class="cls-6" x="289.51" y="134.21" width="141.75" height="73.08" rx="12" ry="12" transform="translate(-15.18 304.85) rotate(-45)"/><path class="cls-7" d="M336.11,242.73a13,13,0,0,1-9.19-3.8l-34.71-34.71a13,13,0,0,1,0-18.38l83.26-83.26a13,13,0,0,1,18.38,0l34.71,34.71a13,13,0,0,1,0,18.38L345.3,238.93A13,13,0,0,1,336.11,242.73Zm48.56-141.95a10.92,10.92,0,0,0-7.78,3.21l-83.26,83.26a11,11,0,0,0,0,15.56l34.71,34.71a11,11,0,0,0,15.56,0l83.26-83.26a11,11,0,0,0,0-15.56L392.45,104A10.92,10.92,0,0,0,384.67,100.78Z"/><rect class="cls-6" x="283.51" y="135.21" width="141.75" height="73.08" rx="12" ry="12" transform="translate(-17.65 300.9) rotate(-45)"/><path class="cls-7" d="M330.11,243.73a13,13,0,0,1-9.19-3.8l-34.71-34.71a13,13,0,0,1,0-18.38l83.26-83.26a13,13,0,0,1,18.38,0l34.71,34.71a13,13,0,0,1,0,18.38L339.3,239.93A13,13,0,0,1,330.11,243.73Zm48.56-141.95a10.92,10.92,0,0,0-7.78,3.21l-83.26,83.26a11,11,0,0,0,0,15.56l34.71,34.71a11,11,0,0,0,15.56,0l83.26-83.26a11,11,0,0,0,0-15.56L386.45,105A10.92,10.92,0,0,0,378.67,101.78Z"/><rect class="cls-6" x="295.27" y="139.85" width="121.86" height="60.18" rx="12" ry="12" transform="translate(-15.84 301.65) rotate(-45)"/><path class="cls-7" d="M334.4,230.31a12.91,12.91,0,0,1-9.19-3.79l-25.58-25.58a13,13,0,0,1,0-18.38l69.2-69.2a13,13,0,0,1,18.38,0l25.58,25.59a13,13,0,0,1,0,18.38l-69.2,69.2A12.91,12.91,0,0,1,334.4,230.31ZM378,111.55a11,11,0,0,0-7.78,3.22L301,184a11,11,0,0,0,0,15.56l25.58,25.58a11,11,0,0,0,15.56,0l69.2-69.2a11,11,0,0,0,0-15.56l-25.58-25.59A11,11,0,0,0,378,111.55Z"/><path class="cls-6" d="M185.56,124.83H323a12,12,0,0,1,12,12v48.91a0,0,0,0,1,0,0H173.56a0,0,0,0,1,0,0V136.83A12,12,0,0,1,185.56,124.83Z"/><path class="cls-7" d="M336,186.74H172.56V136.84a13,13,0,0,1,13-13H323a13,13,0,0,1,13,13Zm-161.44-2H334V136.84a11,11,0,0,0-11-11H185.56a11,11,0,0,0-11,11Z"/><circle class="cls-8" cx="360.88" cy="181.16" r="19.5"/><path class="cls-7" d="M360.88,201.66a20.5,20.5,0,1,1,20.5-20.5A20.52,20.52,0,0,1,360.88,201.66Zm0-39a18.5,18.5,0,1,0,18.5,18.5A18.52,18.52,0,0,0,360.88,162.66Z"/><rect class="cls-8" x="151.17" y="178.16" width="283.33" height="223.84" rx="12" ry="12"/><path class="cls-7" d="M422.5,403H163.17a13,13,0,0,1-13-13V190.16a13,13,0,0,1,13-13H422.5a13,13,0,0,1,13,13V390A13,13,0,0,1,422.5,403ZM163.17,179.16a11,11,0,0,0-11,11V390a11,11,0,0,0,11,11H422.5a11,11,0,0,0,11-11V190.16a11,11,0,0,0-11-11Z"/><rect class="cls-6" x="138.39" y="178.16" width="283.33" height="223.84" rx="12" ry="12"/><path class="cls-7" d="M409.71,403H150.39a13,13,0,0,1-13-13V190.16a13,13,0,0,1,13-13H409.71a13,13,0,0,1,13,13V390A13,13,0,0,1,409.71,403ZM150.39,179.16a11,11,0,0,0-11,11V390a11,11,0,0,0,11,11H409.71a11,11,0,0,0,11-11V190.16a11,11,0,0,0-11-11Z"/><path class="cls-5" d="M353.92,279.68h54.64a12,12,0,0,1,12,12v26a0,0,0,0,1,0,0H353.92a12,12,0,0,1-12-12v-14A12,12,0,0,1,353.92,279.68Z"/><path class="cls-9" d="M139.5,374.71H420.55a0,0,0,0,1,0,0V389a12,12,0,0,1-12,12H151.5a12,12,0,0,1-12-12V374.71A0,0,0,0,1,139.5,374.71Z"/><path class="cls-7" d="M173.56,315.89a1,1,0,0,1-1-1V209.82a1,1,0,0,1,2,0V314.89A1,1,0,0,1,173.56,315.89Z"/><path class="cls-9" d="M139.5,374.71h39a0,0,0,0,1,0,0V401a0,0,0,0,1,0,0h-27a12,12,0,0,1-12-12V374.71A0,0,0,0,1,139.5,374.71Z"/><path class="cls-7" d="M393,389.8h-8a1,1,0,0,1,0-2H393a1,1,0,0,1,1,1A1,1,0,0,1,393,389.8Zm-15.94,0h-7.95a1,1,0,0,1,0-2h7.95a1,1,0,0,1,0,2Zm-15.89,0h-7.95a1,1,0,0,1,0-2h7.95a1,1,0,0,1,0,2Zm-15.89,0h-7.95a1,1,0,0,1,0-2h7.95a1,1,0,0,1,0,2Zm-15.89,0h-7.95a1,1,0,0,1,0-2h7.95a1,1,0,0,1,0,2Zm-15.89,0H305.6a1,1,0,0,1,0-2h7.95a1,1,0,0,1,0,2Zm-15.89,0h-7.95a1,1,0,0,1,0-2h7.95a1,1,0,0,1,0,2Zm-15.89,0h-7.95a1,1,0,0,1,0-2h7.95a1,1,0,0,1,0,2Zm-15.89,0h-7.95a1,1,0,0,1,0-2h7.95a1,1,0,0,1,0,2Zm-15.89,0H242a1,1,0,0,1,0-2H250a1,1,0,0,1,0,2Zm-15.89,0h-7.95a1,1,0,0,1,0-2h7.95a1,1,0,1,1,0,2Zm-15.89,0h-7.95a1,1,0,1,1,0-2h7.95a1,1,0,1,1,0,2Zm-15.89,0h-7.95a1,1,0,1,1,0-2h7.95a1,1,0,0,1,0,2Zm-15.89,0h-7.95a1,1,0,1,1,0-2h7.95a1,1,0,0,1,0,2Zm-15.89,0H167.1a12.86,12.86,0,0,1-4.78-.92,1,1,0,1,1,.74-1.86,10.88,10.88,0,0,0,4,.77h3.43a1,1,0,0,1,0,2Zm229.88-2.58a1,1,0,0,1-.62-1.79,11.1,11.1,0,0,0,3.89-6,1,1,0,1,1,1.94.48A13.11,13.11,0,0,1,401,387,1,1,0,0,1,400.41,387.22Zm-243.65-3.34a1,1,0,0,1-.86-.49,13,13,0,0,1-1.8-6.59v-1.57a1,1,0,0,1,2,0v1.57a10.94,10.94,0,0,0,1.52,5.57,1,1,0,0,1-.86,1.51ZM405,372.76a1,1,0,0,1-1-1v-7.95a1,1,0,0,1,2,0v7.95A1,1,0,0,1,405,372.76Zm-249.9-4.47a1,1,0,0,1-1-1v-7.95a1,1,0,0,1,2,0v7.95A1,1,0,0,1,155.1,368.29ZM405,356.87a1,1,0,0,1-1-1v-7.95a1,1,0,0,1,2,0v7.95A1,1,0,0,1,405,356.87Zm-249.9-4.47a1,1,0,0,1-1-1v-7.95a1,1,0,0,1,2,0v7.95A1,1,0,0,1,155.1,352.39ZM405,341a1,1,0,0,1-1-1V332a1,1,0,1,1,2,0V340A1,1,0,0,1,405,341ZM155.1,336.5a1,1,0,0,1-1-1v-7.95a1,1,0,0,1,2,0v7.95A1,1,0,0,1,155.1,336.5ZM405,325.08a1,1,0,0,1-1-1v-7.95a1,1,0,1,1,2,0v7.95A1,1,0,0,1,405,325.08Zm-249.9-4.47a1,1,0,0,1-1-1v-7.95a1,1,0,0,1,2,0v7.95A1,1,0,0,1,155.1,320.61ZM405,309.19a1,1,0,0,1-1-1v-7.95a1,1,0,1,1,2,0v7.95A1,1,0,0,1,405,309.19Zm-249.9-4.47a1,1,0,0,1-1-1v-7.95a1,1,0,0,1,2,0v7.95A1,1,0,0,1,155.1,304.72ZM405,293.3a1,1,0,0,1-1-1v-7.95a1,1,0,1,1,2,0v7.95A1,1,0,0,1,405,293.3Zm-249.9-4.47a1,1,0,0,1-1-1v-7.95a1,1,0,0,1,2,0v7.95A1,1,0,0,1,155.1,288.83ZM405,277.41a1,1,0,0,1-1-1v-7.95a1,1,0,0,1,2,0v7.95A1,1,0,0,1,405,277.41Zm-249.9-4.47a1,1,0,0,1-1-1V264a1,1,0,0,1,2,0v7.95A1,1,0,0,1,155.1,272.94ZM405,261.52a1,1,0,0,1-1-1v-7.95a1,1,0,0,1,2,0v7.95A1,1,0,0,1,405,261.52ZM155.1,257a1,1,0,0,1-1-1V248.1a1,1,0,0,1,2,0V256A1,1,0,0,1,155.1,257ZM405,245.63a1,1,0,0,1-1-1v-7.95a1,1,0,0,1,2,0v7.95A1,1,0,0,1,405,245.63Zm-249.9-4.47a1,1,0,0,1-1-1v-7.95a1,1,0,0,1,2,0v7.95A1,1,0,0,1,155.1,241.16ZM405,229.74a1,1,0,0,1-1-1v-7.95a1,1,0,0,1,2,0v7.95A1,1,0,0,1,405,229.74Zm-249.9-4.47a1,1,0,0,1-1-1v-7.95a1,1,0,0,1,2,0v7.95A1,1,0,0,1,155.1,225.27ZM405,213.85a1,1,0,0,1-1-1V204.9a1,1,0,0,1,2,0v7.95A1,1,0,0,1,405,213.85Zm-249.9-4.47a1,1,0,0,1-1-1v-5a12.94,12.94,0,0,1,.39-3.14,1,1,0,1,1,1.94.49,11,11,0,0,0-.33,2.66v5A1,1,0,0,1,155.1,209.38Zm248.23-11.11a1,1,0,0,1-.86-.49,11.15,11.15,0,0,0-5.44-4.65,1,1,0,0,1,.74-1.86,13.16,13.16,0,0,1,6.43,5.48,1,1,0,0,1-.86,1.51Zm-243.62-3.34a1,1,0,0,1-.62-1.79,12.84,12.84,0,0,1,8-2.78h0a1,1,0,0,1,0,2,10.85,10.85,0,0,0-6.75,2.35A1,1,0,0,1,159.71,194.92Zm229.84-2.56H381.6a1,1,0,0,1,0-2h7.95a1,1,0,0,1,0,2Zm-15.89,0h-7.95a1,1,0,0,1,0-2h7.95a1,1,0,0,1,0,2Zm-15.89,0h-7.95a1,1,0,0,1,0-2h7.95a1,1,0,0,1,0,2Zm-15.89,0h-7.95a1,1,0,0,1,0-2h7.95a1,1,0,0,1,0,2Zm-15.89,0H318a1,1,0,0,1,0-2H326a1,1,0,0,1,0,2Zm-15.89,0h-7.95a1,1,0,0,1,0-2h7.95a1,1,0,0,1,0,2Zm-15.89,0h-7.95a1,1,0,0,1,0-2h7.95a1,1,0,0,1,0,2Zm-15.89,0h-7.95a1,1,0,0,1,0-2h7.95a1,1,0,0,1,0,2Zm-15.89,0h-7.95a1,1,0,0,1,0-2h7.95a1,1,0,0,1,0,2Zm-15.89,0h-7.95a1,1,0,0,1,0-2h7.95a1,1,0,0,1,0,2Zm-15.89,0h-7.95a1,1,0,0,1,0-2h7.95a1,1,0,0,1,0,2Zm-15.89,0H206.8a1,1,0,0,1,0-2h7.95a1,1,0,0,1,0,2Zm-15.89,0h-7.95a1,1,0,0,1,0-2h7.95a1,1,0,0,1,0,2Zm-15.89,0H175a1,1,0,0,1,0-2H183a1,1,0,0,1,0,2Z"/><rect class="cls-6" x="341.92" y="273.35" width="102.41" height="37.99" rx="12" ry="12"/><path class="cls-7" d="M432.33,312.33H353.92a13,13,0,0,1-13-13v-14a13,13,0,0,1,13-13h78.41a13,13,0,0,1,13,13v14A13,13,0,0,1,432.33,312.33Zm-78.41-38a11,11,0,0,0-11,11v14a11,11,0,0,0,11,11h78.41a11,11,0,0,0,11-11v-14a11,11,0,0,0-11-11Z"/><circle class="cls-6" cx="359.5" cy="292.34" r="9.41"/><path class="cls-7" d="M359.5,302.75a10.41,10.41,0,1,1,10.41-10.41A10.42,10.42,0,0,1,359.5,302.75Zm0-18.82a8.41,8.41,0,1,0,8.41,8.41A8.42,8.42,0,0,0,359.5,283.93Z"/><circle class="cls-6" cx="359.5" cy="292.34" r="3.38"/><path class="cls-7" d="M359.5,296.72a4.38,4.38,0,1,1,4.38-4.38A4.38,4.38,0,0,1,359.5,296.72Zm0-6.76a2.38,2.38,0,1,0,2.38,2.38A2.38,2.38,0,0,0,359.5,290Z"/><path class="cls-7" d="M173.56,352.89a1,1,0,0,1-1-1V329.22a1,1,0,0,1,2,0v22.67A1,1,0,0,1,173.56,352.89Z"/><rect class="cls-8" x="183.69" y="152.33" width="12.62" height="10.23" rx="4.16" ry="4.16"/><path class="cls-7" d="M192.15,163.56h-4.31a5.16,5.16,0,0,1-5.16-5.16v-1.91a5.16,5.16,0,0,1,5.16-5.16h4.31a5.16,5.16,0,0,1,5.16,5.16v1.91A5.16,5.16,0,0,1,192.15,163.56Zm-4.31-10.23a3.16,3.16,0,0,0-3.16,3.16v1.91a3.16,3.16,0,0,0,3.16,3.16h4.31a3.16,3.16,0,0,0,3.16-3.16v-1.91a3.16,3.16,0,0,0-3.16-3.16Z"/><path class="cls-7" d="M204.25,172.75h-20.5a1,1,0,0,1,0-2h20.5a1,1,0,0,1,0,2Z"/><path class="cls-7" d="M237,172.75h-20.5a1,1,0,0,1,0-2H237a1,1,0,0,1,0,2Z"/><path class="cls-7" d="M271.25,172.75h-20.5a1,1,0,0,1,0-2h20.5a1,1,0,0,1,0,2Z"/><rect class="cls-8" x="173.56" y="136.83" width="161.44" height="9.5"/><path class="cls-7" d="M336,147.34H172.56v-11.5H336Zm-161.44-2H334v-7.5H174.56Z"/><ellipse class="cls-8" cx="378.24" cy="118.24" rx="7.92" ry="7.55"/><path class="cls-7" d="M378.24,126.8a8.56,8.56,0,1,1,8.92-8.55A8.75,8.75,0,0,1,378.24,126.8Zm0-15.1a6.56,6.56,0,1,0,6.92,6.55A6.75,6.75,0,0,0,378.24,111.69Z"/><ellipse class="cls-8" cx="407.73" cy="147.74" rx="7.92" ry="7.55"/><path class="cls-7" d="M407.73,156.29a8.56,8.56,0,1,1,8.92-8.55A8.75,8.75,0,0,1,407.73,156.29Zm0-15.1a6.56,6.56,0,1,0,6.92,6.55A6.75,6.75,0,0,0,407.73,141.18Z"/></svg>