<svg id="Layer_1" data-name="Layer 1" xmlns="http://www.w3.org/2000/svg" viewBox="0 0 107 100"><defs><style>.cls-1{fill:#5867c2;}.cls-2{fill:#f5f5f5;}.cls-3{fill:#c5ceed;}</style></defs><title>1_</title><rect class="cls-1" x="14.24" y="16" width="78.52" height="66" rx="4" ry="4" transform="translate(-7.41 9.6) rotate(-9.59)"/><path class="cls-2" d="M23.56,88.47a5,5,0,0,1-4.93-4.17L9,27.11a5,5,0,0,1,4.1-5.76L82.6,9.6a5,5,0,0,1,5.76,4.1L98,70.89a5,5,0,0,1-4.1,5.76h0L24.4,88.4A5.07,5.07,0,0,1,23.56,88.47ZM83.44,11.53a3,3,0,0,0-.5,0L13.4,23.32a3,3,0,0,0-2.46,3.46L20.61,84a3,3,0,0,0,3.46,2.46L93.6,74.68a3,3,0,0,0,2.46-3.46L86.39,14A3,3,0,0,0,83.44,11.53Z"/><rect class="cls-2" x="19" y="20" width="69" height="58" rx="4" ry="4"/><path class="cls-1" d="M84,79H23a5,5,0,0,1-5-5V24a5,5,0,0,1,5-5H84a5,5,0,0,1,5,5V74A5,5,0,0,1,84,79ZM23,21a3,3,0,0,0-3,3V74a3,3,0,0,0,3,3H84a3,3,0,0,0,3-3V24a3,3,0,0,0-3-3Z"/><rect class="cls-2" x="24" y="25" width="59" height="36"/><path class="cls-1" d="M84,62H23V24H84ZM25,60H82V26H25Z"/><path class="cls-1" d="M27,60,38.42,48.61a3.47,3.47,0,0,1,4.9,0L54.73,60"/><circle class="cls-1" cx="49" cy="39" r="4"/><path class="cls-1" d="M51.27,60.56,62.16,38.49c1.64-3.32,4.31-3.32,6,0L79,60.56"/><circle class="cls-3" cx="98" cy="7" r="1"/><circle class="cls-3" cx="103" cy="43" r="1"/><circle class="cls-3" cx="82" cy="84" r="1"/><circle class="cls-3" cx="39" cy="95" r="1"/><circle class="cls-3" cx="10" cy="55" r="1"/><circle class="cls-3" cx="16" cy="11" r="0.42"/><circle class="cls-3" cx="30.82" cy="3.25" r="0.42"/><circle class="cls-3" cx="31.85" cy="14.28" r="0.42"/><circle class="cls-3" cx="43.46" cy="7.58" r="0.42"/><circle class="cls-3" cx="53.92" cy="11.2" r="0.42"/><circle class="cls-3" cx="72.05" cy="6.42" r="0.42"/><circle class="cls-3" cx="100.74" cy="16.08" r="0.42"/><circle class="cls-3" cx="96.25" cy="29.65" r="0.42"/><circle class="cls-3" cx="98.25" cy="52.66" r="0.42"/><circle class="cls-3" cx="100.42" cy="73" r="0.42"/><circle class="cls-3" cx="92.58" cy="81.82" r="0.42"/><circle class="cls-3" cx="101.96" cy="85.42" r="0.42"/><circle class="cls-3" cx="70.1" cy="86.78" r="0.42"/><circle class="cls-3" cx="45.89" cy="88.02" r="0.42"/><circle class="cls-3" cx="27.56" cy="92.97" r="0.42"/><circle class="cls-3" cx="9.7" cy="96" r="0.42"/><circle class="cls-3" cx="11" cy="64.65" r="0.42"/><circle class="cls-3" cx="3.54" cy="58.6" r="0.42"/><circle class="cls-3" cx="5.88" cy="47.59" r="0.42"/><circle class="cls-3" cx="8.38" cy="39.05" r="0.42"/><circle class="cls-3" cx="5" cy="21.25" r="0.42"/><path class="cls-3" d="M10.25,11.44H10v-.25a.19.19,0,0,0-.37,0v.25H9.38a.19.19,0,0,0,0,.38h.25v.25a.19.19,0,0,0,.38,0v-.25h.25a.19.19,0,0,0,0-.37Z"/><path class="cls-3" d="M101.27,33.89H101v-.25a.19.19,0,0,0-.37,0v.25h-.25a.19.19,0,0,0,0,.38h.25v.25a.19.19,0,1,0,.38,0v-.25h.25a.19.19,0,0,0,0-.37Z"/><path class="cls-3" d="M13.25,82.81H13v-.25a.19.19,0,0,0-.37,0v.25h-.25a.19.19,0,0,0,0,.38h.25v.25a.19.19,0,0,0,.38,0v-.25h.25a.19.19,0,0,0,0-.37Z"/><path class="cls-3" d="M61.08,88.88h-.25v-.25a.19.19,0,0,0-.37,0v.25h-.25a.19.19,0,0,0,0,.38h.25v.25a.19.19,0,0,0,.38,0v-.25h.25a.19.19,0,1,0,0-.37Z"/><path class="cls-3" d="M82.44,5.81h-.25V5.56a.19.19,0,0,0-.37,0v.25h-.25a.19.19,0,0,0,0,.38h.25v.25a.19.19,0,0,0,.38,0V6.19h.25a.19.19,0,0,0,0-.37Z"/></svg>