<svg id="Layer_1" data-name="Layer 1" xmlns="http://www.w3.org/2000/svg" viewBox="0 0 550 450"><defs><style>.cls-1{opacity:0.18;}.cls-2{fill:#e5e5e5;}.cls-3{opacity:0.42;}.cls-4{opacity:0.5;}.cls-5{fill:#e9e9e9;}.cls-6{fill:#d0dbf7;}.cls-7{fill:#8a8e91;}.cls-8{fill:#f5f5f5;}.cls-9{fill:#dae2f7;}</style></defs><title>1_</title><g class="cls-1"><circle class="cls-2" cx="275" cy="224.5" r="186.5"/></g><g class="cls-3"><circle class="cls-2" cx="274.78" cy="224.28" r="161.19"/></g><g class="cls-4"><circle class="cls-2" cx="274.78" cy="224.28" r="141.51"/></g><circle class="cls-5" cx="91" cy="94" r="2.5"/><circle class="cls-5" cx="193.82" cy="51.65" r="2.5"/><circle class="cls-5" cx="51.1" cy="168.12" r="2.5"/><circle class="cls-5" cx="314.58" cy="49.82" r="2.5"/><circle class="cls-5" cx="85.3" cy="304.5" r="2.5" transform="translate(-172.97 122.03) rotate(-39.11)"/><circle class="cls-5" cx="68.24" cy="380.87" r="2.5" transform="translate(-224.97 128.38) rotate(-39.11)"/><circle class="cls-5" cx="459.76" cy="42.26" r="2.5" transform="translate(1.86 101.39) rotate(-12.61)"/><circle class="cls-5" cx="437" cy="123.3" r="2.5" transform="translate(-16.38 98.37) rotate(-12.61)"/><circle class="cls-5" cx="509.72" cy="224.5" r="2.5" transform="translate(-36.72 116.69) rotate(-12.61)"/><circle class="cls-5" cx="508.4" cy="347.14" r="2.5" transform="translate(-63.52 119.36) rotate(-12.61)"/><circle class="cls-5" cx="51.1" cy="65.59" r="0.81"/><circle class="cls-5" cx="105.19" cy="120.88" r="0.81"/><circle class="cls-5" cx="43.14" cy="101.4" r="0.81"/><circle class="cls-5" cx="82.19" cy="121.88" r="0.81"/><circle class="cls-5" cx="36.51" cy="145.53" r="0.81"/><circle class="cls-5" cx="93.08" cy="168.93" r="0.81"/><circle class="cls-5" cx="26.03" cy="190.42" r="0.81"/><circle class="cls-5" cx="67.01" cy="201.62" r="0.81"/><circle class="cls-5" cx="37.87" cy="220.79" r="0.81"/><circle class="cls-5" cx="80.4" cy="241.08" r="0.81"/><circle class="cls-5" cx="27.63" cy="273.35" r="0.81"/><circle class="cls-5" cx="59.79" cy="305.08" r="0.81"/><circle class="cls-5" cx="32.48" cy="320.22" r="0.81"/><circle class="cls-5" cx="77.91" cy="350.75" r="0.81"/><circle class="cls-5" cx="26.86" cy="384.63" r="0.81"/><circle class="cls-5" cx="189.35" cy="21.27" r="0.81" transform="translate(26.03 119.4) rotate(-37.41)"/><circle class="cls-5" cx="156.08" cy="36.7" r="0.81" transform="translate(9.8 102.36) rotate(-37.41)"/><circle class="cls-5" cx="117" cy="58.24" r="0.81" transform="translate(-11.32 83.06) rotate(-37.41)"/><circle class="cls-5" cx="529.25" cy="64.79" r="0.81"/><circle class="cls-5" cx="506.25" cy="65.79" r="0.81"/><circle class="cls-5" cx="526" cy="104.67" r="0.81"/><circle class="cls-5" cx="460.57" cy="89.44" r="0.81"/><circle class="cls-5" cx="423.83" cy="45.57" r="0.81"/><circle class="cls-5" cx="401" cy="20.46" r="0.81"/><circle class="cls-5" cx="372.17" cy="38" r="0.81"/><circle class="cls-5" cx="335.81" cy="14.17" r="0.81"/><circle class="cls-5" cx="252" cy="32.5" r="0.81"/><circle class="cls-5" cx="284.17" cy="17.67" r="0.81"/><circle class="cls-5" cx="510" cy="139.33" r="0.81"/><circle class="cls-5" cx="490.17" cy="182" r="0.81"/><circle class="cls-5" cx="537.88" cy="214.13" r="0.81"/><circle class="cls-5" cx="515.5" cy="250.75" r="0.81"/><circle class="cls-5" cx="535.56" cy="271.75" r="0.81"/><circle class="cls-5" cx="526.55" cy="302.78" r="0.81" transform="translate(135.78 767.78) rotate(-79.86)"/><circle class="cls-5" cx="532.86" cy="334.76" r="0.81" transform="translate(109.49 800.34) rotate(-79.86)"/><circle class="cls-5" cx="513.52" cy="384.69" r="0.81" transform="translate(44.41 822.44) rotate(-79.86)"/><path class="cls-5" d="M89.62,42.79h-1v-1a1,1,0,0,0-2,0v1h-1a1,1,0,0,0,0,2h1v1a1,1,0,0,0,2,0v-1h1a1,1,0,0,0,0-2Z"/><path class="cls-5" d="M484,113.22h-1v-1a1,1,0,1,0-2,0v1h-1a1,1,0,0,0,0,2h1v1a1,1,0,0,0,2,0v-1h1a1,1,0,0,0,0-2Z"/><path class="cls-5" d="M55.63,250.56h-1v-1a1,1,0,1,0-2,0v1h-1a1,1,0,0,0,0,2h1v1a1,1,0,0,0,2,0v-1h1a1,1,0,0,0,0-2Z"/><path class="cls-5" d="M318.06,24.11h-1v-1a1,1,0,0,0-2,0v1h-1a1,1,0,0,0,0,2h1v1a1,1,0,1,0,2,0v-1h1a1,1,0,0,0,0-2Z"/><path class="cls-5" d="M524.44,180.19h-1v-1a1,1,0,0,0-2,0v1h-1a1,1,0,0,0,0,2h1v1a1,1,0,1,0,2,0v-1h1a1,1,0,0,0,0-2Z"/><path class="cls-5" d="M495,321.45h-1v-1a1,1,0,0,0-2,0v1h-1a1,1,0,0,0,0,2h1v1a1,1,0,0,0,2,0v-1h1a1,1,0,0,0,0-2Z"/><path class="cls-5" d="M79.14,149.37h-1v-1a1,1,0,0,0-2,0v1h-1a1,1,0,1,0,0,2h1v1a1,1,0,0,0,2,0v-1h1a1,1,0,1,0,0-2Z"/><path class="cls-5" d="M30.47,357.5h-1v-1a1,1,0,0,0-2,0v1h-1a1,1,0,1,0,0,2h1v1a1,1,0,0,0,2,0v-1h1a1,1,0,1,0,0-2Z"/><circle class="cls-5" cx="221.54" cy="89.44" r="2.5"/><rect class="cls-6" x="154.21" y="201.04" width="239.06" height="124.31"/><path class="cls-7" d="M394.28,326.35H153.21V200H394.28Zm-239.06-2H392.28V202H155.21Z"/><rect class="cls-8" x="197.32" y="107.87" width="157.14" height="212.62" rx="12" ry="12"/><path class="cls-7" d="M342.46,321.48H209.32a13,13,0,0,1-13-13V119.87a13,13,0,0,1,13-13H342.46a13,13,0,0,1,13,13V308.48A13,13,0,0,1,342.46,321.48ZM209.32,108.87a11,11,0,0,0-11,11V308.48a11,11,0,0,0,11,11H342.46a11,11,0,0,0,11-11V119.87a11,11,0,0,0-11-11Z"/><path class="cls-7" d="M336,238.39H220.56a1,1,0,0,1,0-2H336a1,1,0,0,1,0,2Z"/><path class="cls-8" d="M402.89,211.27v138.8a12,12,0,0,1-12,12h-163L382.28,202.91A12,12,0,0,1,402.89,211.27Z"/><path class="cls-7" d="M390.89,363.06H225.53l156-160.85a13,13,0,0,1,22.33,9.05v138.8A13,13,0,0,1,390.89,363.06Zm-160.63-2H390.89a11,11,0,0,0,11-11V211.27a11,11,0,0,0-18.9-7.66Z"/><path class="cls-7" d="M306.14,249.39H220.56a1,1,0,0,1,0-2h85.58a1,1,0,0,1,0,2Z"/><path class="cls-8" d="M147.11,211.27v138.8a12,12,0,0,0,12,12h163L167.72,202.91A12,12,0,0,0,147.11,211.27Z"/><path class="cls-7" d="M324.47,363.06H159.11a13,13,0,0,1-13-13V211.27a13,13,0,0,1,22.33-9.05ZM159.18,200.24a11.19,11.19,0,0,0-4.21.84,10.82,10.82,0,0,0-6.87,10.19v138.8a11,11,0,0,0,11,11H319.74L167,203.61A10.83,10.83,0,0,0,159.18,200.24Z"/><path class="cls-9" d="M320,268.19h0c4.58-4.18,3.29-3.33,6.38-6.32l72.34,65.61c7,5.91.75,31.74.29,30.58"/><path class="cls-9" d="M230.56,268.91h0c-4.58-4.18-3.29-3.33-6.38-6.32L151.84,328.2c-8.1,7.38-.53,31.94-2.41,25.27"/><path class="cls-8" d="M267.15,236,151.84,341.2a12,12,0,0,0,8.09,20.87H390.53a12,12,0,0,0,8.09-20.87L283.32,236A12,12,0,0,0,267.15,236Z"/><path class="cls-7" d="M390.54,363.06H159.93a13,13,0,0,1-8.76-22.61L266.47,235.3a12.94,12.94,0,0,1,17.52,0l115.3,105.16a13,13,0,0,1-8.76,22.61ZM275.23,233.88a11,11,0,0,0-7.41,2.89L152.52,341.94a11,11,0,0,0,7.41,19.13H390.54a11,11,0,0,0,7.41-19.13L282.64,236.78A11,11,0,0,0,275.23,233.88ZM267.15,236h0Z"/><path class="cls-7" d="M228.75,167.74v-2.3a1.74,1.74,0,0,0-1.56-1.72,17.27,17.27,0,0,1-5.66-1.57,1.74,1.74,0,0,1-.87-2.15l.17-.47a1.73,1.73,0,0,1,2.38-1,15,15,0,0,0,6.38,1.46c4,0,6.66-2.3,6.66-5.49s-2.18-5-6.33-6.66c-5.71-2.24-9.24-4.82-9.24-9.69,0-4.24,2.76-7.56,7.16-8.74a1.74,1.74,0,0,0,1.3-1.67v-2.52a1.74,1.74,0,0,1,1.74-1.74h0a1.74,1.74,0,0,1,1.74,1.74v2.09a1.74,1.74,0,0,0,1.56,1.72,15,15,0,0,1,4.25,1.1,1.73,1.73,0,0,1,.92,2.2l-.17.44a1.72,1.72,0,0,1-2.29,1,13.57,13.57,0,0,0-5.44-1.09c-4.31,0-5.94,2.58-5.94,4.82,0,2.91,2.07,4.37,6.95,6.38,5.77,2.35,8.68,5.26,8.68,10.25,0,4.08-2.62,7.93-7.57,9.25a1.73,1.73,0,0,0-1.28,1.67v2.69a1.74,1.74,0,0,1-1.74,1.74h-.06A1.74,1.74,0,0,1,228.75,167.74Z"/><path class="cls-7" d="M337.81,145.33H256a1,1,0,0,1,0-2h81.81a1,1,0,0,1,0,2Z"/><path class="cls-7" d="M290.81,158H256a1,1,0,0,1,0-2h34.81a1,1,0,0,1,0,2Z"/><path class="cls-7" d="M316.55,188.65H234.74a1,1,0,0,1,0-2h81.81a1,1,0,0,1,0,2Z"/><path class="cls-7" d="M294.15,202h-37a1,1,0,0,1,0-2h37a1,1,0,0,1,0,2Z"/><circle class="cls-8" cx="275.65" cy="271.47" r="14.25"/><path class="cls-7" d="M275.65,286.72a15.25,15.25,0,1,1,15.25-15.25A15.27,15.27,0,0,1,275.65,286.72Zm0-28.5a13.25,13.25,0,1,0,13.25,13.25A13.27,13.27,0,0,0,275.65,258.22Z"/><circle class="cls-6" cx="275.65" cy="271.47" r="6.28"/><path class="cls-7" d="M275.65,278.75a7.28,7.28,0,1,1,7.28-7.28A7.29,7.29,0,0,1,275.65,278.75Zm0-12.56a5.28,5.28,0,1,0,5.28,5.28A5.29,5.29,0,0,0,275.65,266.19Z"/><path class="cls-7" d="M326.14,339.51H187.81a1,1,0,0,1,0-2H326.14a1,1,0,0,1,0,2Z"/><path class="cls-7" d="M351.81,350.72h-48a1,1,0,0,1,0-2h48a1,1,0,0,1,0,2Z"/><circle class="cls-6" cx="348.14" cy="112.86" r="20.52"/><path class="cls-7" d="M348.14,134.39a21.52,21.52,0,1,1,21.52-21.52A21.55,21.55,0,0,1,348.14,134.39Zm0-41a19.52,19.52,0,1,0,19.52,19.52A19.55,19.55,0,0,0,348.14,93.34Z"/><path class="cls-7" d="M346.14,121.22a1,1,0,0,1-.71-1.71l12.92-12.92a1,1,0,0,1,1.41,1.41l-12.92,12.92A1,1,0,0,1,346.14,121.22Z"/><path class="cls-7" d="M346.14,121.22a1,1,0,0,1-.76-.35l-8.5-10a1,1,0,0,1,1.52-1.29l8.5,10a1,1,0,0,1-.76,1.65Z"/></svg>