<svg id="Layer_1" data-name="Layer 1" xmlns="http://www.w3.org/2000/svg" viewBox="0 0 550 450"><defs><style>.cls-1{opacity:0.18;}.cls-2{fill:#e5e5e5;}.cls-3{opacity:0.42;}.cls-4{opacity:0.5;}.cls-5{fill:#e9e9e9;}.cls-6{fill:#d0dbf7;}.cls-7{fill:#8a8e91;}.cls-8{fill:#f5f5f5;}.cls-9{fill:#dae2f7;}</style></defs><title>1_</title><g class="cls-1"><circle class="cls-2" cx="288" cy="224.5" r="186.5"/></g><g class="cls-3"><circle class="cls-2" cx="287.78" cy="224.28" r="161.19"/></g><g class="cls-4"><circle class="cls-2" cx="287.78" cy="224.28" r="141.51"/></g><circle class="cls-5" cx="91" cy="94" r="2.5"/><circle class="cls-5" cx="193.82" cy="51.65" r="2.5"/><circle class="cls-5" cx="51.1" cy="168.12" r="2.5"/><circle class="cls-5" cx="234.54" cy="116.72" r="2.5"/><circle class="cls-5" cx="314.58" cy="49.82" r="2.5"/><circle class="cls-5" cx="85.3" cy="304.5" r="2.5" transform="translate(-172.97 122.03) rotate(-39.11)"/><circle class="cls-5" cx="68.24" cy="380.87" r="2.5" transform="translate(-224.97 128.38) rotate(-39.11)"/><circle class="cls-5" cx="459.76" cy="42.26" r="2.5" transform="translate(1.86 101.39) rotate(-12.61)"/><circle class="cls-5" cx="437" cy="123.3" r="2.5" transform="translate(-16.38 98.37) rotate(-12.61)"/><circle class="cls-5" cx="509.72" cy="224.5" r="2.5" transform="translate(-36.72 116.69) rotate(-12.61)"/><circle class="cls-5" cx="508.4" cy="347.14" r="2.5" transform="translate(-63.52 119.36) rotate(-12.61)"/><circle class="cls-5" cx="51.1" cy="65.59" r="0.81"/><circle class="cls-5" cx="105.19" cy="120.88" r="0.81"/><circle class="cls-5" cx="43.14" cy="101.4" r="0.81"/><circle class="cls-5" cx="82.19" cy="121.88" r="0.81"/><circle class="cls-5" cx="36.51" cy="145.53" r="0.81"/><circle class="cls-5" cx="93.08" cy="168.93" r="0.81"/><circle class="cls-5" cx="26.03" cy="190.42" r="0.81"/><circle class="cls-5" cx="67.01" cy="201.62" r="0.81"/><circle class="cls-5" cx="37.87" cy="220.79" r="0.81"/><circle class="cls-5" cx="80.4" cy="241.08" r="0.81"/><circle class="cls-5" cx="27.63" cy="273.35" r="0.81"/><circle class="cls-5" cx="59.79" cy="305.08" r="0.81"/><circle class="cls-5" cx="32.48" cy="320.22" r="0.81"/><circle class="cls-5" cx="77.91" cy="350.75" r="0.81"/><circle class="cls-5" cx="26.86" cy="384.63" r="0.81"/><circle class="cls-5" cx="189.35" cy="21.27" r="0.81" transform="translate(26.03 119.4) rotate(-37.41)"/><circle class="cls-5" cx="156.08" cy="36.7" r="0.81" transform="translate(9.8 102.36) rotate(-37.41)"/><circle class="cls-5" cx="117" cy="58.24" r="0.81" transform="translate(-11.32 83.06) rotate(-37.41)"/><circle class="cls-5" cx="529.25" cy="64.79" r="0.81"/><circle class="cls-5" cx="506.25" cy="65.79" r="0.81"/><circle class="cls-5" cx="526" cy="104.67" r="0.81"/><circle class="cls-5" cx="460.57" cy="89.44" r="0.81"/><circle class="cls-5" cx="423.83" cy="45.57" r="0.81"/><circle class="cls-5" cx="401" cy="20.46" r="0.81"/><circle class="cls-5" cx="372.17" cy="38" r="0.81"/><circle class="cls-5" cx="335.81" cy="14.17" r="0.81"/><circle class="cls-5" cx="252" cy="32.5" r="0.81"/><circle class="cls-5" cx="284.17" cy="17.67" r="0.81"/><circle class="cls-5" cx="510" cy="139.33" r="0.81"/><circle class="cls-5" cx="490.17" cy="182" r="0.81"/><circle class="cls-5" cx="537.88" cy="214.13" r="0.81"/><circle class="cls-5" cx="515.5" cy="250.75" r="0.81"/><circle class="cls-5" cx="535.56" cy="271.75" r="0.81"/><circle class="cls-5" cx="526.55" cy="302.78" r="0.81" transform="translate(135.78 767.78) rotate(-79.86)"/><circle class="cls-5" cx="532.86" cy="334.76" r="0.81" transform="translate(109.49 800.34) rotate(-79.86)"/><circle class="cls-5" cx="513.52" cy="384.69" r="0.81" transform="translate(44.41 822.44) rotate(-79.86)"/><path class="cls-5" d="M89.62,42.79h-1v-1a1,1,0,0,0-2,0v1h-1a1,1,0,0,0,0,2h1v1a1,1,0,0,0,2,0v-1h1a1,1,0,0,0,0-2Z"/><path class="cls-5" d="M484,113.22h-1v-1a1,1,0,1,0-2,0v1h-1a1,1,0,0,0,0,2h1v1a1,1,0,0,0,2,0v-1h1a1,1,0,0,0,0-2Z"/><path class="cls-5" d="M55.63,250.56h-1v-1a1,1,0,1,0-2,0v1h-1a1,1,0,0,0,0,2h1v1a1,1,0,0,0,2,0v-1h1a1,1,0,0,0,0-2Z"/><path class="cls-5" d="M318.06,24.11h-1v-1a1,1,0,0,0-2,0v1h-1a1,1,0,0,0,0,2h1v1a1,1,0,1,0,2,0v-1h1a1,1,0,0,0,0-2Z"/><path class="cls-5" d="M524.44,180.19h-1v-1a1,1,0,0,0-2,0v1h-1a1,1,0,0,0,0,2h1v1a1,1,0,1,0,2,0v-1h1a1,1,0,0,0,0-2Z"/><path class="cls-5" d="M495,321.45h-1v-1a1,1,0,0,0-2,0v1h-1a1,1,0,0,0,0,2h1v1a1,1,0,0,0,2,0v-1h1a1,1,0,0,0,0-2Z"/><path class="cls-5" d="M79.14,149.37h-1v-1a1,1,0,0,0-2,0v1h-1a1,1,0,1,0,0,2h1v1a1,1,0,0,0,2,0v-1h1a1,1,0,1,0,0-2Z"/><path class="cls-5" d="M30.47,357.5h-1v-1a1,1,0,0,0-2,0v1h-1a1,1,0,1,0,0,2h1v1a1,1,0,0,0,2,0v-1h1a1,1,0,1,0,0-2Z"/><rect class="cls-6" x="167.21" y="228.32" width="239.06" height="124.31"/><path class="cls-7" d="M407.28,353.63H166.22V227.33H407.28Zm-239.06-2H405.28V229.33H168.22Z"/><rect class="cls-8" x="210.32" y="135.15" width="157.14" height="212.62" rx="12" ry="12"/><path class="cls-7" d="M355.46,348.76H222.32a13,13,0,0,1-13-13V147.15a13,13,0,0,1,13-13H355.46a13,13,0,0,1,13,13V335.76A13,13,0,0,1,355.46,348.76ZM222.32,136.15a11,11,0,0,0-11,11V335.76a11,11,0,0,0,11,11H355.46a11,11,0,0,0,11-11V147.15a11,11,0,0,0-11-11Z"/><path class="cls-7" d="M349,265.67H233.56a1,1,0,1,1,0-2H349a1,1,0,0,1,0,2Z"/><path class="cls-8" d="M415.89,238.55v138.8a12,12,0,0,1-12,12h-163L395.28,230.19A12,12,0,0,1,415.89,238.55Z"/><path class="cls-7" d="M403.89,390.34H238.53l156-160.85a13,13,0,0,1,22.33,9.05v138.8A13,13,0,0,1,403.89,390.34Zm-160.63-2H403.89a11,11,0,0,0,11-11V238.55a11,11,0,0,0-18.9-7.66Z"/><path class="cls-7" d="M319.14,276.67H233.56a1,1,0,1,1,0-2h85.58a1,1,0,0,1,0,2Z"/><path class="cls-8" d="M160.11,238.55v138.8a12,12,0,0,0,12,12h163L180.72,230.19A12,12,0,0,0,160.11,238.55Z"/><path class="cls-7" d="M337.47,390.34H172.11a13,13,0,0,1-13-13V238.55a13,13,0,0,1,22.33-9.05ZM172.18,227.52a11.19,11.19,0,0,0-4.21.84,10.82,10.82,0,0,0-6.87,10.19v138.8a11,11,0,0,0,11,11H332.74L180,230.89A10.83,10.83,0,0,0,172.18,227.52Z"/><path class="cls-9" d="M333,295.47h0c4.58-4.18,3.29-3.33,6.38-6.32l72.34,65.61c7,5.91.75,31.74.29,30.58"/><path class="cls-9" d="M243.56,296.19h0c-4.58-4.18-3.29-3.33-6.38-6.32l-72.34,65.61c-8.1,7.38-.53,31.94-2.41,25.27"/><path class="cls-8" d="M280.15,263.32,164.84,368.48a12,12,0,0,0,8.09,20.87H403.53a12,12,0,0,0,8.09-20.87L296.32,263.32A12,12,0,0,0,280.15,263.32Z"/><path class="cls-7" d="M403.54,390.34H172.93a13,13,0,0,1-8.76-22.61l115.3-105.16a12.94,12.94,0,0,1,17.52,0L412.3,367.74a13,13,0,0,1-8.76,22.61ZM288.23,261.17a11,11,0,0,0-7.41,2.89L165.52,369.22a11,11,0,0,0,7.41,19.13H403.54a11,11,0,0,0,7.41-19.13L295.64,264.06A11,11,0,0,0,288.23,261.17Zm-8.09,2.15h0Z"/><path class="cls-7" d="M241.75,195v-2.3a1.74,1.74,0,0,0-1.56-1.72,17.27,17.27,0,0,1-5.66-1.57,1.74,1.74,0,0,1-.87-2.15l.17-.47a1.73,1.73,0,0,1,2.38-1,15,15,0,0,0,6.38,1.46c4,0,6.66-2.3,6.66-5.49s-2.18-5-6.33-6.66c-5.71-2.24-9.24-4.82-9.24-9.69,0-4.24,2.76-7.56,7.16-8.74a1.74,1.74,0,0,0,1.3-1.67v-2.52a1.74,1.74,0,0,1,1.74-1.74h0a1.74,1.74,0,0,1,1.74,1.74v2.09a1.74,1.74,0,0,0,1.56,1.72,15,15,0,0,1,4.25,1.1,1.73,1.73,0,0,1,.92,2.2l-.17.44a1.72,1.72,0,0,1-2.29,1,13.57,13.57,0,0,0-5.44-1.09c-4.31,0-5.94,2.58-5.94,4.82,0,2.91,2.07,4.37,6.95,6.38,5.77,2.35,8.68,5.26,8.68,10.25,0,4.08-2.62,7.93-7.57,9.25a1.73,1.73,0,0,0-1.28,1.67V195a1.74,1.74,0,0,1-1.74,1.74h-.06A1.74,1.74,0,0,1,241.75,195Z"/><path class="cls-7" d="M350.81,172.61H269a1,1,0,0,1,0-2h81.81a1,1,0,0,1,0,2Z"/><path class="cls-7" d="M303.81,185.29H269a1,1,0,0,1,0-2h34.81a1,1,0,0,1,0,2Z"/><path class="cls-7" d="M329.55,215.93H247.74a1,1,0,0,1,0-2h81.81a1,1,0,0,1,0,2Z"/><path class="cls-7" d="M307.15,229.33h-37a1,1,0,0,1,0-2h37a1,1,0,0,1,0,2Z"/><circle class="cls-8" cx="288.65" cy="298.75" r="14.25"/><path class="cls-7" d="M288.65,314a15.25,15.25,0,1,1,15.25-15.25A15.27,15.27,0,0,1,288.65,314Zm0-28.5a13.25,13.25,0,1,0,13.25,13.25A13.27,13.27,0,0,0,288.65,285.5Z"/><circle class="cls-6" cx="288.65" cy="298.75" r="6.28"/><path class="cls-7" d="M288.65,306a7.28,7.28,0,1,1,7.28-7.28A7.29,7.29,0,0,1,288.65,306Zm0-12.56a5.28,5.28,0,1,0,5.28,5.28A5.29,5.29,0,0,0,288.65,293.47Z"/><path class="cls-7" d="M339.14,366.79H200.81a1,1,0,1,1,0-2H339.14a1,1,0,0,1,0,2Z"/><path class="cls-7" d="M364.81,378h-48a1,1,0,0,1,0-2h48a1,1,0,0,1,0,2Z"/><circle class="cls-6" cx="361.14" cy="140.14" r="20.52"/><path class="cls-7" d="M361.14,161.67a21.52,21.52,0,1,1,21.52-21.52A21.55,21.55,0,0,1,361.14,161.67Zm0-41a19.52,19.52,0,1,0,19.52,19.52A19.55,19.55,0,0,0,361.14,120.62Z"/><path class="cls-7" d="M359.14,148.5a1,1,0,0,1-.71-1.71l12.92-12.92a1,1,0,0,1,1.41,1.41l-12.92,12.92A1,1,0,0,1,359.14,148.5Z"/><path class="cls-7" d="M359.14,148.5a1,1,0,0,1-.76-.35l-8.5-10a1,1,0,1,1,1.52-1.29l8.5,10a1,1,0,0,1-.76,1.65Z"/></svg>