<svg id="Layer_1" data-name="Layer 1" xmlns="http://www.w3.org/2000/svg" viewBox="0 0 550 450"><defs><style>.cls-1{fill:#e9e9e9;}.cls-2{fill:#f5f5f5;}.cls-3{fill:#8a8e91;}.cls-4{fill:#c4c4c4;}.cls-5{fill:#d0dbf7;}.cls-6{fill:#dae2f7;}</style></defs><title>Overseer</title><circle class="cls-1" cx="197.9" cy="189.55" r="2.39"/><circle class="cls-1" cx="61.59" cy="202.86" r="0.77"/><circle class="cls-1" cx="54" cy="237.06" r="0.77"/><circle class="cls-1" cx="193.64" cy="160.53" r="0.77" transform="translate(-57.69 150.65) rotate(-37.41)"/><circle class="cls-1" cx="161.86" cy="175.27" r="0.77" transform="translate(-73.19 134.37) rotate(-37.41)"/><circle class="cls-1" cx="124.54" cy="195.84" r="0.77" transform="translate(-93.36 115.93) rotate(-37.41)"/><path class="cls-1" d="M98.38,181.09h-1v-1a1,1,0,0,0-1.91,0v1h-1a1,1,0,1,0,0,1.91h1v1a1,1,0,1,0,1.91,0v-1h1a1,1,0,1,0,0-1.91Z"/><circle class="cls-1" cx="526.71" cy="225.54" r="2.39" transform="translate(98.47 606.21) rotate(-64.82)"/><circle class="cls-1" cx="397.7" cy="179.58" r="0.77" transform="translate(65.95 463.06) rotate(-64.82)"/><circle class="cls-1" cx="376.27" cy="207.3" r="0.77" transform="translate(28.56 459.59) rotate(-64.82)"/><circle class="cls-1" cx="535.2" cy="197.47" r="0.77" transform="translate(-29.68 117.79) rotate(-12.22)"/><circle class="cls-1" cx="500.17" cy="197.28" r="0.77" transform="translate(-30.43 110.37) rotate(-12.22)"/><circle class="cls-1" cx="457.64" cy="200.02" r="0.77" transform="translate(-31.97 101.43) rotate(-12.22)"/><path class="cls-1" d="M440.26,175.54l-.89-.42.42-.89a1,1,0,1,0-1.73-.81l-.42.89-.89-.42a1,1,0,1,0-.81,1.73l.89.42-.42.89a1,1,0,0,0,1.73.81l.42-.89.89.42a1,1,0,0,0,.81-1.73Z"/><circle class="cls-1" cx="142.38" cy="312.04" r="2.39"/><circle class="cls-1" cx="138.12" cy="283.02" r="0.77" transform="translate(-143.52 142.11) rotate(-37.41)"/><circle class="cls-1" cx="106.34" cy="297.76" r="0.77" transform="translate(-159.01 125.84) rotate(-37.41)"/><circle class="cls-1" cx="69.01" cy="318.33" r="0.77" transform="translate(-179.19 107.4) rotate(-37.41)"/><circle class="cls-1" cx="520.04" cy="284.17" r="2.39"/><circle class="cls-1" cx="515.77" cy="255.15" r="0.77" transform="matrix(0.79, -0.61, 0.61, 0.79, -48.92, 365.8)"/><circle class="cls-1" cx="483.99" cy="269.89" r="0.77" transform="translate(-64.41 349.53) rotate(-37.41)"/><circle class="cls-1" cx="446.67" cy="290.47" r="0.77" transform="translate(-84.59 331.09) rotate(-37.41)"/><path class="cls-1" d="M420.52,275.71h-1v-1a1,1,0,1,0-1.91,0v1h-1a1,1,0,1,0,0,1.91h1v1a1,1,0,0,0,1.91,0v-1h1a1,1,0,1,0,0-1.91Z"/><circle class="cls-1" cx="173.78" cy="249.3" r="0.77"/><circle class="cls-1" cx="236.72" cy="242.29" r="0.77" transform="translate(-98.5 193.63) rotate(-37.41)"/><path class="cls-1" d="M210.57,227.53h-1v-1a1,1,0,1,0-1.91,0v1h-1a1,1,0,1,0,0,1.91h1v1a1,1,0,0,0,1.91,0v-1h1a1,1,0,0,0,0-1.91Z"/><circle class="cls-1" cx="289.15" cy="228.95" r="2.39" transform="translate(-43.01 68.65) rotate(-12.61)"/><circle class="cls-1" cx="311.66" cy="196.62" r="0.77"/><path class="cls-1" d="M334.06,219.32h-1v-1a1,1,0,1,0-1.91,0v1h-1a1,1,0,1,0,0,1.91h1v1a1,1,0,0,0,1.91,0v-1h1a1,1,0,1,0,0-1.91Z"/><circle class="cls-1" cx="317.21" cy="182.55" r="2.39"/><circle class="cls-1" cx="312.95" cy="153.53" r="0.77" transform="translate(-28.9 221.69) rotate(-37.41)"/><circle class="cls-1" cx="281.17" cy="168.27" r="0.77" transform="matrix(0.79, -0.61, 0.61, 0.79, -44.4, 205.41)"/><circle class="cls-1" cx="198.32" cy="34.59" r="2.39"/><circle class="cls-1" cx="62.02" cy="145.81" r="2.39"/><circle class="cls-1" cx="237.22" cy="96.72" r="2.39"/><circle class="cls-1" cx="313.66" cy="32.83" r="2.39"/><circle class="cls-1" cx="452.31" cy="25.61" r="2.39" transform="translate(5.32 99.36) rotate(-12.61)"/><circle class="cls-1" cx="430.58" cy="103.01" r="2.39" transform="translate(-12.1 96.48) rotate(-12.61)"/><circle class="cls-1" cx="62.02" cy="47.9" r="0.77"/><circle class="cls-1" cx="113.68" cy="100.7" r="0.77"/><circle class="cls-1" cx="54.42" cy="82.1" r="0.77"/><circle class="cls-1" cx="91.72" cy="101.66" r="0.77"/><circle class="cls-1" cx="48.09" cy="124.24" r="0.77"/><circle class="cls-1" cx="102.12" cy="146.59" r="0.77"/><circle class="cls-1" cx="38.08" cy="167.11" r="0.77"/><circle class="cls-1" cx="77.22" cy="177.81" r="0.77"/><circle class="cls-1" cx="49.39" cy="196.12" r="0.77"/><circle class="cls-1" cx="194.06" cy="5.57" r="0.77" transform="translate(36.53 119.04) rotate(-37.41)"/><circle class="cls-1" cx="162.28" cy="20.31" r="0.77" transform="translate(21.04 102.76) rotate(-37.41)"/><circle class="cls-1" cx="124.96" cy="40.88" r="0.77" transform="translate(0.87 84.32) rotate(-37.41)"/><circle class="cls-1" cx="518.67" cy="47.14" r="0.77"/><circle class="cls-1" cx="496.71" cy="48.09" r="0.77"/><circle class="cls-1" cx="515.57" cy="85.22" r="0.77"/><circle class="cls-1" cx="453.09" cy="70.67" r="0.77"/><circle class="cls-1" cx="418" cy="28.77" r="0.77"/><circle class="cls-1" cx="396.19" cy="4.79" r="0.77"/><circle class="cls-1" cx="368.66" cy="21.55" r="0.77"/><circle class="cls-1" cx="253.89" cy="16.29" r="0.77"/><circle class="cls-1" cx="284.61" cy="2.13" r="0.77"/><circle class="cls-1" cx="500.29" cy="118.32" r="0.77"/><circle class="cls-1" cx="503.65" cy="352.65" r="0.77" transform="translate(67.82 786.33) rotate(-79.86)"/><path class="cls-1" d="M98.81,26.12h-1v-1a1,1,0,1,0-1.91,0v1h-1a1,1,0,0,0,0,1.91h1v1a1,1,0,0,0,1.91,0V28h1a1,1,0,0,0,0-1.91Z"/><path class="cls-1" d="M475.49,93.38h-1v-1a1,1,0,1,0-1.91,0v1h-1a1,1,0,1,0,0,1.91h1v1a1,1,0,1,0,1.91,0v-1h1a1,1,0,1,0,0-1.91Z"/><path class="cls-1" d="M317,8.28h-1v-1a1,1,0,0,0-1.91,0v1h-1a1,1,0,0,0,0,1.91h1v1a1,1,0,0,0,1.91,0v-1h1a1,1,0,1,0,0-1.91Z"/><path class="cls-1" d="M88.8,127.91h-1v-1a1,1,0,0,0-1.91,0v1h-1a1,1,0,0,0,0,1.91h1v1a1,1,0,1,0,1.91,0v-1h1a1,1,0,0,0,0-1.91Z"/><path class="cls-2" d="M3.19,449.69c0-76.11,122-137.81,272.43-137.81S548,373.58,548,449.69"/><path class="cls-3" d="M548,450.65a1,1,0,0,1-1-1c0-75.46-121.78-136.86-271.47-136.86S4.15,374.23,4.15,449.69a1,1,0,1,1-1.91,0c0-37.19,28.52-72.1,80.32-98.3,51.59-26.1,120.15-40.47,193.06-40.47s141.48,14.37,193.07,40.47c51.79,26.2,80.31,61.11,80.31,98.3A1,1,0,0,1,548,450.65Z"/><circle class="cls-2" cx="108.59" cy="218.45" r="40.42"/><path class="cls-3" d="M108.59,259.82A41.37,41.37,0,1,1,150,218.45,41.42,41.42,0,0,1,108.59,259.82Zm0-80.83a39.46,39.46,0,1,0,39.46,39.46A39.51,39.51,0,0,0,108.59,179Z"/><circle class="cls-1" cx="94.38" cy="196.82" r="2.39"/><circle class="cls-1" cx="83.46" cy="204.3" r="1.69"/><circle class="cls-1" cx="87.53" cy="220.83" r="4.46"/><path class="cls-3" d="M108.78,240.29c-31.77,0-64.62-6-64.62-16,0-6.9,15.2-10.86,24.26-12.6a1,1,0,1,1,.36,1.88c-14,2.69-22.71,6.8-22.71,10.72,0,6.8,25.2,14.08,62.71,14.08s62.71-7.28,62.71-14.08c0-4-8.85-8.1-23.09-10.8a1,1,0,0,1,.36-1.88c9.2,1.74,24.64,5.71,24.64,12.67C173.4,234.31,140.55,240.29,108.78,240.29Z"/><path class="cls-3" d="M133.11,235.93a1,1,0,0,1-.79-1.49,28.46,28.46,0,0,0,4.89-16,1,1,0,0,1,1.91,0,30.37,30.37,0,0,1-5.21,17.06A1,1,0,0,1,133.11,235.93Z"/><path class="cls-3" d="M132.71,201.65a1,1,0,0,1-.77-.39,29.3,29.3,0,0,0-9.46-8.27,1,1,0,0,1,.92-1.68,31.22,31.22,0,0,1,10.09,8.81,1,1,0,0,1-.77,1.52Z"/><path class="cls-3" d="M274.29,357.37c-11.78,0-21-4.61-21-10.5s9.23-10.5,21-10.5,21,4.61,21,10.5S286.07,357.37,274.29,357.37Zm0-19.1c-10.35,0-19.1,3.94-19.1,8.59s8.75,8.59,19.1,8.59,19.1-3.94,19.1-8.59S284.64,338.27,274.29,338.27Z"/><path class="cls-3" d="M447.55,398.21a25.58,25.58,0,0,1-6.74-1,23,23,0,0,1-8.77-4.41c-2.35-2-3.35-4.25-2.81-6.22,1.07-3.87,7.83-5.27,15.39-3.18s12.65,6.76,11.58,10.63C455.48,396.72,452.06,398.21,447.55,398.21Zm-9.64-13.83c-3.76,0-6.39,1.14-6.83,2.74-.33,1.21.47,2.76,2.22,4.27a21,21,0,0,0,8,4c6.86,1.9,12.38.55,13-1.84s-3.38-6.38-10.25-8.28A23.55,23.55,0,0,0,437.91,384.38Z"/><path class="cls-3" d="M173.77,402.35c-5.7,0-10.09-2.1-10.4-5.21-.18-1.82,1-3.6,3.37-5a22,22,0,0,1,16.7-1.66c2.59.93,4.11,2.44,4.29,4.26h0c.35,3.53-4.72,6.83-11.55,7.51C175.35,402.31,174.55,402.35,173.77,402.35Zm3.59-10.93c-.73,0-1.48,0-2.24.11a18.09,18.09,0,0,0-7.39,2.22c-1.66,1-2.56,2.17-2.46,3.2.21,2.08,4.66,4,10.72,3.38s10-3.34,9.84-5.42h0c-.1-1-1.21-2-3-2.65A16.34,16.34,0,0,0,177.35,391.42Z"/><polyline class="cls-2" points="348.38 333.92 361.99 307.26 408.06 319.26 407.83 345.91"/><path class="cls-3" d="M407.83,346.86h0a1,1,0,0,1-.95-1L407.1,320l-44.61-11.61-13.25,26a1,1,0,1,1-1.7-.87l14-27.34L409,318.52l-.24,27.4A1,1,0,0,1,407.83,346.86Z"/><ellipse class="cls-2" cx="384.33" cy="316.72" rx="12.63" ry="25.16" transform="translate(-23.31 602.81) rotate(-74.55)"/><path class="cls-3" d="M393,331.58a46.85,46.85,0,0,1-12.34-1.76c-14.11-3.9-23.58-12.71-21.55-20.05s14.68-10,28.79-6.14c6.62,1.83,12.5,4.85,16.55,8.52,4.23,3.82,6,7.92,5,11.53h0c-1,3.62-4.63,6.22-10.22,7.33A32.18,32.18,0,0,1,393,331.58ZM375.67,303.8c-7.63,0-13.54,2.34-14.68,6.47-1.69,6.1,7.58,14.21,20.22,17.7,6.34,1.75,12.62,2.16,17.69,1.16,4.84-1,7.95-3.08,8.75-6h0c.8-2.89-.78-6.3-4.44-9.61-3.84-3.47-9.44-6.34-15.78-8.09A44.67,44.67,0,0,0,375.67,303.8Z"/><polyline class="cls-2" points="61.17 373.38 56.54 351.5 88.94 336.79 101.34 352.39"/><path class="cls-3" d="M61.17,374.34a1,1,0,0,1-.93-.76l-4.79-22.63,33.78-15.33,12.87,16.18A1,1,0,1,1,100.6,353L88.66,338l-31,14.08,4.48,21.13a1,1,0,0,1-.74,1.13Z"/><ellipse class="cls-2" cx="73.96" cy="346.49" rx="18.81" ry="9.44" transform="translate(-132.3 58.42) rotate(-23.55)"/><path class="cls-3" d="M65.53,358.92c-4.74,0-8.38-1.54-9.68-4.53-1.16-2.66-.26-6,2.52-9.31A31.31,31.31,0,0,1,69.81,337a31.27,31.27,0,0,1,13.73-2.86c4.35.24,7.38,1.83,8.54,4.49h0c2.33,5.34-3.8,13-14,17.43A32.32,32.32,0,0,1,65.53,358.92ZM82.39,336a30.45,30.45,0,0,0-11.82,2.73,29.39,29.39,0,0,0-10.73,7.58c-2.3,2.76-3.1,5.36-2.24,7.33,1.84,4.22,10.89,4.51,19.75.65s14.81-10.7,13-14.91c-.86-2-3.3-3.15-6.89-3.35Z"/><circle class="cls-4" cx="129.73" cy="373.11" r="2.39" transform="translate(-233.64 218.17) rotate(-47.73)"/><circle class="cls-4" cx="103.49" cy="395.44" r="0.77" transform="translate(-208.67 131.54) rotate(-35.12)"/><circle class="cls-4" cx="71.85" cy="388.37" r="0.77" transform="translate(-210.36 112.06) rotate(-35.12)"/><circle class="cls-4" cx="424.94" cy="371.2" r="2.39"/><circle class="cls-4" cx="234.74" cy="390.05" r="4.46"/><circle class="cls-4" cx="331.52" cy="359.61" r="4.46"/><circle class="cls-4" cx="367.56" cy="394.67" r="4.46"/><circle class="cls-4" cx="495.38" cy="399.13" r="4.46"/><circle class="cls-4" cx="197.98" cy="334.02" r="2.39" transform="translate(-147.81 157.4) rotate(-32.29)"/><circle class="cls-4" cx="319.61" cy="329.52" r="2.39" transform="translate(-126.6 221.67) rotate(-32.29)"/><circle class="cls-4" cx="294.35" cy="387.27" r="2.39" transform="translate(-161.35 217.1) rotate(-32.29)"/><circle class="cls-4" cx="475.83" cy="379.12" r="2.39" transform="translate(-128.94 312.78) rotate(-32.29)"/><circle class="cls-1" cx="382.78" cy="343.85" r="0.77"/><circle class="cls-1" cx="375.18" cy="378.05" r="0.77"/><circle class="cls-1" cx="412.47" cy="397.61" r="0.77"/><circle class="cls-1" cx="316" cy="346.23" r="0.77"/><circle class="cls-1" cx="308.41" cy="380.43" r="0.77"/><circle class="cls-1" cx="345.7" cy="399.99" r="0.77"/><circle class="cls-1" cx="223.69" cy="337.19" r="0.77"/><circle class="cls-1" cx="216.09" cy="371.39" r="0.77"/><circle class="cls-1" cx="253.39" cy="390.95" r="0.77"/><path class="cls-5" d="M282.52,49.56h-.59l-16.6,23a43.93,43.93,0,0,0-7.62,24.72V213.56a25.81,25.81,0,0,0,25.73,25.73h0a25.81,25.81,0,0,0,25.73-25.73V98.79a43.93,43.93,0,0,0-10.06-28Z"/><path class="cls-3" d="M283.45,240.25a26.72,26.72,0,0,1-26.69-26.69V97.27A44.71,44.71,0,0,1,264.54,72l16.9-23.4H283l16.88,21.61a45,45,0,0,1,10.27,28.57V213.56A26.72,26.72,0,0,1,283.45,240.25Zm-1.2-189.49L266.1,73.11a42.79,42.79,0,0,0-7.43,24.16V213.56a24.78,24.78,0,0,0,49.56,0V98.79a43.07,43.07,0,0,0-9.85-27.37Z"/><path class="cls-2" d="M257.49,233.23H234.57V127a11.46,11.46,0,0,1,3.36-8.1l5.4-5.4a3.82,3.82,0,0,1,5.4,0l5.4,5.4a11.46,11.46,0,0,1,3.36,8.1Z"/><path class="cls-3" d="M258.45,234.18H233.61V127a12.33,12.33,0,0,1,3.64-8.78l5.4-5.4a4.78,4.78,0,0,1,6.75,0l5.4,5.4a12.33,12.33,0,0,1,3.64,8.78Zm-22.92-1.91h21V127a10.44,10.44,0,0,0-3.08-7.43l-5.4-5.4a2.87,2.87,0,0,0-4.05,0l-5.4,5.4a10.44,10.44,0,0,0-3.08,7.43Z"/><path class="cls-2" d="M332,233.23H309.1V127a11.46,11.46,0,0,1,3.36-8.1l5.4-5.4a3.82,3.82,0,0,1,5.4,0l5.4,5.4A11.46,11.46,0,0,1,332,127Z"/><path class="cls-3" d="M333,234.18H308.15V127a12.34,12.34,0,0,1,3.64-8.78l5.4-5.4a4.77,4.77,0,0,1,6.75,0l5.4,5.4A12.34,12.34,0,0,1,333,127Zm-22.92-1.91h21V127A10.44,10.44,0,0,0,328,119.6l-5.4-5.4a2.93,2.93,0,0,0-4.05,0l-5.4,5.4a10.44,10.44,0,0,0-3.08,7.43Z"/><rect class="cls-2" x="234.57" y="127.03" width="22.92" height="4.34"/><path class="cls-3" d="M258.45,132.33H233.61v-6.25h24.83Zm-22.92-1.91h21V128h-21Z"/><rect class="cls-2" x="309.18" y="127.03" width="22.92" height="4.34"/><path class="cls-3" d="M333.06,132.33H308.23v-6.25h24.83Zm-22.92-1.91h21V128h-21Z"/><path class="cls-3" d="M310.06,105.27h-53.3V95.72h53.3Zm-51.39-1.91h49.48V97.63H258.67Z"/><rect class="cls-3" x="234.57" y="153.34" width="22.92" height="1.91"/><rect class="cls-3" x="234.57" y="176.02" width="22.92" height="1.91"/><rect class="cls-3" x="234.57" y="200.14" width="22.92" height="1.91"/><rect class="cls-3" x="309.18" y="153.34" width="22.92" height="1.91"/><rect class="cls-3" x="309.18" y="176.02" width="22.92" height="1.91"/><rect class="cls-3" x="309.18" y="200.14" width="22.92" height="1.91"/><circle class="cls-3" cx="237.78" cy="134.72" r="0.9"/><circle class="cls-3" cx="253.85" cy="134.72" r="0.9"/><circle class="cls-3" cx="237.99" cy="151.19" r="0.9"/><circle class="cls-3" cx="254.07" cy="151.19" r="0.9"/><circle class="cls-3" cx="237.99" cy="157.4" r="0.9"/><circle class="cls-3" cx="254.07" cy="157.4" r="0.9"/><circle class="cls-3" cx="237.99" cy="173.95" r="0.9"/><circle class="cls-3" cx="254.07" cy="173.95" r="0.9"/><circle class="cls-3" cx="237.99" cy="180.16" r="0.9"/><circle class="cls-3" cx="254.07" cy="180.16" r="0.9"/><circle class="cls-3" cx="237.99" cy="197.99" r="0.9"/><circle class="cls-3" cx="254.07" cy="197.99" r="0.9"/><circle class="cls-3" cx="312.42" cy="134.6" r="0.9"/><circle class="cls-3" cx="328.49" cy="134.6" r="0.9"/><circle class="cls-3" cx="312.63" cy="151.07" r="0.9"/><circle class="cls-3" cx="328.71" cy="151.07" r="0.9"/><circle class="cls-3" cx="312.63" cy="157.28" r="0.9"/><circle class="cls-3" cx="328.71" cy="157.28" r="0.9"/><circle class="cls-3" cx="312.63" cy="173.84" r="0.9"/><circle class="cls-3" cx="328.71" cy="173.84" r="0.9"/><circle class="cls-3" cx="312.63" cy="180.04" r="0.9"/><circle class="cls-3" cx="328.71" cy="180.04" r="0.9"/><circle class="cls-3" cx="312.63" cy="197.87" r="0.9"/><circle class="cls-3" cx="328.71" cy="197.87" r="0.9"/><path class="cls-5" d="M261.06,178.63l-39.31,30.78a5.57,5.57,0,0,0,3.43,10h44.88V183A5.57,5.57,0,0,0,261.06,178.63Z"/><path class="cls-3" d="M271,220.32H224.46a6.27,6.27,0,0,1-3.87-11.21l40.29-31.55A6.27,6.27,0,0,1,271,182.5Zm-9-41.26-40.29,31.55a4.36,4.36,0,0,0,2.69,7.8h44.65V182.5a4.36,4.36,0,0,0-7.05-3.44Z"/><path class="cls-5" d="M306.45,178.63l39.31,30.78a5.57,5.57,0,0,1-3.43,10H297.45V183A5.57,5.57,0,0,1,306.45,178.63Z"/><path class="cls-3" d="M343.05,220.32H296.49V182.5a6.27,6.27,0,0,1,10.14-4.94l40.29,31.55a6.27,6.27,0,0,1-3.87,11.21Zm-44.65-1.91h44.65a4.36,4.36,0,0,0,2.69-7.8l-40.29-31.55a4.36,4.36,0,0,0-7.05,3.44Z"/><path class="cls-2" d="M313.44,219.36h14.33a4.34,4.34,0,0,1,4.34,4.34v3.95a0,0,0,0,1,0,0h-23a0,0,0,0,1,0,0V223.7a4.34,4.34,0,0,1,4.34-4.34Z" transform="translate(641.2 447) rotate(180)"/><path class="cls-3" d="M328,228.6H313.24a5.1,5.1,0,0,1-5.1-5.1v-5.1h24.91v5.1A5.1,5.1,0,0,1,328,228.6Zm-17.91-8.28v3.19a3.19,3.19,0,0,0,3.19,3.19H328a3.19,3.19,0,0,0,3.19-3.19v-3.19Z"/><path class="cls-2" d="M276.09,161.57l-54.26,42.27a5.57,5.57,0,0,0,3.42,10h54.26a5.57,5.57,0,0,0,5.57-5.57V166A5.57,5.57,0,0,0,276.09,161.57Z"/><path class="cls-3" d="M279.76,214.75H224.52a6.27,6.27,0,0,1-3.85-11.22l55.24-43A6.27,6.27,0,0,1,286,165.45v43A6.28,6.28,0,0,1,279.76,214.75Zm0-53.68a4.31,4.31,0,0,0-2.66.94l-55.24,43a4.36,4.36,0,0,0,2.68,7.81h55.24a4.37,4.37,0,0,0,4.36-4.36v-43a4.28,4.28,0,0,0-2.45-3.92A4.39,4.39,0,0,0,279.74,161.07Zm-3.25.18h0Z"/><path class="cls-2" d="M294.1,163.59l51.16,40.26a5.57,5.57,0,0,1-3.44,9.95H290.65a5.57,5.57,0,0,1-5.57-5.57V168A5.57,5.57,0,0,1,294.1,163.59Z"/><path class="cls-3" d="M342.53,214.75H290.4a6.28,6.28,0,0,1-6.27-6.27v-41a6.27,6.27,0,0,1,10.15-4.93l52.13,41a6.27,6.27,0,0,1-3.88,11.2Zm-52.11-51.67a4.41,4.41,0,0,0-1.93.45,4.28,4.28,0,0,0-2.46,3.93v41a4.37,4.37,0,0,0,4.36,4.36h52.13a4.36,4.36,0,0,0,2.7-7.79L293.1,164h0A4.31,4.31,0,0,0,290.42,163.08Z"/><path class="cls-2" d="M295.76,108.85l-7.61-12.42a5.15,5.15,0,0,0-8.77,0l-7.61,12.42a11.46,11.46,0,0,0-1.69,6v99h27.38v-99A11.46,11.46,0,0,0,295.76,108.85Z"/><path class="cls-3" d="M298.4,214.75H269.11V114.84a12.41,12.41,0,0,1,1.83-6.49l7.61-12.42a6.1,6.1,0,0,1,10.4,0l7.61,12.42a12.41,12.41,0,0,1,1.83,6.49ZM271,212.84h25.47v-98a10.5,10.5,0,0,0-1.55-5.49l-7.61-12.42a4.19,4.19,0,0,0-7.15,0l-7.61,12.42a10.5,10.5,0,0,0-1.55,5.49Z"/><path class="cls-2" d="M275.6,116.82a8.16,8.16,0,1,1,16.31,0"/><path class="cls-3" d="M291.91,117.78a1,1,0,0,1-1-1,7.2,7.2,0,1,0-14.4,0,1,1,0,0,1-1.91,0,9.11,9.11,0,1,1,18.22,0A1,1,0,0,1,291.91,117.78Z"/><path class="cls-2" d="M234.57,219.36h22.92a0,0,0,0,1,0,0v3.95a4.34,4.34,0,0,1-4.34,4.34H238.91a4.34,4.34,0,0,1-4.34-4.34v-3.95A0,0,0,0,1,234.57,219.36Z"/><path class="cls-3" d="M253.35,228.6H238.71a5.1,5.1,0,0,1-5.1-5.1v-5.1h24.83v5.1A5.1,5.1,0,0,1,253.35,228.6Zm-17.82-8.28v3.19a3.19,3.19,0,0,0,3.19,3.19h14.64a3.19,3.19,0,0,0,3.19-3.19v-3.19Z"/><rect class="cls-5" x="270.07" y="213.8" width="27.38" height="5.57"/><path class="cls-3" d="M298.4,220.32H269.11v-7.48H298.4ZM271,218.41h25.47v-3.66H271Z"/><rect class="cls-2" x="281.52" y="196.84" width="4.47" height="32.47" rx="2.19" ry="2.19"/><path class="cls-3" d="M283.76,230.27a3.19,3.19,0,0,1-3.19-3.19v-28a3.19,3.19,0,1,1,6.38,0v28A3.19,3.19,0,0,1,283.76,230.27Zm0-32.47a1.28,1.28,0,0,0-1.28,1.28v28a1.28,1.28,0,1,0,2.56,0v-28A1.28,1.28,0,0,0,283.76,197.8Z"/><polygon class="cls-6" points="269.09 168.32 262 173.8 261.99 212.84 269.09 212.84 269.09 168.32"/><rect class="cls-3" x="236.99" y="191.28" width="1.91" height="22.52"/><rect class="cls-3" x="253.05" y="178.77" width="1.91" height="35.03"/><rect class="cls-3" x="328.52" y="191.4" width="1.91" height="22.95"/><rect class="cls-3" x="312.46" y="178.34" width="1.91" height="36.02"/><path class="cls-3" d="M283.76,197.8a1,1,0,0,1-1-1v-37a1,1,0,1,1,1.91,0v37A1,1,0,0,1,283.76,197.8Z"/><path class="cls-3" d="M283.76,147.72a1,1,0,0,1-1-1V129.14a1,1,0,1,1,1.91,0v17.62A1,1,0,0,1,283.76,147.72Z"/><polygon class="cls-6" points="298.43 168.32 305.51 173.8 305.52 212.84 298.43 212.84 298.43 168.32"/><rect class="cls-3" x="275.82" y="101.26" width="15.87" height="1.91"/><rect class="cls-3" x="265.33" y="71.59" width="33.79" height="1.91"/><rect class="cls-3" x="257.71" y="137.11" width="12.33" height="1.91"/><rect class="cls-3" x="298.55" y="137.11" width="10.55" height="1.91"/><rect class="cls-3" x="257.71" y="162.92" width="13.31" height="1.91"/><rect class="cls-3" x="298.55" y="162.92" width="10.55" height="1.91"/><rect class="cls-3" x="259.26" y="221.38" width="23.21" height="1.91"/><path class="cls-2" d="M242,237h7.6a0,0,0,0,1,0,0v2.21a2.43,2.43,0,0,1-2.43,2.43h-2.74a2.43,2.43,0,0,1-2.43-2.43V237A0,0,0,0,1,242,237Z"/><path class="cls-3" d="M247.32,242.64h-3a3.28,3.28,0,0,1-3.27-3.27v-3.27h9.51v3.27A3.28,3.28,0,0,1,247.32,242.64ZM243,238v1.36a1.36,1.36,0,0,0,1.36,1.36h3a1.36,1.36,0,0,0,1.36-1.36V238Z"/><path class="cls-2" d="M316.76,237h7.6a0,0,0,0,1,0,0v2.21a2.43,2.43,0,0,1-2.43,2.43h-2.74a2.43,2.43,0,0,1-2.43-2.43V237A0,0,0,0,1,316.76,237Z"/><path class="cls-3" d="M322,242.57h-3a3.28,3.28,0,0,1-3.27-3.27V236h9.51v3.27A3.28,3.28,0,0,1,322,242.57Zm-4.32-4.63v1.36a1.36,1.36,0,0,0,1.36,1.36h3a1.36,1.36,0,0,0,1.36-1.36v-1.36Z"/><rect class="cls-3" x="286.94" y="221.38" width="20.69" height="1.91"/><path class="cls-2" d="M313.47,233.23h14.28a0,0,0,0,1,0,0v2.21a2.43,2.43,0,0,1-2.43,2.43h-9.43a2.43,2.43,0,0,1-2.43-2.43v-2.21A0,0,0,0,1,313.47,233.23Z"/><path class="cls-3" d="M325.43,238.82h-9.65a3.27,3.27,0,0,1-3.27-3.27v-3.27h16.19v3.27A3.28,3.28,0,0,1,325.43,238.82Zm-11-4.63v1.36a1.36,1.36,0,0,0,1.36,1.36h9.65a1.36,1.36,0,0,0,1.36-1.36v-1.36Z"/><path class="cls-2" d="M238.89,233.23h14.28a0,0,0,0,1,0,0v2.21a2.43,2.43,0,0,1-2.43,2.43h-9.43a2.43,2.43,0,0,1-2.43-2.43v-2.21a0,0,0,0,1,0,0Z"/><path class="cls-3" d="M250.85,238.82h-9.65a3.28,3.28,0,0,1-3.27-3.27v-3.27h16.19v3.27A3.28,3.28,0,0,1,250.85,238.82Zm-11-4.63v1.36a1.36,1.36,0,0,0,1.36,1.36h9.65a1.36,1.36,0,0,0,1.36-1.36v-1.36Z"/><rect class="cls-5" x="242.04" y="241.68" width="7.6" height="58.1"/><path class="cls-3" d="M250.59,300.74h-9.51v-60h9.51Zm-7.6-1.91h5.69V242.64H243Z"/><path class="cls-5" d="M250.73,290.9c0-.26,0-.53,0-.79a23.75,23.75,0,0,1,46.59-6.54,23.75,23.75,0,1,1-12.46,39.73,23.75,23.75,0,1,1-34.11-32.4Z"/><path class="cls-3" d="M265.54,334.17a24.7,24.7,0,0,1-15.78-43.71c0-.12,0-.23,0-.35A24.71,24.71,0,0,1,298,282.48a24.71,24.71,0,1,1,4,49.09,24.47,24.47,0,0,1-17-6.82A24.78,24.78,0,0,1,265.54,334.17Zm8.92-66.86a22.82,22.82,0,0,0-22.8,22.8c0,.2,0,.4,0,.6l0,.64-.37.3a22.79,22.79,0,1,0,32.74,31.1l.67-.93.8.83A22.79,22.79,0,1,0,302,284.06a22.94,22.94,0,0,0-4.49.44l-.86.17-.24-.85A22.88,22.88,0,0,0,274.46,267.31Z"/><rect class="cls-5" x="316.84" y="241.68" width="7.6" height="58.1"/><path class="cls-3" d="M325.4,300.74h-9.51v-60h9.51Zm-7.6-1.91h5.69V242.64H317.8Z"/><path class="cls-5" d="M352,301.15c.14.22.29.44.43.67A23.75,23.75,0,0,1,316,331.56,23.75,23.75,0,1,1,306,291.13a23.75,23.75,0,1,1,46,10Z"/><path class="cls-3" d="M332.14,338.81a24.74,24.74,0,0,1-16.17-6,24.71,24.71,0,1,1-28.88-39.89,24.47,24.47,0,0,1,18.1-3A24.7,24.7,0,1,1,353.05,301l.19.3a24.67,24.67,0,0,1-21.1,37.49ZM316,330.26l.65.6a22.88,22.88,0,0,0,27.31,2.77,22.8,22.8,0,0,0,7.67-31.31c-.1-.17-.21-.33-.32-.5l-.36-.55.17-.45A22.79,22.79,0,1,0,307,291.2l-.09,1.14-1.11-.3a22.79,22.79,0,1,0,5.93,41.51,23,23,0,0,0,3.61-2.71Z"/><path class="cls-5" d="M263.3,300.76c0-.26,0-.53,0-.79a23.75,23.75,0,0,0-46.59-6.54,23.75,23.75,0,1,0,12.46,39.73,23.75,23.75,0,1,0,34.11-32.4Z"/><path class="cls-3" d="M248.5,344a24.78,24.78,0,0,1-19.4-9.42,24.47,24.47,0,0,1-17,6.82,24.71,24.71,0,1,1,4-49.09A24.71,24.71,0,0,1,264.28,300c0,.12,0,.23,0,.35A24.7,24.7,0,0,1,248.5,344Zm-19.2-12.36.67.93a22.79,22.79,0,1,0,32.74-31.1l-.37-.3,0-.64c0-.2,0-.4,0-.6a22.8,22.8,0,0,0-44.71-6.27l-.24.85-.86-.17a22.8,22.8,0,1,0-4.49,45.15,22.6,22.6,0,0,0,16.45-7Z"/></svg>