<svg id="Layer_1" data-name="Layer 1" xmlns="http://www.w3.org/2000/svg" viewBox="0 0 550 450"><defs><style>.cls-1{opacity:0.18;}.cls-2{fill:#e5e5e5;}.cls-3{opacity:0.42;}.cls-4{opacity:0.5;}.cls-5{fill:#e9e9e9;}.cls-6{fill:#f5f5f5;}.cls-7{fill:#8a8e91;}.cls-8{fill:#d0dbf7;}.cls-9{fill:#dae2f7;}</style></defs><title>Expenses</title><g class="cls-1"><circle class="cls-2" cx="288" cy="224.5" r="186.5"/></g><g class="cls-3"><circle class="cls-2" cx="287.78" cy="224.28" r="161.19"/></g><g class="cls-4"><circle class="cls-2" cx="287.78" cy="224.28" r="141.51"/></g><circle class="cls-5" cx="91" cy="94" r="2.5"/><circle class="cls-5" cx="193.82" cy="51.65" r="2.5"/><circle class="cls-5" cx="51.1" cy="168.12" r="2.5"/><circle class="cls-5" cx="234.54" cy="116.72" r="2.5"/><circle class="cls-5" cx="314.58" cy="49.82" r="2.5"/><circle class="cls-5" cx="85.3" cy="304.5" r="2.5" transform="translate(-172.97 122.03) rotate(-39.11)"/><circle class="cls-5" cx="68.24" cy="380.87" r="2.5" transform="translate(-224.97 128.38) rotate(-39.11)"/><circle class="cls-5" cx="459.76" cy="42.26" r="2.5" transform="translate(1.86 101.39) rotate(-12.61)"/><circle class="cls-5" cx="437" cy="123.3" r="2.5" transform="translate(-16.38 98.37) rotate(-12.61)"/><circle class="cls-5" cx="509.72" cy="224.5" r="2.5" transform="translate(-36.72 116.69) rotate(-12.61)"/><circle class="cls-5" cx="508.4" cy="347.14" r="2.5" transform="translate(-63.52 119.36) rotate(-12.61)"/><circle class="cls-5" cx="51.1" cy="65.59" r="0.81"/><circle class="cls-5" cx="105.19" cy="120.88" r="0.81"/><circle class="cls-5" cx="43.14" cy="101.4" r="0.81"/><circle class="cls-5" cx="82.19" cy="121.88" r="0.81"/><circle class="cls-5" cx="36.51" cy="145.53" r="0.81"/><circle class="cls-5" cx="93.08" cy="168.93" r="0.81"/><circle class="cls-5" cx="26.03" cy="190.42" r="0.81"/><circle class="cls-5" cx="67.01" cy="201.62" r="0.81"/><circle class="cls-5" cx="37.87" cy="220.79" r="0.81"/><circle class="cls-5" cx="80.4" cy="241.08" r="0.81"/><circle class="cls-5" cx="27.63" cy="273.35" r="0.81"/><circle class="cls-5" cx="59.79" cy="305.08" r="0.81"/><circle class="cls-5" cx="32.48" cy="320.22" r="0.81"/><circle class="cls-5" cx="77.91" cy="350.75" r="0.81"/><circle class="cls-5" cx="26.86" cy="384.63" r="0.81"/><circle class="cls-5" cx="189.35" cy="21.27" r="0.81" transform="translate(26.03 119.4) rotate(-37.41)"/><circle class="cls-5" cx="156.08" cy="36.7" r="0.81" transform="translate(9.8 102.36) rotate(-37.41)"/><circle class="cls-5" cx="117" cy="58.24" r="0.81" transform="translate(-11.32 83.06) rotate(-37.41)"/><circle class="cls-5" cx="529.25" cy="64.79" r="0.81"/><circle class="cls-5" cx="506.25" cy="65.79" r="0.81"/><circle class="cls-5" cx="526" cy="104.67" r="0.81"/><circle class="cls-5" cx="460.57" cy="89.44" r="0.81"/><circle class="cls-5" cx="423.83" cy="45.57" r="0.81"/><circle class="cls-5" cx="401" cy="20.46" r="0.81"/><circle class="cls-5" cx="372.17" cy="38" r="0.81"/><circle class="cls-5" cx="335.81" cy="14.17" r="0.81"/><circle class="cls-5" cx="252" cy="32.5" r="0.81"/><circle class="cls-5" cx="284.17" cy="17.67" r="0.81"/><circle class="cls-5" cx="510" cy="139.33" r="0.81"/><circle class="cls-5" cx="490.17" cy="182" r="0.81"/><circle class="cls-5" cx="537.88" cy="214.12" r="0.81"/><circle class="cls-5" cx="515.5" cy="250.75" r="0.81"/><circle class="cls-5" cx="535.56" cy="271.75" r="0.81"/><circle class="cls-5" cx="526.55" cy="302.78" r="0.81" transform="translate(135.78 767.78) rotate(-79.86)"/><circle class="cls-5" cx="532.86" cy="334.76" r="0.81" transform="translate(109.49 800.34) rotate(-79.86)"/><circle class="cls-5" cx="513.52" cy="384.69" r="0.81" transform="translate(44.41 822.44) rotate(-79.86)"/><path class="cls-5" d="M89.62,42.79h-1v-1a1,1,0,0,0-2,0v1h-1a1,1,0,0,0,0,2h1v1a1,1,0,0,0,2,0v-1h1a1,1,0,0,0,0-2Z"/><path class="cls-5" d="M484,113.22h-1v-1a1,1,0,1,0-2,0v1h-1a1,1,0,0,0,0,2h1v1a1,1,0,0,0,2,0v-1h1a1,1,0,0,0,0-2Z"/><path class="cls-5" d="M55.63,250.56h-1v-1a1,1,0,1,0-2,0v1h-1a1,1,0,0,0,0,2h1v1a1,1,0,0,0,2,0v-1h1a1,1,0,0,0,0-2Z"/><path class="cls-5" d="M318.06,24.11h-1v-1a1,1,0,0,0-2,0v1h-1a1,1,0,0,0,0,2h1v1a1,1,0,1,0,2,0v-1h1a1,1,0,0,0,0-2Z"/><path class="cls-5" d="M524.44,180.19h-1v-1a1,1,0,0,0-2,0v1h-1a1,1,0,0,0,0,2h1v1a1,1,0,1,0,2,0v-1h1a1,1,0,0,0,0-2Z"/><path class="cls-5" d="M495,321.45h-1v-1a1,1,0,0,0-2,0v1h-1a1,1,0,0,0,0,2h1v1a1,1,0,0,0,2,0v-1h1a1,1,0,0,0,0-2Z"/><path class="cls-5" d="M79.14,149.37h-1v-1a1,1,0,0,0-2,0v1h-1a1,1,0,1,0,0,2h1v1a1,1,0,0,0,2,0v-1h1a1,1,0,1,0,0-2Z"/><path class="cls-5" d="M30.47,357.5h-1v-1a1,1,0,0,0-2,0v1h-1a1,1,0,1,0,0,2h1v1a1,1,0,0,0,2,0v-1h1a1,1,0,1,0,0-2Z"/><path class="cls-6" d="M254.6,396.65A8,8,0,0,0,262,385.57l-49.89-119.5a8,8,0,0,0-14.76,0l-20.86,50a8,8,0,0,1-14.31.92l-9-15.53a8,8,0,0,0-13.86,0l-48,83.22a8,8,0,0,0,6.93,12H254.6Z"/><path class="cls-7" d="M254.6,397.65H98.22a9,9,0,0,1-7.79-13.5l48-83.22a9,9,0,0,1,15.59,0l9,15.53a7,7,0,0,0,12.52-.8l20.87-50a9,9,0,0,1,16.61,0l49.89,119.5a9,9,0,0,1-8.31,12.47ZM146.26,298.43a6.93,6.93,0,0,0-6.06,3.5l-48,83.22a7,7,0,0,0,6.06,10.5H254.6a7,7,0,0,0,5.83-3.12,6.89,6.89,0,0,0,.63-6.58l-49.89-119.5a7,7,0,0,0-12.92,0l-20.87,50a9,9,0,0,1-16.1,1l-9-15.53A6.93,6.93,0,0,0,146.26,298.43Z"/><path class="cls-6" d="M460.38,286.75a16.47,16.47,0,0,0-25-13.76l-33.2,20.08a2,2,0,0,0-.72.75l-29.22,53.07a8,8,0,0,0,3.15,10.87l45.44,25a8,8,0,0,0,10.87-3.15l29.22-53.07a2,2,0,0,0,.25-1Z"/><path class="cls-7" d="M424.67,384.76a8.91,8.91,0,0,1-4.31-1.11l-45.44-25a9,9,0,0,1-3.54-12.22l29.22-53.07a3,3,0,0,1,1.08-1.12l33.2-20.08a17.47,17.47,0,0,1,26.51,14.6l.79,38.79a3,3,0,0,1-.37,1.51L432.58,380.1a8.94,8.94,0,0,1-5.38,4.29A9.07,9.07,0,0,1,424.67,384.76ZM443.9,271.59a15.42,15.42,0,0,0-8,2.26l-33.2,20.08a1,1,0,0,0-.36.37l-29.22,53.07a7,7,0,0,0,2.76,9.51l45.44,25a7,7,0,0,0,9.51-2.76L460,326.06a1,1,0,0,0,.12-.5l-.79-38.79a15.53,15.53,0,0,0-15.48-15.18Z"/><circle class="cls-8" cx="443.39" cy="288.03" r="6.67" transform="translate(-22.76 537.54) rotate(-61.17)"/><path class="cls-7" d="M443.38,295.7a7.69,7.69,0,1,1,2.15-.31A7.63,7.63,0,0,1,443.38,295.7Zm0-13.34a5.67,5.67,0,1,0,5,8.4h0a5.67,5.67,0,0,0-5-8.4Z"/><path class="cls-7" d="M445.64,331.36a1,1,0,0,1-.48-.12l-38.87-21.4a1,1,0,1,1,1-1.75l38.87,21.4a1,1,0,0,1-.48,1.88Z"/><path class="cls-7" d="M438.22,344.83a1,1,0,0,1-.48-.12l-38.87-21.4a1,1,0,1,1,1-1.75l38.87,21.4a1,1,0,0,1-.48,1.88Z"/><path class="cls-7" d="M423.51,353.28a1,1,0,0,1-.48-.12l-23.43-12.9a1,1,0,1,1,1-1.75L424,351.4a1,1,0,0,1-.48,1.88Z"/><path class="cls-9" d="M231,395.71c4.26,0,7.14-3.29,5.5-6.27l-37.18-67.6c-2-3.71-9-3.71-11,0L172.8,350.11c-1.9,3.46-8.2,3.76-10.66.52l-6.68-8.78c-2.29-3-8-3-10.33,0l-35.8,47.07c-2.29,3,.57,6.79,5.16,6.79H231Z"/><rect class="cls-6" x="225.47" y="135.15" width="177.65" height="261.5" rx="12" ry="12"/><path class="cls-7" d="M391.12,397.65H237.47a13,13,0,0,1-13-13V147.15a13,13,0,0,1,13-13H391.12a13,13,0,0,1,13,13v237.5A13,13,0,0,1,391.12,397.65ZM237.47,136.15a11,11,0,0,0-11,11v237.5a11,11,0,0,0,11,11H391.12a11,11,0,0,0,11-11V147.15a11,11,0,0,0-11-11Z"/><rect class="cls-9" x="232.82" y="162" width="156.34" height="221.03" rx="12" ry="12"/><rect class="cls-8" x="234.51" y="156.04" width="152.34" height="220.42" rx="12" ry="12"/><path class="cls-7" d="M374.86,377.46H246.51a13,13,0,0,1-13-13V168a13,13,0,0,1,13-13H374.86a13,13,0,0,1,13,13V364.46A13,13,0,0,1,374.86,377.46ZM246.51,157a11,11,0,0,0-11,11V364.46a11,11,0,0,0,11,11H374.86a11,11,0,0,0,11-11V168a11,11,0,0,0-11-11Z"/><rect class="cls-6" x="239.42" y="155.69" width="149.74" height="220.42" rx="12" ry="12"/><path class="cls-7" d="M377.16,377.11H251.42a13,13,0,0,1-13-13V167.69a13,13,0,0,1,13-13H377.16a13,13,0,0,1,13,13V364.11A13,13,0,0,1,377.16,377.11ZM251.42,156.69a11,11,0,0,0-11,11V364.11a11,11,0,0,0,11,11H377.16a11,11,0,0,0,11-11V167.69a11,11,0,0,0-11-11Z"/><rect class="cls-9" x="288.7" y="146.35" width="51.18" height="17.83" rx="5.09" ry="5.09"/><rect class="cls-6" x="288.7" y="141.1" width="51.18" height="17.83" rx="5.09" ry="5.09"/><path class="cls-7" d="M334.8,159.93h-41a6.09,6.09,0,0,1-6.08-6.09v-7.66a6.09,6.09,0,0,1,6.08-6.08h41a6.09,6.09,0,0,1,6.08,6.08v7.66A6.09,6.09,0,0,1,334.8,159.93Zm-41-17.83a4.09,4.09,0,0,0-4.08,4.08v7.66a4.09,4.09,0,0,0,4.08,4.09h41a4.09,4.09,0,0,0,4.08-4.09v-7.66a4.09,4.09,0,0,0-4.08-4.08Z"/><path class="cls-6" d="M312,100.4h4.5a12,12,0,0,1,12,12v28.7a0,0,0,0,1,0,0H300a0,0,0,0,1,0,0V112.4A12,12,0,0,1,312,100.4Z"/><path class="cls-7" d="M329.54,142.1H299V112.4a13,13,0,0,1,13-13h4.5a13,13,0,0,1,13,13Zm-28.5-2h26.5V112.4a11,11,0,0,0-11-11H312a11,11,0,0,0-11,11Z"/><circle class="cls-8" cx="314.29" cy="117.86" r="7.28"/><path class="cls-7" d="M314.29,126.15a8.28,8.28,0,1,1,8.28-8.28A8.29,8.29,0,0,1,314.29,126.15Zm0-14.57a6.28,6.28,0,1,0,6.28,6.28A6.29,6.29,0,0,0,314.29,111.58Z"/><path class="cls-7" d="M76.83,368.48a1,1,0,0,1-.38-1.92l3.7-1.53a1,1,0,1,1,.77,1.85l-3.7,1.53A1,1,0,0,1,76.83,368.48Z"/><path class="cls-7" d="M88.24,363.75a1,1,0,0,1-.38-1.92l7.71-3.2a1,1,0,1,1,.77,1.85l-7.71,3.2A1,1,0,0,1,88.24,363.75Zm15.42-6.4a1,1,0,0,1-.38-1.92l7.71-3.2a1,1,0,0,1,.77,1.85l-7.71,3.2A1,1,0,0,1,103.66,357.35Zm15.43-6.4a1,1,0,0,1-.38-1.92l7.71-3.2a1,1,0,1,1,.77,1.85l-7.71,3.2A1,1,0,0,1,119.09,351Zm14.83-7.33a1,1,0,0,1-.79-1.61,7.09,7.09,0,0,0,.78-1.29l2.79-6a1,1,0,1,1,1.81.84l-2.79,6a9.07,9.07,0,0,1-1,1.66A1,1,0,0,1,133.92,343.63Zm7.19-15.06a1,1,0,0,1-.42-.09,1,1,0,0,1-.49-1.33l3.52-7.57a1,1,0,1,1,1.81.84L142,328A1,1,0,0,1,141.11,328.58Zm7-15.15a1,1,0,0,1-.42-.09,1,1,0,0,1-.49-1.33l1.28-2.77a9,9,0,0,1,4.06-4.22,1,1,0,0,1,.91,1.78,7,7,0,0,0-3.16,3.28l-1.28,2.77A1,1,0,0,1,148.14,313.43ZM160.86,304a1,1,0,0,1-.34-1.94l7.85-2.85a1,1,0,1,1,.68,1.88l-7.85,2.85A1,1,0,0,1,160.86,304Zm15.65-5.8a1,1,0,0,1-.5-1.87,7,7,0,0,0,3.13-3.74l.89-2.5a1,1,0,1,1,1.88.67l-.89,2.5a9,9,0,0,1-4,4.8A1,1,0,0,1,176.51,298.2Zm7.27-14.64a1,1,0,0,1-.94-1.33l2.8-7.87a1,1,0,0,1,1.88.67l-2.8,7.87A1,1,0,0,1,183.78,283.56Zm5.6-15.73a1,1,0,0,1-.94-1.33l2.8-7.87a1,1,0,0,1,1.88.67l-2.8,7.87A1,1,0,0,1,189.38,267.83Z"/><path class="cls-7" d="M195,252.08a1,1,0,0,1-.94-1.33l1.34-3.77a1,1,0,0,1,1.88.67l-1.34,3.77A1,1,0,0,1,195,252.08Z"/><path class="cls-7" d="M199.73,235.56l-9.38,7.85a.91.91,0,0,0,.27,1.55l11.49,4.2a.91.91,0,0,0,1.2-1l-2.11-12A.91.91,0,0,0,199.73,235.56Z"/><path class="cls-7" d="M331.5,242.65H259.35a1,1,0,0,1,0-2H331.5a1,1,0,0,1,0,2Z"/><path class="cls-7" d="M362.13,259.17H258a1,1,0,0,1,0-2H362.13a1,1,0,0,1,0,2Z"/><path class="cls-7" d="M300,275.76H258a1,1,0,0,1,0-2H300a1,1,0,0,1,0,2Z"/><path class="cls-7" d="M321.58,302.65h-63.3a1,1,0,0,1,0-2h63.3a1,1,0,0,1,0,2Z"/><path class="cls-7" d="M354.83,319.24H258.27a1,1,0,0,1,0-2h96.55a1,1,0,0,1,0,2Z"/><path class="cls-7" d="M284.83,348.7h-26.1a1,1,0,0,1,0-2h26.1a1,1,0,1,1,0,2Z"/><path class="cls-7" d="M344.54,348.7h-26.1a1,1,0,1,1,0-2h26.1a1,1,0,0,1,0,2Z"/><path class="cls-7" d="M378.88,348.41h-26.1a1,1,0,0,1,0-2h26.1a1,1,0,0,1,0,2Z"/><path class="cls-7" d="M312.2,216v-2.3a1.74,1.74,0,0,0-1.56-1.72,17.27,17.27,0,0,1-5.66-1.57,1.74,1.74,0,0,1-.87-2.15l.17-.47a1.73,1.73,0,0,1,2.38-1,15,15,0,0,0,6.38,1.46c4,0,6.66-2.3,6.66-5.49s-2.18-5-6.33-6.66c-5.71-2.24-9.24-4.82-9.24-9.69,0-4.24,2.76-7.56,7.16-8.74a1.74,1.74,0,0,0,1.3-1.67v-2.52a1.74,1.74,0,0,1,1.74-1.74h0a1.74,1.74,0,0,1,1.74,1.74v2.09a1.74,1.74,0,0,0,1.56,1.72,15,15,0,0,1,4.25,1.1,1.73,1.73,0,0,1,.92,2.2l-.17.44a1.72,1.72,0,0,1-2.29,1,13.57,13.57,0,0,0-5.44-1.09c-4.31,0-5.94,2.58-5.94,4.82,0,2.91,2.07,4.37,6.95,6.38,5.77,2.35,8.68,5.26,8.68,10.25,0,4.08-2.62,7.93-7.57,9.25a1.73,1.73,0,0,0-1.28,1.67V216a1.74,1.74,0,0,1-1.74,1.74h-.06A1.74,1.74,0,0,1,312.2,216Z"/><path class="cls-7" d="M269.94,143.5H242.69a1,1,0,0,1,0-2h27.25a1,1,0,0,1,0,2Z"/><path class="cls-7" d="M384.89,148.59H357.64a1,1,0,0,1,0-2h27.25a1,1,0,0,1,0,2Z"/><path class="cls-7" d="M279,390.67H261.37a1,1,0,0,1,0-2H279a1,1,0,0,1,0,2Z"/></svg>