<svg id="Layer_1" data-name="Layer 1" xmlns="http://www.w3.org/2000/svg" viewBox="0 0 550 450"><defs><style>.cls-1{opacity:0.18;}.cls-2{fill:#e5e5e5;}.cls-3{opacity:0.42;}.cls-4{opacity:0.5;}.cls-5{fill:#f5f5f5;}.cls-6{fill:#8a8e91;}.cls-7{fill:#dae2f7;}.cls-8{fill:#e9e9e9;}.cls-9{fill:#d0dbf7;}</style></defs><title>1_</title><g class="cls-1"><circle class="cls-2" cx="288" cy="224.5" r="186.5"/></g><g class="cls-3"><circle class="cls-2" cx="287.78" cy="224.28" r="161.19"/></g><g class="cls-4"><circle class="cls-2" cx="287.78" cy="224.28" r="141.51"/></g><path class="cls-5" d="M122,202H381.5a0,0,0,0,1,0,0V402a0,0,0,0,1,0,0H122a12,12,0,0,1-12-12V214A12,12,0,0,1,122,202Z"/><path class="cls-6" d="M382.5,403H122a13,13,0,0,1-13-13V214a13,13,0,0,1,13-13H382.5ZM122,203a11,11,0,0,0-11,11V390a11,11,0,0,0,11,11H380.5V203Z"/><path class="cls-5" d="M381.5,202H461a12,12,0,0,1,12,12V390a12,12,0,0,1-12,12H381.5a0,0,0,0,1,0,0V202A0,0,0,0,1,381.5,202Z"/><path class="cls-6" d="M461,403H380.5V201H461a13,13,0,0,1,13,13V390A13,13,0,0,1,461,403Zm-78.5-2H461a11,11,0,0,0,11-11V214a11,11,0,0,0-11-11H382.5Z"/><path class="cls-7" d="M382.5,206.38,453,212c6.6,0,10.75,4.75,13.25,11L472,282.75V293.5H409.33c-6.6,0-10.33-6.58-12-12L382.5,218.38"/><path class="cls-7" d="M111,386.75H380.42a0,0,0,0,1,0,0V401a0,0,0,0,1,0,0h-258A11.39,11.39,0,0,1,111,389.57v-2.82a0,0,0,0,1,0,0Z"/><path class="cls-7" d="M380.48,233.49,367,282.76c-2.25,6.12-6,19.24-19.5,19.24H111V283.5l19.51-.36,40.49.36H343.5l5.52-1.82,4.36-5.87L381,202"/><path class="cls-5" d="M381.29,202H461c6.6,0,10.75,4.75,13.25,11L497,271.5c3,7.42-5.08,12-12,12H417.33c-6.6,0-10.33-6.58-12-12L382.21,202"/><path class="cls-6" d="M485,284.5H417.33c-8.16,0-11.78-8.89-13-12.71L381.49,203h-.2a1,1,0,0,1,0-2H461c6.23,0,11.14,4,14.18,11.63l22.75,58.51a8,8,0,0,1-.65,7.82C494.7,282.79,489.25,284.5,485,284.5ZM383.6,203l22.69,68.18c1.05,3.42,4.22,11.32,11.05,11.32H485c4.41,0,8.78-1.92,10.63-4.66a6.06,6.06,0,0,0,.45-6l-22.75-58.51C470.57,206.49,466.42,203,461,203Z"/><path class="cls-5" d="M381,202l-25.5,69.5c-3.17,6.5-5.4,12-12,12H96c-8.17,0-16.33-2.5-12-12l26-60.75c3.33-6.67,5.4-8.75,12-8.75H381.29"/><path class="cls-6" d="M343.5,284.5H96c-4.66,0-10.73-.79-13.16-4.58-1.47-2.28-1.38-5.25.25-8.83l26-60.73c3.52-7,5.87-9.36,12.92-9.36H381.29a1,1,0,0,1,.45,1.9l-25.34,69-.56,1.16C352.88,279.22,350.33,284.5,343.5,284.5ZM122,203c-6.13,0-7.88,1.75-11.11,8.2l-26,60.7c-1.34,2.94-1.47,5.27-.4,6.94C86,281.2,90.12,282.5,96,282.5H343.5c5.57,0,7.66-4.31,10.54-10.27l.54-1.12,25-68.11Z"/><path class="cls-6" d="M224.5,314h-96a1,1,0,0,1,0-2h96a1,1,0,0,1,0,2Z"/><path class="cls-6" d="M182,325.67H128.5a1,1,0,0,1,0-2H182a1,1,0,0,1,0,2Z"/><path class="cls-6" d="M155.25,337.33H128.5a1,1,0,0,1,0-2h26.75a1,1,0,0,1,0,2Z"/><path class="cls-6" d="M336.09,403H298V359.5a5,5,0,0,1,2.53-4.35l28.09-16a5,5,0,0,1,7.47,4.35ZM300,401h34.09V343.54a3,3,0,0,0-4.48-2.61l-28.09,16A3,3,0,0,0,300,359.5Z"/><path class="cls-6" d="M303,317a5,5,0,0,1-5-5V282.5h38.09V296a5,5,0,0,1-2.53,4.35l-28.09,16A5,5,0,0,1,303,317Zm-3-32.5V312a3,3,0,0,0,4.48,2.61l28.09-16a3,3,0,0,0,1.52-2.61V284.5Z"/><path class="cls-6" d="M144.94,375.07a5,5,0,0,1-1.47-.22L133,371.63a5,5,0,0,1-3.3-6.25l3.22-10.45a5,5,0,0,1,6.25-3.3l10.44,3.22a5,5,0,0,1,3.3,6.25l-3.22,10.45A5,5,0,0,1,144.94,375.07Zm-.88-2.13a3,3,0,0,0,3.75-2L151,360.51a3,3,0,0,0-2-3.75l-10.45-3.22a3,3,0,0,0-3.75,2L131.64,366a3,3,0,0,0,2,3.75Z"/><path class="cls-6" d="M141.77,369.08a5,5,0,0,1-1.47-.22h0l-1.29-.4a5,5,0,0,1-3.3-6.25l.4-1.29a5,5,0,0,1,6.25-3.3l1.29.4a5,5,0,0,1,3.3,6.25l-.4,1.29A5,5,0,0,1,141.77,369.08Zm-.88-2.13a3,3,0,0,0,3.75-2l.4-1.29a3,3,0,0,0-2-3.75l-1.29-.4a3,3,0,0,0-3.75,2l-.4,1.29a3,3,0,0,0,2,3.75Z"/><circle class="cls-8" cx="91" cy="94" r="2.5"/><circle class="cls-8" cx="193.82" cy="51.65" r="2.5"/><circle class="cls-8" cx="51.1" cy="168.12" r="2.5"/><circle class="cls-8" cx="234.54" cy="116.72" r="2.5"/><path class="cls-5" d="M244,90.25H348a12,12,0,0,1,12,12V202a0,0,0,0,1,0,0H232a0,0,0,0,1,0,0V102.25A12,12,0,0,1,244,90.25Z"/><path class="cls-6" d="M361,203H231V102.25a13,13,0,0,1,13-13H348a13,13,0,0,1,13,13Zm-128-2H359V102.25a11,11,0,0,0-11-11H244a11,11,0,0,0-11,11Z"/><path class="cls-7" d="M234,91.25H338a12,12,0,0,1,12,12v97.66a0,0,0,0,1,0,0H222a0,0,0,0,1,0,0V103.25A12,12,0,0,1,234,91.25Z"/><path class="cls-5" d="M228,90.25H332a12,12,0,0,1,12,12V202a0,0,0,0,1,0,0H216a0,0,0,0,1,0,0V102.25A12,12,0,0,1,228,90.25Z"/><path class="cls-6" d="M345,203H215V102.25a13,13,0,0,1,13-13H332a13,13,0,0,1,13,13Zm-128-2H343V102.25a11,11,0,0,0-11-11H228a11,11,0,0,0-11,11Z"/><path class="cls-7" d="M218,91.25H322a12,12,0,0,1,12,12v97.66a0,0,0,0,1,0,0H206a0,0,0,0,1,0,0V103.25A12,12,0,0,1,218,91.25Z"/><path class="cls-5" d="M212,90.25H316a12,12,0,0,1,12,12V202a0,0,0,0,1,0,0H200a0,0,0,0,1,0,0V102.25A12,12,0,0,1,212,90.25Z"/><path class="cls-6" d="M329,203H199V102.25a13,13,0,0,1,13-13H316a13,13,0,0,1,13,13Zm-128-2H327V102.25a11,11,0,0,0-11-11H212a11,11,0,0,0-11,11Z"/><circle class="cls-8" cx="314.58" cy="49.82" r="2.5"/><path class="cls-7" d="M200,91.25H304a12,12,0,0,1,12,12v97.66a0,0,0,0,1,0,0H188a0,0,0,0,1,0,0V103.25A12,12,0,0,1,200,91.25Z"/><path class="cls-5" d="M194,90.25H298a12,12,0,0,1,12,12V202a0,0,0,0,1,0,0H182a0,0,0,0,1,0,0V102.25A12,12,0,0,1,194,90.25Z"/><path class="cls-6" d="M311,203H181V102.25a13,13,0,0,1,13-13H298a13,13,0,0,1,13,13Zm-128-2H309V102.25a11,11,0,0,0-11-11H194a11,11,0,0,0-11,11Z"/><path class="cls-9" d="M259.21,159.24h-8.43V151a4.79,4.79,0,1,0-9.57,0v8.21h-8.43A4.8,4.8,0,0,0,228,164h0a4.8,4.8,0,0,0,4.79,4.79h8.43v8.64a4.79,4.79,0,0,0,9.57,0v-8.64h8.43A4.8,4.8,0,0,0,264,164h0A4.8,4.8,0,0,0,259.21,159.24Z"/><path class="cls-6" d="M246,183.24a5.79,5.79,0,0,1-5.79-5.79v-7.64h-7.43a5.79,5.79,0,1,1,0-11.58h7.43V151a5.79,5.79,0,0,1,11.57,0v7.21h7.43a5.79,5.79,0,0,1,0,11.58h-7.43v7.64A5.79,5.79,0,0,1,246,183.24Zm-13.21-23a3.79,3.79,0,1,0,0,7.58h9.43v9.64a3.79,3.79,0,1,0,7.57,0v-9.64h9.43a3.79,3.79,0,0,0,0-7.58h-9.43V151a3.79,3.79,0,0,0-7.57,0v9.21Z"/><path class="cls-6" d="M269,108.5H196.32a1,1,0,0,1,0-2H269a1,1,0,0,1,0,2Z"/><path class="cls-6" d="M228,122.5H196.32a1,1,0,0,1,0-2H228a1,1,0,0,1,0,2Z"/><path class="cls-6" d="M241,135.5H196.32a1,1,0,0,1,0-2H241a1,1,0,0,1,0,2Z"/><path class="cls-6" d="M260.5,194H194.82a1,1,0,0,1,0-2H260.5a1,1,0,0,1,0,2Z"/><circle class="cls-8" cx="85.3" cy="304.5" r="2.5" transform="translate(-172.97 122.03) rotate(-39.11)"/><circle class="cls-8" cx="68.24" cy="380.87" r="2.5" transform="translate(-224.97 128.38) rotate(-39.11)"/><path class="cls-6" d="M293.83,275.5H107.06c-4.57-.14-9-.64-10.64-3.36-1-1.72-.81-4.06.69-7.13l19.6-45.8a1,1,0,0,1,1.84.79L98.93,265.84c-1.19,2.43-1.44,4.18-.79,5.27,1.15,1.92,5.39,2.29,9,2.4H293.83a1,1,0,0,1,0,2Z"/><path class="cls-6" d="M476.62,277H421.41c-6.78,0-9.78-7.34-10.75-10.5a1,1,0,1,1,1.91-.59c.84,2.73,3.38,9.09,8.84,9.09h55.21c3.54,0,7-1.53,8.52-3.72a4.77,4.77,0,0,0,.35-4.69l-18.57-47.75c-2.21-5.53-5.54-8.34-9.88-8.34a1,1,0,0,1,0-2c5.17,0,9.23,3.32,11.74,9.6l18.57,47.74a6.74,6.74,0,0,1-.55,6.55C484.65,275.58,480.14,277,476.62,277Z"/><path class="cls-7" d="M382.58,386.75H472a0,0,0,0,1,0,0v2.85a11.34,11.34,0,0,1-11.34,11.34H382.58a0,0,0,0,1,0,0V386.75A0,0,0,0,1,382.58,386.75Z"/><circle class="cls-8" cx="459.76" cy="42.26" r="2.5" transform="translate(1.86 101.39) rotate(-12.61)"/><circle class="cls-8" cx="437" cy="123.3" r="2.5" transform="translate(-16.38 98.37) rotate(-12.61)"/><circle class="cls-8" cx="509.72" cy="224.5" r="2.5" transform="translate(-36.72 116.69) rotate(-12.61)"/><circle class="cls-8" cx="508.4" cy="347.14" r="2.5" transform="translate(-63.52 119.36) rotate(-12.61)"/><circle class="cls-8" cx="51.1" cy="65.59" r="0.81"/><circle class="cls-8" cx="105.19" cy="120.88" r="0.81"/><circle class="cls-8" cx="43.14" cy="101.4" r="0.81"/><circle class="cls-8" cx="82.19" cy="121.88" r="0.81"/><circle class="cls-8" cx="36.51" cy="145.53" r="0.81"/><circle class="cls-8" cx="93.08" cy="168.93" r="0.81"/><circle class="cls-8" cx="26.03" cy="190.42" r="0.81"/><circle class="cls-8" cx="67.01" cy="201.62" r="0.81"/><circle class="cls-8" cx="37.87" cy="220.79" r="0.81"/><circle class="cls-8" cx="80.4" cy="241.08" r="0.81"/><circle class="cls-8" cx="27.63" cy="273.35" r="0.81"/><circle class="cls-8" cx="59.79" cy="305.08" r="0.81"/><circle class="cls-8" cx="32.48" cy="320.22" r="0.81"/><circle class="cls-8" cx="77.91" cy="350.75" r="0.81"/><circle class="cls-8" cx="26.86" cy="384.63" r="0.81"/><circle class="cls-8" cx="189.35" cy="21.27" r="0.81" transform="translate(26.03 119.4) rotate(-37.41)"/><circle class="cls-8" cx="156.08" cy="36.7" r="0.81" transform="translate(9.8 102.36) rotate(-37.41)"/><circle class="cls-8" cx="117" cy="58.24" r="0.81" transform="translate(-11.32 83.06) rotate(-37.41)"/><circle class="cls-8" cx="529.25" cy="64.79" r="0.81"/><circle class="cls-8" cx="506.25" cy="65.79" r="0.81"/><circle class="cls-8" cx="526" cy="104.67" r="0.81"/><circle class="cls-8" cx="460.57" cy="89.44" r="0.81"/><circle class="cls-8" cx="423.83" cy="45.57" r="0.81"/><circle class="cls-8" cx="401" cy="20.46" r="0.81"/><circle class="cls-8" cx="372.17" cy="38" r="0.81"/><circle class="cls-8" cx="335.81" cy="14.17" r="0.81"/><circle class="cls-8" cx="252" cy="32.5" r="0.81"/><circle class="cls-8" cx="284.17" cy="17.67" r="0.81"/><circle class="cls-8" cx="510" cy="139.33" r="0.81"/><circle class="cls-8" cx="490.17" cy="182" r="0.81"/><circle class="cls-8" cx="537.88" cy="214.13" r="0.81"/><circle class="cls-8" cx="515.5" cy="250.75" r="0.81"/><circle class="cls-8" cx="535.56" cy="271.75" r="0.81"/><circle class="cls-8" cx="526.55" cy="302.78" r="0.81" transform="translate(135.78 767.78) rotate(-79.86)"/><circle class="cls-8" cx="532.86" cy="334.76" r="0.81" transform="translate(109.49 800.34) rotate(-79.86)"/><circle class="cls-8" cx="513.52" cy="384.69" r="0.81" transform="matrix(0.18, -0.98, 0.98, 0.18, 44.41, 822.44)"/><path class="cls-8" d="M89.62,42.79h-1v-1a1,1,0,0,0-2,0v1h-1a1,1,0,0,0,0,2h1v1a1,1,0,0,0,2,0v-1h1a1,1,0,0,0,0-2Z"/><path class="cls-8" d="M484,113.22h-1v-1a1,1,0,1,0-2,0v1h-1a1,1,0,0,0,0,2h1v1a1,1,0,0,0,2,0v-1h1a1,1,0,0,0,0-2Z"/><path class="cls-8" d="M55.63,250.56h-1v-1a1,1,0,1,0-2,0v1h-1a1,1,0,0,0,0,2h1v1a1,1,0,0,0,2,0v-1h1a1,1,0,0,0,0-2Z"/><path class="cls-8" d="M318.06,24.11h-1v-1a1,1,0,0,0-2,0v1h-1a1,1,0,0,0,0,2h1v1a1,1,0,1,0,2,0v-1h1a1,1,0,0,0,0-2Z"/><path class="cls-8" d="M524.44,180.19h-1v-1a1,1,0,0,0-2,0v1h-1a1,1,0,0,0,0,2h1v1a1,1,0,1,0,2,0v-1h1a1,1,0,0,0,0-2Z"/><path class="cls-8" d="M495,321.45h-1v-1a1,1,0,0,0-2,0v1h-1a1,1,0,0,0,0,2h1v1a1,1,0,0,0,2,0v-1h1a1,1,0,0,0,0-2Z"/><path class="cls-8" d="M79.14,149.37h-1v-1a1,1,0,0,0-2,0v1h-1a1,1,0,1,0,0,2h1v1a1,1,0,0,0,2,0v-1h1a1,1,0,1,0,0-2Z"/><path class="cls-8" d="M30.47,357.5h-1v-1a1,1,0,0,0-2,0v1h-1a1,1,0,1,0,0,2h1v1a1,1,0,0,0,2,0v-1h1a1,1,0,1,0,0-2Z"/></svg>