<svg id="Layer_1" data-name="Layer 1" xmlns="http://www.w3.org/2000/svg" viewBox="0 0 550 450"><defs><style>.cls-1{opacity:0.18;}.cls-2{fill:#e5e5e5;}.cls-3{opacity:0.42;}.cls-4{opacity:0.5;}.cls-5{fill:#e9e9e9;}.cls-6{fill:#f5f5f5;}.cls-7{fill:#8a8e91;}.cls-8{fill:#dae2f7;}.cls-9{fill:#d0dbf7;}</style></defs><title>1_</title><g class="cls-1"><circle class="cls-2" cx="288" cy="224.5" r="186.5"/></g><g class="cls-3"><circle class="cls-2" cx="287.78" cy="224.28" r="161.19"/></g><g class="cls-4"><circle class="cls-2" cx="287.78" cy="224.28" r="141.51"/></g><circle class="cls-5" cx="91" cy="94" r="2.5"/><circle class="cls-5" cx="193.82" cy="51.65" r="2.5"/><circle class="cls-5" cx="51.1" cy="168.12" r="2.5"/><circle class="cls-5" cx="314.58" cy="49.82" r="2.5"/><circle class="cls-5" cx="85.3" cy="304.5" r="2.5" transform="translate(-172.97 122.03) rotate(-39.11)"/><circle class="cls-5" cx="68.24" cy="380.87" r="2.5" transform="translate(-224.97 128.38) rotate(-39.11)"/><circle class="cls-5" cx="459.76" cy="42.26" r="2.5" transform="translate(1.86 101.39) rotate(-12.61)"/><circle class="cls-5" cx="509.72" cy="224.5" r="2.5" transform="translate(-36.72 116.69) rotate(-12.61)"/><circle class="cls-5" cx="508.4" cy="347.14" r="2.5" transform="translate(-63.52 119.36) rotate(-12.61)"/><circle class="cls-5" cx="51.1" cy="65.59" r="0.81"/><circle class="cls-5" cx="105.19" cy="120.88" r="0.81"/><circle class="cls-5" cx="43.14" cy="101.4" r="0.81"/><circle class="cls-5" cx="82.19" cy="121.88" r="0.81"/><circle class="cls-5" cx="36.51" cy="145.53" r="0.81"/><circle class="cls-5" cx="93.08" cy="168.93" r="0.81"/><circle class="cls-5" cx="26.03" cy="190.42" r="0.81"/><circle class="cls-5" cx="67.01" cy="201.62" r="0.81"/><circle class="cls-5" cx="37.87" cy="220.79" r="0.81"/><circle class="cls-5" cx="80.4" cy="241.08" r="0.81"/><circle class="cls-5" cx="27.63" cy="273.35" r="0.81"/><circle class="cls-5" cx="59.79" cy="305.08" r="0.81"/><circle class="cls-5" cx="32.48" cy="320.22" r="0.81"/><circle class="cls-5" cx="77.91" cy="350.75" r="0.81"/><circle class="cls-5" cx="26.86" cy="384.63" r="0.81"/><circle class="cls-5" cx="189.35" cy="21.27" r="0.81" transform="translate(26.03 119.4) rotate(-37.41)"/><circle class="cls-5" cx="156.08" cy="36.7" r="0.81" transform="translate(9.8 102.36) rotate(-37.41)"/><circle class="cls-5" cx="117" cy="58.24" r="0.81" transform="translate(-11.32 83.06) rotate(-37.41)"/><circle class="cls-5" cx="529.25" cy="64.79" r="0.81"/><circle class="cls-5" cx="506.25" cy="65.79" r="0.81"/><circle class="cls-5" cx="526" cy="104.67" r="0.81"/><path class="cls-6" d="M106.78,181.18h259.5a0,0,0,0,1,0,0v200a0,0,0,0,1,0,0H106.78a12,12,0,0,1-12-12v-176A12,12,0,0,1,106.78,181.18Z"/><path class="cls-7" d="M367.28,382.18H106.78a13,13,0,0,1-13-13v-176a13,13,0,0,1,13-13h260.5Zm-260.5-200a11,11,0,0,0-11,11v176a11,11,0,0,0,11,11h258.5v-198Z"/><path class="cls-6" d="M366.28,181.18h79.5a12,12,0,0,1,12,12v176a12,12,0,0,1-12,12h-79.5a0,0,0,0,1,0,0v-200A0,0,0,0,1,366.28,181.18Z"/><path class="cls-7" d="M445.78,382.18h-80.5v-202h80.5a13,13,0,0,1,13,13v176A13,13,0,0,1,445.78,382.18Zm-78.5-2h78.5a11,11,0,0,0,11-11v-176a11,11,0,0,0-11-11h-78.5Z"/><path class="cls-8" d="M367.28,185.56l70.5,5.63c6.6,0,10.75,4.75,13.25,11l5.75,59.75v10.75H394.11c-6.6,0-10.33-6.58-12-12l-14.83-63.13"/><path class="cls-8" d="M95.78,365.93H365.19a0,0,0,0,1,0,0v14.21a0,0,0,0,1,0,0h-258a11.39,11.39,0,0,1-11.39-11.39v-2.82A0,0,0,0,1,95.78,365.93Z"/><path class="cls-8" d="M365.26,212.67l-13.48,49.27c-2.25,6.12-6,19.24-19.5,19.24H95.78v-18.5l19.51-.36,40.49.36h172.5l5.52-1.82,4.36-5.87,27.63-73.81"/><path class="cls-6" d="M366.07,181.18h79.71c6.6,0,10.75,4.75,13.25,11l22.75,58.5c3,7.42-5.08,12-12,12H402.11c-6.6,0-10.33-6.58-12-12L367,181.18"/><path class="cls-7" d="M469.78,263.68H402.11c-8.16,0-11.78-8.89-13-12.71l-22.89-68.79h-.2a1,1,0,0,1,0-2h79.71c6.23,0,11.14,4,14.18,11.63l22.75,58.51a8,8,0,0,1-.65,7.82C479.48,262,474,263.68,469.78,263.68Zm-101.41-81.5,22.69,68.18c1.05,3.42,4.22,11.32,11.05,11.32h67.67c4.41,0,8.78-1.92,10.63-4.66a6.06,6.06,0,0,0,.45-6L458.1,192.55c-2.75-6.87-6.9-10.36-12.32-10.36Z"/><path class="cls-6" d="M365.78,181.18l-25.5,69.5c-3.17,6.5-5.4,12-12,12H80.78c-8.17,0-16.33-2.5-12-12l26-60.75c3.33-6.67,5.4-8.75,12-8.75H366.07"/><path class="cls-7" d="M328.28,263.68H80.78c-4.66,0-10.73-.79-13.16-4.58-1.47-2.28-1.38-5.25.25-8.83l26-60.73c3.52-7,5.87-9.36,12.92-9.36H366.07a1,1,0,0,1,.45,1.9l-25.34,69-.56,1.16C337.66,258.4,335.11,263.68,328.28,263.68Zm-221.5-81.5c-6.13,0-7.88,1.75-11.11,8.2l-26,60.7c-1.34,2.94-1.47,5.27-.4,6.94,1.52,2.36,5.6,3.66,11.48,3.66h247.5c5.57,0,7.66-4.31,10.54-10.27l.54-1.12,25-68.11Z"/><path class="cls-7" d="M209.28,293.18h-96a1,1,0,1,1,0-2h96a1,1,0,0,1,0,2Z"/><path class="cls-7" d="M166.78,304.85h-53.5a1,1,0,1,1,0-2h53.5a1,1,0,0,1,0,2Z"/><path class="cls-7" d="M140,316.52H113.28a1,1,0,1,1,0-2H140a1,1,0,0,1,0,2Z"/><path class="cls-7" d="M320.87,382.18H282.78v-43.5a5,5,0,0,1,2.53-4.35l28.09-16a5,5,0,0,1,7.47,4.35Zm-36.09-2h34.09V322.72a3,3,0,0,0-4.48-2.61l-28.09,16a3,3,0,0,0-1.52,2.61Z"/><path class="cls-7" d="M287.78,296.19a5,5,0,0,1-5-5V261.68h38.09v13.54a5,5,0,0,1-2.53,4.35l-28.09,16A5,5,0,0,1,287.78,296.19Zm-3-32.5v27.49a3,3,0,0,0,4.48,2.61l28.09-16a3,3,0,0,0,1.52-2.61V263.68Z"/><path class="cls-7" d="M129.72,354.26a5,5,0,0,1-1.47-.22l-10.45-3.22a5,5,0,0,1-3.3-6.25l3.22-10.45a5,5,0,0,1,6.25-3.3L134.42,334a5,5,0,0,1,3.3,6.25l-3.22,10.45A5,5,0,0,1,129.72,354.26Zm-.88-2.13a3,3,0,0,0,3.75-2l3.22-10.45a3,3,0,0,0-2-3.75l-10.45-3.22a3,3,0,0,0-3.75,2l-3.22,10.45a3,3,0,0,0,2,3.75Z"/><path class="cls-7" d="M126.55,348.26a5,5,0,0,1-1.47-.22h0l-1.29-.4a5,5,0,0,1-3.3-6.25l.4-1.29a5,5,0,0,1,6.25-3.3l1.29.4a5,5,0,0,1,3.3,6.25l-.4,1.29A5,5,0,0,1,126.55,348.26Zm-.88-2.13a3,3,0,0,0,3.75-2l.4-1.29a3,3,0,0,0-2-3.75l-1.29-.4a3,3,0,0,0-3.75,2l-.4,1.29a3,3,0,0,0,2,3.75Z"/><circle class="cls-5" cx="219.32" cy="95.9" r="2.5"/><path class="cls-6" d="M228.76,69.43h104a12,12,0,0,1,12,12v99.75a0,0,0,0,1,0,0h-128a0,0,0,0,1,0,0V81.43A12,12,0,0,1,228.76,69.43Z"/><path class="cls-7" d="M345.8,182.18h-130V81.43a13,13,0,0,1,13-13h104a13,13,0,0,1,13,13Zm-128-2h126V81.43a11,11,0,0,0-11-11h-104a11,11,0,0,0-11,11Z"/><path class="cls-8" d="M218.76,70.43h104a12,12,0,0,1,12,12v97.66a0,0,0,0,1,0,0h-128a0,0,0,0,1,0,0V82.43A12,12,0,0,1,218.76,70.43Z"/><path class="cls-6" d="M212.76,69.43h104a12,12,0,0,1,12,12v99.75a0,0,0,0,1,0,0h-128a0,0,0,0,1,0,0V81.43A12,12,0,0,1,212.76,69.43Z"/><path class="cls-7" d="M329.8,182.18h-130V81.43a13,13,0,0,1,13-13h104a13,13,0,0,1,13,13Zm-128-2h126V81.43a11,11,0,0,0-11-11h-104a11,11,0,0,0-11,11Z"/><path class="cls-8" d="M202.76,70.43h104a12,12,0,0,1,12,12v97.66a0,0,0,0,1,0,0h-128a0,0,0,0,1,0,0V82.43A12,12,0,0,1,202.76,70.43Z"/><path class="cls-6" d="M196.76,69.43h104a12,12,0,0,1,12,12v99.75a0,0,0,0,1,0,0h-128a0,0,0,0,1,0,0V81.43A12,12,0,0,1,196.76,69.43Z"/><path class="cls-7" d="M313.8,182.18h-130V81.43a13,13,0,0,1,13-13h104a13,13,0,0,1,13,13Zm-128-2h126V81.43a11,11,0,0,0-11-11h-104a11,11,0,0,0-11,11Z"/><path class="cls-8" d="M184.76,70.43h104a12,12,0,0,1,12,12v97.66a0,0,0,0,1,0,0h-128a0,0,0,0,1,0,0V82.43A12,12,0,0,1,184.76,70.43Z"/><path class="cls-6" d="M178.76,69.43h104a12,12,0,0,1,12,12v99.75a0,0,0,0,1,0,0h-128a0,0,0,0,1,0,0V81.43A12,12,0,0,1,178.76,69.43Z"/><path class="cls-7" d="M295.8,182.18h-130V81.43a13,13,0,0,1,13-13h104a13,13,0,0,1,13,13Zm-128-2h126V81.43a11,11,0,0,0-11-11h-104a11,11,0,0,0-11,11Z"/><path class="cls-9" d="M244,138.42h-8.43v-8.21a4.79,4.79,0,0,0-9.57,0v8.21h-8.43a4.8,4.8,0,0,0-4.79,4.79h0a4.8,4.8,0,0,0,4.79,4.79H226v8.64a4.79,4.79,0,1,0,9.57,0V148H244a4.8,4.8,0,0,0,4.79-4.79h0A4.8,4.8,0,0,0,244,138.42Z"/><path class="cls-7" d="M230.78,162.43a5.79,5.79,0,0,1-5.79-5.79V149h-7.43a5.79,5.79,0,1,1,0-11.58H225v-7.21a5.79,5.79,0,0,1,11.57,0v7.21H244A5.79,5.79,0,0,1,244,149h-7.43v7.64A5.79,5.79,0,0,1,230.78,162.43Zm-13.21-23a3.79,3.79,0,1,0,0,7.58H227v9.64a3.79,3.79,0,1,0,7.57,0V147H244a3.79,3.79,0,0,0,0-7.58h-9.43v-9.21a3.79,3.79,0,0,0-7.57,0v9.21Z"/><path class="cls-7" d="M253.78,87.68H181.1a1,1,0,0,1,0-2h72.68a1,1,0,1,1,0,2Z"/><path class="cls-7" d="M212.78,101.68H181.1a1,1,0,0,1,0-2h31.68a1,1,0,0,1,0,2Z"/><path class="cls-7" d="M225.78,114.68H181.1a1,1,0,0,1,0-2h44.68a1,1,0,0,1,0,2Z"/><path class="cls-7" d="M245.28,173.18H179.6a1,1,0,0,1,0-2h65.68a1,1,0,0,1,0,2Z"/><path class="cls-7" d="M278.61,254.68H91.84c-4.57-.14-9-.64-10.64-3.36-1-1.72-.81-4.06.69-7.13l19.6-45.8a1,1,0,0,1,1.84.79L83.71,245c-1.19,2.43-1.44,4.18-.79,5.27,1.15,1.92,5.39,2.29,9,2.4H278.61a1,1,0,0,1,0,2Z"/><path class="cls-7" d="M461.4,256.18H406.19c-6.78,0-9.78-7.34-10.75-10.5a1,1,0,1,1,1.91-.59c.84,2.73,3.38,9.09,8.84,9.09H461.4c3.54,0,7-1.53,8.52-3.72a4.77,4.77,0,0,0,.35-4.69L451.7,198c-2.21-5.53-5.54-8.34-9.88-8.34a1,1,0,0,1,0-2c5.17,0,9.23,3.32,11.74,9.6L472.12,245a6.74,6.74,0,0,1-.55,6.55C469.43,254.76,464.92,256.18,461.4,256.18Z"/><path class="cls-8" d="M367.36,365.93h89.45a0,0,0,0,1,0,0v2.85a11.34,11.34,0,0,1-11.34,11.34H367.36a0,0,0,0,1,0,0V365.93A0,0,0,0,1,367.36,365.93Z"/><circle class="cls-5" cx="445.35" cy="68.62" r="0.81"/><circle class="cls-5" cx="423.83" cy="45.57" r="0.81"/><circle class="cls-5" cx="401" cy="20.46" r="0.81"/><circle class="cls-5" cx="372.17" cy="38" r="0.81"/><circle class="cls-5" cx="335.81" cy="14.17" r="0.81"/><circle class="cls-5" cx="252" cy="32.5" r="0.81"/><circle class="cls-5" cx="284.17" cy="17.67" r="0.81"/><circle class="cls-5" cx="510" cy="139.33" r="0.81"/><circle class="cls-5" cx="490.17" cy="182" r="0.81"/><circle class="cls-5" cx="537.88" cy="214.13" r="0.81"/><circle class="cls-5" cx="515.5" cy="250.75" r="0.81"/><circle class="cls-5" cx="535.56" cy="271.75" r="0.81"/><circle class="cls-5" cx="526.55" cy="302.78" r="0.81" transform="translate(135.78 767.78) rotate(-79.86)"/><circle class="cls-5" cx="532.86" cy="334.76" r="0.81" transform="translate(109.49 800.34) rotate(-79.86)"/><circle class="cls-5" cx="513.52" cy="384.69" r="0.81" transform="matrix(0.18, -0.98, 0.98, 0.18, 44.41, 822.44)"/><path class="cls-5" d="M89.62,42.79h-1v-1a1,1,0,0,0-2,0v1h-1a1,1,0,0,0,0,2h1v1a1,1,0,0,0,2,0v-1h1a1,1,0,0,0,0-2Z"/><path class="cls-5" d="M484,113.22h-1v-1a1,1,0,1,0-2,0v1h-1a1,1,0,0,0,0,2h1v1a1,1,0,0,0,2,0v-1h1a1,1,0,0,0,0-2Z"/><path class="cls-5" d="M55.63,250.56h-1v-1a1,1,0,1,0-2,0v1h-1a1,1,0,0,0,0,2h1v1a1,1,0,0,0,2,0v-1h1a1,1,0,0,0,0-2Z"/><path class="cls-5" d="M318.06,24.11h-1v-1a1,1,0,0,0-2,0v1h-1a1,1,0,0,0,0,2h1v1a1,1,0,1,0,2,0v-1h1a1,1,0,0,0,0-2Z"/><path class="cls-5" d="M524.44,180.19h-1v-1a1,1,0,0,0-2,0v1h-1a1,1,0,0,0,0,2h1v1a1,1,0,1,0,2,0v-1h1a1,1,0,0,0,0-2Z"/><path class="cls-5" d="M495,321.45h-1v-1a1,1,0,0,0-2,0v1h-1a1,1,0,0,0,0,2h1v1a1,1,0,0,0,2,0v-1h1a1,1,0,0,0,0-2Z"/><path class="cls-5" d="M79.14,149.37h-1v-1a1,1,0,0,0-2,0v1h-1a1,1,0,1,0,0,2h1v1a1,1,0,0,0,2,0v-1h1a1,1,0,1,0,0-2Z"/><path class="cls-5" d="M30.47,357.5h-1v-1a1,1,0,0,0-2,0v1h-1a1,1,0,1,0,0,2h1v1a1,1,0,0,0,2,0v-1h1a1,1,0,1,0,0-2Z"/></svg>