<svg id="Layer_1" data-name="Layer 1" xmlns="http://www.w3.org/2000/svg" viewBox="0 0 550 450"><defs><style>.cls-1{opacity:0.18;}.cls-2{fill:#e5e5e5;}.cls-3{opacity:0.42;}.cls-4{opacity:0.5;}.cls-5{fill:#e9e9e9;}.cls-6{fill:#d0dbf7;}.cls-7{fill:#8a8e91;}.cls-8{fill:#f5f5f5;}.cls-9{fill:#dae2f7;}</style></defs><title>1_</title><g class="cls-1"><circle class="cls-2" cx="275" cy="225" r="186.5"/></g><g class="cls-3"><circle class="cls-2" cx="274.78" cy="224.78" r="161.19"/></g><g class="cls-4"><circle class="cls-2" cx="274.78" cy="224.78" r="141.51"/></g><circle class="cls-5" cx="91" cy="94" r="2.5"/><circle class="cls-5" cx="193.82" cy="51.65" r="2.5"/><circle class="cls-5" cx="51.1" cy="168.12" r="2.5"/><circle class="cls-5" cx="314.58" cy="49.82" r="2.5"/><circle class="cls-5" cx="85.3" cy="304.5" r="2.5" transform="translate(-172.97 122.03) rotate(-39.11)"/><circle class="cls-5" cx="68.24" cy="380.87" r="2.5" transform="translate(-224.97 128.38) rotate(-39.11)"/><circle class="cls-5" cx="459.76" cy="42.26" r="2.5" transform="translate(1.86 101.39) rotate(-12.61)"/><circle class="cls-5" cx="437" cy="123.3" r="2.5" transform="translate(-16.38 98.37) rotate(-12.61)"/><circle class="cls-5" cx="509.72" cy="224.5" r="2.5" transform="translate(-36.72 116.69) rotate(-12.61)"/><circle class="cls-5" cx="508.4" cy="347.14" r="2.5" transform="translate(-63.52 119.36) rotate(-12.61)"/><circle class="cls-5" cx="51.1" cy="65.59" r="0.81"/><circle class="cls-5" cx="105.19" cy="120.88" r="0.81"/><circle class="cls-5" cx="43.14" cy="101.4" r="0.81"/><circle class="cls-5" cx="82.19" cy="121.88" r="0.81"/><circle class="cls-5" cx="36.51" cy="145.53" r="0.81"/><circle class="cls-5" cx="93.08" cy="168.93" r="0.81"/><circle class="cls-5" cx="26.03" cy="190.42" r="0.81"/><circle class="cls-5" cx="67.01" cy="201.62" r="0.81"/><circle class="cls-5" cx="37.87" cy="220.79" r="0.81"/><circle class="cls-5" cx="80.4" cy="241.08" r="0.81"/><circle class="cls-5" cx="27.63" cy="273.35" r="0.81"/><circle class="cls-5" cx="59.79" cy="305.08" r="0.81"/><circle class="cls-5" cx="32.48" cy="320.22" r="0.81"/><circle class="cls-5" cx="77.91" cy="350.75" r="0.81"/><circle class="cls-5" cx="26.86" cy="384.63" r="0.81"/><circle class="cls-5" cx="189.35" cy="21.27" r="0.81" transform="translate(26.03 119.4) rotate(-37.41)"/><circle class="cls-5" cx="156.08" cy="36.7" r="0.81" transform="translate(9.8 102.36) rotate(-37.41)"/><circle class="cls-5" cx="117" cy="58.24" r="0.81" transform="translate(-11.32 83.06) rotate(-37.41)"/><circle class="cls-5" cx="529.25" cy="64.79" r="0.81"/><circle class="cls-5" cx="506.25" cy="65.79" r="0.81"/><circle class="cls-5" cx="526" cy="104.67" r="0.81"/><circle class="cls-5" cx="460.57" cy="89.44" r="0.81"/><circle class="cls-5" cx="423.83" cy="45.57" r="0.81"/><circle class="cls-5" cx="401" cy="20.46" r="0.81"/><circle class="cls-5" cx="372.17" cy="38" r="0.81"/><circle class="cls-5" cx="335.81" cy="14.17" r="0.81"/><circle class="cls-5" cx="252" cy="32.5" r="0.81"/><circle class="cls-5" cx="284.17" cy="17.67" r="0.81"/><circle class="cls-5" cx="510" cy="139.33" r="0.81"/><circle class="cls-5" cx="490.17" cy="182" r="0.81"/><circle class="cls-5" cx="537.88" cy="214.12" r="0.81"/><circle class="cls-5" cx="515.5" cy="250.75" r="0.81"/><circle class="cls-5" cx="535.56" cy="271.75" r="0.81"/><circle class="cls-5" cx="526.55" cy="302.78" r="0.81" transform="translate(135.78 767.78) rotate(-79.86)"/><circle class="cls-5" cx="532.86" cy="334.76" r="0.81" transform="translate(109.49 800.34) rotate(-79.86)"/><circle class="cls-5" cx="513.52" cy="384.69" r="0.81" transform="translate(44.41 822.44) rotate(-79.86)"/><path class="cls-5" d="M89.62,42.79h-1v-1a1,1,0,0,0-2,0v1h-1a1,1,0,0,0,0,2h1v1a1,1,0,0,0,2,0v-1h1a1,1,0,0,0,0-2Z"/><path class="cls-5" d="M484,113.22h-1v-1a1,1,0,1,0-2,0v1h-1a1,1,0,0,0,0,2h1v1a1,1,0,0,0,2,0v-1h1a1,1,0,0,0,0-2Z"/><path class="cls-5" d="M55.63,250.56h-1v-1a1,1,0,1,0-2,0v1h-1a1,1,0,0,0,0,2h1v1a1,1,0,0,0,2,0v-1h1a1,1,0,0,0,0-2Z"/><path class="cls-5" d="M318.06,24.11h-1v-1a1,1,0,0,0-2,0v1h-1a1,1,0,0,0,0,2h1v1a1,1,0,1,0,2,0v-1h1a1,1,0,0,0,0-2Z"/><path class="cls-5" d="M524.44,180.19h-1v-1a1,1,0,0,0-2,0v1h-1a1,1,0,0,0,0,2h1v1a1,1,0,1,0,2,0v-1h1a1,1,0,0,0,0-2Z"/><path class="cls-5" d="M495,321.45h-1v-1a1,1,0,0,0-2,0v1h-1a1,1,0,0,0,0,2h1v1a1,1,0,0,0,2,0v-1h1a1,1,0,0,0,0-2Z"/><path class="cls-5" d="M79.14,149.37h-1v-1a1,1,0,0,0-2,0v1h-1a1,1,0,1,0,0,2h1v1a1,1,0,0,0,2,0v-1h1a1,1,0,1,0,0-2Z"/><path class="cls-5" d="M30.47,357.5h-1v-1a1,1,0,0,0-2,0v1h-1a1,1,0,1,0,0,2h1v1a1,1,0,0,0,2,0v-1h1a1,1,0,1,0,0-2Z"/><circle class="cls-5" cx="214.71" cy="85.81" r="2.5"/><path class="cls-6" d="M377.09,227.35l-108.8.37a7.6,7.6,0,0,1-6.84-4.63l-8.06-17.52a7.6,7.6,0,0,0-6.81-4.63H189.19c-4.21,0-7.65,3.83-7.65,8.5V356.85c0,4.68,3.44,8.5,7.65,8.5H377.09c4.21,0,7.65-3.83,7.65-8.5v-121C384.74,231.18,381.29,227.35,377.09,227.35Z"/><path class="cls-7" d="M377.09,366.36H189.19c-4.77,0-8.65-4.26-8.65-9.5V209.45c0-5.24,3.88-9.5,8.65-9.5h57.38a8.56,8.56,0,0,1,7.72,5.21l8.06,17.52a6.58,6.58,0,0,0,5.9,4h0l108.81-.37c4.77,0,8.65,4.26,8.65,9.5v121C385.74,362.09,381.86,366.36,377.09,366.36ZM189.19,201.94c-3.67,0-6.65,3.37-6.65,7.5V356.85c0,4.14,3,7.5,6.65,7.5H377.09c3.67,0,6.65-3.37,6.65-7.5v-121c0-4.14-3-7.5-6.65-7.5l-108.8.37h0a8.55,8.55,0,0,1-7.72-5.21L252.48,206a6.59,6.59,0,0,0-5.91-4Z"/><circle class="cls-8" cx="217.25" cy="213.27" r="8.13"/><path class="cls-7" d="M217.25,222.4a9.13,9.13,0,1,1,9.13-9.13A9.14,9.14,0,0,1,217.25,222.4Zm0-16.26a7.13,7.13,0,1,0,7.13,7.13A7.14,7.14,0,0,0,217.25,206.14Z"/><circle class="cls-6" cx="217.25" cy="213.27" r="2.96"/><path class="cls-7" d="M217.25,217.23a4,4,0,1,1,4-4A4,4,0,0,1,217.25,217.23Zm0-5.91a2,2,0,1,0,2,2A2,2,0,0,0,217.25,211.31Z"/><rect class="cls-8" x="192.91" y="121.96" width="174.85" height="109.87" rx="12" ry="12" transform="translate(47.03 -58.58) rotate(13.01)"/><path class="cls-7" d="M344.15,248.71a13,13,0,0,1-2.93-.33h0l-147-34a13,13,0,0,1-9.74-15.59l19.34-83.66a13,13,0,0,1,15.59-9.74l147,34A13,13,0,0,1,376.15,155l-19.33,83.66A13,13,0,0,1,344.15,248.71Zm-2.48-2.28a11,11,0,0,0,13.2-8.24l19.33-83.66A11,11,0,0,0,366,141.33l-147-34a11,11,0,0,0-13.19,8.24l-19.34,83.66a11,11,0,0,0,8.24,13.19l147,34Z"/><path class="cls-9" d="M210,216c-3.56-.46-15.68-3.42-17.5-4.25a10.33,10.33,0,0,1-6.33-10.12l.66-6.66s8.57-1.8,10.67-1.13c2.35.74,8,6.59,8,6.59l20.44-91.63,9.54,2.63-24.9,101.88Z"/><path class="cls-7" d="M192.71,213.88l-.23,0c-5.14-1.19-9.42-8.75-8.45-13l.63-2.73a7.59,7.59,0,0,1,4-5,9.94,9.94,0,0,1,6.85-.81l3.17.73c5,1.15,8.21,5.63,7.21,10l-.63,2.73a1,1,0,1,1-1.95-.45l.63-2.73c.76-3.28-1.8-6.69-5.71-7.59l-3.17-.73a7.93,7.93,0,0,0-5.47.63,5.62,5.62,0,0,0-3,3.69l-.63,2.73c-.75,3.24,3,9.67,6.95,10.58a1,1,0,0,1-.22,2Z"/><path class="cls-7" d="M203.94,208.13l-.23,0a1,1,0,0,1-.75-1.2L222,124.39a1,1,0,1,1,1.95.45l-19.07,82.52A1,1,0,0,1,203.94,208.13Z"/><path class="cls-8" d="M204.11,118.43l2.32-10a8.3,8.3,0,0,1,9.92-6.2l3.17.73a8.3,8.3,0,0,1,6.2,9.92L225,116"/><path class="cls-7" d="M204.11,119.43l-.23,0a1,1,0,0,1-.75-1.2l2.32-10a9.3,9.3,0,0,1,11.12-6.95l3.17.73a9.3,9.3,0,0,1,6.95,11.12l-.73,3.17a1,1,0,1,1-1.95-.45l.73-3.17a7.3,7.3,0,0,0-5.45-8.72l-3.17-.73a7.3,7.3,0,0,0-8.72,5.45l-2.32,10A1,1,0,0,1,204.11,119.43Z"/><path class="cls-7" d="M222.81,126.49l-.23,0a1,1,0,0,1-.75-1.2l2.43-10.52a1,1,0,0,1,1.95.45l-2.43,10.52A1,1,0,0,1,222.81,126.49Z"/><rect class="cls-8" x="228.08" y="140.87" width="113.96" height="75.02" rx="12" ry="12" transform="translate(47.49 -59.61) rotate(13.01)"/><path class="cls-7" d="M323.14,226.36a13,13,0,0,1-2.93-.33l-87.65-20.26a13,13,0,0,1-9.74-15.59l11.49-49.71a13,13,0,0,1,15.59-9.74L337.56,151a13,13,0,0,1,9.74,15.59l-11.49,49.71A13,13,0,0,1,323.14,226.36Zm-76.17-94a11,11,0,0,0-10.72,8.52l-11.49,49.71A11,11,0,0,0,233,203.82l87.65,20.26a11,11,0,0,0,13.19-8.24l11.49-49.71a11,11,0,0,0-8.24-13.19l-87.65-20.26A11,11,0,0,0,247,132.39Z"/><path class="cls-8" d="M248.4,165.09,230.6,161l5.53-23.92a8.3,8.3,0,0,1,9.92-6.2l35.76,8.27-7.39,32L258,167.32"/><path class="cls-7" d="M275.17,172.31l-17.38-4a1,1,0,0,1,.45-1.95l15.43,3.57,6.94-30-34.79-8a7.3,7.3,0,0,0-8.72,5.45l-5.3,22.94,16.83,3.89a1,1,0,0,1-.45,1.95l-18.77-4.34,5.75-24.89a9.3,9.3,0,0,1,11.12-6.95L283,138.38Z"/><path class="cls-7" d="M277.34,216.09l-.23,0a1,1,0,0,1-.75-1.2l6.88-29.77a1,1,0,0,1,1.95.45l-6.88,29.77A1,1,0,0,1,277.34,216.09Z"/><path class="cls-7" d="M310.25,192.33l-.23,0-26-6a1,1,0,0,1,.45-1.95l26,6a1,1,0,0,1-.22,2Z"/><path class="cls-7" d="M268.53,183l-.23,0-40.63-9.39a1,1,0,0,1,.45-1.95l40.63,9.39a1,1,0,0,1-.22,2Z"/><path class="cls-7" d="M285.52,167.69l-.23,0-9.57-2.21a1,1,0,0,1,.45-1.95l9.57,2.21a1,1,0,0,1-.22,2Z"/><path class="cls-8" d="M234.07,234.89H358.94a12,12,0,0,1,12,12V353.69a12,12,0,0,1-12,12H246.07a12,12,0,0,1-12-12V234.89A0,0,0,0,1,234.07,234.89Z"/><path class="cls-7" d="M358.94,366.69H246.07a13,13,0,0,1-13-13V233.89H358.94a13,13,0,0,1,13,13V353.69A13,13,0,0,1,358.94,366.69ZM235.07,235.89V353.69a11,11,0,0,0,11,11H358.94a11,11,0,0,0,11-11V246.89a11,11,0,0,0-11-11Z"/><path class="cls-7" d="M308.19,172.93l-.23,0-13.77-3.18a1,1,0,0,1,.45-1.95L308.41,171a1,1,0,0,1-.22,2Z"/><path class="cls-7" d="M308.19,172.93l-.23,0a1,1,0,0,1-.75-1.2l5.86-25.35a1,1,0,0,1,1.95.45l-5.86,25.35A1,1,0,0,1,308.19,172.93Z"/><path class="cls-7" d="M306.09,182l-.23,0a1,1,0,0,1-.75-1.2l2.1-9.07a1,1,0,1,1,1.95.45l-2.1,9.07A1,1,0,0,1,306.09,182Z"/><path class="cls-7" d="M341.07,190.08l-.23,0-21-4.86a1,1,0,1,1,.45-1.95l21,4.86a1,1,0,0,1-.22,2Z"/><path class="cls-8" d="M387.68,178.72l-46.23-28.1A4,4,0,0,0,336,152l-32.44,53.38a4,4,0,0,0,4.64,5.88l78.67-25.28A4,4,0,0,0,387.68,178.72Zm-25.28,4.94-30.55,9.82a4,4,0,0,1-4.64-5.88l12.6-20.73a4,4,0,0,1,5.49-1.34l18,10.91A4,4,0,0,1,362.41,183.66Z"/><path class="cls-7" d="M306.92,212.42a5,5,0,0,1-4.25-7.6l32.44-53.38a5,5,0,0,1,6.87-1.67l46.23,28.09a5,5,0,0,1-1.07,9l-78.67,25.28A5.07,5.07,0,0,1,306.92,212.42ZM339.39,151a3,3,0,0,0-2.57,1.44l-32.44,53.38a3,3,0,0,0,3.48,4.41L386.53,185a3,3,0,0,0,.64-5.42l-46.23-28.09A3,3,0,0,0,339.39,151Zm-8.78,43.64a5,5,0,0,1-4.25-7.6L339,166.34a5,5,0,0,1,6.87-1.68l18,10.91a5,5,0,0,1-1.07,9l-30.55,9.82A5.07,5.07,0,0,1,330.61,194.67Zm12.63-28.74a3,3,0,0,0-.72.09,3,3,0,0,0-1.85,1.36l-12.6,20.73a3,3,0,0,0,3.48,4.41l30.55-9.82a3,3,0,0,0,.64-5.42l-18-10.91A3,3,0,0,0,343.23,165.94Z"/><path class="cls-7" d="M308.76,209.15a1,1,0,0,1-.52-.15L304,206.44a1,1,0,0,1,1-1.71l4.23,2.57a1,1,0,0,1-.52,1.85Z"/><path class="cls-7" d="M309.59,203a1,1,0,0,1-.52-.15L307,201.6a1,1,0,0,1,1-1.71l2.11,1.29a1,1,0,0,1-.52,1.85Z"/><path class="cls-7" d="M314.65,199.47a1,1,0,0,1-.52-.15l-4.23-2.57a1,1,0,0,1,1-1.71l4.23,2.57a1,1,0,0,1-.52,1.85Z"/><path class="cls-7" d="M315.48,193.34a1,1,0,0,1-.52-.15l-2.11-1.29a1,1,0,1,1,1-1.71l2.11,1.29a1,1,0,0,1-.52,1.85Z"/><path class="cls-7" d="M320.53,189.78a1,1,0,0,1-.52-.15l-4.23-2.57a1,1,0,1,1,1-1.71l4.23,2.57a1,1,0,0,1-.52,1.85Z"/><path class="cls-7" d="M321.36,183.66a1,1,0,0,1-.52-.15l-2.11-1.29a1,1,0,1,1,1-1.71l2.11,1.29a1,1,0,0,1-.52,1.85Z"/><path class="cls-7" d="M326.42,180.1a1,1,0,0,1-.52-.15l-4.23-2.57a1,1,0,0,1,1-1.71l4.23,2.57a1,1,0,0,1-.52,1.85Z"/><path class="cls-7" d="M327.25,174a1,1,0,0,1-.52-.15l-2.11-1.29a1,1,0,0,1,1-1.71l2.11,1.29a1,1,0,0,1-.52,1.85Z"/><path class="cls-7" d="M332.31,170.41a1,1,0,0,1-.52-.15l-4.23-2.57a1,1,0,0,1,1-1.71l4.23,2.57a1,1,0,0,1-.52,1.85Z"/><path class="cls-7" d="M333.13,164.29a1,1,0,0,1-.52-.15l-2.11-1.28a1,1,0,0,1,1-1.71l2.11,1.28a1,1,0,0,1-.52,1.85Z"/><path class="cls-7" d="M338.19,160.73a1,1,0,0,1-.52-.15L333.44,158a1,1,0,1,1,1-1.71l4.23,2.57a1,1,0,0,1-.52,1.85Z"/><path class="cls-7" d="M339,154.6a1,1,0,0,1-.52-.15l-2.11-1.29a1,1,0,1,1,1-1.71l2.11,1.29a1,1,0,0,1-.52,1.85Z"/><path class="cls-8" d="M355.94,241.5l-108.8.33a7.65,7.65,0,0,1-6.84-4.17l-8.06-15.76a7.65,7.65,0,0,0-6.81-4.17H168a7.67,7.67,0,0,0-7.65,7.65V358a7.67,7.67,0,0,0,7.65,7.65H355.94a7.67,7.67,0,0,0,7.65-7.65V249.15A7.67,7.67,0,0,0,355.94,241.5Z"/><path class="cls-7" d="M355.94,366.69H168a8.66,8.66,0,0,1-8.65-8.65V225.39a8.66,8.66,0,0,1,8.65-8.65h57.38a8.62,8.62,0,0,1,7.7,4.71l8.06,15.76a6.72,6.72,0,0,0,5.94,3.62l108.81-.33a8.66,8.66,0,0,1,8.65,8.65V358A8.66,8.66,0,0,1,355.94,366.69ZM168,218.74a6.66,6.66,0,0,0-6.65,6.65V358a6.66,6.66,0,0,0,6.65,6.65H355.94a6.66,6.66,0,0,0,6.65-6.65V249.15a6.66,6.66,0,0,0-6.65-6.65l-108.8.33h0a8.61,8.61,0,0,1-7.7-4.71l-8.06-15.76a6.62,6.62,0,0,0-5.92-3.62Z"/><path class="cls-8" d="M290.33,293.81a27.41,27.41,0,0,0-54.81-.74c-.14,5.33.8,10.61,3.75,14.6.4.54.73,1.11,1.17,1.61l11,12.42a6.92,6.92,0,0,1,1.32,2.69c.73,3.85,2.38,10.8,4.83,10.8h11.29c2.45,0,3.89-6.89,4.75-10.77a6.3,6.3,0,0,1,1.32-2.67l10.77-12.87c.46-.55.8-1.18,1.21-1.76C289.39,303.61,290.33,298.64,290.33,293.81Z"/><path class="cls-7" d="M268.83,336.19H257.54c-.89,0-3.61,0-5.81-11.62a5.87,5.87,0,0,0-1.12-2.26l-10.91-12.37a11,11,0,0,1-.83-1.12c-.13-.19-.26-.38-.39-.56-2.78-3.76-4.11-8.88-3.94-15.22a28.66,28.66,0,0,1,28-27.64,28.41,28.41,0,0,1,28.81,28.4c0,4-.63,9.69-3.63,13.89-.15.21-.29.43-.43.64a11.51,11.51,0,0,1-.83,1.17l-10.77,12.87a5.32,5.32,0,0,0-1.11,2.25l-.09.42C273.11,331.15,271.76,336.19,268.83,336.19Zm-5.91-68.79h-.38a26.64,26.64,0,0,0-26,25.69c-.16,5.88,1,10.58,3.55,14,.15.21.3.42.44.63a9.41,9.41,0,0,0,.68.92l11,12.51a7.77,7.77,0,0,1,1.48,3.07c1.39,7.33,3.06,10,3.85,10h11.29c1,0,2.27-3.22,3.68-9.56l.09-.42a7.33,7.33,0,0,1,1.53-3.1l10.77-12.87a9.92,9.92,0,0,0,.68-1c.16-.24.31-.49.48-.72,2.1-2.94,3.26-7.46,3.26-12.73a26.41,26.41,0,0,0-26.4-26.41Z"/><rect class="cls-8" x="251.58" y="335.45" width="22.56" height="2.92" rx="1.18" ry="1.18"/><path class="cls-7" d="M273,339.38H252.77a2.19,2.19,0,0,1-2.18-2.18v-.56a2.19,2.19,0,0,1,2.18-2.18H273a2.19,2.19,0,0,1,2.18,2.18v.56A2.19,2.19,0,0,1,273,339.38Zm-20.19-2.92a.19.19,0,0,0-.18.18v.56a.19.19,0,0,0,.18.18H273a.19.19,0,0,0,.18-.18v-.56a.19.19,0,0,0-.18-.18Z"/><path class="cls-8" d="M270.62,344.09a7.7,7.7,0,0,1-15.41,0"/><path class="cls-7" d="M262.92,352.79a8.71,8.71,0,0,1-8.7-8.7,1,1,0,0,1,2,0,6.7,6.7,0,0,0,13.41,0,1,1,0,0,1,2,0A8.71,8.71,0,0,1,262.92,352.79Z"/><path class="cls-7" d="M245.73,293.64h-2a19.11,19.11,0,0,1,19.09-19.09v2A17.11,17.11,0,0,0,245.73,293.64Z"/><line class="cls-6" x1="263.33" y1="309.75" x2="263.33" y2="335.07"/><path class="cls-7" d="M263.33,336.07a1,1,0,0,1-1-1V309.75a1,1,0,0,1,2,0v25.32A1,1,0,0,1,263.33,336.07Z"/><circle class="cls-8" cx="198.23" cy="230.1" r="8.13"/><path class="cls-7" d="M198.23,239.23a9.13,9.13,0,1,1,9.13-9.13A9.14,9.14,0,0,1,198.23,239.23Zm0-16.26a7.13,7.13,0,1,0,7.13,7.13A7.14,7.14,0,0,0,198.23,223Z"/><path class="cls-7" d="M258.21,310.47a1,1,0,0,1-.71-1.71l8.11-8.11a1,1,0,0,1,1.41,1.41l-8.11,8.11A1,1,0,0,1,258.21,310.47Z"/><circle class="cls-6" cx="198.23" cy="230.1" r="2.96"/><path class="cls-7" d="M198.23,234.05a4,4,0,1,1,4-4A4,4,0,0,1,198.23,234.05Zm0-5.91a2,2,0,1,0,2,2A2,2,0,0,0,198.23,228.14Z"/><path class="cls-7" d="M257.77,304.7a1,1,0,0,1-.71-1.71l8.11-8.11a1,1,0,0,1,1.41,1.41l-8.11,8.11A1,1,0,0,1,257.77,304.7Z"/><path class="cls-7" d="M257.59,298.69a1,1,0,0,1-.71-1.71l8.11-8.11a1,1,0,0,1,1.41,1.41l-8.11,8.11A1,1,0,0,1,257.59,298.69Z"/><rect class="cls-8" x="251.58" y="338.38" width="22.56" height="2.92" rx="1.18" ry="1.18"/><path class="cls-7" d="M273,342.3H252.77a2.19,2.19,0,0,1-2.18-2.18v-.56a2.19,2.19,0,0,1,2.18-2.18H273a2.19,2.19,0,0,1,2.18,2.18v.56A2.19,2.19,0,0,1,273,342.3Zm-20.19-2.92a.19.19,0,0,0-.18.18v.56a.19.19,0,0,0,.18.18H273a.19.19,0,0,0,.18-.18v-.56a.19.19,0,0,0-.18-.18Z"/><rect class="cls-8" x="251.7" y="341.3" width="22.56" height="2.92" rx="1.18" ry="1.18"/><path class="cls-7" d="M273.07,345.22H252.88A2.19,2.19,0,0,1,250.7,343v-.56a2.19,2.19,0,0,1,2.18-2.18h20.19a2.19,2.19,0,0,1,2.18,2.18V343A2.19,2.19,0,0,1,273.07,345.22Zm-20.19-2.92a.19.19,0,0,0-.18.18V343a.19.19,0,0,0,.18.18h20.19a.19.19,0,0,0,.18-.18v-.56a.19.19,0,0,0-.18-.18Z"/><rect class="cls-7" x="160.39" y="250.32" width="203.32" height="2"/><rect class="cls-8" x="305.6" y="108.66" width="4.3" height="33.57" transform="translate(66.11 353.59) rotate(-65.53)"/><path class="cls-7" d="M322.63,135.67l-32.37-14.73,2.61-5.73,32.37,14.73ZM292.9,119.95,321.64,133l1-2.09-28.73-13.07Z"/><path class="cls-8" d="M264.72,78.88H269a0,0,0,0,1,0,0v54.24a1.67,1.67,0,0,1-1.67,1.67h-1a1.67,1.67,0,0,1-1.67-1.67V78.88a0,0,0,0,1,0,0Z" transform="translate(474.64 -91.81) rotate(114.47)"/><path class="cls-7" d="M291.92,121.7,241.64,98.81a2.67,2.67,0,0,1-1.32-3.53l.4-.88a2.67,2.67,0,0,1,3.53-1.32L294.53,116ZM243.14,94.84a.66.66,0,0,0-.61.39l-.4.88a.66.66,0,0,0,.33.88L290.93,119l1-2.09L243.42,94.9A.66.66,0,0,0,243.14,94.84Z"/><rect class="cls-6" x="237.24" y="90.83" width="2.74" height="6.3" transform="translate(422.98 -84.28) rotate(114.47)"/><path class="cls-7" d="M241.41,97.86l-7.55-3.44,2-4.32,7.55,3.44Zm-4.9-4.43,3.91,1.78.31-.67-3.91-1.78Z"/><path class="cls-7" d="M235.55,93.59a1,1,0,0,1-.41-.09l-3.08-1.4a1,1,0,0,1,.83-1.82l3.08,1.4a1,1,0,0,1-.42,1.91Z"/><rect class="cls-8" x="310.75" y="125.26" width="4.3" height="19.26" transform="matrix(-0.06, -1, 1, -0.06, 197.88, 455.62)"/><path class="cls-7" d="M302.49,138.7l-.39-6.29,21.22-1.33.39,6.29Zm1.73-4.41.14,2.29,17.23-1.08-.14-2.29Z"/><path class="cls-8" d="M270.06,106.31h4.3a0,0,0,0,1,0,0v60.61a1.67,1.67,0,0,1-1.67,1.67h-1a1.67,1.67,0,0,1-1.67-1.67V106.31A0,0,0,0,1,270.06,106.31Z" transform="matrix(0.06, 1, -1, 0.06, 392.33, -142.85)"/><path class="cls-7" d="M242.83,142.44a2.67,2.67,0,0,1-2.66-2.5l-.06-1a2.66,2.66,0,0,1,2.49-2.83l61.49-3.86.39,6.29L243,142.43Zm59.39-8-59.49,3.74a.66.66,0,0,0-.62.71l.06,1a.65.65,0,0,0,.71.62l59.49-3.74Z"/><polygon class="cls-6" points="241.05 138.03 241.22 140.76 226.9 141.66 226.9 141.66 241.05 138.03"/><path class="cls-7" d="M227,142.66l-.31-2L242,136.76l.31,4.94Zm13.17-3.36-2.75.71,2.78-.17Z"/><circle class="cls-6" cx="324.04" cy="133.7" r="6.92" transform="translate(137.33 430.37) rotate(-80.24)"/><path class="cls-7" d="M324.05,141.62a8,8,0,0,1-1.36-.12h0a7.87,7.87,0,1,1,1.36.12Zm0-13.84a5.92,5.92,0,0,0-1,11.75h0a5.92,5.92,0,1,0,2-11.66A6,6,0,0,0,324,127.78Z"/><circle class="cls-7" cx="324.04" cy="133.7" r="1.29" transform="translate(137.33 430.37) rotate(-80.24)"/></svg>