<svg id="Layer_1" data-name="Layer 1" xmlns="http://www.w3.org/2000/svg" viewBox="0 0 550 450"><defs><style>.cls-1{opacity:0.18;}.cls-2{fill:#e5e5e5;}.cls-3{opacity:0.42;}.cls-4{opacity:0.5;}.cls-5{fill:#e9e9e9;}.cls-6{fill:#d0dbf7;}.cls-7{fill:#8a8e91;}.cls-8{fill:#f5f5f5;}.cls-9{fill:#dae2f7;}</style></defs><title>Projects</title><g class="cls-1"><circle class="cls-2" cx="288" cy="224.5" r="186.5"/></g><g class="cls-3"><circle class="cls-2" cx="287.78" cy="224.28" r="161.19"/></g><g class="cls-4"><circle class="cls-2" cx="287.78" cy="224.28" r="141.51"/></g><circle class="cls-5" cx="91" cy="94" r="2.5"/><circle class="cls-5" cx="193.82" cy="51.65" r="2.5"/><circle class="cls-5" cx="51.1" cy="168.12" r="2.5"/><circle class="cls-5" cx="234.54" cy="116.72" r="2.5"/><circle class="cls-5" cx="314.58" cy="49.82" r="2.5"/><circle class="cls-5" cx="85.3" cy="304.5" r="2.5" transform="translate(-172.97 122.03) rotate(-39.11)"/><circle class="cls-5" cx="68.24" cy="380.87" r="2.5" transform="translate(-224.97 128.38) rotate(-39.11)"/><circle class="cls-5" cx="459.76" cy="42.26" r="2.5" transform="translate(1.86 101.39) rotate(-12.61)"/><circle class="cls-5" cx="437" cy="123.3" r="2.5" transform="translate(-16.38 98.37) rotate(-12.61)"/><circle class="cls-5" cx="509.72" cy="224.5" r="2.5" transform="translate(-36.72 116.69) rotate(-12.61)"/><circle class="cls-5" cx="508.4" cy="347.14" r="2.5" transform="translate(-63.52 119.36) rotate(-12.61)"/><circle class="cls-5" cx="51.1" cy="65.59" r="0.81"/><circle class="cls-5" cx="105.19" cy="120.88" r="0.81"/><circle class="cls-5" cx="43.14" cy="101.4" r="0.81"/><circle class="cls-5" cx="82.19" cy="121.88" r="0.81"/><circle class="cls-5" cx="36.51" cy="145.53" r="0.81"/><circle class="cls-5" cx="93.08" cy="168.93" r="0.81"/><circle class="cls-5" cx="26.03" cy="190.42" r="0.81"/><circle class="cls-5" cx="67.01" cy="201.62" r="0.81"/><circle class="cls-5" cx="37.87" cy="220.79" r="0.81"/><circle class="cls-5" cx="80.4" cy="241.08" r="0.81"/><circle class="cls-5" cx="27.63" cy="273.35" r="0.81"/><circle class="cls-5" cx="59.79" cy="305.08" r="0.81"/><circle class="cls-5" cx="32.48" cy="320.22" r="0.81"/><circle class="cls-5" cx="77.91" cy="350.75" r="0.81"/><circle class="cls-5" cx="26.86" cy="384.63" r="0.81"/><circle class="cls-5" cx="189.35" cy="21.27" r="0.81" transform="translate(26.03 119.4) rotate(-37.41)"/><circle class="cls-5" cx="156.08" cy="36.7" r="0.81" transform="translate(9.8 102.36) rotate(-37.41)"/><circle class="cls-5" cx="117" cy="58.24" r="0.81" transform="translate(-11.32 83.06) rotate(-37.41)"/><circle class="cls-5" cx="529.25" cy="64.79" r="0.81"/><circle class="cls-5" cx="506.25" cy="65.79" r="0.81"/><circle class="cls-5" cx="526" cy="104.67" r="0.81"/><circle class="cls-5" cx="460.57" cy="89.44" r="0.81"/><circle class="cls-5" cx="423.83" cy="45.57" r="0.81"/><circle class="cls-5" cx="401" cy="20.46" r="0.81"/><circle class="cls-5" cx="372.17" cy="38" r="0.81"/><circle class="cls-5" cx="335.81" cy="14.17" r="0.81"/><circle class="cls-5" cx="252" cy="32.5" r="0.81"/><circle class="cls-5" cx="284.17" cy="17.67" r="0.81"/><circle class="cls-5" cx="510" cy="139.33" r="0.81"/><circle class="cls-5" cx="490.17" cy="182" r="0.81"/><circle class="cls-5" cx="537.87" cy="214.12" r="0.81"/><circle class="cls-5" cx="515.5" cy="250.75" r="0.81"/><circle class="cls-5" cx="535.56" cy="271.75" r="0.81"/><circle class="cls-5" cx="526.55" cy="302.78" r="0.81" transform="translate(135.78 767.78) rotate(-79.86)"/><circle class="cls-5" cx="532.86" cy="334.76" r="0.81" transform="translate(109.49 800.34) rotate(-79.86)"/><circle class="cls-5" cx="513.52" cy="384.69" r="0.81" transform="translate(44.41 822.44) rotate(-79.86)"/><path class="cls-5" d="M89.62,42.79h-1v-1a1,1,0,0,0-2,0v1h-1a1,1,0,0,0,0,2h1v1a1,1,0,0,0,2,0v-1h1a1,1,0,0,0,0-2Z"/><path class="cls-5" d="M484,113.22h-1v-1a1,1,0,1,0-2,0v1h-1a1,1,0,0,0,0,2h1v1a1,1,0,0,0,2,0v-1h1a1,1,0,0,0,0-2Z"/><path class="cls-5" d="M55.63,250.56h-1v-1a1,1,0,1,0-2,0v1h-1a1,1,0,0,0,0,2h1v1a1,1,0,0,0,2,0v-1h1a1,1,0,0,0,0-2Z"/><path class="cls-5" d="M318.06,24.11h-1v-1a1,1,0,0,0-2,0v1h-1a1,1,0,0,0,0,2h1v1a1,1,0,1,0,2,0v-1h1a1,1,0,0,0,0-2Z"/><path class="cls-5" d="M524.44,180.19h-1v-1a1,1,0,0,0-2,0v1h-1a1,1,0,0,0,0,2h1v1a1,1,0,1,0,2,0v-1h1a1,1,0,0,0,0-2Z"/><path class="cls-5" d="M495,321.45h-1v-1a1,1,0,0,0-2,0v1h-1a1,1,0,0,0,0,2h1v1a1,1,0,0,0,2,0v-1h1a1,1,0,0,0,0-2Z"/><path class="cls-5" d="M79.14,149.37h-1v-1a1,1,0,0,0-2,0v1h-1a1,1,0,1,0,0,2h1v1a1,1,0,0,0,2,0v-1h1a1,1,0,1,0,0-2Z"/><path class="cls-5" d="M30.47,357.5h-1v-1a1,1,0,0,0-2,0v1h-1a1,1,0,1,0,0,2h1v1a1,1,0,0,0,2,0v-1h1a1,1,0,1,0,0-2Z"/><path class="cls-6" d="M396.92,258.26l-108.8.37a7.6,7.6,0,0,1-6.84-4.63l-8.06-17.52a7.6,7.6,0,0,0-6.81-4.63H209c-4.21,0-7.65,3.83-7.65,8.5V387.76c0,4.68,3.44,8.5,7.65,8.5H396.92c4.21,0,7.65-3.83,7.65-8.5v-121C404.57,262.09,401.13,258.26,396.92,258.26Z"/><path class="cls-7" d="M396.92,397.27H209c-4.77,0-8.65-4.26-8.65-9.5V240.36c0-5.24,3.88-9.5,8.65-9.5h57.38a8.56,8.56,0,0,1,7.72,5.21l8.06,17.52a6.58,6.58,0,0,0,5.9,4h0l108.81-.37c4.77,0,8.65,4.26,8.65,9.5v121C405.57,393,401.69,397.27,396.92,397.27ZM209,232.85c-3.67,0-6.65,3.37-6.65,7.5V387.76c0,4.14,3,7.5,6.65,7.5H396.92c3.67,0,6.65-3.37,6.65-7.5v-121c0-4.14-3-7.5-6.65-7.5l-108.8.37h0a8.55,8.55,0,0,1-7.72-5.21l-8.06-17.52a6.59,6.59,0,0,0-5.91-4Z"/><circle class="cls-8" cx="237.09" cy="244.18" r="8.13"/><path class="cls-7" d="M237.09,253.31a9.13,9.13,0,1,1,9.13-9.13A9.14,9.14,0,0,1,237.09,253.31Zm0-16.26a7.13,7.13,0,1,0,7.13,7.13A7.14,7.14,0,0,0,237.09,237Z"/><circle class="cls-6" cx="237.09" cy="244.18" r="2.96"/><path class="cls-7" d="M237.09,248.14a4,4,0,1,1,4-4A4,4,0,0,1,237.09,248.14Zm0-5.91a2,2,0,1,0,2,2A2,2,0,0,0,237.09,242.22Z"/><rect class="cls-8" x="212.74" y="152.87" width="174.85" height="109.87" rx="12" ry="12" transform="translate(54.5 -62.25) rotate(13.01)"/><path class="cls-7" d="M364,279.62a13,13,0,0,1-2.93-.33h0l-147-34a13,13,0,0,1-9.74-15.59l19.34-83.66a13,13,0,0,1,15.59-9.74l147,34A13,13,0,0,1,396,185.88l-19.33,83.66A13,13,0,0,1,364,279.62Zm-2.48-2.28a11,11,0,0,0,13.2-8.24L394,185.43a11,11,0,0,0-8.24-13.19l-147-34a11,11,0,0,0-13.19,8.24l-19.34,83.66a11,11,0,0,0,8.24,13.19l147,34Z"/><path class="cls-9" d="M229.81,246.88c-3.56-.46-15.68-3.42-17.5-4.25A10.33,10.33,0,0,1,206,232.5l.66-6.66s8.57-1.8,10.67-1.13c2.35.74,8,6.59,8,6.59l20.44-91.63,9.54,2.63-24.9,101.88Z"/><path class="cls-7" d="M212.54,244.79l-.23,0c-5.14-1.19-9.42-8.75-8.45-13l.63-2.73a7.59,7.59,0,0,1,4-5,9.94,9.94,0,0,1,6.85-.81l3.17.73c5,1.15,8.21,5.63,7.21,10l-.63,2.73a1,1,0,1,1-1.95-.45l.63-2.73c.76-3.28-1.8-6.69-5.71-7.59l-3.17-.73a7.93,7.93,0,0,0-5.47.63,5.62,5.62,0,0,0-3,3.69l-.63,2.73c-.75,3.24,3,9.67,6.95,10.58a1,1,0,0,1-.22,2Z"/><path class="cls-7" d="M223.77,239l-.23,0a1,1,0,0,1-.75-1.2l19.07-82.52a1,1,0,0,1,1.95.45l-19.07,82.52A1,1,0,0,1,223.77,239Z"/><path class="cls-8" d="M223.95,149.34l2.32-10a8.3,8.3,0,0,1,9.92-6.2l3.17.73a8.3,8.3,0,0,1,6.2,9.92l-.73,3.17"/><path class="cls-7" d="M223.95,150.34l-.23,0a1,1,0,0,1-.75-1.2l2.32-10a9.3,9.3,0,0,1,11.12-6.95l3.17.73A9.3,9.3,0,0,1,246.54,144l-.73,3.17a1,1,0,0,1-1.95-.45l.73-3.17a7.3,7.3,0,0,0-5.45-8.72l-3.17-.73a7.3,7.3,0,0,0-8.72,5.45l-2.32,10A1,1,0,0,1,223.95,150.34Z"/><path class="cls-7" d="M242.64,157.4l-.23,0a1,1,0,0,1-.75-1.2l2.43-10.52a1,1,0,0,1,1.95.45l-2.43,10.52A1,1,0,0,1,242.64,157.4Z"/><rect class="cls-8" x="247.91" y="171.78" width="113.96" height="75.02" rx="12" ry="12" transform="translate(54.96 -63.28) rotate(13.01)"/><path class="cls-7" d="M343,257.27a13,13,0,0,1-2.93-.33l-87.65-20.26a13,13,0,0,1-9.74-15.59l11.49-49.71a13,13,0,0,1,15.59-9.74l87.65,20.26a13,13,0,0,1,9.74,15.59L355.64,247.2A13,13,0,0,1,343,257.27Zm-76.17-94a11,11,0,0,0-10.72,8.52L244.6,221.53a11,11,0,0,0,8.24,13.19L340.5,255a11,11,0,0,0,13.19-8.24L365.18,197a11,11,0,0,0-8.24-13.19l-87.65-20.26A11,11,0,0,0,266.81,163.3Z"/><path class="cls-8" d="M268.23,196l-17.8-4.11L256,168a8.3,8.3,0,0,1,9.92-6.2L301.64,170l-7.39,32-16.4-3.79"/><path class="cls-7" d="M295,203.21l-17.38-4a1,1,0,0,1,.45-1.95l15.43,3.57,6.94-30-34.79-8a7.3,7.3,0,0,0-8.72,5.45l-5.3,22.94L268.45,195A1,1,0,1,1,268,197l-18.77-4.34L255,167.74a9.3,9.3,0,0,1,11.12-6.95l36.74,8.49Z"/><path class="cls-7" d="M297.17,247l-.23,0a1,1,0,0,1-.75-1.2L303.08,216a1,1,0,0,1,1.95.45l-6.88,29.77A1,1,0,0,1,297.17,247Z"/><path class="cls-7" d="M330.08,223.24l-.23,0-26-6a1,1,0,1,1,.45-1.95l26,6a1,1,0,0,1-.22,2Z"/><path class="cls-7" d="M288.36,214l-.23,0-40.63-9.39a1,1,0,1,1,.45-1.95L288.59,212a1,1,0,0,1-.22,2Z"/><path class="cls-7" d="M305.35,198.6l-.23,0-9.57-2.21a1,1,0,0,1,.45-1.95l9.57,2.21a1,1,0,0,1-.22,2Z"/><path class="cls-8" d="M253.9,265.8H378.77a12,12,0,0,1,12,12V384.6a12,12,0,0,1-12,12H265.9a12,12,0,0,1-12-12V265.8a0,0,0,0,1,0,0Z"/><path class="cls-7" d="M378.77,397.6H265.9a13,13,0,0,1-13-13V264.8H378.77a13,13,0,0,1,13,13V384.6A13,13,0,0,1,378.77,397.6ZM254.9,266.8V384.6a11,11,0,0,0,11,11H378.77a11,11,0,0,0,11-11V277.8a11,11,0,0,0-11-11Z"/><path class="cls-7" d="M328,203.84l-.23,0L314,200.63a1,1,0,0,1,.45-1.95l13.77,3.18a1,1,0,0,1-.22,2Z"/><path class="cls-7" d="M328,203.84l-.23,0a1,1,0,0,1-.75-1.2l5.86-25.35a1,1,0,0,1,1.95.45L329,203.07A1,1,0,0,1,328,203.84Z"/><path class="cls-7" d="M325.92,212.91l-.23,0a1,1,0,0,1-.75-1.2l2.1-9.07a1,1,0,1,1,1.95.45l-2.1,9.07A1,1,0,0,1,325.92,212.91Z"/><path class="cls-7" d="M360.9,221l-.23,0-21-4.86a1,1,0,0,1,.45-1.95l21,4.86a1,1,0,0,1-.22,2Z"/><path class="cls-8" d="M407.52,209.63l-46.23-28.1a4,4,0,0,0-5.49,1.34l-32.44,53.38a4,4,0,0,0,4.64,5.88l78.67-25.28A4,4,0,0,0,407.52,209.63Zm-25.28,4.94-30.55,9.82A4,4,0,0,1,347,218.5l12.6-20.73a4,4,0,0,1,5.49-1.34l18,10.91A4,4,0,0,1,382.24,214.57Z"/><path class="cls-7" d="M326.75,243.33a5,5,0,0,1-4.25-7.6l32.44-53.38a5,5,0,0,1,6.87-1.67L408,208.77a5,5,0,0,1-1.07,9L328.3,243.08A5.07,5.07,0,0,1,326.75,243.33Zm32.47-61.38a3,3,0,0,0-2.57,1.44l-32.44,53.38a3,3,0,0,0,3.48,4.41l78.67-25.28a3,3,0,0,0,.64-5.42l-46.23-28.09A3,3,0,0,0,359.22,181.95Zm-8.78,43.64a5,5,0,0,1-4.25-7.6l12.6-20.73a5,5,0,0,1,6.87-1.68l18,10.91a5,5,0,0,1-1.07,9L352,225.34A5.07,5.07,0,0,1,350.44,225.58Zm12.63-28.74a3,3,0,0,0-.72.09,3,3,0,0,0-1.85,1.36L347.9,219a3,3,0,0,0,3.48,4.41l30.55-9.82a3,3,0,0,0,.64-5.42l-18-10.91A3,3,0,0,0,363.07,196.85Z"/><path class="cls-7" d="M328.59,240.06a1,1,0,0,1-.52-.15l-4.23-2.57a1,1,0,0,1,1-1.71l4.23,2.57a1,1,0,0,1-.52,1.85Z"/><path class="cls-7" d="M329.42,233.94a1,1,0,0,1-.52-.15l-2.11-1.29a1,1,0,1,1,1-1.71l2.11,1.29a1,1,0,0,1-.52,1.85Z"/><path class="cls-7" d="M334.48,230.38a1,1,0,0,1-.52-.15l-4.23-2.57a1,1,0,0,1,1-1.71l4.23,2.57a1,1,0,0,1-.52,1.85Z"/><path class="cls-7" d="M335.31,224.25a1,1,0,0,1-.52-.15l-2.11-1.29a1,1,0,0,1,1-1.71l2.11,1.29a1,1,0,0,1-.52,1.85Z"/><path class="cls-7" d="M340.37,220.69a1,1,0,0,1-.52-.15L335.62,218a1,1,0,1,1,1-1.71l4.23,2.57a1,1,0,0,1-.52,1.85Z"/><path class="cls-7" d="M341.2,214.57a1,1,0,0,1-.52-.15l-2.11-1.29a1,1,0,1,1,1-1.71l2.11,1.29a1,1,0,0,1-.52,1.85Z"/><path class="cls-7" d="M346.25,211a1,1,0,0,1-.52-.15l-4.23-2.57a1,1,0,1,1,1-1.71l4.23,2.57a1,1,0,0,1-.52,1.85Z"/><path class="cls-7" d="M347.08,204.88a1,1,0,0,1-.52-.15l-2.11-1.29a1,1,0,1,1,1-1.71L347.6,203a1,1,0,0,1-.52,1.85Z"/><path class="cls-7" d="M352.14,201.32a1,1,0,0,1-.52-.15l-4.23-2.57a1,1,0,0,1,1-1.71l4.23,2.57a1,1,0,0,1-.52,1.85Z"/><path class="cls-7" d="M353,195.2a1,1,0,0,1-.52-.15l-2.11-1.28a1,1,0,0,1,1-1.71l2.11,1.28a1,1,0,0,1-.52,1.85Z"/><path class="cls-7" d="M358,191.64a1,1,0,0,1-.52-.15l-4.23-2.57a1,1,0,0,1,1-1.71l4.23,2.57a1,1,0,0,1-.52,1.85Z"/><path class="cls-7" d="M358.85,185.51a1,1,0,0,1-.52-.15l-2.11-1.29a1,1,0,1,1,1-1.71l2.11,1.29a1,1,0,0,1-.52,1.85Z"/><path class="cls-8" d="M375.77,272.41l-108.8.33a7.65,7.65,0,0,1-6.84-4.17l-8.06-15.76a7.65,7.65,0,0,0-6.81-4.17H187.88a7.67,7.67,0,0,0-7.65,7.65V389a7.67,7.67,0,0,0,7.65,7.65H375.77a7.67,7.67,0,0,0,7.65-7.65V280.06A7.67,7.67,0,0,0,375.77,272.41Z"/><path class="cls-7" d="M375.77,397.6H187.88a8.66,8.66,0,0,1-8.65-8.65V256.3a8.66,8.66,0,0,1,8.65-8.65h57.38a8.62,8.62,0,0,1,7.7,4.71L261,268.12a6.72,6.72,0,0,0,5.94,3.62l108.81-.33a8.66,8.66,0,0,1,8.65,8.65V389A8.66,8.66,0,0,1,375.77,397.6Zm-187.89-148a6.66,6.66,0,0,0-6.65,6.65V389a6.66,6.66,0,0,0,6.65,6.65H375.77a6.66,6.66,0,0,0,6.65-6.65V280.06a6.66,6.66,0,0,0-6.65-6.65l-108.8.33h0a8.61,8.61,0,0,1-7.7-4.71l-8.06-15.76a6.62,6.62,0,0,0-5.92-3.62Z"/><path class="cls-8" d="M310.16,324.72a27.41,27.41,0,0,0-54.81-.74c-.14,5.33.8,10.61,3.75,14.6.4.54.73,1.11,1.17,1.61l11,12.42a6.92,6.92,0,0,1,1.32,2.69c.73,3.85,2.38,10.8,4.83,10.8h11.29c2.45,0,3.89-6.89,4.75-10.77a6.3,6.3,0,0,1,1.32-2.67l10.77-12.87c.46-.55.8-1.18,1.21-1.76C309.22,334.52,310.16,329.55,310.16,324.72Z"/><path class="cls-7" d="M288.66,367.1H277.38c-.89,0-3.61,0-5.81-11.62a5.87,5.87,0,0,0-1.12-2.26l-10.91-12.37a11,11,0,0,1-.83-1.12c-.13-.19-.26-.38-.39-.56-2.78-3.76-4.11-8.88-3.94-15.22a28.66,28.66,0,0,1,28-27.64,28.41,28.41,0,0,1,28.81,28.4c0,4-.63,9.69-3.63,13.89-.15.21-.29.43-.43.64a11.51,11.51,0,0,1-.83,1.17L295.5,353.3a5.32,5.32,0,0,0-1.11,2.25l-.09.42C292.95,362.06,291.59,367.1,288.66,367.1Zm-5.91-68.79h-.38a26.64,26.64,0,0,0-26,25.69c-.16,5.88,1,10.58,3.55,14,.15.21.3.42.44.63a9.41,9.41,0,0,0,.68.92l11,12.51a7.77,7.77,0,0,1,1.48,3.07c1.39,7.33,3.06,10,3.85,10h11.29c1,0,2.27-3.22,3.68-9.56l.09-.42A7.33,7.33,0,0,1,294,352l10.77-12.87a9.92,9.92,0,0,0,.68-1c.16-.24.31-.49.48-.72,2.1-2.94,3.26-7.46,3.26-12.73a26.41,26.41,0,0,0-26.4-26.41Z"/><rect class="cls-8" x="271.42" y="366.36" width="22.56" height="2.92" rx="1.18" ry="1.18"/><path class="cls-7" d="M292.79,370.29H272.6a2.19,2.19,0,0,1-2.18-2.18v-.56a2.19,2.19,0,0,1,2.18-2.18h20.19a2.19,2.19,0,0,1,2.18,2.18v.56A2.19,2.19,0,0,1,292.79,370.29Zm-20.19-2.92a.19.19,0,0,0-.18.18v.56a.19.19,0,0,0,.18.18h20.19a.19.19,0,0,0,.18-.18v-.56a.19.19,0,0,0-.18-.18Z"/><path class="cls-8" d="M290.45,375A7.7,7.7,0,0,1,275,375"/><path class="cls-7" d="M282.75,383.7A8.71,8.71,0,0,1,274,375a1,1,0,1,1,2,0,6.7,6.7,0,0,0,13.41,0,1,1,0,0,1,2,0A8.71,8.71,0,0,1,282.75,383.7Z"/><path class="cls-7" d="M265.57,324.55h-2a19.11,19.11,0,0,1,19.09-19.09v2A17.11,17.11,0,0,0,265.57,324.55Z"/><path class="cls-6" d="M283.17,340.66V366"/><path class="cls-7" d="M283.17,367a1,1,0,0,1-1-1V340.66a1,1,0,0,1,2,0V366A1,1,0,0,1,283.17,367Z"/><circle class="cls-8" cx="218.06" cy="261.01" r="8.13"/><path class="cls-7" d="M218.06,270.14a9.13,9.13,0,1,1,9.13-9.13A9.14,9.14,0,0,1,218.06,270.14Zm0-16.26a7.13,7.13,0,1,0,7.13,7.13A7.14,7.14,0,0,0,218.06,253.88Z"/><path class="cls-7" d="M278,341.38a1,1,0,0,1-.71-1.71l8.11-8.11a1,1,0,0,1,1.41,1.41l-8.11,8.11A1,1,0,0,1,278,341.38Z"/><circle class="cls-6" cx="218.06" cy="261.01" r="2.96"/><path class="cls-7" d="M218.06,265a4,4,0,1,1,4-4A4,4,0,0,1,218.06,265Zm0-5.91a2,2,0,1,0,2,2A2,2,0,0,0,218.06,259Z"/><path class="cls-7" d="M277.6,335.61a1,1,0,0,1-.71-1.71l8.11-8.11a1,1,0,0,1,1.41,1.41l-8.11,8.11A1,1,0,0,1,277.6,335.61Z"/><path class="cls-7" d="M277.42,329.6a1,1,0,0,1-.71-1.71l8.11-8.11a1,1,0,0,1,1.41,1.41l-8.11,8.11A1,1,0,0,1,277.42,329.6Z"/><rect class="cls-8" x="271.42" y="369.29" width="22.56" height="2.92" rx="1.18" ry="1.18"/><path class="cls-7" d="M292.79,373.21H272.6a2.19,2.19,0,0,1-2.18-2.18v-.56a2.19,2.19,0,0,1,2.18-2.18h20.19a2.19,2.19,0,0,1,2.18,2.18V371A2.19,2.19,0,0,1,292.79,373.21Zm-20.19-2.92a.19.19,0,0,0-.18.18V371a.19.19,0,0,0,.18.18h20.19A.19.19,0,0,0,293,371v-.56a.19.19,0,0,0-.18-.18Z"/><rect class="cls-8" x="271.53" y="372.21" width="22.56" height="2.92" rx="1.18" ry="1.18"/><path class="cls-7" d="M292.91,376.13H272.71a2.19,2.19,0,0,1-2.18-2.18v-.56a2.19,2.19,0,0,1,2.18-2.18h20.19a2.19,2.19,0,0,1,2.18,2.18v.56A2.19,2.19,0,0,1,292.91,376.13Zm-20.19-2.92a.19.19,0,0,0-.18.18v.56a.19.19,0,0,0,.18.18h20.19a.19.19,0,0,0,.18-.18v-.56a.19.19,0,0,0-.18-.18Z"/><rect class="cls-7" x="180.23" y="281.23" width="203.32" height="2"/><rect class="cls-8" x="325.43" y="139.57" width="4.3" height="33.57" transform="translate(49.59 389.75) rotate(-65.53)"/><path class="cls-7" d="M342.46,166.58l-32.37-14.73,2.61-5.73,32.37,14.73Zm-29.72-15.72,28.73,13.07,1-2.09-28.73-13.07Z"/><path class="cls-8" d="M284.55,109.79h4.3a0,0,0,0,1,0,0V164a1.67,1.67,0,0,1-1.67,1.67h-1a1.67,1.67,0,0,1-1.67-1.67V109.79a0,0,0,0,1,0,0Z" transform="translate(530.82 -66.15) rotate(114.47)"/><path class="cls-7" d="M311.75,152.61l-50.28-22.88a2.67,2.67,0,0,1-1.32-3.53l.4-.88a2.67,2.67,0,0,1,3.53-1.32l50.28,22.88ZM263,125.75a.66.66,0,0,0-.61.39l-.4.88a.66.66,0,0,0,.33.88L310.76,150l1-2.09-48.46-22.05A.66.66,0,0,0,263,125.75Z"/><rect class="cls-6" x="257.08" y="121.74" width="2.74" height="6.3" transform="translate(479.16 -58.62) rotate(114.47)"/><path class="cls-7" d="M261.24,128.77l-7.55-3.44,2-4.32,7.55,3.44Zm-4.9-4.43,3.91,1.78.31-.67-3.91-1.78Z"/><path class="cls-7" d="M255.38,124.5a1,1,0,0,1-.41-.09l-3.08-1.4a1,1,0,1,1,.83-1.82l3.08,1.4a1,1,0,0,1-.42,1.91Z"/><rect class="cls-8" x="330.58" y="156.17" width="4.3" height="19.26" transform="translate(188.11 508.27) rotate(-93.59)"/><path class="cls-7" d="M322.32,169.61l-.39-6.29L343.14,162l.39,6.29Zm1.73-4.41.14,2.29,17.23-1.08-.14-2.29Z"/><path class="cls-8" d="M289.9,137.22h4.3a0,0,0,0,1,0,0v60.61a1.67,1.67,0,0,1-1.67,1.67h-1a1.67,1.67,0,0,1-1.67-1.67V137.22A0,0,0,0,1,289.9,137.22Z" transform="translate(441.77 -133.67) rotate(86.41)"/><path class="cls-7" d="M262.66,173.35a2.67,2.67,0,0,1-2.66-2.5l-.06-1a2.66,2.66,0,0,1,2.49-2.83l61.49-3.86.39,6.29-61.49,3.86Zm59.39-8-59.49,3.74a.66.66,0,0,0-.62.71l.06,1a.65.65,0,0,0,.71.62l59.49-3.74Z"/><polygon class="cls-6" points="260.88 168.94 261.05 171.67 246.73 172.57 246.73 172.57 260.88 168.94"/><path class="cls-7" d="M246.79,173.57l-.31-2,15.32-3.94.31,4.94ZM260,170.21l-2.75.71,2.78-.17Z"/><circle class="cls-6" cx="343.87" cy="164.61" r="6.92" transform="translate(123.34 475.59) rotate(-80.24)"/><path class="cls-7" d="M343.89,172.53a8,8,0,0,1-1.36-.12h0a7.87,7.87,0,1,1,1.36.12Zm0-13.84a5.92,5.92,0,0,0-1,11.75h0a5.92,5.92,0,1,0,2-11.66A6,6,0,0,0,343.86,158.69Z"/><circle class="cls-7" cx="343.87" cy="164.61" r="1.29" transform="translate(123.34 475.59) rotate(-80.24)"/></svg>