<svg id="Layer_1" data-name="Layer 1" xmlns="http://www.w3.org/2000/svg" viewBox="0 0 550 450"><defs><style>.cls-1{opacity:0.18;}.cls-2{fill:#e5e5e5;}.cls-3{opacity:0.42;}.cls-4{opacity:0.5;}.cls-5{fill:#e9e9e9;}.cls-6{fill:#f5f5f5;}.cls-7{fill:#8a8e91;}.cls-8{fill:#d0dbf7;}.cls-9{fill:#dae2f7;}</style></defs><title>Quotes</title><g class="cls-1"><circle class="cls-2" cx="275.13" cy="218.79" r="186.5"/></g><g class="cls-3"><circle class="cls-2" cx="274.91" cy="218.57" r="161.19"/></g><g class="cls-4"><circle class="cls-2" cx="274.91" cy="218.57" r="141.51"/></g><circle class="cls-5" cx="91" cy="94" r="2.5"/><circle class="cls-5" cx="193.82" cy="51.65" r="2.5"/><circle class="cls-5" cx="51.1" cy="168.12" r="2.5"/><circle class="cls-5" cx="234.54" cy="116.72" r="2.5"/><circle class="cls-5" cx="314.58" cy="49.82" r="2.5"/><circle class="cls-5" cx="85.3" cy="304.5" r="2.5" transform="translate(-172.97 122.03) rotate(-39.11)"/><circle class="cls-5" cx="68.24" cy="380.87" r="2.5" transform="translate(-224.97 128.38) rotate(-39.11)"/><circle class="cls-5" cx="459.76" cy="42.26" r="2.5" transform="translate(1.86 101.39) rotate(-12.61)"/><circle class="cls-5" cx="437" cy="123.3" r="2.5" transform="translate(-16.38 98.37) rotate(-12.61)"/><circle class="cls-5" cx="509.72" cy="224.5" r="2.5" transform="translate(-36.72 116.69) rotate(-12.61)"/><circle class="cls-5" cx="508.4" cy="347.14" r="2.5" transform="translate(-63.52 119.36) rotate(-12.61)"/><circle class="cls-5" cx="51.1" cy="65.59" r="0.81"/><circle class="cls-5" cx="105.19" cy="120.88" r="0.81"/><circle class="cls-5" cx="43.14" cy="101.4" r="0.81"/><circle class="cls-5" cx="82.19" cy="121.88" r="0.81"/><circle class="cls-5" cx="36.51" cy="145.53" r="0.81"/><circle class="cls-5" cx="93.08" cy="168.93" r="0.81"/><circle class="cls-5" cx="26.03" cy="190.42" r="0.81"/><circle class="cls-5" cx="67.01" cy="201.62" r="0.81"/><circle class="cls-5" cx="37.87" cy="220.79" r="0.81"/><circle class="cls-5" cx="80.4" cy="241.08" r="0.81"/><circle class="cls-5" cx="27.63" cy="273.35" r="0.81"/><circle class="cls-5" cx="59.79" cy="305.08" r="0.81"/><circle class="cls-5" cx="32.48" cy="320.22" r="0.81"/><circle class="cls-5" cx="77.91" cy="350.75" r="0.81"/><circle class="cls-5" cx="26.86" cy="384.63" r="0.81"/><circle class="cls-5" cx="189.35" cy="21.27" r="0.81" transform="translate(26.03 119.4) rotate(-37.41)"/><circle class="cls-5" cx="156.08" cy="36.7" r="0.81" transform="translate(9.8 102.36) rotate(-37.41)"/><circle class="cls-5" cx="117" cy="58.24" r="0.81" transform="translate(-11.32 83.06) rotate(-37.41)"/><circle class="cls-5" cx="529.25" cy="64.79" r="0.81"/><circle class="cls-5" cx="506.25" cy="65.79" r="0.81"/><circle class="cls-5" cx="526" cy="104.67" r="0.81"/><circle class="cls-5" cx="460.57" cy="89.44" r="0.81"/><circle class="cls-5" cx="423.83" cy="45.57" r="0.81"/><circle class="cls-5" cx="401" cy="20.46" r="0.81"/><circle class="cls-5" cx="372.17" cy="38" r="0.81"/><circle class="cls-5" cx="335.81" cy="14.17" r="0.81"/><circle class="cls-5" cx="252" cy="32.5" r="0.81"/><circle class="cls-5" cx="284.17" cy="17.67" r="0.81"/><circle class="cls-5" cx="510" cy="139.33" r="0.81"/><circle class="cls-5" cx="490.17" cy="182" r="0.81"/><circle class="cls-5" cx="537.88" cy="214.13" r="0.81"/><circle class="cls-5" cx="515.5" cy="250.75" r="0.81"/><circle class="cls-5" cx="535.56" cy="271.75" r="0.81"/><circle class="cls-5" cx="526.55" cy="302.78" r="0.81" transform="translate(135.78 767.78) rotate(-79.86)"/><circle class="cls-5" cx="532.86" cy="334.76" r="0.81" transform="translate(109.49 800.34) rotate(-79.86)"/><circle class="cls-5" cx="513.52" cy="384.69" r="0.81" transform="translate(44.41 822.44) rotate(-79.86)"/><path class="cls-5" d="M89.62,42.79h-1v-1a1,1,0,0,0-2,0v1h-1a1,1,0,0,0,0,2h1v1a1,1,0,0,0,2,0v-1h1a1,1,0,0,0,0-2Z"/><path class="cls-5" d="M484,113.22h-1v-1a1,1,0,1,0-2,0v1h-1a1,1,0,0,0,0,2h1v1a1,1,0,0,0,2,0v-1h1a1,1,0,0,0,0-2Z"/><path class="cls-5" d="M55.63,250.56h-1v-1a1,1,0,1,0-2,0v1h-1a1,1,0,0,0,0,2h1v1a1,1,0,0,0,2,0v-1h1a1,1,0,0,0,0-2Z"/><path class="cls-5" d="M318.06,24.11h-1v-1a1,1,0,0,0-2,0v1h-1a1,1,0,0,0,0,2h1v1a1,1,0,1,0,2,0v-1h1a1,1,0,0,0,0-2Z"/><path class="cls-5" d="M524.44,180.19h-1v-1a1,1,0,0,0-2,0v1h-1a1,1,0,0,0,0,2h1v1a1,1,0,1,0,2,0v-1h1a1,1,0,0,0,0-2Z"/><path class="cls-5" d="M495,321.45h-1v-1a1,1,0,0,0-2,0v1h-1a1,1,0,0,0,0,2h1v1a1,1,0,0,0,2,0v-1h1a1,1,0,0,0,0-2Z"/><path class="cls-5" d="M79.14,149.37h-1v-1a1,1,0,0,0-2,0v1h-1a1,1,0,1,0,0,2h1v1a1,1,0,0,0,2,0v-1h1a1,1,0,1,0,0-2Z"/><path class="cls-5" d="M30.47,357.5h-1v-1a1,1,0,0,0-2,0v1h-1a1,1,0,1,0,0,2h1v1a1,1,0,0,0,2,0v-1h1a1,1,0,1,0,0-2Z"/><g class="cls-3"><circle class="cls-2" cx="328.71" cy="248.57" r="12.08"/></g><g class="cls-3"><circle class="cls-2" cx="404.79" cy="248.57" r="12.08"/></g><rect class="cls-6" x="113.14" y="273.25" width="88.74" height="109.66" rx="12" ry="12" transform="translate(-80.94 53.15) rotate(-15.29)"/><path class="cls-7" d="M137.59,390.93A13,13,0,0,1,125,381.36l-22.59-82.63a13,13,0,0,1,9.11-16L174,265.69a13,13,0,0,1,16,9.11l22.59,82.63a13,13,0,0,1-9.11,16L141,390.47A13,13,0,0,1,137.59,390.93Zm39.86-123.7a11,11,0,0,0-2.9.39L112.1,284.69a11,11,0,0,0-7.71,13.51L127,380.83a11,11,0,0,0,13.51,7.71l62.45-17.07A11,11,0,0,0,210.64,358l-22.59-82.63A11,11,0,0,0,177.44,267.23Z"/><path class="cls-8" d="M114.69,274.65h64.74a12,12,0,0,1,12,12V305a0,0,0,0,1,0,0H102.69a0,0,0,0,1,0,0V286.65A12,12,0,0,1,114.69,274.65Z" transform="matrix(0.96, -0.26, 0.26, 0.96, -71.22, 49.03)"/><path class="cls-7" d="M107.56,317.39l-5.1-18.66a13,13,0,0,1,9.11-16L174,265.69a13,13,0,0,1,16,9.11l5.1,18.66Zm69.89-50.16a11,11,0,0,0-2.9.39L112.1,284.69a11,11,0,0,0-7.71,13.51L109,314.93l83.67-22.87-4.57-16.73A11,11,0,0,0,177.44,267.23Z"/><rect class="cls-6" x="117.44" y="283.43" width="60.17" height="14.12" rx="4.8" ry="4.8" transform="translate(-71.38 49.18) rotate(-15.29)"/><path class="cls-7" d="M123.73,305.14a5.83,5.83,0,0,1-5.6-4.27l-1.19-4.36a5.81,5.81,0,0,1,4.07-7.13L169.78,276a5.81,5.81,0,0,1,7.13,4.07l1.19,4.36A5.82,5.82,0,0,1,174,291.6l-48.77,13.33A5.81,5.81,0,0,1,123.73,305.14Zm47.58-27.3a3.78,3.78,0,0,0-1,.13l-48.77,13.33a3.81,3.81,0,0,0-2.67,4.67l1.19,4.36a3.82,3.82,0,0,0,4.67,2.67l48.77-13.33a3.82,3.82,0,0,0,2.67-4.67L175,280.64A3.81,3.81,0,0,0,171.31,277.84Z"/><circle class="cls-7" cx="167.56" cy="285.02" r="2.04" transform="translate(-69.22 54.27) rotate(-15.29)"/><circle class="cls-7" cx="159.73" cy="287.16" r="2.04" transform="translate(-70.07 52.28) rotate(-15.29)"/><circle class="cls-7" cx="151.68" cy="289.36" r="2.04" transform="translate(-70.93 50.24) rotate(-15.29)"/><rect class="cls-8" x="183.02" y="330.09" width="11.35" height="36.85" rx="2" ry="2" transform="translate(-85.22 62.09) rotate(-15.29)"/><path class="cls-7" d="M189.48,368.33a3,3,0,0,1-2.9-2.21l-8.66-31.69a3,3,0,0,1,2.1-3.68l7.09-1.94a3,3,0,0,1,3.69,2.1l8.66,31.69a3,3,0,0,1-2.1,3.68l-7.09,1.94A3,3,0,0,1,189.48,368.33Zm-1.58-37.63a1,1,0,0,0-.26,0l-7.09,1.94a1,1,0,0,0-.7,1.23l8.66,31.69a1,1,0,0,0,1.23.7l7.09-1.94a1,1,0,0,0,.7-1.23l-8.66-31.69A1,1,0,0,0,187.9,330.71Z"/><rect class="cls-6" x="173.67" y="307.68" width="11.35" height="13.25" rx="2" ry="2" transform="translate(-76.53 58.41) rotate(-15.29)"/><path class="cls-7" d="M177,322.73a3,3,0,0,1-2.9-2.21l-2.44-8.92a3,3,0,0,1,2.1-3.68l7.09-1.94a3,3,0,0,1,3.69,2.1L187,317a3,3,0,0,1-2.1,3.69l-7.09,1.94A3,3,0,0,1,177,322.73Zm4.65-14.86a1,1,0,0,0-.26,0l-7.09,1.94a1,1,0,0,0-.7,1.23l2.44,8.92a1,1,0,0,0,1.23.7l7.09-1.94a1,1,0,0,0,.7-1.23l-2.44-8.92A1,1,0,0,0,181.66,307.87Zm3,11.85h0Z"/><rect class="cls-6" x="149.75" y="313.78" width="11.35" height="13.25" rx="2" ry="2" transform="translate(-78.99 52.32) rotate(-15.29)"/><path class="cls-7" d="M153.1,328.84a3,3,0,0,1-2.9-2.21l-2.44-8.92a3,3,0,0,1,2.1-3.69l7.09-1.94a3,3,0,0,1,3.69,2.1l2.44,8.92a3,3,0,0,1-2.1,3.69l-7.09,1.94A3,3,0,0,1,153.1,328.84ZM157.74,314a1,1,0,0,0-.26,0L150.39,316a1,1,0,0,0-.7,1.23l2.44,8.92a1,1,0,0,0,1.23.7l7.09-1.94a1,1,0,0,0,.7-1.23l-2.44-8.92A1,1,0,0,0,157.74,314Zm3,11.85h0Z"/><rect class="cls-6" x="126.57" y="320.55" width="11.35" height="13.25" rx="2" ry="2" transform="translate(-81.59 46.45) rotate(-15.29)"/><path class="cls-7" d="M129.92,335.6a3,3,0,0,1-2.89-2.21l-2.44-8.92a3,3,0,0,1,2.1-3.69l7.09-1.94a3,3,0,0,1,3.68,2.1l2.44,8.92a3,3,0,0,1-2.1,3.68l-7.09,1.94A3,3,0,0,1,129.92,335.6Zm4.64-14.86a1,1,0,0,0-.26,0l-7.09,1.94a1,1,0,0,0-.7,1.23l2.44,8.92a1,1,0,0,0,1.23.7l7.09-1.94a1,1,0,0,0,.7-1.23l-2.44-8.92a1,1,0,0,0-.47-.6A1,1,0,0,0,134.57,320.75Z"/><rect class="cls-6" x="156.74" y="336.74" width="11.35" height="13.25" rx="2" ry="2" transform="translate(-84.79 54.98) rotate(-15.29)"/><path class="cls-7" d="M160.09,351.8a3,3,0,0,1-2.89-2.21l-2.44-8.92a3,3,0,0,1,2.1-3.68l7.09-1.94a3,3,0,0,1,3.68,2.1l2.44,8.92a3,3,0,0,1-2.1,3.68l-7.09,1.94A3,3,0,0,1,160.09,351.8Zm4.64-14.86a1,1,0,0,0-.26,0l-7.09,1.94a1,1,0,0,0-.7,1.23l2.44,8.92a1,1,0,0,0,1.23.7l7.09-1.94a1,1,0,0,0,.7-1.23l-2.44-8.92a1,1,0,0,0-.47-.6A1,1,0,0,0,164.73,336.94Z"/><rect class="cls-6" x="133.57" y="343.51" width="11.35" height="13.25" rx="2" ry="2" transform="matrix(0.96, -0.26, 0.26, 0.96, -87.4, 49.11)"/><path class="cls-7" d="M136.92,358.56a3,3,0,0,1-2.9-2.21l-2.44-8.92a3,3,0,0,1,2.1-3.69l7.09-1.94a3,3,0,0,1,3.69,2.1l2.44,8.92a3,3,0,0,1-2.1,3.69l-7.09,1.94A3,3,0,0,1,136.92,358.56Zm4.65-14.86a1,1,0,0,0-.26,0l-7.09,1.94a1,1,0,0,0-.7,1.23l2.44,8.92a1,1,0,0,0,1.23.7l7.09-1.94a1,1,0,0,0,.7-1.23l-2.44-8.92A1,1,0,0,0,141.56,343.7Zm3,11.85h0Z"/><rect class="cls-6" x="163.23" y="359.54" width="11.35" height="13.25" rx="2" ry="2" transform="translate(-90.57 57.5) rotate(-15.29)"/><path class="cls-7" d="M166.58,374.59a3,3,0,0,1-2.89-2.21l-2.44-8.92a3,3,0,0,1,2.1-3.68l7.09-1.94a3,3,0,0,1,3.69,2.1l2.44,8.92a3,3,0,0,1-2.1,3.69l-7.09,1.94A3,3,0,0,1,166.58,374.59Zm4.64-14.86a1,1,0,0,0-.26,0l-7.09,1.94a1,1,0,0,0-.7,1.23l2.44,8.92a1,1,0,0,0,1.23.7l7.09-1.94a1,1,0,0,0,.7-1.23l-2.44-8.92a1,1,0,0,0-.47-.6A1,1,0,0,0,171.22,359.73Z"/><rect class="cls-6" x="140.06" y="366.3" width="11.35" height="13.25" rx="2" ry="2" transform="translate(-93.18 51.62) rotate(-15.29)"/><path class="cls-7" d="M143.41,381.36a3,3,0,0,1-2.9-2.21l-2.44-8.92a3,3,0,0,1,2.1-3.69l7.09-1.94a3,3,0,0,1,3.69,2.1l2.44,8.92a3,3,0,0,1-2.1,3.69l-7.09,1.94A3,3,0,0,1,143.41,381.36Zm4.65-14.86a1,1,0,0,0-.26,0l-7.09,1.94a1,1,0,0,0-.7,1.23l2.44,8.92a1,1,0,0,0,1.23.7l7.09-1.94a1,1,0,0,0,.7-1.23L149,367.23A1,1,0,0,0,148.05,366.5Zm3,11.85h0Z"/><rect class="cls-6" x="197.82" y="154.82" width="150.84" height="243.18" rx="12" ry="12" transform="translate(22.13 -20.25) rotate(4.42)"/><path class="cls-7" d="M328,403.57q-.5,0-1,0l-126.46-9.78a13,13,0,0,1-12-14l16.9-218.53a13,13,0,0,1,14-12l126.46,9.78a13,13,0,0,1,12,14L341,391.57A13,13,0,0,1,328,403.57ZM218.45,151.26a11,11,0,0,0-11,10.15l-16.9,218.53a11,11,0,0,0,10.12,11.82l126.46,9.78A11,11,0,0,0,339,391.41l16.9-218.53a11,11,0,0,0-10.12-11.82l-126.46-9.78C219,151.27,218.73,151.26,218.45,151.26Z"/><rect class="cls-6" x="205.82" y="154.82" width="150.84" height="243.18" rx="12" ry="12" transform="matrix(1, -0.03, 0.03, 1, -9.14, 9.61)"/><path class="cls-7" d="M221.53,401.07a13,13,0,0,1-13-12.56l-7.37-219.06A13,13,0,0,1,213.73,156l126.77-4.26h0a12.75,12.75,0,0,1,9.31,3.51,12.91,12.91,0,0,1,4.12,9l7.37,219.06a13,13,0,0,1-12.55,13.43L222,401.06Zm119-247.31L213.8,158a11,11,0,0,0-10.62,11.36l7.37,219.06a11,11,0,0,0,11.37,10.62l126.77-4.26a11,11,0,0,0,10.62-11.37l-7.37-219.06a11,11,0,0,0-11.36-10.62Zm0-1h0Z"/><rect class="cls-6" x="213.82" y="154.82" width="150.84" height="243.18" rx="12" ry="12"/><path class="cls-7" d="M352.66,399H225.82a13,13,0,0,1-13-13V166.82a13,13,0,0,1,13-13H352.66a13,13,0,0,1,13,13V386A13,13,0,0,1,352.66,399ZM225.82,155.82a11,11,0,0,0-11,11V386a11,11,0,0,0,11,11H352.66a11,11,0,0,0,11-11V166.82a11,11,0,0,0-11-11Z"/><rect class="cls-9" x="214.82" y="191.23" width="111.51" height="13.11"/><path class="cls-6" d="M213.82,168.12V150.3a19.72,19.72,0,0,0-19.67-19.67h0a19.72,19.72,0,0,0-19.67,19.67v40.92H325.32"/><path class="cls-7" d="M325.32,192.23H173.48V150.3a20.67,20.67,0,0,1,41.33,0v17.81a1,1,0,0,1-2,0V150.3a18.67,18.67,0,0,0-37.33,0v39.92H325.32a1,1,0,0,1,0,2Z"/><polygon class="cls-6" points="193.74 131.75 344.99 131.75 331.99 169.74 189.49 169.74 193.74 131.75"/><path class="cls-6" d="M325.32,191.23V150.3A19.72,19.72,0,0,1,345,130.64h0a19.72,19.72,0,0,1,19.67,19.67v17.81"/><path class="cls-7" d="M325.32,192.23a1,1,0,0,1-1-1V150.3a20.67,20.67,0,0,1,41.33,0v17.81a1,1,0,0,1-2,0V150.3a18.67,18.67,0,0,0-37.33,0v40.92A1,1,0,0,1,325.32,192.23Z"/><rect class="cls-7" x="194.15" y="129.64" width="150.84" height="2"/><path class="cls-7" d="M252,371.91H230a1,1,0,1,1,0-2H252a1,1,0,1,1,0,2Z"/><path class="cls-7" d="M338.32,371.91H302.75a1,1,0,0,1,0-2h35.57a1,1,0,0,1,0,2Z"/><path class="cls-7" d="M251.31,241.89H237.72a6.74,6.74,0,0,1-6.73-6.73v-11a6.74,6.74,0,0,1,6.73-6.73h13.59a6.74,6.74,0,0,1,6.73,6.73v11A6.74,6.74,0,0,1,251.31,241.89Zm-13.59-22.5a4.74,4.74,0,0,0-4.73,4.73v11a4.74,4.74,0,0,0,4.73,4.73h13.59a4.74,4.74,0,0,0,4.73-4.73v-11a4.74,4.74,0,0,0-4.73-4.73Z"/><path class="cls-6" d="M421.28,229.94h17a0,0,0,0,1,0,0v44.87a8.5,8.5,0,0,1-8.5,8.5h0a8.5,8.5,0,0,1-8.5-8.5V229.94A0,0,0,0,1,421.28,229.94Z" transform="translate(552.21 741.98) rotate(-135)"/><path class="cls-7" d="M416.92,282.92l-13.43-13.44L435.92,237a9.5,9.5,0,1,1,13.43,13.43Zm-10.61-13.44,10.61,10.61,31-31a7.5,7.5,0,1,0-10.61-10.61Z"/><path class="cls-6" d="M370.78,262.67h17a0,0,0,0,1,0,0v85.9a3,3,0,0,1-3,3h-11a3,3,0,0,1-3-3v-85.9A0,0,0,0,1,370.78,262.67Z" transform="translate(328.25 -178.24) rotate(45)"/><path class="cls-7" d="M353.86,344.31a4,4,0,0,1-2.83-1.17l-7.78-7.78a4,4,0,0,1,0-5.66l61.44-61.44,13.44,13.43-61.44,61.44A4,4,0,0,1,353.86,344.31Zm50.84-73.22-60,60a2,2,0,0,0,0,2.83l7.78,7.78a2,2,0,0,0,2.83,0l60-60Z"/><path class="cls-8" d="M440.68,228.92h17a0,0,0,0,1,0,0v12.6a4,4,0,0,1-4,4h-9a4,4,0,0,1-4-4v-12.6A0,0,0,0,1,440.68,228.92Z" transform="translate(599.06 722.57) rotate(-135)"/><path class="cls-7" d="M449.32,250.51l-13.44-13.43,9.62-9.62a5,5,0,0,1,7.07,0l6.36,6.36a5,5,0,0,1,0,7.07Zm-10.61-13.43,10.61,10.61,8.2-8.2a3,3,0,0,0,0-4.24l-6.36-6.36a3,3,0,0,0-4.24,0Z"/><path class="cls-8" d="M335.74,336.1h12.58a0,0,0,0,1,0,0v14a3,3,0,0,1-3,3h-6.58a3,3,0,0,1-3-3v-14A0,0,0,0,1,335.74,336.1Z" transform="translate(343.85 -140.92) rotate(45)"/><path class="cls-7" d="M340.47,354.82a4,4,0,0,1-2.83-1.17L333,349a4,4,0,0,1,0-5.66l10.61-10.61L353.9,343,343.3,353.65A4,4,0,0,1,340.47,354.82Zm3.12-19.26-9.19,9.19a2,2,0,0,0,0,2.83l4.66,4.66a2,2,0,0,0,2.83,0l9.19-9.19Z"/><path class="cls-6" d="M329.71,349.48h6.83a0,0,0,0,1,0,0V355a3,3,0,0,1-3,3h-.83a3,3,0,0,1-3-3v-5.5A0,0,0,0,1,329.71,349.48Z" transform="translate(347.7 -131.95) rotate(45)"/><path class="cls-7" d="M332.54,358.91a4,4,0,0,1-2.83-1.17l-.59-.59a4,4,0,0,1,0-5.66l4.6-4.6,6.25,6.25-4.6,4.6A4,4,0,0,1,332.54,358.91Zm1.18-9.18-3.18,3.18a2,2,0,0,0,0,2.83l.59.59a2,2,0,0,0,2.83,0l3.18-3.18Z"/><path class="cls-7" d="M326.32,361.54a1,1,0,0,1-.71-1.71l3.8-3.8a1,1,0,0,1,1.41,1.41l-3.8,3.8A1,1,0,0,1,326.32,361.54Z"/><path class="cls-7" d="M423.11,252.27a1,1,0,0,1-.71-.29l-2.83-2.83a1,1,0,0,1,1.41-1.41l2.83,2.83a1,1,0,0,1-.71,1.71Z"/><path class="cls-7" d="M410.79,264.58a1,1,0,0,1-.71-.29l-2.83-2.83a1,1,0,0,1,1.41-1.41l2.83,2.83a1,1,0,0,1-.71,1.71Z"/><rect class="cls-6" x="400.33" y="227.76" width="5.01" height="66.33" rx="2.51" ry="2.51" transform="translate(503.18 730.28) rotate(-135)"/><path class="cls-7" d="M381.16,286.11a3.5,3.5,0,0,1-2.48-6L422,236.77a3.51,3.51,0,0,1,5,5l-43.36,43.36A3.49,3.49,0,0,1,381.16,286.11Zm43.36-48.37a1.5,1.5,0,0,0-1.07.44l-43.36,43.36a1.51,1.51,0,0,0,0,2.13,1.55,1.55,0,0,0,2.13,0l43.36-43.36a1.5,1.5,0,0,0-1.06-2.57Z"/><path class="cls-7" d="M359.11,328.75a1,1,0,0,1-.71-1.71L386,299.46a1,1,0,0,1,1.41,1.41l-27.58,27.58A1,1,0,0,1,359.11,328.75Z"/><rect class="cls-8" x="231.99" y="254.7" width="102" height="6.62" rx="3.31" ry="3.31"/><path class="cls-7" d="M330.68,262.33H235.3a4.31,4.31,0,1,1,0-8.62h95.38a4.31,4.31,0,1,1,0,8.62ZM235.3,255.7a2.31,2.31,0,1,0,0,4.62h95.38a2.31,2.31,0,1,0,0-4.62Z"/><rect class="cls-8" x="231.99" y="272.04" width="45.09" height="6.62" rx="3.31" ry="3.31"/><path class="cls-7" d="M273.77,279.66H235.3a4.31,4.31,0,1,1,0-8.62h38.47a4.31,4.31,0,0,1,0,8.62ZM235.3,273a2.31,2.31,0,1,0,0,4.62h38.47a2.31,2.31,0,0,0,0-4.62Z"/><rect class="cls-8" x="231.99" y="296.01" width="73.76" height="6.62" rx="3.31" ry="3.31"/><path class="cls-7" d="M302.44,303.63H235.3a4.31,4.31,0,1,1,0-8.62h67.14a4.31,4.31,0,0,1,0,8.62ZM235.3,297a2.31,2.31,0,1,0,0,4.62h67.14a2.31,2.31,0,0,0,0-4.62Z"/><rect class="cls-8" x="231.58" y="308.67" width="47.5" height="6.62" rx="3.31" ry="3.31"/><path class="cls-7" d="M275.77,316.3H234.89a4.31,4.31,0,1,1,0-8.62h40.88a4.31,4.31,0,1,1,0,8.62Zm-40.88-6.62a2.31,2.31,0,1,0,0,4.62h40.88a2.31,2.31,0,1,0,0-4.62Z"/><rect class="cls-8" x="230.78" y="326.19" width="87.71" height="6.62" rx="3.31" ry="3.31"/><path class="cls-7" d="M315.18,333.82H234.09a4.31,4.31,0,1,1,0-8.62h81.08a4.31,4.31,0,1,1,0,8.62Zm-81.08-6.62a2.31,2.31,0,1,0,0,4.62h81.08a2.31,2.31,0,1,0,0-4.62Z"/><rect class="cls-9" x="326.32" y="150" width="4.17" height="54.33"/><path class="cls-7" d="M277.08,180.67H185.32a1,1,0,0,1,0-2h91.76a1,1,0,0,1,0,2Z"/><path class="cls-7" d="M313.12,161.93h-51.8a1,1,0,0,1,0-2h51.8a1,1,0,0,1,0,2Z"/><path class="cls-7" d="M221.7,259.5H194a1,1,0,1,1,0-2H221.7a5.94,5.94,0,1,0,0-11.87h-18a1,1,0,0,1,0-2h18a7.94,7.94,0,1,1,0,15.87Z"/><path class="cls-7" d="M212.27,259.5H194.21c-6.23,0-11.3-4.7-11.3-10.49v-.7c0-5.78,5.07-10.49,11.3-10.49h29.66a1,1,0,0,1,0,2H194.21c-5.13,0-9.3,3.81-9.3,8.49v.7c0,4.68,4.17,8.49,9.3,8.49h18.06a1,1,0,0,1,0,2Z"/><path class="cls-7" d="M199,254a5.18,5.18,0,0,1,0-10.37h4.69a1,1,0,0,1,0,2H199a3.18,3.18,0,0,0,0,6.37,1,1,0,0,1,0,2Z"/></svg>