<svg id="Layer_1" data-name="Layer 1" xmlns="http://www.w3.org/2000/svg" viewBox="0 0 550 450"><defs><style>.cls-1{fill:#e9e9e9;}.cls-2{opacity:0.18;}.cls-3{fill:#e5e5e5;}.cls-4{opacity:0.42;}.cls-5{opacity:0.5;}.cls-6{fill:#8a8e91;}.cls-7{fill:#f5f5f5;}.cls-8{fill:#d0dbf7;}.cls-9{fill:#dae2f7;}</style></defs><title>1_</title><circle class="cls-1" cx="91" cy="94" r="2.5"/><circle class="cls-1" cx="193.82" cy="51.65" r="2.5"/><circle class="cls-1" cx="51.1" cy="168.12" r="2.5"/><circle class="cls-1" cx="314.58" cy="49.82" r="2.5"/><circle class="cls-1" cx="85.3" cy="304.5" r="2.5" transform="translate(-172.97 122.03) rotate(-39.11)"/><circle class="cls-1" cx="68.24" cy="380.87" r="2.5" transform="translate(-224.97 128.38) rotate(-39.11)"/><circle class="cls-1" cx="459.76" cy="42.26" r="2.5" transform="translate(1.86 101.39) rotate(-12.61)"/><circle class="cls-1" cx="509.72" cy="224.5" r="2.5" transform="translate(-36.72 116.69) rotate(-12.61)"/><circle class="cls-1" cx="508.4" cy="347.14" r="2.5" transform="translate(-63.52 119.36) rotate(-12.61)"/><circle class="cls-1" cx="51.1" cy="65.59" r="0.81"/><circle class="cls-1" cx="43.14" cy="101.4" r="0.81"/><circle class="cls-1" cx="82.19" cy="121.88" r="0.81"/><circle class="cls-1" cx="36.51" cy="145.53" r="0.81"/><circle class="cls-1" cx="93.08" cy="168.93" r="0.81"/><circle class="cls-1" cx="26.03" cy="190.42" r="0.81"/><circle class="cls-1" cx="67.01" cy="201.62" r="0.81"/><circle class="cls-1" cx="37.87" cy="220.79" r="0.81"/><circle class="cls-1" cx="80.4" cy="241.08" r="0.81"/><circle class="cls-1" cx="27.63" cy="273.35" r="0.81"/><circle class="cls-1" cx="59.79" cy="305.08" r="0.81"/><circle class="cls-1" cx="32.48" cy="320.22" r="0.81"/><circle class="cls-1" cx="77.91" cy="350.75" r="0.81"/><circle class="cls-1" cx="26.86" cy="384.63" r="0.81"/><circle class="cls-1" cx="189.35" cy="21.27" r="0.81" transform="translate(26.03 119.4) rotate(-37.41)"/><circle class="cls-1" cx="156.08" cy="36.7" r="0.81" transform="translate(9.8 102.36) rotate(-37.41)"/><circle class="cls-1" cx="117" cy="58.24" r="0.81" transform="translate(-11.32 83.06) rotate(-37.41)"/><circle class="cls-1" cx="529.25" cy="64.79" r="0.81"/><circle class="cls-1" cx="506.25" cy="65.79" r="0.81"/><circle class="cls-1" cx="526" cy="104.67" r="0.81"/><circle class="cls-1" cx="460.57" cy="89.44" r="0.81"/><circle class="cls-1" cx="423.83" cy="45.57" r="0.81"/><circle class="cls-1" cx="401" cy="20.46" r="0.81"/><circle class="cls-1" cx="372.17" cy="38" r="0.81"/><circle class="cls-1" cx="335.81" cy="14.17" r="0.81"/><circle class="cls-1" cx="252" cy="32.5" r="0.81"/><circle class="cls-1" cx="284.17" cy="17.67" r="0.81"/><circle class="cls-1" cx="510" cy="139.33" r="0.81"/><circle class="cls-1" cx="490.17" cy="182" r="0.81"/><circle class="cls-1" cx="537.88" cy="214.13" r="0.81"/><circle class="cls-1" cx="515.5" cy="250.75" r="0.81"/><circle class="cls-1" cx="535.56" cy="271.75" r="0.81"/><circle class="cls-1" cx="526.55" cy="302.78" r="0.81" transform="translate(135.78 767.78) rotate(-79.86)"/><circle class="cls-1" cx="532.86" cy="334.76" r="0.81" transform="translate(109.49 800.34) rotate(-79.86)"/><circle class="cls-1" cx="513.52" cy="384.69" r="0.81" transform="translate(44.41 822.44) rotate(-79.86)"/><path class="cls-1" d="M89.62,42.79h-1v-1a1,1,0,0,0-2,0v1h-1a1,1,0,0,0,0,2h1v1a1,1,0,0,0,2,0v-1h1a1,1,0,0,0,0-2Z"/><path class="cls-1" d="M484,113.22h-1v-1a1,1,0,1,0-2,0v1h-1a1,1,0,0,0,0,2h1v1a1,1,0,0,0,2,0v-1h1a1,1,0,0,0,0-2Z"/><path class="cls-1" d="M55.63,250.56h-1v-1a1,1,0,1,0-2,0v1h-1a1,1,0,0,0,0,2h1v1a1,1,0,0,0,2,0v-1h1a1,1,0,0,0,0-2Z"/><path class="cls-1" d="M318.06,24.11h-1v-1a1,1,0,0,0-2,0v1h-1a1,1,0,0,0,0,2h1v1a1,1,0,1,0,2,0v-1h1a1,1,0,0,0,0-2Z"/><path class="cls-1" d="M524.44,180.19h-1v-1a1,1,0,0,0-2,0v1h-1a1,1,0,0,0,0,2h1v1a1,1,0,1,0,2,0v-1h1a1,1,0,0,0,0-2Z"/><path class="cls-1" d="M495,321.45h-1v-1a1,1,0,0,0-2,0v1h-1a1,1,0,0,0,0,2h1v1a1,1,0,0,0,2,0v-1h1a1,1,0,0,0,0-2Z"/><path class="cls-1" d="M79.14,149.37h-1v-1a1,1,0,0,0-2,0v1h-1a1,1,0,1,0,0,2h1v1a1,1,0,0,0,2,0v-1h1a1,1,0,1,0,0-2Z"/><path class="cls-1" d="M30.47,357.5h-1v-1a1,1,0,0,0-2,0v1h-1a1,1,0,1,0,0,2h1v1a1,1,0,0,0,2,0v-1h1a1,1,0,1,0,0-2Z"/><g class="cls-2"><circle class="cls-3" cx="275" cy="225" r="186.5"/></g><g class="cls-4"><circle class="cls-3" cx="274.78" cy="224.78" r="161.19"/></g><g class="cls-5"><circle class="cls-3" cx="274.78" cy="224.78" r="141.51"/></g><circle class="cls-1" cx="105.19" cy="88.46" r="0.81"/><rect class="cls-6" x="188.02" y="88.42" width="150.84" height="2"/><g class="cls-4"><circle class="cls-3" cx="322.51" cy="222.35" r="12.08"/></g><g class="cls-4"><circle class="cls-3" cx="398.59" cy="222.35" r="12.08"/></g><rect class="cls-7" x="106.95" y="244.04" width="88.74" height="109.66" rx="12" ry="12" transform="translate(-73.45 50.48) rotate(-15.29)"/><path class="cls-6" d="M131.39,361.72a13,13,0,0,1-12.54-9.57L96.26,269.52a13,13,0,0,1,9.11-16l62.45-17.07a13,13,0,0,1,16,9.11l22.59,82.63a13,13,0,0,1-9.11,16l-62.45,17.07A13,13,0,0,1,131.39,361.72ZM171.25,238a11,11,0,0,0-2.9.39L105.9,255.48A11,11,0,0,0,98.19,269l22.59,82.63a11,11,0,0,0,13.51,7.71l62.45-17.07a11,11,0,0,0,7.71-13.51l-22.59-82.63A11,11,0,0,0,171.25,238Z"/><path class="cls-8" d="M108.49,245.44h64.74a12,12,0,0,1,12,12v18.34a0,0,0,0,1,0,0H96.49a0,0,0,0,1,0,0V257.44a12,12,0,0,1,12-12Z" transform="translate(-63.73 46.37) rotate(-15.29)"/><path class="cls-6" d="M101.36,288.17l-5.1-18.66a13,13,0,0,1,9.11-16l62.45-17.07a13,13,0,0,1,16,9.11l5.1,18.66ZM171.25,238a11,11,0,0,0-2.9.39L105.9,255.48A11,11,0,0,0,98.19,269l4.57,16.73,83.67-22.87-4.57-16.73A11,11,0,0,0,171.25,238Z"/><rect class="cls-7" x="111.24" y="254.22" width="60.17" height="14.12" rx="4.8" ry="4.8" transform="translate(-63.89 46.51) rotate(-15.29)"/><path class="cls-6" d="M117.54,275.93a5.83,5.83,0,0,1-5.6-4.27l-1.19-4.36a5.81,5.81,0,0,1,4.07-7.13l48.77-13.33a5.81,5.81,0,0,1,7.13,4.07l1.19,4.36a5.82,5.82,0,0,1-4.07,7.13l-48.77,13.33A5.81,5.81,0,0,1,117.54,275.93Zm47.58-27.3a3.78,3.78,0,0,0-1,.13L115.34,262.1a3.81,3.81,0,0,0-2.67,4.67l1.19,4.36a3.82,3.82,0,0,0,4.67,2.67l48.77-13.33a3.82,3.82,0,0,0,2.67-4.67l-1.19-4.36A3.81,3.81,0,0,0,165.12,248.63Z"/><circle class="cls-6" cx="161.37" cy="255.8" r="2.04" transform="translate(-61.74 51.6) rotate(-15.29)"/><circle class="cls-6" cx="153.53" cy="257.94" r="2.04" transform="matrix(0.96, -0.26, 0.26, 0.96, -62.58, 49.61)"/><circle class="cls-6" cx="145.48" cy="260.14" r="2.04" transform="matrix(0.96, -0.26, 0.26, 0.96, -63.45, 47.57)"/><rect class="cls-8" x="176.82" y="300.88" width="11.35" height="36.85" rx="2" ry="2" transform="translate(-77.74 59.42) rotate(-15.29)"/><path class="cls-6" d="M183.29,339.12a3,3,0,0,1-2.9-2.21l-8.66-31.69a3,3,0,0,1,2.1-3.68l7.09-1.94a3,3,0,0,1,3.69,2.1l8.66,31.69a3,3,0,0,1-2.1,3.68L184.08,339A3,3,0,0,1,183.29,339.12Zm-1.58-37.63a1,1,0,0,0-.26,0l-7.09,1.94a1,1,0,0,0-.7,1.23l8.66,31.69a1,1,0,0,0,1.23.7l7.09-1.94a1,1,0,0,0,.7-1.23l-8.66-31.69A1,1,0,0,0,181.71,301.49Z"/><rect class="cls-7" x="167.47" y="278.46" width="11.35" height="13.25" rx="2" ry="2" transform="translate(-69.05 55.74) rotate(-15.29)"/><path class="cls-6" d="M170.82,293.52a3,3,0,0,1-2.9-2.21l-2.44-8.92a3,3,0,0,1,2.1-3.68l7.09-1.94a3,3,0,0,1,3.69,2.1l2.44,8.92a3,3,0,0,1-2.1,3.69l-7.09,1.94A3,3,0,0,1,170.82,293.52Zm4.65-14.86a1,1,0,0,0-.26,0l-7.09,1.94a1,1,0,0,0-.7,1.23l2.44,8.92a1,1,0,0,0,1.23.7l7.09-1.94a1,1,0,0,0,.7-1.23l-2.44-8.92A1,1,0,0,0,175.46,278.66Zm3,11.85h0Z"/><rect class="cls-7" x="143.55" y="284.57" width="11.35" height="13.25" rx="2" ry="2" transform="translate(-71.5 49.65) rotate(-15.29)"/><path class="cls-6" d="M146.9,299.63a3,3,0,0,1-2.9-2.21l-2.44-8.92a3,3,0,0,1,2.1-3.69l7.09-1.94a3,3,0,0,1,3.69,2.1l2.44,8.92a3,3,0,0,1-2.1,3.69l-7.09,1.94A3,3,0,0,1,146.9,299.63Zm4.65-14.86a1,1,0,0,0-.26,0l-7.09,1.94a1,1,0,0,0-.7,1.23l2.44,8.92a1,1,0,0,0,1.23.7l7.09-1.94a1,1,0,0,0,.7-1.23l-2.44-8.92A1,1,0,0,0,151.54,284.77Zm3,11.85h0Z"/><rect class="cls-7" x="120.37" y="291.34" width="11.35" height="13.25" rx="2" ry="2" transform="matrix(0.96, -0.26, 0.26, 0.96, -74.11, 43.78)"/><path class="cls-6" d="M123.72,306.39a3,3,0,0,1-2.89-2.21l-2.44-8.92a3,3,0,0,1,2.1-3.69l7.09-1.94a3,3,0,0,1,3.68,2.1l2.44,8.92a3,3,0,0,1-2.1,3.68l-7.09,1.94A3,3,0,0,1,123.72,306.39Zm4.64-14.86a1,1,0,0,0-.26,0L121,293.5a1,1,0,0,0-.7,1.23l2.44,8.92a1,1,0,0,0,1.23.7l7.09-1.94a1,1,0,0,0,.7-1.23l-2.44-8.92a1,1,0,0,0-.47-.6A1,1,0,0,0,128.37,291.53Z"/><rect class="cls-7" x="150.54" y="307.53" width="11.35" height="13.25" rx="2" ry="2" transform="translate(-77.31 52.31) rotate(-15.29)"/><path class="cls-6" d="M153.89,322.58a3,3,0,0,1-2.89-2.21l-2.44-8.92a3,3,0,0,1,2.1-3.68l7.09-1.94a3,3,0,0,1,3.68,2.1l2.44,8.92a3,3,0,0,1-2.1,3.68l-7.09,1.94A3,3,0,0,1,153.89,322.58Zm4.64-14.86a1,1,0,0,0-.26,0l-7.09,1.94a1,1,0,0,0-.7,1.23l2.44,8.92a1,1,0,0,0,1.23.7l7.09-1.94a1,1,0,0,0,.7-1.23l-2.44-8.92a1,1,0,0,0-.47-.6A1,1,0,0,0,158.54,307.72Z"/><rect class="cls-7" x="127.37" y="314.29" width="11.35" height="13.25" rx="2" ry="2" transform="matrix(0.96, -0.26, 0.26, 0.96, -79.91, 46.44)"/><path class="cls-6" d="M130.72,329.35a3,3,0,0,1-2.9-2.21l-2.44-8.92a3,3,0,0,1,2.1-3.69l7.09-1.94a3,3,0,0,1,3.69,2.1l2.44,8.92a3,3,0,0,1-2.1,3.69l-7.09,1.94A3,3,0,0,1,130.72,329.35Zm4.65-14.86a1,1,0,0,0-.26,0L128,316.46a1,1,0,0,0-.7,1.23l2.44,8.92a1,1,0,0,0,1.23.7l7.09-1.94a1,1,0,0,0,.7-1.23l-2.44-8.92A1,1,0,0,0,135.36,314.49Zm3,11.85h0Z"/><rect class="cls-7" x="157.03" y="330.32" width="11.35" height="13.25" rx="2" ry="2" transform="translate(-83.09 54.83) rotate(-15.29)"/><path class="cls-6" d="M160.38,345.38a3,3,0,0,1-2.89-2.21L155,334.25a3,3,0,0,1,2.1-3.68l7.09-1.94a3,3,0,0,1,3.69,2.1l2.44,8.92a3,3,0,0,1-2.1,3.69l-7.09,1.94A3,3,0,0,1,160.38,345.38ZM165,330.52a1,1,0,0,0-.26,0l-7.09,1.94a1,1,0,0,0-.7,1.23l2.44,8.92a1,1,0,0,0,1.23.7l7.09-1.94a1,1,0,0,0,.7-1.23L166,331.26a1,1,0,0,0-.47-.6A1,1,0,0,0,165,330.52Z"/><rect class="cls-7" x="133.86" y="337.09" width="11.35" height="13.25" rx="2" ry="2" transform="matrix(0.96, -0.26, 0.26, 0.96, -85.69, 48.96)"/><path class="cls-6" d="M137.21,352.14a3,3,0,0,1-2.9-2.21L131.88,341a3,3,0,0,1,2.1-3.69l7.09-1.94a3,3,0,0,1,3.69,2.1l2.44,8.92a3,3,0,0,1-2.1,3.69L138,352A3,3,0,0,1,137.21,352.14Zm4.65-14.86a1,1,0,0,0-.26,0l-7.09,1.94a1,1,0,0,0-.7,1.23l2.44,8.92a1,1,0,0,0,1.23.7l7.09-1.94a1,1,0,0,0,.7-1.23L142.82,338A1,1,0,0,0,141.85,337.28Zm3,11.85h0Z"/><rect class="cls-7" x="191.62" y="113.61" width="150.84" height="243.18" rx="12" ry="12" transform="translate(18.93 -19.89) rotate(4.42)"/><path class="cls-6" d="M321.83,362.35q-.5,0-1,0l-126.46-9.78a13,13,0,0,1-12-14L199.3,120a13,13,0,0,1,14-12l126.46,9.78a13,13,0,0,1,12,14l-16.9,218.53A13,13,0,0,1,321.83,362.35ZM212.25,110a11,11,0,0,0-11,10.15l-16.9,218.53a11,11,0,0,0,10.12,11.82L321,360.32a11,11,0,0,0,11.82-10.12l16.9-218.53a11,11,0,0,0-10.12-11.82l-126.46-9.78C212.82,110.05,212.54,110,212.25,110Z"/><rect class="cls-7" x="199.62" y="113.61" width="150.84" height="243.18" rx="12" ry="12" transform="translate(-7.75 9.38) rotate(-1.93)"/><path class="cls-6" d="M215.34,359.86a13,13,0,0,1-13-12.56L195,128.24a13,13,0,0,1,12.56-13.43l126.77-4.26h0A12.75,12.75,0,0,1,343.6,114a12.91,12.91,0,0,1,4.12,9l7.37,219.06a13,13,0,0,1-12.55,13.43l-126.77,4.26Zm119-247.31L207.6,116.81A11,11,0,0,0,197,128.17l7.37,219.06a11,11,0,0,0,11.37,10.62l126.77-4.26a11,11,0,0,0,10.62-11.37l-7.37-219.06a11,11,0,0,0-11.36-10.62Zm0-1h0Z"/><rect class="cls-7" x="207.62" y="113.61" width="150.84" height="243.18" rx="12" ry="12"/><path class="cls-6" d="M346.46,357.79H219.62a13,13,0,0,1-13-13V125.61a13,13,0,0,1,13-13H346.46a13,13,0,0,1,13,13V344.79A13,13,0,0,1,346.46,357.79ZM219.62,114.61a11,11,0,0,0-11,11V344.79a11,11,0,0,0,11,11H346.46a11,11,0,0,0,11-11V125.61a11,11,0,0,0-11-11Z"/><rect class="cls-9" x="208.62" y="150.01" width="111.51" height="13.11"/><path class="cls-7" d="M207.62,126.9V109.09A19.72,19.72,0,0,0,188,89.42h0a19.72,19.72,0,0,0-19.67,19.67V150H319.12"/><path class="cls-6" d="M319.12,151H167.29V109.09a20.67,20.67,0,0,1,41.33,0V126.9a1,1,0,0,1-2,0V109.09a18.67,18.67,0,0,0-37.33,0V149H319.12a1,1,0,0,1,0,2Z"/><polygon class="cls-7" points="187.54 90.54 338.79 90.54 325.79 128.52 183.29 128.52 187.54 90.54"/><path class="cls-7" d="M319.12,150V109.09a19.72,19.72,0,0,1,19.67-19.67h0a19.72,19.72,0,0,1,19.67,19.67V126.9"/><path class="cls-6" d="M319.12,151a1,1,0,0,1-1-1V109.09a20.67,20.67,0,0,1,41.33,0V126.9a1,1,0,1,1-2,0V109.09a18.67,18.67,0,0,0-37.33,0V150A1,1,0,0,1,319.12,151Z"/><path class="cls-6" d="M245.85,330.7H223.79a1,1,0,0,1,0-2h22.06a1,1,0,1,1,0,2Z"/><path class="cls-6" d="M332.12,330.7H296.55a1,1,0,0,1,0-2h35.57a1,1,0,0,1,0,2Z"/><path class="cls-6" d="M245.11,200.67H231.53a6.74,6.74,0,0,1-6.73-6.73v-11a6.74,6.74,0,0,1,6.73-6.73h13.59a6.74,6.74,0,0,1,6.73,6.73v11A6.74,6.74,0,0,1,245.11,200.67Zm-13.59-22.5a4.74,4.74,0,0,0-4.73,4.73v11a4.74,4.74,0,0,0,4.73,4.73h13.59a4.74,4.74,0,0,0,4.73-4.73v-11a4.74,4.74,0,0,0-4.73-4.73Z"/><path class="cls-7" d="M415.08,192.72h17a0,0,0,0,1,0,0v44.87a8.5,8.5,0,0,1-8.5,8.5h0a8.5,8.5,0,0,1-8.5-8.5V192.72a0,0,0,0,1,0,0Z" transform="translate(567.95 674.07) rotate(-135)"/><path class="cls-6" d="M410.72,245.7l-13.43-13.44,32.44-32.43a9.5,9.5,0,1,1,13.43,13.43Zm-10.61-13.44,10.61,10.61,31-31a7.5,7.5,0,1,0-10.61-10.61Z"/><path class="cls-7" d="M364.58,225.45h17a0,0,0,0,1,0,0v85.9a3,3,0,0,1-3,3h-11a3,3,0,0,1-3-3v-85.9A0,0,0,0,1,364.58,225.45Z" transform="translate(300.12 -184.76) rotate(45)"/><path class="cls-6" d="M347.67,307.1a4,4,0,0,1-2.83-1.17l-7.78-7.78a4,4,0,0,1,0-5.66L398.5,231l13.44,13.43-61.44,61.44A4,4,0,0,1,347.67,307.1Zm50.84-73.22-60,60a2,2,0,0,0,0,2.83l7.78,7.78a2,2,0,0,0,2.83,0l60-60Z"/><path class="cls-8" d="M434.48,191.7h17a0,0,0,0,1,0,0v12.6a4,4,0,0,1-4,4h-9a4,4,0,0,1-4-4V191.7a0,0,0,0,1,0,0Z" transform="translate(614.79 654.67) rotate(-135)"/><path class="cls-6" d="M443.12,213.3l-13.44-13.43,9.62-9.62a5,5,0,0,1,7.07,0l6.36,6.36a5,5,0,0,1,0,7.07Zm-10.61-13.43,10.61,10.61,8.2-8.2a3,3,0,0,0,0-4.24L445,191.66a3,3,0,0,0-4.24,0Z"/><path class="cls-8" d="M329.54,298.89h12.58a0,0,0,0,1,0,0v14a3,3,0,0,1-3,3h-6.58a3,3,0,0,1-3-3v-14A0,0,0,0,1,329.54,298.89Z" transform="translate(315.72 -147.44) rotate(45)"/><path class="cls-6" d="M334.27,317.61a4,4,0,0,1-2.83-1.17l-4.66-4.66a4,4,0,0,1,0-5.66l10.61-10.61,10.31,10.31L337.1,316.44A4,4,0,0,1,334.27,317.61Zm3.12-19.26-9.19,9.19a2,2,0,0,0,0,2.83l4.66,4.66a2,2,0,0,0,2.83,0l9.19-9.19Z"/><path class="cls-7" d="M323.51,312.27h6.83a0,0,0,0,1,0,0v5.5a3,3,0,0,1-3,3h-.83a3,3,0,0,1-3-3v-5.5A0,0,0,0,1,323.51,312.27Z" transform="translate(319.57 -138.47) rotate(45)"/><path class="cls-6" d="M326.34,321.7a4,4,0,0,1-2.83-1.17l-.59-.59a4,4,0,0,1,0-5.66l4.6-4.6,6.25,6.25-4.6,4.6A4,4,0,0,1,326.34,321.7Zm1.18-9.18-3.18,3.18a2,2,0,0,0,0,2.83l.59.59a2,2,0,0,0,2.83,0l3.18-3.18Z"/><path class="cls-6" d="M320.12,324.33a1,1,0,0,1-.71-1.71l3.8-3.8a1,1,0,0,1,1.41,1.41l-3.8,3.8A1,1,0,0,1,320.12,324.33Z"/><path class="cls-6" d="M416.91,215.05a1,1,0,0,1-.71-.29l-2.83-2.83a1,1,0,0,1,1.41-1.41l2.83,2.83a1,1,0,0,1-.71,1.71Z"/><path class="cls-6" d="M404.6,227.37a1,1,0,0,1-.71-.29l-2.83-2.83a1,1,0,0,1,1.41-1.41l2.83,2.83a1,1,0,0,1-.71,1.71Z"/><rect class="cls-7" x="394.13" y="190.55" width="5.01" height="66.33" rx="2.51" ry="2.51" transform="translate(518.92 662.37) rotate(-135)"/><path class="cls-6" d="M375,248.9a3.5,3.5,0,0,1-2.48-6l43.36-43.36a3.51,3.51,0,0,1,5,5l-43.36,43.36A3.49,3.49,0,0,1,375,248.9Zm43.36-48.37a1.5,1.5,0,0,0-1.07.44l-43.36,43.36a1.51,1.51,0,0,0,0,2.13,1.55,1.55,0,0,0,2.13,0l43.36-43.36a1.5,1.5,0,0,0-1.06-2.57Z"/><path class="cls-6" d="M352.92,291.53a1,1,0,0,1-.71-1.71l27.58-27.58a1,1,0,0,1,1.41,1.41l-27.58,27.58A1,1,0,0,1,352.92,291.53Z"/><rect class="cls-8" x="225.79" y="213.49" width="102" height="6.62" rx="3.31" ry="3.31"/><path class="cls-6" d="M324.48,221.11H229.1a4.31,4.31,0,1,1,0-8.62h95.38a4.31,4.31,0,1,1,0,8.62Zm-95.38-6.62a2.31,2.31,0,1,0,0,4.62h95.38a2.31,2.31,0,1,0,0-4.62Z"/><rect class="cls-8" x="225.79" y="230.82" width="45.09" height="6.62" rx="3.31" ry="3.31"/><path class="cls-6" d="M267.57,238.44H229.1a4.31,4.31,0,1,1,0-8.62h38.47a4.31,4.31,0,0,1,0,8.62Zm-38.47-6.62a2.31,2.31,0,1,0,0,4.62h38.47a2.31,2.31,0,0,0,0-4.62Z"/><rect class="cls-8" x="225.79" y="254.8" width="73.76" height="6.62" rx="3.31" ry="3.31"/><path class="cls-6" d="M296.24,262.42H229.1a4.31,4.31,0,1,1,0-8.62h67.14a4.31,4.31,0,0,1,0,8.62ZM229.1,255.8a2.31,2.31,0,1,0,0,4.62h67.14a2.31,2.31,0,0,0,0-4.62Z"/><rect class="cls-8" x="225.38" y="267.46" width="47.5" height="6.62" rx="3.31" ry="3.31"/><path class="cls-6" d="M269.58,275.08H228.7a4.31,4.31,0,1,1,0-8.62h40.88a4.31,4.31,0,1,1,0,8.62Zm-40.88-6.62a2.31,2.31,0,1,0,0,4.62h40.88a2.31,2.31,0,1,0,0-4.62Z"/><rect class="cls-8" x="224.59" y="284.98" width="87.71" height="6.62" rx="3.31" ry="3.31"/><path class="cls-6" d="M309,292.6H227.9a4.31,4.31,0,1,1,0-8.62H309a4.31,4.31,0,1,1,0,8.62ZM227.9,286a2.31,2.31,0,1,0,0,4.62H309a2.31,2.31,0,1,0,0-4.62Z"/><rect class="cls-9" x="320.12" y="108.79" width="4.17" height="54.33"/><path class="cls-6" d="M270.88,139.45H179.12a1,1,0,0,1,0-2h91.76a1,1,0,0,1,0,2Z"/><path class="cls-6" d="M306.92,120.72h-51.8a1,1,0,0,1,0-2h51.8a1,1,0,0,1,0,2Z"/><path class="cls-6" d="M215.51,218.29H187.79a1,1,0,0,1,0-2h27.72a5.94,5.94,0,1,0,0-11.87h-18a1,1,0,0,1,0-2h18a7.94,7.94,0,1,1,0,15.87Z"/><path class="cls-6" d="M206.08,218.29H188c-6.23,0-11.3-4.7-11.3-10.49v-.7c0-5.78,5.07-10.49,11.3-10.49h29.66a1,1,0,0,1,0,2H188c-5.13,0-9.3,3.81-9.3,8.49v.7c0,4.68,4.17,8.49,9.3,8.49h18.06a1,1,0,0,1,0,2Z"/><path class="cls-6" d="M192.85,212.79a5.18,5.18,0,0,1,0-10.37h4.69a1,1,0,0,1,0,2h-4.69a3.18,3.18,0,0,0,0,6.37,1,1,0,0,1,0,2Z"/></svg>