<svg id="Layer_1" data-name="Layer 1" xmlns="http://www.w3.org/2000/svg" viewBox="0 0 550 450"><defs><style>.cls-1{opacity:0.05;}.cls-2{fill:#e5e5e5;}.cls-3{opacity:0.1;}.cls-4{opacity:0.15;}.cls-5{fill:#fff;}.cls-6{fill:#8a8e91;}.cls-7{fill:#dae2f7;}.cls-8{fill:#dfe5ef;}.cls-9{fill:#d0dbf7;}.cls-10{fill:#b3c0dd;}</style></defs><title>1_</title><g class="cls-1"><circle class="cls-2" cx="261.84" cy="234.03" r="186.5"/></g><g class="cls-3"><circle class="cls-2" cx="261.63" cy="233.82" r="161.19"/></g><g class="cls-4"><circle class="cls-2" cx="261.63" cy="233.82" r="141.51"/></g><path class="cls-5" d="M422.5,157.6c.11,96.82-62.32,138.43-79,147.84a8,8,0,0,0-4.08,7v102.8a9.26,9.26,0,0,1-9.26,9.26H181.33a9.26,9.26,0,0,1-9.26-9.26V291.48a26.06,26.06,0,0,1,26-26H323.22s49.94.06,62.65-108a1.26,1.26,0,0,1,1.25-1.12h34.12Z"/><path class="cls-6" d="M330.12,425.47H181.33a10.27,10.27,0,0,1-10.26-10.26V291.48a27,27,0,0,1,27-27H323.22c.12,0,12.38-.19,26-13.35,22.94-22.15,32-63.24,35.64-93.82a2.26,2.26,0,0,1,2.24-2h34.54l1.85,1.85v.41c0,41.45-11.2,77.55-33.41,107.3-18,24.05-38.25,37-46.15,41.42a7,7,0,0,0-3.57,6.1v102.8A10.27,10.27,0,0,1,330.12,425.47Zm-132.06-159a25,25,0,0,0-25,25V415.21a8.27,8.27,0,0,0,8.26,8.26H330.12a8.27,8.27,0,0,0,8.26-8.26V312.41a9,9,0,0,1,4.59-7.85c7.78-4.38,27.79-17.12,45.52-40.87,21.88-29.3,33-64.85,33-105.69l-.68-.68H387.12a.26.26,0,0,0-.25.23c-3.64,31-12.92,72.65-36.39,95.17-14.17,13.59-26.67,13.76-27.25,13.76H198.06Z"/><ellipse class="cls-5" cx="266.18" cy="273.68" rx="28.19" ry="22.07"/><path class="cls-6" d="M266.18,296.76c-16.09,0-29.19-10.35-29.19-23.07s13.09-23.07,29.19-23.07,29.19,10.35,29.19,23.07S282.27,296.76,266.18,296.76Zm0-44.14c-15,0-27.19,9.45-27.19,21.07s12.2,21.07,27.19,21.07,27.19-9.45,27.19-21.07S281.17,252.61,266.18,252.61Z"/><path class="cls-5" d="M212.83,57.7H318.21a15.13,15.13,0,0,1,15.13,15.13V213.49a38.13,38.13,0,0,1-38.13,38.13H197.7a0,0,0,0,1,0,0V72.83A15.13,15.13,0,0,1,212.83,57.7Z"/><path class="cls-6" d="M295.21,252.61H196.7V72.83A16.14,16.14,0,0,1,212.83,56.7H318.21a16.14,16.14,0,0,1,16.13,16.13V213.49A39.17,39.17,0,0,1,295.21,252.61Zm-96.51-2h96.51a37.17,37.17,0,0,0,37.13-37.13V72.83A14.14,14.14,0,0,0,318.21,58.7H212.83A14.14,14.14,0,0,0,198.7,72.83Z"/><path class="cls-7" d="M221,92.94h89.68a15.13,15.13,0,0,1,15.13,15.13V209.48a38.13,38.13,0,0,1-38.13,38.13H244a38.13,38.13,0,0,1-38.13-38.13V108.06A15.13,15.13,0,0,1,221,92.94Z"/><path class="cls-5" d="M250.37,234H281.3a5.82,5.82,0,0,1,5.82,5.82v24.93a21.29,21.29,0,0,1-21.29,21.29h0a21.29,21.29,0,0,1-21.29-21.29V239.86a5.82,5.82,0,0,1,5.82-5.82Z"/><path class="cls-6" d="M265.84,287.07a22.31,22.31,0,0,1-22.29-22.29V239.86a6.83,6.83,0,0,1,6.82-6.82H281.3a6.83,6.83,0,0,1,6.82,6.82v24.93A22.31,22.31,0,0,1,265.84,287.07Zm-15.46-52a4.83,4.83,0,0,0-4.82,4.82v24.93a20.29,20.29,0,0,0,40.57,0V239.86A4.83,4.83,0,0,0,281.3,235Z"/><path class="cls-5" d="M310.67,90a15.17,15.17,0,0,1,15.13,15.13v96.17a38.24,38.24,0,0,1-38.13,38.13H244a38.24,38.24,0,0,1-38.13-38.13V105.12A15.17,15.17,0,0,1,221,90"/><path class="cls-6" d="M287.67,240.41H244a39.17,39.17,0,0,1-39.13-39.13V105.12A16.14,16.14,0,0,1,221,89a1,1,0,0,1,0,2,14.14,14.14,0,0,0-14.13,14.13v96.17A37.17,37.17,0,0,0,244,238.41h43.68a37.17,37.17,0,0,0,37.13-37.13V105.12A14.14,14.14,0,0,0,310.67,91a1,1,0,0,1,0-2,16.14,16.14,0,0,1,16.13,16.13v96.17A39.17,39.17,0,0,1,287.67,240.41Z"/><path class="cls-5" d="M205.24,157.84a15.07,15.07,0,0,1,0-30.14Z"/><path class="cls-6" d="M206.24,158.84h-1a16.07,16.07,0,0,1,0-32.14h1Zm-2-30.11a14.07,14.07,0,0,0,0,28.07Z"/><path class="cls-5" d="M325.8,157.84a15.07,15.07,0,0,0,0-30.14Z"/><path class="cls-6" d="M325.8,158.84h-1V126.7h1a16.07,16.07,0,0,1,0,32.14Zm1-30.11V156.8a14.07,14.07,0,0,0,0-28.07Z"/><path class="cls-6" d="M265.84,182.94c-5.48,0-9.94-4.08-9.94-9.1a1,1,0,1,1,2,0c0,3.92,3.56,7.1,7.94,7.1s7.94-3.19,7.94-7.1a1,1,0,1,1,2,0C275.78,178.86,271.32,182.94,265.84,182.94Z"/><path class="cls-6" d="M265.84,216.38c-16.28,0-29.53-7.76-29.53-17.3a1,1,0,0,1,2,0c0,8.44,12.35,15.3,27.53,15.3s27.53-6.86,27.53-15.3a1,1,0,0,1,2,0C295.37,208.61,282.12,216.38,265.84,216.38Z"/><path class="cls-6" d="M200.87,150c-3.17,0-5.74-3.26-5.74-7.27s2.58-7.27,5.74-7.27a1,1,0,0,1,0,2c-2.06,0-3.74,2.36-3.74,5.27s1.68,5.27,3.74,5.27a1,1,0,0,1,0,2Z"/><path class="cls-6" d="M329.61,150a1,1,0,0,1,0-2c2.06,0,3.74-2.36,3.74-5.27s-1.68-5.27-3.74-5.27a1,1,0,0,1,0-2c3.17,0,5.74,3.26,5.74,7.27S332.78,150,329.61,150Z"/><rect class="cls-7" x="216.67" y="132.55" width="37.73" height="23.78" rx="3.47" ry="3.47"/><rect class="cls-7" x="276.12" y="132.55" width="37.73" height="23.78" rx="3.47" ry="3.47"/><rect class="cls-5" x="216.67" y="127.06" width="37.73" height="23.78" rx="3.47" ry="3.47"/><path class="cls-6" d="M250.93,151.85h-30.8a4.47,4.47,0,0,1-4.47-4.47V130.53a4.47,4.47,0,0,1,4.47-4.47h30.8a4.47,4.47,0,0,1,4.47,4.47v16.85A4.47,4.47,0,0,1,250.93,151.85Zm-30.8-23.78a2.47,2.47,0,0,0-2.47,2.47v16.85a2.47,2.47,0,0,0,2.47,2.47h30.8a2.47,2.47,0,0,0,2.47-2.47V130.53a2.47,2.47,0,0,0-2.47-2.47Z"/><rect class="cls-5" x="276.12" y="127.06" width="37.73" height="23.78" rx="3.47" ry="3.47"/><path class="cls-6" d="M310.39,151.85h-30.8a4.47,4.47,0,0,1-4.47-4.47V130.53a4.47,4.47,0,0,1,4.47-4.47h30.8a4.47,4.47,0,0,1,4.47,4.47v16.85A4.47,4.47,0,0,1,310.39,151.85Zm-30.8-23.78a2.47,2.47,0,0,0-2.47,2.47v16.85a2.47,2.47,0,0,0,2.47,2.47h30.8a2.47,2.47,0,0,0,2.47-2.47V130.53a2.47,2.47,0,0,0-2.47-2.47Z"/><path class="cls-6" d="M228.68,128.06H206.24a1,1,0,0,1,0-2h22.44a1,1,0,0,1,0,2Z"/><path class="cls-6" d="M325.46,128.06H307a1,1,0,0,1,0-2h18.44a1,1,0,0,1,0,2Z"/><path class="cls-6" d="M272.69,135.84H257.83a4.44,4.44,0,0,1-4.43-4.43,1,1,0,0,1,2,0,2.43,2.43,0,0,0,2.43,2.43h14.86a2.43,2.43,0,0,0,2.43-2.43,1,1,0,0,1,2,0A4.44,4.44,0,0,1,272.69,135.84Z"/><path class="cls-6" d="M241.71,143a1,1,0,0,1-1-1,6.72,6.72,0,1,0-13.43,0,1,1,0,0,1-2,0,8.72,8.72,0,1,1,17.43,0A1,1,0,0,1,241.71,143Z"/><path class="cls-6" d="M302.71,143a1,1,0,0,1-1-1,6.72,6.72,0,1,0-13.44,0,1,1,0,1,1-2,0,8.72,8.72,0,1,1,17.44,0A1,1,0,0,1,302.71,143Z"/><circle class="cls-5" cx="265.52" cy="308.43" r="5.52"/><path class="cls-6" d="M265.52,315a6.52,6.52,0,1,1,6.52-6.52A6.53,6.53,0,0,1,265.52,315Zm0-11a4.52,4.52,0,1,0,4.52,4.52A4.52,4.52,0,0,0,265.52,303.92Z"/><circle class="cls-5" cx="265.52" cy="336.32" r="5.52"/><path class="cls-6" d="M265.52,342.83a6.52,6.52,0,1,1,6.52-6.52A6.53,6.53,0,0,1,265.52,342.83Zm0-11a4.52,4.52,0,1,0,4.52,4.52A4.52,4.52,0,0,0,265.52,331.8Z"/><circle class="cls-5" cx="265.52" cy="360.45" r="5.52"/><path class="cls-6" d="M265.52,367a6.52,6.52,0,1,1,6.52-6.52A6.53,6.53,0,0,1,265.52,367Zm0-11a4.52,4.52,0,1,0,4.52,4.52A4.52,4.52,0,0,0,265.52,355.93Z"/><path class="cls-5" d="M418.93,155.94H388.76a1.91,1.91,0,0,1-1.8-2V126.68h33l.8,27.16A1.92,1.92,0,0,1,418.93,155.94Z"/><path class="cls-6" d="M418.93,156.94H388.76a2.91,2.91,0,0,1-2.8-3V125.68H420.9l.83,28.13a3.12,3.12,0,0,1-.84,2.28A2.69,2.69,0,0,1,418.93,156.94Zm-31-29.26v26.26a.93.93,0,0,0,.8,1h30.17a.71.71,0,0,0,.51-.23,1.12,1.12,0,0,0,.29-.82l-.77-26.2Z"/><path class="cls-5" d="M409.24,136.82H397.53c-12.79,0-23.26-12.49-23.26-27.76v-4.8c0-2.32,1.59-4.22,3.54-4.22l50.83-5.78c2.12,0,3.86,2.07,3.86,4.61v10.19C432.5,124.33,422,136.82,409.24,136.82Z"/><path class="cls-6" d="M409.24,137.82H397.53c-13.38,0-24.26-12.9-24.26-28.76v-4.8c0-2.86,2-5.19,4.48-5.22l50.89-5.78c2.68,0,4.86,2.52,4.86,5.61v10.19C433.5,124.92,422.62,137.82,409.24,137.82ZM377.8,101c-1.38,0-2.54,1.48-2.54,3.22v4.8c0,14.75,10,26.76,22.26,26.76h11.71c12.27,0,22.26-12,22.26-26.76V98.88c0-1.93-1.28-3.57-2.81-3.61Z"/><rect class="cls-5" x="381.58" y="56.28" width="11.43" height="50.08" rx="5.12" ry="5.12"/><path class="cls-6" d="M387.89,107.36H386.7a6.12,6.12,0,0,1-6.12-6.12V61.4a6.12,6.12,0,0,1,6.12-6.12h1.19A6.12,6.12,0,0,1,394,61.4v39.85A6.12,6.12,0,0,1,387.89,107.36ZM386.7,57.28a4.12,4.12,0,0,0-4.12,4.12v39.85a4.12,4.12,0,0,0,4.12,4.12h1.19a4.12,4.12,0,0,0,4.12-4.12V61.4a4.12,4.12,0,0,0-4.12-4.12Z"/><rect class="cls-5" x="393.01" y="77.5" width="11.43" height="28.87" rx="5.12" ry="5.12"/><path class="cls-6" d="M399.32,107.36h-1.19a6.12,6.12,0,0,1-6.12-6.12V82.61a6.12,6.12,0,0,1,6.12-6.12h1.19a6.12,6.12,0,0,1,6.12,6.12v18.63A6.12,6.12,0,0,1,399.32,107.36ZM398.12,78.5A4.12,4.12,0,0,0,394,82.61v18.63a4.12,4.12,0,0,0,4.12,4.12h1.19a4.12,4.12,0,0,0,4.12-4.12V82.61a4.12,4.12,0,0,0-4.12-4.12Z"/><path class="cls-8" d="M384.28,102.25h20.8c3.67,0,6.68,2.23,6.68,5.91h0c0,3.67-3,5.52-6.68,5.52H384.53"/><rect class="cls-8" x="404.43" y="81.61" width="11.43" height="28.87" rx="5.12" ry="5.12"/><rect class="cls-8" x="415.86" y="81.61" width="11.43" height="28.87" rx="5.12" ry="5.12"/><rect class="cls-5" x="404.43" y="77.5" width="11.43" height="28.87" rx="5.12" ry="5.12"/><path class="cls-6" d="M410.74,107.36h-1.19a6.12,6.12,0,0,1-6.12-6.12V82.61a6.12,6.12,0,0,1,6.12-6.12h1.19a6.12,6.12,0,0,1,6.12,6.12v18.63A6.12,6.12,0,0,1,410.74,107.36ZM409.55,78.5a4.12,4.12,0,0,0-4.12,4.12v18.63a4.12,4.12,0,0,0,4.12,4.12h1.19a4.12,4.12,0,0,0,4.12-4.12V82.61a4.12,4.12,0,0,0-4.12-4.12Z"/><path class="cls-5" d="M374.26,107.91V104.3a6.18,6.18,0,0,1,6.16-6.16h24.65c3.67,0,6.68,2.23,6.68,5.91h0c0,3.67-3,5.52-6.68,5.52H384.53"/><path class="cls-6" d="M405.07,110.56H384.53a1,1,0,0,1,0-2h20.54c2.74,0,5.68-1.19,5.68-4.52s-2.94-4.9-5.68-4.9H380.43a5.17,5.17,0,0,0-5.16,5.16v3.61a1,1,0,0,1-2,0V104.3a7.17,7.17,0,0,1,7.16-7.16h24.65c4.45,0,7.68,2.9,7.68,6.9S409.66,110.56,405.07,110.56Z"/><rect class="cls-5" x="415.86" y="77.5" width="11.43" height="28.87" rx="5.12" ry="5.12"/><path class="cls-6" d="M422.17,107.36H421a6.12,6.12,0,0,1-6.12-6.12V82.61A6.12,6.12,0,0,1,421,76.5h1.19a6.12,6.12,0,0,1,6.12,6.12v18.63A6.12,6.12,0,0,1,422.17,107.36ZM421,78.5a4.12,4.12,0,0,0-4.12,4.12v18.63a4.12,4.12,0,0,0,4.12,4.12h1.19a4.12,4.12,0,0,0,4.12-4.12V82.61a4.12,4.12,0,0,0-4.12-4.12Z"/><path class="cls-5" d="M172.37,349.25H156.6C142,349.25,130,360.4,130,374v12.47c0,13.62,12,24.77,26.6,24.77h4.6"/><path class="cls-6" d="M161.2,412.27h-4.6c-15.22,0-27.6-11.56-27.6-25.77V374c0-14.21,12.38-25.77,27.6-25.77h15.77a1,1,0,0,1,0,2H156.6c-14.12,0-25.6,10.66-25.6,23.77v12.47c0,13.11,11.49,23.77,25.6,23.77h4.6a1,1,0,0,1,0,2Z"/><path class="cls-9" d="M182.2,293.34a12,12,0,0,0-12,12V414.84a12,12,0,0,0,12,12H241a12,12,0,0,0,12-12V301.58"/><path class="cls-6" d="M241,427.84H182.2a13,13,0,0,1-13-13V305.34a13,13,0,0,1,13-13,1,1,0,0,1,0,2,11,11,0,0,0-11,11V414.84a11,11,0,0,0,11,11H241a11,11,0,0,0,11-11V301.58a1,1,0,0,1,2,0V414.84A13,13,0,0,1,241,427.84Z"/><rect class="cls-10" x="171.22" y="313.33" width="63.67" height="8.25"/><path class="cls-9" d="M170.2,300.64v-9.78a10.83,10.83,0,0,0-10.8-10.8h0a10.83,10.83,0,0,0-10.8,10.8v22.47h82.8"/><path class="cls-6" d="M231.41,314.33h-83.8V290.86a11.8,11.8,0,1,1,23.59,0v9.78h-2v-9.78a9.8,9.8,0,1,0-19.59,0v21.47h81.8Z"/><polygon class="cls-9" points="160.18 281.06 243.2 281.06 236.07 301.53 157.84 301.53 160.18 281.06"/><path class="cls-9" d="M231.41,313.33V290.86a10.83,10.83,0,0,1,10.8-10.8h0a10.83,10.83,0,0,1,10.8,10.8v10.67"/><path class="cls-6" d="M231.41,314.33a1,1,0,0,1-1-1V290.86a11.8,11.8,0,0,1,23.59,0v10.67a1,1,0,0,1-2,0V290.86a9.8,9.8,0,0,0-19.59,0v22.47A1,1,0,0,1,231.41,314.33Z"/><rect class="cls-5" x="177.28" y="368.55" width="57.62" height="4.46" rx="2.23" ry="2.23"/><rect class="cls-5" x="177.28" y="380.96" width="30.35" height="4.46" rx="2.23" ry="2.23"/><rect class="cls-5" x="177.28" y="392.01" width="46.06" height="4.46" rx="2.23" ry="2.23"/><rect class="cls-10" x="219.86" y="303.32" width="30.9" height="5.63" transform="translate(-70.82 541.44) rotate(-90)"/><rect class="cls-6" x="159.4" y="279.07" width="82.8" height="2"/><path class="cls-5" d="M158.62,385.68H186c4.65,0,8.45,2.85,8.45,6.33h0c0,3.48-3.8,6.33-8.45,6.33H158.62"/><path class="cls-6" d="M186,399.34H158.62a1,1,0,0,1,0-2H186c4,0,7.45-2.44,7.45-5.33s-3.41-5.33-7.45-5.33H158.62a1,1,0,1,1,0-2H186c5.21,0,9.45,3.29,9.45,7.33S191.26,399.34,186,399.34Z"/><path class="cls-5" d="M158.62,373H186c4.65,0,8.45,2.85,8.45,6.33h0c0,3.48-3.8,6.33-8.45,6.33H158.62"/><path class="cls-6" d="M186,386.68H158.62a1,1,0,1,1,0-2H186c4,0,7.45-2.44,7.45-5.33S190.09,374,186,374H158.62a1,1,0,1,1,0-2H186c5.21,0,9.45,3.29,9.45,7.33S191.26,386.68,186,386.68Z"/><path class="cls-5" d="M158.62,360.35H186c4.65,0,8.45,2.85,8.45,6.33h0c0,3.48-3.8,6.33-8.45,6.33H158.62"/><path class="cls-6" d="M186,374H158.62a1,1,0,1,1,0-2H186c4,0,7.45-2.44,7.45-5.33s-3.41-5.33-7.45-5.33H158.62a1,1,0,1,1,0-2H186c5.21,0,9.45,3.29,9.45,7.33S191.26,374,186,374Z"/><path class="cls-5" d="M158.62,398.6H186c4.65,0,8.45,2.85,8.45,6.33h0c0,3.48-3.8,6.33-8.45,6.33H158.62"/><path class="cls-6" d="M186,412.27H158.62a1,1,0,0,1,0-2H186c4,0,7.45-2.44,7.45-5.33s-3.41-5.33-7.45-5.33H158.62a1,1,0,1,1,0-2H186c5.21,0,9.45,3.29,9.45,7.33S191.26,412.27,186,412.27Z"/><path class="cls-5" d="M197.7,83.75v29.5s35.29,1.55,44-43.32A2.46,2.46,0,0,1,246,68.86c15.12,19.33,75.4,87.17,87.33,20.47"/><path class="cls-6" d="M310.52,119c-25.74,0-61.12-44.21-65.3-49.56a1.41,1.41,0,0,0-1.48-.52,1.45,1.45,0,0,0-1.1,1.16c-8.72,45.19-44.62,44.14-45,44.13l-1,0V83.75a1,1,0,0,1,2,0v28.5a41,41,0,0,0,17.35-4.76c12.63-6.7,21.15-19.75,24.62-37.74a3.44,3.44,0,0,1,2.6-2.73,3.41,3.41,0,0,1,3.52,1.23c15.86,20.27,48.07,53.25,68.09,48.27,8.73-2.17,14.61-11.38,17.47-27.37a1,1,0,0,1,2,.35c-3,16.84-9.39,26.58-19,29A20,20,0,0,1,310.52,119Z"/><path class="cls-6" d="M282.75,88a1,1,0,0,1-1-1V71.64a1,1,0,0,1,2,0V87A1,1,0,0,1,282.75,88Z"/><path class="cls-6" d="M298.75,101a1,1,0,0,1-1-1V71.64a1,1,0,0,1,2,0V100A1,1,0,0,1,298.75,101Z"/><path class="cls-6" d="M315,91.94a1,1,0,0,1-1-1V71.64a1,1,0,0,1,2,0V90.94A1,1,0,0,1,315,91.94Z"/><rect class="cls-5" x="177.28" y="333.77" width="68.65" height="4.46" rx="2.23" ry="2.23"/><rect class="cls-5" x="177.28" y="345.44" width="30.35" height="4.46" rx="2.23" ry="2.23"/><rect class="cls-9" x="378.45" y="153" width="50.8" height="11.04" rx="4.18" ry="4.18"/><path class="cls-6" d="M425.06,165H382.63a5.19,5.19,0,0,1-5.18-5.18v-2.67a5.19,5.19,0,0,1,5.18-5.19h42.43a5.19,5.19,0,0,1,5.19,5.19v2.67A5.19,5.19,0,0,1,425.06,165Zm-42.43-11a3.19,3.19,0,0,0-3.18,3.19v2.67a3.19,3.19,0,0,0,3.18,3.18h42.43a3.19,3.19,0,0,0,3.19-3.18v-2.67a3.19,3.19,0,0,0-3.19-3.19Z"/><circle class="cls-6" cx="422.5" cy="158.52" r="2.58"/><path class="cls-9" d="M422.5,162.1a3.58,3.58,0,1,1,3.58-3.58A3.58,3.58,0,0,1,422.5,162.1Zm0-5.16a1.58,1.58,0,1,0,1.58,1.58A1.58,1.58,0,0,0,422.5,156.94Z"/></svg>