<svg id="Layer_1" data-name="Layer 1" xmlns="http://www.w3.org/2000/svg" viewBox="0 0 550 450"><defs><style>.cls-1{opacity:0.05;}.cls-2{fill:#e5e5e5;}.cls-3{opacity:0.1;}.cls-4{opacity:0.15;}.cls-5{fill:#f5f5f5;}.cls-6{fill:#8a8e91;}.cls-7{fill:#dae2f7;}.cls-8{fill:#dfe5ef;}.cls-9{fill:#d0dbf7;}.cls-10{fill:#b3c0dd;}</style></defs><title>1_</title><g class="cls-1"><circle class="cls-2" cx="272.84" cy="221.03" r="186.5"/></g><g class="cls-3"><circle class="cls-2" cx="272.63" cy="220.82" r="161.19"/></g><g class="cls-4"><circle class="cls-2" cx="272.63" cy="220.82" r="141.51"/></g><path class="cls-5" d="M433.5,144.6c.11,96.82-62.32,138.43-79,147.84a8,8,0,0,0-4.08,7v102.8a9.26,9.26,0,0,1-9.26,9.26H192.33a9.26,9.26,0,0,1-9.26-9.26V278.48a26.06,26.06,0,0,1,26-26H334.22s49.94.06,62.65-108a1.26,1.26,0,0,1,1.25-1.12h34.12Z"/><path class="cls-6" d="M341.12,412.47H192.33a10.27,10.27,0,0,1-10.26-10.26V278.48a27,27,0,0,1,27-27H334.22c.12,0,12.38-.19,26-13.35,22.94-22.15,32-63.24,35.64-93.82a2.26,2.26,0,0,1,2.24-2h34.54l1.85,1.85v.41c0,41.45-11.2,77.55-33.41,107.3-18,24.05-38.25,37-46.15,41.42a7,7,0,0,0-3.57,6.1v102.8A10.27,10.27,0,0,1,341.12,412.47Zm-132.06-159a25,25,0,0,0-25,25V402.21a8.27,8.27,0,0,0,8.26,8.26H341.12a8.27,8.27,0,0,0,8.26-8.26V299.41a9,9,0,0,1,4.59-7.85c7.78-4.38,27.79-17.12,45.52-40.87,21.88-29.3,33-64.85,33-105.69l-.68-.68H398.12a.26.26,0,0,0-.25.23c-3.64,31-12.92,72.65-36.39,95.17-14.17,13.59-26.67,13.76-27.25,13.76H209.06Z"/><ellipse class="cls-5" cx="277.18" cy="260.68" rx="28.19" ry="22.07"/><path class="cls-6" d="M277.18,283.76c-16.09,0-29.19-10.35-29.19-23.07s13.09-23.07,29.19-23.07,29.19,10.35,29.19,23.07S293.27,283.76,277.18,283.76Zm0-44.14c-15,0-27.19,9.45-27.19,21.07s12.2,21.07,27.19,21.07,27.19-9.45,27.19-21.07S292.17,239.61,277.18,239.61Z"/><path class="cls-5" d="M223.83,44.7H329.21a15.13,15.13,0,0,1,15.13,15.13V200.49a38.13,38.13,0,0,1-38.13,38.13H208.7a0,0,0,0,1,0,0V59.83A15.13,15.13,0,0,1,223.83,44.7Z"/><path class="cls-6" d="M306.21,239.61H207.7V59.83A16.14,16.14,0,0,1,223.83,43.7H329.21a16.14,16.14,0,0,1,16.13,16.13V200.49A39.17,39.17,0,0,1,306.21,239.61Zm-96.51-2h96.51a37.17,37.17,0,0,0,37.13-37.13V59.83A14.14,14.14,0,0,0,329.21,45.7H223.83A14.14,14.14,0,0,0,209.7,59.83Z"/><path class="cls-7" d="M232,79.94h89.68A15.13,15.13,0,0,1,336.8,95.06V196.48a38.13,38.13,0,0,1-38.13,38.13H255a38.13,38.13,0,0,1-38.13-38.13V95.06A15.13,15.13,0,0,1,232,79.94Z"/><path class="cls-5" d="M261.37,221H292.3a5.82,5.82,0,0,1,5.82,5.82v24.93a21.29,21.29,0,0,1-21.29,21.29h0a21.29,21.29,0,0,1-21.29-21.29V226.86A5.82,5.82,0,0,1,261.37,221Z"/><path class="cls-6" d="M276.84,274.07a22.31,22.31,0,0,1-22.29-22.29V226.86a6.83,6.83,0,0,1,6.82-6.82H292.3a6.83,6.83,0,0,1,6.82,6.82v24.93A22.31,22.31,0,0,1,276.84,274.07Zm-15.46-52a4.83,4.83,0,0,0-4.82,4.82v24.93a20.29,20.29,0,0,0,40.57,0V226.86A4.83,4.83,0,0,0,292.3,222Z"/><path class="cls-5" d="M321.67,77A15.17,15.17,0,0,1,336.8,92.12v96.17a38.24,38.24,0,0,1-38.13,38.13H255a38.24,38.24,0,0,1-38.13-38.13V92.12A15.17,15.17,0,0,1,232,77"/><path class="cls-6" d="M298.67,227.41H255a39.17,39.17,0,0,1-39.13-39.13V92.12A16.14,16.14,0,0,1,232,76a1,1,0,0,1,0,2,14.14,14.14,0,0,0-14.13,14.13v96.17A37.17,37.17,0,0,0,255,225.41h43.68a37.17,37.17,0,0,0,37.13-37.13V92.12A14.14,14.14,0,0,0,321.67,78a1,1,0,0,1,0-2A16.14,16.14,0,0,1,337.8,92.12v96.17A39.17,39.17,0,0,1,298.67,227.41Z"/><path class="cls-5" d="M216.24,144.84a15.07,15.07,0,0,1,0-30.14Z"/><path class="cls-6" d="M217.24,145.84h-1a16.07,16.07,0,0,1,0-32.14h1Zm-2-30.11a14.07,14.07,0,0,0,0,28.07Z"/><path class="cls-5" d="M336.8,144.84a15.07,15.07,0,0,0,0-30.14Z"/><path class="cls-6" d="M336.8,145.84h-1V113.7h1a16.07,16.07,0,0,1,0,32.14Zm1-30.11V143.8a14.07,14.07,0,0,0,0-28.07Z"/><path class="cls-6" d="M276.84,169.94c-5.48,0-9.94-4.08-9.94-9.1a1,1,0,1,1,2,0c0,3.92,3.56,7.1,7.94,7.1s7.94-3.19,7.94-7.1a1,1,0,1,1,2,0C286.78,165.86,282.32,169.94,276.84,169.94Z"/><path class="cls-6" d="M276.84,203.38c-16.28,0-29.53-7.76-29.53-17.3a1,1,0,0,1,2,0c0,8.44,12.35,15.3,27.53,15.3s27.53-6.86,27.53-15.3a1,1,0,0,1,2,0C306.37,195.61,293.12,203.38,276.84,203.38Z"/><path class="cls-6" d="M211.87,137c-3.17,0-5.74-3.26-5.74-7.27s2.58-7.27,5.74-7.27a1,1,0,0,1,0,2c-2.06,0-3.74,2.36-3.74,5.27s1.68,5.27,3.74,5.27a1,1,0,0,1,0,2Z"/><path class="cls-6" d="M340.61,137a1,1,0,0,1,0-2c2.06,0,3.74-2.36,3.74-5.27s-1.68-5.27-3.74-5.27a1,1,0,0,1,0-2c3.17,0,5.74,3.26,5.74,7.27S343.78,137,340.61,137Z"/><rect class="cls-7" x="227.67" y="119.55" width="37.73" height="23.78" rx="3.47" ry="3.47"/><rect class="cls-7" x="287.12" y="119.55" width="37.73" height="23.78" rx="3.47" ry="3.47"/><rect class="cls-5" x="227.67" y="114.06" width="37.73" height="23.78" rx="3.47" ry="3.47"/><path class="cls-6" d="M261.93,138.85h-30.8a4.47,4.47,0,0,1-4.47-4.47V117.53a4.47,4.47,0,0,1,4.47-4.47h30.8a4.47,4.47,0,0,1,4.47,4.47v16.85A4.47,4.47,0,0,1,261.93,138.85Zm-30.8-23.78a2.47,2.47,0,0,0-2.47,2.47v16.85a2.47,2.47,0,0,0,2.47,2.47h30.8a2.47,2.47,0,0,0,2.47-2.47V117.53a2.47,2.47,0,0,0-2.47-2.47Z"/><rect class="cls-5" x="287.12" y="114.06" width="37.73" height="23.78" rx="3.47" ry="3.47"/><path class="cls-6" d="M321.39,138.85h-30.8a4.47,4.47,0,0,1-4.47-4.47V117.53a4.47,4.47,0,0,1,4.47-4.47h30.8a4.47,4.47,0,0,1,4.47,4.47v16.85A4.47,4.47,0,0,1,321.39,138.85Zm-30.8-23.78a2.47,2.47,0,0,0-2.47,2.47v16.85a2.47,2.47,0,0,0,2.47,2.47h30.8a2.47,2.47,0,0,0,2.47-2.47V117.53a2.47,2.47,0,0,0-2.47-2.47Z"/><path class="cls-6" d="M239.68,115.06H217.24a1,1,0,0,1,0-2h22.44a1,1,0,0,1,0,2Z"/><path class="cls-6" d="M336.46,115.06H318a1,1,0,0,1,0-2h18.44a1,1,0,0,1,0,2Z"/><path class="cls-6" d="M283.69,122.84H268.83a4.44,4.44,0,0,1-4.43-4.43,1,1,0,1,1,2,0,2.43,2.43,0,0,0,2.43,2.43h14.86a2.43,2.43,0,0,0,2.43-2.43,1,1,0,1,1,2,0A4.44,4.44,0,0,1,283.69,122.84Z"/><path class="cls-6" d="M252.71,130a1,1,0,0,1-1-1,6.72,6.72,0,1,0-13.43,0,1,1,0,0,1-2,0,8.72,8.72,0,1,1,17.43,0A1,1,0,0,1,252.71,130Z"/><path class="cls-6" d="M313.71,130a1,1,0,0,1-1-1,6.72,6.72,0,1,0-13.44,0,1,1,0,1,1-2,0,8.72,8.72,0,1,1,17.44,0A1,1,0,0,1,313.71,130Z"/><circle class="cls-5" cx="276.52" cy="295.43" r="5.52"/><path class="cls-6" d="M276.52,302a6.52,6.52,0,1,1,6.52-6.52A6.53,6.53,0,0,1,276.52,302Zm0-11a4.52,4.52,0,1,0,4.52,4.52A4.52,4.52,0,0,0,276.52,290.92Z"/><circle class="cls-5" cx="276.52" cy="323.32" r="5.52"/><path class="cls-6" d="M276.52,329.83a6.52,6.52,0,1,1,6.52-6.52A6.53,6.53,0,0,1,276.52,329.83Zm0-11a4.52,4.52,0,1,0,4.52,4.52A4.52,4.52,0,0,0,276.52,318.8Z"/><circle class="cls-5" cx="276.52" cy="347.45" r="5.52"/><path class="cls-6" d="M276.52,354a6.52,6.52,0,1,1,6.52-6.52A6.53,6.53,0,0,1,276.52,354Zm0-11a4.52,4.52,0,1,0,4.52,4.52A4.52,4.52,0,0,0,276.52,342.93Z"/><path class="cls-5" d="M429.93,142.94H399.76a1.91,1.91,0,0,1-1.8-2V113.68h33l.8,27.16A1.92,1.92,0,0,1,429.93,142.94Z"/><path class="cls-6" d="M429.93,143.94H399.76a2.91,2.91,0,0,1-2.8-3V112.68H431.9l.83,28.13a3.12,3.12,0,0,1-.84,2.28A2.69,2.69,0,0,1,429.93,143.94Zm-31-29.26v26.26a.93.93,0,0,0,.8,1h30.17a.71.71,0,0,0,.51-.23,1.12,1.12,0,0,0,.29-.82l-.77-26.2Z"/><path class="cls-5" d="M420.24,123.82H408.53c-12.79,0-23.26-12.49-23.26-27.76v-4.8c0-2.32,1.59-4.22,3.54-4.22l50.83-5.78c2.12,0,3.86,2.07,3.86,4.61V96.06C443.5,111.33,433,123.82,420.24,123.82Z"/><path class="cls-6" d="M420.24,124.82H408.53c-13.38,0-24.26-12.9-24.26-28.76v-4.8c0-2.86,2-5.19,4.48-5.22l50.89-5.78c2.68,0,4.86,2.52,4.86,5.61V96.07C444.5,111.92,433.62,124.82,420.24,124.82ZM388.8,88c-1.38,0-2.54,1.48-2.54,3.22v4.8c0,14.75,10,26.76,22.26,26.76h11.71c12.27,0,22.26-12,22.26-26.76V85.88c0-1.93-1.28-3.57-2.81-3.61Z"/><rect class="cls-5" x="392.58" y="43.28" width="11.43" height="50.08" rx="5.12" ry="5.12"/><path class="cls-6" d="M398.89,94.36H397.7a6.12,6.12,0,0,1-6.12-6.12V48.4a6.12,6.12,0,0,1,6.12-6.12h1.19A6.12,6.12,0,0,1,405,48.4V88.25A6.12,6.12,0,0,1,398.89,94.36ZM397.7,44.28a4.12,4.12,0,0,0-4.12,4.12V88.25a4.12,4.12,0,0,0,4.12,4.12h1.19A4.12,4.12,0,0,0,403,88.25V48.4a4.12,4.12,0,0,0-4.12-4.12Z"/><rect class="cls-5" x="404.01" y="64.5" width="11.43" height="28.87" rx="5.12" ry="5.12"/><path class="cls-6" d="M410.32,94.36h-1.19A6.12,6.12,0,0,1,403,88.25V69.61a6.12,6.12,0,0,1,6.12-6.12h1.19a6.12,6.12,0,0,1,6.12,6.12V88.25A6.12,6.12,0,0,1,410.32,94.36ZM409.12,65.5A4.12,4.12,0,0,0,405,69.61V88.25a4.12,4.12,0,0,0,4.12,4.12h1.19a4.12,4.12,0,0,0,4.12-4.12V69.61a4.12,4.12,0,0,0-4.12-4.12Z"/><path class="cls-8" d="M395.28,89.25h20.8c3.67,0,6.68,2.23,6.68,5.91h0c0,3.67-3,5.52-6.68,5.52H395.53"/><rect class="cls-8" x="415.43" y="68.61" width="11.43" height="28.87" rx="5.12" ry="5.12"/><rect class="cls-8" x="426.86" y="68.61" width="11.43" height="28.87" rx="5.12" ry="5.12"/><rect class="cls-5" x="415.43" y="64.5" width="11.43" height="28.87" rx="5.12" ry="5.12"/><path class="cls-6" d="M421.74,94.36h-1.19a6.12,6.12,0,0,1-6.12-6.12V69.61a6.12,6.12,0,0,1,6.12-6.12h1.19a6.12,6.12,0,0,1,6.12,6.12V88.25A6.12,6.12,0,0,1,421.74,94.36ZM420.55,65.5a4.12,4.12,0,0,0-4.12,4.12V88.25a4.12,4.12,0,0,0,4.12,4.12h1.19a4.12,4.12,0,0,0,4.12-4.12V69.61a4.12,4.12,0,0,0-4.12-4.12Z"/><path class="cls-5" d="M385.26,94.91V91.3a6.18,6.18,0,0,1,6.16-6.16h24.65c3.67,0,6.68,2.23,6.68,5.91h0c0,3.67-3,5.52-6.68,5.52H395.53"/><path class="cls-6" d="M416.07,97.56H395.53a1,1,0,0,1,0-2h20.54c2.74,0,5.68-1.19,5.68-4.52s-2.94-4.9-5.68-4.9H391.43a5.17,5.17,0,0,0-5.16,5.16v3.61a1,1,0,0,1-2,0V91.3a7.17,7.17,0,0,1,7.16-7.16h24.65c4.45,0,7.68,2.9,7.68,6.9S420.66,97.56,416.07,97.56Z"/><rect class="cls-5" x="426.86" y="64.5" width="11.43" height="28.87" rx="5.12" ry="5.12"/><path class="cls-6" d="M433.17,94.36H432a6.12,6.12,0,0,1-6.12-6.12V69.61A6.12,6.12,0,0,1,432,63.5h1.19a6.12,6.12,0,0,1,6.12,6.12V88.25A6.12,6.12,0,0,1,433.17,94.36ZM432,65.5a4.12,4.12,0,0,0-4.12,4.12V88.25A4.12,4.12,0,0,0,432,92.36h1.19a4.12,4.12,0,0,0,4.12-4.12V69.61a4.12,4.12,0,0,0-4.12-4.12Z"/><path class="cls-5" d="M183.37,336.25H167.6C153,336.25,141,347.4,141,361v12.47c0,13.62,12,24.77,26.6,24.77h4.6"/><path class="cls-6" d="M172.2,399.27h-4.6c-15.22,0-27.6-11.56-27.6-25.77V361c0-14.21,12.38-25.77,27.6-25.77h15.77a1,1,0,0,1,0,2H167.6c-14.12,0-25.6,10.66-25.6,23.77v12.47c0,13.11,11.49,23.77,25.6,23.77h4.6a1,1,0,0,1,0,2Z"/><path class="cls-9" d="M193.2,280.34a12,12,0,0,0-12,12V401.84a12,12,0,0,0,12,12H252a12,12,0,0,0,12-12V288.58"/><path class="cls-6" d="M252,414.84H193.2a13,13,0,0,1-13-13V292.34a13,13,0,0,1,13-13,1,1,0,0,1,0,2,11,11,0,0,0-11,11V401.84a11,11,0,0,0,11,11H252a11,11,0,0,0,11-11V288.58a1,1,0,0,1,2,0V401.84A13,13,0,0,1,252,414.84Z"/><rect class="cls-10" x="182.22" y="300.33" width="63.67" height="8.25"/><path class="cls-9" d="M181.2,287.64v-9.78a10.83,10.83,0,0,0-10.8-10.8h0a10.83,10.83,0,0,0-10.8,10.8v22.47h82.8"/><path class="cls-6" d="M242.41,301.33h-83.8V277.86a11.8,11.8,0,1,1,23.59,0v9.78h-2v-9.78a9.8,9.8,0,1,0-19.59,0v21.47h81.8Z"/><polygon class="cls-9" points="171.18 268.06 254.2 268.06 247.07 288.53 168.84 288.53 171.18 268.06"/><path class="cls-9" d="M242.41,300.33V277.86a10.83,10.83,0,0,1,10.8-10.8h0a10.83,10.83,0,0,1,10.8,10.8v10.67"/><path class="cls-6" d="M242.41,301.33a1,1,0,0,1-1-1V277.86a11.8,11.8,0,0,1,23.59,0v10.67a1,1,0,0,1-2,0V277.86a9.8,9.8,0,0,0-19.59,0v22.47A1,1,0,0,1,242.41,301.33Z"/><rect class="cls-5" x="188.28" y="355.55" width="57.62" height="4.46" rx="2.23" ry="2.23"/><rect class="cls-5" x="188.28" y="367.96" width="30.35" height="4.46" rx="2.23" ry="2.23"/><rect class="cls-5" x="188.28" y="379.01" width="46.06" height="4.46" rx="2.23" ry="2.23"/><rect class="cls-10" x="230.86" y="290.32" width="30.9" height="5.63" transform="translate(-46.82 539.44) rotate(-90)"/><rect class="cls-6" x="170.4" y="266.07" width="82.8" height="2"/><path class="cls-5" d="M169.62,372.68H197c4.65,0,8.45,2.85,8.45,6.33h0c0,3.48-3.8,6.33-8.45,6.33H169.62"/><path class="cls-6" d="M197,386.34H169.62a1,1,0,0,1,0-2H197c4,0,7.45-2.44,7.45-5.33s-3.41-5.33-7.45-5.33H169.62a1,1,0,1,1,0-2H197c5.21,0,9.45,3.29,9.45,7.33S202.26,386.34,197,386.34Z"/><path class="cls-5" d="M169.62,360H197c4.65,0,8.45,2.85,8.45,6.33h0c0,3.48-3.8,6.33-8.45,6.33H169.62"/><path class="cls-6" d="M197,373.68H169.62a1,1,0,1,1,0-2H197c4,0,7.45-2.44,7.45-5.33S201.09,361,197,361H169.62a1,1,0,1,1,0-2H197c5.21,0,9.45,3.29,9.45,7.33S202.26,373.68,197,373.68Z"/><path class="cls-5" d="M169.62,347.35H197c4.65,0,8.45,2.85,8.45,6.33h0c0,3.48-3.8,6.33-8.45,6.33H169.62"/><path class="cls-6" d="M197,361H169.62a1,1,0,1,1,0-2H197c4,0,7.45-2.44,7.45-5.33s-3.41-5.33-7.45-5.33H169.62a1,1,0,1,1,0-2H197c5.21,0,9.45,3.29,9.45,7.33S202.26,361,197,361Z"/><path class="cls-5" d="M169.62,385.6H197c4.65,0,8.45,2.85,8.45,6.33h0c0,3.48-3.8,6.33-8.45,6.33H169.62"/><path class="cls-6" d="M197,399.27H169.62a1,1,0,0,1,0-2H197c4,0,7.45-2.44,7.45-5.33s-3.41-5.33-7.45-5.33H169.62a1,1,0,1,1,0-2H197c5.21,0,9.45,3.29,9.45,7.33S202.26,399.27,197,399.27Z"/><path class="cls-5" d="M208.7,70.75v29.5s35.29,1.55,44-43.32A2.46,2.46,0,0,1,257,55.86c15.12,19.33,75.4,87.17,87.33,20.47"/><path class="cls-6" d="M321.52,106c-25.74,0-61.12-44.21-65.3-49.56a1.41,1.41,0,0,0-1.48-.52,1.45,1.45,0,0,0-1.1,1.16c-8.72,45.19-44.61,44.15-45,44.13l-1,0V70.75a1,1,0,0,1,2,0v28.5a41,41,0,0,0,17.35-4.76c12.63-6.7,21.15-19.75,24.62-37.74a3.46,3.46,0,0,1,6.12-1.5c15.86,20.27,48.07,53.25,68.09,48.27,8.73-2.17,14.61-11.38,17.47-27.37a1,1,0,0,1,2,.35c-3,16.84-9.39,26.58-19,29A20,20,0,0,1,321.52,106Z"/><path class="cls-6" d="M293.75,75a1,1,0,0,1-1-1V58.64a1,1,0,0,1,2,0V74A1,1,0,0,1,293.75,75Z"/><path class="cls-6" d="M309.75,88a1,1,0,0,1-1-1V58.64a1,1,0,0,1,2,0V87A1,1,0,0,1,309.75,88Z"/><path class="cls-6" d="M326,78.94a1,1,0,0,1-1-1V58.64a1,1,0,0,1,2,0V77.94A1,1,0,0,1,326,78.94Z"/><rect class="cls-5" x="188.28" y="320.77" width="68.65" height="4.46" rx="2.23" ry="2.23"/><rect class="cls-5" x="188.28" y="332.44" width="30.35" height="4.46" rx="2.23" ry="2.23"/><rect class="cls-9" x="389.45" y="140" width="50.8" height="11.04" rx="4.18" ry="4.18"/><path class="cls-6" d="M436.06,152H393.63a5.19,5.19,0,0,1-5.18-5.18v-2.67a5.19,5.19,0,0,1,5.18-5.19h42.43a5.19,5.19,0,0,1,5.19,5.19v2.67A5.19,5.19,0,0,1,436.06,152Zm-42.43-11a3.19,3.19,0,0,0-3.18,3.19v2.67a3.19,3.19,0,0,0,3.18,3.18h42.43a3.19,3.19,0,0,0,3.19-3.18v-2.67a3.19,3.19,0,0,0-3.19-3.19Z"/><circle class="cls-6" cx="433.5" cy="145.52" r="2.58"/><path class="cls-9" d="M433.5,149.1a3.58,3.58,0,1,1,3.58-3.58A3.58,3.58,0,0,1,433.5,149.1Zm0-5.16a1.58,1.58,0,1,0,1.58,1.58A1.58,1.58,0,0,0,433.5,143.94Z"/></svg>