<svg id="Layer_1" data-name="Layer 1" xmlns="http://www.w3.org/2000/svg" viewBox="0 0 550 450"><defs><style>.cls-1{opacity:0.18;}.cls-2{fill:#e5e5e5;}.cls-3{opacity:0.42;}.cls-4{opacity:0.5;}.cls-5{fill:#e9e9e9;}.cls-6{fill:#f5f5f5;}.cls-7{fill:#8a8e91;}.cls-8{fill:#d0dbf7;}.cls-9{fill:#dae2f7;}</style></defs><title>Vendors</title><g class="cls-1"><circle class="cls-2" cx="288" cy="224.5" r="186.5"/></g><g class="cls-3"><circle class="cls-2" cx="287.78" cy="224.28" r="161.19"/></g><g class="cls-4"><circle class="cls-2" cx="287.78" cy="224.28" r="141.51"/></g><circle class="cls-5" cx="91" cy="94" r="2.5"/><circle class="cls-5" cx="193.82" cy="51.65" r="2.5"/><circle class="cls-5" cx="51.1" cy="168.12" r="2.5"/><circle class="cls-5" cx="234.54" cy="116.72" r="2.5"/><circle class="cls-5" cx="314.58" cy="49.82" r="2.5"/><circle class="cls-5" cx="85.3" cy="304.5" r="2.5" transform="translate(-172.97 122.03) rotate(-39.11)"/><circle class="cls-5" cx="68.24" cy="380.87" r="2.5" transform="translate(-224.97 128.38) rotate(-39.11)"/><circle class="cls-5" cx="459.76" cy="42.26" r="2.5" transform="translate(1.86 101.39) rotate(-12.61)"/><circle class="cls-5" cx="437" cy="123.3" r="2.5" transform="translate(-16.38 98.37) rotate(-12.61)"/><circle class="cls-5" cx="509.72" cy="224.5" r="2.5" transform="translate(-36.72 116.69) rotate(-12.61)"/><circle class="cls-5" cx="508.4" cy="347.14" r="2.5" transform="translate(-63.52 119.36) rotate(-12.61)"/><circle class="cls-5" cx="51.1" cy="65.59" r="0.81"/><circle class="cls-5" cx="105.19" cy="120.88" r="0.81"/><circle class="cls-5" cx="43.14" cy="101.4" r="0.81"/><circle class="cls-5" cx="82.19" cy="121.88" r="0.81"/><circle class="cls-5" cx="36.51" cy="145.53" r="0.81"/><circle class="cls-5" cx="93.08" cy="168.93" r="0.81"/><circle class="cls-5" cx="26.03" cy="190.42" r="0.81"/><circle class="cls-5" cx="67.01" cy="201.62" r="0.81"/><circle class="cls-5" cx="37.87" cy="220.79" r="0.81"/><circle class="cls-5" cx="80.4" cy="241.08" r="0.81"/><circle class="cls-5" cx="27.63" cy="273.35" r="0.81"/><circle class="cls-5" cx="59.79" cy="305.08" r="0.81"/><circle class="cls-5" cx="32.48" cy="320.22" r="0.81"/><circle class="cls-5" cx="77.91" cy="350.75" r="0.81"/><circle class="cls-5" cx="26.86" cy="384.63" r="0.81"/><circle class="cls-5" cx="189.35" cy="21.27" r="0.81" transform="translate(26.03 119.4) rotate(-37.41)"/><circle class="cls-5" cx="156.08" cy="36.7" r="0.81" transform="translate(9.8 102.36) rotate(-37.41)"/><circle class="cls-5" cx="117" cy="58.24" r="0.81" transform="translate(-11.32 83.06) rotate(-37.41)"/><circle class="cls-5" cx="529.25" cy="64.79" r="0.81"/><circle class="cls-5" cx="506.25" cy="65.79" r="0.81"/><circle class="cls-5" cx="526" cy="104.67" r="0.81"/><circle class="cls-5" cx="460.57" cy="89.44" r="0.81"/><circle class="cls-5" cx="423.83" cy="45.57" r="0.81"/><circle class="cls-5" cx="401" cy="20.46" r="0.81"/><circle class="cls-5" cx="372.17" cy="38" r="0.81"/><circle class="cls-5" cx="335.81" cy="14.17" r="0.81"/><circle class="cls-5" cx="252" cy="32.5" r="0.81"/><circle class="cls-5" cx="284.17" cy="17.67" r="0.81"/><circle class="cls-5" cx="510" cy="139.33" r="0.81"/><circle class="cls-5" cx="490.17" cy="182" r="0.81"/><circle class="cls-5" cx="537.88" cy="214.13" r="0.81"/><circle class="cls-5" cx="515.5" cy="250.75" r="0.81"/><circle class="cls-5" cx="535.56" cy="271.75" r="0.81"/><circle class="cls-5" cx="526.55" cy="302.78" r="0.81" transform="translate(135.78 767.78) rotate(-79.86)"/><circle class="cls-5" cx="532.86" cy="334.76" r="0.81" transform="translate(109.49 800.34) rotate(-79.86)"/><circle class="cls-5" cx="513.52" cy="384.69" r="0.81" transform="translate(44.41 822.44) rotate(-79.86)"/><path class="cls-5" d="M89.62,42.79h-1v-1a1,1,0,0,0-2,0v1h-1a1,1,0,0,0,0,2h1v1a1,1,0,0,0,2,0v-1h1a1,1,0,0,0,0-2Z"/><path class="cls-5" d="M484,113.22h-1v-1a1,1,0,1,0-2,0v1h-1a1,1,0,0,0,0,2h1v1a1,1,0,0,0,2,0v-1h1a1,1,0,0,0,0-2Z"/><path class="cls-5" d="M55.63,250.56h-1v-1a1,1,0,1,0-2,0v1h-1a1,1,0,0,0,0,2h1v1a1,1,0,0,0,2,0v-1h1a1,1,0,0,0,0-2Z"/><path class="cls-5" d="M318.06,24.11h-1v-1a1,1,0,0,0-2,0v1h-1a1,1,0,0,0,0,2h1v1a1,1,0,1,0,2,0v-1h1a1,1,0,0,0,0-2Z"/><path class="cls-5" d="M524.44,180.19h-1v-1a1,1,0,0,0-2,0v1h-1a1,1,0,0,0,0,2h1v1a1,1,0,1,0,2,0v-1h1a1,1,0,0,0,0-2Z"/><path class="cls-5" d="M495,321.45h-1v-1a1,1,0,0,0-2,0v1h-1a1,1,0,0,0,0,2h1v1a1,1,0,0,0,2,0v-1h1a1,1,0,0,0,0-2Z"/><path class="cls-5" d="M79.14,149.37h-1v-1a1,1,0,0,0-2,0v1h-1a1,1,0,1,0,0,2h1v1a1,1,0,0,0,2,0v-1h1a1,1,0,1,0,0-2Z"/><path class="cls-5" d="M30.47,357.5h-1v-1a1,1,0,0,0-2,0v1h-1a1,1,0,1,0,0,2h1v1a1,1,0,0,0,2,0v-1h1a1,1,0,1,0,0-2Z"/><path class="cls-6" d="M119.51,111.18H451.22a0,0,0,0,1,0,0V380a12,12,0,0,1-12,12H131.51a12,12,0,0,1-12-12V111.18A0,0,0,0,1,119.51,111.18Z"/><path class="cls-7" d="M439.22,393H131.51a13,13,0,0,1-13-13V110.18H452.22V380A13,13,0,0,1,439.22,393ZM120.51,112.18V380a11,11,0,0,0,11,11H439.22a11,11,0,0,0,11-11V112.18Z"/><rect class="cls-6" x="103" y="375.06" width="365.11" height="5.86"/><path class="cls-7" d="M469.11,381.92H102v-7.86H469.11Zm-365.11-2H467.11v-3.86H104Z"/><path class="cls-6" d="M180.47,228.7H283.62a12,12,0,0,1,12,12v84.23a0,0,0,0,1,0,0H168.47a0,0,0,0,1,0,0V240.7A12,12,0,0,1,180.47,228.7Z"/><path class="cls-7" d="M296.62,325.93H167.47V240.7a13,13,0,0,1,13-13H283.62a13,13,0,0,1,13,13Zm-127.14-2H294.62V240.7a11,11,0,0,0-11-11H180.47a11,11,0,0,0-11,11Z"/><rect class="cls-8" x="168.47" y="287.58" width="127.14" height="11.18"/><path class="cls-7" d="M296.62,299.75H167.47V286.58H296.62Zm-127.14-2H294.62v-9.18H169.47Z"/><rect class="cls-6" x="329.71" y="239.83" width="82.1" height="135.13"/><path class="cls-7" d="M412.81,376h-84.1V238.83h84.1Zm-82.1-2h80.1V240.83h-80.1Z"/><rect class="cls-6" x="336.07" y="239.83" width="69.38" height="135.13"/><path class="cls-7" d="M406.45,376H335.07V238.83h71.38Zm-69.38-2h67.38V240.83H337.07Z"/><rect class="cls-9" x="155.04" y="331.19" width="154" height="9.76" rx="4" ry="4"/><rect class="cls-6" x="155.04" y="324.19" width="154" height="9.76" rx="4" ry="4"/><path class="cls-7" d="M305,335H159a5,5,0,0,1-5-5v-1.76a5,5,0,0,1,5-5H305a5,5,0,0,1,5,5V330A5,5,0,0,1,305,335Zm-146-9.76a3,3,0,0,0-3,3V330a3,3,0,0,0,3,3H305a3,3,0,0,0,3-3v-1.76a3,3,0,0,0-3-3Z"/><path class="cls-6" d="M159.22,218.44H411.89a0,0,0,0,1,0,0v22.79a6,6,0,0,1-6,6H165.22a6,6,0,0,1-6-6V218.44a0,0,0,0,1,0,0Z"/><path class="cls-7" d="M405.89,248.22H165.22a7,7,0,0,1-7-7V217.44H412.89v23.79A7,7,0,0,1,405.89,248.22ZM160.22,219.44v21.79a5,5,0,0,0,5,5H405.89a5,5,0,0,0,5-5V219.44Z"/><polygon class="cls-6" points="411.89 218.62 159.22 218.62 166.22 123.3 404.89 123.3 411.89 218.62"/><path class="cls-7" d="M413,219.62H158.15l7.15-97.32H405.82l.07.93Zm-252.67-2H410.81L404,124.3H167.15Z"/><circle class="cls-6" cx="390.59" cy="313" r="7.24"/><path class="cls-7" d="M390.59,321.24a8.24,8.24,0,1,1,8.24-8.24A8.25,8.25,0,0,1,390.59,321.24Zm0-14.48a6.24,6.24,0,1,0,6.24,6.24A6.25,6.25,0,0,0,390.59,306.76Z"/><circle class="cls-7" cx="390.59" cy="313" r="1.92"/><rect class="cls-6" x="101.73" y="94.95" width="365.11" height="17.51" rx="8" ry="8"/><path class="cls-7" d="M458.83,113.46H109.73a9,9,0,0,1-9-9v-1.51a9,9,0,0,1,9-9H458.83a9,9,0,0,1,9,9v1.51A9,9,0,0,1,458.83,113.46ZM109.73,95.95a7,7,0,0,0-7,7v1.51a7,7,0,0,0,7,7H458.83a7,7,0,0,0,7-7v-1.51a7,7,0,0,0-7-7Z"/><polygon class="cls-8" points="221.84 218.5 180.84 218.5 187.84 123.3 228.84 123.3 221.84 218.5"/><path class="cls-7" d="M222.77,219.5h-43l7.15-97.2h43Zm-40.85-2h39l6.85-93.2h-39Z"/><polygon class="cls-8" points="348.76 218.5 389.76 218.5 382.76 123.3 341.76 123.3 348.76 218.5"/><path class="cls-7" d="M390.84,219.5h-43l-7.15-97.2h43Zm-41.15-2h39l-6.85-93.2h-39Z"/><rect class="cls-8" x="265.36" y="123.35" width="41" height="95.2"/><path class="cls-7" d="M307.36,219.56h-43V122.35h43Zm-41-2h39V124.35h-39Z"/><rect class="cls-8" x="180.84" y="218.5" width="41" height="28.72"/><path class="cls-7" d="M222.84,248.22h-43V217.5h43Zm-41-2h39V219.5h-39Z"/><rect class="cls-8" x="265.36" y="218.47" width="41" height="28.72"/><path class="cls-7" d="M307.36,248.19h-43V217.47h43Zm-41-2h39V219.47h-39Z"/><rect class="cls-8" x="348.76" y="218.5" width="41" height="28.72"/><path class="cls-7" d="M390.76,248.22h-43V217.5h43Zm-41-2h39V219.5h-39Z"/><path class="cls-7" d="M228.84,280.68a1,1,0,0,1-.49-1.87l36.52-20.68a1,1,0,1,1,1,1.74l-36.52,20.68A1,1,0,0,1,228.84,280.68Z"/><path class="cls-7" d="M210.46,274.38a1,1,0,0,1-.49-1.87l22.76-12.89a1,1,0,0,1,1,1.74L211,274.25A1,1,0,0,1,210.46,274.38Z"/><path class="cls-7" d="M135.84,233.83a1,1,0,0,1-1-1V130.33a1,1,0,0,1,2,0v102.5A1,1,0,0,1,135.84,233.83Z"/><path class="cls-7" d="M135.84,291.67a1,1,0,0,1-1-1V250.72a1,1,0,0,1,2,0v39.95A1,1,0,0,1,135.84,291.67Z"/><rect class="cls-8" x="355.17" y="265" width="31.83" height="19.67" rx="3.93" ry="3.93"/><path class="cls-7" d="M383.07,285.67h-24a4.94,4.94,0,0,1-4.93-4.93v-11.8a4.94,4.94,0,0,1,4.93-4.93h24a4.94,4.94,0,0,1,4.93,4.93v11.8A4.94,4.94,0,0,1,383.07,285.67Zm-24-19.67a2.93,2.93,0,0,0-2.93,2.93v11.8a2.94,2.94,0,0,0,2.93,2.93h24a2.93,2.93,0,0,0,2.93-2.93v-11.8a2.93,2.93,0,0,0-2.93-2.93Z"/><path class="cls-7" d="M356.21,267.15a1,1,0,0,1-.79-1.62l14.88-18.92a1,1,0,0,1,1.57,1.24L357,266.76A1,1,0,0,1,356.21,267.15Z"/><path class="cls-7" d="M386.15,267.15a1,1,0,0,1-.78-.38L370.3,247.85a1,1,0,1,1,1.56-1.25l15.06,18.92a1,1,0,0,1-.78,1.62Z"/><path class="cls-7" d="M434.5,356.55a1,1,0,0,1-1-1V329.07a1,1,0,1,1,2,0v26.47A1,1,0,0,1,434.5,356.55Z"/><path class="cls-7" d="M425.17,317a1,1,0,0,1-1-1V256.68a1,1,0,0,1,2,0V316A1,1,0,0,1,425.17,317Z"/><path class="cls-6" d="M103,380.92H468.11a0,0,0,0,1,0,0v9.43a3,3,0,0,1-3,3H106a3,3,0,0,1-3-3v-9.43a0,0,0,0,1,0,0Z"/><path class="cls-7" d="M465.15,394.32H106a4,4,0,0,1-4-4V379.92H469.11v10.43A4,4,0,0,1,465.15,394.32ZM104,381.92v8.43a2,2,0,0,0,2,2H465.15a2,2,0,0,0,2-2v-8.43Z"/><path class="cls-6" d="M173,57.43h0a9.17,9.17,0,0,1,9.17,9.17V94.95a0,0,0,0,1,0,0H163.84a0,0,0,0,1,0,0V66.6A9.17,9.17,0,0,1,173,57.43Z"/><path class="cls-7" d="M183.17,95.95H162.84V66.6a10.17,10.17,0,0,1,20.33,0Zm-18.33-2h16.33V66.6a8.17,8.17,0,0,0-16.33,0Z"/><path class="cls-6" d="M219.67,76.19h0a9.17,9.17,0,0,1,9.17,9.17v9.59a0,0,0,0,1,0,0H210.51a0,0,0,0,1,0,0V85.36A9.17,9.17,0,0,1,219.67,76.19Z"/><path class="cls-7" d="M229.84,95.95H209.51V85.36a10.17,10.17,0,1,1,20.33,0Zm-18.33-2h16.33V85.36a8.17,8.17,0,1,0-16.33,0Z"/></svg>