<svg id="Layer_1" data-name="Layer 1" xmlns="http://www.w3.org/2000/svg" viewBox="0 0 550 450"><defs><style>.cls-1{fill:#e9e9e9;}.cls-2{opacity:0.18;}.cls-3{fill:#e5e5e5;}.cls-4{opacity:0.42;}.cls-5{opacity:0.5;}.cls-6{fill:#8a8e91;}.cls-7{fill:#f5f5f5;}.cls-8{fill:#d0dbf7;}.cls-9{fill:#dae2f7;}</style></defs><title>1_</title><circle class="cls-1" cx="91" cy="94" r="2.5"/><circle class="cls-1" cx="193.82" cy="51.65" r="2.5"/><circle class="cls-1" cx="51.1" cy="168.12" r="2.5"/><circle class="cls-1" cx="314.58" cy="49.82" r="2.5"/><circle class="cls-1" cx="85.3" cy="304.5" r="2.5" transform="translate(-172.97 122.03) rotate(-39.11)"/><circle class="cls-1" cx="68.24" cy="380.87" r="2.5" transform="translate(-224.97 128.38) rotate(-39.11)"/><circle class="cls-1" cx="459.76" cy="42.26" r="2.5" transform="translate(1.86 101.39) rotate(-12.61)"/><circle class="cls-1" cx="509.72" cy="224.5" r="2.5" transform="translate(-36.72 116.69) rotate(-12.61)"/><circle class="cls-1" cx="508.4" cy="347.14" r="2.5" transform="translate(-63.52 119.36) rotate(-12.61)"/><circle class="cls-1" cx="51.1" cy="65.59" r="0.81"/><circle class="cls-1" cx="105.19" cy="120.88" r="0.81"/><circle class="cls-1" cx="43.14" cy="101.4" r="0.81"/><circle class="cls-1" cx="82.19" cy="121.88" r="0.81"/><circle class="cls-1" cx="36.51" cy="145.53" r="0.81"/><circle class="cls-1" cx="93.08" cy="168.93" r="0.81"/><circle class="cls-1" cx="26.03" cy="190.42" r="0.81"/><circle class="cls-1" cx="67.01" cy="201.62" r="0.81"/><circle class="cls-1" cx="37.87" cy="220.79" r="0.81"/><circle class="cls-1" cx="80.4" cy="241.08" r="0.81"/><circle class="cls-1" cx="27.63" cy="273.35" r="0.81"/><circle class="cls-1" cx="59.79" cy="305.08" r="0.81"/><circle class="cls-1" cx="32.48" cy="320.22" r="0.81"/><circle class="cls-1" cx="77.91" cy="350.75" r="0.81"/><circle class="cls-1" cx="26.86" cy="384.63" r="0.81"/><circle class="cls-1" cx="189.35" cy="21.27" r="0.81" transform="translate(26.03 119.4) rotate(-37.41)"/><circle class="cls-1" cx="156.08" cy="36.7" r="0.81" transform="translate(9.8 102.36) rotate(-37.41)"/><circle class="cls-1" cx="117" cy="58.24" r="0.81" transform="translate(-11.32 83.06) rotate(-37.41)"/><circle class="cls-1" cx="529.25" cy="64.79" r="0.81"/><circle class="cls-1" cx="506.25" cy="65.79" r="0.81"/><circle class="cls-1" cx="526" cy="104.67" r="0.81"/><circle class="cls-1" cx="460.57" cy="89.44" r="0.81"/><circle class="cls-1" cx="423.83" cy="45.57" r="0.81"/><circle class="cls-1" cx="401" cy="20.46" r="0.81"/><circle class="cls-1" cx="372.17" cy="38" r="0.81"/><circle class="cls-1" cx="335.81" cy="14.17" r="0.81"/><circle class="cls-1" cx="252" cy="32.5" r="0.81"/><circle class="cls-1" cx="284.17" cy="17.67" r="0.81"/><circle class="cls-1" cx="510" cy="139.33" r="0.81"/><circle class="cls-1" cx="490.17" cy="182" r="0.81"/><circle class="cls-1" cx="537.87" cy="214.13" r="0.81"/><circle class="cls-1" cx="515.5" cy="250.75" r="0.81"/><circle class="cls-1" cx="535.56" cy="271.75" r="0.81"/><circle class="cls-1" cx="526.55" cy="302.78" r="0.81" transform="translate(135.78 767.78) rotate(-79.86)"/><circle class="cls-1" cx="532.86" cy="334.76" r="0.81" transform="translate(109.49 800.34) rotate(-79.86)"/><circle class="cls-1" cx="513.52" cy="384.69" r="0.81" transform="translate(44.41 822.44) rotate(-79.86)"/><path class="cls-1" d="M89.62,42.79h-1v-1a1,1,0,0,0-2,0v1h-1a1,1,0,0,0,0,2h1v1a1,1,0,0,0,2,0v-1h1a1,1,0,0,0,0-2Z"/><path class="cls-1" d="M484,113.22h-1v-1a1,1,0,1,0-2,0v1h-1a1,1,0,0,0,0,2h1v1a1,1,0,0,0,2,0v-1h1a1,1,0,0,0,0-2Z"/><path class="cls-1" d="M55.63,250.56h-1v-1a1,1,0,1,0-2,0v1h-1a1,1,0,0,0,0,2h1v1a1,1,0,0,0,2,0v-1h1a1,1,0,0,0,0-2Z"/><path class="cls-1" d="M318.06,24.11h-1v-1a1,1,0,0,0-2,0v1h-1a1,1,0,0,0,0,2h1v1a1,1,0,1,0,2,0v-1h1a1,1,0,0,0,0-2Z"/><path class="cls-1" d="M524.44,180.19h-1v-1a1,1,0,0,0-2,0v1h-1a1,1,0,0,0,0,2h1v1a1,1,0,1,0,2,0v-1h1a1,1,0,0,0,0-2Z"/><path class="cls-1" d="M495,321.45h-1v-1a1,1,0,0,0-2,0v1h-1a1,1,0,0,0,0,2h1v1a1,1,0,0,0,2,0v-1h1a1,1,0,0,0,0-2Z"/><path class="cls-1" d="M79.14,149.37h-1v-1a1,1,0,0,0-2,0v1h-1a1,1,0,1,0,0,2h1v1a1,1,0,0,0,2,0v-1h1a1,1,0,1,0,0-2Z"/><path class="cls-1" d="M30.47,357.5h-1v-1a1,1,0,0,0-2,0v1h-1a1,1,0,1,0,0,2h1v1a1,1,0,0,0,2,0v-1h1a1,1,0,1,0,0-2Z"/><g class="cls-2"><circle class="cls-3" cx="275" cy="225" r="186.5"/></g><g class="cls-4"><circle class="cls-3" cx="275" cy="225" r="161.19"/></g><g class="cls-5"><circle class="cls-3" cx="275" cy="225" r="141.51"/></g><circle class="cls-1" cx="430.89" cy="122.92" r="2.5" transform="translate(-16.44 97.03) rotate(-12.61)"/><path class="cls-6" d="M428.39,356.17a1,1,0,0,1-1-1V328.7a1,1,0,0,1,2,0v26.47A1,1,0,0,1,428.39,356.17Z"/><circle class="cls-1" cx="224.63" cy="116.34" r="2.5"/><path class="cls-7" d="M109.59,110.81H441.3a0,0,0,0,1,0,0V379.58a12,12,0,0,1-12,12H121.59a12,12,0,0,1-12-12V110.81A0,0,0,0,1,109.59,110.81Z"/><path class="cls-6" d="M429.3,392.58H121.59a13,13,0,0,1-13-13V109.81H442.3V379.58A13,13,0,0,1,429.3,392.58ZM110.59,111.81V379.58a11,11,0,0,0,11,11H429.3a11,11,0,0,0,11-11V111.81Z"/><rect class="cls-7" x="93.08" y="374.68" width="365.11" height="5.86"/><path class="cls-6" d="M459.19,381.55H92.08v-7.86H459.19Zm-365.11-2H457.19v-3.86H94.08Z"/><path class="cls-7" d="M170.56,228.33H273.7a12,12,0,0,1,12,12v84.23a0,0,0,0,1,0,0H158.56a0,0,0,0,1,0,0V240.33A12,12,0,0,1,170.56,228.33Z"/><path class="cls-6" d="M286.7,325.55H157.56V240.33a13,13,0,0,1,13-13H273.7a13,13,0,0,1,13,13Zm-127.14-2H284.7V240.33a11,11,0,0,0-11-11H170.56a11,11,0,0,0-11,11Z"/><rect class="cls-8" x="158.56" y="287.2" width="127.14" height="11.18"/><path class="cls-6" d="M286.7,299.38H157.56V286.2H286.7Zm-127.14-2H284.7V288.2H159.56Z"/><rect class="cls-7" x="319.79" y="239.46" width="82.1" height="135.13"/><path class="cls-6" d="M402.89,375.58h-84.1V238.46h84.1Zm-82.1-2h80.1V240.46h-80.1Z"/><rect class="cls-7" x="326.15" y="239.46" width="69.38" height="135.13"/><path class="cls-6" d="M396.53,375.58H325.15V238.46h71.38Zm-69.38-2h67.38V240.46H327.15Z"/><rect class="cls-9" x="145.13" y="330.82" width="154" height="9.76" rx="4" ry="4"/><rect class="cls-7" x="145.13" y="323.82" width="154" height="9.76" rx="4" ry="4"/><path class="cls-6" d="M295.13,334.58h-146a5,5,0,0,1-5-5v-1.76a5,5,0,0,1,5-5h146a5,5,0,0,1,5,5v1.76A5,5,0,0,1,295.13,334.58Zm-146-9.76a3,3,0,0,0-3,3v1.76a3,3,0,0,0,3,3h146a3,3,0,0,0,3-3v-1.76a3,3,0,0,0-3-3Z"/><path class="cls-7" d="M149.3,218.06H402a0,0,0,0,1,0,0v22.79a6,6,0,0,1-6,6H155.3a6,6,0,0,1-6-6V218.06A0,0,0,0,1,149.3,218.06Z"/><path class="cls-6" d="M396,247.85H155.3a7,7,0,0,1-7-7V217.06H403v23.79A7,7,0,0,1,396,247.85ZM150.3,219.06v21.79a5,5,0,0,0,5,5H396a5,5,0,0,0,5-5V219.06Z"/><polygon class="cls-7" points="401.97 218.24 149.3 218.24 156.3 122.92 394.97 122.92 401.97 218.24"/><path class="cls-6" d="M403,219.24H148.23l7.15-97.32H395.9l.07.93Zm-252.67-2H400.89L394,123.92H157.23Z"/><circle class="cls-7" cx="380.67" cy="312.62" r="7.24"/><path class="cls-6" d="M380.67,320.86a8.24,8.24,0,1,1,8.24-8.24A8.25,8.25,0,0,1,380.67,320.86Zm0-14.48a6.24,6.24,0,1,0,6.24,6.24A6.25,6.25,0,0,0,380.67,306.39Z"/><circle class="cls-6" cx="380.67" cy="312.62" r="1.92"/><rect class="cls-7" x="91.81" y="94.57" width="365.11" height="17.51" rx="8" ry="8"/><path class="cls-6" d="M448.92,113.08H99.81a9,9,0,0,1-9-9v-1.51a9,9,0,0,1,9-9H448.92a9,9,0,0,1,9,9v1.51A9,9,0,0,1,448.92,113.08ZM99.81,95.57a7,7,0,0,0-7,7v1.51a7,7,0,0,0,7,7H448.92a7,7,0,0,0,7-7v-1.51a7,7,0,0,0-7-7Z"/><polygon class="cls-8" points="211.92 218.13 170.92 218.13 177.92 122.92 218.92 122.92 211.92 218.13"/><path class="cls-6" d="M212.85,219.13h-43l7.15-97.2h43Zm-40.85-2h39l6.85-93.2h-39Z"/><polygon class="cls-8" points="338.84 218.13 379.84 218.13 372.84 122.92 331.84 122.92 338.84 218.13"/><path class="cls-6" d="M380.92,219.13h-43l-7.15-97.2h43Zm-41.15-2h39l-6.85-93.2h-39Z"/><rect class="cls-8" x="255.44" y="122.98" width="41" height="95.2"/><path class="cls-6" d="M297.44,219.18h-43V122h43Zm-41-2h39V124h-39Z"/><rect class="cls-8" x="170.92" y="218.12" width="41" height="28.72"/><path class="cls-6" d="M212.92,247.85h-43V217.13h43Zm-41-2h39V219.13h-39Z"/><rect class="cls-8" x="255.44" y="218.09" width="41" height="28.72"/><path class="cls-6" d="M297.44,247.82h-43V217.09h43Zm-41-2h39V219.09h-39Z"/><rect class="cls-8" x="338.84" y="218.12" width="41" height="28.72"/><path class="cls-6" d="M380.84,247.85h-43V217.13h43Zm-41-2h39V219.13h-39Z"/><path class="cls-6" d="M218.92,280.31a1,1,0,0,1-.49-1.87L255,257.75a1,1,0,0,1,1,1.74l-36.52,20.68A1,1,0,0,1,218.92,280.31Z"/><path class="cls-6" d="M200.54,274a1,1,0,0,1-.49-1.87l22.76-12.89a1,1,0,0,1,1,1.74L201,273.87A1,1,0,0,1,200.54,274Z"/><path class="cls-6" d="M125.92,233.46a1,1,0,0,1-1-1V130a1,1,0,0,1,2,0v102.5A1,1,0,0,1,125.92,233.46Z"/><path class="cls-6" d="M125.92,291.29a1,1,0,0,1-1-1V250.34a1,1,0,0,1,2,0v39.95A1,1,0,0,1,125.92,291.29Z"/><rect class="cls-8" x="345.26" y="264.62" width="31.83" height="19.67" rx="3.93" ry="3.93"/><path class="cls-6" d="M373.15,285.29h-24a4.94,4.94,0,0,1-4.93-4.93v-11.8a4.94,4.94,0,0,1,4.93-4.93h24a4.94,4.94,0,0,1,4.93,4.93v11.8A4.94,4.94,0,0,1,373.15,285.29Zm-24-19.67a2.93,2.93,0,0,0-2.93,2.93v11.8a2.94,2.94,0,0,0,2.93,2.93h24a2.93,2.93,0,0,0,2.93-2.93v-11.8a2.93,2.93,0,0,0-2.93-2.93Z"/><path class="cls-6" d="M346.29,266.77a1,1,0,0,1-.79-1.62l14.88-18.92a1,1,0,1,1,1.57,1.24l-14.88,18.92A1,1,0,0,1,346.29,266.77Z"/><path class="cls-6" d="M376.23,266.77a1,1,0,0,1-.78-.38l-15.06-18.92a1,1,0,1,1,1.56-1.25L377,265.15a1,1,0,0,1-.78,1.62Z"/><path class="cls-6" d="M415.25,316.64a1,1,0,0,1-1-1V256.31a1,1,0,1,1,2,0v59.33A1,1,0,0,1,415.25,316.64Z"/><path class="cls-7" d="M93.08,380.55H458.19a0,0,0,0,1,0,0V390a3,3,0,0,1-3,3H96a3,3,0,0,1-3-3v-9.43a0,0,0,0,1,0,0Z"/><path class="cls-6" d="M455.23,393.94H96a4,4,0,0,1-4-4V379.55H459.19V390A4,4,0,0,1,455.23,393.94ZM94.08,381.55V390a2,2,0,0,0,2,2H455.23a2,2,0,0,0,2-2v-8.43Z"/><path class="cls-7" d="M163.09,57.06h0a9.17,9.17,0,0,1,9.17,9.17V94.57a0,0,0,0,1,0,0H153.92a0,0,0,0,1,0,0V66.23A9.17,9.17,0,0,1,163.09,57.06Z"/><path class="cls-6" d="M173.25,95.57H152.92V66.23a10.17,10.17,0,0,1,20.33,0Zm-18.33-2h16.33V66.23a8.17,8.17,0,0,0-16.33,0Z"/><path class="cls-7" d="M209.76,75.82h0A9.17,9.17,0,0,1,218.92,85v9.59a0,0,0,0,1,0,0H200.59a0,0,0,0,1,0,0V85A9.17,9.17,0,0,1,209.76,75.82Z"/><path class="cls-6" d="M219.92,95.57H199.59V85a10.17,10.17,0,1,1,20.33,0Zm-18.33-2h16.33V85a8.17,8.17,0,1,0-16.33,0Z"/></svg>