
<svg id="Layer_1" data-name="Layer 1" xmlns="http://www.w3.org/2000/svg" viewBox="0 0 64 64"><defs><style>.cls-1,.cls-2{fill:none;stroke:#000;stroke-miterlimit:10;stroke-width:2px;}.cls-2{stroke-linecap:round;}</style></defs><title>Untitled-3</title><path class="cls-1" d="M7.5,33.87h49a0,0,0,0,1,0,0v26a2,2,0,0,1-2,2H9.5a2,2,0,0,1-2-2v-26a0,0,0,0,1,0,0Z"/><rect class="cls-1" x="4" y="12.88" width="56" height="21" rx="2" ry="2"/><path class="cls-1" d="M24.37,4.12H39.63a2,2,0,0,1,2,2v6.75a0,0,0,0,1,0,0H22.37a0,0,0,0,1,0,0V6.12A2,2,0,0,1,24.37,4.12Z"/><line class="cls-2" x1="21.5" y1="39.13" x2="21.5" y2="30.37"/><line class="cls-2" x1="42.5" y1="39.13" x2="42.5" y2="30.37"/></svg>