<?xml version="1.0" encoding="utf-8"?>
<!-- Generator: Adobe Illustrator 16.0.0, SVG Export Plug-In . SVG Version: 6.00 Build 0)  -->
<!DOCTYPE svg PUBLIC "-//W3C//DTD SVG 1.1//EN" "http://www.w3.org/Graphics/SVG/1.1/DTD/svg11.dtd">
<svg version="1.1" id="Layer_1" xmlns="http://www.w3.org/2000/svg" xmlns:xlink="http://www.w3.org/1999/xlink" x="0px" y="0px"
	 width="12px" height="12px" viewBox="0 0 12 12" enable-background="new 0 0 12 12" xml:space="preserve">
<path fill="#989898" d="M7.857,6l4.07-4.069c0.098-0.098,0.098-0.256,0-0.354l-1.504-1.503C10.377,0.027,10.313,0,10.248,0
	c-0.066,0-0.131,0.026-0.178,0.073L6,4.143L1.93,0.074c-0.094-0.094-0.26-0.094-0.354,0L0.072,1.577
	c-0.098,0.098-0.098,0.256,0,0.354L4.143,6l-4.07,4.069c-0.098,0.098-0.098,0.256,0,0.354l1.503,1.503
	C1.623,11.973,1.687,12,1.753,12c0.065,0,0.13-0.027,0.177-0.074L6,7.857l4.07,4.069C10.117,11.974,10.182,12,10.248,12
	c0.065,0,0.129-0.026,0.176-0.073l1.504-1.504c0.098-0.098,0.098-0.256,0-0.354L7.857,6z"/>
</svg>
