<svg
 xmlns="http://www.w3.org/2000/svg"
 xmlns:xlink="http://www.w3.org/1999/xlink"
 width="9px" height="52px">
<path fill-rule="evenodd"  fill="rgb(88, 103, 194)"
 d="M4.878,37.919 C5.126,34.638 5.399,31.423 5.699,28.273 C5.997,25.124 6.322,22.011 6.672,18.934 C7.023,15.857 7.395,12.803 7.789,9.769 C8.183,6.737 8.591,3.689 9.014,0.627 C8.460,0.423 7.891,0.266 7.307,0.157 C6.723,0.047 6.176,-0.007 5.666,-0.007 C5.242,-0.007 4.823,0.029 4.407,0.102 C3.991,0.175 3.616,0.288 3.280,0.441 C2.944,0.594 2.667,0.784 2.448,1.010 C2.230,1.236 2.113,1.509 2.098,1.830 C2.055,3.026 2.025,4.316 2.011,5.701 C1.996,7.087 1.989,8.552 1.989,10.098 C1.989,12.183 2.003,14.374 2.033,16.670 C2.062,18.967 2.105,21.311 2.164,23.702 C2.222,26.093 2.291,28.499 2.372,30.920 C2.452,33.340 2.543,35.717 2.645,38.050 L3.083,38.094 L4.878,37.919 ZM4.900,51.632 C5.352,51.384 5.735,51.060 6.049,50.659 C6.362,50.258 6.603,49.806 6.771,49.303 C6.939,48.800 7.023,48.293 7.023,47.783 C7.023,47.316 6.939,46.875 6.771,46.460 C6.603,46.044 6.369,45.680 6.071,45.366 C5.771,45.053 5.410,44.805 4.987,44.622 C4.564,44.440 4.104,44.349 3.608,44.349 C3.185,44.349 2.758,44.433 2.328,44.601 C1.898,44.768 1.511,45.024 1.168,45.366 C0.825,45.709 0.544,46.128 0.325,46.624 C0.107,47.120 -0.003,47.695 -0.003,48.352 C-0.003,48.818 0.077,49.270 0.238,49.708 C0.398,50.145 0.624,50.532 0.916,50.867 C1.208,51.202 1.565,51.476 1.989,51.687 C2.412,51.898 2.879,52.004 3.390,52.004 C3.944,52.004 4.447,51.880 4.900,51.632 Z"/>
</svg>