<?xml version="1.0" encoding="utf-8"?>
<!-- Generator: Adobe Illustrator 16.0.0, SVG Export Plug-In . SVG Version: 6.00 Build 0)  -->
<!DOCTYPE svg PUBLIC "-//W3C//DTD SVG 1.1//EN" "http://www.w3.org/Graphics/SVG/1.1/DTD/svg11.dtd">
<svg version="1.1" id="Layer_1" xmlns="http://www.w3.org/2000/svg" xmlns:xlink="http://www.w3.org/1999/xlink" x="0px" y="0px"
	 width="12px" height="12px" viewBox="0 0 12 12" enable-background="new 0 0 12 12" xml:space="preserve">
<g>
	<g>
		<path fill="#373737" d="M11.711,0H8.967C8.808,0,8.678,0.13,8.678,0.291v0.775c0,0.161,0.13,0.291,0.289,0.291h0.731L7.496,3.573
			c-0.112,0.114-0.112,0.298,0,0.412l0.546,0.548c0.054,0.055,0.127,0.085,0.204,0.085c0.076,0,0.15-0.031,0.204-0.085l2.201-2.216
			v0.736c0,0.161,0.13,0.291,0.289,0.291h0.771c0.16,0,0.289-0.13,0.289-0.291V0.291C12,0.13,11.871,0,11.711,0z M2.303,1.357h0.73
			c0.16,0,0.289-0.13,0.289-0.291V0.291C3.322,0.13,3.193,0,3.033,0H0.289C0.13,0,0,0.13,0,0.291v2.763
			c0,0.161,0.13,0.291,0.289,0.291H1.06c0.16,0,0.289-0.13,0.289-0.291V2.317L3.55,4.533c0.113,0.114,0.296,0.114,0.409,0
			l0.545-0.548c0.112-0.114,0.112-0.298,0-0.412L2.303,1.357z M3.959,7.467C3.904,7.412,3.831,7.381,3.754,7.381
			c-0.076,0-0.149,0.031-0.204,0.086L1.349,9.683V8.946c0-0.161-0.129-0.291-0.289-0.291H0.289C0.13,8.655,0,8.785,0,8.946v2.763
			C0,11.869,0.13,12,0.289,12h2.744c0.16,0,0.289-0.131,0.289-0.291v-0.775c0-0.161-0.129-0.291-0.289-0.291h-0.73l2.201-2.216
			c0.112-0.114,0.112-0.298,0-0.411L3.959,7.467z M11.711,8.655H10.94c-0.159,0-0.289,0.13-0.289,0.291v0.736L8.45,7.467
			C8.396,7.412,8.322,7.381,8.246,7.381c-0.077,0-0.15,0.031-0.204,0.086L7.496,8.016c-0.112,0.113-0.112,0.297,0,0.411l2.202,2.216
			H8.967c-0.16,0-0.289,0.13-0.289,0.291v0.775c0,0.16,0.129,0.291,0.289,0.291h2.744C11.871,12,12,11.869,12,11.709V8.946
			C12,8.785,11.871,8.655,11.711,8.655z"/>
	</g>
</g>
</svg>
