<?xml version="1.0" encoding="utf-8"?>
<!-- Generator: Adobe Illustrator 16.0.0, SVG Export Plug-In . SVG Version: 6.00 Build 0)  -->
<!DOCTYPE svg PUBLIC "-//W3C//DTD SVG 1.1//EN" "http://www.w3.org/Graphics/SVG/1.1/DTD/svg11.dtd">
<svg version="1.1" id="Layer_1" xmlns="http://www.w3.org/2000/svg" xmlns:xlink="http://www.w3.org/1999/xlink" x="0px" y="0px"
	 width="36px" height="28px" viewBox="0 0 36 28" enable-background="new 0 0 36 28" xml:space="preserve">
<g>
	<g>
		<path fill="#373737" d="M35.43,0H0.57C0.255,0,0,0.252,0,0.563v26.875C0,27.748,0.255,28,0.57,28H35.43
			c0.315,0,0.57-0.252,0.57-0.563V0.563C36,0.252,35.745,0,35.43,0z M32.578,23.516l-7.846-8.011
			c-0.086-0.088-0.228-0.094-0.321-0.013l-5.441,4.722l-6.954-8.442c-0.045-0.056-0.111-0.087-0.186-0.086
			c-0.072,0.002-0.139,0.036-0.182,0.093L3.422,22.662V3.375h29.156V23.516z M23.963,11.499c1.544,0,2.798-1.235,2.798-2.76
			c0-1.523-1.254-2.76-2.798-2.76c-1.546,0-2.799,1.236-2.799,2.76C21.164,10.264,22.417,11.499,23.963,11.499z"/>
	</g>
</g>
</svg>
