<svg id="Layer_1" data-name="Layer 1" xmlns="http://www.w3.org/2000/svg" viewBox="0 0 64 64"><defs><style>.cls-1{fill:#cebdef;}</style></defs><title>1_</title><ellipse class="cls-1" cx="37.18" cy="17.49" rx="6.82" ry="10.06"/><path class="cls-1" d="M56.73,57.59A1.38,1.38,0,0,0,58,56c-.69-9.68-7.76-17.28-16.37-17.28S25.95,46.36,25.25,56a1.38,1.38,0,0,0,1.26,1.56Z"/><path d="M56,60H8a3.52,3.52,0,0,1-3.5-3.8A27.79,27.79,0,0,1,32,30.75,27.79,27.79,0,0,1,59.49,56.2,3.52,3.52,0,0,1,56,60ZM32,33.75A24.77,24.77,0,0,0,7.5,56.45a.5.5,0,0,0,.13.38A.51.51,0,0,0,8,57H56a.51.51,0,0,0,.38-.17.5.5,0,0,0,.13-.38A24.77,24.77,0,0,0,32,33.75Z"/><path d="M31.5,31.23A13.61,13.61,0,1,1,45,17.61,13.59,13.59,0,0,1,31.5,31.23ZM31.5,7A10.61,10.61,0,1,0,42,17.61,10.59,10.59,0,0,0,31.5,7Z"/><path d="M16,58.49a1.5,1.5,0,0,1-1.5-1.5V47.9a1.5,1.5,0,0,1,3,0V57A1.5,1.5,0,0,1,16,58.49Z"/><path d="M48,58.49a1.5,1.5,0,0,1-1.5-1.5V47.9a1.5,1.5,0,1,1,3,0V57A1.5,1.5,0,0,1,48,58.49Z"/></svg>