<svg id="Layer_1" data-name="Layer 1" xmlns="http://www.w3.org/2000/svg" viewBox="0 0 64 64"><defs><style>.cls-1{fill:#cebdef;}</style></defs><title>1_</title><path d="M56.5,52H7.5A3.5,3.5,0,0,1,4,48.5v-34A3.5,3.5,0,0,1,7.5,11h49A3.5,3.5,0,0,1,60,14.5v34A3.5,3.5,0,0,1,56.5,52ZM7.5,14a.51.51,0,0,0-.5.5v34a.51.51,0,0,0,.5.5h49a.51.51,0,0,0,.5-.5v-34a.51.51,0,0,0-.5-.5Z"/><rect class="cls-1" x="5.5" y="20.5" width="53" height="11"/><path d="M60,33H4V19H60ZM7,30H57V22H7Z"/><path d="M36,39.5H12a1.5,1.5,0,0,1,0-3H36a1.5,1.5,0,0,1,0,3Z"/><path d="M24,45.5H12a1.5,1.5,0,0,1,0-3H24a1.5,1.5,0,0,1,0,3Z"/></svg>