<svg id="Layer_1" data-name="Layer 1" xmlns="http://www.w3.org/2000/svg" viewBox="0 0 64 64"><defs><style>.cls-1{fill:#cebdef;}</style></defs><title>1_</title><polygon class="cls-1" points="47 18.5 43 15.5 26 58.5 47 58.5 47 18.5"/><path d="M46,60H18a3.46,3.46,0,0,1-3.5-3.42V20.87a3.41,3.41,0,0,1,1-2.44L29.55,5a3.58,3.58,0,0,1,4.91,0l14,13.45a3.41,3.41,0,0,1,1,2.44V56.58A3.46,3.46,0,0,1,46,60ZM32,7a.54.54,0,0,0-.37.14l-14,13.45a.39.39,0,0,0-.12.28V56.58A.47.47,0,0,0,18,57H46a.47.47,0,0,0,.5-.42V20.87a.39.39,0,0,0-.12-.28l-14-13.45A.54.54,0,0,0,32,7Z"/><circle cx="32" cy="15" r="2"/><path d="M41.45,47.66a11,11,0,0,1-2.61,1.05,12.12,12.12,0,0,1-6.55-.16,11.49,11.49,0,0,1-3.06-1.48,11.26,11.26,0,0,1-2.42-2.25A10.23,10.23,0,0,1,25.2,42H22.29l1.54-2.63h.78c0-.17,0-.34,0-.51s0-.33,0-.48v-.47a4.16,4.16,0,0,1,0-.47H22.29l1.54-2.63h1.3a10.55,10.55,0,0,1,1.56-3,10.34,10.34,0,0,1,2.4-2.31A11.33,11.33,0,0,1,32.2,28a12.2,12.2,0,0,1,3.64-.53,10.86,10.86,0,0,1,3,.39A12.79,12.79,0,0,1,41.43,29L39.5,32.32a7.5,7.5,0,0,0-1.73-.73,7.12,7.12,0,0,0-1.94-.26,7.49,7.49,0,0,0-3.76.94,6.62,6.62,0,0,0-2.56,2.55h8.71l-1.53,2.63h-8a3.31,3.31,0,0,0,0,.42v.44a7,7,0,0,0,.08,1.07l7,0L34.2,42H29.67a6.57,6.57,0,0,0,2.51,2.35,7.51,7.51,0,0,0,3.65.87A8.42,8.42,0,0,0,37.79,45a5.46,5.46,0,0,0,1.74-.73Z"/></svg>