<svg id="Layer_1" data-name="Layer 1" xmlns="http://www.w3.org/2000/svg" viewBox="0 0 64 64"><defs><style>.cls-1{fill:#cebdef;}</style></defs><title>1_</title><polygon class="cls-1" points="52 5.5 48 5.5 27 58.5 52 58.5 52 5.5"/><path d="M46,43.5H18a1.5,1.5,0,0,1,0-3H46a1.5,1.5,0,0,1,0,3Z"/><path d="M46,51.5H18a1.5,1.5,0,0,1,0-3H46a1.5,1.5,0,0,1,0,3Z"/><path d="M50,60H14a3.5,3.5,0,0,1-3.5-3.5V7.5A3.5,3.5,0,0,1,14,4H50a3.5,3.5,0,0,1,3.5,3.5v49A3.5,3.5,0,0,1,50,60ZM14,7a.51.51,0,0,0-.5.5v49a.51.51,0,0,0,.5.5H50a.51.51,0,0,0,.5-.5V7.5A.51.51,0,0,0,50,7Z"/><path d="M41.45,32.66a11,11,0,0,1-2.61,1.05,12.12,12.12,0,0,1-6.55-.16,11.49,11.49,0,0,1-3.06-1.48,11.26,11.26,0,0,1-2.42-2.25A10.23,10.23,0,0,1,25.2,27H22.29l1.54-2.63h.78c0-.17,0-.34,0-.51s0-.33,0-.48v-.47a4.16,4.16,0,0,1,0-.47H22.29l1.54-2.63h1.3a10.55,10.55,0,0,1,1.56-3,10.34,10.34,0,0,1,2.4-2.31A11.33,11.33,0,0,1,32.2,13a12.2,12.2,0,0,1,3.64-.53,10.86,10.86,0,0,1,3,.39A12.79,12.79,0,0,1,41.43,14L39.5,17.32a7.5,7.5,0,0,0-1.73-.73,7.12,7.12,0,0,0-1.94-.26,7.49,7.49,0,0,0-3.76.94,6.62,6.62,0,0,0-2.56,2.55h8.71l-1.53,2.63h-8a3.31,3.31,0,0,0,0,.42v.44a7,7,0,0,0,.08,1.07l7,0L34.2,27H29.67a6.57,6.57,0,0,0,2.51,2.35,7.51,7.51,0,0,0,3.65.87A8.42,8.42,0,0,0,37.79,30a5.46,5.46,0,0,0,1.74-.73Z"/></svg>