<svg id="Layer_1" data-name="Layer 1" xmlns="http://www.w3.org/2000/svg" viewBox="0 0 64 64"><defs><style>.cls-1{fill:#cebdef;}</style></defs><title>1_</title><polygon class="cls-1" points="51.31 10.51 44.92 10.51 42.92 16.92 51.31 16.92 51.31 10.51"/><path class="cls-1" d="M38,44a2,2,0,0,1-2-2V34a2,2,0,0,1,2-2H54.63V18H38L23,56H54.63V44Z"/><path d="M52.62,57.5H7.38A3.45,3.45,0,0,1,4,54V20a3.45,3.45,0,0,1,3.38-3.5H52.62A3.45,3.45,0,0,1,56,20V33.5H38a.46.46,0,0,0-.38.5v8a.46.46,0,0,0,.38.5H56V54A3.45,3.45,0,0,1,52.62,57.5ZM7.38,19.5A.46.46,0,0,0,7,20V54a.46.46,0,0,0,.38.5H52.62A.46.46,0,0,0,53,54V45.5H38A3.45,3.45,0,0,1,34.62,42V34A3.45,3.45,0,0,1,38,30.5H53V20a.46.46,0,0,0-.38-.5Z"/><path d="M53.5,19.5H6.5V12A3.5,3.5,0,0,1,10,8.5H50A3.5,3.5,0,0,1,53.5,12Zm-44-3h41V12a.51.51,0,0,0-.5-.5H10a.51.51,0,0,0-.5.5Z"/><circle cx="44" cy="38" r="2"/><path d="M56,45.5H38A3.5,3.5,0,0,1,34.5,42V34A3.5,3.5,0,0,1,38,30.5H56A3.5,3.5,0,0,1,59.5,34v8A3.5,3.5,0,0,1,56,45.5Zm-18-12a.51.51,0,0,0-.5.5v8a.51.51,0,0,0,.5.5H56a.51.51,0,0,0,.5-.5V34a.51.51,0,0,0-.5-.5Z"/></svg>