<svg id="Layer_1" data-name="Layer 1" xmlns="http://www.w3.org/2000/svg" viewBox="0 0 64 64"><defs><style>.cls-1{fill:#cebdef;}</style></defs><title>1_</title><polygon class="cls-1" points="58.79 18.86 48.68 18.86 40.59 35.03 58.79 35.03 58.79 18.86"/><polyline class="cls-1" points="20.37 58.29 55.76 58.29 55.76 34.02 33.52 34.02"/><path d="M54.26,59.79H9.74a3.5,3.5,0,0,1-3.5-3.5V32.52H57.76V56.29A3.5,3.5,0,0,1,54.26,59.79Zm-45-24.26V56.29a.5.5,0,0,0,.5.5H54.26a.5.5,0,0,0,.5-.5V35.52Z"/><path d="M58,35.52H6a3.52,3.52,0,0,1-3.49-4L4.17,20.09a2,2,0,0,1,2-1.72h51.7a2,2,0,0,1,2,1.72L61.46,31.5a3.52,3.52,0,0,1-3.49,4ZM7,21.37,5.51,31.93a.52.52,0,0,0,.52.6H58a.52.52,0,0,0,.52-.6L57,21.37Zm49.85-.85h0Zm-49.73,0h0Z"/><path d="M58.29,21.37a1.5,1.5,0,0,1-1.38-.91L51.37,7.53a.52.52,0,0,0-.48-.32H13.11a.52.52,0,0,0-.48.32L7.09,20.46a1.5,1.5,0,1,1-2.76-1.18L9.88,6.35a3.52,3.52,0,0,1,3.24-2.13H50.89a3.52,3.52,0,0,1,3.24,2.13l5.54,12.93a1.5,1.5,0,0,1-1.38,2.09Z"/></svg>