<svg id="Layer_1" data-name="Layer 1" xmlns="http://www.w3.org/2000/svg" viewBox="0 0 64 64"><defs><style>.cls-1{fill:#cebdef;}</style></defs><title>1_</title><polygon class="cls-1" points="51.5 16.33 40.31 16 39.89 6.33 27.89 57.72 51.5 57.72 51.5 16.33"/><path d="M49.5,60h-35A3.45,3.45,0,0,1,11,56.61V7.39A3.45,3.45,0,0,1,14.5,4H40a1.5,1.5,0,0,1,0,3H14.5a.47.47,0,0,0-.5.39V56.61a.47.47,0,0,0,.5.39h35a.47.47,0,0,0,.5-.39V16.5a1.5,1.5,0,0,1,3,0V56.61A3.45,3.45,0,0,1,49.5,60Z"/><path d="M51.5,18H42.41A3.35,3.35,0,0,1,39,14.73V5.5a1.5,1.5,0,0,1,2.56-1.06l11,11A1.5,1.5,0,0,1,51.5,18ZM42,9.12v5.61c0,.13.18.27.41.27h5.47Z"/><path d="M24,35.5H20A3.5,3.5,0,0,1,16.5,32V28A3.5,3.5,0,0,1,20,24.5h4A3.5,3.5,0,0,1,27.5,28v4A3.5,3.5,0,0,1,24,35.5Zm-4-8a.51.51,0,0,0-.5.5v4a.51.51,0,0,0,.5.5h4a.51.51,0,0,0,.5-.5V28a.51.51,0,0,0-.5-.5Z"/><path d="M24,53.5H20A3.5,3.5,0,0,1,16.5,50V46A3.5,3.5,0,0,1,20,42.5h4A3.5,3.5,0,0,1,27.5,46v4A3.5,3.5,0,0,1,24,53.5Zm-4-8a.51.51,0,0,0-.5.5v4a.51.51,0,0,0,.5.5h4a.51.51,0,0,0,.5-.5V46a.51.51,0,0,0-.5-.5Z"/><path d="M46,31.5H32a1.5,1.5,0,0,1,0-3H46a1.5,1.5,0,0,1,0,3Z"/><path d="M46,49.5H32a1.5,1.5,0,0,1,0-3H46a1.5,1.5,0,0,1,0,3Z"/></svg>