<svg id="Layer_1" data-name="Layer 1" xmlns="http://www.w3.org/2000/svg" viewBox="0 0 64 64"><defs><style>.cls-1{fill:#cebdef;}</style></defs><title>1_</title><path class="cls-1" d="M13.07,15.28V21.9c0,2.43-1.7,4.42-3.79,4.42h0c-2.08,0-3.79-2-3.79-4.42V13.07"/><path d="M9.29,27.82C6.37,27.82,4,25.17,4,21.9V13.07a1.5,1.5,0,1,1,3,0V21.9c0,1.58,1,2.92,2.29,2.92s2.29-1.34,2.29-2.92V15.28a1.5,1.5,0,0,1,3,0V21.9C14.57,25.17,12.2,27.82,9.29,27.82Z"/><path class="cls-1" d="M58.5,13.07V21.9c0,2.43-1.7,4.42-3.79,4.42h0c-2.08,0-3.79-2-3.79-4.42V15.28"/><path d="M54.71,27.82c-2.91,0-5.29-2.65-5.29-5.92V15.28a1.5,1.5,0,0,1,3,0V21.9c0,1.58,1,2.92,2.29,2.92S57,23.49,57,21.9V13.07a1.5,1.5,0,1,1,3,0V21.9C60,25.17,57.63,27.82,54.71,27.82Z"/><path d="M52.82,60H11.18a3.61,3.61,0,0,1-3.39-3.78V26.32a1.5,1.5,0,1,1,3,0V56.22c0,.51.29.78.39.78H52.82c.1,0,.39-.27.39-.78V26.32a1.5,1.5,0,1,1,3,0V56.22A3.61,3.61,0,0,1,52.82,60Z"/><path d="M56.61,16H7.39A3.59,3.59,0,0,1,4,12.25V7.75A3.59,3.59,0,0,1,7.39,4H56.61A3.59,3.59,0,0,1,60,7.75v4.5A3.59,3.59,0,0,1,56.61,16ZM7.39,7C7.26,7,7,7.29,7,7.75v4.5c0,.46.26.75.39.75H56.61c.13,0,.39-.29.39-.75V7.75c0-.46-.26-.75-.39-.75Z"/><path class="cls-1" d="M13.07,14.5h7.57a0,0,0,0,1,0,0v9.29a3.71,3.71,0,0,1-3.71,3.71h-.14a3.71,3.71,0,0,1-3.71-3.71V14.5A0,0,0,0,1,13.07,14.5Z"/><path d="M16.93,29h-.14a5.22,5.22,0,0,1-5.21-5.21V13H22.14V23.79A5.22,5.22,0,0,1,16.93,29ZM14.57,16v7.79A2.22,2.22,0,0,0,16.79,26h.14a2.22,2.22,0,0,0,2.21-2.21V16Z"/><path class="cls-1" d="M20.64,14.5h7.57a0,0,0,0,1,0,0v9.29A3.71,3.71,0,0,1,24.5,27.5h-.14a3.71,3.71,0,0,1-3.71-3.71V14.5a0,0,0,0,1,0,0Z"/><path d="M24.5,29h-.14a5.22,5.22,0,0,1-5.21-5.21V13H29.71V23.79A5.22,5.22,0,0,1,24.5,29ZM22.14,16v7.79A2.22,2.22,0,0,0,24.36,26h.14a2.22,2.22,0,0,0,2.21-2.21V16Z"/><path class="cls-1" d="M28.21,14.5h7.57a0,0,0,0,1,0,0v9.29a3.71,3.71,0,0,1-3.71,3.71h-.14a3.71,3.71,0,0,1-3.71-3.71V14.5a0,0,0,0,1,0,0Z"/><path d="M32.07,29h-.14a5.22,5.22,0,0,1-5.21-5.21V13H37.29V23.79A5.22,5.22,0,0,1,32.07,29ZM29.71,16v7.79A2.22,2.22,0,0,0,31.93,26h.14a2.22,2.22,0,0,0,2.21-2.21V16Z"/><path class="cls-1" d="M35.79,14.5h7.57a0,0,0,0,1,0,0v9.29a3.71,3.71,0,0,1-3.71,3.71H39.5a3.71,3.71,0,0,1-3.71-3.71V14.5A0,0,0,0,1,35.79,14.5Z"/><path d="M39.64,29H39.5a5.22,5.22,0,0,1-5.21-5.21V13H44.86V23.79A5.22,5.22,0,0,1,39.64,29ZM37.29,16v7.79A2.22,2.22,0,0,0,39.5,26h.14a2.22,2.22,0,0,0,2.21-2.21V16Z"/><path class="cls-1" d="M43.36,14.5h7.57a0,0,0,0,1,0,0v9.29a3.71,3.71,0,0,1-3.71,3.71h-.14a3.71,3.71,0,0,1-3.71-3.71V14.5a0,0,0,0,1,0,0Z"/><path d="M47.21,29h-.14a5.22,5.22,0,0,1-5.21-5.21V13H52.43V23.79A5.22,5.22,0,0,1,47.21,29ZM44.86,16v7.79A2.22,2.22,0,0,0,47.07,26h.14a2.22,2.22,0,0,0,2.21-2.21V16Z"/><path class="cls-1" d="M39.5,35.5h7a2,2,0,0,1,2,2v21a0,0,0,0,1,0,0h-11a0,0,0,0,1,0,0v-21a2,2,0,0,1,2-2Z"/><path d="M50,60H36V37.5A3.5,3.5,0,0,1,39.5,34h7A3.5,3.5,0,0,1,50,37.5ZM39,57h8V37.5a.51.51,0,0,0-.5-.5h-7a.51.51,0,0,0-.5.5Z"/><rect class="cls-1" x="17.5" y="35.5" width="13" height="13" rx="2" ry="2"/><path d="M28.5,50h-9A3.5,3.5,0,0,1,16,46.5v-9A3.5,3.5,0,0,1,19.5,34h9A3.5,3.5,0,0,1,32,37.5v9A3.5,3.5,0,0,1,28.5,50Zm-9-13a.5.5,0,0,0-.5.5v9a.51.51,0,0,0,.5.5h9a.51.51,0,0,0,.5-.5v-9a.51.51,0,0,0-.5-.5Z"/></svg>