<?xml version="1.0" encoding="utf-8"?>
<!-- Generator: Adobe Illustrator 16.0.0, SVG Export Plug-In . SVG Version: 6.00 Build 0)  -->
<!DOCTYPE svg PUBLIC "-//W3C//DTD SVG 1.1//EN" "http://www.w3.org/Graphics/SVG/1.1/DTD/svg11.dtd">
<svg version="1.1" id="Layer_1" xmlns="http://www.w3.org/2000/svg" xmlns:xlink="http://www.w3.org/1999/xlink" x="0px" y="0px"
	 width="160px" height="25px" viewBox="0 0 160 25" enable-background="new 0 0 160 25" xml:space="preserve">
<g id="Layer_1_1_">
	<g id="Layer_4">
	</g>
	<g>
		<g>
			<g>
				<g>
					<g>
						<defs>
							<path id="SVGID_1_" d="M63.983,19.907c-0.037,0-13.711-0.003-15.687-0.003c-0.831-0.416-1.509-1.084-1.932-1.903V2.682
								c-0.053-0.726-0.321-1.334-0.804-1.829c-0.485-0.493-1.08-0.738-1.787-0.738c-0.706,0.026-1.296,0.271-1.767,0.738
								c-0.47,0.466-0.746,1.024-0.824,1.672V18.04c0,0.907,0.176,1.776,0.53,2.606s0.837,1.556,1.453,2.176
								c0.615,0.623,1.327,1.121,2.14,1.498c0.811,0.375,1.675,0.563,2.591,0.563h16.362c0.68-0.104,1.236-0.396,1.667-0.876
								c0.432-0.479,0.649-1.028,0.649-1.647c-0.026-0.701-0.293-1.285-0.805-1.752C65.258,20.139,64.662,19.907,63.983,19.907z
								 M36.41,9.155c-0.745-0.842-1.635-1.536-2.668-2.081c-1.035-0.545-2.14-0.881-3.317-1.011
								c-0.184-0.025-0.361-0.039-0.531-0.039h-0.568c-1.962,0-3.717,0.519-5.261,1.556c-1.545,1.037-2.696,2.398-3.455,4.083
								c-0.262,0.596-0.465,1.206-0.609,1.828s-0.216,1.271-0.216,1.942c0,0.67,0.071,1.32,0.216,1.941
								c0.144,0.622,0.347,1.23,0.609,1.829c0.759,1.657,1.91,3.014,3.455,4.063c1.543,1.051,3.298,1.572,5.261,1.572
								c0.758,0,1.478-0.076,2.159-0.23c0.653-0.155,1.295-0.375,1.923-0.662c0.104-0.051,0.209-0.108,0.314-0.174
								c0.105-0.063,0.223-0.123,0.354-0.176c0.549,0.83,1.282,1.242,2.199,1.242c0.653,0,1.242-0.242,1.766-0.738
								c0.524-0.488,0.786-1.086,0.786-1.787v-6.881c0-1.191-0.216-2.326-0.648-3.403C37.747,10.957,37.158,9.997,36.41,9.155z
								 M33.329,17.166c-0.235,0.531-0.549,0.991-0.942,1.381c-0.393,0.389-0.858,0.693-1.394,0.913
								c-0.537,0.222-1.107,0.331-1.707,0.331c-0.55,0-1.087-0.118-1.609-0.352c-0.525-0.231-0.988-0.545-1.394-0.936
								c-0.406-0.388-0.733-0.847-0.982-1.381c-0.249-0.527-0.373-1.094-0.373-1.688c0-0.569,0.118-1.123,0.353-1.652
								c0.235-0.53,0.556-0.998,0.962-1.399c0.405-0.402,0.871-0.719,1.395-0.953c0.523-0.233,1.072-0.351,1.649-0.351
								c0.575,0,1.132,0.117,1.668,0.351c0.537,0.233,1.007,0.551,1.412,0.953c0.406,0.401,0.727,0.869,0.963,1.399
								c0.236,0.529,0.354,1.083,0.354,1.652C33.683,16.059,33.565,16.632,33.329,17.166z M15.467,11.994
								c-0.706-0.687-1.511-1.226-2.414-1.614c-0.902-0.388-1.839-0.583-2.807-0.583H7.577c-0.629,0-1.158-0.215-1.59-0.642
								C5.554,8.728,5.324,8.216,5.299,7.619c0.026-0.673,0.254-1.237,0.688-1.69c0.432-0.454,0.962-0.681,1.59-0.681h6.988
								c0.759,0,1.386-0.246,1.885-0.739c0.496-0.492,0.745-1.114,0.745-1.866c-0.053-0.751-0.327-1.38-0.824-1.886
								C15.873,0.251,15.271,0,14.565,0H7.577C6.53,0,5.548,0.213,4.632,0.641c-0.916,0.427-1.72,0.99-2.414,1.691
								c-0.693,0.7-1.237,1.504-1.63,2.411C0.194,5.65,0,6.583,0,7.542c0,1.063,0.209,2.048,0.628,2.956
								c0.419,0.908,0.975,1.691,1.669,2.352c0.693,0.662,1.498,1.188,2.414,1.576c0.916,0.387,1.872,0.596,2.867,0.62h2.708
								c0.6,0.024,1.132,0.253,1.59,0.681c0.458,0.431,0.687,0.967,0.687,1.613c0,0.622-0.235,1.154-0.706,1.594
								c-0.472,0.442-1.007,0.662-1.609,0.662h-6.99c-0.759,0-1.394,0.26-1.904,0.775C0.842,20.893,0.588,21.5,0.588,22.2
								c0,0.752,0.249,1.38,0.747,1.885c0.497,0.507,1.139,0.759,1.923,0.759h6.989c1.047-0.025,2.028-0.238,2.944-0.642
								c0.916-0.399,1.714-0.94,2.395-1.613c0.68-0.675,1.217-1.465,1.609-2.372c0.393-0.906,0.589-1.865,0.589-2.877
								c0-1.035-0.209-2.016-0.628-2.938C16.737,13.484,16.174,12.681,15.467,11.994z M51.887,16.583v-2.878
								c-2.264,1.372-3.271,0.182-3.271,0.182v2.696c0,0.897,0.732,1.622,1.636,1.622C51.154,18.205,51.887,17.48,51.887,16.583z
								 M66.134,1.039l-3.575-1.005c-0.177-0.049-0.344-0.032-0.501,0.054c-0.158,0.086-0.26,0.216-0.312,0.391
								c-0.051,0.174-0.038,0.391,0.049,0.544l0.608,1.087L51.575,8.763c0,0-1.13,0.619-1.771,0.971l-0.609,0.333
								c-0.642,0.352-0.878,1.147-0.525,1.778c0.352,0.632,1.158,0.858,1.8,0.507l0.609-0.334c0.642-0.352,1.772-0.97,1.772-0.97
								l10.826-6.652l0.608,1.088c0.085,0.154,0.263,0.281,0.439,0.332c0.177,0.049,0.344,0.031,0.5-0.055
								c0.156-0.085,0.26-0.215,0.312-0.391l1.043-3.533c0.052-0.175,0.035-0.339-0.051-0.493
								C66.442,1.189,66.311,1.088,66.134,1.039z M85.152,8.883c-0.879-0.868-1.891-1.562-3.041-2.081
								c-1.152-0.518-2.355-0.777-3.611-0.777c-1.283,0-2.501,0.258-3.652,0.777c-1.153,0.519-2.159,1.211-3.022,2.081
								c-0.863,0.869-1.552,1.873-2.062,3.013c-0.51,1.143-0.766,2.321-0.766,3.542c0,1.244,0.254,2.449,0.766,3.615
								c0.51,1.166,1.204,2.184,2.081,3.053c0.877,0.867,1.892,1.557,3.042,2.062c1.152,0.505,2.355,0.729,3.61,0.683
								c0.968-0.025,1.885-0.148,2.75-0.367c0.86-0.223,1.646-0.617,2.354-1.188c0.391-0.414,0.621-0.868,0.688-1.362
								c0.064-0.49,0-0.951-0.197-1.379c-0.197-0.429-0.498-0.783-0.904-1.07c-0.404-0.282-0.883-0.438-1.432-0.467
								c-0.289,0-0.543,0.039-0.765,0.117c-0.224,0.078-0.445,0.168-0.667,0.271c-0.224,0.104-0.478,0.193-0.765,0.271
								c-0.289,0.077-0.643,0.116-1.063,0.116c-1.517,0-2.708-0.738-3.57-2.217h10.441c0.76,0.025,1.395-0.156,1.906-0.545
								c0.51-0.389,0.766-0.92,0.766-1.594c0-1.246-0.264-2.433-0.787-3.559S86.029,9.752,85.152,8.883z M74.926,13.258
								c0.443-0.805,0.962-1.368,1.551-1.691c0.59-0.325,1.262-0.487,2.021-0.487c0.734,0,1.4,0.163,2.002,0.487
								c0.604,0.323,1.126,0.886,1.57,1.691H74.926z M63.881,16.583V7.175c-0.614-0.336-1.09-0.85-1.09-0.85
								s-0.896,0.592-2.18,1.448v8.812c0,0.897,0.733,1.622,1.636,1.622C63.15,18.207,63.881,17.48,63.881,16.583z M57.884,16.583
								V9.595c-1.113,0.748-2.262,1.525-3.272,2.22v4.771c0,0.896,0.733,1.622,1.637,1.622
								C57.152,18.207,57.884,17.48,57.884,16.583z M105.703,16.756c-0.287-0.619-0.686-1.211-1.195-1.77
								c-0.51-0.557-1.111-1.004-1.805-1.34c-0.694-0.338-1.447-0.506-2.258-0.506h-4.438c-0.313,0-0.582-0.101-0.805-0.292
								c-0.224-0.195-0.336-0.475-0.336-0.837c0-0.336,0.112-0.597,0.334-0.778c0.223-0.181,0.491-0.271,0.805-0.271h6.754
								c0.627,0,1.197-0.254,1.707-0.758c0.513-0.505,0.769-1.095,0.769-1.77c0-0.595-0.235-1.159-0.709-1.691
								c-0.471-0.53-1.06-0.797-1.767-0.797h-6.985c-0.838,0.026-1.61,0.201-2.315,0.525c-0.709,0.325-1.324,0.758-1.847,1.302
								c-0.524,0.544-0.938,1.18-1.237,1.905c-0.301,0.726-0.449,1.477-0.449,2.255c0,0.778,0.144,1.5,0.433,2.176
								c0.287,0.677,0.688,1.299,1.194,1.865c0.513,0.569,1.113,1.02,1.808,1.342c0.692,0.324,1.435,0.486,2.22,0.486h4.317
								c0.705,0,1.062,0.35,1.062,1.049c0,0.621-0.354,0.936-1.062,0.936H92.67c-0.682,0.023-1.256,0.305-1.727,0.837
								c-0.471,0.526-0.707,1.119-0.707,1.769c0,0.699,0.25,1.282,0.748,1.75c0.494,0.469,1.084,0.699,1.764,0.699h7.225
								c0.916,0,1.74-0.148,2.473-0.445c0.734-0.299,1.373-0.705,1.926-1.227c0.551-0.521,0.986-1.152,1.313-1.902
								c0.328-0.754,0.479-1.559,0.453-2.412C106.137,18.079,105.992,17.377,105.703,16.756z"/>
						</defs>
						<clipPath id="SVGID_2_">
							<use xlink:href="#SVGID_1_"  overflow="visible"/>
						</clipPath>
						<rect x="47.285" y="-1.122" clip-path="url(#SVGID_2_)" fill="#5867C2" width="19.808" height="19.923"/>
					</g>
				</g>
			</g>
		</g>
		<g>
			<g>
				<g>
					<g>
						<defs>
							<path id="SVGID_3_" d="M63.983,19.907c-0.037,0-13.711-0.003-15.687-0.003c-0.831-0.416-1.509-1.084-1.932-1.903V2.682
								c-0.053-0.726-0.321-1.334-0.804-1.829c-0.485-0.493-1.08-0.738-1.787-0.738c-0.706,0.026-1.296,0.271-1.767,0.738
								c-0.47,0.466-0.746,1.024-0.824,1.672V18.04c0,0.907,0.176,1.776,0.53,2.606s0.837,1.556,1.453,2.176
								c0.615,0.623,1.327,1.121,2.14,1.498c0.811,0.375,1.675,0.563,2.591,0.563h16.362c0.68-0.104,1.236-0.396,1.667-0.876
								c0.432-0.479,0.649-1.028,0.649-1.647c-0.026-0.701-0.293-1.285-0.805-1.752C65.258,20.139,64.662,19.907,63.983,19.907z
								 M36.41,9.155c-0.745-0.842-1.635-1.536-2.668-2.081c-1.035-0.545-2.14-0.881-3.317-1.011
								c-0.184-0.025-0.361-0.039-0.531-0.039h-0.568c-1.962,0-3.717,0.519-5.261,1.556c-1.545,1.037-2.696,2.398-3.455,4.083
								c-0.262,0.596-0.465,1.206-0.609,1.828s-0.216,1.271-0.216,1.942c0,0.67,0.071,1.32,0.216,1.941
								c0.144,0.622,0.347,1.23,0.609,1.829c0.759,1.657,1.91,3.014,3.455,4.063c1.543,1.051,3.298,1.572,5.261,1.572
								c0.758,0,1.478-0.076,2.159-0.23c0.653-0.155,1.295-0.375,1.923-0.662c0.104-0.051,0.209-0.108,0.314-0.174
								c0.105-0.063,0.223-0.123,0.354-0.176c0.549,0.83,1.282,1.242,2.199,1.242c0.653,0,1.242-0.242,1.766-0.738
								c0.524-0.488,0.786-1.086,0.786-1.787v-6.881c0-1.191-0.216-2.326-0.648-3.403C37.747,10.957,37.158,9.997,36.41,9.155z
								 M33.329,17.166c-0.235,0.531-0.549,0.991-0.942,1.381c-0.393,0.389-0.858,0.693-1.394,0.913
								c-0.537,0.222-1.107,0.331-1.707,0.331c-0.55,0-1.087-0.118-1.609-0.352c-0.525-0.231-0.988-0.545-1.394-0.936
								c-0.406-0.388-0.733-0.847-0.982-1.381c-0.249-0.527-0.373-1.094-0.373-1.688c0-0.569,0.118-1.123,0.353-1.652
								c0.235-0.53,0.556-0.998,0.962-1.399c0.405-0.402,0.871-0.719,1.395-0.953c0.523-0.233,1.072-0.351,1.649-0.351
								c0.575,0,1.132,0.117,1.668,0.351c0.537,0.233,1.007,0.551,1.412,0.953c0.406,0.401,0.727,0.869,0.963,1.399
								c0.236,0.529,0.354,1.083,0.354,1.652C33.683,16.059,33.565,16.632,33.329,17.166z M15.467,11.994
								c-0.706-0.687-1.511-1.226-2.414-1.614c-0.902-0.388-1.839-0.583-2.807-0.583H7.577c-0.629,0-1.158-0.215-1.59-0.642
								C5.554,8.728,5.324,8.216,5.299,7.619c0.026-0.673,0.254-1.237,0.688-1.69c0.432-0.454,0.962-0.681,1.59-0.681h6.988
								c0.759,0,1.386-0.246,1.885-0.739c0.496-0.492,0.745-1.114,0.745-1.866c-0.053-0.751-0.327-1.38-0.824-1.886
								C15.873,0.251,15.271,0,14.565,0H7.577C6.53,0,5.548,0.213,4.632,0.641c-0.916,0.427-1.72,0.99-2.414,1.691
								c-0.693,0.7-1.237,1.504-1.63,2.411C0.194,5.65,0,6.583,0,7.542c0,1.063,0.209,2.048,0.628,2.956
								c0.419,0.908,0.975,1.691,1.669,2.352c0.693,0.662,1.498,1.188,2.414,1.576c0.916,0.387,1.872,0.596,2.867,0.62h2.708
								c0.6,0.024,1.132,0.253,1.59,0.681c0.458,0.431,0.687,0.967,0.687,1.613c0,0.622-0.235,1.154-0.706,1.594
								c-0.472,0.442-1.007,0.662-1.609,0.662h-6.99c-0.759,0-1.394,0.26-1.904,0.775C0.842,20.893,0.588,21.5,0.588,22.2
								c0,0.752,0.249,1.38,0.747,1.885c0.497,0.507,1.139,0.759,1.923,0.759h6.989c1.047-0.025,2.028-0.238,2.944-0.642
								c0.916-0.399,1.714-0.94,2.395-1.613c0.68-0.675,1.217-1.465,1.609-2.372c0.393-0.906,0.589-1.865,0.589-2.877
								c0-1.035-0.209-2.016-0.628-2.938C16.737,13.484,16.174,12.681,15.467,11.994z M51.887,16.583v-2.878
								c-2.264,1.372-3.271,0.182-3.271,0.182v2.696c0,0.897,0.732,1.622,1.636,1.622C51.154,18.205,51.887,17.48,51.887,16.583z
								 M66.134,1.039l-3.575-1.005c-0.177-0.049-0.344-0.032-0.501,0.054c-0.158,0.086-0.26,0.216-0.312,0.391
								c-0.051,0.174-0.038,0.391,0.049,0.544l0.608,1.087L51.575,8.763c0,0-1.13,0.619-1.771,0.971l-0.609,0.333
								c-0.642,0.352-0.878,1.147-0.525,1.778c0.352,0.632,1.158,0.858,1.8,0.507l0.609-0.334c0.642-0.352,1.772-0.97,1.772-0.97
								l10.826-6.652l0.608,1.088c0.085,0.154,0.263,0.281,0.439,0.332c0.177,0.049,0.344,0.031,0.5-0.055
								c0.156-0.085,0.26-0.215,0.312-0.391l1.043-3.533c0.052-0.175,0.035-0.339-0.051-0.493
								C66.442,1.189,66.311,1.088,66.134,1.039z M85.152,8.883c-0.879-0.868-1.891-1.562-3.041-2.081
								c-1.152-0.518-2.355-0.777-3.611-0.777c-1.283,0-2.501,0.258-3.652,0.777c-1.153,0.519-2.159,1.211-3.022,2.081
								c-0.863,0.869-1.552,1.873-2.062,3.013c-0.51,1.143-0.766,2.321-0.766,3.542c0,1.244,0.254,2.449,0.766,3.615
								c0.51,1.166,1.204,2.184,2.081,3.053c0.877,0.867,1.892,1.557,3.042,2.062c1.152,0.505,2.355,0.729,3.61,0.683
								c0.968-0.025,1.885-0.148,2.75-0.367c0.86-0.223,1.646-0.617,2.354-1.188c0.391-0.414,0.621-0.868,0.688-1.362
								c0.064-0.49,0-0.951-0.197-1.379c-0.197-0.429-0.498-0.783-0.904-1.07c-0.404-0.282-0.883-0.438-1.432-0.467
								c-0.289,0-0.543,0.039-0.765,0.117c-0.224,0.078-0.445,0.168-0.667,0.271c-0.224,0.104-0.478,0.193-0.765,0.271
								c-0.289,0.077-0.643,0.116-1.063,0.116c-1.517,0-2.708-0.738-3.57-2.217h10.441c0.76,0.025,1.395-0.156,1.906-0.545
								c0.51-0.389,0.766-0.92,0.766-1.594c0-1.246-0.264-2.433-0.787-3.559S86.029,9.752,85.152,8.883z M74.926,13.258
								c0.443-0.805,0.962-1.368,1.551-1.691c0.59-0.325,1.262-0.487,2.021-0.487c0.734,0,1.4,0.163,2.002,0.487
								c0.604,0.323,1.126,0.886,1.57,1.691H74.926z M63.881,16.583V7.175c-0.614-0.336-1.09-0.85-1.09-0.85
								s-0.896,0.592-2.18,1.448v8.812c0,0.897,0.733,1.622,1.636,1.622C63.15,18.207,63.881,17.48,63.881,16.583z M57.884,16.583
								V9.595c-1.113,0.748-2.262,1.525-3.272,2.22v4.771c0,0.896,0.733,1.622,1.637,1.622
								C57.152,18.207,57.884,17.48,57.884,16.583z M105.703,16.756c-0.287-0.619-0.686-1.211-1.195-1.77
								c-0.51-0.557-1.111-1.004-1.805-1.34c-0.694-0.338-1.447-0.506-2.258-0.506h-4.438c-0.313,0-0.582-0.101-0.805-0.292
								c-0.224-0.195-0.336-0.475-0.336-0.837c0-0.336,0.112-0.597,0.334-0.778c0.223-0.181,0.491-0.271,0.805-0.271h6.754
								c0.627,0,1.197-0.254,1.707-0.758c0.513-0.505,0.769-1.095,0.769-1.77c0-0.595-0.235-1.159-0.709-1.691
								c-0.471-0.53-1.06-0.797-1.767-0.797h-6.985c-0.838,0.026-1.61,0.201-2.315,0.525c-0.709,0.325-1.324,0.758-1.847,1.302
								c-0.524,0.544-0.938,1.18-1.237,1.905c-0.301,0.726-0.449,1.477-0.449,2.255c0,0.778,0.144,1.5,0.433,2.176
								c0.287,0.677,0.688,1.299,1.194,1.865c0.513,0.569,1.113,1.02,1.808,1.342c0.692,0.324,1.435,0.486,2.22,0.486h4.317
								c0.705,0,1.062,0.35,1.062,1.049c0,0.621-0.354,0.936-1.062,0.936H92.67c-0.682,0.023-1.256,0.305-1.727,0.837
								c-0.471,0.526-0.707,1.119-0.707,1.769c0,0.699,0.25,1.282,0.748,1.75c0.494,0.469,1.084,0.699,1.764,0.699h7.225
								c0.916,0,1.74-0.148,2.473-0.445c0.734-0.299,1.373-0.705,1.926-1.227c0.551-0.521,0.986-1.152,1.313-1.902
								c0.328-0.754,0.479-1.559,0.453-2.412C106.137,18.079,105.992,17.377,105.703,16.756z"/>
						</defs>
						<clipPath id="SVGID_4_">
							<use xlink:href="#SVGID_3_"  overflow="visible"/>
						</clipPath>
						<polygon clip-path="url(#SVGID_4_)" fill="#364396" points="46.433,-2.065 46.834,15.438 46.834,17.803 47.285,19.007 
							48.303,19.395 67.092,19.693 67.958,21.887 67.742,24.883 60.61,26.874 -16.06,32.463 -10.991,-9.154 						"/>
					</g>
				</g>
			</g>
		</g>
		<g>
			<g>
				<g>
					<g>
						<defs>
							<path id="SVGID_5_" d="M63.983,19.907c-0.037,0-13.711-0.003-15.687-0.003c-0.831-0.416-1.509-1.084-1.932-1.903V2.682
								c-0.053-0.726-0.321-1.334-0.804-1.829c-0.485-0.493-1.08-0.738-1.787-0.738c-0.706,0.026-1.296,0.271-1.767,0.738
								c-0.47,0.466-0.746,1.024-0.824,1.672V18.04c0,0.907,0.176,1.776,0.53,2.606s0.837,1.556,1.453,2.176
								c0.615,0.623,1.327,1.121,2.14,1.498c0.811,0.375,1.675,0.563,2.591,0.563h16.362c0.68-0.104,1.236-0.396,1.667-0.876
								c0.432-0.479,0.649-1.028,0.649-1.647c-0.026-0.701-0.293-1.285-0.805-1.752C65.258,20.139,64.662,19.907,63.983,19.907z
								 M36.41,9.155c-0.745-0.842-1.635-1.536-2.668-2.081c-1.035-0.545-2.14-0.881-3.317-1.011
								c-0.184-0.025-0.361-0.039-0.531-0.039h-0.568c-1.962,0-3.717,0.519-5.261,1.556c-1.545,1.037-2.696,2.398-3.455,4.083
								c-0.262,0.596-0.465,1.206-0.609,1.828s-0.216,1.271-0.216,1.942c0,0.67,0.071,1.32,0.216,1.941
								c0.144,0.622,0.347,1.23,0.609,1.829c0.759,1.657,1.91,3.014,3.455,4.063c1.543,1.051,3.298,1.572,5.261,1.572
								c0.758,0,1.478-0.076,2.159-0.23c0.653-0.155,1.295-0.375,1.923-0.662c0.104-0.051,0.209-0.108,0.314-0.174
								c0.105-0.063,0.223-0.123,0.354-0.176c0.549,0.83,1.282,1.242,2.199,1.242c0.653,0,1.242-0.242,1.766-0.738
								c0.524-0.488,0.786-1.086,0.786-1.787v-6.881c0-1.191-0.216-2.326-0.648-3.403C37.747,10.957,37.158,9.997,36.41,9.155z
								 M33.329,17.166c-0.235,0.531-0.549,0.991-0.942,1.381c-0.393,0.389-0.858,0.693-1.394,0.913
								c-0.537,0.222-1.107,0.331-1.707,0.331c-0.55,0-1.087-0.118-1.609-0.352c-0.525-0.231-0.988-0.545-1.394-0.936
								c-0.406-0.388-0.733-0.847-0.982-1.381c-0.249-0.527-0.373-1.094-0.373-1.688c0-0.569,0.118-1.123,0.353-1.652
								c0.235-0.53,0.556-0.998,0.962-1.399c0.405-0.402,0.871-0.719,1.395-0.953c0.523-0.233,1.072-0.351,1.649-0.351
								c0.575,0,1.132,0.117,1.668,0.351c0.537,0.233,1.007,0.551,1.412,0.953c0.406,0.401,0.727,0.869,0.963,1.399
								c0.236,0.529,0.354,1.083,0.354,1.652C33.683,16.059,33.565,16.632,33.329,17.166z M15.467,11.994
								c-0.706-0.687-1.511-1.226-2.414-1.614c-0.902-0.388-1.839-0.583-2.807-0.583H7.577c-0.629,0-1.158-0.215-1.59-0.642
								C5.554,8.728,5.324,8.216,5.299,7.619c0.026-0.673,0.254-1.237,0.688-1.69c0.432-0.454,0.962-0.681,1.59-0.681h6.988
								c0.759,0,1.386-0.246,1.885-0.739c0.496-0.492,0.745-1.114,0.745-1.866c-0.053-0.751-0.327-1.38-0.824-1.886
								C15.873,0.251,15.271,0,14.565,0H7.577C6.53,0,5.548,0.213,4.632,0.641c-0.916,0.427-1.72,0.99-2.414,1.691
								c-0.693,0.7-1.237,1.504-1.63,2.411C0.194,5.65,0,6.583,0,7.542c0,1.063,0.209,2.048,0.628,2.956
								c0.419,0.908,0.975,1.691,1.669,2.352c0.693,0.662,1.498,1.188,2.414,1.576c0.916,0.387,1.872,0.596,2.867,0.62h2.708
								c0.6,0.024,1.132,0.253,1.59,0.681c0.458,0.431,0.687,0.967,0.687,1.613c0,0.622-0.235,1.154-0.706,1.594
								c-0.472,0.442-1.007,0.662-1.609,0.662h-6.99c-0.759,0-1.394,0.26-1.904,0.775C0.842,20.893,0.588,21.5,0.588,22.2
								c0,0.752,0.249,1.38,0.747,1.885c0.497,0.507,1.139,0.759,1.923,0.759h6.989c1.047-0.025,2.028-0.238,2.944-0.642
								c0.916-0.399,1.714-0.94,2.395-1.613c0.68-0.675,1.217-1.465,1.609-2.372c0.393-0.906,0.589-1.865,0.589-2.877
								c0-1.035-0.209-2.016-0.628-2.938C16.737,13.484,16.174,12.681,15.467,11.994z M51.887,16.583v-2.878
								c-2.264,1.372-3.271,0.182-3.271,0.182v2.696c0,0.897,0.732,1.622,1.636,1.622C51.154,18.205,51.887,17.48,51.887,16.583z
								 M66.134,1.039l-3.575-1.005c-0.177-0.049-0.344-0.032-0.501,0.054c-0.158,0.086-0.26,0.216-0.312,0.391
								c-0.051,0.174-0.038,0.391,0.049,0.544l0.608,1.087L51.575,8.763c0,0-1.13,0.619-1.771,0.971l-0.609,0.333
								c-0.642,0.352-0.878,1.147-0.525,1.778c0.352,0.632,1.158,0.858,1.8,0.507l0.609-0.334c0.642-0.352,1.772-0.97,1.772-0.97
								l10.826-6.652l0.608,1.088c0.085,0.154,0.263,0.281,0.439,0.332c0.177,0.049,0.344,0.031,0.5-0.055
								c0.156-0.085,0.26-0.215,0.312-0.391l1.043-3.533c0.052-0.175,0.035-0.339-0.051-0.493
								C66.442,1.189,66.311,1.088,66.134,1.039z M85.152,8.883c-0.879-0.868-1.891-1.562-3.041-2.081
								c-1.152-0.518-2.355-0.777-3.611-0.777c-1.283,0-2.501,0.258-3.652,0.777c-1.153,0.519-2.159,1.211-3.022,2.081
								c-0.863,0.869-1.552,1.873-2.062,3.013c-0.51,1.143-0.766,2.321-0.766,3.542c0,1.244,0.254,2.449,0.766,3.615
								c0.51,1.166,1.204,2.184,2.081,3.053c0.877,0.867,1.892,1.557,3.042,2.062c1.152,0.505,2.355,0.729,3.61,0.683
								c0.968-0.025,1.885-0.148,2.75-0.367c0.86-0.223,1.646-0.617,2.354-1.188c0.391-0.414,0.621-0.868,0.688-1.362
								c0.064-0.49,0-0.951-0.197-1.379c-0.197-0.429-0.498-0.783-0.904-1.07c-0.404-0.282-0.883-0.438-1.432-0.467
								c-0.289,0-0.543,0.039-0.765,0.117c-0.224,0.078-0.445,0.168-0.667,0.271c-0.224,0.104-0.478,0.193-0.765,0.271
								c-0.289,0.077-0.643,0.116-1.063,0.116c-1.517,0-2.708-0.738-3.57-2.217h10.441c0.76,0.025,1.395-0.156,1.906-0.545
								c0.51-0.389,0.766-0.92,0.766-1.594c0-1.246-0.264-2.433-0.787-3.559S86.029,9.752,85.152,8.883z M74.926,13.258
								c0.443-0.805,0.962-1.368,1.551-1.691c0.59-0.325,1.262-0.487,2.021-0.487c0.734,0,1.4,0.163,2.002,0.487
								c0.604,0.323,1.126,0.886,1.57,1.691H74.926z M63.881,16.583V7.175c-0.614-0.336-1.09-0.85-1.09-0.85
								s-0.896,0.592-2.18,1.448v8.812c0,0.897,0.733,1.622,1.636,1.622C63.15,18.207,63.881,17.48,63.881,16.583z M57.884,16.583
								V9.595c-1.113,0.748-2.262,1.525-3.272,2.22v4.771c0,0.896,0.733,1.622,1.637,1.622
								C57.152,18.207,57.884,17.48,57.884,16.583z M105.703,16.756c-0.287-0.619-0.686-1.211-1.195-1.77
								c-0.51-0.557-1.111-1.004-1.805-1.34c-0.694-0.338-1.447-0.506-2.258-0.506h-4.438c-0.313,0-0.582-0.101-0.805-0.292
								c-0.224-0.195-0.336-0.475-0.336-0.837c0-0.336,0.112-0.597,0.334-0.778c0.223-0.181,0.491-0.271,0.805-0.271h6.754
								c0.627,0,1.197-0.254,1.707-0.758c0.513-0.505,0.769-1.095,0.769-1.77c0-0.595-0.235-1.159-0.709-1.691
								c-0.471-0.53-1.06-0.797-1.767-0.797h-6.985c-0.838,0.026-1.61,0.201-2.315,0.525c-0.709,0.325-1.324,0.758-1.847,1.302
								c-0.524,0.544-0.938,1.18-1.237,1.905c-0.301,0.726-0.449,1.477-0.449,2.255c0,0.778,0.144,1.5,0.433,2.176
								c0.287,0.677,0.688,1.299,1.194,1.865c0.513,0.569,1.113,1.02,1.808,1.342c0.692,0.324,1.435,0.486,2.22,0.486h4.317
								c0.705,0,1.062,0.35,1.062,1.049c0,0.621-0.354,0.936-1.062,0.936H92.67c-0.682,0.023-1.256,0.305-1.727,0.837
								c-0.471,0.526-0.707,1.119-0.707,1.769c0,0.699,0.25,1.282,0.748,1.75c0.494,0.469,1.084,0.699,1.764,0.699h7.225
								c0.916,0,1.74-0.148,2.473-0.445c0.734-0.299,1.373-0.705,1.926-1.227c0.551-0.521,0.986-1.152,1.313-1.902
								c0.328-0.754,0.479-1.559,0.453-2.412C106.137,18.079,105.992,17.377,105.703,16.756z"/>
						</defs>
						<clipPath id="SVGID_6_">
							<use xlink:href="#SVGID_5_"  overflow="visible"/>
						</clipPath>
						<polygon clip-path="url(#SVGID_6_)" fill="#364396" points="68.491,-1.122 68.491,10.164 67.958,16.241 68.491,21.975 
							71.542,25.986 89.922,27.534 105.121,28.795 107.021,22.203 107.654,10.279 105.697,2.597 						"/>
					</g>
				</g>
			</g>
		</g>
	</g>
</g>
<g id="Layer_2">
	<path fill="#5867C2" d="M126.904,5.81c-0.496-1.153-1.178-2.158-2.041-3.014c-0.863-0.855-1.879-1.529-3.041-2.021
		c-1.166-0.491-2.402-0.739-3.711-0.739h-6.869c-0.734,0-1.355,0.253-1.865,0.758c-0.512,0.505-0.766,1.122-0.766,1.848v19.713
		c0,0.728,0.254,1.342,0.766,1.849c0.51,0.506,1.131,0.758,1.865,0.758c0.732,0,1.354-0.252,1.863-0.758
		c0.512-0.507,0.768-1.121,0.768-1.849v-3.422h4.24c1.309,0,2.545-0.246,3.709-0.738s2.18-1.166,3.043-2.021
		s1.543-1.859,2.041-3.014c0.496-1.153,0.748-2.379,0.748-3.674C127.652,8.189,127.4,6.964,126.904,5.81z M122.055,11.138
		c-0.221,0.505-0.529,0.952-0.924,1.341c-0.391,0.39-0.85,0.694-1.373,0.914c-0.523,0.224-1.07,0.332-1.648,0.332h-4.236V5.248
		h4.236c0.576,0,1.125,0.11,1.648,0.33c0.525,0.22,0.984,0.525,1.373,0.914c0.395,0.389,0.703,0.842,0.924,1.361
		c0.223,0.52,0.336,1.063,0.336,1.633C122.391,10.082,122.277,10.632,122.055,11.138z"/>
	<path fill="#5867C2" d="M139.133,6.141c-0.172,0-0.359,0-0.568,0c-1.965,0-3.717,0.519-5.262,1.555
		c-1.543,1.037-2.695,2.398-3.453,4.083c-0.264,0.597-0.467,1.206-0.605,1.827c-0.146,0.623-0.219,1.271-0.219,1.944
		s0.07,1.32,0.219,1.942c0.145,0.621,0.344,1.23,0.605,1.828c0.758,1.658,1.91,3.014,3.453,4.063
		c1.545,1.051,3.297,1.574,5.262,1.574c0.762,0,1.479-0.078,2.16-0.232c0.652-0.156,1.293-0.375,1.92-0.662
		c0.105-0.051,0.211-0.107,0.316-0.174c0.104-0.063,0.223-0.123,0.354-0.175c0.549,0.829,1.281,1.243,2.199,1.243
		c0.654,0,1.242-0.246,1.77-0.739c0.521-0.489,0.783-1.087,0.783-1.786v-6.883c0-1.191-0.217-2.326-0.646-3.402
		c-0.434-1.076-1.021-2.035-1.768-2.878c-0.748-0.842-1.637-1.536-2.67-2.08c-1.031-0.544-2.139-0.881-3.316-1.012
		C139.48,6.153,139.303,6.141,139.133,6.141z M136.916,19.557c-0.525-0.234-0.99-0.545-1.395-0.936
		c-0.406-0.389-0.734-0.848-0.982-1.381c-0.248-0.529-0.375-1.094-0.375-1.689c0-0.57,0.119-1.121,0.357-1.652
		c0.23-0.528,0.555-0.998,0.961-1.398c0.404-0.4,0.869-0.718,1.393-0.952c0.525-0.233,1.074-0.35,1.652-0.35
		c0.574,0,1.129,0.116,1.668,0.35c0.535,0.233,1.006,0.551,1.41,0.952c0.406,0.402,0.729,0.87,0.963,1.398
		c0.232,0.531,0.354,1.082,0.354,1.652c0,0.622-0.117,1.199-0.354,1.73c-0.232,0.531-0.549,0.992-0.943,1.381
		c-0.391,0.391-0.854,0.693-1.395,0.912c-0.535,0.223-1.105,0.33-1.705,0.33C137.973,19.904,137.436,19.789,136.916,19.557z"/>
	<path fill="#5867C2" d="M151.244,0.97c-0.473,0.466-0.744,1.024-0.822,1.671v15.513c0,0.908,0.176,1.777,0.527,2.604
		c0.354,0.829,0.838,1.558,1.451,2.179c0.615,0.623,1.33,1.121,2.143,1.498c0.811,0.375,1.674,0.563,2.59,0.563h0.551
		c0.68-0.104,1.236-0.396,1.668-0.874c0.436-0.479,0.648-1.028,0.648-1.651c-0.025-0.699-0.293-1.283-0.807-1.75
		c-0.508-0.469-1.105-0.699-1.785-0.699c-0.525,0-0.955-0.184-1.295-0.545s-0.51-0.805-0.51-1.322V2.797
		c-0.055-0.726-0.322-1.334-0.807-1.827c-0.48-0.493-1.08-0.739-1.787-0.739C152.305,0.257,151.715,0.502,151.244,0.97z"/>
</g>
</svg>
