<?xml version="1.0" encoding="utf-8"?>
<!-- Generator: Adobe Illustrator 16.0.0, SVG Export Plug-In . SVG Version: 6.00 Build 0)  -->
<!DOCTYPE svg PUBLIC "-//W3C//DTD SVG 1.1//EN" "http://www.w3.org/Graphics/SVG/1.1/DTD/svg11.dtd">
<svg version="1.1" id="Layer_1" xmlns="http://www.w3.org/2000/svg" xmlns:xlink="http://www.w3.org/1999/xlink" x="0px" y="0px"
	 width="142px" height="18.95px" viewBox="0 0 142 18.95" enable-background="new 0 0 142 18.95" xml:space="preserve">
<g>
	<defs>
		<path id="SVGID_1_" d="M9.482,0.004C4.246,0.004,0,4.239,0,9.464c0,5.223,4.245,9.459,9.482,9.459s9.482-4.236,9.482-9.459
			C18.965,4.239,14.719,0.004,9.482,0.004z M9.482,13.848c-2.427,0-4.394-1.963-4.394-4.384c0-2.421,1.967-4.384,4.394-4.384
			c2.426,0,4.395,1.962,4.395,4.384C13.877,11.885,11.909,13.848,9.482,13.848z M55.41,2.945c-0.876-0.869-1.884-1.564-3.031-2.083
			c-1.148-0.52-2.348-0.778-3.6-0.778c-1.279,0-2.493,0.258-3.64,0.778c-1.149,0.519-2.151,1.212-3.012,2.083
			c-0.86,0.871-1.547,1.875-2.055,3.017c-0.508,1.145-0.763,2.324-0.763,3.546c0,1.246,0.253,2.453,0.763,3.619
			c0.508,1.169,1.2,2.188,2.074,3.059c0.874,0.867,1.886,1.559,3.032,2.065c1.147,0.505,2.347,0.729,3.598,0.684
			c0.964-0.025,1.879-0.149,2.741-0.367c0.857-0.224,1.64-0.618,2.347-1.191c0.389-0.414,0.619-0.869,0.685-1.362
			c0.064-0.492,0-0.954-0.197-1.381c-0.197-0.429-0.496-0.784-0.901-1.072c-0.402-0.281-0.88-0.438-1.427-0.469
			c-0.289,0-0.541,0.039-0.762,0.118c-0.223,0.079-0.444,0.169-0.665,0.272c-0.223,0.104-0.476,0.194-0.762,0.271
			c-0.288,0.076-0.641,0.115-1.06,0.115c-1.512,0-2.699-0.74-3.558-2.219h10.407c0.757,0.024,1.39-0.158,1.9-0.546
			c0.508-0.391,0.763-0.922,0.763-1.597c0-1.247-0.263-2.437-0.785-3.564C56.981,4.817,56.284,3.816,55.41,2.945z M45.218,7.325
			c0.442-0.805,0.959-1.368,1.545-1.692c0.588-0.325,1.258-0.487,2.015-0.487c0.731,0,1.395,0.163,1.996,0.487
			c0.601,0.324,1.123,0.888,1.565,1.692H45.218z M36.921,0.235c-1.277-0.593-2.794-0.043-3.389,1.23
			c-0.373,0.797-2.646,5.412-4.392,9.143v0.009c-1.745-3.735-4.018-8.353-4.391-9.151c-0.596-1.274-2.112-1.825-3.389-1.231
			c-1.276,0.594-1.829,2.109-1.233,3.383c0.595,1.274,5.872,12.569,6.467,13.843c0.468,1.002,1.505,1.557,2.546,1.46
			c0.054-0.005,0.071-0.01,0.075-0.014c-0.024-0.001-0.049,0.001-0.074-0.001c-0.23-0.021,0.094-0.016,0.074,0.001
			c1.017,0.063,2.016-0.483,2.472-1.46c0.596-1.273,5.872-12.559,6.468-13.832C38.75,2.342,38.198,0.828,36.921,0.235z
			 M86.728,9.058C86.219,8.5,85.62,8.051,84.929,7.716c-0.691-0.339-1.442-0.507-2.25-0.507h-4.424
			c-0.313,0-0.581-0.102-0.802-0.293c-0.224-0.196-0.336-0.476-0.336-0.838c0-0.337,0.112-0.598,0.334-0.779
			s0.489-0.272,0.802-0.272h6.731c0.625,0,1.193-0.254,1.702-0.758c0.51-0.506,0.766-1.097,0.766-1.772
			c0-0.596-0.233-1.161-0.707-1.693c-0.47-0.531-1.057-0.799-1.761-0.799h-6.963c-0.835,0.027-1.604,0.202-2.306,0.526
			c-0.707,0.325-1.32,0.759-1.843,1.304c-0.521,0.544-0.935,1.182-1.231,1.908c-0.3,0.727-0.448,1.479-0.448,2.258
			c0,0.779,0.146,1.503,0.433,2.179c0.286,0.678,0.686,1.301,1.189,1.868c0.513,0.568,1.109,1.021,1.804,1.344
			c0.688,0.325,1.428,0.486,2.211,0.486h4.303c0.704,0,1.06,0.351,1.06,1.05c0,0.623-0.354,0.938-1.06,0.938h-7.204
			c-0.679,0.024-1.252,0.306-1.721,0.838c-0.47,0.527-0.704,1.121-0.704,1.771c0,0.701,0.248,1.286,0.745,1.753
			c0.492,0.47,1.08,0.701,1.759,0.701h7.199c0.913,0,1.734-0.149,2.464-0.447c0.732-0.298,1.37-0.704,1.922-1.229
			c0.548-0.521,0.982-1.153,1.309-1.903c0.327-0.755,0.478-1.561,0.452-2.415c-0.002-0.778-0.147-1.481-0.436-2.104
			C87.633,10.209,87.235,9.616,86.728,9.058z M127.104,2.945c-0.876-0.869-1.885-1.564-3.031-2.083
			c-1.148-0.52-2.348-0.778-3.6-0.778c-1.279,0-2.493,0.258-3.639,0.778c-1.151,0.519-2.153,1.212-3.013,2.083
			c-0.86,0.871-1.548,1.875-2.056,3.017c-0.509,1.145-0.763,2.324-0.763,3.546c0,1.246,0.252,2.453,0.763,3.619
			c0.508,1.169,1.2,2.188,2.074,3.059c0.875,0.867,1.886,1.559,3.032,2.065c1.148,0.505,2.347,0.729,3.599,0.684
			c0.964-0.025,1.878-0.149,2.739-0.367c0.858-0.224,1.641-0.618,2.348-1.191c0.389-0.414,0.619-0.869,0.686-1.362
			c0.063-0.492,0-0.954-0.197-1.381c-0.196-0.429-0.496-0.784-0.902-1.072c-0.4-0.281-0.879-0.438-1.426-0.469
			c-0.289,0-0.541,0.039-0.763,0.118c-0.223,0.079-0.444,0.169-0.665,0.272c-0.222,0.104-0.477,0.194-0.763,0.271
			c-0.287,0.076-0.641,0.115-1.059,0.115c-1.512,0-2.698-0.74-3.559-2.219h10.406c0.758,0.024,1.392-0.158,1.9-0.546
			c0.509-0.391,0.764-0.922,0.764-1.597c0-1.247-0.264-2.437-0.785-3.564C128.676,4.817,127.979,3.816,127.104,2.945z
			 M116.911,7.325c0.441-0.805,0.96-1.368,1.546-1.692c0.589-0.325,1.258-0.487,2.015-0.487c0.732,0,1.396,0.163,1.995,0.487
			c0.603,0.324,1.123,0.888,1.565,1.692H116.911z M67.959,0.003H67.4c-0.929,0-1.804,0.186-2.625,0.556
			c-0.824,0.372-1.548,0.864-2.172,1.479c-0.622,0.614-1.113,1.333-1.471,2.153c-0.356,0.816-0.535,1.674-0.535,2.571v9.781
			c0.079,0.641,0.354,1.191,0.833,1.649c0.477,0.465,1.075,0.706,1.789,0.73c0.717,0,1.326-0.242,1.812-0.73
			c0.492-0.485,0.594-0.859,0.649-1.576v-9.69c0-0.51,0.341-1.116,0.686-1.472c0.345-0.356,0.781-0.538,1.313-0.538
			c0.688,0,1.295-0.228,1.809-0.69c0.521-0.462,0.793-1.038,0.818-1.729c0-0.615-0.215-1.156-0.658-1.63
			C69.212,0.395,68.647,0.106,67.959,0.003z M141.344,0.867c-0.438-0.472-1.002-0.761-1.691-0.863h-0.559
			c-0.928,0-1.804,0.186-2.625,0.556c-0.824,0.372-1.548,0.864-2.172,1.479c-0.621,0.614-1.113,1.333-1.471,2.153
			c-0.357,0.816-0.534,1.674-0.534,2.571v9.781c0.078,0.641,0.354,1.191,0.833,1.649c0.477,0.465,1.074,0.706,1.788,0.73
			c0.717,0,1.326-0.242,1.813-0.73c0.492-0.485,0.594-0.859,0.649-1.576v-9.69c0-0.51,0.34-1.116,0.686-1.472
			c0.345-0.356,0.78-0.538,1.313-0.538c0.688,0,1.295-0.228,1.811-0.69c0.52-0.462,0.791-1.038,0.816-1.729
			C142,1.882,141.786,1.341,141.344,0.867z M106.29,2.945c-0.877-0.869-1.884-1.564-3.032-2.083
			c-1.147-0.52-2.347-0.778-3.599-0.778c-1.278,0-2.492,0.258-3.64,0.778c-1.15,0.519-2.152,1.212-3.012,2.083
			c-0.861,0.871-1.548,1.875-2.055,3.017c-0.509,1.145-0.764,2.324-0.764,3.546c0,1.246,0.253,2.453,0.764,3.619
			c0.507,1.169,1.199,2.188,2.073,3.059c0.874,0.867,1.886,1.559,3.032,2.065c1.147,0.505,2.348,0.729,3.598,0.684
			c0.964-0.025,1.879-0.149,2.741-0.367c0.856-0.224,1.64-0.618,2.347-1.191c0.39-0.414,0.619-0.869,0.685-1.362
			c0.064-0.492,0-0.954-0.195-1.381c-0.197-0.429-0.497-0.784-0.901-1.072c-0.402-0.281-0.88-0.438-1.428-0.469
			c-0.287,0-0.541,0.039-0.762,0.118c-0.223,0.079-0.443,0.169-0.665,0.272c-0.224,0.104-0.477,0.194-0.763,0.271
			c-0.288,0.076-0.641,0.115-1.06,0.115c-1.513,0-2.699-0.74-3.558-2.219h10.406c0.757,0.024,1.39-0.158,1.9-0.546
			c0.507-0.391,0.762-0.922,0.762-1.597c0-1.247-0.262-2.437-0.784-3.564C107.86,4.817,107.163,3.816,106.29,2.945z M96.098,7.325
			c0.441-0.805,0.958-1.368,1.546-1.692c0.587-0.325,1.257-0.487,2.014-0.487c0.731,0,1.396,0.163,1.995,0.487
			c0.602,0.324,1.123,0.888,1.565,1.692H96.098z"/>
	</defs>
	<clipPath id="SVGID_2_">
		<use xlink:href="#SVGID_1_"  overflow="visible"/>
	</clipPath>
	
		<rect x="-2.032" y="-3.26" clip-path="url(#SVGID_2_)" fill-rule="evenodd" clip-rule="evenodd" fill="#364396" width="73.032" height="27.272"/>
	
		<rect x="71.539" y="-2.322" clip-path="url(#SVGID_2_)" fill-rule="evenodd" clip-rule="evenodd" fill="#5867C2" width="72.353" height="23.617"/>
</g>
</svg>
