<?xml version="1.0" encoding="utf-8"?>
<!-- Generator: Adobe Illustrator 16.0.0, SVG Export Plug-In . SVG Version: 6.00 Build 0)  -->
<!DOCTYPE svg PUBLIC "-//W3C//DTD SVG 1.1//EN" "http://www.w3.org/Graphics/SVG/1.1/DTD/svg11.dtd">
<svg version="1.1" xmlns="http://www.w3.org/2000/svg" xmlns:xlink="http://www.w3.org/1999/xlink" x="0px" y="0px" width="150px"
	 height="24.84px" viewBox="0 0 150 24.84" enable-background="new 0 0 150 24.84" xml:space="preserve">
<g id="Layer_1">
	<g>
		<defs>
			<path id="SVGID_1_" d="M12.578-0.002C5.631-0.002,0,5.555,0,12.411c0,6.856,5.631,12.414,12.578,12.414
				s12.578-5.558,12.578-12.414C25.155,5.555,19.524-0.002,12.578-0.002z M12.578,19.767c-4.117,0-7.454-3.294-7.454-7.356
				c0-4.063,3.337-7.356,7.454-7.356s7.453,3.293,7.453,7.356C20.031,16.473,16.694,19.767,12.578,19.767z M62.792,8.904
				c-0.882-0.866-1.897-1.558-3.052-2.076c-1.157-0.517-2.364-0.775-3.625-0.775c-1.288,0-2.51,0.257-3.666,0.775
				c-1.157,0.518-2.167,1.208-3.033,2.076c-0.867,0.868-1.559,1.87-2.07,3.006c-0.512,1.142-0.769,2.315-0.769,3.534
				c0,1.241,0.254,2.443,0.769,3.606c0.512,1.163,1.208,2.179,2.089,3.047c0.88,0.864,1.898,1.553,3.053,2.057
				c1.157,0.504,2.364,0.727,3.625,0.682c0.971-0.024,1.891-0.146,2.76-0.365c0.864-0.223,1.652-0.615,2.363-1.186
				c0.393-0.413,0.624-0.867,0.69-1.36c0.065-0.488,0-0.948-0.198-1.375c-0.199-0.428-0.5-0.781-0.908-1.068
				c-0.405-0.28-0.886-0.437-1.437-0.466c-0.29,0-0.545,0.039-0.768,0.117c-0.225,0.079-0.447,0.168-0.669,0.271
				c-0.225,0.104-0.479,0.193-0.768,0.271c-0.29,0.076-0.646,0.115-1.066,0.115c-1.523,0-2.719-0.737-3.584-2.212h10.481
				c0.763,0.025,1.4-0.156,1.914-0.544c0.511-0.388,0.768-0.918,0.768-1.59c0-1.243-0.265-2.429-0.79-3.552
				C64.375,10.77,63.672,9.772,62.792,8.904z M52.527,13.27c0.445-0.803,0.966-1.365,1.557-1.688
				c0.593-0.323,1.267-0.485,2.029-0.485c0.736,0,1.404,0.163,2.009,0.485c0.606,0.323,1.13,0.884,1.577,1.688H52.527z M75.43,5.974
				h-0.562c-0.935,0-1.816,0.184-2.644,0.553c-0.829,0.371-1.559,0.861-2.188,1.474c-0.626,0.611-1.121,1.329-1.481,2.144
				c-0.358,0.813-0.539,1.668-0.539,2.562v9.746c0.079,0.637,0.357,1.187,0.84,1.645c0.481,0.46,1.083,0.701,1.802,0.727
				c0.722,0,1.334-0.241,1.824-0.727c0.496-0.485,0.598-0.858,0.655-1.572v-9.655c0-0.509,0.343-1.111,0.69-1.466
				c0.346-0.357,0.786-0.537,1.322-0.537c0.693,0,1.304-0.227,1.822-0.688c0.524-0.458,0.798-1.033,0.823-1.722
				c0-0.613-0.216-1.152-0.662-1.624C76.692,6.364,76.125,6.076,75.43,5.974z M134.997,8.904c-0.882-0.866-1.898-1.558-3.052-2.076
				c-1.157-0.517-2.364-0.775-3.626-0.775c-1.287,0-2.51,0.257-3.666,0.775c-1.156,0.518-2.166,1.208-3.032,2.076
				c-0.867,0.868-1.559,1.87-2.07,3.006c-0.513,1.142-0.769,2.315-0.769,3.534c0,1.241,0.254,2.443,0.769,3.606
				c0.512,1.163,1.208,2.179,2.09,3.047c0.879,0.864,1.898,1.553,3.053,2.057c1.156,0.504,2.364,0.727,3.623,0.682
				c0.972-0.024,1.893-0.146,2.762-0.365c0.862-0.223,1.651-0.615,2.363-1.186c0.391-0.413,0.623-0.867,0.689-1.36
				c0.064-0.488,0-0.948-0.198-1.375c-0.198-0.428-0.499-0.781-0.908-1.068c-0.405-0.28-0.885-0.437-1.437-0.466
				c-0.29,0-0.545,0.039-0.768,0.117c-0.225,0.079-0.447,0.168-0.67,0.271c-0.224,0.104-0.479,0.193-0.768,0.271
				c-0.29,0.076-0.646,0.115-1.067,0.115c-1.522,0-2.718-0.737-3.583-2.212h10.48c0.763,0.025,1.4-0.156,1.913-0.544
				s0.769-0.918,0.769-1.59c0-1.243-0.265-2.429-0.79-3.552C136.579,10.77,135.878,9.772,134.997,8.904z M124.732,13.27
				c0.445-0.803,0.966-1.365,1.558-1.688s1.266-0.485,2.027-0.485c0.737,0,1.405,0.163,2.01,0.485
				c0.605,0.323,1.13,0.884,1.576,1.688H124.732z M94.333,14.993c-0.513-0.555-1.116-1-1.812-1.336
				c-0.697-0.337-1.453-0.505-2.267-0.505h-4.456c-0.313,0-0.584-0.101-0.808-0.292c-0.223-0.194-0.337-0.474-0.337-0.834
				c0-0.336,0.114-0.595,0.336-0.777c0.223-0.181,0.493-0.271,0.808-0.271h6.779c0.631,0,1.202-0.254,1.714-0.755
				c0.515-0.504,0.771-1.094,0.771-1.768c0-0.593-0.235-1.156-0.712-1.686c-0.473-0.529-1.063-0.795-1.773-0.795h-7.012
				C84.725,6,83.95,6.175,83.242,6.499c-0.712,0.324-1.329,0.756-1.854,1.298c-0.525,0.543-0.94,1.178-1.241,1.901
				c-0.303,0.724-0.451,1.473-0.451,2.249c0,0.777,0.146,1.498,0.436,2.172c0.288,0.675,0.69,1.296,1.198,1.861
				c0.516,0.567,1.117,1.017,1.815,1.338c0.694,0.323,1.439,0.485,2.229,0.485h4.333c0.707,0,1.065,0.35,1.065,1.047
				c0,0.62-0.355,0.934-1.065,0.934H82.45c-0.684,0.023-1.26,0.304-1.732,0.835c-0.474,0.525-0.71,1.116-0.71,1.765
				c0,0.697,0.25,1.278,0.751,1.745c0.495,0.468,1.088,0.698,1.77,0.698h7.252c0.92,0,1.747-0.148,2.482-0.444
				c0.737-0.298,1.378-0.703,1.935-1.225c0.553-0.521,0.988-1.149,1.318-1.897c0.329-0.752,0.48-1.556,0.454-2.406
				c-0.002-0.774-0.146-1.476-0.437-2.096C95.245,16.142,94.845,15.551,94.333,14.993z M149.338,6.834
				c-0.44-0.47-1.009-0.758-1.703-0.86h-0.562c-0.937,0-1.816,0.184-2.645,0.553c-0.829,0.371-1.559,0.861-2.188,1.474
				c-0.626,0.611-1.121,1.329-1.482,2.144c-0.357,0.813-0.537,1.668-0.537,2.562v9.746c0.079,0.637,0.356,1.187,0.839,1.645
				c0.481,0.46,1.084,0.701,1.802,0.727c0.723,0,1.335-0.241,1.825-0.727c0.495-0.485,0.597-0.858,0.654-1.572v-9.655
				c0-0.509,0.344-1.111,0.689-1.466c0.348-0.357,0.787-0.537,1.322-0.537c0.695,0,1.305-0.227,1.823-0.688
				c0.523-0.458,0.797-1.033,0.823-1.722C150,7.845,149.784,7.306,149.338,6.834z M114.035,8.904
				c-0.883-0.866-1.898-1.558-3.054-2.076c-1.157-0.517-2.364-0.775-3.624-0.775c-1.289,0-2.511,0.257-3.666,0.775
				c-1.158,0.518-2.168,1.208-3.033,2.076c-0.867,0.868-1.559,1.87-2.07,3.006c-0.513,1.142-0.769,2.315-0.769,3.534
				c0,1.241,0.254,2.443,0.769,3.606c0.512,1.163,1.208,2.179,2.089,3.047c0.881,0.864,1.898,1.553,3.054,2.057
				c1.156,0.504,2.364,0.727,3.624,0.682c0.972-0.024,1.891-0.146,2.76-0.365c0.863-0.223,1.652-0.615,2.363-1.186
				c0.394-0.413,0.624-0.867,0.69-1.36c0.064-0.488,0-0.948-0.197-1.375c-0.198-0.428-0.501-0.781-0.908-1.068
				c-0.404-0.28-0.886-0.437-1.437-0.466c-0.291,0-0.546,0.039-0.769,0.117c-0.225,0.079-0.446,0.168-0.67,0.271
				c-0.225,0.104-0.479,0.193-0.768,0.271c-0.29,0.076-0.646,0.115-1.066,0.115c-1.523,0-2.719-0.737-3.585-2.212h10.481
				c0.763,0.025,1.399-0.156,1.914-0.544c0.511-0.388,0.769-0.918,0.769-1.59c0-1.243-0.265-2.429-0.79-3.552
				C115.616,10.77,114.914,9.772,114.035,8.904z M103.769,13.27c0.445-0.803,0.967-1.365,1.558-1.688
				c0.593-0.323,1.267-0.485,2.029-0.485c0.735,0,1.405,0.163,2.01,0.485c0.605,0.323,1.13,0.884,1.575,1.688H103.769z
				 M44.171,6.204c-1.286-0.592-2.814-0.042-3.414,1.226c-0.375,0.795-2.665,5.392-4.423,9.11v0.008
				c-1.757-3.722-4.047-8.322-4.422-9.117c-0.6-1.269-2.127-1.818-3.414-1.226c-1.286,0.592-1.842,2.101-1.242,3.37
				c0.6,1.271,5.914,12.524,6.513,13.792c0.472,0.997,1.515,1.55,2.565,1.454c0.052-0.005,0.069-0.009,0.075-0.013
				c-0.025-0.002-0.05,0.001-0.075-0.001c-0.235-0.021,0.102-0.016,0.075,0.001c1.024,0.063,2.03-0.482,2.49-1.454
				c0.6-1.271,5.914-12.513,6.513-13.782C46.013,8.303,45.457,6.795,44.171,6.204z"/>
		</defs>
		<clipPath id="SVGID_2_">
			<use xlink:href="#SVGID_1_"  overflow="visible"/>
		</clipPath>
		
			<rect x="-1.822" y="-1.386" clip-path="url(#SVGID_2_)" fill-rule="evenodd" clip-rule="evenodd" fill="#364396" width="80.396" height="28.476"/>
		
			<rect x="79.069" y="3.723" clip-path="url(#SVGID_2_)" fill-rule="evenodd" clip-rule="evenodd" fill="#5867C2" width="73.268" height="23.367"/>
	</g>
</g>
<g id="Layer_2" display="none">
	<g display="inline">
		<g>
			<path fill-rule="evenodd" clip-rule="evenodd" fill="#4C5693" d="M45.003,6.14c-1.277-0.593-2.794-0.043-3.389,1.23
				c-0.373,0.797-2.646,5.412-4.392,9.143v0.009c-1.745-3.735-4.018-8.353-4.391-9.151c-0.596-1.274-2.112-1.825-3.389-1.231
				c-1.276,0.594-1.829,2.109-1.233,3.383c0.595,1.274,5.872,12.569,6.467,13.843c0.468,1.002,1.505,1.557,2.546,1.46
				c0.054-0.005,0.071-0.01,0.075-0.014c-0.024-0.001-0.049,0.001-0.074-0.001c-0.23-0.021,0.094-0.016,0.074,0.001
				c1.017,0.063,2.016-0.482,2.472-1.46c0.596-1.273,5.872-12.559,6.468-13.832C46.832,8.248,46.28,6.733,45.003,6.14z
				 M17.564,5.909c-5.237,0-9.482,4.235-9.482,9.46c0,5.223,4.245,9.459,9.482,9.459s9.482-4.236,9.482-9.459
				C27.047,10.145,22.801,5.909,17.564,5.909z M17.564,19.753c-2.427,0-4.394-1.963-4.394-4.384c0-2.421,1.967-4.384,4.394-4.384
				c2.426,0,4.395,1.962,4.395,4.384C21.959,17.79,19.991,19.753,17.564,19.753z M63.492,8.851
				c-0.876-0.869-1.884-1.564-3.031-2.083c-1.148-0.52-2.348-0.778-3.6-0.778c-1.279,0-2.493,0.258-3.64,0.778
				c-1.149,0.519-2.151,1.212-3.012,2.083c-0.86,0.871-1.547,1.875-2.055,3.017c-0.508,1.145-0.763,2.324-0.763,3.546
				c0,1.246,0.253,2.453,0.763,3.619c0.508,1.169,1.2,2.188,2.074,3.059c0.874,0.867,1.886,1.559,3.032,2.065
				c1.147,0.505,2.347,0.729,3.598,0.684c0.964-0.025,1.879-0.149,2.741-0.367c0.857-0.224,1.64-0.618,2.347-1.191
				c0.389-0.414,0.619-0.869,0.685-1.362c0.064-0.492,0-0.954-0.197-1.381c-0.197-0.429-0.496-0.784-0.901-1.072
				c-0.402-0.281-0.88-0.438-1.427-0.469c-0.289,0-0.541,0.039-0.762,0.118c-0.223,0.079-0.444,0.169-0.665,0.272
				c-0.223,0.104-0.476,0.194-0.762,0.271c-0.288,0.076-0.641,0.115-1.06,0.115c-1.512,0-2.699-0.74-3.558-2.219h10.407
				c0.757,0.024,1.39-0.158,1.9-0.546c0.508-0.391,0.763-0.922,0.763-1.597c0-1.247-0.263-2.437-0.785-3.564
				C65.063,10.722,64.366,9.721,63.492,8.851z M53.3,13.23c0.442-0.805,0.959-1.368,1.545-1.692
				c0.588-0.325,1.258-0.487,2.015-0.487c0.731,0,1.395,0.163,1.996,0.487c0.601,0.324,1.123,0.888,1.565,1.692H53.3z
				 M135.187,8.851c-0.876-0.869-1.885-1.564-3.031-2.083c-1.148-0.52-2.348-0.778-3.6-0.778c-1.279,0-2.493,0.258-3.639,0.778
				c-1.151,0.519-2.153,1.212-3.013,2.083c-0.86,0.871-1.548,1.875-2.056,3.017c-0.509,1.145-0.763,2.324-0.763,3.546
				c0,1.246,0.252,2.453,0.763,3.619c0.508,1.169,1.2,2.188,2.074,3.059c0.875,0.867,1.886,1.559,3.032,2.065
				c1.148,0.505,2.347,0.729,3.599,0.684c0.964-0.025,1.878-0.149,2.739-0.367c0.858-0.224,1.641-0.618,2.348-1.191
				c0.389-0.414,0.619-0.869,0.686-1.362c0.063-0.492,0-0.954-0.197-1.381c-0.196-0.429-0.496-0.784-0.902-1.072
				c-0.4-0.281-0.879-0.438-1.426-0.469c-0.289,0-0.541,0.039-0.763,0.118c-0.223,0.079-0.444,0.169-0.665,0.272
				c-0.222,0.104-0.477,0.194-0.763,0.271c-0.287,0.076-0.641,0.115-1.059,0.115c-1.512,0-2.698-0.74-3.559-2.219h10.406
				c0.758,0.024,1.392-0.158,1.9-0.546c0.509-0.391,0.764-0.922,0.764-1.597c0-1.247-0.264-2.437-0.785-3.564
				C136.758,10.722,136.061,9.721,135.187,8.851z M124.993,13.23c0.441-0.805,0.96-1.368,1.546-1.692
				c0.589-0.325,1.258-0.487,2.015-0.487c0.732,0,1.396,0.163,1.995,0.487c0.603,0.324,1.123,0.888,1.565,1.692H124.993z
				 M76.041,5.909h-0.559c-0.929,0-1.804,0.186-2.625,0.556c-0.824,0.372-1.548,0.864-2.172,1.479
				c-0.622,0.614-1.113,1.333-1.471,2.153c-0.356,0.816-0.535,1.674-0.535,2.571v9.781c0.079,0.641,0.354,1.191,0.833,1.649
				c0.477,0.465,1.075,0.706,1.789,0.73c0.717,0,1.326-0.242,1.812-0.73c0.492-0.485,0.594-0.859,0.649-1.576v-9.69
				c0-0.51,0.341-1.116,0.686-1.472c0.345-0.356,0.781-0.538,1.313-0.538c0.688,0,1.295-0.228,1.809-0.69
				c0.521-0.462,0.793-1.038,0.818-1.729c0-0.615-0.215-1.156-0.658-1.63C77.294,6.3,76.729,6.011,76.041,5.909z M149.426,6.772
				c-0.438-0.472-1.002-0.761-1.691-0.863h-0.559c-0.928,0-1.804,0.186-2.625,0.556c-0.824,0.372-1.548,0.864-2.172,1.479
				c-0.621,0.614-1.113,1.333-1.471,2.153c-0.357,0.816-0.534,1.674-0.534,2.571v9.781c0.078,0.641,0.354,1.191,0.833,1.649
				c0.477,0.465,1.074,0.706,1.788,0.73c0.717,0,1.326-0.242,1.813-0.73c0.492-0.485,0.594-0.859,0.649-1.576v-9.69
				c0-0.51,0.34-1.116,0.686-1.472c0.345-0.356,0.78-0.538,1.313-0.538c0.688,0,1.295-0.228,1.811-0.69
				c0.52-0.462,0.791-1.038,0.816-1.729C150.082,7.788,149.868,7.246,149.426,6.772z M114.372,8.851
				c-0.877-0.869-1.884-1.564-3.032-2.083c-1.147-0.52-2.347-0.778-3.599-0.778c-1.278,0-2.492,0.258-3.64,0.778
				c-1.15,0.519-2.152,1.212-3.012,2.083c-0.861,0.871-1.548,1.875-2.055,3.017c-0.509,1.145-0.764,2.324-0.764,3.546
				c0,1.246,0.253,2.453,0.764,3.619c0.507,1.169,1.199,2.188,2.073,3.059c0.874,0.867,1.886,1.559,3.032,2.065
				c1.147,0.505,2.348,0.729,3.598,0.684c0.964-0.025,1.879-0.149,2.741-0.367c0.856-0.224,1.64-0.618,2.347-1.191
				c0.39-0.414,0.619-0.869,0.685-1.362c0.064-0.492,0-0.954-0.195-1.381c-0.197-0.429-0.497-0.784-0.901-1.072
				c-0.402-0.281-0.88-0.438-1.428-0.469c-0.287,0-0.541,0.039-0.762,0.118c-0.223,0.079-0.443,0.169-0.665,0.272
				c-0.224,0.104-0.477,0.194-0.763,0.271c-0.288,0.076-0.641,0.115-1.06,0.115c-1.513,0-2.699-0.74-3.558-2.219h10.406
				c0.757,0.024,1.39-0.158,1.9-0.546c0.507-0.391,0.762-0.922,0.762-1.597c0-1.247-0.262-2.437-0.784-3.564
				C115.942,10.722,115.245,9.721,114.372,8.851z M104.18,13.23c0.441-0.805,0.958-1.368,1.546-1.692
				c0.587-0.325,1.257-0.487,2.014-0.487c0.731,0,1.396,0.163,1.995,0.487c0.602,0.324,1.123,0.888,1.565,1.692H104.18z
				 M94.81,14.963c-0.509-0.558-1.107-1.007-1.799-1.342c-0.691-0.339-1.442-0.507-2.25-0.507h-4.424
				c-0.313,0-0.581-0.102-0.802-0.293c-0.224-0.196-0.336-0.476-0.336-0.838c0-0.337,0.112-0.598,0.334-0.779
				s0.489-0.272,0.802-0.272h6.731c0.625,0,1.193-0.254,1.702-0.758c0.51-0.506,0.766-1.097,0.766-1.772
				c0-0.596-0.233-1.161-0.707-1.693c-0.47-0.531-1.057-0.799-1.761-0.799h-6.963c-0.835,0.027-1.604,0.202-2.306,0.526
				c-0.707,0.325-1.32,0.759-1.843,1.304c-0.521,0.544-0.935,1.182-1.231,1.908c-0.3,0.727-0.448,1.479-0.448,2.258
				c0,0.779,0.146,1.503,0.433,2.179c0.286,0.678,0.686,1.301,1.189,1.868c0.513,0.568,1.109,1.021,1.804,1.344
				c0.688,0.325,1.428,0.486,2.211,0.486h4.303c0.704,0,1.06,0.351,1.06,1.05c0,0.623-0.354,0.938-1.06,0.938h-7.204
				c-0.679,0.024-1.252,0.306-1.721,0.838c-0.47,0.527-0.704,1.121-0.704,1.771c0,0.701,0.248,1.286,0.745,1.753
				c0.492,0.47,1.08,0.701,1.759,0.701h7.199c0.913,0,1.734-0.149,2.464-0.447c0.732-0.298,1.37-0.704,1.922-1.229
				c0.548-0.521,0.982-1.153,1.309-1.903c0.327-0.755,0.478-1.561,0.452-2.415c-0.002-0.778-0.147-1.481-0.436-2.104
				C95.715,16.114,95.317,15.521,94.81,14.963z"/>
		</g>
	</g>
</g>
</svg>
