<svg xmlns="http://www.w3.org/2000/svg" viewBox="0 0 20 20" enable-background="new 0 0 20 20"><circle fill="#2A2D7C" stroke="#B6B6B6" stroke-width=".05" stroke-miterlimit="10" cx="10" cy="10" r="10"/><path fill="#fff" d="M6.307 13.433l.961-1.448-1.625.616-.532-1.655-.532 1.655-1.625-.616.962 1.448-1.495.886 1.732.151-.239 1.721 1.197-1.259 1.198 1.259-.239-1.721 1.731-.151zM16.475 8.321l-.114.82.57-.6.57.6-.113-.82.824-.071-.711-.423.458-.689-.774.293-.254-.788-.253.788-.774-.293.458.689-.712.423zM1.113 5.428l-.032.067.135-.067h-.103zM14.308 5.428h-8.277000000000001v3.6790000000000003h.613v-2.804l5.608 2.804h2.056l-6.131-3.066h1.371l4.76 2.38v-.342l-4.075-2.038h4.075zM3.578 2.339v.375l-.266-.133c-.349.314-.681.647-.983 1.008h1.862v-.569h.001v-1.15c-.21.15-.417.303-.614.469z"/><g fill="#fff"><path d="M3.578 6.303v2.804h.614v-3.111zM4.191 5.428h-2.976l-.134.067c-.212.419-.396.853-.548 1.302l1.513-.756h1.371l-3.115 1.557-.1.393 3.376-1.688.613-.307v-.568z"/></g><g fill="#fff"><path d="M10.233 2.976l-1.226.613h5.301v-.613zM10.233 2.975l4.026-2.013c-.369-.174-.747-.33-1.138-.459l-4.944 2.473h-1.371l5.431-2.715-.49-.098-5.103 2.551v-2.125c-.206.074-.413.147-.613.234v2.765h2.976l1.226-.613z"/></g><path fill="#ED2224" d="M4.192 5.428v3.678h1.839v-3.678h8.277000000000001v-1.84h-8.277000000000001v-2.765c-.653.283-1.267.638-1.839 1.047v1.718h-1.863c-.471.564-.876 1.182-1.216 1.84h3.0789999999999997zM8.177 2.976l4.944-2.472c-.289-.095-.584-.175-.884-.243l-5.431 2.715h1.371zM8.177 6.041l6.131 3.066v-.686l-4.76-2.38zM2.046 6.041l-1.513.756c-.088.263-.163.53-.231.801l3.114-1.557h-1.37z"/></svg>