<svg xmlns="http://www.w3.org/2000/svg" enable-background="new 0 0 20 20" viewBox="0 0 20 20"><style type="text/css" id="style3">.st0{fill:#FFFFFF;} .st1{fill:#00966E;} .st2{fill:#D62612;} .st3{fill:#CCCCCC;}</style><circle id="circle7" r="10" cy="10" cx="10" class="st0" fill="#fff"/><path id="path9" d="M19.703 10.213c0-1.124-.194-2.153-.582-3.09h-18.242c-.388.936-.582 1.966-.582 3.09 0 1.124.194 2.153.582 3.09h18.242c.388-.936.582-1.966.582-3.09z" class="st1" fill="#00966e"/><path id="path11" d="M19.121 13.303h-18.242c1.358 3.651 4.852 6.273 9.121 6.273s7.763-2.622 9.121-6.273z" class="st2" fill="#d62612"/><path id="path13" class="st3" d="M10 0c-5.5 0-10 4.5-10 10s4.5 10 10 10 10-4.5 10-10-4.5-10-10-10zm0 19c-5 0-9-4-9-9s4-9 9-9 9 4 9 9-4 9-9 9z" fill="#ccc"/></svg>