<svg xmlns="http://www.w3.org/2000/svg" viewBox="0 0 20 20" enable-background="new 0 0 20 20"><circle cx="10" cy="10" r="10" fill="#00923F"/><path d="M10 4.068l-9.29 5.932 9.29 5.932 9.29-5.932-9.29-5.932z" fill="#F8C300"/><circle cx="9.992" cy="10" r="3.909" fill="#28166F"/><path d="M10.388 10.843l.047.119.128.008-.098.082.032.124-.108-.069-.108.069.032-.124-.099-.082.128-.008.046-.119zm2.922.417l.04.102.109.007-.084.07.027.106-.092-.058-.092.058.027-.106-.084-.07.109-.007.04-.102zm-.418.324l.047.119.128.008-.099.082.032.125-.108-.068-.108.068.032-.124-.099-.082.128-.008.047-.12zm-.155-.419l.056.141.152.01-.117.097.038.147-.128-.081-.128.081.038-.147-.117-.097.152-.01.054-.141zm-.03.73l.047.119.128.008-.099.082.032.124-.108-.069-.108.069.032-.124-.099-.082.128-.008.047-.119zm-.366.193l.04.101.109.007-.084.07.027.106-.092-.058-.092.058.027-.106-.084-.07.109-.007.04-.101zm-.376.35l.047.119.128.008-.099.082.032.124-.108-.069-.108.069.032-.124-.098-.082.128-.008.046-.119zm-.005.438l.04.101.109.007-.084.07.027.106-.092-.058-.092.058.027-.106-.084-.07.109-.007.04-.101zm-.006-.792l.04.101.109.007-.084.07.027.106-.092-.058-.092.058.027-.106-.084-.07.109-.007.04-.101zm-.461.091l.041.102.109.007-.084.07.027.106-.092-.058-.092.058.027-.106-.084-.07.109-.007.039-.102zm-.296-3.752l.056.141.152.01-.117.097.038.147-.128-.081-.128.081.038-.147-.118-.097.152-.01.055-.141zm-.061 4.11l.047.119.128.008-.099.082.032.124-.108-.068-.108.068.032-.124-.1-.082.128-.008.048-.119zm-.218-2.922l.041.101.109.007-.084.07.027.106-.092-.058-.092.058.027-.106-.084-.07.109-.007.039-.101zm-.104 2.465l.04.102.109.007-.084.07.027.106-.092-.058-.092.058.027-.106-.084-.07.109-.007.04-.102zm-.784-1.568l.047.119.128.008-.099.082.032.124-.108-.068-.108.068.032-.124-.099-.082.128-.008.047-.119zm-.023 1.109l.056.141.152.01-.117.097.038.147-.128-.081-.128.081.038-.147-.117-.097.152-.01.054-.141zm.012 1.414l.021.054.058.004-.045.037.014.057-.049-.031-.048.031.014-.057-.044-.037.058-.004.021-.054zm-.246-1.869l.03.076.081.005-.063.052.02.079-.069-.044-.069.044.02-.079-.063-.052.082-.005.031-.076zm-.286-.247l.04.102.109.007-.084.07.027.106-.092-.058-.092.058.027-.106-.084-.07.109-.007.04-.102zm-1.015-.933l.047.119.128.008-.098.082.032.124-.108-.069-.108.069.032-.124-.099-.082.128-.008.046-.119zm-.115 1.974l.056.141.152.01-.117.097.038.147-.129-.081-.128.081.038-.147-.117-.097.152-.01.055-.141zm-.429-.779l.047.119.128.008-.099.082.032.124-.108-.069-.108.069.032-.124-.098-.082.128-.008.046-.119zm-.142.439l.04.102.109.007-.084.07.028.105-.092-.058-.093.058.027-.106-.084-.07.109-.007.04-.101zm-.291-.999l.03.076.081.005-.063.052.02.079-.069-.044-.068.045.02-.079-.063-.052.082-.005.03-.077zm-.359.158l.056.141.152.01-.117.097.038.147-.128-.081-.129.081.038-.147-.117-.097.152-.01.055-.141zm-.322-1.627l.056.142.152.01-.117.096.038.147-.129-.081-.128.081.038-.147-.118-.097.152-.01.056-.141zm-.088 1.998l.047.119.128.008-.099.082.032.124-.108-.068-.109.069.032-.124-.099-.082.128-.008.048-.12zM7.658 8.792c2.325 0 4.457.855 6.097 2.267.054-.19.094-.386.119-.587-1.701-1.379-3.865-2.208-6.216-2.208-.408 0-.81.026-1.205.074-.084.181-.155.368-.212.562.462-.071.935-.108 1.417-.108z" fill="#fff"/><path d="M6.652 8.589l.033.087.074.026.07-.038.018-.091-.034-.087-.074-.026-.069.038-.018.091zm-.073.007l.035-.138.12-.06.128.039.058.13-.035.138-.12.059-.128-.039-.058-.129zm.568-.065l.084-.003.04-.013.012-.035-.014-.034-.038-.011-.087.003.003.093zm-.065.198l-.012-.349.169-.006.085.021.03.074-.012.054-.037.03.033.024.013.051.003.042v.001l.015.038v.011l-.078.002-.007-.018-.003-.025-.002-.037-.014-.043-.04-.01-.076.002.005.136-.072.002zm.515-.078l.058.001.073-.025.023-.084-.019-.086-.065-.029-.066-.002-.004.225zm-.072.061l.007-.349.137.002.119.046.037.132-.016.084-.043.058-.048.023-.076.007-.117-.003zm.443.008l.019-.348.253.014-.003.06-.182-.01-.005.075.167.009-.003.06-.167-.01-.005.09.191.01-.004.064-.261-.014zm.41.025l.037-.347.106.011.041.271.096-.257.106.011-.037.348-.067-.007.03-.28-.1.272-.073-.008-.042-.287-.03.28-.067-.007zm.925.119l.073-.341.248.053-.013.059-.178-.038-.016.072.163.035-.012.059-.164-.035-.018.087.187.04-.014.064-.256-.055zm.923.021l.067.018.043-.001.022-.034-.002-.04-.033-.022-.071-.019-.026.098zm-.016.061l-.032.12-.069-.019.091-.337.15.04.073.049.005.088-.048.073-.084.008-.086-.022zm.419.055l.081.025.042.001.023-.03-.002-.036-.032-.022-.084-.026-.028.088zm-.126.167l.102-.334.162.05.074.048.004.079-.028.047-.045.017.024.033-.005.053-.012.039v.001l.002.04-.003.01-.075-.023v-.019l.005-.025.01-.035.001-.045-.035-.023-.073-.022-.04.13-.068-.021zm.531-.002l-.006.093.056.054.079-.005.055-.075.006-.093-.057-.055-.078.005-.055.076zm-.069-.025l.089-.11.134-.004.1.089-.003.142-.09.11-.134.004-.1-.089.004-.142zm.646.41l-.056.018-.058-.011-.089-.093.011-.141.094-.105.13.001.086.071.011.099-.067-.029-.009-.049-.043-.034-.076.003-.058.072-.011.092.053.058.06.004.048-.04-.073-.031.023-.055.133.057-.074.174-.044-.019.009-.042zm.332-.009l.076.037.041.008.027-.026.004-.036-.028-.027-.079-.039-.041.083zm-.151.144l.153-.313.152.074.065.059-.008.079-.035.042-.047.009.018.036-.013.051-.017.039-.001.001-.004.04-.005.01-.071-.034.003-.019.009-.024.015-.033.008-.045-.031-.028-.068-.034-.06.122-.063-.032zm.39.201l.17-.305.221.123-.03.053-.16-.089-.036.065.146.081-.029.052-.146-.081-.044.078.167.093-.031.056-.228-.126zm.393.108l.061.036-.002.049.041.041.046.015.031-.02-.051-.092-.002-.002-.005-.005-.047-.057-.008-.042.016-.045.07-.049.1.028.067.074-.011.089-.059-.036.003-.043-.036-.037-.043-.013-.029.019.03.066.018.018.039.041.017.025.011.043-.015.046-.075.053-.104-.028-.073-.079.01-.095zm.368.23l.059.04-.004.048.039.043.045.017.032-.018-.046-.095-.001-.002-.005-.006-.044-.059-.006-.042.019-.045.072-.045.098.034.063.077-.015.088-.057-.039.006-.043-.034-.039-.042-.015-.03.017.026.068.017.019.036.043.016.026.009.044-.017.045-.078.049-.103-.033-.068-.083.013-.094zm.443.235l-.034.087.038.069.077.018.075-.056.033-.087-.039-.069-.076-.018-.074.056zm-.058-.044l.118-.079.129.035.069.115-.044.135-.118.079-.129-.035-.069-.115.044-.135z" fill="#00923F"/></svg>