<?xml version="1.0" encoding="UTF-8" standalone="no"?>
<svg
   xmlns:dc="http://purl.org/dc/elements/1.1/"
   xmlns:cc="http://creativecommons.org/ns#"
   xmlns:rdf="http://www.w3.org/1999/02/22-rdf-syntax-ns#"
   xmlns:svg="http://www.w3.org/2000/svg"
   xmlns="http://www.w3.org/2000/svg"
   version="1.1"
   id="Layer_1"
   x="0px"
   y="0px"
   viewBox="0 0 20 20"
   style="enable-background:new 0 0 20 20;"
   xml:space="preserve"><metadata
     id="metadata16"><rdf:RDF><cc:Work
         rdf:about=""><dc:format>image/svg+xml</dc:format><dc:type
           rdf:resource="http://purl.org/dc/dcmitype/StillImage" /><dc:title></dc:title></cc:Work></rdf:RDF></metadata><defs
     id="defs14" /><style
     type="text/css"
     id="style3">
  .st0{fill:#FFFFFF;}
  .st1{fill:#ED2224;}
  .st2{fill:#CCCCCC;}
</style><circle
     style="fill:#ffffff"
     class="st0"
     cx="10"
     cy="10"
     r="10"
     id="circle5" /><circle
     style="fill:#ffffff"
     class="st0"
     cx="10"
     cy="10"
     r="10"
     id="circle7" /><path
     class="st1"
     d="m 0.3345227,10 c 0,2.802988 1.2565121,5.316012 3.1896075,7.152453 l 0,-14.3049062 C 1.5910348,4.6839875 0.3345227,7.197012 0.3345227,10 Z m 19.3309543,0 c 0,-2.899643 -1.353167,-5.6059768 -3.382917,-7.3457627 l 0,14.6915257 C 18.31231,15.605977 19.665477,12.899643 19.665477,10 Z m -7.152453,2.22306 2.513024,-2.02975 -0.483274,-0.289965 C 14.349465,9.806685 14.349465,9.710036 14.446124,9.420071 l 0.386619,-1.353166 -1.449822,0.289964 c -0.09666,0 -0.193309,-0.09666 -0.289964,-0.19331 L 12.899647,7.486976 11.73979,8.743488 c -0.19331,0.19331 -0.483274,0.19331 -0.386619,-0.289964 l 0.483274,-2.6096792 -0.676584,0.3866191 c -0.193309,0.096655 -0.386619,0.096655 -0.483274,-0.096655 L 9.7100357,4.3940232 8.8401427,6.1338091 C 8.743488,6.3271186 8.5501784,6.3271186 8.3568689,6.2304639 L 7.6802855,5.8438448 8.1635593,8.453524 C 8.2602143,8.936798 7.9702498,8.936798 7.7769402,8.743488 L 6.617083,7.486976 6.4237734,8.066905 c 0,0.09665 -0.096655,0.193309 -0.2899643,0.193309 L 4.6839875,7.97025 5.1672614,9.323417 C 5.2639164,9.613381 5.3605709,9.80669 5.0706064,9.80669 l -0.4832739,0.289965 2.5130241,2.02975 c 0.096655,0.09666 0.1933096,0.19331 0.096655,0.386619 l -0.1933095,0.773238 2.513024,-0.289964 c 0.096655,0 0.1933096,0.09666 0.1933096,0.193309 l -0.1933096,2.609679 0.4832737,0 -0.096655,-2.609679 c 0,-0.09665 0.096655,-0.193309 0.1933102,-0.193309 l 2.513024,0.289964 -0.19331,-0.773238 c -0.09666,-0.09666 0,-0.289964 0.09666,-0.289964 z"
     id="path9"
     style="fill:#ed2224" /><path
     style="fill:#cccccc"
     id="path11"
     class="st2"
     d="M 10,0 C 4.5,0 0,4.5 0,10 0,15.5 4.5,20 10,20 15.5,20 20,15.5 20,10 20,4.5 15.5,0 10,0 Z m 0,19 C 5,19 1,15 1,10 1,5 5,1 10,1 c 5,0 9,4 9,9 0,5 -4,9 -9,9 z" /></svg>