<svg xmlns="http://www.w3.org/2000/svg" viewBox="0 0 20 20" enable-background="new 0 0 20 20"><circle fill="#DD2E26" cx="10" cy="10" r="10"/><path fill="#FFDE00" d="M5.673 4.065l-.672-2.065-.674 2.065-2.165.004 1.748 1.282-.665 2.068 1.754-1.273 1.753 1.274-.663-2.068 1.749-1.281zM10.351 8.064l-.449.568-.677-.248.399.602-.446.571.695-.196.402.6.031-.724.694-.199-.676-.251zM12.216 6.68l-.251-.679-.198.696-.72.029.598.405-.195.697.568-.446.6.402-.247-.681.566-.449zM11.722 4.265l.106.716.337-.639.712.122-.504-.521.333-.64-.647.317-.506-.517.103.716-.646.321zM9.846 2.35l.373.619.064-.722.703-.166-.663-.282.061-.722-.475.547-.665-.28.37.621-.472.548z"/></svg>