<svg xmlns="http://www.w3.org/2000/svg" enable-background="new 0 0 20 20" viewBox="0 0 20 20"><style type="text/css" id="style3">.st0{fill:#FFFFFF;} .st1{fill:#D7141A;} .st2{fill:#11457E;} .st3{fill:#CCCCCC;}</style><circle id="circle7" r="10" cy="10" cx="10" class="st0" fill="#fff"/><path id="path9" d="M19.068 10.197h-9.068l-7.526 5.019c1.632 2.464 4.353 4.106 7.526 4.106 4.987 0 9.068-4.106 9.068-9.125z" class="st1" fill="#d7141a"/><path id="path11" d="M2.474 5.178c-.997 1.369-1.542 3.103-1.542 5.019s.544 3.65 1.542 5.019l7.526-5.019-7.526-5.019z" class="st2" fill="#11457e"/><path id="path13" class="st3" d="M10 0c-5.5 0-10 4.5-10 10s4.5 10 10 10 10-4.5 10-10-4.5-10-10-10zm0 19c-5 0-9-4-9-9s4-9 9-9 9 4 9 9-4 9-9 9z" fill="#ccc"/></svg>