<svg xmlns="http://www.w3.org/2000/svg" viewBox="0 0 20 20" enable-background="new 0 0 20 20"><circle fill="#243E90" cx="10" cy="10" r="10"/><path fill="#FFCD05" d="M9.382 4.254l.656-.477.656.477-.25-.771.656-.477h-.811l-.251-.772-.251.772h-.811l.656.477zM9.382 17.657l.656-.477.656.477-.25-.771.656-.477h-.811l-.251-.772-.251.772h-.811l.656.477zM2.931 10.184l-.251.772.656-.477.657.477-.251-.772.657-.477h-.812l-.251-.772-.25.772h-.812zM6.031 5.152l.656-.477.657.477-.251-.772.656-.477h-.811l-.251-.771-.251.771h-.811l.656.477zM3.578 7.605l.656-.477.657.477-.251-.772.657-.477h-.812l-.251-.771-.25.771h-.812l.657.477zM4.485 13.058l-.251-.772-.25.772h-.812l.657.477-.251.772.656-.477.657.477-.251-.772.657-.477zM6.031 16.76l.656-.477.657.477-.251-.772.656-.477h-.811l-.251-.772-.251.772h-.811l.656.477zM16.489 9.707h-.812l.657.477-.251.772.657-.477.656.477-.251-.772.657-.477h-.812l-.25-.772zM12.732 5.152l.657-.477.656.477-.25-.772.656-.477h-.811l-.251-.771-.251.771h-.811l.656.477zM15.185 7.605l.657-.477.656.477-.251-.772.657-.477h-.812l-.25-.771-.251.771h-.811l.656.477zM15.185 14.307l.657-.477.656.477-.251-.772.657-.477h-.811l-.251-.772-.251.772h-.811l.656.477zM12.732 16.76l.657-.477.656.477-.25-.772.656-.477h-.811l-.251-.772-.251.772h-.811l.656.477z"/></svg>