<svg xmlns="http://www.w3.org/2000/svg" viewBox="0 0 20 20" enable-background="new 0 0 20 20"><circle fill="#fff" stroke="#B6B6B6" stroke-width=".05" cx="10" cy="10" r="10"/><path d="M.034 10.665l-.021-.421.021.421zM19.861 8.306l-.061-.298c.04.198.065.402.093.604l-.032-.306zM19.966 9.328l.022.431-.022-.431zM19.973 10.544l-.018.362.018-.362zM19.802 11.981l-.041.166.041-.166zM10.231.012l.484.026-.484-.026zM9.095.045l.36-.018-.36.018zM15.832 18.104c-.335.241-.685.462-1.049.661.364-.199.714-.419 1.049-.661zM6.746 19.448c-1.831-.631-3.42-1.774-4.595-3.264-.14-.178-.278-.357-.406-.544-.251-.367-.472-.756-.674-1.156-.19-.377-.355-.766-.496-1.168-.151-.43-.282-.869-.374-1.324.789 4.005 4.062 7.205 8.106 7.869l.356.037-.581-.086c-.458-.089-.902-.215-1.336-.364zM1.073 5.516c-.256.508-.468 1.04-.635 1.593l.154-.47c.138-.387.299-.76.481-1.123zM4.323 1.787c.327-.226.667-.434 1.021-.621-.354.187-.694.394-1.021.621zM6.75.546c-.44.151-.862.339-1.272.547.408-.207.83-.39 1.268-.541l.004-.006zM3.098 2.778c-.773.739-1.421 1.602-1.926 2.556.29-.548.621-1.07 1.004-1.551.284-.357.593-.691.922-1.005zM13.424.614c1.771.646 3.305 1.773 4.447 3.23.139.178.279.356.406.543.25.368.468.759.668 1.159.176.352.33.716.464 1.091.15.421.281.851.376 1.295-.814-3.97-4.072-7.135-8.09-7.794l-.341-.035c.247.034.494.067.735.118.458.098.901.235 1.335.393zM12.078 19.78l-.452.073.452-.073zM.139 11.694l.057.278-.09-.599.033.321zM9.766 19.988l-.513-.029.513.029zM11.011 19.939l-.573.035.573-.035zM13.411 19.39l-.514.171.514-.171zM14.652 18.836c-.39.205-.793.388-1.211.542.418-.154.821-.336 1.211-.542zM.027 9.466l.02-.378-.02.378zM.186 8.103l.019-.126-.019.126zM3.216 2.673c.291-.269.597-.521.919-.754-.322.234-.628.485-.919.754zM19.568 12.87l-.143.445c-.133.378-.288.744-.463 1.1-.299.606-.656 1.177-1.067 1.706-.562.724-1.224 1.366-1.961 1.91 1.716-1.268 3.007-3.067 3.634-5.161z" fill="none"/><path fill="#273476" d="M2.151 16.184c1.176 1.49 2.764 2.634 4.595 3.264v-5.562l-4.595 2.298zM17.895 16.122l-4.472-2.236v5.499l.017-.007c.418-.153.821-.337 1.211-.542l.131-.071c.364-.199.715-.42 1.049-.661l.103-.072c.738-.545 1.399-1.186 1.961-1.91zM6.746 6.068v-5.516c-.438.151-.86.334-1.268.541l-.134.073c-.354.187-.694.395-1.021.621l-.188.132c-.322.233-.628.485-.919.754l-.118.105c-.329.314-.638.648-.922 1.005l4.57 2.285zM17.87 3.845c-1.141-1.457-2.676-2.584-4.447-3.23v5.454l4.447-2.224z"/><path fill="#fff" d="M.575 13.316c.141.402.307.792.496 1.168l2.337-1.168h-2.833z"/><path fill="#D0202D" d="M3.408 13.316l-2.337 1.168c.201.4.422.789.674 1.156l4.649-2.324h-2.986zM3.408 6.638l-2.316-1.157-.019.035c-.182.363-.343.736-.481 1.122h2.816zM16.762 6.638l2.182-1.091c-.2-.401-.418-.791-.668-1.159l-4.501 2.25h2.987zM18.962 14.416c.175-.356.33-.722.463-1.1h-2.663l2.2 1.1zM19.802 11.98c.071-.351.119-.711.152-1.074l.018-.362c.014-.26.021-.521.015-.785l-.022-.431c-.015-.237-.041-.475-.073-.715-.028-.202-.053-.406-.093-.604l-.007-.034h-7.704v-7.753c-.241-.051-.488-.084-.735-.118-.214-.028-.427-.051-.639-.066l-.484-.026c-.261-.005-.519.002-.775.015l-.36.018c-.343.031-.681.079-1.013.144v7.785h-7.876l-.001.004-.019.125c-.062.323-.109.652-.139.985l-.02.378c-.014.257-.021.515-.015.777l.021.421c.015.235.041.471.073.709l.09.599.002.008h7.883v7.832l.581.086.591.061.513.029c.226.005.449-.003.672-.013l.573-.035c.207-.021.411-.054.615-.087l.452-.073.01-.003v-7.797h7.714z"/></svg>