<svg xmlns="http://www.w3.org/2000/svg" viewBox="0 0 20 20" enable-background="new 0 0 20 20"><circle fill="#DE2910" cx="10" cy="10" r="10"/><g fill="#fff"><path d="M9.661 9.821c-.297-.255-.523-.623-.642-1.054-.177-.646-.075-1.34.279-1.904l.075.047c-.342.543-.44 1.212-.27 1.835.128.464.401.853.742 1.095-.573-.628-.349-1.638.539-2.038.587-.264 1.061-1.35.627-2.026-.388-.603-.289-1.254.389-1.603-3.237-.221-4.784 4.017-1.739 5.648zm-.178-3.813l.27.25.342-.135-.155.334.233.284-.364-.044-.197.31-.072-.36-.356-.092.321-.18-.022-.367zM10.068 11.578c-.236.626-.727 1.128-1.345 1.376l-.032-.081c.596-.238 1.069-.722 1.296-1.326.17-.451.177-.926.044-1.323.094.845-.68 1.53-1.634 1.331-.63-.131-1.652.469-1.698 1.27-.041.716-.503 1.185-1.257 1.068 2.489 2.082 6.232-.437 4.727-3.547.09.382.057.813-.101 1.232zm-1.799 1.65l-.197.31-.072-.361-.356-.092.32-.18-.022-.367.27.249.342-.135-.154.334.234.284-.365-.042zM10.379 9.941c.39.032.79.196 1.139.475.523.419.848 1.04.893 1.705l-.087.006c-.043-.64-.357-1.239-.86-1.643-.376-.301-.826-.455-1.245-.45.833.172 1.245 1.12.761 1.966-.32.559-.065 1.716.683 2.007.668.26.971.845.627 1.526 2.75-1.724 1.511-6.062-1.911-5.592zm2.02 2.936l-.197.31-.072-.36-.355-.092.32-.18-.023-.367.27.25.342-.135-.154.334.234.284-.365-.044zM10.083 9.623c.151-.362.431-.691.804-.937.56-.368 1.251-.485 1.897-.322l-.021.084c-.622-.157-1.289-.044-1.828.311-.403.265-.689.646-.813 1.045.421-.739 1.45-.839 2.105-.117.432.477 1.612.592 2.12-.03.454-.555 1.103-.663 1.645-.125-.79-3.148-5.299-3.311-5.909.091zm3.286-.775l-.197.31-.072-.361-.356-.092.321-.179-.023-.367.27.25.342-.135-.154.333.234.284-.365-.043zM9.713 10.263c-.334.204-.755.306-1.202.286-.669-.031-1.297-.343-1.724-.854l.067-.056c.411.493 1.017.793 1.661.823.481.022.936-.118 1.272-.367-.775.35-1.666-.174-1.771-1.143-.07-.64-.957-1.426-1.733-1.222-.693.182-1.282-.112-1.404-.866-1.212 3.011 2.341 5.793 4.834 3.399zm-3.362-1.187l-.022-.366.27.249.341-.134-.154.333.234.284-.365-.044-.197.31-.072-.36-.356-.093.321-.179z"/></g></svg>