<?xml version="1.0" encoding="UTF-8" standalone="no"?>
<svg
   xmlns:dc="http://purl.org/dc/elements/1.1/"
   xmlns:cc="http://creativecommons.org/ns#"
   xmlns:rdf="http://www.w3.org/1999/02/22-rdf-syntax-ns#"
   xmlns:svg="http://www.w3.org/2000/svg"
   xmlns="http://www.w3.org/2000/svg"
   version="1.1"
   id="svg2"
   enable-background="new 0 0 20 20"
   viewBox="0 0 20 20">
  <metadata
     id="metadata183">
    <rdf:RDF>
      <cc:Work
         rdf:about="">
        <dc:format>image/svg+xml</dc:format>
        <dc:type
           rdf:resource="http://purl.org/dc/dcmitype/StillImage" />
        <dc:title></dc:title>
      </cc:Work>
    </rdf:RDF>
  </metadata>
  <defs
     id="defs181" />
  <style
     type="text/css"
     id="style3">.st0{fill:#FFFFFF;} .st1{fill:#00298C;} .st2{fill:#DE1818;} .st3{fill:none;stroke:#DE1818;stroke-width:5.300000e-02;stroke-linecap:round;} .st4{fill:#087BA5;} .st5{fill:none;stroke:#3477D9;stroke-width:1.700000e-02;} .st6{fill:none;stroke:#FFFFFF;stroke-width:1.500000e-02;} .st7{fill:#FFFA00;} .st8{fill:none;stroke:#CCA300;stroke-width:1.700000e-02;} .st9{fill:#CCA300;} .st10{fill:#663D19;} .st11{fill:none;stroke:#CCA300;stroke-width:7.000000e-03;} .st12{fill:none;stroke:#000082;stroke-width:1.700000e-02;} .st13{fill:none;stroke:#E61717;stroke-width:1.700000e-02;} .st14{fill:none;stroke:#CC0000;stroke-width:1.700000e-02;} .st15{fill:#8E3737;} .st16{fill:none;stroke:#8F3636;stroke-width:1.700000e-02;} .st17{fill:none;stroke:#EFD608;stroke-width:1.700000e-02;} .st18{fill:#664C00;} .st19{fill:none;stroke:#664C00;stroke-width:1.700000e-02;} .st20{fill:none;stroke:#FFFFFF;stroke-width:1.700000e-02;} .st21{fill:none;stroke:#000000;stroke-width:1.700000e-02;} .st22{fill:none;stroke:#FFC700;stroke-width:1.700000e-02;} .st23{fill:#FFC500;} .st24{fill:#FFC700;} .st25{fill:none;stroke:#DE1818;stroke-width:5.300000e-02;} .st26{fill:none;stroke:#DE1818;stroke-width:5.100000e-02;} .st27{fill:#CCCCCC;}</style>
  <circle
     style="fill:#ffffff"
     class="st0"
     cx="10"
     cy="10"
     r="10"
     id="circle5" />
  <path
     style="fill:#00298c"
     class="st1"
     d="m 18.553,13.002 -17.105,0 c 1.274,3.548 4.549,6.096 8.553,6.096 4.003,0 7.279,-2.548 8.553,-6.096 z"
     id="path7" />
  <path
     style="fill:#de1818"
     class="st2"
     d="m 10,0.902 c -4.003,0 -7.279,2.548 -8.553,6.096 l 17.105,0 C 17.278,3.45 14.003,0.902 9.999,0.902 Z"
     id="path9" />
  <path
     style="fill:#ffffff"
     class="st0"
     d="M 6,6.6 C 7.2,6.2 8.6,5.9 9.9,5.9 c 1.3,0 2.7,0.2 4,0.7 l 1,-2 L 14.2,3.4 12.9,3.9 12,2.9 11,3.6 10,2.8 9,3.6 7.8,2.9 7,3.9 5.7,3.4 5,4.6 l 1,2 z"
     id="path11" />
  <path
     class="st3"
     d="M 6,6.6 C 7.2,6.2 8.6,5.9 9.9,5.9 c 1.3,0 2.7,0.2 4,0.7 l 1,-2 L 14.2,3.4 12.9,3.9 12,2.9 11,3.6 10,2.8 9,3.6 7.8,2.9 7,3.9 5.7,3.4 5,4.6 l 1,2 z"
     id="path13" />
  <path
     style="fill:#087ba5"
     class="st4"
     d="M 12.4,6 13,4 14.2,3.5 14.8,4.6 13.9,6.5 C 13.4,6.3 13.1,6.2 12.4,6 Z"
     id="path15" />
  <path
     class="st5"
     d="M 12.4,6 13,4 14.2,3.5 14.8,4.6 13.9,6.5 C 13.4,6.3 13.1,6.2 12.4,6 Z"
     id="path17" />
  <path
     style="fill:#087ba5"
     class="st4"
     d="M 9.2,5.8 9,3.7 l 1,-0.8 1,0.8 -0.2,2.1 -1.6,0 z"
     id="path19" />
  <path
     class="st5"
     d="M 9.2,5.8 9,3.7 l 1,-0.8 1,0.8 -0.2,2.1 -1.6,0 z"
     id="path21" />
  <path
     style="fill:#087ba5"
     class="st4"
     d="M 6.1,6.5 5.2,4.6 5.8,3.5 7,4 7.5,6 C 7,6.1 6.7,6.2 6.1,6.5 Z"
     id="path23" />
  <path
     class="st5"
     d="M 6.1,6.5 5.2,4.6 5.8,3.5 7,4 7.5,6 C 7,6.1 6.7,6.2 6.1,6.5 Z"
     id="path25" />
  <path
     style="fill:#ffffff"
     class="st0"
     d="m 5.9,5.5 c 0.3,0 0.5,0 0.7,-0.1 C 6.9,5.3 7,5.2 7.1,5 7.2,5.2 7.1,5.5 6.8,5.7 6.5,5.8 6.1,5.8 5.9,5.5 Z"
     id="path27" />
  <path
     class="st6"
     d="m 5.9,5.5 c 0.3,0 0.5,0 0.7,-0.1 C 6.9,5.3 7,5.2 7.1,5 7.2,5.2 7.1,5.5 6.8,5.7 6.5,5.8 6.1,5.8 5.9,5.5 Z"
     id="path29" />
  <path
     style="fill:#fffa00"
     class="st7"
     d="m 10.2,4 -0.1,0.1 -0.1,0 0,0.4 0.6,0 0,-0.1 0.1,0 0,-0.1 0.1,0 0,-0.2 -0.1,-0.1 0,-0.2 0.1,-0.1 -0.3,0 0,-0.1 -0.1,0 -0.1,0.1 0,0.1 0,-0.1 -0.1,0 0,0.3 z"
     id="path31" />
  <path
     class="st8"
     d="m 10.2,4 -0.1,0.1 -0.1,0 0,0.4 0.6,0 0,-0.1 0.1,0 0,-0.1 0.1,0 0,-0.2 -0.1,-0.1 0,-0.2 0.1,-0.1 -0.3,0 0,-0.1 -0.1,0 -0.1,0.1 0,0.1 0,-0.1 -0.1,0 0,0.3 z m 0.6,0.4 0,-0.1"
     id="path33" />
  <path
     style="fill:#cca300"
     class="st9"
     d="m 10.1,4.3 0.1,0.1 0,0.1 0,-0.1 0.1,0 0,0.1 0.1,0 0,0.1 0.1,0 0,-0.1 0.1,0 0,-0.2 0.1,-0.1 0.1,0 -0.1,-0.1 0,-0.1 0,0.1 0,0.1 -0.1,0 0,0.2 -0.1,0 0,-0.2 -0.2,0 0,0.1 -0.2,0 z"
     id="path35" />
  <path
     class="st8"
     d="m 10.1,4.3 0.1,0.1 0,0.1 0,-0.1 0.1,0 0,0.1 0.1,0 0,0.1 0.1,0 0,-0.1 0.1,0 0,-0.2 0.1,-0.1 0.1,0 -0.1,-0.1 0,-0.1 0,0.1 0,0.1 -0.1,0 0,0.2 -0.1,0 0,-0.2 -0.2,0 0,0.1 -0.2,0 z"
     id="path37" />
  <path
     style="fill:#663d19"
     class="st10"
     d="m 10.4,4.4 0.1,0 -0.1,0 z"
     id="path39" />
  <path
     class="st11"
     d="m 10.4,4.4 0.1,0 -0.1,0 z"
     id="path41" />
  <path
     style="fill:#cca300"
     class="st9"
     d="m 10.6,4.1 -0.1,0.1 -0.1,-0.1 -0.1,0 0,0.1 -0.1,-0.1 0.2,0 0,-0.1 0.1,0 0,0.1 0.1,0 z"
     id="path43" />
  <path
     class="st8"
     d="m 10.6,4.1 -0.1,0.1 -0.1,-0.1 -0.1,0 0,0.1 -0.1,-0.1 0.2,0 0,-0.1 0.1,0 0,0.1 0.1,0 z"
     id="path45" />
  <path
     style="fill:#663d19"
     class="st10"
     d="M 10.4,4.2 Z M 10.5,4.1 Z"
     id="path47" />
  <path
     class="st8"
     d="m 10.3,4 0.4,0"
     id="path49" />
  <path
     style="fill:#cca300"
     class="st9"
     d="M 10.3,3.9 10.2,3.8 10.3,3.9 Z"
     id="path51" />
  <path
     class="st8"
     d="M 10.3,3.9 10.2,3.8 10.3,3.9 Z"
     id="path53" />
  <path
     style="fill:#cca300"
     class="st9"
     d="M 10.6,3.9 10.7,3.8 10.6,3.9 Z"
     id="path55" />
  <path
     class="st8"
     d="M 10.6,3.9 10.7,3.8 10.6,3.9 Z"
     id="path57" />
  <path
     style="fill:#cca300"
     class="st9"
     d="m 10.5,3.9 -0.2,0 0.1,0 0.1,0 z"
     id="path59" />
  <path
     class="st8"
     d="m 10.5,3.9 -0.2,0 0.1,0 0.1,0 z"
     id="path61" />
  <path
     style="fill:#cca300"
     class="st9"
     d="M 10.5,3.8 Z"
     id="path63" />
  <path
     class="st8"
     d="M 10.5,3.8 Z"
     id="path65" />
  <path
     style="fill:#cca300"
     class="st9"
     d="M 10.4,3.8 Z"
     id="path67" />
  <path
     class="st8"
     d="M 10.4,3.8 Z"
     id="path69" />
  <path
     style="fill:#cca300"
     class="st9"
     d="m 10.1,4.4 0,-0.1 0,0.1 z"
     id="path71" />
  <path
     class="st8"
     d="m 10.1,4.4 0,-0.1 0,0.1 z"
     id="path73" />
  <path
     style="fill:#cca300"
     class="st9"
     d="M 10.2,4.4 Z"
     id="path75" />
  <path
     class="st8"
     d="M 10.2,4.4 Z"
     id="path77" />
  <path
     style="fill:#fffa00"
     class="st7"
     d="m 9.3,4.1 -0.1,0.1 -0.1,0 0,0.4 0.6,0 0,-0.1 0.1,0 0,-0.1 0.1,0 0,-0.2 -0.1,-0.1 0,-0.2 0.1,-0.1 -0.3,0 0,-0.1 -0.1,0 -0.1,0.1 0,0.1 0,-0.1 -0.1,0 0,0.3 z"
     id="path79" />
  <path
     class="st8"
     d="m 9.3,4.1 -0.1,0.1 -0.1,0 0,0.4 0.6,0 0,-0.1 0.1,0 0,-0.1 0.1,0 0,-0.2 -0.1,-0.1 0,-0.2 0.1,-0.1 -0.3,0 0,-0.1 -0.1,0 -0.1,0.1 0,0.1 0,-0.1 -0.1,0 0,0.3 z m 0.6,0.3 0,-0.1"
     id="path81" />
  <path
     style="fill:#cca300"
     class="st9"
     d="m 9.2,4.3 0.1,0.1 0,0.1 0,-0.1 0.1,0 0,0.1 0.2,0 0,-0.1 0.1,0 0,-0.2 0.1,-0.1 0.1,0 -0.1,-0.1 0,-0.1 0,0.1 0,0.1 -0.1,0 0,0.2 -0.1,0 0,-0.2 -0.2,0 0,0.1 -0.2,0.1 z"
     id="path83" />
  <path
     class="st8"
     d="m 9.2,4.3 0.1,0.1 0,0.1 0,-0.1 0.1,0 0,0.1 0.2,0 0,-0.1 0.1,0 0,-0.2 0.1,-0.1 0.1,0 -0.1,-0.1 0,-0.1 0,0.1 0,0.1 -0.1,0 0,0.2 -0.1,0 0,-0.2 -0.2,0 0,0.1 -0.2,0.1 z"
     id="path85" />
  <path
     style="fill:#663d19"
     class="st10"
     d="m 9.5,4.4 0.1,0 -0.1,0 z"
     id="path87" />
  <path
     class="st11"
     d="m 9.5,4.4 0.1,0 -0.1,0 z"
     id="path89" />
  <path
     style="fill:#cca300"
     class="st9"
     d="M 9.7,4.1 9.6,4.2 9.5,4.1 l -0.1,0 0,0.1 -0.1,-0.1 0.2,0 0,-0.1 0.1,0 0,0.1 0.1,0 z"
     id="path91" />
  <path
     class="st8"
     d="M 9.7,4.1 9.6,4.2 9.5,4.1 l -0.1,0 0,0.1 -0.1,-0.1 0.2,0 0,-0.1 0.1,0 0,0.1 0.1,0 z"
     id="path93" />
  <path
     style="fill:#663d19"
     class="st10"
     d="m 9.5,4.2 z m 0.1,0 z"
     id="path95" />
  <path
     class="st8"
     d="m 9.4,4.1 0.4,0"
     id="path97" />
  <path
     style="fill:#cca300"
     class="st9"
     d="M 9.4,3.9 9.3,3.8 9.4,3.9 Z"
     id="path99" />
  <path
     class="st8"
     d="M 9.4,3.9 9.3,3.8 9.4,3.9 Z"
     id="path101" />
  <path
     style="fill:#cca300"
     class="st9"
     d="M 9.7,3.9 9.8,3.8 9.7,3.9 Z"
     id="path103" />
  <path
     class="st8"
     d="M 9.7,3.9 9.8,3.8 9.7,3.9 Z"
     id="path105" />
  <path
     style="fill:#cca300"
     class="st9"
     d="m 9.6,3.9 -0.2,0 0.1,0 0.1,0 z"
     id="path107" />
  <path
     class="st8"
     d="m 9.6,3.9 -0.2,0 0.1,0 0.1,0 z"
     id="path109" />
  <path
     style="fill:#cca300"
     class="st9"
     d="M 9.6,3.9 Z"
     id="path111" />
  <path
     class="st8"
     d="M 9.6,3.9 Z"
     id="path113" />
  <path
     style="fill:#cca300"
     class="st9"
     d="M 9.5,3.8 Z"
     id="path115" />
  <path
     class="st8"
     d="M 9.5,3.8 Z"
     id="path117" />
  <path
     style="fill:#cca300"
     class="st9"
     d="m 9.2,4.4 0,-0.1 0,0.1 z"
     id="path119" />
  <path
     class="st8"
     d="m 9.2,4.4 0,-0.1 0,0.1 z"
     id="path121" />
  <path
     style="fill:#cca300"
     class="st9"
     d="M 9.3,4.4 Z"
     id="path123" />
  <path
     class="st8"
     d="M 9.3,4.4 Z"
     id="path125" />
  <path
     style="fill:#00298c"
     class="st1"
     d="M 10.8,5.8 11,3.7 12.1,3.1 13,4 12.4,6 C 11.9,5.9 11.5,5.8 10.8,5.8 Z"
     id="path127" />
  <path
     class="st12"
     d="M 10.8,5.8 11,3.7 12.1,3.1 13,4 12.4,6 C 11.9,5.9 11.5,5.8 10.8,5.8 Z"
     id="path129" />
  <path
     style="fill:#fffa00"
     class="st7"
     d="m 9.8,4.8 0,0.2 -0.1,0 0,0.4 0.6,0 0,-0.1 0.1,0 0,-0.1 0.1,0 0,-0.2 -0.1,-0.1 0,-0.2 0.1,-0.1 -0.4,0 0,-0.1 -0.1,0 -0.1,0.1 0,0.1 0,-0.1 -0.1,0 0,0.2 z"
     id="path131" />
  <path
     class="st8"
     d="m 9.8,4.8 0,0.2 -0.1,0 0,0.4 0.6,0 0,-0.1 0.1,0 0,-0.1 0.1,0 0,-0.2 -0.1,-0.1 0,-0.2 0.1,-0.1 -0.4,0 0,-0.1 -0.1,0 -0.1,0.1 0,0.1 0,-0.1 -0.1,0 0,0.2 z m 0.5,0.4 0.1,-0.1"
     id="path133" />
  <path
     style="fill:#cca300"
     class="st9"
     d="m 9.7,5.1 0.1,0.1 0,0.1 0,-0.1 0.1,0 0,0.1 0.2,0 0,-0.1 0.1,0 0,-0.2 0.2,0 -0.1,-0.1 0,-0.1 0,0.1 0,0.1 -0.1,0 0,0.2 -0.1,0 0,-0.2 -0.2,0 0,0.1 -0.2,0 z"
     id="path135" />
  <path
     class="st8"
     d="m 9.7,5.1 0.1,0.1 0,0.1 0,-0.1 0.1,0 0,0.1 0.2,0 0,-0.1 0.1,0 0,-0.2 0.2,0 -0.1,-0.1 0,-0.1 0,0.1 0,0.1 -0.1,0 0,0.2 -0.1,0 0,-0.2 -0.2,0 0,0.1 -0.2,0 z"
     id="path137" />
  <path
     style="fill:#663d19"
     class="st10"
     d="m 10,5.2 0.1,0 -0.1,0 z"
     id="path139" />
  <path
     class="st11"
     d="m 10,5.2 0.1,0 -0.1,0 z"
     id="path141" />
  <path
     style="fill:#cca300"
     class="st9"
     d="M 10.2,4.9 10.1,5 9.9,5 l 0.2,0 0,-0.1 0.1,0 0,0.1 0,-0.1 z"
     id="path143" />
  <path
     class="st8"
     d="M 10.2,4.9 10.1,5 9.9,5 l 0.2,0 0,-0.1 0.1,0 0,0.1 0,-0.1 z"
     id="path145" />
  <path
     style="fill:#663d19"
     class="st10"
     d="m 9.9,5 z m 0.2,0 z"
     id="path147" />
  <path
     class="st8"
     d="m 9.8,4.8 0.4,0"
     id="path149" />
  <path
     style="fill:#cca300"
     class="st9"
     d="M 9.9,4.7 9.8,4.6 9.9,4.7 Z"
     id="path151" />
  <path
     class="st8"
     d="M 9.9,4.7 9.8,4.6 9.9,4.7 Z"
     id="path153" />
  <path
     style="fill:#cca300"
     class="st9"
     d="M 10.2,4.7 10.3,4.6 10.2,4.7 Z"
     id="path155" />
  <path
     class="st8"
     d="M 10.2,4.7 10.3,4.6 10.2,4.7 Z"
     id="path157" />
  <path
     style="fill:#cca300"
     class="st9"
     d="m 10.1,4.7 -0.2,0 0.1,0 0.1,0 z"
     id="path159" />
  <path
     class="st8"
     d="m 10.1,4.7 -0.2,0 0.1,0 0.1,0 z"
     id="path161" />
  <path
     style="fill:#cca300"
     class="st9"
     d="M 10.1,4.7 Z"
     id="path163" />
  <path
     class="st8"
     d="M 10.1,4.7 Z"
     id="path165" />
  <path
     style="fill:#cca300"
     class="st9"
     d="M 10,4.6 Z"
     id="path167" />
  <path
     class="st8"
     d="M 10,4.6 Z"
     id="path169" />
  <path
     style="fill:#cca300"
     class="st9"
     d="m 9.7,5.2 0,-0.1 0,0.1 z"
     id="path171" />
  <path
     class="st8"
     d="m 9.7,5.2 0,-0.1 0,0.1 z"
     id="path173" />
  <path
     style="fill:#cca300"
     class="st9"
     d="M 9.7,5.2 Z"
     id="path175" />
  <path
     class="st8"
     d="M 9.7,5.2 Z"
     id="path177" />
  <path
     style="fill:#de1818"
     class="st2"
     d="m 11.1,5.4 -0.1,0.1 0.2,0 0,-0.1 -0.1,0 z"
     id="path179" />
  <path
     class="st13"
     d="m 11.1,5.4 -0.1,0.1 0.2,0 0,-0.1 -0.1,0 z"
     id="path181" />
  <path
     style="fill:#de1818"
     class="st2"
     d="m 11.4,5.6 0.1,0 -0.1,0 z"
     id="path183" />
  <path
     class="st13"
     d="m 11.4,5.6 0.1,0 -0.1,0 z"
     id="path185" />
  <path
     style="fill:#de1818"
     class="st2"
     d="M 11.8,5.4 11.9,5.5 11.8,5.4 Z"
     id="path187" />
  <path
     class="st13"
     d="M 11.8,5.4 11.9,5.5 11.8,5.4 Z"
     id="path189" />
  <path
     style="fill:#de1818"
     class="st2"
     d="m 12.2,5.5 -0.1,0.1 0.1,0 c 0.1,0 0,-0.1 0,-0.1 z"
     id="path191" />
  <path
     class="st13"
     d="m 12.2,5.5 -0.1,0.1 0.1,0 c 0.1,0 0,-0.1 0,-0.1 z"
     id="path193" />
  <path
     style="fill:#de1818"
     class="st2"
     d="m 11.4,4.2 0.2,0.1 0.2,0 0.2,0.1 0.3,0 c 0.1,0 0.2,-0.1 0.2,-0.1 l -0.2,0 -0.2,-0.1 0.2,0 0.1,-0.1 -0.2,0 L 12,4 11.7,4 11.4,4.2 Z"
     id="path195" />
  <path
     class="st14"
     d="m 11.4,4.2 0.2,0.1 0.2,0 0.2,0.1 0.3,0 c 0.1,0 0.2,-0.1 0.2,-0.1 l -0.2,0 -0.2,-0.1 0.2,0 0.1,-0.1 -0.2,0 L 12,4 11.7,4 11.4,4.2 Z"
     id="path197" />
  <path
     style="fill:#8e3737"
     class="st15"
     d="M 11.4,4.1 Z"
     id="path199" />
  <path
     class="st16"
     d="M 11.4,4.1 Z"
     id="path201" />
  <path
     style="fill:#8e3737"
     class="st15"
     d="M 11.6,4.3 Z"
     id="path203" />
  <path
     class="st16"
     d="M 11.6,4.3 Z"
     id="path205" />
  <path
     style="fill:#8e3737"
     class="st15"
     d="m 11.6,4.1 0,0.1 0,-0.1 z"
     id="path207" />
  <path
     class="st16"
     d="m 11.6,4.1 0,0.1 0,-0.1 z"
     id="path209" />
  <path
     style="fill:#8e3737"
     class="st15"
     d="m 11.8,4.1 0,0.1 0,-0.1 z"
     id="path211" />
  <path
     class="st16"
     d="m 11.8,4.1 0,0.1 0,-0.1 z"
     id="path213" />
  <path
     style="fill:#8e3737"
     class="st15"
     d="m 11.8,4.3 0,-0.1 0,0.1 z"
     id="path215" />
  <path
     class="st16"
     d="m 11.8,4.3 0,-0.1 0,0.1 z"
     id="path217" />
  <path
     style="fill:#8e3737"
     class="st15"
     d="m 12,4.2 0,0.1 0,-0.1 z"
     id="path219" />
  <path
     class="st16"
     d="m 12,4.2 0,0.1 0,-0.1 z"
     id="path221" />
  <path
     style="fill:#8e3737"
     class="st15"
     d="M 12,4.2 Z"
     id="path223" />
  <path
     class="st16"
     d="M 12,4.2 Z"
     id="path225" />
  <path
     style="fill:#8e3737"
     class="st15"
     d="M 12.1,4.2 Z"
     id="path227" />
  <path
     class="st16"
     d="M 12.1,4.2 Z"
     id="path229" />
  <path
     style="fill:#8e3737"
     class="st15"
     d="M 12.1,4.3 Z"
     id="path231" />
  <path
     class="st16"
     d="M 12.1,4.3 Z"
     id="path233" />
  <path
     style="fill:#8e3737"
     class="st15"
     d="M 12.3,4.3 Z"
     id="path235" />
  <path
     class="st16"
     d="M 12.3,4.3 Z"
     id="path237" />
  <path
     style="fill:#fffa00"
     class="st7"
     d="m 11.4,4.2 -0.2,0 0,0.1 0.1,0.1 0,0.3 0.1,0 0,0.1 0.1,0 -0.1,0.1 0,0.4 -0.1,0.1 -0.1,0.1 0.1,0 0,-0.1 0.1,-0.2 0.2,0 0,0.2 -0.1,0.1 0.1,0 0.1,-0.1 0,-0.1 0.1,-0.2 0.3,0 -0.1,0.2 0.2,0 0,-0.1 0.1,-0.1 0.1,0.1 0,0.1 -0.1,0.1 0.1,0 0.1,-0.1 0,-0.1 0.1,-0.1 0,-0.3 0.1,-0.1 0,-0.2 -1,0 -0.1,-0.2 c 0.1,0 0.2,-0.1 0.2,-0.1 l -0.2,0 c 0,0.1 -0.2,0 -0.2,0 z"
     id="path239" />
  <path
     class="st17"
     d="m 11.4,4.2 -0.2,0 0,0.1 0.1,0.1 0,0.3 0.1,0 0,0.1 0.1,0 -0.1,0.1 0,0.4 -0.1,0.1 -0.1,0.1 0.1,0 0,-0.1 0.1,-0.2 0.2,0 0,0.2 -0.1,0.1 0.1,0 0.1,-0.1 0,-0.1 0.1,-0.2 0.3,0 -0.1,0.2 0.2,0 0,-0.1 0.1,-0.1 0.1,0.1 0,0.1 -0.1,0.1 0.1,0 0.1,-0.1 0,-0.1 0.1,-0.1 0,-0.3 0.1,-0.1 0,-0.2 -1,0 -0.1,-0.2 c 0.1,0 0.2,-0.1 0.2,-0.1 l -0.2,0 c 0,0.1 -0.2,0 -0.2,0 z"
     id="path241" />
  <path
     style="fill:#664c00"
     class="st18"
     d="m 11.3,4.4 0.1,0 -0.1,0 z"
     id="path243" />
  <path
     class="st19"
     d="m 11.3,4.4 0.1,0 -0.1,0 z"
     id="path245" />
  <path
     style="fill:#cca300"
     class="st9"
     d="m 11.4,4.9 0,-0.1 0,0.1 z"
     id="path247" />
  <path
     class="st8"
     d="m 11.4,4.9 0,-0.1 0,0.1 z"
     id="path249" />
  <path
     style="fill:#cca300"
     class="st9"
     d="m 11.7,4.9 0,-0.1 c -0.1,0 0,0.1 0,0.1 z"
     id="path251" />
  <path
     class="st8"
     d="m 11.7,4.9 0,-0.1 c -0.1,0 0,0.1 0,0.1 z"
     id="path253" />
  <path
     style="fill:#cca300"
     class="st9"
     d="m 11.8,4.9 0,-0.1 0,0.1 z"
     id="path255" />
  <path
     class="st8"
     d="m 11.8,4.9 0,-0.1 0,0.1 z"
     id="path257" />
  <path
     style="fill:#cca300"
     class="st9"
     d="M 11.8,5.1 11.9,4.9 11.8,5.1 Z"
     id="path259" />
  <path
     class="st8"
     d="M 11.8,5.1 11.9,4.9 11.8,5.1 Z"
     id="path261" />
  <path
     style="fill:#cca300"
     class="st9"
     d="m 11.9,5.1 0,-0.2 c 0.1,0 0.1,0.1 0,0.2 z"
     id="path263" />
  <path
     class="st8"
     d="m 11.9,5.1 0,-0.2 c 0.1,0 0.1,0.1 0,0.2 z"
     id="path265" />
  <path
     style="fill:#cca300"
     class="st9"
     d="m 12,4.8 0,-0.1 0,0.1 z"
     id="path267" />
  <path
     class="st8"
     d="m 12,4.8 0,-0.1 0,0.1 z"
     id="path269" />
  <path
     style="fill:#cca300"
     class="st9"
     d="m 12.2,4.9 0,-0.2 0,0.2 z"
     id="path271" />
  <path
     class="st8"
     d="m 12.2,4.9 0,-0.2 0,0.2 z"
     id="path273" />
  <path
     style="fill:#cca300"
     class="st9"
     d="m 12.3,4.8 0,0.2 0.1,0 -0.1,-0.1 0,-0.1 z"
     id="path275" />
  <path
     class="st8"
     d="m 12.3,4.8 0,0.2 0.1,0 -0.1,-0.1 0,-0.1 z"
     id="path277" />
  <path
     style="fill:#ffffff"
     class="st0"
     d="m 12.8,4.7 0.9,0.2 C 14,5 14.3,5.1 14.5,5.2 L 14,6.2 13.2,5.9 12.4,5.7 c 0.1,0 0.4,-1 0.4,-1 z"
     id="path279" />
  <path
     class="st20"
     d="m 12.8,4.7 0.9,0.2 C 14,5 14.3,5.1 14.5,5.2 L 14,6.2 13.2,5.9 12.4,5.7 c 0.1,0 0.4,-1 0.4,-1 z"
     id="path281" />
  <path
     style="fill:#de1818"
     class="st2"
     d="m 12.7,4.9 c 0,0 0.4,0.1 0.9,0.2 0.4,0.1 0.8,0.3 0.8,0.3 L 14.2,6 13.4,5.7 C 13.1,5.6 12.9,5.5 12.6,5.5 l 0.1,-0.6 z"
     id="path283" />
  <path
     class="st13"
     d="m 12.7,4.9 c 0,0 0.4,0.1 0.9,0.2 0.4,0.1 0.8,0.3 0.8,0.3 L 14.2,6 13.4,5.7 C 13.1,5.6 12.9,5.5 12.6,5.5 l 0.1,-0.6 z"
     id="path285" />
  <path
     d="m 12.8,5.2 0.2,-0.1 0,0.1 0.1,0.1 0.1,0.1 0.4,0 0.1,0.1 0.4,0 c 0,0 0,0.1 -0.1,0.1 l -0.3,-0.1 0.1,0.1 0,0.1 0,-0.1 -0.1,0 -0.2,-0.1 -0.1,0.1 -0.3,0 0.1,0 0.1,0 0,-0.1 0.1,0 c 0,-0.1 0,-0.1 -0.1,-0.1 l -1,0 0.2,0 0.1,0 0.2,0 0,-0.2 z"
     id="path287" />
  <path
     class="st21"
     d="m 12.8,5.2 0.2,-0.1 0,0.1 0.1,0.1 0.1,0.1 0.4,0 0.1,0.1 0.4,0 c 0,0 0,0.1 -0.1,0.1 l -0.3,-0.1 0.1,0.1 0,0.1 0,-0.1 -0.1,0 -0.2,-0.1 -0.1,0.1 -0.3,0 0.1,0 0.1,0 0,-0.1 0.1,0 c 0,-0.1 0,-0.1 -0.1,-0.1 l -1,0 0.2,0 0.1,0 0.2,0 0,-0.2 z"
     id="path289" />
  <path
     style="fill:#ffffff"
     class="st0"
     d="m 13.4,5.5 0.2,0 c 0,-0.1 0,-0.1 -0.1,-0.1 l -0.3,0 c 0.1,0 0.2,0.1 0.2,0.1 z"
     id="path291" />
  <path
     class="st21"
     d="m 13.4,5.5 0.2,0 c 0,-0.1 0,-0.1 -0.1,-0.1 l -0.3,0 c 0.1,0 0.2,0.1 0.2,0.1 z"
     id="path293" />
  <path
     style="fill:#00298c"
     class="st1"
     d="M 7.6,6 7,4 7.8,3 9,3.7 9.2,5.8 C 8.6,5.8 8.2,5.9 7.6,6 Z"
     id="path295" />
  <path
     class="st12"
     d="M 7.6,6 7,4 7.8,3 9,3.7 9.2,5.8 C 8.6,5.8 8.2,5.9 7.6,6 Z"
     id="path297" />
  <path
     style="fill:#fffa00"
     class="st7"
     d="M 5.7,4.4 5.9,4.6 5.9,4.9 6.1,4.8 6.3,5 6.3,4.8 6.5,4.7 6.3,4.5 6.3,4.3 6.1,4.4 6,4 6,4.2 5.7,4.4 Z"
     id="path299" />
  <path
     class="st22"
     d="M 5.7,4.4 5.9,4.6 5.9,4.9 6.1,4.8 6.3,5 6.3,4.8 6.5,4.7 6.3,4.5 6.3,4.3 6.1,4.4 6,4 6,4.2 5.7,4.4 Z"
     id="path301" />
  <path
     style="fill:#ffc500"
     class="st23"
     d="M 5.7,4.4 6.5,4.5 6.3,4.6 6.1,4.5 6.3,4.9 6.1,4.8 6.1,4.6 5.8,4.9 5.8,4.6 C 5.9,4.5 5.7,4.4 5.7,4.4 Z"
     id="path303" />
  <path
     style="fill:#ffc700"
     class="st24"
     d="M 5.9,4.3 6.1,4.5 6,4 5.9,4.3 Z M 6.1,4.2 6.1,4.4 6.4,4.1 6.1,4.2 Z"
     id="path305" />
  <path
     style="fill:#fffa00"
     class="st7"
     d="m 13.6,4 0,0.2 -0.2,0.2 0.3,0.1 0.1,0.2 0.2,-0.2 0.2,0.1 0,-0.2 0.2,-0.2 -0.2,-0.1 0,-0.2 L 14,4 13.6,4 Z"
     id="path307" />
  <path
     class="st22"
     d="m 13.6,4 0,0.2 -0.2,0.2 0.3,0.1 0.1,0.2 0.2,-0.2 0.2,0.1 0,-0.2 0.2,-0.2 -0.2,-0.1 0,-0.2 L 14,4 13.6,4 Z"
     id="path309" />
  <path
     style="fill:#ffc700"
     class="st24"
     d="M 13.6,4 14.1,4.6 14,4.6 13.9,4.4 13.8,4.8 13.7,4.6 13.9,4.4 13.5,4.5 13.7,4.3 13.6,4 Z m 0.3,0.1 0,0.2 0.1,-0.4 -0.1,0.2 z m 0.2,0.1 -0.2,0.2 0.4,-0.1 -0.2,-0.1 z"
     id="path311" />
  <path
     style="fill:#de1818"
     class="st2"
     d="M 7,4 C 7.3,3.9 7.6,3.8 8,3.7 L 9,3.6 9,4.1 C 8.7,4.1 8.5,4.1 8.1,4.2 7.6,4.3 7.4,4.3 7.2,4.4 7.2,4.5 7,4 7,4 Z"
     id="path313" />
  <path
     class="st13"
     d="M 7,4 C 7.3,3.9 7.6,3.8 8,3.7 L 9,3.6 9,4.1 C 8.7,4.1 8.5,4.1 8.1,4.2 7.6,4.3 7.4,4.3 7.2,4.4 7.2,4.5 7,4 7,4 Z"
     id="path315" />
  <path
     style="fill:#de1818"
     class="st2"
     d="M 7.3,5 7.4,5.5 C 7.7,5.4 8,5.4 8.2,5.3 L 9.1,5.2 9.1,4.7 8.2,4.7 7.3,5 Z"
     id="path317" />
  <path
     class="st13"
     d="M 7.3,5 7.4,5.5 C 7.7,5.4 8,5.4 8.2,5.3 L 9.1,5.2 9.1,4.7 8.2,4.7 7.3,5 Z"
     id="path319" />
  <path
     style="fill:#ffffff"
     class="st0"
     d="m 6,6.6 8,0 0,5.2 c -0.2,2 -2.1,3.5 -3.9,3.5 C 8.2,15.4 6.1,13.8 5.9,11.8 6,11.8 6,6.6 6,6.6 Z"
     id="path321" />
  <path
     class="st25"
     d="m 6,6.6 8,0 0,5.2 c -0.2,2 -2.1,3.5 -3.9,3.5 C 8.2,15.4 6.1,13.8 5.9,11.8 6,11.8 6,6.6 6,6.6 Z"
     id="path323" />
  <path
     style="fill:#de1818"
     class="st2"
     d="m 6.1,6.8 7.7,0 0,5 c -0.2,1.9 -2.1,3.4 -3.7,3.4 -1.8,0.1 -3.9,-1.4 -4,-3.4 l 0,-5 z"
     id="path325" />
  <path
     class="st26"
     d="m 6.1,6.8 7.7,0 0,5 c -0.2,1.9 -2.1,3.4 -3.7,3.4 -1.8,0.1 -3.9,-1.4 -4,-3.4 l 0,-5 z"
     id="path327" />
  <path
     style="fill:#ffffff"
     class="st0"
     d="m 7.7,6.8 1.5,0 0,1.7 -1.5,0 0,-1.7 z m 4.6,5 0,1.6 0.9,0 c 0.4,-0.6 0.6,-1.2 0.6,-1.6 l -1.5,0 z"
     id="path329" />
  <path
     class="st20"
     d="m 12.3,11.8 0,1.6 0.9,0 c 0.4,-0.6 0.6,-1.2 0.6,-1.6 l -1.5,0 z"
     id="path331" />
  <path
     style="fill:#ffffff"
     class="st0"
     d="m 10.8,13.5 0,1.5 c 0.7,-0.1 1.2,-0.5 1.5,-0.7 l 0,-0.9 -1.5,0.1 z"
     id="path333" />
  <path
     class="st20"
     d="m 10.8,13.5 0,1.5 c 0.7,-0.1 1.2,-0.5 1.5,-0.7 l 0,-0.9 -1.5,0.1 z"
     id="path335" />
  <path
     style="fill:#ffffff"
     class="st0"
     d="m 7.7,13.5 0,0.9 c 0.5,0.4 1.1,0.6 1.5,0.7 l 0,-1.6 -1.5,0 z"
     id="path337" />
  <path
     class="st20"
     d="m 7.7,13.5 0,0.9 c 0.5,0.4 1.1,0.6 1.5,0.7 l 0,-1.6 -1.5,0 z"
     id="path339" />
  <path
     style="fill:#ffffff"
     class="st0"
     d="m 6.2,11.8 c 0,0.6 0.3,1.2 0.6,1.6 l 0.9,0 0,-1.6 -1.5,0 z"
     id="path341" />
  <path
     class="st20"
     d="m 6.2,11.8 c 0,0.6 0.3,1.2 0.6,1.6 l 0.9,0 0,-1.6 -1.5,0 z"
     id="path343" />
  <path
     style="fill:#ffffff"
     class="st0"
     d="m 6.2,8.5 1.5,0 0,1.7 -1.5,0 0,-1.7 z m 3,0 1.5,0 0,1.7 -1.5,0 0,-1.7 z m 1.6,-1.7 1.5,0 0,1.7 -1.5,0 0,-1.7 z m 1.5,1.7 1.5,0 0,1.7 -1.5,0 0,-1.7 z m -4.6,1.7 1.5,0 0,1.7 -1.5,0 0,-1.7 z m 3.1,0 1.5,0 0,1.7 -1.5,0 0,-1.7 z m -1.6,1.6 1.5,0 0,1.7 -1.5,0 0,-1.7 z"
     id="path345" />
  <path
     style="fill:#cca300"
     class="st9"
     d="M 11.5,4.9 11.4,4.7 c 0.1,0.1 0.1,0.1 0.1,0.2 z"
     id="path347" />
  <path
     class="st8"
     d="M 11.5,4.9 11.4,4.7 c 0.1,0.1 0.1,0.1 0.1,0.2 z"
     id="path349" />
  <path
     style="fill:#cccccc"
     id="path351"
     class="st27"
     d="M 10,0 C 4.5,0 0,4.5 0,10 0,15.5 4.5,20 10,20 15.5,20 20,15.5 20,10 20,4.5 15.5,0 10,0 Z m 0,19 C 5,19 1,15 1,10 1,5 5,1 10,1 c 5,0 9,4 9,9 0,5 -4,9 -9,9 z" />
</svg>
