<?xml version="1.0" encoding="UTF-8" standalone="no"?>
<svg
   xmlns:dc="http://purl.org/dc/elements/1.1/"
   xmlns:cc="http://creativecommons.org/ns#"
   xmlns:rdf="http://www.w3.org/1999/02/22-rdf-syntax-ns#"
   xmlns:svg="http://www.w3.org/2000/svg"
   xmlns="http://www.w3.org/2000/svg"
   version="1.1"
   id="svg198"
   enable-background="new 0 0 20 20"
   viewBox="0 0 20 20">
  <metadata
     id="metadata208">
    <rdf:RDF>
      <cc:Work
         rdf:about="">
        <dc:format>image/svg+xml</dc:format>
        <dc:type
           rdf:resource="http://purl.org/dc/dcmitype/StillImage" />
        <dc:title></dc:title>
      </cc:Work>
    </rdf:RDF>
  </metadata>
  <defs
     id="defs206" />
  <style
     type="text/css"
     id="style3">.st0{fill:#FFFFFF;} .st1{fill:#CE1126;} .st2{fill:#CCCCCC;}</style>
  <circle
     style="fill:#ffffff"
     class="st0"
     cx="10"
     cy="10"
     r="10"
     id="circle5" />
  <path
     style="fill:#ce1126"
     class="st1"
     d="m 10,0.169 c -5.22,0 -9.492,4.347 -9.492,9.661 l 18.983,0 c 0,-5.314 -4.271,-9.661 -9.492,-9.661 z"
     id="path7" />
  <path
     style="fill:#cccccc"
     id="path11"
     class="st2"
     d="M 10,0 C 4.5,0 0,4.5 0,10 0,15.5 4.5,20 10,20 15.5,20 20,15.5 20,10 20,4.5 15.5,0 10,0 Z m 0,19 C 5,19 1,15 1,10 1,5 5,1 10,1 c 5,0 9,4 9,9 0,5 -4,9 -9,9 z" />
</svg>
