<?xml version="1.0" encoding="UTF-8" standalone="no"?>
<svg
   xmlns:dc="http://purl.org/dc/elements/1.1/"
   xmlns:cc="http://creativecommons.org/ns#"
   xmlns:rdf="http://www.w3.org/1999/02/22-rdf-syntax-ns#"
   xmlns:svg="http://www.w3.org/2000/svg"
   xmlns="http://www.w3.org/2000/svg"
   version="1.1"
   id="svg210"
   enable-background="new 0 0 20 20"
   viewBox="0 0 20 20">
  <metadata
     id="metadata220">
    <rdf:RDF>
      <cc:Work
         rdf:about="">
        <dc:format>image/svg+xml</dc:format>
        <dc:type
           rdf:resource="http://purl.org/dc/dcmitype/StillImage" />
        <dc:title></dc:title>
      </cc:Work>
    </rdf:RDF>
  </metadata>
  <defs
     id="defs218" />
  <style
     type="text/css"
     id="style3">.st0{fill:#FFFFFF;} .st1{fill:#0038B8;} .st2{fill:#CCCCCC;}</style>
  <circle
     style="fill:#ffffff"
     class="st0"
     cx="10"
     cy="10"
     r="10"
     id="circle5" />
  <path
     style="fill:#0038b8"
     class="st1"
     d="m 15.557,2.239 -11.115,0 C 3.292,3.006 2.43,4.059 1.663,5.209 l 16.576,0 C 17.568,4.059 16.706,3.005 15.556,2.239 Z m 2.779,12.552 -16.672,0 c 0.671,1.15 1.629,2.204 2.683,2.97 l 11.115,0 c 1.246,-0.767 2.108,-1.82 2.874,-2.97 z M 12.395,10 13.545,7.892 11.15,7.892 10,5.88 8.85,7.988 l -2.491,0 1.246,2.012 -1.15,2.108 2.395,0 1.15,2.012 1.15,-2.108 2.395,0 L 12.395,10 Z m 0.096,-1.437 -0.479,0.767 -0.479,-0.767 0.958,0 z M 11.629,10 l -0.862,1.437 -1.629,0 L 8.371,10 9.233,8.563 l 1.629,0 L 11.629,10 Z M 10,7.126 10.479,7.893 9.521,7.893 10,7.126 Z m -2.491,1.437 0.862,0 L 7.892,9.33 7.509,8.563 Z m 0,2.874 0.479,-0.767 0.479,0.767 -0.958,0 z M 10,12.874 9.521,12.107 l 0.862,0 c 0.096,0 -0.383,0.767 -0.383,0.767 z m 2.012,-2.204 0.479,0.767 -0.958,0 0.479,-0.767 z"
     id="path7" />
  <path
     style="fill:#cccccc"
     id="path11"
     class="st2"
     d="M 10,0 C 4.5,0 0,4.5 0,10 0,15.5 4.5,20 10,20 15.5,20 20,15.5 20,10 20,4.5 15.5,0 10,0 Z m 0,19 C 5,19 1,15 1,10 1,5 5,1 10,1 c 5,0 9,4 9,9 0,5 -4,9 -9,9 z" />
</svg>
