<?xml version="1.0" encoding="UTF-8" standalone="no"?>
<svg
   xmlns:dc="http://purl.org/dc/elements/1.1/"
   xmlns:cc="http://creativecommons.org/ns#"
   xmlns:rdf="http://www.w3.org/1999/02/22-rdf-syntax-ns#"
   xmlns:svg="http://www.w3.org/2000/svg"
   xmlns="http://www.w3.org/2000/svg"
   version="1.1"
   id="svg222"
   enable-background="new 0 0 20 20"
   viewBox="0 0 20 20">
  <metadata
     id="metadata234">
    <rdf:RDF>
      <cc:Work
         rdf:about="">
        <dc:format>image/svg+xml</dc:format>
        <dc:type
           rdf:resource="http://purl.org/dc/dcmitype/StillImage" />
        <dc:title></dc:title>
      </cc:Work>
    </rdf:RDF>
  </metadata>
  <defs
     id="defs232" />
  <style
     type="text/css"
     id="style3">.st0{fill:#FFFFFF;} .st1{fill:#FF9932;} .st2{fill:#128807;} .st3{fill:#000080;} .st4{fill:#CCCCCC;}</style>
  <circle
     style="fill:#ffffff"
     class="st0"
     cx="10"
     cy="10"
     r="10"
     id="circle5" />
  <path
     style="fill:#ff9932"
     class="st1"
     d="m 10,0.631 c -4.122,0 -7.495,2.623 -8.807,6.277 l 17.614,0 C 17.495,3.254 14.123,0.631 10,0.631 Z"
     id="path7" />
  <path
     style="fill:#128807"
     class="st2"
     d="m 18.807,13.092 -17.614,0 c 1.312,3.654 4.684,6.277 8.807,6.277 4.122,0 7.495,-2.623 8.807,-6.277 z"
     id="path9" />
  <path
     style="fill:#000080"
     class="st3"
     d="m 10,7.096 c -1.593,0 -2.904,1.312 -2.904,2.904 0,1.593 1.312,2.904 2.904,2.904 1.593,0 2.904,-1.312 2.904,-2.904 C 12.904,8.407 11.592,7.096 10,7.096 Z M 9.813,12.53 c 0,-0.094 -0.094,-0.187 -0.094,-0.187 -0.094,0 -0.187,0.094 -0.187,0.094 L 9.345,12.343 9.813,10.938 c 0,0 0.094,-0.375 0.187,-0.937 -0.187,0.562 -0.281,0.937 -0.375,1.031 L 9.344,12.531 9.157,12.437 c 0,-0.094 0,-0.187 -0.094,-0.187 -0.094,0 -0.187,0 -0.187,0.094 L 8.689,12.25 9.532,10.938 c 0,-0.094 0.187,-0.468 0.468,-0.937 -0.281,0.468 -0.468,0.75 -0.656,0.843 L 8.688,12.156 8.501,12.062 c 0.094,-0.094 0,-0.187 0,-0.187 -0.094,-0.094 -0.187,0 -0.187,0 L 8.127,11.781 9.251,10.75 C 9.345,10.656 9.626,10.469 10.001,10 9.533,10.375 9.345,10.656 9.158,10.656 L 8.127,11.78 8.033,11.593 c 0.094,0 0.094,-0.094 0.094,-0.094 -0.094,-0.094 -0.187,-0.094 -0.187,0 L 7.846,11.312 9.158,10.656 C 9.252,10.469 9.533,10.281 10.001,10 9.439,10.281 9.158,10.468 9.064,10.468 L 7.846,11.311 7.752,11.124 c 0.094,0 0.094,-0.094 0.094,-0.187 0,-0.094 -0.094,-0.094 -0.187,-0.094 L 7.565,10.656 9.064,10.375 c 0,-0.094 0.375,-0.187 0.937,-0.375 L 8.97,10.187 7.565,10.655 7.471,10.468 c 0.094,0 0.094,-0.094 0.094,-0.187 0,-0.094 -0.094,-0.094 -0.187,-0.094 l 0,-0.374 c 0.094,0 0.187,-0.094 0.187,-0.094 0,-0.094 -0.094,-0.187 -0.094,-0.187 L 7.565,9.345 8.97,9.813 10.001,10 C 9.439,9.813 9.064,9.719 8.97,9.625 L 7.471,9.344 7.565,9.157 c 0.094,0 0.187,0 0.187,-0.094 0,-0.094 0,-0.187 -0.094,-0.187 L 7.752,8.689 9.064,9.532 C 9.158,9.532 9.532,9.719 10.001,10 9.533,9.719 9.251,9.532 9.158,9.344 L 7.846,8.688 7.94,8.501 c 0.094,0.094 0.187,0 0.187,0 0.094,-0.094 0,-0.187 0,-0.187 L 8.221,8.127 9.252,9.251 c 0.094,0.094 0.281,0.375 0.75,0.75 C 9.627,9.533 9.346,9.345 9.346,9.158 L 8.222,8.127 8.409,8.033 c 0,0.094 0.094,0.094 0.094,0.094 0.094,-0.094 0.094,-0.187 0,-0.187 L 8.69,7.846 9.346,9.158 C 9.533,9.252 9.721,9.533 10.002,10.001 9.721,9.439 9.534,9.158 9.534,9.064 L 8.691,7.846 8.878,7.752 c 0,0.094 0.094,0.094 0.187,0.094 0.094,0 0.094,-0.094 0.094,-0.187 L 9.346,7.565 9.627,9.064 c 0.094,0 0.187,0.375 0.375,0.937 L 9.815,8.97 9.347,7.565 9.534,7.471 c 0,0.094 0.094,0.094 0.187,0.094 0.094,0 0.094,-0.094 0.094,-0.187 l 0.374,0 c 0,0.094 0.094,0.187 0.094,0.187 0.094,0 0.187,0 0.187,-0.094 l 0.187,0.094 -0.468,1.405 -0.187,1.031 C 10.189,9.439 10.283,9.064 10.377,8.97 l 0.281,-1.499 0.187,0.094 c 0,0.094 0,0.187 0.094,0.187 0.094,0 0.187,0 0.187,-0.094 l 0.187,0.094 -0.843,1.312 c 0,0.094 -0.187,0.468 -0.468,0.937 0.281,-0.468 0.468,-0.75 0.656,-0.843 l 0.656,-1.312 0.187,0.094 c -0.094,0.094 0,0.187 0,0.187 0.094,0.094 0.187,0 0.187,0 l 0.187,0.094 -1.124,1.031 c -0.094,0.094 -0.375,0.281 -0.75,0.75 0.468,-0.375 0.656,-0.656 0.843,-0.656 l 1.031,-1.124 0.094,0.187 c -0.094,0 -0.094,0.094 -0.094,0.094 0.094,0.094 0.187,0.094 0.187,0 l 0.094,0.187 -1.312,0.656 c -0.094,0.187 -0.375,0.375 -0.843,0.656 0.562,-0.281 0.843,-0.468 0.937,-0.468 l 1.218,-0.843 0.094,0.187 c -0.094,0 -0.094,0.094 -0.094,0.187 0,0.094 0.094,0.094 0.187,0.094 l 0.094,0.187 -1.499,0.281 c 0,0.094 -0.375,0.187 -0.937,0.375 l 1.031,-0.187 1.405,-0.468 0.094,0.187 c -0.094,0 -0.094,0.094 -0.094,0.187 0,0.094 0.094,0.094 0.187,0.094 l 0,0.374 c -0.094,0 -0.187,0.094 -0.187,0.094 0,0.094 0.094,0.187 0.094,0.187 l -0.094,0.187 -1.405,-0.468 -1.031,-0.187 c 0.562,0.187 0.937,0.281 1.031,0.375 l 1.499,0.281 -0.094,0.187 c -0.094,0 -0.187,0 -0.187,0.094 0,0.094 0,0.187 0.094,0.187 L 12.25,11.313 10.938,10.47 c -0.094,0 -0.468,-0.187 -0.937,-0.468 0.468,0.281 0.75,0.468 0.843,0.656 l 1.312,0.656 -0.094,0.187 c -0.094,-0.094 -0.187,0 -0.187,0 -0.094,0.094 0,0.187 0,0.187 l -0.094,0.187 -1.031,-1.124 c -0.094,-0.094 -0.281,-0.375 -0.75,-0.75 0.375,0.468 0.656,0.656 0.656,0.843 l 1.124,1.031 -0.187,0.094 c 0,-0.094 -0.094,-0.094 -0.094,-0.094 -0.094,0.094 -0.094,0.187 0,0.187 l -0.187,0.094 -0.656,-1.312 C 10.469,10.75 10.281,10.469 10,10.001 c 0.281,0.468 0.468,0.843 0.468,0.937 l 0.843,1.218 -0.187,0.094 c 0,-0.094 -0.094,-0.094 -0.187,-0.094 -0.094,0 -0.094,0.094 -0.094,0.187 l -0.187,0.094 -0.281,-1.499 c -0.094,0 -0.187,-0.375 -0.375,-0.937 l 0.187,1.031 0.468,1.405 -0.187,0.094 c 0,-0.094 -0.094,-0.094 -0.187,-0.094 -0.094,0 -0.094,0.094 -0.094,0.187 l -0.187,0 C 10,12.53 9.813,12.53 9.813,12.53 Z M 10,10 c 0,0.562 -0.094,0.937 -0.094,1.031 L 10,12.53 10.094,11.031 C 10.094,10.937 10,10.563 10,10 Z m -2.53,0 1.499,0.094 C 9.063,10.094 9.437,10 10,10 9.438,10 9.063,9.906 8.969,9.906 L 7.47,10 Z M 10,7.47 9.906,8.969 C 9.906,9.063 10,9.437 10,10 10,9.438 10.094,9.063 10.094,8.969 L 10,7.47 Z M 12.53,10 11.031,9.906 C 10.937,9.906 10.563,10 10,10 c 0.562,0 0.937,0.094 1.031,0.094 L 12.53,10 Z"
     id="path13" />
  <path
     style="fill:#cccccc"
     id="path11"
     class="st4"
     d="M 10,0 C 4.5,0 0,4.5 0,10 0,15.5 4.5,20 10,20 15.5,20 20,15.5 20,10 20,4.5 15.5,0 10,0 Z m 0,19 C 5,19 1,15 1,10 1,5 5,1 10,1 c 5,0 9,4 9,9 0,5 -4,9 -9,9 z" />
</svg>
