<svg xmlns="http://www.w3.org/2000/svg" xmlns:xlink="http://www.w3.org/1999/xlink" viewBox="-295 387 20 20" enable-background="new -295 387 20 20"><style type="text/css" id="style3">.st0{fill:#FFFFFF;} .st1{fill:#006847;} .st2{fill:#CE1126;} .st3{fill:#A8AC71;} .st4{fill:#F1A720;} .st5{fill:#78732E;} .st6{fill:#C6C7A6;} .st7{fill:#F8C83C;} .st8{fill:#977C2E;} .st9{fill:#AF7029;} .st10{fill:#816C2A;} .st11{fill:#FCCA3D;} .st12{fill:#6F5B24;} .st13{fill:#404118;} .st14{fill:#FCCA3E;} .st15{fill:#AA8C30;} .st16{fill:#9CA168;} .st17{fill:#717732;} .st18{fill:#016848;} .st19{fill:#CD202A;} .st20{fill:#30C2DC;} .st21{fill:#0872A7;} .st22{fill:#F9AA51;} .st23{fill:#953220;} .st24{fill:#231F20;} .st25{fill:#8CBEBF;} .st26{fill:#04534E;} .st27{fill:#0C8489;} .st28{fill:none;} .st29{fill:#F15770;} .st30{fill:#E92736;} .st31{fill:#F7E204;} .st32{fill:#904720;} .st33{fill:#AB6D29;} .st34{fill:#4D2A15;} .st35{fill:#D2A567;} .st36{fill:#8F4620;} .st37{fill:#202020;} .st38{fill:#202220;} .st39{fill:#4B4139;} .st40{fill:#803F1D;} .st41{fill:#B07229;} .st42{fill:#5C3A1D;} .st43{fill:#8B441F;} .st44{fill:#312317;} .st45{fill:#1E2121;} .st46{fill:#5C3818;} .st47{fill:#171717;} .st48{fill:#45392D;} .st49{fill:#DBAD6C;} .st50{fill:#874F20;} .st51{fill:#B27129;} .st52{fill:#6C3F18;} .st53{fill:#F16E16;} .st54{fill:#6C4119;} .st55{fill:#BF802D;} .st56{fill:#F9C83A;} .st57{fill:#FCF3D8;} .st58{fill:#FDEAAF;} .st59{fill:#513625;} .st60{fill:#8B5122;} .st61{fill:#CCCCCC;}</style><circle id="circle5" class="st0" cx="-284.9" cy="397" r="10"/><path id="path7" class="st1" d="M-294.3 397c0 3.2 1.6 5.9 4 7.6v-15.2c-2.4 1.7-4 4.4-4 7.6z"/><path id="path9" class="st2" d="M-275.5 397c0-3.1-1.5-5.9-3.9-7.6v15.2c2.4-1.7 3.9-4.5 3.9-7.6z"/><path id="path11" class="st3" d="M-286.8 394.8h-.4c-.1 0-.1-.4-.1-.4s-.1-.1-.1-.2.3-.3.3-.3h.1l.1-.1v.3l-.1.1v.1h.2l.1-.1s0 .1-.1.1l-.2.1s0 .1.1.1h.2l-.1.3zm-.8.8s.1 0 .1.2c0 .1-.1.2-.1.4s0 .2.3.4l.1.1c0 .1.1.5.3.5.3 0 .3-.2.3-.2h-.1c-.1 0-.1 0-.1-.1l-.1-.3c-.1-.2-.3-.2-.3-.4l.1-.4c0-.2-.3-.3-.3-.3h-.1l-.1.1z"/><path id="path13" class="st4" d="M-286.8 394.1c.1 0 0-.3 0-.3l-.1.1v.1c.1 0 .1.1.1.1z"/><path id="path15" class="st3" d="M-286.7 396.5s-.2-.1-.2-.5.6-.6.6-.8c0-.2.2-.2-.3-.6l-.1.1.2.1-.1.1s-.3.2-.3.3v.3s-.1.1-.1.2c-.1.2 0 .3 0 .3s-.1.5.3.5z"/><path id="path17" class="st5" d="M-286.9 396.8v.1h-.1l-.1.1v-.1h.1l.1-.1zm-.3 0l-.1-.1h.2l-.1.1zm.1-.3l.1.1h-.1v-.1zm0 .7l-.1-.1h.2l-.1.1zm.3-.2h-.1v.1l.1-.1zm-.3.2l.2.1v-.1h-.2zm.3 0l.1-.1v-.1l-.1.2zm-.1.1h.3l.1-.1h-.1l-.1.1c0-.1-.2 0-.2 0zm-.2-1.1v-.1h.1l-.1.1zm.1.2l-.1-.1h.1v.1z"/><path id="path19" class="st6" d="M-287.3 394.1v.1s.1 0 .2-.1l.2-.1v-.1h-.1l-.3.2z"/><path id="path23" class="st3" d="M-287.1 393.9h.2-.2z"/><path id="path25" class="st5" d="M-286.9 396.2v-.2.2zm-.2-.2v-.3.1l.1.1-.1.1zm.2 0v-.1.1"/><path id="path27" class="st5" d="M-287.1 395.7l.2-.2v.2h-.2zm.3.1l.1-.1-.1.1zm-.1-.4l.1-.1v.2l-.1-.1zm.2.3l.1-.1-.2-.1.1.2zm.1-.3v-.2l-.1.1-.1.1h.2zm.1-.2v-.1.1zm.1.2l.2-.2h-.2v.2zm-.4-.7l-.1.1h.2l-.1-.1zm.2.9l.1-.1h-.2l.1.1zm.4-.4v-.2l-.1.1v.1h.1zm-.2-.1l.1-.1h.1v.1h-.2zm.2-.1l-.1-.1v-.1l-.1.2h.2z"/><path id="path29" class="st0" d="M-287.1 394l.1-.1-.1.1v.2l-.1.2v.1-.1l.1-.2.1-.1-.1-.1h-.1.1zm-.3 2.4l.1-.1-.1.1-.2.1.2-.1zm.3 0h-.2v.1l.1-.1c-.1.1.1 0 .1 0zm-.2-.1h-.2l-.1.1.1-.1h.2zm.2.4h.4-.2-.2l-.1.1.1-.1zm.1.5l.1-.1.1-.1v.2h-.2zm-.1-.2l.2-.1v.1h-.2zm.4.2h-.2v-.1c.1 0 .2-.1.2-.1v.2l-.1-.2-.1.1v-.1h-.1l.1-.2-.1.2-.1-.1h.1l-.2.1v.1h.2l-.1.1h.2v.1s.1 0 .2-.1l.1-.1-.1.1zm-.8-1h.1-.1l-.1.1.1-.1zm.7.1h-.2.2l-.1.1.1-.1v.2h.1-.1v-.2zm.4-1.1l.1-.1v.1l.1.1c-.1-.1-.2-.1-.2-.1zm0 .2h-.2v-.2h.1c0 .1.1.2.1.2zm-.3.1v-.2l.1.1v.1h-.1zm0 .2h-.1v-.2l.1.2zm-.1.1l-.1.1-.1-.2s0 .1.1.1h.1zm-.1.2l-.1.1-.1-.1h.2zm.6-.8l.1-.2h-.2v-.2h-.2.1.1v.1h.2l-.1.3-.1-.2.1.2-.1-.1v.1h-.1v.2l-.1-.1v.2l-.3-.1v.2c-.1 0-.1-.1-.1-.1v.1s0 .1.1.2l-.2.2.1.1-.1.1.1-.1h.1-.1l.1-.1h-.1l.1-.1v-.2h.2l-.1-.1h.2v-.1h.2l-.1-.2h.3l-.1-.1zm-1.2.6h.2v-.1h-.1l-.1.1zm.4-1.2l.1-.1v.2l-.1-.1zm0-.1c.1 0 0 .1 0 .1l-.1.1v-.1l.1.1h.1v-.1l.1.1v-.1l.1-.1-.1.1v-.1l-.1.1c0-.1.1-.1.1-.1h-.2zm-.5 1v.1-.1zm.1.2l.1-.1-.1.1zm.2.2l-.2-.1.2.1zm-.2-.2l.2-.1v-.1l-.2.2zm0 .3h.1l.1.1-.1-.1h-.1z"/><path id="path31" class="st5" d="M-286.8 394.5h-.1v.1l.1-.1zm-.2 0l-.1.1.1-.1zm0 .3h-.2.2zm.4 2.4s-.1.1-.3.1l-.2-.1-.1-.1-.1-.2-.1-.2-.2-.2c-.1-.1-.1-.1-.2-.3 0-.1 0-.2.1-.2l.1-.2-.1-.1h-.2.1.1l.1.1.1.2-.1.3c0 .1.1.2.2.3l.2.2.1.3v.1l.1.1.2.1.2-.2zm-.1-.2h-.2v-.2l-.1-.2c0-.1-.1-.1-.2-.2l-.2-.2v-.4c0-.1-.1-.2-.2-.2l-.2-.1.2.1c.1.1.1.1.1.2v.4c0 .1.1.1.2.2s.2.1.2.2l.2.2v.1l.2.1z"/><path id="path33" class="st3" d="M-286.2 396.5v.3l-.1-.1.1-.1v-.1z"/><path id="path35" class="st7" d="M-287.8 395.6h-.1v-.1l-.1-.1h.1v-.1l.1.1v.2z"/><path id="path37" class="st8" d="M-287.8 395.6h-.1v-.1l.1.1.1-.2h-.2v.1l.1.1z"/><path id="path39" class="st7" d="M-287.7 395.6h-.1v-.2h.1l.1-.1.1.1c-.2 0-.2.2-.2.2z"/><path id="path41" class="st8" d="M-287.7 395.6h-.1v.1l.1-.1v-.2h-.1l.1.2z"/><path id="path43" class="st7" d="M-287.6 395.7l-.1-.1v-.1l.1-.1.1-.1.1.1-.1.1c-.1 0-.1.2-.1.2z"/><path id="path45" class="st8" d="M-287.6 395.7h-.1l-.1.1.2-.1v-.2.1.1z"/><path id="path47" class="st9" d="M-286.3 396.5l-.1-.1-.1-.1-.1-.1-.2-.2v-.4s-.3.1-.1.6c.1.2.2.2.2.2l.4.1z"/><path id="path49" class="st10" d="M-286.5 394.9c0 .3-.2.3-.4.5-.1.1-.2.1-.2.2-.1.1-.1.2-.1.4 0 .3.1.4.2.5.1.1.2.1.3.1h.5v.1h.1v-.1h-.4s-.2 0-.3-.1-.2-.2-.2-.5c0-.1 0-.3.1-.3l.3-.3.1-.5z"/><path id="path51" class="st0" d="M-286.1 396.6l-.1.1h.1-.1l.1-.1z"/><path id="path53" class="st11" d="M-285.9 396.7h-.2v-.1h-.2l-.3-.3h.6v.3c.1 0 .1.1.1.1z"/><path id="path55" class="st9" d="M-285.9 396.7h-.2v.3h.2v-.3z"/><path id="path57" class="st11" d="M-286 395v-.2l-.1-.1-.1-.1h-.2l-.1.1s.2.1.3.3l.2.1v-.1z"/><path id="path59" class="st9" d="M-286.2 395.1v.2-.2h.1l-.1-.1v.1z"/><path id="path61" class="st10" d="M-286 396.9l-.1-.1.1.1z"/><path id="path63" class="st12" d="M-285.9 396.8l-.1.1-.1.1h.2l.1-.1-.1-.1z"/><path id="path65" class="st13" d="M-285.9 396.9"/><path id="path67" class="st14" d="M-282.9 399.7v.3l.1-.1-.1-.2z"/><path id="path69" class="st15" d="M-282.8 399.9l-.1-.2.1.2-.1-.2v.3l.1-.1z"/><circle id="circle71" class="st14" cx="-283" cy="399.6" r=".1"/><path id="path73" class="st15" d="M-282.9 399.6h-.1.1c-.1-.1-.2 0-.2 0 .1.1.1.1.2 0zm0 .1h-.1v-.1l.1.1z"/><path id="path75" class="st14" d="M-282.7 400.1l-.2-.2v.1l.2.1z"/><path id="path77" class="st15" d="M-282.9 400l.3.2-.3-.2.3.1-.3-.1z"/><circle id="circle79" class="st14" cx="-282.6" cy="400.1" r=".1"/><path id="path81" class="st15" d="M-282.7 400.2v-.1h.1v.1h-.1.1v-.1h-.2l.1.1zm0-.1l-.2-.1.2.1zm.2 0l-.1-.1.1.1z"/><path id="path83" class="st14" d="M-281.2 397.5l.1.2v-.1l-.1-.1z"/><path id="path85" class="st15" d="M-281.1 397.6l-.2-.1.2.1-.2-.1.2.2v-.1z"/><circle id="circle87" class="st14" cx="-281.3" cy="397.5" r=".1"/><path id="path89" class="st15" d="M-281.2 397.5h-.2.2c0-.1-.1-.1 0 0-.1-.1-.2 0-.2 0s.1.1.2 0zm0 0c-.1.1-.2 0-.1 0v.1l.1-.1z"/><path id="path91" class="st14" d="M-280.8 397.6l-.3.1v-.1h.3z"/><path id="path93" class="st15" d="M-281 397.6h.5-.2-.3z"/><circle id="circle95" class="st14" cx="-280.7" cy="397.6" r=".1"/><path id="path97" class="st15" d="M-280.7 397.6h-.1.1c-.1-.1-.2 0-.2 0s.1.1.2 0zm0 0h-.1.1z"/><path id="path99" class="st14" d="M-281.7 399l-.2-.3.2.3z"/><path id="path101" class="st15" d="M-281.9 398.7l.2.3-.2-.3.2.3-.2-.3z"/><circle id="circle103" class="st14" cx="-281.9" cy="398.7" r=".1"/><path id="path105" class="st15" d="M-281.8 398.7h-.2.2c0-.1-.1-.1 0 0-.1-.1-.2 0-.2 0s0 .1.2 0zm0 0s-.1.1-.1 0c0 0-.1-.1 0-.1l.1.1z"/><path id="path107" class="st14" d="M-281.7 399l.2.1-.2-.1z"/><path id="path109" class="st15" d="M-281.5 399h-.2v-.1l.2.1h-.2.2z"/><circle id="circle111" class="st14" cx="-281.4" cy="399.1" r=".1"/><path id="path113" class="st15" d="M-281.4 399.1h-.1.1c-.1-.1-.2 0-.2 0 .1 0 .1.1.2 0zm-.1-.1zm.1 0c-.1.1-.2 0-.1 0h.1z"/><path id="path115" class="st16" d="M-284.2 400.6s0-.1-.2-.2-.3-.1-.3-.1v.1l.3.1.1.1h.1zm3.7-3.6c0 .2-.2.3-.3.4l-.2.2v.5l.1-.1h.1l-.2.2c0 .1-.1.4-.3.5l-.3.1-.1.1v.1h-.1v.2h.2v.1s0 .3-.2.4c-.2.1-.7.1-.7.1h-.1l-.3.2-.1.1-.1.1-.2.1h.1l.3.1h-.2c-.1 0-.4.2-.6.2-.2 0-.4-.3-.4-.3l-.1-.1h-.4.2l.2.1h.2l.2-.3.3-.1h.3l-.1.1h.3v-.1l.2-.2.1-.1.1-.2v-.1l.2-.2.2-.2.1-.2s.1.1 0 .2v.2l.2-.1h.2l.1-.1v-.6l.1-.3.2-.2v.2l.1-.2v-1.1l-.1-.1s.1 0 .1.1c.1.1.2.3.2.3l.2-.6.1.2v.2l.1-.2v.1s.1.1.1.3z"/><path id="path117" class="st17" d="M-281.3 396.6s.1.1.1.2-.1.2 0 .4l.1.2v.2-.3l-.1-.1v-.4c0-.2-.1-.2-.1-.2zm.2 1.2l.1-.3c0-.1 0-.1.1-.2l.2-.2v-.4l-.1.1-.1.3c0 .1-.1.3-.2.4v-.3l.1-.3v-.4l-.1.2-.1.4v.6l.1.1zm-.6 1.1v-.7c0-.1.3-.4.3-.4s-.1 0-.2.1-.2.3-.2.4l.1.3v.3zm.1-.1l.3-.3.1-.5.1-.3s-.1 0-.2.1-.2.3-.3.5v.5zm.5-.6l-.3.5-.2.1-.1.2h-.1.1l.1-.1.3-.2.2-.5c.1-.1.3-.2.3-.2s-.1 0-.3.2zm-3 2.1h.2c.3 0 .5-.2.7-.3.2-.1.3 0 .3 0s-.1-.1-.2-.1c-.3 0-.6.2-.7.3-.1.1-.3.1-.3.1zm-.2.2l-.2-.1-.2-.1.2.1.2.1zm.1-.2s.2 0 .4-.1.4-.3.5-.3h.2s-.1-.1-.2-.1-.2 0-.3.1l-.3.2c-.2.1-.3.2-.3.2zm1.3.1s-.1-.1-.2-.1c-.3 0-.5.2-.7.2l-.4-.2c-.1-.1-.5-.1-.5-.1h.4c.2.1.3.3.5.2.3 0 .5-.2.7-.2.1.2.2.2.2.2zm.1-.6s.1 0 .1-.1l.1-.2.3-.3c.1-.2.1-.3.1-.3v.1s-.4.3-.4.4v.2c-.1.2-.2.2-.2.2zm.5-.5c-.2.2-.3.4-.3.4l.3-.3.3-.2.1-.1.1-.1c0 .1-.1 0-.5.3zm-.7.7l.2-.2h.2c.1 0 .1 0 .4-.1.2-.2.3-.3.3-.4h.1l-.1.2c-.1.1-.2.2-.3.2-.1.1-.4.1-.4.1-.1 0-.2.1-.2.1l-.2.1z"/><path id="path119" class="st14" d="M-286.8 399.6h-.1.1z"/><path id="path121" class="st15" d="M-286.8 399.6h-.2.1.1z"/><path id="path123" class="st14" d="M-286.9 399.8l.1.2h-.1v-.2z"/><path id="path125" class="st15" d="M-286.8 400v-.5.2.3z"/><path id="path127" class="st14" d="M-286.8 399.7s0 .1-.1.1-.1 0-.1-.1.1 0 .1 0h.1z"/><path id="path129" class="st15" d="M-286.8 399.7l-.1.1h-.1l.2-.1h-.1v.1l.1-.1zm0 0s0 .1-.1.1h-.1.1l.1-.1z"/><circle id="ellipse131" class="st14" cx="-287.3" cy="400.1" r=".1"/><path id="path133" class="st15" d="M-287.2 400.1h-.3.1.2z"/><path id="path135" class="st14" d="M-287.1 400h.3-.1-.2z"/><path id="path137" class="st15" d="M-286.9 400h-.2v.1l.2-.1-.2.1.2-.1z"/><path id="path139" class="st14" d="M-287.1 400c0 .1 0 .2-.1.1-.1 0-.1-.1-.1-.1v-.1c.1 0 .2.1.2.1z"/><path id="path141" class="st15" d="M-287.1 400v.1-.1l-.1-.1v.2l.1-.1zm0 .1h-.1v.1l.1-.1zm-.2 0h.1-.1z"/><circle id="ellipse143" class="st14" cx="-287.9" cy="398.6" r=".1"/><path id="path145" class="st15" d="M-287.9 398.6h-.1.1z"/><path id="path147" class="st14" d="M-288 398.8l.1.2h-.1v-.2z"/><path id="path149" class="st15" d="M-288 399v-.2h-.1l.1.2.1-.2-.1.2z"/><path id="path151" class="st14" d="M-287.8 398.7c0 .1-.1.1-.1.1-.1 0-.1 0-.1-.1s.1 0 .1 0 0-.1.1 0z"/><path id="path153" class="st15" d="M-287.8 398.7l-.1.1h-.1l.2-.1h-.2v.1h.1l.1-.1zm0 0h-.2.1.1z"/><path id="path157" class="st15" d="M-288.3 399h-.3.1.2z"/><path id="path159" class="st14" d="M-288.2 399h.3-.3z"/><path id="path161" class="st15" d="M-288 399h-.5.3.2z"/><path id="path163" class="st14" d="M-288.3 398.9c.1 0 .1.1.1.1l-.1.1v-.2z"/><path id="path165" class="st15" d="M-288.3 398.9l.1.1c0 .1 0 .1-.1.1v-.2.1c.1 0 .1-.1.1-.1h-.1zm.1.1h.2-.2zm0 0l-.1.1.1-.1zm-.1 0h-.1.1z"/><path id="path167" class="st14" d="M-288.5 397.3"/><path id="path169" class="st15" d="M-288.5 397.3z"/><path id="path171" class="st14" d="M-288.7 397.6l.1-.2-.1.2z"/><path id="path173" class="st15" d="M-288.6 397.5l-.1.2v.1-.1l.1-.2-.1.3.1-.3z"/><path id="path175" class="st14" d="M-288.6 397.5c-.1 0-.1-.1-.1-.1h.1v.1l.1-.1-.1.1z"/><path id="path177" class="st15" d="M-288.6 397.5v-.1.1l.1-.1-.1.1.1-.1-.1.1zm.1-.1l-.2-.1.2.1z"/><circle id="ellipse179" class="st14" cx="-289.1" cy="397.5" r=".1"/><path id="path181" class="st15" d="M-289.1 397.4v.1-.1h-.1.1v.1-.1z"/><path id="path183" class="st14" d="M-289 397.6l.2.1v.1l-.2-.2z"/><path id="path185" class="st15" d="M-288.8 397.8l-.2-.2.2.2-.1-.3.1.3z"/><path id="path187" class="st14" d="M-288.9 397.6c0 .1-.1.1-.1 0v-.1l.1.1v-.1h.1c-.1 0-.1.1-.1.1z"/><path id="path189" class="st15" d="M-288.9 397.6h-.1.1l-.1-.1.1.1v-.1.1h-.1.1zm0 0l.1.2-.1-.2zm-.1 0h-.2.2zm0-.1z"/><path id="path191" class="st16" d="M-285.6 400.5s0-.1.2-.1.4-.2.4-.2v.1h-.1l-.1.1-.1.1h-.3zm-1.1-.3v-.1l-.2-.1-.1-.1-.1-.1v-.2h-.1l-.1-.3v-.1l-.1.2-.1-.1v-.3l-.1.1-.1.1-.1-.2v.1l-.2-.1-.2-.2-.1-.1.1-.1v-.1h-.1v-.4l-.1.2-.1-.1v-.2h-.1l-.1-.1v-.2l-.1-.3v-.1c0-.1.2-.2.2-.2h-.2c0-.1.2-.1.2-.3h-.2l.1-.2v-.1l-.1.1h-.1v.3l-.1-.1v.4h-.1l.1.1.1.1.1.1v.5h-.1l.1.1h-.2s0 .1.1.1l.3.1s-.3-.1-.3 0l.1.2h.3l-.2.1c0 .1.1.1.1.1h.2l.3.3.2.1h-.1s.3.2.2.2h-.2c0 .1.1.2.1.2.1 0 .4 0 .3.1h-.3c0 .1.2.2.2.2.1 0 .2-.1.2-.1v.1l.2-.1.3.1c.1.2.3.4.3.4zm1.5 0c-.2 0-.3.1-.3.1h-.1l-.1-.1v.1l-.4-.3v.3l-.3-.3v.2h-.1l-.2-.2h-.1l.1.1h-.3l-.1.1h.1v.1s.1-.1.2-.1l-.1.2c0 .1.2 0 .2 0s.2-.2.2-.1l-.1.2c0 .1.1.1.2 0 .1 0 .2-.2.2-.2l-.1.2c0 .1.1 0 .2 0l.2-.2h.1l.1-.1h.5l.1.1h.1v-.1h-.2z"/><path id="path193" class="st17" d="M-288.1 398.8s-.1-.1 0-.2c0-.1.1-.3.1-.3l-.1.1v-.3c0-.1 0-.1-.1-.1l-.1.2v-.2l-.1-.1-.2.1-.1-.1c-.1 0 .1.2.1.2v-.2.1.1h-.2.1.1l.1.1.1.1v-.1l.1-.2v.4h-.3l.2.1h.2l.1.1.1-.1.1-.1v.2h-.2.1.1l-.2.2zm-.7-.9v-.2c0-.1-.1-.3-.1-.3l.1-.1-.1.1h-.1.1v-.1l-.1-.1-.1-.1.2.1h.2l.1-.1h-.2l-.1-.1-.1-.1-.1-.2.1.1.1.2.1-.1.2-.1-.1.1h-.1v-.3.1.1s.2-.1.2-.2v-.1l-.1.1-.2-.1v.3l-.1-.1c-.1 0-.1.1-.1.1s.1.2 0 .2-.2-.1-.2 0c-.1.1.2.2.2.2v.1l.2.1s.1.2.1.3v.2zm1.7 1.9v-.3l-.1.1v-.3c0-.1-.1-.2-.2-.1l-.1.2c-.1 0 0-.2 0-.3l-.1-.1v.2l-.1-.2v-.1.1.1l.1.1h-.2.1.1l.1.1v-.2.1.2.1h-.4l.2.1h.2l.1.1.1-.2v-.2.2.2l-.1.1h-.4.2.1.1.1.1.1l-.1-.1v-.1.1l.1.1zm1.2.7l.1-.1.1-.1v-.2l.1.1.1.1h.1-.1l-.1-.1v.1c-.1 0-.1-.2-.3-.2h-.1l.1.2s-.2-.2-.3-.2-.1 0-.1.1c0 0 .1 0 .1.1l-.5-.3h-.1v.1h-.1l-.1.1s.1-.1.2-.1h.3-.1l-.1-.1.1.1.1.1h.1v.1l-.1.1.1-.1.1-.1h.1v-.1l-.2-.1.1.1.1.1h.1v.1l-.1.1.1-.1.1-.1h.1v-.2l.1.1-.1.2h.1v.1l-.1.1zm-1.9-1.4l-.1-.1-.3-.2.1.2.3.1zm2.7 1.2l-.2-.1c-.1 0-.1 0-.2.1l-.1.1.1-.1c.1-.1.1-.1.2-.1l.2.1zm-.4.2l.2-.1.2-.1s-.2 0-.2.1l-.2.1z"/><path id="path195" class="st0" d="M-285.2 400.9l-.1-.1v-.1l.3-.3v-.3h.2v.4h.1l.3.2v.1h-.2l-.2-.2h-.1l-.2.2-.1.1z"/><path id="path197" class="st18" d="M-285 400.1v.4l-.3.2-.1.1h-.1l-.1.1s0-.1.2-.3c.2-.1.2-.1.2-.2v-.3h.2zm.4.9l.1-.1h-.1l-.2-.1-.1-.2v.2l.3.2z"/><path id="path199" class="st19" d="M-284.8 400.1h.1v.3l-.1.2-.2.2-.1.2v-.1l.2-.2c.1-.1.2-.2.2-.3-.1-.1-.1-.3-.1-.3zm.6.7h-.2l-.1-.1-.2-.1-.1-.1.1-.1.1.1.3.1c-.1.1.1.2.1.2z"/><path id="path201" class="st20" d="M-283.5 399.5l-.2-.1c0-.1.5-.2.5-.2v-.1h-.2c-.1 0-.3.1-.5.1h-.2s-1.5-.1-1.6-.1h-.1c-.2 0-.3-.3-.3-.3h-.1v.2c-.1 0-.8-.3-.8-.3v.1s.4.2.4.3l-.1.1.1.1s.7 0 .7.2c0 .1-.2.1-.2.1l.1.1s.4 0 .5.1l.3.2h.9c.1 0 .2-.2.5-.3l.3-.2z"/><path id="path203" class="st21" d="M-283.5 399.5l-.1-.1.2-.1h.1v-.1h-.2c-.1 0-.3.1-.5.1h-.3l-.9-.1h-.7v-.2l-.1-.2v-.1h-.1v.1h-.1c-.1 0-.3-.1-.4-.2h-.4v.2l.2.1.1.1h-.1l.1.1c.1 0 .2 0 .4.1l.2.1h.1-.1l.1.1h.5l.1.1v.5h1.1l.2-.1c.1 0 .1-.1.3-.1l.3-.3-.4.2c-.1 0-.2.1-.3.2l-.2.1h-1l-.1-.1-.1-.1h-.4l-.1-.1h.2v-.2l-.2-.1-.3-.1h-.2l-.1-.1h.1l-.1-.1-.3-.2v-.1l.3.2.3.1h.2v-.1h.1l.1.2.1-.2.1.1h1.8c.2 0 .4 0 .5-.1h.2v.1l-.2.1-.2.1h-.1l.3.2z"/><circle id="circle205" class="st0" cx="-286.8" cy="399.2" r=".1"/><path id="path207" class="st21" d="M-286.7 399.2l-.1.1s-.1 0-.1-.1 0-.1.1-.1l.1.1c0-.1 0-.1-.1-.1l-.1.1.1.1c0 .1.1 0 .1-.1z"/><circle id="circle209" class="st0" cx="-286.2" cy="398.7" r=".1"/><path id="path211" class="st21" d="M-286.1 398.7l-.1.1s-.1 0-.1-.1c0 0 0-.1.1-.1s.1 0 .1.1c0-.1 0-.1-.1-.1l-.1.1c0 .1.1.1.1.1s.2 0 .1-.1z"/><circle id="circle213" class="st0" cx="-283.4" cy="399.5" r=".1"/><path id="path215" class="st21" d="M-283.3 399.5l-.1.1s-.1 0-.1-.1 0-.1.1-.1c0 .1 0 .1.1.1 0-.1 0-.1-.1-.1l-.1.1.1.1c0 .1.1 0 .1-.1z"/><path id="path217" class="st7" d="M-287.4 398.5c0 .1.1.2.2.3.1 0 .2 0 .2-.1v-.1c0-.1-.3-.2-.4-.1z"/><path id="path219" class="st0" d="M-287 398.7c0-.1-.1-.1-.1-.1h-.1l.2.1z"/><path id="path221" class="st7" d="M-286.1 399.6c0 .1 0 .1-.1.1h-.3c0-.1.1-.2.2-.2l.2.1z"/><path id="path223" class="st0" d="M-286.3 399.7v-.1l-.2.1h.2z"/><path id="path225" class="st7" d="M-283.3 399.2c.1.1.2 0 .2 0s.1-.1.1-.2h-.1s-.1.1-.2.1v.1z"/><path id="path227" class="st0" d="M-283.3 399.2s0-.1.1-.1h.2l-.1.1h-.2z"/><path id="path229" class="st22" d="M-284.8 399h-.4l.2.5.2.3h.3v-.1l-.1-.5-.2-.2z"/><path id="path231" class="st23" d="M-284.8 399h-.4l.2.5.2.3h.3v-.1l-.1-.5-.2-.2.2.3.1.5v.1h-.3l-.2-.3-.2-.6h.4z"/><path id="path233" class="st22" d="M-285.4 399h.2s.1.2.2.3l.1.3.2.3h-.3l-.3-.5c0-.1-.1-.4-.1-.4z"/><path id="path235" class="st23" d="M-285.4 399h.2s.1.2.2.2l.1.2v.2l.2.3h-.3l-.3-.5-.1-.4.1.3.3.5h.3l-.2-.2v-.2l-.1-.2-.1-.2v-.1h-.1l-.2.1z"/><path id="path237" class="st22" d="M-285.5 399h.1s.2.1.2.3l.1.3c.1.2.2.3.2.3h-.3l-.2-.1-.1-.1h-.2v-.8c0 .1.2.1.2.1z"/><path id="path239" class="st23" d="M-285.5 399h.1s.1.1.2.3v.2l.1.2.2.2h-.4l-.1-.1h-.2v-.6l.1-.2-.1.8h.1l.1.1h.5s-.1-.1-.2-.3l-.1-.2v-.2l-.1-.2h-.2z"/><path id="path241" class="st22" d="M-284.3 399.1l-.2-.1h-.4v.2l.1.4.2.3.3-.1h.1v-.7h-.1z"/><path id="path243" class="st23" d="M-284.3 399.1l-.2-.1h-.4v.2l.1.4.1.2v.1h.1l.2-.1h.1v-.7l.1.1v.5h-.3l-.1-.2c-.1-.1-.1-.3-.1-.4v-.2h.4v.2z"/><path id="path245" class="st22" d="M-285.6 399.1c.1-.1.1-.1 0-.1s-.1.1-.1.2l.1.1s-.1.1-.1.2l.1.2s-.1.1-.1.2l.1.1c.1 0 .2 0 .2-.1l-.1-.1h-.1"/><path id="path247" class="st23" d="M-285.6 399.1l.1-.2h-.1l-.1.1v.3l.1.1v.1l-.1.1.1.1h.2v-.1h-.2.1v.1h-.3v-.2s-.1-.1-.1-.2v-.1l.3-.1h-.1.1v-.1h.1v.2l-.1-.1z"/><path id="path249" class="st22" d="M-284.2 399.1h-.1l.1-.1c.1 0 .1.1.1.2l-.1.1v.1c0 .1-.1.2-.1.2s.1 0 .1.1-.1.1-.1.1c-.1 0-.1 0-.1-.1s0-.1.1-.1l.1.1"/><path id="path251" class="st23" d="M-284.2 399.1v-.1.1h.1v.6h-.2v-.2h-.2v.2h.3v-.2s.1-.1.1-.2v-.3h-.1v.1zm-1.3.6l.1.1s.4.1.5.1h.5l.1-.1v.1h-1.1l-.1-.2zm1.1-.7v.3h-.3l-.1-.1.4-.2z"/><path id="path253" class="st24" d="M-283.5 399l-.1-.2.1.1v.1zm.6-.2l.1.1-.1-.1zm.2.1h-.1.1zm.3-.3h-.2.2zm-.5-.6v.2-.2zm-.2.2l-.1.1.1-.1z"/><path id="path255" class="st25" d="M-283.7 398.6l-.2.2s.4.2.6.2.6-.2.6-.3v-.3c0-.1-.2-.2-.3-.2-.1 0-.2.1-.3.2s-.1.2-.3.2h-.1z"/><path id="path257" class="st26" d="M-283.7 398.6l-.2.2.2.1.4.1.4-.1.1-.1v-.2l-.1-.1-.1-.1h-.2l-.1.1-.2.2-.1.1h-.1v-.2h.3l.1-.1.1-.1.2-.1.1-.1h.1l.1.1h.1v.2l-.2.1c-.1.1-.2.1-.4.1-.1 0-.3 0-.4-.1l-.1-.1v.1z"/><path id="path259" class="st27" d="M-283.7 398.6s.4.1.5 0l.3-.4h.1l.1.1.1.1v.3l-.1.1h-.2l-.2.1h-.2l-.4-.1v-.2z"/><path id="path261" class="st26" d="M-283.1 398.4zm.1.1h.1-.1zm0 .2h.1-.1zm-.2 0h.1-.1z"/><circle id="circle263" class="st26" cx="-283.5" cy="398.7" r=".1"/><path id="path265" class="st25" d="M-283 398.7h.1-.1zm-.5 0h.2-.2z"/><path id="path267" class="st24" d="M-283.4 398.6l-.1.1.1-.1zm.3-.1v.1-.1z"/><path id="path269" class="st26" d="M-282.6 398.5s0 .1-.1.2-.4.2-.6.2l-.5-.2h.1l.2.1.2.1h.2l.2-.1.2-.1.1-.1v-.1z"/><path id="path271" class="st24" d="M-287.4 397.1v.1-.1zm-.5.5h.1-.1zm.2.3h.2-.2zm.3.2l.1-.1-.1.1z"/><path id="path273" class="st25" d="M-286.9 397.9s0-.3-.2-.6c-.3-.2-.4-.2-.5-.1-.1.1-.2.4.1.6.2.3.6.3.6.3v-.2z"/><path id="path275" class="st26" d="M-286.9 397.9c0-.2 0-.4-.2-.6-.1-.1-.3-.2-.4-.2-.1 0-.2 0-.2.1 0 0-.1.1-.1.2s.1.3.2.4c.2.2.4.2.5.2h.1l.1-.1v.1h-.1c-.1 0-.3 0-.5-.2-.1-.1-.2-.3-.2-.4s0-.2.1-.2c0 0 .1-.1.2-.1s.2 0 .3.2c.1.2.1.5.2.6z"/><path id="path277" class="st27" d="M-287.8 397.6s0-.2.1-.2c.1-.1.4-.1.5.2.1.3.1.4.1.5h-.2l-.1-.1-.2-.1-.2-.3z"/><path id="path279" class="st26" d="M-287 398c-.2-.1-.6-.1-.8-.5v.2l.1.1.1.1.2.1h.4z"/><path id="path283" class="st26" d="M-287.4 397.9h.1-.1zm0-.3h.1-.1zm-.2.1zm0-.2zm.2-.1h.1-.1z"/><path id="path285" class="st25" d="M-287.4 397.6h.1-.1z"/><circle id="circle287" class="st25" cx="-287.1" cy="397.6" r=".1"/><path id="path289" class="st25" d="M-287.2 397.9"/><path id="path291" class="st24" d="M-287.2 397.5v.1-.1zm-.1-.2v.1-.1zm-.2.1v.1-.1zm.3.3z"/><path id="path293" class="st26" d="M-287.5 397.2s-.2 0-.2.2v.2-.1-.1l.2-.2zm.5.7v-.2c-.1-.1-.2-.3-.2-.3l.1.1.1.1v.3z"/><path id="path295" class="st24" d="M-287 398.4l.1-.1-.1.1zm.4.1l.1-.1-.1.1z"/><path id="path297" class="st25" d="M-285.9 398.2s-.3-.4-.7-.4c-.3 0-.4.3-.4.4 0 .1.1.3.6.3.4 0 .5-.3.5-.3z"/><path id="path299" class="st26" d="M-285.9 398.2l-.2-.2c-.1-.1-.3-.2-.5-.2s-.3.1-.3.1l-.1.1v.1c0 .1.2.3.6.3h.1c.2 0 .3-.1.4-.2l-.1.2-.3.1h-.1c-.5 0-.6-.2-.6-.3v-.1l.1-.2c.1 0 .1-.1.3-.1.2 0 .4.1.5.2l.2.2z"/><path id="path301" class="st27" d="M-286.2 397.9l.1.1v.1s-.3-.2-.5-.3c-.2 0-.4 0-.4.1s0 .2.1.3c.1.1.5.1.5.1h.2l.1-.1v-.2h.1l-.2-.1z"/><path id="path303" class="st26" d="M-286.6 397.9h-.1.1zm-.2.1h.1-.1zm.2.2z"/><path id="path305" class="st25" d="M-286.8 398.2h.1-.1z"/><path id="path307" class="st26" d="M-286.2 398.2h.1-.1z"/><path id="path309" class="st25" d="M-286.5 398.2zm.4 0h-.1.1z"/><path id="path311" class="st24" d="M-286.3 398.2h.1-.1zm-.2.2h.1-.1zm-.1-.3l.1.1-.1-.1zm0 .1zm-.2.1h.1-.1zm.1-.5l.1.1-.1-.1z"/><path id="path313" class="st26" d="M-286 398.3s-.1.1-.4.1c-.3 0-.6-.1-.6-.3v.1l.1.1.2.1.2.1h.4l.1-.2zm0-.1l-.1-.2c-.1-.1-.3-.2-.3-.2l.2.1.2.1v.2z"/><path id="path315" class="st24" d="M-285.9 397.9l.1.1-.1-.1zm.2-.1l.1.1-.1-.1zm.1 0l.1.1-.1-.1zm.3.1l.1.1-.1-.1zm.1 0v.1-.1zm-.6.8l.1-.1-.1.1zm.3.1l.1-.1-.1.1zm.3 0l.1-.1-.1.1zm.1 0z"/><path id="path317" class="st25" d="M-286 398.3c0-.1.2-.4.4-.4.1 0 .3 0 .4.1l.3.1h.5l-.2.3-.1.1s-.1.1-.3.2c-.2.1-.5 0-.7 0-.1-.1-.3-.2-.3-.4z"/><path id="path319" class="st26" d="M-286 398.3l.2-.3c.1-.1.1-.1.2-.1h.2l.2.1.1.1h.6l-.2.3-.1.1s-.1.1-.3.2h-.2c-.2 0-.3 0-.4-.1l-.2-.1s-.1-.1-.1-.2c0 .1 0 .2.1.2.1.1.1.1.2.1l.4.1h.3c.2-.1.3-.2.3-.2l.1-.1.2-.3h-.5l-.1-.1h-.2l-.2-.1h-.2l-.2.1s-.1 0-.1.1c-.1.1-.1.2-.1.2z"/><path id="path321" class="st27" d="M-284.7 398.4c-.1 0-.7-.4-.9-.3-.2 0-.4.1-.4.3 0 .2 0 .2.1.2 0 .1.4.1.4.1h.4l.2-.1.1-.1.1-.1z"/><path id="path323" class="st26" d="M-285.6 398.3h-.1.1zm0-.2z"/><circle id="circle325" class="st26" cx="-285.2" cy="398.2" r=".1"/><path id="path327" class="st26" d="M-285.1 398.4zm-.2.2h.1-.1z"/><circle id="circle329" class="st26" cx="-285.6" cy="398.5" r=".1"/><path id="path331" class="st25" d="M-285.6 398.3h-.2.2zm.1-.2z"/><path id="path335" class="st26" d="M-285.3 398.3h-.1.1z"/><path id="path337" class="st25" d="M-285.6 398.5h-.1.1z"/><circle id="circle339" class="st25" cx="-285.4" cy="398.3" r=".1"/><path id="path341" class="st25" d="M-285 398.4zm-.2.1h-.1.1z"/><path id="path343" class="st24" d="M-285.2 398.4h.1-.1zm-.1-.3l.1.1-.1-.1zm-.2.1l.1.1-.1-.1zm0 .1h.1-.1zm-.1-.3l.1.1-.1-.1zm-.2.1l.1.1-.1-.1zm0 .2h.1-.1zm.4.3h.1-.1z"/><path id="path345" class="st26" d="M-284.8 398.5l-.2.2c-.1.1-.2.1-.4.1s-.3 0-.4-.1c-.1-.1-.2-.1-.2-.2v.1h.1l.1.1h1v-.2zm-.1-.4h-.2c-.1-.1-.2-.2-.5-.2-.2 0-.3.2-.3.2l.1-.1.1-.1h.5l.1.1.2.1zm.3.1h-.2v-.1l.2.1z"/><path id="path347" class="st27" d="M-284.9 399.2h.3l.1-.1v-.2l.1-.1.2-.1h.4l.1-.1v-.3l-.1-.1h-.3l-.2.1-.3.1s-.2.1-.2.2l-.1.2v.4z"/><path id="path349" class="st26" d="M-284.9 399.2l.2.1h.2l.1-.1v-.2l.1-.1h.5l.1-.1v-.3l-.1-.1-.1-.3h-.2l-.2.1-.3.1-.1.1-.1.2h-.1v.6-.2-.2-.2l.1-.1.1-.1h.1l.3-.1.2-.1h.2l.2.1.1.1v.3l-.1.1h-.6v.3l-.1.1h-.5z"/><path id="path351" class="st25" d="M-284.8 399.1l.1-.2c.1-.1.1-.2.2-.2l.1-.1.1-.1.2-.1h.2v-.1h.2l.1.1h.1l.1.1v-.1l-.1-.2h-.6l-.2.1-.2.1v.1l-.1-.1-.1.2-.1.3v.2zm.2-.2v.1h.1l-.1-.1zm.4-.3v.1h.1l-.1-.1zm-.6.1h.1-.1z"/><path id="path353" class="st26" d="M-284.5 398.9l-.1.1.1-.1zm.7-.4h-.1v-.1l.1.1zm-.6.1h-.1.1zm.1 0l.1.1-.1-.1zm-.5.6h.3s0-.2.1-.3c.2-.1.3-.1.4-.1.1 0 .3-.1.3-.2l-.2-.2-.2-.1s-.2 0-.2.1l-.1.1h-.2v.1h-.1v-.2l.2-.1.3-.2h.2l.2.1.1.1v.2c0 .2-.2.3-.4.3s-.3.1-.4.1c-.1 0-.1.3-.1.3.2.1-.2.1-.2 0z"/><path id="path355" class="st24" d="M-284.7 398.7v-.1.1zm.2-.1l.1-.1-.1.1zm-.1.3v-.1.1zm.2 0l-.1.1c-.1-.1.1-.1.1-.1zm.2-.4l-.1.1.1-.1zm.1.1h-.1.1zm.3-.2l-.1.1.1-.1zm-.1.2l-.1.1.1-.1z"/><path id="path357" class="st14" d="M-286.2 397.4l-.1.2h.1v-.2z"/><path class="st28" d="M-286.532 397.583" id="path182"/><path id="path371" class="st15" d="M-286.3 397.6v-.4.2.2z"/><circle id="circle373" class="st14" cx="-286.2" cy="397.3" r=".1"/><path id="path375" class="st15" d="M-286.2 397.3v.2-.1-.1zm0 0v.1-.1z"/><path id="path377" class="st14" d="M-282.2 397.9l-.3.2h.1l.2-.2z"/><path id="path379" class="st15" d="M-282.3 398.1l.2-.2-.2.2.1-.2-.2.2h.1z"/><path id="path381" class="st14" d="M-282.1 397.8h-.1v.1h.1v-.1z"/><path id="path383" class="st15" d="M-282.1 397.8h-.1v.1h.1v-.1.1h-.1v-.1h.1zm0 0h-.1v.1l.1-.1zm-.1.1l-.1.1.1-.1z"/><path id="path385" class="st14" d="M-288 396.6l.1.3v-.1l-.1-.2z"/><path id="path387" class="st15" d="M-287.8 396.8l-.1-.2.1.2-.2-.2.2.2z"/><circle id="circle389" class="st14" cx="-288" cy="396.6" r=".1"/><path id="c" class="st29" d="M-287.6 397v.2l-.1.1h-.1l-.1-.1v-.3h.1c.1 0 .2.1.2.1z"/><g id="g196" transform="translate(4.068 -11.017)"><defs id="defs198"><path id="SVGID_1_" d="M-292 407.9z"/></defs><clipPath id="SVGID_2_"><use xlink:href="#SVGID_1_" id="use202" overflow="visible"/></clipPath></g><path id="path406" class="st15" d="M-288.1 396.5v.1h.1v-.2l-.1.1.1.1v.1l-.1-.2zm0 0v.1h.1l-.1-.1zm.1.2z"/><path id="path408" class="st30" d="M-288 397.1l.1-.1-.1-.1h-.1v.1l.1.1zm0-.2l.1.1.1-.1v-.1c-.1-.1-.2 0-.2.1zm.3 0v-.1h-.1v.1h.1z"/><path id="path410" class="st31" d="M-287.8 396.8"/><path id="path412" class="st30" d="M-286.5 397.6h.1v-.1h-.1v.1zm.2-.1v.1-.1l.1.1-.1-.1zm.2.2l.1-.1-.1-.1v.2z"/><path id="path414" class="st31" d="M-286.2 397.6"/><path id="path416" class="st30" d="M-282.5 398l.1.1v-.1h-.1zm.1 0v.1-.1l.1.1-.1-.1zm0 .2h.1v-.1l-.1.1.1-.1-.1.1z"/><path id="path418" class="st31" d="M-282.3 398.1"/><path id="path420" class="st32" d="M-285.7 394.6v-.1h-.1v-.1h.3l.1.1-.3.1z"/><path id="path422" class="st33" d="M-285 393.2s-.4-.1-.4.2c0 .1 0 .1.1.2.1 0 .2 0 .4.2.1.1.1.2.1.3v.1l.1.4.1.3.3-.1.2-.5-.2-.8c-.1 0-.7-.3-.7-.3z"/><path id="path424" class="st34" d="M-285 393.2h-.3c-.1 0-.1.1-.1.2v.1l.1.1h.2l.2.1.1.2v.2l.1.4.1.3.3-.2.2-.5-.2-.8-.7-.1.6.3.2.8-.1.5-.2.1-.1-.3-.1-.4v-.2l-.2-.2c-.1-.1-.1-.1-.2-.1h-.3v-.1c0-.1 0-.2.1-.2l.3-.2zm.4 1.6l.2-.2-.1-.2.1.1h.1s.1-.1 0-.2l-.1-.1h-.1.2l.1.1v-.2l-.3-.1h-.1.2.1v-.2l-.1-.1h-.1.1.1l-.2-.1h-.2v-.1h.2-.1-.1-.2v-.2h.2l.4.3.2.2.1.3v.6l-.3.2h-.1c-.2 0-.2-.1-.2-.1z"/><path id="path426" class="st35" d="M-285 393.4v-.1s-.1 0-.2.1v.2l.1-.1.1-.1h-.2.2z"/><path id="path428" class="st36" d="M-284.5 394.9v.4l.3.7h.2l.1-.2h.1s.1.2.2.2l.2.1c.1 0 .3.4.3.4v-.1l-.1-.2-.2-.2h.2l.1.1.1.1v.3l.1.1v-.1l-.1-.3-.1-.2h.1l.1.2v.4h.1v-.1l-.1-.2v-.2h.1l.1.1v.4l.1.2.1.1v.1-.1-.9l.1.1v.6l.1.2v.1-.1-.9h.2v1.1l.2-1.5h.1l-.1-.1v-.4l-.1-.3-.2-.4-.4-.4-.3-.2-.1-.1v-.1h.1-.1-.1l-.2-.2-.3-.1-.3-.1-.4-.1h-.7l-.1.1v.1c0 .1 0 .1.1.1s.3.2.3.2l.1.1v.1l.1.6-.2.3c.3.1.2.2.2.2z"/><path id="path430" class="st33" d="M-284.1 395.8s.1.1.2 0 0-.3 0-.3v.3c0 .1-.1.2-.1.2h-.1v-.2z"/><path id="path432" class="st34" d="M-281.9 397.2l-.1-.2v-.9l-.1-.1v-.2c0-.1-.2-.5-.2-.5l.1.1.3.1h.1l.1.2s.1.3.1.4 0 .2-.1.4c-.1.1-.1.6-.1.6l-.1.1z"/><path id="path434" class="st36" d="M-281.9 396.5l.1-.1v-.7c-.1-.1-.2-.1-.2-.1l.1.2v.7z"/><path id="path436" class="st34" d="M-282.2 396.9v-.5c0-.2 0-.2-.1-.3 0 0-.1-.2-.1-.3 0-.1-.1-.3-.1-.3l-.1-.1v.1h-.1v-.3l.1.1.2.2.1.5.1.3v.9-.3zm.1-1.4l.2.2-.2-.2zm-.4 1.3v-.2l-.1-.5-.2-.3-.1-.2-.1-.1v-.2l.2.1h.1l.1.5.1.1v1-.2zm-.2-.2v-.3l-.1-.3-.2-.3-.2-.3v-.2l.1.1.1.1.1.2v.2l.1.2v.3l.1.3zm-.2 0v-.2l-.1-.2-.1-.1-.2-.2-.2-.2h-.1v-.2l.1.1h.1l.2.3.1.1.1.1v.1l.1.3v.1zm-.3-.1l-.1-.2v-.1c0-.1-.1-.2-.2-.3l-.2-.2v-.1l.3.4.1.1.1.2v.2zm.9-1.3s.2.2.2 0c0-.1-.1-.2-.1-.2l-.2-.3-.3-.4-.2-.1.1.1s.1.1.3.5l.2.4zm-1-1.2s.3.3.5.6.3.5.3.6c0 0-.2 0-.2-.1l-.3-.5-.3-.3-.1-.2c-.1 0 .1-.1.1-.1zm-.2.7l.3.3.2.2.1.1v-.1h.1l-.6-.7v.2h-.1zm0 0l.2.2.2.2v.2l-.3-.2.1.2h-.1l-.1-.2-.1-.2-.1-.2h.2zm-.9.7s.1.1.2 0v-.3s.2.3.3 0c0-.1-.1-.3-.1-.3h.1l.1.2s.1 0 .1-.2c0-.1-.1-.3-.1-.3l.1.1s.2 0 .2-.1l-.2-.2s.1 0 .1-.1l-.2-.2.1-.1c.1 0 .2.1.2 0v-.1h-.1l-.2-.1-.1-.1h-.2l.2.2v1l-.2.2-.1.1-.1.1-.1.2z"/><path id="path438" class="st33" d="M-283.3 396s0-.1-.1-.2-.2-.1-.2-.1l.2.3h.1zm.3 0l-.2-.2-.2-.2v.2l.2.1s.1.1.2.1zm.2 0s0-.2-.1-.3c-.1-.2-.2-.2-.2-.2v.2l.1.2.2.1zm.2-.1s.1-.3 0-.4c-.1-.1-.2-.1-.2-.1v.2l.2.3zm.2-.6l.1.1c.1.1.1.5.1.5l-.2-.3v-.3z"/><path id="path440" class="st35" d="M-283.8 395.7l.1-.1-.1-.2h.1l-.1-.2.1.2s.1.1 0 .2c.1.2-.1.1-.1.1zm.3-.2h.2l-.1-.2v-.1h.1l-.1-.2.1.2c0 .1.1.1.1.3-.1.1-.3 0-.3 0zm.7-.3v-.1h.1l-.2-.1.1.2zm-.5.1s.3.1.3 0l-.2-.2h.1v.1l.1.1v-.2l.1.1.2.1v-.1.2h-.2v.1h-.2l-.2-.2z"/><path id="path442" class="st5" d="M-286.7 394.5h-.3v-.1h.2c.1 0 .1-.1.1-.1l-.1.1h-.2l.1-.3v-.1l.1-.1h-.2s-.3.2-.3.3c0 .1 0 .1.1.2 0 .1 0 .4.1.4h.4v-.3zm-.1.3h-.4c-.1 0-.1-.1-.1-.4 0 0-.1-.1-.1-.2s.3-.3.3-.3h.1l.1-.1v.3l-.1.1v.1h.2l.1-.1s0 .1-.1.1h-.2v.1h.3l-.1.4z"/><path id="path444" class="st35" d="M-282.7 395.2s.3.2.3.1l-.1-.4s.2.4.1.5h-.1l-.1-.1-.1-.1zm.4-.4l-.1-.1.1.1zm.2.8h.3-.3zm-.4-1.2v.1-.1zm-.4-.4h.2v.2l-.2-.1v-.1zm-.2-.1s.1 0 .1-.1l-.1-.1-.2.1.2.1zm-.3-.1c.1 0 .2-.1.3-.2h.1v.1l-.2.1h-.2zm-.1-.3c0-.1-.1-.1-.1-.1l.1.1v.3-.1-.2zm-.3-.1c-.1-.1-.3-.2-.3-.2s.2.2.3.2v.2-.1-.1zm-.3-.1c-.1-.1-.4-.2-.6-.2-.2 0-.3 0-.3.1s.1.1.3.1h.3c.1 0 .2.1.2.1l-.1-.1-.1-.1h.1c.1 0 .3.1.3.2v.2-.1l-.1-.2zm-.5 1.6c.1 0 .3-.2.3-.4s-.1-.6-.1-.7h.1s.1.4.1.6c0 .2 0 .3-.2.4-.1.1-.2.1-.2.1zm.3.6c.2 0 .3-.1.3-.2l-.1-.2v-.1h.1v.1h.1s.1-.1.1-.2h-.1v-.1h.1v.1h.1l.1-.1-.1-.1h.1c.1 0 .1-.1.1-.1l-.1-.1.1.1v.2l-.1.1h-.1v.2-.1h-.1v.1l-.1.1v.2l-.1.1-.1.1h-.1l-.1-.1zm.7-1.2s.2.1.2-.1l-.2-.3v-.1l.1.2h.2v-.1h.1v.1l-.1.3s0 .1-.1.1l-.2-.1zm.2 1.7v-.1l-.2-.1.2.2zm.3 0l-.1-.2-.1-.1v.2l.2.1zm.3 0l-.1-.3c0-.1-.1-.2-.1-.2v.1l.1.2.1.2zm.2-.2v-.2c0-.1-.1-.2-.1-.2v.2l.1.2zm.4.1l-.1-.3-.1-.2v.2l.1.3h.1zm.4-.4s-.1-.1-.2-.1c-.1-.1-.3-.1-.3-.1l.1.1.2.1h.2z"/><path id="path446" class="st37" d="M-283.4 395.6s0 .1.1.2l.3.2.1.3v.4-.1-.1c0-.1-.1-.4-.1-.4s-.3-.2-.3-.3l-.1-.2zm.4.8l-.1-.2c0-.1-.2-.2-.2-.2h-.1l-.2-.2.2.2c.1.1.1.2.1.3v.1l.1.1s-.1-.1-.1-.2-.1-.3-.1-.3h.1l.2.2.1.2.1.2-.1-.2zm-.3-1.1l.2.1h.1s0 .2.1.4c.1.1.1.2.1.2s0 .3.1.4l.1.4s-.1-.1-.1-.2l-.1-.3c0-.1-.1-.2-.1-.2s.1.1.1.2l.1.3v-.1l-.1-.2v-.3l-.1-.2c-.1-.1-.1-.2-.1-.3v-.1h-.1c-.1.1-.2-.1-.2-.1zm.4 0l.1.1h.1s0 .2.1.4c0 .1.1.2.1.2v1.5c-.1-.1 0-.3 0-.4s-.1-.1-.2-.4l-.1-.5c.1-.2 0-.2 0-.2s.1 0 .1.1l.1.4c.1.3.2.5.2.5v-.5c0-.2 0-.3-.1-.4l-.2-.2-.1-.3h-.1v-.3zm.2-.1l.2.1.2.1s0 .2.1.4l.1.2v.8c0 .2 0 .8-.1.8v-.6l-.1-.2c0-.1 0-.4-.1-.6 0-.2-.1-.2-.1-.2s.1 0 .1.2 0 .5.1.6l.1.2v-.8l-.2-.5v-.2l-.1-.1-.2-.2zm.4.1l.2.2c.2.1.3.1.3.1s.1.2.1.6c0 .3-.1.3-.1.5 0 .3-.1.8-.1.9v.3l-.1-.1s.1-.2.1-.3l-.1-.3v-.8l-.1-.4.1.1.1.8v-.6c0-.2-.1-.5-.1-.6l.1.1h.1-.1v1.4s0-.3.1-.6.1-.3.1-.5-.1-.5-.1-.5-.2 0-.3-.1c-.2-.1-.2-.2-.2-.2zm-2 .3c.1 0 .3-.1.3-.2v-.1l.2-.1v-.2h.1s.1-.1.1-.2l-.1-.1h.1l.1-.1s0-.2-.1-.2h.1c.1 0 .1-.1.1-.1 0-.1-.1-.2-.1-.2h.2v-.1h.2l.2-.1-.1.1h.2-.1l.3.3h.2-.1l.2.3h.2-.1v.4s-.2-.3-.4-.5-.3-.3-.3-.2l.2.4.2.3s-.2-.4-.5-.7l-.2-.3s-.1.2 0 .2l.4.4c.2.2.4.6.4.6s-.2-.3-.5-.6l-.4-.4-.1.1-.1.1.3.3h.1l.1.1h-.2s.2.2.2.3h.1l.1.1-.1-.2h-.1l.1.2s-.2-.3-.4-.4c-.2-.1-.3-.2-.3-.2v.1h-.1l.3.3.2.2-.2-.2-.2-.2v.1l.2.3-.2-.2v.1h-.1l.4.4-.3-.3.1.3-.2-.3-.1.1h-.1l.3.3-.3-.3v.3l-.1-.2-.1.1h-.1l.1.1v.1l-.1-.1h-.1zm2.5-.1v-.1c-.1-.1-.3-.7-.5-1-.4-.5-.7-.7-.7-.7s.4.2.7.7l.5.9.2.1h-.1l-.1.1zm-2.6-.2l.1-.1-.1-.1v-.1l.1.1h.1s.2-.1.2-.2h-.1l-.1-.1.1.1h.1l.1-.2h-.1l-.1-.1.1.1c.1 0 .1 0 .1-.1v-.2h-.1l-.1-.1.1.1h.1v-.2l-.1-.2h-.1c-.1 0-.1-.1-.1-.1l.1.1c.1 0 .1-.1.1-.1l-.1-.1v-.1h-.1l-.1-.1h.1l.1-.1s0-.1-.1-.2l-.2-.1.2.1.1.1h.1v-.1l-.1-.1.2.2v.1l.2.1v-.1l-.1-.1.1.1v.1l.1.1h.1v-.2.1.1h.1-.1-.4l.2.2.2.1-.1-.1-.3-.1h.1l-.1.2.2.2-.1.1-.1-.1.1.1v.1l.1.2-.1.1.1.1-.1-.1-.1-.1v.1l.1.1v.1l-.1-.1h-.1v.2l.1.1-.1.1-.1-.1-.1.1.1.1h-.3zm1.4-1.6l.1-.1h-.2c-.1 0-.1 0-.3-.1 0 0-.5-.4-1.3-.4-.2 0-.4.1-.4.1s.1-.1.3-.1c.1 0 .9.1 1.3.4 0 0 .2.1.3.1h.2v.1zm-1.4.1l-.1-.2c-.1-.1-.4-.2-.4-.2s.3.2.4.2l.1.2z"/><path id="path448" class="st35" d="M-284.4 394.4l-.2-.1.2.1zm0-.3l-.1-.1h-.1s.1 0 .2.1zm-.1-.2l-.1-.1h-.1.2c.1 0 0 .1 0 .1zm-.1-.2l-.2-.1h-.2.3l.1.1zm-.2-.2h-.4.4z"/><path id="path450" class="st7" d="M-285.7 396.9s0 .1.1.1.2.1.2.1l-.1.1h-.3l-.1-.1.2-.2z"/><path id="path452" class="st8" d="M-285.7 396.9l.1.1.1.1-.1.1h-.2l-.1-.1.2-.2-.2.2.1.1h.3l.1-.1-.1-.1h-.1l-.1-.1z"/><path id="path454" class="st7" d="M-285.7 396.8l-.1-.2v.3c-.1 0 .1-.1.1-.1z"/><path id="path456" class="st8" d="M-285.7 396.8l-.1-.1-.1-.1v.1l.2.1-.2.1v-.2l.1.1h.1z"/><path id="path458" class="st7" d="M-285.8 397.1h.1"/><path id="path460" class="st8" d="M-285.8 397.1h.2-.2z"/><path id="path462" class="st7" d="M-285.8 397s.1-.1.1-.2h-.1l-.1.1.1.1z"/><path id="path464" class="st8" d="M-285.8 397l.1-.1v-.1h-.1v.2-.1l.1-.1-.1.2z"/><path id="path466" class="st7" d="M-285.9 397.1h.2l-.1-.1-.1.1z"/><path id="path468" class="st8" d="M-285.9 397.1l.1.1v-.1h-.1l.1-.1-.1.1z"/><path id="path470" class="st7" d="M-285.8 397l-.1.1-.1-.1h.2z"/><path id="path472" class="st8" d="M-285.8 397h-.3.1.2z"/><path id="path474" class="st7" d="M-285.9 397s-.1.2-.2.2 0-.3 0-.3h.1c0 .1.1.1.1.1z"/><path id="path476" class="st8" d="M-285.9 397l-.1.1v-.2h.1v.1h-.2v.2h.1l.1-.2z"/><path id="path478" class="st7" d="M-286.1 396.9l.1.1-.1.1v-.2z"/><path id="path480" class="st8" d="M-286.1 396.9v.1h.1l-.1-.1z"/><path id="path482" class="st38" d="M-286.6 397.2c.2.1.3 0 .3 0h-.3z"/><path id="path484" class="st39" d="M-286.6 397.2c.2.1.2 0 .2 0h-.2.3l-.1.1-.2-.1z"/><path id="path486" class="st38" d="M-286.5 397.2s0 .1.1.1l.2-.1-.2-.2-.1.2z"/><path id="path488" class="st39" d="M-286.5 397.2s0 .1.1.1l.2-.1-.2-.2-.1.2.1-.2.2.1s-.1.1-.2.1h-.1zm0 0h.2-.1-.1z"/><path id="path490" class="st38" d="M-286.4 397.1s0 .1.1.1l.1-.1-.1-.1-.1.1z"/><path id="path492" class="st39" d="M-286.4 397.1l.1.1h.1l-.1-.2-.1.1.1-.1.1.1-.1.1-.1-.1zm0 0l.1.1h.1l-.2-.1zm-.2.1h.2-.2z"/><path id="path494" class="st7" d="M-286.2 396.9s.1.1.1.2 0 .1-.1.1c0 0-.1-.1-.2-.1v-.1l.2-.1z"/><path id="path496" class="st8" d="M-286.2 396.9l.1.2v.1l-.1-.1v-.2l-.1.1v.1l.1.1h.1v-.1l-.1-.2z"/><path id="path498" class="st7" d="M-286.6 396.9c-.1 0-.1.1-.1.1l.1-.1z"/><path id="path500" class="st8" d="M-286.6 396.9h-.1v.1l.1-.1-.1.1.1-.1z"/><path id="path502" class="st7" d="M-286.6 397v.2h.1l-.1-.2z"/><path id="path504" class="st8" d="M-286.6 397h-.1v.1h.1v-.2.1z"/><path id="path506" class="st7" d="M-286.6 397.1v.2-.2z"/><path id="path508" class="st8" d="M-286.6 397.1l-.1.1v.1l.1-.2v.1-.1z"/><path id="path510" class="st7" d="M-286.5 396.8c-.1 0-.1 0-.1.1v.1h.1v-.2z"/><path id="path512" class="st8" d="M-286.5 396.8l-.1.2h.1v-.2.2h-.1l.1-.2z"/><path id="path514" class="st7" d="M-286.5 396.9s-.1 0-.1.1l.1.1.1-.1-.1-.1z"/><path id="path516" class="st8" d="M-286.5 396.9l-.1.1h.2l-.1-.1.1.1-.1-.1v.1h-.1l.1-.1z"/><path id="path518" class="st7" d="M-286.4 397.1l-.1.1-.1-.1.1-.1.1.1z"/><path id="path520" class="st8" d="M-286.4 397.1l-.1.1v-.1h.2-.1v-.1h-.1l-.1.1v.1l.2-.1z"/><path id="path522" class="st7" d="M-286.3 396.6h-.1c-.1 0-.1.1-.1.2v.2l.2-.1v-.3z"/><path id="path524" class="st8" d="M-286.3 396.6h-.1l-.1.1v.2l.1-.1.1-.2v.2l-.1.1v-.2l.1-.1z"/><path id="path526" class="st7" d="M-286.4 397c-.1 0-.1-.1-.1-.1s.1-.1.2-.1v.1l-.1.1z"/><path id="path528" class="st8" d="M-286.4 397l-.1-.1.1-.1h.1v.1l-.1.1.1-.1v-.1h-.1v.2z"/><path id="path530" class="st7" d="M-286.3 397c-.1.1-.2.1-.2 0v-.1l.2.1z"/><path id="path532" class="st8" d="M-286.3 397l-.1.1.1-.1-.1-.1h-.1l.2.1z"/><path id="path534" class="st7" d="M-286.4 396.8v.1l.1.1h.1l.1-.1-.1-.1h-.2z"/><path id="path536" class="st8" d="M-286.4 396.8v.2h.3v-.1l-.1-.1h-.2c.1-.1.1-.1.2-.1v.1h-.3.1z"/><path id="path538" class="st38" d="M-286.2 396.6h-.1l-.1.1v.1l.1-.1v-.1h.1z"/><path id="path540" class="st39" d="M-286.2 396.6h-.1l-.1.1v.1-.1l.2-.1z"/><path id="path542" class="st37" d="M-284.5 397.6l.5-.3v-.3l-.8.2.3.4z"/><path id="path544" class="st35" d="M-285.5 396.8l-.2-.1.2.1v.1c.1 0 0-.1 0-.1zm-.1.1l.1.3h-.1l-.1-.2.1-.1zm.3.1v-.3l-.2-.3v.1l.1.3v.2l.1.1v-.1z"/><path id="path546" class="st33" d="M-285.5 396.5v.1c0 .1 0 .3.1.4l-.1-.1c.1 0 0-.2 0-.4zm.2.2l-.1.1v.2-.1l.1-.2zm0 .5s-.1 0-.2-.1l-.2-.1h.3l.1.1h.2v.1h-.2zm-.4 0l.1.1-.1-.1z"/><path id="path548" class="st35" d="M-285.8 397.1h.2v.1h-.2v-.1z"/><path id="path550" class="st33" d="M-285.2 396.9v-.1l-.1-.1.1.2v.1-.1z"/><path id="path552" class="st34" d="M-285.5 396.8l-.2-.3.1-.1.1.1v.3z"/><path id="path554" class="st35" d="M-286 397.2l.1-.1h.1l.1.1h-.3z"/><path id="path556" class="st36" d="M-285.2 396.7v.3h-.1.1v-.3z"/><path id="path558" class="st33" d="M-285.7 397.2h.4v.1l-.1.1v-.1l-.3-.1z"/><path id="path560" class="st36" d="M-285.5 396.8s-.2-.2-.2-.3c-.1-.1 0-.3 0-.3l.2.2v.1c-.1.1 0 .3 0 .3z"/><path id="path562" class="st33" d="M-285.6 397.5c.1-.2.4-.3.4-.3v.2l-.4.1z"/><path id="path564" class="st36" d="M-285.6 397.3l-.1-.1.1.1zm.5.1l-.1-.1v-.1h-.2.1l-.2.1h.1l-.1.1-.1.1h.3l.2-.1z"/><path id="path566" class="st33" d="M-285.1 397.4s-.1 0-.1-.3v-.3l.1.1.1.1-.1.4z"/><path id="path568" class="st36" d="M-285.1 397v.4l.1.1v-.3l-.1-.2z"/><path id="path570" class="st37" d="M-284.9 397.1s0 .3-.1.4l-.1-.1.1.1.1-.4zm-.2.3l-.2.1c-.2.1-.2 0-.2 0h.2l.2-.1z"/><path id="path572" class="st33" d="M-285.4 396.9l.1.2-.1-.2z"/><path id="path574" class="st36" d="M-285.6 397.4l-.2-.1h-.2l.2.1h.2z"/><path id="path576" class="st37" d="M-285.6 397.4l-.2-.1-.2-.1.2.1.2.1z"/><path id="path578" class="st33" d="M-285.5 396.9h-.2v.1h.1l.1-.1z"/><path id="path580" class="st36" d="M-285.7 396.7l.2.1v.1l-.2-.2zm.2 0l-.2-.1.2.1h.1-.1z"/><path id="path582" class="st37" d="M-285 396.9l-.2-.1.1-.2.9-.6.4.6-.8.2-.4.1z"/><path id="path584" class="st7" d="M-284.4 397.9l.2-.1v.1l-.1.1-.1-.1z"/><path id="path586" class="st8" d="M-284.4 397.9l.2-.1v.1l-.1.1-.1-.1.1.1.1-.1v-.1l-.2.1z"/><path id="path588" class="st7" d="M-284.6 397.9l.1.1h-.2l.1-.1z"/><path id="path590" class="st8" d="M-284.6 397.9v.1h.2l-.2-.1z"/><path id="path592" class="st7" d="M-283.9 397.9l-.2-.2v.3h.2v-.1z"/><path id="path594" class="st8" d="M-283.9 397.9l-.1-.1v.3l.1-.1v-.1l-.1.1v-.3l.1.2z"/><path id="path596" class="st7" d="M-284.6 397.9c-.1 0-.2 0-.2.1v.2h.1c.1 0 .3-.2.3-.2h-.2.1l-.1-.1z"/><path id="path598" class="st8" d="M-284.6 397.9h-.2v.3h.3l.3-.2h-.2l-.2-.1.1.1h.3l-.2.1h-.3v-.1l.1-.1z"/><path id="path600" class="st38" d="M-284.8 398.3l.1-.1v-.2s-.2 0-.2.1l.1.2z"/><path id="path602" class="st7" d="M-284.4 398l-.1.1v.1h.1l.1-.1-.1-.1z"/><path id="path604" class="st8" d="M-284.4 398h-.1v.1h.1l.1-.1h-.1l.1.1-.1.1h-.1v-.1l.1-.1z"/><path id="path606" class="st7" d="M-283.8 398l-.1-.1-.1.1v.1h.1l.1-.1z"/><path id="path608" class="st8" d="M-283.8 398l-.1-.1-.1.1v.1h.1l.1-.1-.1.1v-.1h.1z"/><path id="path610" class="st7" d="M-284.2 397.9l-.2.1.1.1h.1l.1-.1v-.1h-.1z"/><path id="path612" class="st8" d="M-284.2 397.9l-.1.1v.1h.1l.1-.1v-.1h-.1l.1.1-.1.1h-.1l.1-.2z"/><path id="path614" class="st7" d="M-283.7 398h-.2v.1h.1l.1-.1z"/><path id="path616" class="st8" d="M-283.7 398h-.1v.1h.1v-.1.1h-.1v-.1h.1z"/><path id="path618" class="st7" d="M-283.9 398.1l.2.2h.1l.1-.1s0-.1-.1-.1h-.1l-.1.1-.1-.1v-.2h-.1l-.1.1-.1.1h-.1s0 .1-.1.1l-.1-.1h-.1v.2s.1.1.2 0l.1-.1.1-.1"/><path id="path620" class="st8" d="M-283.9 398.1h.1-.1l.2.2h.1l.1-.1h-.2l-.2-.1v-.1h-.2l-.1.1h-.3v.3h.2l.1-.1.1-.1-.1.1-.1.1h-.2v-.1h.1l.1.1h.2v-.4l.1-.1.1.1v.2-.1h.1l.1-.1h.2l-.1.1-.1-.1-.2.1z"/><path id="path622" class="st7" d="M-284 397.6v.4h-.2v-.2l.2-.2z"/><path id="path624" class="st8" d="M-284 397.6v.4h-.2v-.2l.2-.2-.2.2v.2h.2v-.4z"/><path id="path626" class="st38" d="M-284.6 398.5s-.1-.1 0-.1h.1v-.1l-.1-.1s-.1.1-.1.2l.1.1zm1-.1s.2.1.2-.1c0-.1-.1-.2-.1-.2l-.1.1v.1h.1c0 .2-.1.1-.1.1z"/><path id="path628" class="st7" d="M-284.2 398.1h.1l.1.1c.1 0 .1-.1.1-.1"/><path id="path630" class="st8" d="M-284.2 398.1h.3-.1-.1-.1z"/><path id="path632" class="st39" d="M-284.6 398.5s-.1 0-.1-.2c0-.1.1-.1.1-.1l-.1.1c0 .2.1.2.1.2zm-.2-.2s-.1 0-.1-.1.2-.2.2-.2-.2 0-.2.1c0 .2.1.2.1.2zm1.2.1c.1 0 .2 0 .2-.1v-.2h-.1.1s.1.1 0 .2-.1.2-.2.1z"/><path id="path634" class="st34" d="M-283.7 397.2l-.2-.2v-.2l1.2 1-.1.1-.3-.1-.6-.6zm1.3.4s-.3-.2-.7-.5l-.8-.6v.3l1 .9.3.2h.2v-.3z"/><path id="path636" class="st40" d="M-283.9 396.9s.3.4.6.6l.5.4v-.1l-1.1-.9z"/><path id="path638" class="st34" d="M-284 397h.1l.8.8-.1.1-.1-.1-.7-.7v-.1z"/><path id="path640" class="st37" d="M-282.4 397.6s-.1.2-.3.2c-.2 0-1.2-1-1.2-1v.1s1 .9 1.2 1c.3-.1.4-.2.3-.3z"/><path id="path642" class="st40" d="M-284 397s.3.4.5.6c.2.2.3.3.4.3.1 0 0-.1 0-.1l-.5-.5-.3-.3h-.1z"/><path id="path644" class="st37" d="M-283.9 397s.8.9.9.9c.1 0 .3-.1.3-.1h-.1s0 .1-.2 0c-.1 0-.9-.8-.9-.8z"/><path id="path646" class="st34" d="M-283.6 397.8l-.3-.3-.1-.1v-.1l.6.6-.1.1-.1-.2z"/><path id="path648" class="st37" d="M-283 397.8s-.1.1-.2.1l-.2-.1-.5-.5v-.1s.6.7.8.7c0 0 0-.1.1-.1zm-.4 0s0 .1-.1.1h-.1l-.3-.5v-.1s.4.5.5.5z"/><path id="path650" class="st41" d="M-283.7 396.7l.3.3h.2-.1l.2.2h.2-.1s.2.1.2.2h.2-.1l.2.2-.3-.2v.1-.1l-.2-.2v.1-.1l-.2-.2v.1-.1c-.2.1-.6-.3-.5-.3z"/><path id="path652" class="st34" d="M-284.3 397.7s0 .1-.1.2c-.1 0-.2-.2-.2-.2v-.2l.2.2c0-.2.1 0 .1 0zm.4-.1v-.4l-.1.1v.4l.1-.1zm-.1.2v-.2l-.1-.3v-.1h-.1l-.1.1v.1l.1.2.2.2z"/><path id="path654" class="st37" d="M-284.1 397.3l.1.1.1.2h-.1l.1.1v-.1h-.1l-.1-.2v-.1s.1.2.1.3v-.5h.1v-.4l-.4.5.2.1zm0-.1v.3l.1.2v.2l-.1-.4v-.3l-.1.1.1-.1z"/><path id="path656" class="st34" d="M-284.1 397.9v-.2l-.1-.3-.1-.1-.1-.1v.2s.1.2.2.3c-.1 0 .1.2.1.2z"/><path id="path658" class="st37" d="M-284.6 397.3v.2l.1.2c0 .1.1.2.1.2l.1-.1-.1.1-.1-.4-.1-.2zm.3.3l-.1-.2-.1-.1v-.1l.1.1h.1v.3z"/><path id="path660" class="st42" d="M-284.5 397.5l.1.1.1.2-.1-.2-.1-.1z"/><path id="path662" class="st37" d="M-284.2 397.4l.1-.1h-.1l-.1-.1.1.2zm-.1 0l.1.3v.2-.1l-.1-.4z"/><path id="path664" class="st34" d="M-284.1 397.2v-.4l-.1-.3s-.1-.1-.2-.1v.3l.3.5z"/><path id="path666" class="st43" d="M-284.7 397.5c.1 0 .1-.1.1-.1l-.4-.6c-.1 0 .3.7.3.7zm.2-.2v.2c-.1 0-.5-.5-.5-.6l-.2-.2.3.1.4.5z"/><path id="path668" class="st42" d="M-284.5 397.3v.2l-.1-.1c-.1-.1-.4-.5-.4-.5l-.1-.1-.1-.1h.2l.5.6-.5-.5-.2-.1.2.1.2.3.3.2v.1-.1z"/><path id="path670" class="st37" d="M-284.7 397.5v-.2l-.3-.4-.1-.1v.1s.1.2.2.3c-.1-.1.2.3.2.3z"/><path id="path672" class="st34" d="M-284.3 397.4v-.2l-.2-.5h-.1l-.1-.1-.1-.1v.3l.2.3.3.3zm.3-.3v-.3l-.2-.5h-.1l-.1-.1v.3l.2.4.2.2z"/><path id="path674" class="st37" d="M-284.5 397.2l-.2-.2-.1-.2h-.1l-.1-.1s0 .1.2.3c.2.3.3.2.3.2z"/><path id="path676" class="st43" d="M-284.1 397.3c.1 0 .1-.3 0-.5s-.2-.3-.2-.3.1.3.2.4v.2l-.1-.2-.1-.1c0-.1.2.4.2.5-.1-.1-.4-.6-.4-.6s.2.6.4.6z"/><path id="path678" class="st34" d="M-284 396l.1.2v.8l-.1-.5v-.5l-.1-.1.1.1z"/><path id="path680" class="st43" d="M-284.3 397.4v-.1.1l-.1-.3v-.1l-.1.1-.2-.4c-.1.1.2.7.4.7z"/><path id="path682" class="st37" d="M-284.4 397.1v-.2c0-.1-.1-.3-.1-.3h-.1l-.1-.1.1.3c0 .1.2.3.2.3zm.2-.1s0-.2-.1-.4l-.1-.2v.2s.1 0 .1.1l.1.3zm.2-.3v-.3l-.1-.3.1.1v-.2.1.1.1l.1.2c-.2 0-.1.2-.1.2zm.2 0v-.5c-.1-.2-.2-.3-.2-.3s.1.2.1.3c0 .1.1.5.1.5zm-.3.1l-.1-.4-.1-.2-.1-.1v.3l.1.1.2.3z"/><path id="path684" class="st32" d="M-284 397.2c.1 0 0-.3 0-.4l-.2-.5s.2.6.1.6l-.1-.2c.1 0 .2.4.2.5l-.1-.2v.1l.1.1zm.1-.2v-.4l-.1-.4s.1.2.1.4.1.4 0 .4z"/><path id="path686" class="st44" d="M-284.4 397.4s0 .1-.1.1-.2-.1-.2-.2c0 0 .2.1.3.1z"/><path id="path688" class="st35" d="M-284.1 395.9c.2 0 .2-.1.2-.2v-.1s.1 0 .1.1c-.1.1-.1.3-.2.3h-.1v-.1z"/><path id="path690" class="st36" d="M-284.2 395.6s.1.1.1.3v.2l-.1-.5z"/><path id="path692" class="st45" d="M-284.9 395.3l-.8.4.6.8.7-.8-.5-.4z"/><path id="path694" class="st34" d="M-284.9 395.8l.1.1v-.2h.1l.1-.1.1-.2v-.1l-.1-.3-.1.1h-.1l-.1.1-.1-.1v.2l.1.2v.3z"/><path id="path696" class="st46" d="M-284.7 395.9v-.4l-.1-.2s.1.2.1.4v.2zm0-.4l.1.1v-.3l-.1-.2.1.2c0 .1.1.3 0 .3s-.1-.1-.1-.1z"/><path id="path698" class="st36" d="M-285 395.6h.1v.1l.1.1.1.1-.2-.1c-.1 0-.1-.2-.1-.2z"/><path id="path700" class="st35" d="M-284.8 396.8s-.1 0-.2-.1l-.4-.4v-.2h.1l.2-.1v-.1l.3-.1.1-.1h.3l.1-.1.1.2v.3l-.1-.1s.1.3 0 .3l-.2-.1s.1.3 0 .3l-.3-.1c0 .1.1.4 0 .4z"/><path id="path702" class="st36" d="M-284.8 396.4l.1.3c0 .1-.1-.1-.1-.2l-.1-.2c-.1 0 .1.1.1.1zm.5-.7s.1.4.1.5c-.1 0-.2-.1-.2-.2l-.2-.3h.3zm-.7.9l-.3-.3-.1-.1v-.1h.1s.3.2.3.3v.2zm.4 0s-.2-.1-.3-.2l-.2-.3v-.1h.1l.4.6zm.1-.2l-.1-.1c-.1-.1 0-.2 0-.2l.1.3zm.1 0s-.1-.1-.2-.3l-.1-.1h-.1.1l.1-.1.2.5z"/><path id="path704" class="st33" d="M-285 396.7c-.1 0-.5-.2-.6-.4l-.2-.3h.1l.5.6.2.1z"/><path id="path706" class="st36" d="M-285 396.7c-.1 0-.2 0-.4-.3s-.3-.4-.3-.4v-.1h.1l.4.5.2.3z"/><path id="path708" class="st34" d="M-284.6 396.5l-.2-.2c-.1-.1-.2-.3-.2-.3h.1v-.1h.1l.1.1v.1l.1.2-.1-.1c-.1 0 .1.3.1.3zm-.2-.1c0 .2-.1.2 0 0l-.2-.1v.1l-.2-.2-.1-.2v-.2l.2.2h.1l.1.2c-.1.1.1.2.1.2zm-.8-.3s.2.3.3.4l.3.2-.6-.6zm1.2.2l-.2-.2c-.1-.1-.1-.2-.1-.3v-.2l.2.2.1.2h-.1l.1.3zm.1-.2l-.1-.1v-.2l-.1-.2v-.2h.1l.1.1v.6zm-1.2.4c-.1-.2-.2-.3-.2-.3v-.2c0 .1 0 .2.2.5.2.1.3.2.3.2v.2c0-.1-.1-.2-.3-.4z"/><path id="path710" class="st37" d="M-285.2 396.8l-.3-.3-.2-.4-.1-.1s.1.3.2.4l.4.4zm.2-.1l-.3-.3-.2-.2h.1l.1.2.3.3zm0-.4l-.2-.2-.1-.2.2.2.1.2zm0-.5v.3h.1l.1.1-.1-.2-.1-.2s.1 0 .1.1l.1.2s0-.1-.1-.2c.1 0-.1-.1-.1-.1zm.5.3l-.1-.2-.1-.3v.2c0 .1 0 .2-.1.2h-.1.1l.1-.1.1.1c0-.1.1.1.1.1zm-.2-.6s.1.1.2.1v-.2h.1v-.1l.2.3c.1.1.1.3.1.3s-.1-.2-.2-.3c0-.1-.1-.2-.1-.2v.2l.1.2v.2l-.1-.1-.1-.1-.1-.1h-.1v-.2z"/><path id="path712" class="st47" d="M-285.1 396.1l.1.2.1.2-.1-.2-.1-.2z"/><path id="path714" class="st36" d="M-284.3 396.1v.1h.1l-.1-.1z"/><path id="path716" class="st35" d="M-285.7 395.3l-.1.2v.3l.1.2c0 .1.2.2.2.2s.1-.1.1-.2v-.2l.1.2.1.1.1-.2-.2-.5-.1-.1h-.3z"/><path id="path718" class="st33" d="M-285.2 395.8l.1.2v.1s.1-.1.1-.2v-.6l-.1-.1-.1.2v.4zm-.4-.2v.3c0 .1.1.2.1.2l.1-.2v-.5l-.2.2z"/><path id="path720" class="st48" d="M-285.9 395.2s-.2.2-.2.4l.1.2.1.4v-1z"/><path id="path722" class="st33" d="M-285.9 395.3s-.1.2-.1.4l.1.1v.3l.1-.1h.1l-.1-.1v-.7c0 .1-.1.1-.1.1z"/><path id="path724" class="st49" d="M-285.1 395.7h-.1v-.1c0-.1.1.1.1.1z"/><path id="path726" class="st35" d="M-285.8 395.3s-.1.2-.1.4c0 .1.1.3.1.3v-.7z"/><path id="path728" class="st36" d="M-285.6 395.3l-.1.2-.1.2.1-.1h.1v.1l-.1.1v.1-.1-.1l.1.1v-.1l.1-.1v-.2h.1l-.2-.1z"/><path id="path730" class="st49" d="M-285.1 395.8h-.1.1z"/><path id="path732" class="st36" d="M-285.8 395.8v.2-.2l-.1-.1v-.2h-.1v.1-.1l.1-.2v-.1h.1l.1.1h-.1l-.1.2.1.3zm.6-.4v.1l-.1.1v.3-.1-.1-.1h.1v-.1l-.1-.1v-.1l.1.1v-.5c.2.3 0 .5 0 .5z"/><path id="path734" class="st45" d="M-284.6 395.1v.2l.1.2-.1-.2v-.2l-.1.1s0 .2.1.2l-.1-.1v-.1.1l.1.1-.1-.1v.1l.1.1h-.3v.2l.1.2-.1-.2v-.6l.1-.3.2.3zm-.5 0l.1.1-.1.1c-.1 0-.2.1-.2.1v-.1l.1-.1.1-.1zm-.6.2s0 .1.1.1.2-.2.2-.2v-.1s-.2.2-.3.2zm0-.2v.1h-.1v-.1h.1zm1.1-.2l.1.2.1.2-.1-.1-.1-.1v-.2z"/><path id="path736" class="st49" d="M-285.9 395.2h.1v-.1.1l.1.1.1-.1.1-.1v.1c0 .1.1.1.1 0l.1-.2v-.1h.1l.1-.3h-.2l-.1.1h-.2v-.1l-.1.1h-.1v.3l-.1.2z"/><path id="path738" class="st36" d="M-285.2 394.9v.2l-.1.2.2-.2c.1-.1 0-.3 0-.3l-.1.1zm.1-.1v.4l.1.1s.1 0 .1-.1l.1-.2v.1l.1.1v-.1l-.1-.2-.1-.2-.1-.1h-.2c.2 0 .1.2.1.2z"/><path id="path740" class="st33" d="M-284.8 394.6v.4-.2-.2z"/><path id="path742" class="st34" d="M-284.6 395v.1s-.1 0-.1-.2l-.1-.2v-.1h.1c0-.1.1.4.1.4zm-.4.2s.1-.1.2-.3c0-.1-.1-.3-.1-.3s0 .2-.1.3v.3-.1l.1-.1-.1.2zm-.1-.4l-.1.1-.1.1.1-.1v-.1.1h-.1v-.1l.1-.1.1.1z"/><path id="path744" class="st45" d="M-284.6 394.5l.1.2v.3l-.1-.2v-.2l-.1-.1h-.1v-.2l.2.2zm-.4.5s.1-.1.1-.3v-.2h-.1l-.1-.1v.2c0 .1-.1.2-.1.2h.1c.2-.1.2-.2.2-.2v.1l-.1.3z"/><path id="path746" class="st36" d="M-285.9 395.2l.1-.2.1-.2s.1 0 .1-.1l.1-.1s0 .1.1.2l.1.1v.4-.2l-.2-.1-.1.1.1-.1v-.2l.1-.1v-.1l-.1.1-.1.1v.1l-.1.2v-.1l.1-.2-.2.2-.1.2z"/><path id="path748" class="st50" d="M-284.6 394.4l-.2.1v-.1h.2z"/><path id="path750" class="st51" d="M-285.7 394.6v.1l-.1.1h.1s.1-.2 0-.2z"/><path id="path752" class="st49" d="M-285 394.4s0 .4-.1.4-.1-.2-.1-.2 0 .2-.1.2l-.1-.2s0 .1-.1.2-.2 0-.2 0 .1-.1.1-.3l.1-.1.2-.1.1-.1h.1l.1-.1v.3z"/><path id="path754" class="st51" d="M-285.4 394.1l.1.2v.1c0 .1-.1.1 0 .2v-.1l.1-.1.1.3s.1-.1.1-.2c0 0 .1.2.2.1.1 0 .1-.2.1-.2l-.1-.2-.4-.2v.1h-.2z"/><path id="path756" class="st36" d="M-284.9 394l.1.1v.3s-.1 0-.1-.1v-.2l-.1-.2v-.1h.1v.2z"/><path id="path758" class="st34" d="M-284.9 394l.1.2.1.2h.1s-.1.1-.2 0l-.1-.2c0-.2-.1-.2-.1-.2h.1z"/><path id="path760" class="st45" d="M-285 393.9l.2.2.1.2.1.1h-.1l-.1-.1-.1-.2-.1-.1.1.1.1.2-.1-.2c0-.1-.1-.2-.1-.2v.2l.1.2-.1-.2-.1-.1-.1-.1h.2z"/><path id="path762" class="st36" d="M-285.3 394.1h.2v.2-.1c-.1 0-.2-.1-.2-.1z"/><path id="path764" class="st51" d="M-285.3 394.3v.2c0 .1-.1.3-.1.3v-.3.1l.1-.3z"/><path id="path766" class="st36" d="M-285.4 394.4l-.1.1v.1l-.1.2.1-.1.1-.3.1.2v-.3h-.1v.1z"/><path id="path768" class="st49" d="M-285 393.8v.1h-.2l-.2-.1h-.2v-.1h.2l.2.1h.2z"/><path id="path770" class="st33" d="M-285 393.8l-.1.1-.2-.1h-.2.2.3z"/><path id="path772" class="st34" d="M-285.6 393.7"/><path id="path774" class="st49" d="M-285.2 394l.1.1-.1-.1h-.4.2.2zm-.1.1l.1.2-.3-.2-.1.2-.3-.2.2-.1h.1l.3.1z"/><path id="path776" class="st33" d="M-285.4 393.8l.2.1h.2-.1l-.1-.1h-.2z"/><path id="path778" class="st34" d="M-285.6 393.8h.2-.2z"/><path id="path780" class="st33" d="M-285.1 394.1h-.1l-.2-.1-.2-.1h-.1.1.2.2l.1.2zm-.3.1v.2-.2h-.1l.1-.1v-.1.2z"/><path id="path782" class="st34" d="M-285.6 393.9l.2.1h.2l.1.1h-.1l-.2-.1-.2-.1z"/><path id="path784" class="st33" d="M-285.2 394.3c0 .1-.1.1-.2 0v-.1l-.1-.1.2.1.1.1z"/><path id="path786" class="st34" d="M-285.2 394.3s-.1-.1-.3-.2h.1-.1-.1v.1h.1l.1.1-.1.1.1-.1h.1l-.1-.1.2.1z"/><path id="path788" class="st49" d="M-285.5 394.1s.2 0 .1.2-.1.1-.1.1h.1l.1-.1-.2-.2z"/><path id="path790" class="st52" d="M-286.2 393.7c0 .2-.1.3-.1.3l-.2.2h.1l.2-.2v-.3z"/><path id="path792" class="st49" d="M-285.7 393.5s.1.1 0 .3c-.1.2-.2.3-.2.3l-.3.2h-.1v-.2l.1-.1.1-.1v-.2.1.1l.1-.1.1-.1v.4-.2-.1l.1-.1.1-.2z"/><path id="path794" class="st32" d="M-285.6 394.4c0 .2 0 .2-.1.2l.1-.2h-.2.1c0-.1.1 0 .1 0z"/><path id="path796" class="st33" d="M-285.7 394.4h-.1.1z"/><path id="path798" class="st32" d="M-286.2 394.1h.3l.1-.1s.2-.1.2-.3v-.3s.2.2 0 .4c-.1.2-.2.2-.2.2s.2-.1.2 0v.1s.1 0 .1.1h-.2l-.2.2h-.3s-.2 0-.2-.1l.1-.1c0-.1.1-.1.1-.1z"/><path id="path800" class="st33" d="M-285.8 393.7l.1-.1v-.1l-.1.2z"/><path id="path802" class="st32" d="M-285.8 393.5s.1.2 0 .3c-.1.2-.4.3-.4.3s.3-.1.3-.3c.1-.1.1-.2.1-.3z"/><path id="path804" class="st45" d="M-286.1 394.1l.3-.1-.1.1v-.1l-.2.1zm.2-.3s.1-.1.1-.2c0-.2-.1-.1-.1-.1s.1 0 0 .3zm.1.1l.1-.1v-.1.1l-.1.1zm0 .5s0-.1.1-.1l.1.1h-.2zm-.2-.2l.2-.1.2-.1-.2.1-.2.1h.2-.2z"/><path id="path806" class="st0" d="M-286.2 394v.2l-.1.1h-.1"/><path id="path808" class="st53" d="M-286.2 394.1v.2l-.1.1h-.1"/><path id="path810" d="M-286.3 394.1v.1-.1"/><path id="path814" class="st33" d="M-286.2 393.9s.1-.1.1-.2v-.2.1.1h.1s.1-.2.1-.3v.2c0 .2-.1.2-.2.2s-.1.1-.2.2l-.1.2.1-.1.1-.2z"/><path id="path816" class="st32" d="M-286.2 394v-.3s.1 0 .1.1c0 .2-.1.2-.1.2z"/><path id="path818" class="st34" d="M-286 393.9v-.2l-.1-.1s.1 0 .1.1v.2z"/><path id="path820" class="st33" d="M-286.4 394.3v-.2l.2-.1s.1-.2 0-.2v.2l-.2.3z"/><path id="path822" class="st54" d="M-285.7 394.6v-.1l-.1-.1h-.1l.1.1.1.1zm0 0s.1 0 .1-.1v-.1c.1 0 0 .2-.1.2z"/><path id="path824" class="st55" d="M-286.3 394.6h.3l.1-.1-.1-.1h-.1l-.2.2z"/><path id="path826" class="st56" d="M-285.8 394.5l-.2-.1h-.5l-.1.1s-.2.1-.2.2c0 .2.3.4.4.3 0 0-.2-.1-.1-.2 0-.1.1-.2.2-.2s.1 0 .2-.1c.1 0 .1-.1.2 0l-.3.1v.1s.4-.1.4-.2z"/><path id="path828" class="st36" d="M-285.8 394.5l-.1-.1h-.6l-.1.1-.1.1s-.1.1-.1.2 0 .1.1.2c.1-.1.1 0 .2 0h.1l-.1-.1v-.1l.1-.1h.5-.1-.1-.1l.1.1.2-.1.1-.2-.1.1-.2.1h-.1v-.1h.2l-.1-.1h-.4l-.1.1.1.1.1.1h-.1c-.1 0-.1 0-.2-.1s-.1-.1-.1-.2l.1-.2h.2l.1.1h.3l.3.1z"/><path id="path830" class="st57" d="M-286.6 394.8s-.2 0-.2-.2.2-.2.2-.2v-.1h.2s-.3.1-.3.3l.1.2z"/><path id="path832" class="st58" d="M-285.8 394.5c-.1-.1-.1-.1-.2-.1h-.3l-.2-.1v.1h-.1s0-.1.1-.1l.3.1h.2c.1 0 .2 0 .2.1z"/><path id="path834" class="st59" d="M-286.3 394.6h.2l-.1.1-.1-.1z"/><path id="path836" class="st56" d="M-286.5 394.9s-.1 0-.2-.1-.1-.2-.1-.2 0-.1.1-.2l.1-.1-.1.1v.4l.2.1z"/><path id="path838" class="st60" d="M-286.5 394.3"/><path id="path840" class="st56" d="M-286.3 394.5l-.2.1.2-.1h.3c0 .1-.2.1-.2.1h.3v-.1l-.1-.1h-.1l-.2.1z"/><path id="path842" class="st36" d="M-286.6 394.8l.1.1h-.1c-.1 0-.2 0-.2-.2v.1l.1.1.1.1h.2l-.2-.2z"/><path id="path844" class="st11" d="M-286.2 394.7v-.1.1z"/><path id="path846" class="st10" d="M-285.9 396.8l-.2-.1h.1l.1.1zm0-.2h-.3.1.2zm0-.2l-.1.1-.1.1h.1l.1-.2zm-.1-.1l-.1.1-.1.1v.1l.1-.1.1-.1v-.1zm-.1-.1l-.1.2.1-.2zm-.1 0v.4l.1-.2-.1-.2zm-.1 0v.3-.1-.2zm-.1 0v.3-.1-.2zm-.1 0v.3-.3zm-.1 0v.2l-.1.1.1-.1v-.2zm0 0l-.1.1-.1.1.1-.1.1-.1zm-.1 0l-.1.1.1-.1zm0-.1l-.2.1.2-.1zm-.1 0l-.1.1.1-.1zm0-.2l-.1.1.1-.1zm.6-.8l.1-.1-.1.1zm0-.1h.2-.2zm0 0l.2-.1-.2.1zm-.1-.1l.2-.1-.2.1zm-.1-.1l.1-.1.1-.1-.2.2zm0-.1l.1-.1-.1.1z"/><path id="path848" class="st5" d="M-286.3 394.6l.1.1c.1.1.1.1.1.2l-.1.3-.4.3-.2.2-.1.2.1.2c0 .1.1.1.2.1h.3c.1 0 .2 0 .2.1.2.1.2.2.2.3v.3-.3c0-.1 0-.2-.1-.3-.1-.1-.2-.1-.3-.1h-.3c-.1 0-.1 0-.2-.1l-.1-.2c0-.1 0-.2.1-.2.1-.1.2-.2.4-.3.1-.1.2-.2.3-.4l-.1-.3-.1-.1z"/><path id="path850" class="st56" d="M-286.3 394.5"/><path id="path852" class="st36" d="M-286.3 394.6"/><path id="path854" class="st8" d="M-285.9 397"/><path id="path856" class="st3" d="M-286.4 394.8"/><path id="path858" class="st5" d="M-286.9 396"/><path id="path860" class="st0" d="M-286.9 396"/><path id="path862" class="st5" d="M-286.9 396.1"/><path id="path864" class="st0" d="M-286.8 396.3"/><path id="path866" class="st3" d="M-286.2 396.6"/><path id="path868" class="st0" d="M-286.1 396.6"/><path id="path870" class="st3" d="M-286.1 396.7"/><path id="path872" class="st0" d="M-286.9 393.9"/><path class="st28" d="M-282.732 398.083" id="path441"/><path id="path886" class="st61" d="M-284.9 387c-5.5 0-10 4.5-10 10s4.5 10 10 10 10-4.5 10-10-4.5-10-10-10zm0 19c-5 0-9-4-9-9s4-9 9-9 9 4 9 9-4 9-9 9z"/></svg>