<svg xmlns="http://www.w3.org/2000/svg" viewBox="0 0 20 20" enable-background="new 0 0 20 20"><circle fill="#fff" stroke="#B6B6B6" stroke-width=".05" cx="10" cy="10" r="10"/><path d="M16.452 17.633h-12.904c.511.433 1.064.817 1.656 1.141h9.593c.591-.323 1.144-.708 1.655-1.141zM19.973 10.534h-19.946c.021.387.061.767.124 1.141h19.697c.064-.374.105-.754.125-1.141zM18.489 15.267h-16.978c.248.399.516.783.816 1.141h15.347c.299-.358.567-.742.815-1.141zM16.492 6.942h3.028c-.126-.393-.281-.771-.453-1.141h-2.574v1.141zM19.569 12.901h-19.138c.119.392.263.771.427 1.141h18.284c.164-.37.309-.75.427-1.141zM16.492 4.576h1.902c-.26-.402-.549-.782-.863-1.141h-1.039v1.141zM16.492 9.309h3.473c-.026-.387-.071-.768-.14-1.141h-3.333v1.141z" fill="none"/><path fill="#DC241F" d="M17.531 3.435c-.321-.368-.667-.714-1.039-1.032v1.032h1.039zM16.492 5.801h2.574c-.197-.425-.42-.835-.673-1.225h-1.902v1.225zM16.492 8.168h3.333c-.078-.418-.178-.828-.305-1.226h-3.028v1.226zM20 10c0-.233-.019-.462-.035-.691h-3.473v.115h-16.463l-.029.576.027.534h19.946l.027-.534zM19.849 11.675h-19.698c.07.417.159.827.279 1.225h19.138c.122-.397.21-.808.281-1.225zM19.142 14.042h-18.284c.189.426.409.833.653 1.225h16.978c.244-.392.465-.799.653-1.225zM17.673 16.408h-15.346c.371.443.78.852 1.221 1.225h12.904c.441-.373.851-.781 1.221-1.225zM5.203 18.775c1.425.78 3.059 1.225 4.797 1.225s3.372-.445 4.797-1.225h-9.594z"/><path fill="#0035AD" d="M10 0c-5.328 0-9.671 4.171-9.971 9.424h16.463v-7.021000000000001c-1.747-1.495-4.012-2.403-6.492-2.403z"/><path fill="#FFD100" d="M9.106 7.348c-.467.284-1.01.456-1.596.456-1.708 0-3.092-1.385-3.092-3.092s1.384-3.092 3.092-3.092c.586 0 1.129.172 1.596.456-.624-.552-1.434-.898-2.332-.898-1.952 0-3.534 1.582-3.534 3.534 0 1.952 1.582 3.534 3.534 3.534.898 0 1.709-.346 2.332-.898zM10.045 3.564l-1.015-1.505.543 1.732-1.568-.915 1.241 1.325-1.81-.144 1.694.655-1.694.655 1.81-.144-1.241 1.325 1.568-.915-.543 1.732 1.015-1.505.073.499.19 1.298.262-1.797 1.015 1.505-.543-1.732 1.568.915-1.241-1.325 1.81.144-1.693-.655 1.693-.655-1.81.144 1.241-1.325-1.568.915.543-1.732-1.015 1.505-.262-1.797-.19 1.298z"/></svg>