<svg xmlns="http://www.w3.org/2000/svg" viewBox="0 0 20 20" enable-background="new 0 0 20 20"><circle fill="#EE2E2F" stroke="#B6B6B6" stroke-width=".05" cx="10" cy="10" r="10"/><path fill="#fff" d="M4.955 1.376v6.124h-4.627c-.105.408-.188.824-.242 1.25h6.118v-8c-.433.179-.848.391-1.249.626zM8.705 11.25v8.657c.41.053.826.089 1.25.091v-7.498h9.718c.105-.408.188-.824.241-1.25h-11.209zM.086 11.25c.053.426.136.842.241 1.25h4.627v6.124c.401.235.816.448 1.25.626v-8h-6.118zM19.672 7.5h-9.717v-7.498c-.425.002-.84.038-1.25.091v8.657h11.209c-.054-.426-.137-.842-.242-1.25z"/><path fill="#213065" d="M19.914 8.75h-11.209v-8.657c-.873.113-1.712.334-2.5.657v8h-6.119c-.051.41-.086.826-.086 1.25s.035.84.086 1.25h6.118v8c.788.323 1.627.544 2.5.657v-8.657h11.209c.052-.41.087-.826.087-1.25s-.035-.84-.086-1.25z"/></svg>