<svg xmlns="http://www.w3.org/2000/svg" viewBox="0 0 20 20" enable-background="new 0 0 20 20"><circle fill="#fff" stroke="#B6B6B6" stroke-width=".05" cx="10" cy="10" r="10"/><path fill="#00247D" d="M18.866 14.615c.144-.277.277-.56.395-.851l-.543.395.148.456zM9.469.978l-3.876 1.938h3.876v2.9160000000000004h-3.876l3.876 1.938v.9780000000000001h-1.957l-5.333-2.667v2.667h-2.0919999999999996c-.052.411-.087.827-.087 1.252 0 5.523 4.477 10 10 10 3.746 0 7.006-2.063 8.719-5.111l-.502-.365-.811.589.31-.953-.811-.589h1.002l.31-.953.31.953h.806c.424-1.111.667-2.311.667-3.571 0-2.215-.729-4.255-1.948-5.913l-.556.404.26-.8-.132-.155-.574-.416h.195c-1.822-1.918-4.391-3.12-7.245-3.12l-.531.027v.951zm4.43 6.209l.275-.847.275.847h.891l-.72.524.275.847-.721-.524-.721.524.275-.847-.721-.524h.892z"/><path fill="#fff" d="M3.723 2.221l3.796-1.898c-1.409.36-2.699 1.011-3.796 1.898zM9.469 8.096v-.326l-3.876-1.938h-.652z"/><path fill="#CC142B" d="M9.409.03c-.649.038-1.28.137-1.89.293l-3.796 1.898c-.271.219-.533.449-.78.695h.694l5.772-2.886zM3.679 5.832l5.79 2.895v-.631l-4.528-2.264zM1.596 5.249h7.873v-1.75h-7.058c-1.243 1.45-2.075 3.257-2.324 5.249h1.509v-3.499z"/><path fill="#fff" d="M18.052 4.087l-.057-.076-.319.232.149-.459-.069-.093-.26.8.556-.404zM17.623 3.536l-.378-.416h-.195l.573.416z"/><path fill="#CC142B" d="M17.995 4.011l-.17-.227-.149.459.319-.232z"/><path fill="#fff" d="M13.453 8.559l.721-.524.721.524-.275-.848.721-.524h-.891l-.276-.847-.275.847h-.891l.721.524-.276.848zm-.154-1.277h.668l.207-.636.207.636h.668l-.541.393.207.636-.541-.393-.541.393.207-.636-.541-.393z"/><path fill="#CC142B" d="M13.633 8.311l.541-.393.541.393-.207-.636.541-.393h-.669l-.206-.635-.207.635h-.668l.541.393z"/><path fill="#fff" d="M18.217 12.617l-.31.953h-1.002l.811.589-.31.953.811-.589.502.365.049-.081-.552-.401-.631.458.241-.741-.631-.458h.78l.241-.742.241.742h.78l-.631.458.2.616.06-.123-.148-.456.543-.395.071-.195h-.806l-.309-.953z"/><path fill="#CC142B" d="M19.237 13.665h-.78l-.241-.742-.241.742h-.78l.631.458-.241.741.631-.458.552.401.038-.068-.2-.616.631-.458z"/></svg>