<svg xmlns="http://www.w3.org/2000/svg" viewBox="0 0 20 20" enable-background="new 0 0 20 20"><style id="style3" type="text/css">.st0{fill:#FFFFFF;} .st1{fill:#0038A8;} .st2{fill:#CE1126;} .st3{fill:#FCD116;} .st4{fill:#CCCCCC;}</style><circle id="circle5" r="10" cy="10.068" cx="9.983" class="st0" fill="#fff"/><path id="path7" d="M19.553 10.068c0-5.22-4.271-9.492-9.492-9.492-2.563 0-4.841 1.044-6.549 2.658l11.864 6.834h4.176z" class="st1" fill="#0038a8"/><path id="path9" d="M19.553 10.068h-4.176l-11.864 6.834c1.708 1.614 3.986 2.658 6.549 2.658 5.22 0 9.492-4.271 9.492-9.492" class="st2" fill="#ce1126"/><path id="path11" d="M3.983 8.168l-.4-1.4.2-.3.2 1.7zm.3 0l-.2-1.9.4-.5.4.5-.2 1.9h-.4zm.8 0l.4-1.4-.3-.3-.3 1.7h.2zm1.4 1.9c0 1.1-.9 2-2 2s-2-.9-2-2 .9-2 2-2 2 .9 2 2" class="st3" fill="#fcd116"/><path id="path13" d="M5.083 11.968l.3 1.4-.2.3-.3-1.7h.2zm-.4 0l.2 1.9-.4.5-.4-.5.2-1.9h.4zm-.7 0l-.4 1.4.2.3.3-1.7h-.1zm2.4-2.4l1.4-.3.3.2-1.7.1zm0 .3l1.9-.2.4.4-.5.4-1.9-.2v-.4h.1zm0 .7l1.4.4.3-.2-1.7-.3v.1zm-1.9 1.5c-1.1 0-2-.9-2-2s.9-2 2-2 2 .9 2 2-.9 2-2 2" class="st3" fill="#fcd116"/><path id="path15" d="M2.583 10.568l-1.4.3-.2-.2 1.7-.3v.2h-.1zm0-.3l-1.9.2-.4-.4.5-.4 1.9.2-.1.4zm0-.7l-1.3-.4-.3.3 1.7.3v-.2h-.1zm.2-.4l-1.2-.8v-.4l1.4 1-.2.2zm.2-.3l-1.4-1.2v-.6h.6l1.2 1.5-.4.3zm.6-.5l-.8-1.2-.3-.1 1 1.4.1-.1zm2.3.3c.8.8.8 2 0 2.8-.8.8-2 .8-2.8 0-.8-.8-.8-2 0-2.8.8-.8 2.1-.8 2.8 0" class="st3" fill="#fcd116"/><path id="path17" d="M6.183 10.968l1.2.7v.4l-1.4-1 .2-.1zm-.2.3l1.5 1.2v.6h-.6l-1.2-1.5.3-.3zm-.5.5l.7 1.2h.4l-1-1.4-.1.2zm0-3.4l.7-1.2h.4l-1 1.4-.1-.2zm.2.2l1.2-1.5h.6v.6l-1.5 1.2-.3-.3zm.5.5l1.2-.7v-.4l-1.4 1 .2.1zm-.3 2.4c-.8.8-2 .8-2.8 0-.8-.8-.8-2 0-2.8.8-.8 2-.8 2.8 0 .8.8.8 2 0 2.8" class="st3" fill="#fcd116"/><path id="path19" d="M3.583 11.768l-.7 1.2h-.4l1-1.4.1.2zm-.3-.2l-1.1 1.5h-.6v-.6l1.4-1.2.3.3zm-.5-.5l-1.2.7v.4l1.4-1-.2-.1zm8.6-.3l.6-.7-.6-.7.9.3.5-.8v.9l.9.3-.9.3v.9l-.5-.8-.9.3z" class="st3" fill="#fcd116"/><path d="M9.983.068c-5.5 0-10 4.5-10 10s4.5 10 10 10 10-4.5 10-10-4.5-10-10-10zm0 19c-5 0-9-4-9-9s4-9 9-9 9 4 9 9-4 9-9 9z" class="st4" id="path21" fill="#ccc"/></svg>