<svg xmlns="http://www.w3.org/2000/svg" viewBox="0 0 20 20" enable-background="new 0 0 20 20"><style type="text/css" id="style3">.st0{fill:#FFFFFF;} .st1{fill:#0000FF;} .st2{fill:#FF0000;} .st3{fill:#CCCCCC;}</style><circle class="st0" cx="10" cy="10" r="10" id="circle5" fill="#fff"/><path class="st1" d="M19.235 10.256c0-1.108-.185-2.124-.554-3.048h-17.363c-.369.924-.554 1.939-.554 3.048 0 1.108.185 2.124.554 3.048h17.455c.277-.924.462-1.939.462-3.048" id="path7" fill="#00f"/><path class="st2" d="M18.681 13.304h-17.363c1.201 3.602 4.618 6.188 8.681 6.188 4.064 0 7.481-2.586 8.681-6.188" id="path9" fill="#f00"/><path id="path11" class="st3" d="M10 0c-5.5 0-10 4.5-10 10s4.5 10 10 10 10-4.5 10-10-4.5-10-10-10zm0 19c-5 0-9-4-9-9s4-9 9-9 9 4 9 9-4 9-9 9z" fill="#ccc"/></svg>