<svg xmlns="http://www.w3.org/2000/svg" viewBox="0 0 20 20" enable-background="new 0 0 20 20"><style type="text/css" id="style3">.st0{fill:#FFFFFF;} .st1{fill:#ED2939;} .st2{fill:#CCCCCC;}</style><circle class="st0" cx="10" cy="10" r="10" id="circle5" fill="#fff"/><path class="st1" d="M10 .339c-5.127 0-9.322 4.195-9.322 9.322h18.644c0-5.127-4.195-9.322-9.322-9.322" id="path7" fill="#ed2939"/><path class="st0" d="M5.712 7.331c-.28-.28-.559-.653-.746-1.119-.093-.373-.186-.746-.186-1.212 0-.466.093-.839.28-1.305.186-.373.373-.746.746-1.119s.653-.559 1.119-.746c.373-.186.746-.186 1.119-.28-.466 0-.932-.093-1.305-.093-.466 0-.932.093-1.305.28-.373.186-.839.466-1.119.746-.28.28-.559.746-.746 1.119-.186.466-.28.932-.28 1.398 0 .466.093.932.28 1.305.186.466.466.839.746 1.119.28.28.746.559 1.119.746.466.186.839.28 1.305.28.373 0 .746-.093 1.119-.186-.373 0-.746-.093-1.119-.28-.373-.093-.746-.373-1.025-.653" id="path9" fill="#fff"/><path class="st0" d="M6.737 4.72l.466.373-.186-.559.466-.373h-.559l-.186-.653-.186.653h-.559l.466.373-.186.559.466-.373zm3.729-1.212l-.186.653h-.559l.466.373-.186.559.466-.373.466.373-.186-.559.466-.373h-.559l-.186-.653zm-2.331.186l.466-.373.466.373-.186-.559.466-.373h-.559l-.186-.653-.186.653h-.559l.466.373-.186.559zm.093 2.61h-.559l-.28-.559-.186.653h-.559l.466.373-.186.559.466-.373.466.373-.186-.653.559-.373zm1.678.093l-.186-.653-.186.653h-.559l.466.373-.186.559.466-.373.466.373-.093-.653.466-.373-.653.093z" id="path11" fill="#fff"/><path id="path13" class="st2" d="M10 0c-5.5 0-10 4.5-10 10s4.5 10 10 10 10-4.5 10-10-4.5-10-10-10zm0 19c-5 0-9-4-9-9s4-9 9-9 9 4 9 9-4 9-9 9z" fill="#ccc"/></svg>