<svg xmlns="http://www.w3.org/2000/svg" viewBox="0 0 20 20" enable-background="new 0 0 20 20"><circle cx="10" cy="10" r="10" fill="#E30A17"/><path d="M9.385 5.999c1.182 0 2.245.515 2.978 1.331-.887-1.4-2.449-2.33-4.228-2.33-2.76 0-5 2.24-5 5s2.24 5 5 5c1.779 0 3.341-.93 4.228-2.33-.733.816-1.796 1.33-2.978 1.33-2.208 0-4-1.792-4-4s1.792-4.001 4-4.001zM16.862 8.543c-.032-.043-1.651.554-1.701.537-.051-.016-1.012-1.45-1.063-1.433-.051.016.017 1.741-.015 1.784-.031.043-1.691.514-1.691.568 0 .053 1.66.522 1.692.565.031.043-.034 1.768.017 1.784.051.017 1.01-1.418 1.061-1.434.051-.017 1.671.578 1.702.534.031-.043-1.037-1.398-1.037-1.452 0-.053 1.066-1.41 1.035-1.453z" fill="#fff"/></svg>