<svg xmlns="http://www.w3.org/2000/svg" viewBox="0 0 20 20" enable-background="new 0 0 20 20"><circle fill="#fff" stroke="#B6B6B6" stroke-width=".05" stroke-miterlimit="10" cx="10" cy="10" r="10"/><path fill="#BB133E" d="M19.722 12.308h-19.444c.125.529.285 1.045.49 1.538h18.462c.207-.493.366-1.009.492-1.538zM18.418 15.385h-16.836c.354.552.759 1.067 1.212 1.538h14.411c.453-.471.858-.986 1.213-1.538zM4.688 18.462c1.54.969 3.358 1.538 5.312 1.538s3.772-.569 5.312-1.538h-10.624zM15.312 1.538l-.112-.068v.068h.112zM15.2 4.615h3.218c-.354-.552-.759-1.067-1.212-1.538h-2.006v1.538z"/><path fill="#fff" d="M2.56 5.849l-.138.425h-.448l.362.263-.138.426.362-.263.362.263-.138-.426.362-.263h-.448l-.138-.425zm0 .616zM2.698 8.434l-.138-.425-.138.425h-.448l.362.263-.138.426.362-.263.362.263-.138-.426.362-.263zM2.56 3.689l-.138.425h-.448l.362.263-.138.426.362-.263.362.263-.138-.426.362-.263h-.448zM3.82 6.929l-.138.425h-.448l.362.263-.138.426.362-.263.362.263-.138-.426.362-.263h-.448zM3.958 9.514l-.138-.425-.138.425h-.448l.362.263-.138.426.362-.263.362.263-.138-.426.362-.263zM1.3 6.929l-.138.425h-.448l.362.263-.138.426.362-.263.362.263-.138-.426.362-.263h-.448zM1.438 9.514l-.138-.425-.138.425h-.448l.362.263-.138.426.362-.263.362.263-.138-.426.362-.263zM13.314.874l.362.263-.138.426.362-.263.362.263-.138-.426.199-.144-.246-.119h-.038l-.007-.022-.23-.1-.04.122h-.448zM3.82 4.769l-.138.425h-.448l.362.263-.138.426.362-.263.362.263-.138-.426.362-.263h-.448zM5.978 1.563l.362-.263.362.263-.138-.426.362-.263h-.448l-.065-.2-.166.061-.045.139h-.278l-.102.049.294.214-.138.426zM1.3 5.62l.362.263-.138-.426.362-.263h-.448l-.072-.222c-.12.206-.232.417-.337.631l-.091.28.362-.263zM8.86 2.609l-.138.425h-.448l.362.263-.138.426.362-.263.362.263-.138-.426.362-.263h-.448zM8.86 4.769l-.138.425h-.448l.362.263-.138.426.362-.263.362.263-.138-.426.362-.263h-.448zM10.12 1.529l-.138.425h-.448l.362.263-.138.426.362-.263.362.263-.138-.426.362-.263h-.448zM8.86 6.929l-.138.425h-.448l.362.263-.138.426.362-.263.362.263-.138-.426.362-.263h-.448zM8.86.449l-.138.425h-.448l.362.263-.138.426.362-.263.362.263-.138-.426.362-.263h-.448zM11.38 6.929l-.138.425h-.448l.362.263-.138.426.362-.263.362.263-.138-.426.362-.263h-.448zM8.998 9.514l-.138-.425-.138.425h-.448l.362.263-.138.426.362-.263.362.263-.138-.426.362-.263zM11.518 9.514l-.138-.425-.138.425h-.448l.362.263-.138.426.362-.263.362.263-.138-.426.362-.263zM14.038 9.514l-.138-.425-.138.425h-.448l.362.263-.138.426.362-.263.362.263-.138-.426.362-.263zM12.64 1.529l-.138.425h-.448l.362.263-.138.426.362-.263.362.263-.138-.426.362-.263h-.448zM10.12 5.849l-.138.425h-.448l.362.263-.138.426.362-.263.362.263-.138-.426.362-.263h-.447l-.139-.425zm0 .616zM12.64 5.849l-.138.425h-.448l.362.263-.138.426.362-.263.362.263-.138-.426.362-.263h-.448zM10.258 8.434l-.138-.425-.138.425h-.448l.362.263-.138.426.362-.263.362.263-.138-.426.362-.263zM13.9 4.769l-.138.425h-.448l.362.263-.138.426.362-.263.362.263-.138-.426.362-.263h-.448zM13.9 6.929l-.138.425h-.448l.362.263-.138.426.362-.263.362.263-.138-.426.362-.263h-.448zM13.9 2.609l-.138.425h-.448l.362.263-.138.426.362-.263.362.263-.138-.426.362-.263h-.448zM10.12 3.689l-.138.425h-.448l.362.263-.138.426.362-.263.362.263-.138-.426.362-.263h-.448zM7.6 3.689l-.138.425h-.448l.362.263-.138.426.362-.263.362.263-.138-.426.362-.263h-.448zM6.34 6.929l-.138.425h-.448l.362.263-.138.426.362-.263.362.263-.138-.426.362-.263h-.448zM6.478 9.514l-.138-.425-.138.425h-.448l.362.263-.138.426.362-.263.362.263-.138-.426.362-.263zM6.34 4.769l-.138.425h-.448l.362.263-.138.426.362-.263.362.263-.138-.426.362-.263h-.448zM5.08 1.529l-.138.425h-.448l.362.263-.138.426.362-.263.362.263-.138-.426.362-.263h-.448zM3.82 2.609l-.138.425h-.448l.362.263-.138.426.362-.263.362.263-.138-.426.362-.263h-.448zM5.08 5.849l-.138.425h-.448l.362.263-.138.426.362-.263.362.263-.138-.426.362-.263h-.448zM5.218 8.434l-.138-.425-.138.425h-.448l.362.263-.138.426.362-.263.362.263-.138-.426.362-.263zM11.38 4.769l-.138.425h-.448l.362.263-.138.426.362-.263.362.263-.138-.426.362-.263h-.448zM5.08 3.689l-.138.425h-.448l.362.263-.138.426.362-.263.362.263-.138-.426.362-.263h-.448zM6.34 2.609l-.138.425h-.448l.362.263-.138.426.362-.263.362.263-.138-.426.362-.263h-.448zM7.738 8.434l-.138-.425-.138.425h-.448l.362.263-.138.426.362-.263.362.263-.138-.426.362-.263zM12.778 8.434l-.138-.425-.138.425h-.448l.362.263-.138.426.362-.263.362.263-.138-.426.362-.263zM7.6 1.529l-.138.425h-.448l.362.263-.138.426.362-.263.362.263-.138-.426.362-.263h-.448zM7.6 5.849l-.138.425h-.448l.362.263-.138.426.362-.263.362.263-.138-.426.362-.263h-.448zM12.64 3.689l-.138.425h-.448l.362.263-.138.426.362-.263.362.263-.138-.426.362-.263h-.448zM11.38 2.609l-.138.425h-.448l.362.263-.138.426.362-.263.362.263-.138-.426.362-.263h-.448zM11.38.449l-.138.425h-.448l.362.263-.138.426.362-.263.362.263-.138-.426.362-.263h-.448z"/><path fill="#002664" d="M10.12 6.465zM2.56 6.465zM15.2 9.231v-7.760999999999999c-.284-.173-.576-.332-.878-.477l-.199.144.138.426-.361-.263-.362.263.138-.426-.362-.263h.448l.04-.122c-1.173-.482-2.456-.752-3.802-.752-1.266 0-2.472.245-3.587.674l.065.2h.448l-.362.263.138.426-.362-.263-.362.263.138-.426-.294-.214c-1.87.862-3.424 2.281-4.456 4.048l.072.223h.448l-.362.263.138.426-.362-.263-.362.263.091-.28c-.653 1.328-1.029 2.817-1.029 4.397 0 .26.019.515.039.769h15.161v-1.538zm-13.538.972l-.362-.263-.362.263.138-.426-.362-.263h.448l.138-.425.138.426h.448l-.362.262.138.426zm-.138-2.586l.138.426-.362-.263-.362.263.138-.426-.362-.263h.448l.138-.425.138.426h.448l-.362.262zm1.398 1.506l-.362-.263-.362.263.138-.426-.362-.263h.447l.139-.425.138.426h.448l-.362.262.138.426zm-.138-2.586l.138.426-.362-.263-.362.263.138-.426-.362-.263h.447l.139-.425.138.426h.448l-.362.262zm0-2.16l.138.426-.362-.263-.362.263.138-.426-.362-.263h.447l.139-.425.138.426h.448l-.362.262zm1.398 5.826l-.362-.263-.362.263.138-.426-.362-.263h.448l.138-.425.138.426h.448l-.362.262.138.426zm-.138-2.586l.138.426-.362-.263-.362.263.138-.426-.362-.263h.448l.138-.425.138.426h.448l-.362.262zm0-2.16l.138.426-.362-.263-.362.263.138-.426-.362-.263h.448l.138-.425.138.426h.448l-.362.262zm0-2.16l.138.426-.362-.263-.362.263.138-.426-.362-.263h.448l.138-.425.138.426h.448l-.362.262zm1.398 5.826l-.362-.263-.362.263.138-.426-.362-.263h.448l.138-.425.138.426h.448l-.362.262.138.426zm-.138-2.586l.138.426-.362-.263-.362.263.138-.426-.362-.263h.448l.138-.425.138.426h.448l-.362.262zm0-2.16l.138.426-.362-.263-.362.263.138-.426-.362-.263h.448l.138-.425.138.426h.448l-.362.262zm0-2.16l.138.426-.362-.263-.362.263.138-.426-.362-.263h.448l.138-.425.138.426h.448l-.362.262zm1.398 7.986l-.362-.263-.362.263.138-.426-.362-.263h.448l.138-.425.138.426h.448l-.362.262.138.426zm-.138-2.586l.138.426-.362-.263-.362.263.138-.426-.362-.263h.448l.138-.425.138.426h.448l-.362.262zm0-2.16l.138.426-.362-.263-.362.263.138-.426-.362-.263h.448l.138-.425.138.426h.448l-.362.262zm0-2.16l.138.426-.362-.263-.362.263.138-.426-.362-.263h.448l.138-.425.138.426h.448l-.362.262zm1.398 5.826l-.362-.263-.362.263.138-.426-.362-.263h.448l.138-.425.138.426h.448l-.362.262.138.426zm-.138-2.586l.138.426-.362-.263-.362.263.138-.426-.362-.263h.448l.138-.425.138.426h.448l-.362.262zm0-2.16l.138.426-.362-.263-.362.263.138-.426-.362-.263h.448l.138-.425.138.426h.448l-.362.262zm0-2.16l.138.426-.362-.263-.362.263.138-.426-.362-.263h.448l.138-.425.138.426h.448l-.362.262zm1.398 7.986l-.362-.263-.362.263.138-.426-.362-.263h.448l.138-.425.138.426h.448l-.362.262.138.426zm-.138-2.586l.138.426-.362-.263-.362.263.138-.426-.362-.263h.448l.138-.425.138.426h.448l-.362.262zm0-2.16l.138.426-.362-.263-.362.263.138-.426-.362-.263h.448l.138-.425.138.426h.448l-.362.262zm0-2.16l.138.426-.362-.263-.362.263.138-.426-.362-.263h.448l.138-.425.138.426h.448l-.362.262zm0-2.16l.138.426-.362-.263-.362.263.138-.426-.362-.263h.448l.138-.425.138.426h.448l-.362.262zm1.398 7.986l-.362-.263-.362.263.138-.426-.362-.263h.448l.138-.426.138.426h.447l-.362.263.139.426zm-.138-2.586l.138.426-.362-.263-.362.263.138-.426-.362-.263h.448l.138-.426.138.426h.447l-.361.263zm0-2.16l.138.426-.362-.263-.362.263.138-.426-.362-.263h.448l.138-.426.138.426h.447l-.361.263zm0-2.16l.138.426-.362-.263-.362.263.138-.426-.362-.263h.448l.138-.426.138.426h.447l-.361.263zm1.398 7.986l-.362-.263-.362.263.138-.426-.362-.263h.447l.138-.426.138.426h.448l-.362.263.139.426zm-.138-2.586l.138.426-.362-.263-.362.263.138-.426-.362-.263h.447l.138-.426.138.426h.448l-.361.263zm0-2.16l.138.426-.362-.263-.362.263.138-.426-.362-.263h.447l.138-.426.138.426h.448l-.361.263zm0-2.16l.138.426-.362-.263-.362.263.138-.426-.362-.263h.447l.138-.426.138.426h.448l-.361.263zm0-2.16l.138.426-.362-.263-.362.263.138-.426-.362-.263h.447l.138-.426.138.426h.448l-.361.263zm1.398 7.986l-.362-.263-.362.263.138-.426-.362-.263h.448l.138-.426.138.426h.448l-.362.263.138.426zm-.138-2.586l.138.426-.362-.263-.362.263.138-.426-.362-.263h.448l.138-.426.138.426h.448l-.362.263zm0-2.16l.138.426-.362-.263-.362.263.138-.426-.362-.263h.448l.138-.426.138.426h.448l-.362.263zm0-2.16l.138.426-.362-.263-.362.263.138-.426-.362-.263h.448l.138-.426.138.426h.448l-.362.263zm1.398 7.986l-.362-.263-.362.263.138-.426-.362-.263h.448l.138-.425.138.426h.448l-.362.263.138.425zm-.138-2.586l.138.426-.362-.263-.362.263.138-.426-.362-.263h.448l.138-.425.138.426h.448l-.362.262zm0-2.16l.138.426-.362-.263-.362.263.138-.426-.362-.263h.448l.138-.425.138.426h.448l-.362.262zm0-2.16l.138.426-.362-.263-.362.263.138-.426-.362-.263h.448l.138-.425.138.426h.448l-.362.262zM14.076.874l-.045-.022.007.022h.038zM6.247.735l-.323.139h.278l.045-.139z"/><path fill="#BB133E" d="M15.2 7.692h4.522c-.125-.529-.285-1.045-.49-1.538h-4.032v1.538zM15.2 10.769h4.761c.02-.254.039-.509.039-.769s-.019-.515-.039-.769h-4.761v1.538z"/></svg>