<svg xmlns="http://www.w3.org/2000/svg" viewBox="0 0 20 20" enable-background="new 0 0 20 20"><circle cx="10" cy="10" r="10" fill="#fff" stroke="#E6E6E6" stroke-width=".05"/><path d="M16.06 6.7l-9.255-6.169c-.507.171-.998.378-1.466.625l8.317 5.544h2.404z" fill="none"/><path d="M19.431 6.7c-1.365-3.899-5.066-6.7-9.431-6.7-1.119 0-2.19.192-3.195.531l9.255 6.169h3.371z" fill="#E23828"/><path d="M1.39 4.933c-.878 1.487-1.39 3.215-1.39 5.067s.512 3.58 1.39 5.067l7.601-5.067-7.601-5.067z"/><path d="M2.14 3.831c-.274.349-.524.717-.75 1.102l7.601 5.067-7.601 5.067c.227.384.476.753.751 1.102l9.254-6.169-9.255-6.169z" fill="#FFB300"/><path d="M19.431 13.3h-3.371l-9.255 6.169c1.005.339 2.076.531 3.195.531 4.365 0 8.066-2.801 9.431-6.7z" fill="#00209F"/><path d="M19.799 12c.131-.646.201-1.315.201-2s-.07-1.354-.201-2h-4.193l-1.95-1.3-8.317-5.544c-1.247.659-2.334 1.574-3.199 2.675l9.255 6.169-9.255 6.169c.865 1.101 1.952 2.016 3.199 2.675l10.266-6.844h4.194z" fill="#00774B"/></svg>